<?xml version="1.0" encoding="iso-8859-1"?>
<!-- Generator: Adobe Illustrator 18.1.1, SVG Export Plug-In . SVG Version: 6.00 Build 0)  -->
<!DOCTYPE svg PUBLIC "-//W3C//DTD SVG 1.1//EN" "http://www.w3.org/Graphics/SVG/1.1/DTD/svg11.dtd">
<svg version="1.1" xmlns="http://www.w3.org/2000/svg" xmlns:xlink="http://www.w3.org/1999/xlink" x="0px" y="0px"
	 viewBox="0 0 3880.016 3880.016" style="enable-background:new 0 0 3880.016 3880.016;" xml:space="preserve">
<g id="colorblock_x5F_5">
	<path style="fill:#B9B9B9;" d="M38.632,2113.53h-0.145l-0.875-25.583l-1.157-29.017h0.165l-0.345-10.079
		c0,0-1.208-38.286-1.231-39.013c-7.26-230.143-14.182-462.955,0.5-692.913c9.973-134.254,28.792-267.105,50.564-399.881
		l10.019-59.426l10.213-59.318l10.404-59.182l19.484-108.62l54.694,9.86c0,0,20.352,22.234,20.913,22.847
		c61.211,66.87,134.844,106.263,224.488,118.754l54.162,6.689c0,0-15.884,89.401-15.884,89.404
		c-50.265,293.244-75.635,582.057-69.701,879.606c2.096,105.129,5.82,210.238,9.877,315.306c0,0,5.15,122.611,5.149,122.612
		c-126.113,19.872-251.091,40.328-375.214,70.443L38.632,2113.53z"/>
	<path style="fill:#B9B9B9;" d="M3094.686,2640.419c-163.302-5.38-318.231-39.54-478.769-77.037l-82.618-18.755l2.017-204.518
		H3722.31l2.016,204.518c0,0-82.611,18.754-82.612,18.754c-156.587,36.574-307.38,73.154-469.313,77.342
		C3146.252,2641.399,3120.365,2641.265,3094.686,2640.419z"/>
	<path style="fill:#B9B9B9;" d="M2534.673,3400.769c0,0,0.358-84.923,0.358-84.923c0.279-173.07-2.139-346.37-8.13-519.281
		l-4.59-122.588h1213c0,0-4.593,122.719-4.593,122.722c-5.986,173.073-4.803,346.24-8.127,519.269l0.36,84.804L2534.673,3400.769z"
		/>
	<path style="fill:#B9B9B9;" d="M3127.312,2305.607c0,0-592.641,0.021-592.641,0.02c0.934-220.707-6.316-441.293-10.072-661.756
		l-1.131-22.288c0,0-1.281-22.32-1.282-22.327c-13.166-205.617-51.775-406.19-92.782-607.65c0,0-12.137-58.659-12.137-58.659
		l-16.691-79.27c0,0,21.024-27.315,21.028-27.321c71.435-92.811,94.629-219.396,185.649-300.35
		c85.265-79.029,190.888-123.402,295.324-170.124c0,0,47.942-21.614,47.942-21.614l21.909,8.988c0,0,3.232,1.247,3.241,1.251
		c42.787,16.514,97.044,17.063,142.491,17.692c53.298,0.738,116.843,0.433,167.035-18.943l21.908-8.988
		c0,0,44.957,20.269,47.847,21.573c102.034,46.003,212.41,93.272,295.423,170.17l18.073,16.062l-0.488,0.618l7.283,7.322
		l0.556,0.571c0,0,0.685,0.745,0.759,0.825c71.239,77.497,91.42,182.065,151.883,264.607c0,0,7.577,10.339,7.577,10.339
		l21.029,27.324c0,0-16.701,79.314-16.701,79.315c-45.446,219.689-90.537,442.016-104.911,666.284c0,0-1.277,22.27-1.277,22.27
		c-10.119,199.593-12.062,399.46-11.565,599.275l0.36,84.806L3127.312,2305.607z"/>
	<path style="fill:#B9B9B9;" d="M134.576,3265.131c0,0-11.421-50.905-11.421-50.905c-16.397-69.588-37.641-137.747-63.568-204.361
		l-22.097-55.022c0,0,47.229-21.619,47.242-21.625c115.337-52.795,198.719-149.536,283.316-240.637
		c115.723-124.62,240.328-239.904,370.981-348.663l152.894-129.958c0,0,18.679,77.474,18.679,77.475
		c6.679,22.637,22.772,40.661,40.877,55.127c18.658,14.908,39.947,27.251,61.014,38.404l48.847,24.484
		c0,0-63.392,129.364-63.392,129.364c-24.118,51.88-45.057,109.741-51.392,166.808c-5.822,52.45,3.59,108.751,36.897,149.687
		c35.336,43.427,91.058,61.837,143.461,75.217c0,0,6.043,1.571,6.043,1.571l56.167,13.778c0,0-23.081,62.571-23.082,62.574
		c-30.062,83.946-51.882,169.646-70.637,256.684L134.576,3265.131z"/>
	<polygon style="fill:#B9B9B9;" points="122.988,3698.717 147.693,3511.177 122.988,3323.636 1107.414,3323.638 1078.488,3511.179 
		1107.414,3698.719 	"/>
	<polygon style="fill:#B9B9B9;" points="1358.923,3698.718 1387.847,3511.179 1358.923,3323.638 2343.348,3323.636 
		2318.643,3511.178 2343.348,3698.716 1484.001,3698.718 	"/>
	<polygon style="fill:#B9B9B9;" points="2491.449,3812.31 2511.21,3650.282 2491.449,3488.253 3765.794,3488.253 3746.035,3650.282 
		3765.794,3812.31 	"/>
	<path style="fill:#B9B9B9;" d="M1857.606,2058.536c14.743-280.94,32.305-561.489,59.775-841.519
		c8.65-88.181,17.907-176.292,26.94-264.434l14.555-139.075c0,0-39.494-11.41-39.872-11.52
		c-21.329-6.163-37.671-24.676-48.853-42.984c-6.323-10.353-11.476-21.409-15.736-32.758
		c-12.952-34.503-20.059-71.157-31.221-106.302c-15.544-48.943-37.068-102.941-69.501-144.742c0,0-0.569-0.688-0.583-0.706
		c-28.709-34.237-65.26-60.771-104.465-81.78c-39.327-21.075-81.183-36.906-123.145-51.836c-9.748-3.468-19.504-6.914-29.288-10.282
		l-49.43-16.493c0,0-19.622,44.573-19.622,44.573c-22.751,47.598-66.341,87.49-121.598,89.892
		c-2.724,0.132-45.436,0.954-45.436,0.934c0,0,0,1719.214,0,1719.214s50.997,0.303,50.997,0.303
		c107.699,1.341,215.328,9.776,321.992,24.695c50.125,7.011,100.045,15.48,149.675,25.408l66.175,13.465
		C1848.966,2232.59,1857.606,2058.536,1857.606,2058.536z"/>
	<path style="fill:#B9B9B9;" d="M610.137,2058.536c-14.743-280.94-32.305-561.489-59.775-841.519
		c-8.65-88.181-17.907-176.292-26.94-264.434l-14.555-139.075c0,0,39.493-11.41,39.872-11.52
		c21.329-6.163,37.671-24.676,48.853-42.984c6.323-10.353,11.476-21.409,15.736-32.758c12.952-34.503,20.059-71.157,31.221-106.302
		c15.544-48.943,37.068-102.941,69.501-144.742c0,0,0.569-0.688,0.583-0.706c28.709-34.237,65.26-60.771,104.465-81.78
		c39.327-21.075,81.183-36.906,123.145-51.836c9.748-3.468,19.504-6.914,29.288-10.282l49.43-16.493
		c0,0,19.622,44.573,19.622,44.573c22.751,47.598,66.341,87.49,121.598,89.892c2.724,0.132,45.436,0.954,45.436,0.934
		c0,0,0,1719.214,0,1719.214s-50.997,0.303-50.997,0.303c-107.699,1.341-215.328,9.776-321.992,24.695
		c-50.124,7.011-100.045,15.48-149.675,25.408l-66.175,13.465C618.777,2232.59,610.137,2058.536,610.137,2058.536z"/>
	<path style="fill:#B9B9B9;" d="M2429.104,2113.53h0.145l0.875-25.583l1.157-29.017h-0.165l0.345-10.079
		c0,0,1.208-38.286,1.231-39.013c7.26-230.143,14.182-462.955-0.5-692.913c-9.973-134.254-28.792-267.105-50.564-399.881
		l-10.019-59.426l-10.213-59.318l-10.404-59.182l-19.484-108.62l-54.694,9.86c0,0-20.352,22.234-20.913,22.847
		c-61.211,66.87-134.844,106.263-224.488,118.754l-54.162,6.689c0,0,15.884,89.401,15.884,89.404
		c50.265,293.244,75.635,582.057,69.702,879.606c-2.096,105.129-5.82,210.238-9.877,315.306c0,0-5.15,122.611-5.149,122.612
		c126.113,19.872,251.091,40.328,375.214,70.443L2429.104,2113.53z"/>
	<path style="fill:#B9B9B9;" d="M2331.759,3265.132c0,0,11.421-50.905,11.421-50.905c16.396-69.588,37.641-137.747,63.568-204.361
		l22.097-55.022c0,0-47.229-21.619-47.242-21.625c-115.337-52.795-198.719-149.536-283.316-240.637
		c-115.723-124.62-240.328-239.904-370.98-348.663l-152.894-129.958c0,0-18.679,77.474-18.679,77.475
		c-6.679,22.637-22.772,40.661-40.877,55.127c-18.658,14.908-39.947,27.251-61.014,38.404l-48.847,24.484
		c0,0,63.392,129.364,63.392,129.364c24.118,51.88,45.057,109.741,51.392,166.808c5.822,52.45-3.59,108.751-36.897,149.687
		c-35.336,43.427-91.058,61.837-143.461,75.217c0,0-6.043,1.571-6.043,1.571l-56.167,13.778c0,0,23.081,62.571,23.081,62.574
		c30.062,83.946,51.882,169.646,70.637,256.684L2331.759,3265.132z"/>
</g>
<g>
</g>
</svg>
