<?xml version="1.0" encoding="iso-8859-1"?>
<!-- Generator: Adobe Illustrator 18.1.1, SVG Export Plug-In . SVG Version: 6.00 Build 0)  -->
<!DOCTYPE svg PUBLIC "-//W3C//DTD SVG 1.1//EN" "http://www.w3.org/Graphics/SVG/1.1/DTD/svg11.dtd">
<svg version="1.1" xmlns="http://www.w3.org/2000/svg" xmlns:xlink="http://www.w3.org/1999/xlink" x="0px" y="0px"
	 viewBox="0 0 3880.016 3880.016" style="enable-background:new 0 0 3880.016 3880.016;" xml:space="preserve">
<g id="colorblock_x5F_3">
	<g>
		<defs>
			<path id="SVGID_1_" d="M2534.673,3400.769c0,0,0.358-84.923,0.358-84.923c0.279-173.07-2.139-346.37-8.13-519.281l-4.59-122.588
				h1213c0,0-4.593,122.719-4.593,122.722c-5.986,173.073-4.803,346.24-8.127,519.269l0.36,84.804L2534.673,3400.769z"/>
		</defs>
		<clipPath id="SVGID_2_">
			<use xlink:href="#SVGID_1_"  style="overflow:visible;"/>
		</clipPath>
		<g style="clip-path:url(#SVGID_2_);">
			<g>
				<rect x="3006.64" y="1291.901" style="fill:#255B2D;" width="245.112" height="2597.083"/>
			</g>
		</g>
	</g>
	<g>
		<defs>
			<path id="SVGID_3_" d="M3094.686,2640.419c-163.302-5.38-318.231-39.54-478.769-77.037l-82.618-18.755l2.017-204.518H3722.31
				l2.016,204.518c0,0-82.611,18.754-82.612,18.754c-156.587,36.574-307.38,73.154-469.313,77.342
				C3146.252,2641.399,3120.365,2641.265,3094.686,2640.419z"/>
		</defs>
		<clipPath id="SVGID_4_">
			<use xlink:href="#SVGID_3_"  style="overflow:visible;"/>
		</clipPath>
		<g style="clip-path:url(#SVGID_4_);">
			<g>
				<rect x="3006.64" y="322.859" style="fill:#255B2D;" width="245.112" height="2597.083"/>
			</g>
		</g>
	</g>
	<g>
		<defs>
			<path id="SVGID_5_" d="M3127.312,2305.607c0,0-592.641,0.021-592.641,0.02c0.934-220.707-6.316-441.293-10.072-661.756
				l-1.131-22.288c0,0-1.281-22.32-1.282-22.327c-13.166-205.617-51.775-406.19-92.782-607.65c0,0-12.137-58.659-12.137-58.659
				l-16.691-79.27c0,0,21.024-27.315,21.028-27.321c71.435-92.811,94.629-219.396,185.649-300.35
				c85.265-79.029,190.888-123.402,295.324-170.124c0,0,47.942-21.614,47.942-21.614l21.909,8.988c0,0,3.232,1.247,3.241,1.251
				c42.787,16.514,97.044,17.063,142.491,17.692c53.298,0.738,116.843,0.433,167.035-18.943l21.908-8.988
				c0,0,44.957,20.269,47.847,21.573c102.034,46.003,212.41,93.272,295.423,170.17l18.073,16.062l-0.488,0.618l7.283,7.322
				l0.556,0.571c0,0,0.685,0.745,0.759,0.825c71.239,77.497,91.42,182.065,151.883,264.607c0,0,7.577,10.339,7.577,10.339
				l21.029,27.324c0,0-16.701,79.314-16.701,79.315c-45.446,219.689-90.537,442.016-104.911,666.284c0,0-1.277,22.27-1.277,22.27
				c-10.119,199.593-12.062,399.46-11.565,599.275l0.36,84.806L3127.312,2305.607z"/>
		</defs>
		<clipPath id="SVGID_6_">
			<use xlink:href="#SVGID_5_"  style="overflow:visible;"/>
		</clipPath>
		<g style="clip-path:url(#SVGID_6_);">
			<g>
				<rect x="3006.641" y="196.757" style="fill:#255B2D;" width="245.112" height="2597.083"/>
			</g>
		</g>
	</g>
	<g>
		<defs>
			<path id="SVGID_7_" d="M1857.606,2058.536c14.743-280.94,32.305-561.489,59.775-841.519
				c8.65-88.181,17.907-176.292,26.94-264.434l14.555-139.075c0,0-39.494-11.41-39.872-11.52
				c-21.329-6.163-37.671-24.676-48.853-42.984c-6.323-10.353-11.476-21.409-15.736-32.758
				c-12.952-34.503-20.059-71.157-31.221-106.302c-15.544-48.943-37.068-102.941-69.501-144.742c0,0-0.569-0.688-0.583-0.706
				c-28.709-34.237-65.26-60.771-104.465-81.78c-39.327-21.075-81.183-36.906-123.145-51.836
				c-9.748-3.468-19.504-6.914-29.288-10.282l-49.43-16.493c0,0-19.622,44.573-19.622,44.573
				c-22.751,47.598-66.341,87.49-121.598,89.892c-2.724,0.132-45.436,0.954-45.436,0.934c0,0,0,1719.214,0,1719.214
				s50.997,0.303,50.997,0.303c107.699,1.341,215.328,9.776,321.992,24.695c50.125,7.011,100.045,15.48,149.675,25.408
				l66.175,13.465C1848.966,2232.59,1857.606,2058.536,1857.606,2058.536z"/>
		</defs>
		<clipPath id="SVGID_8_">
			<use xlink:href="#SVGID_7_"  style="overflow:visible;"/>
		</clipPath>
		<g style="clip-path:url(#SVGID_8_);">
			<g>
				<g>
					<rect x="219.534" y="1115.662" style="fill:#255B2D;" width="2150.228" height="245.112"/>
				</g>
			</g>
		</g>
	</g>
	<g>
		<defs>
			<path id="SVGID_9_" d="M610.137,2058.536c-14.743-280.94-32.305-561.489-59.775-841.519
				c-8.65-88.181-17.907-176.292-26.94-264.434l-14.555-139.075c0,0,39.493-11.41,39.872-11.52
				c21.329-6.163,37.671-24.676,48.853-42.984c6.323-10.353,11.476-21.409,15.736-32.758
				c12.952-34.503,20.059-71.157,31.221-106.302c15.544-48.943,37.068-102.941,69.501-144.742c0,0,0.569-0.688,0.583-0.706
				c28.709-34.237,65.26-60.771,104.465-81.78c39.327-21.075,81.183-36.906,123.145-51.836c9.748-3.468,19.504-6.914,29.288-10.282
				l49.43-16.493c0,0,19.622,44.573,19.622,44.573c22.751,47.598,66.341,87.49,121.598,89.892
				c2.724,0.132,45.436,0.954,45.436,0.934c0,0,0,1719.214,0,1719.214s-50.997,0.303-50.997,0.303
				c-107.699,1.341-215.328,9.776-321.992,24.695c-50.124,7.011-100.045,15.48-149.675,25.408l-66.175,13.465
				C618.777,2232.59,610.137,2058.536,610.137,2058.536z"/>
		</defs>
		<clipPath id="SVGID_10_">
			<use xlink:href="#SVGID_9_"  style="overflow:visible;"/>
		</clipPath>
		<g style="clip-path:url(#SVGID_10_);">
			<g>
				<g>
					<rect x="99.438" y="1115.662" style="fill:#255B2D;" width="2150.228" height="245.112"/>
				</g>
			</g>
		</g>
	</g>
</g>
<g>
</g>
</svg>
