<?xml version="1.0" encoding="UTF-8"?>
<svg width="26px" height="26px" viewBox="0 0 26 26" version="1.1" xmlns="http://www.w3.org/2000/svg" xmlns:xlink="http://www.w3.org/1999/xlink">
    <!-- Generator: Sketch 50.2 (55047) - http://www.bohemiancoding.com/sketch -->
    <title>duplicate</title>
    <desc>Created with Sketch.</desc>
    <defs></defs>
    <g id="Symbols" stroke="none" stroke-width="1" fill="none" fill-rule="evenodd">
        <g id="Design-Tools/Adjust-Tools" transform="translate(-171.000000, 0.000000)">
            <g id="duplicate" transform="translate(171.000000, 0.168317)">
                <circle id="Oval-Copy-4" fill="#4A90E2" cx="12.6140451" cy="12.5" r="12.5"></circle>
                <g id="Group-4" transform="translate(6.829982, 5.000000)" stroke="#FFFFFF" stroke-linecap="round">
                    <path d="M12.3584856,3.47584437 L12.3584856,4.10038784 L12.3584856,11.0264322 C12.3584856,11.1897784 12.2247896,11.3234744 12.0614433,11.3234744 L3.32322556,11.3234744 C3.19761604,11.3234744 3.09572677,11.2215852 3.09572677,11.0959756 L3.09572677,0.150157083 C3.09572677,0.0684839389 3.16203566,0.00244459824 3.2437088,0.00244459824 L8.64384003,0.00244459824 L12.3584856,3.47584437 Z" id="Stroke-188" stroke-linejoin="round"></path>
                    <g id="Icon-Copy" transform="translate(0.000000, 2.780681)">
                        <path d="M9.4831954,3.47350759 L9.4831954,4.09805107 L9.4831954,11.0240954 C9.4831954,11.1874417 9.34949943,11.3211376 9.18615314,11.3211376 L0.447935413,11.3211376 C0.322325892,11.3211376 0.220436624,11.2192484 0.220436624,11.0936389 L0.220436624,0.147820304 C0.220436624,0.06614716 0.286745512,0.000107819332 0.368418656,0.000107819332 L5.76854988,0.000107819332" id="Stroke-188" fill="#4A90E2"></path>
                        <path d="M5.93006324,0.244049057 C5.93006324,0.113857214 5.92979369,0.0793550281 6.0252138,0.16776688 L9.31666845,3.25301705 C9.41181901,3.34115936 9.36356985,3.41339831 9.23984717,3.41420696 L6.09233133,3.43792721 C5.96537407,3.43873585 5.93006324,3.33307291 5.93006324,3.20368971 L5.93006324,0.244049057 L5.93006324,0.244049057 Z" id="Stroke-190"></path>
                    </g>
                </g>
            </g>
        </g>
    </g>
</svg>