<?xml version="1.0" encoding="UTF-8"?>
<svg width="26px" height="26px" viewBox="0 0 26 26" version="1.1" xmlns="http://www.w3.org/2000/svg" xmlns:xlink="http://www.w3.org/1999/xlink">
    <!-- Generator: Sketch 50.2 (55047) - http://www.bohemiancoding.com/sketch -->
    <title>layer</title>
    <desc>Created with Sketch.</desc>
    <defs></defs>
    <g id="Symbols" stroke="none" stroke-width="1" fill="none" fill-rule="evenodd">
        <g id="Design-Tools/Adjust-Tools" transform="translate(-85.000000, -55.000000)">
            <g id="layer" transform="translate(85.187141, 55.022654)">
                <circle id="Oval" fill="#4A90E2" cx="12.6140451" cy="12.5421027" r="12.5"></circle>
                <g id="Icon-Copy" transform="translate(12.614045, 12.542103) rotate(-360.000000) translate(-12.614045, -12.542103) translate(6.114045, 5.542103)" stroke="#FFFFFF" stroke-linecap="round" stroke-linejoin="round">
                    <path d="M12.4684831,4.6030293 L6.55857779,8.75082193 C6.41021042,8.8549517 6.16971468,8.8549517 6.02134731,8.75082193 L0.111442025,4.6030293 C-0.0369253457,4.49889953 -0.0369253457,4.33011062 0.111442025,4.22598085 L6.02134731,0.0781882152 C6.16971468,-0.0259415566 6.41021042,-0.0259415566 6.55857779,0.0781882152 L12.4684831,4.22598085 C12.6168504,4.33011062 12.6168504,4.49889953 12.4684831,4.6030293 L12.4684831,4.6030293 Z" id="Stroke-433"></path>
                    <path d="M12.4684831,6.94010647 L6.55857779,11.0878991 C6.41021042,11.1920289 6.16971468,11.1920289 6.02134731,11.0878991 L0.111442025,6.94010647" id="Stroke-434"></path>
                    <path d="M12.4684831,9.04064559 L6.55857779,13.1884382 C6.41021042,13.292568 6.16971468,13.292568 6.02134731,13.1884382 L0.111442025,9.04064559" id="Stroke-434-Copy"></path>
                </g>
            </g>
        </g>
    </g>
</svg>