<?xml version="1.0" encoding="iso-8859-1"?>
<!-- Generator: Adobe Illustrator 21.1.0, SVG Export Plug-In . SVG Version: 6.00 Build 0)  -->
<svg version="1.1" id="bb-1-camfront_x5F_Front" xmlns="http://www.w3.org/2000/svg" xmlns:xlink="http://www.w3.org/1999/xlink"
	 x="0px" y="0px" viewBox="0 0 3609 3609" style="enable-background:new 0 0 3609 3609;" xml:space="preserve">
<g>
	<polygon style="fill:#ffffff;" points="1669.267,2024.498 1652.582,2021.229 1636.759,2018.226 1620.922,2015.32 
		1605.062,2012.509 1589.673,2009.878 1582.182,2008.479 1574.413,2007.079 1566.635,2005.728 1558.867,2004.426 1551.066,2003.166 
		1543.273,2001.958 1535.465,2000.794 1527.659,1999.681 1519.156,1998.52 1510.652,1997.407 1502.137,1996.339 1493.615,1995.32 
		1485.087,1994.348 1476.564,1993.425 1468.018,1992.547 1445.785,1990.386 1431.865,1989.193 1417.925,1988.159 1404.114,1987.293 
		1366.21,1985.207 1328.3,1983.278 1290.379,1981.503 1252.094,1979.873 1220.123,1979.523 1220.123,501.32 1228.925,501.156 
		1233.235,500.469 1238.669,499.436 1243.579,498.453 1248.468,497.424 1253.366,496.344 1258.205,495.226 1263.035,494.06 
		1267.861,492.844 1272.701,491.573 1275.824,490.717 1279.229,489.719 1282.612,488.664 1285.982,487.547 1289.321,486.375 
		1292.627,485.148 1295.916,483.863 1299.934,482.209 1305.346,479.576 1310.129,477.081 1314.837,474.457 1319.476,471.702 
		1324.026,468.823 1328.492,465.822 1332.875,462.696 1337.237,459.397 1342.43,455.197 1347.331,451.094 1352.161,446.913 
		1356.922,442.649 1361.609,438.307 1366.224,433.887 1370.764,429.391 1375.224,424.822 1379.814,419.965 1384.325,415.039 
		1388.755,410.041 1393.104,404.978 1394.37,403.456 1396.249,403.977 1404.285,406.289 1413.46,409.021 1422.635,411.839 
		1431.737,414.722 1440.316,417.519 1445.171,419.326 1450.617,421.397 1456.003,423.49 1461.409,425.636 1466.891,427.857 
		1472.37,430.122 1477.841,432.43 1482.623,434.486 1485.925,436.086 1489.44,437.918 1493.118,439.97 1497.439,442.542 
		1502.475,445.423 1507.038,448.107 1511.541,450.831 1515.955,453.574 1518.196,455.02 1520.351,456.473 1522.476,457.973 
		1524.575,459.518 1528.721,462.708 1532.909,466.026 1537.071,469.417 1541.156,472.844 1545.177,476.315 1549.14,479.834 
		1553.059,483.414 1556.021,486.197 1563.395,494.369 1571.47,503.562 1579.505,512.957 1587.854,522.982 1591.731,527.524 
		1595.19,531.796 1598.641,536.299 1602.07,541.017 1604.256,544.136 1606.465,547.364 1608.643,550.616 1610.799,553.911 
		1612.864,557.139 1614.895,560.391 1616.901,563.682 1618.874,566.996 1622.172,572.656 1625.434,578.337 1628.673,584.07 
		1631.855,589.794 1635.039,595.612 1638.145,601.379 1641.237,607.218 1644.247,612.994 1674.486,672.333 1676.745,677.079 
		1679.191,682.072 1681.906,687.429 1684.579,692.545 1687.35,697.696 1690.195,702.832 1693.102,707.928 1695.722,712.395 
		1698.533,717.329 1701.671,722.643 1704.888,727.906 1708.186,733.118 1711.562,738.278 1715.018,743.386 1718.549,748.438 
		1722.169,753.453 1725.672,758.14 1729.25,762.774 1732.906,767.35 1736.636,771.867 1740.445,776.327 1744.322,780.717 
		1748.267,785.042 1753.355,790.441 1756.713,793.339 1759.025,795.246 1761.368,797.09 1763.75,798.881 1766.177,800.622 
		1768.642,802.308 1771.189,803.965 1768.327,819.634 1764.583,840.543 1760.91,861.466 1757.309,882.397 1753.774,903.348 
		1750.312,924.308 1746.925,945.275 1743.605,966.256 1740.356,987.248 1737.179,1008.251 1734.07,1029.268 1731.036,1050.292 
		1728.072,1071.325 1725.178,1092.372 1722.358,1113.421 1719.606,1134.488 1716.927,1155.56 1714.318,1176.644 1711.782,1197.732 
		1709.317,1218.831 1706.923,1239.936 1704.599,1261.055 1702.348,1282.176 1700.167,1303.309 1698.061,1324.445 1696.023,1345.588 
		1694.058,1366.74 1692.164,1387.901 1690.343,1409.061 1688.591,1430.231 1686.911,1451.417 1685.449,1470.753 1684.054,1490.105 
		1682.735,1509.451 1681.484,1528.81 1680.307,1548.171 1679.202,1567.535 1678.167,1586.904 1677.206,1606.274 1676.315,1625.653 
		1675.498,1645.031 1674.75,1664.414 1674.076,1683.801 1673.475,1703.187 1672.944,1722.572 1672.483,1741.968 1672.098,1761.356 
		1671.782,1780.754 1671.541,1800.147 1671.37,1819.542 1671.27,1838.939 1671.242,1858.338 1671.288,1877.731 1671.404,1897.13 
		1671.593,1916.526 1671.855,1935.917 1672.188,1955.311 1672.591,1974.703 1673.067,1994.097 1673.616,2013.484 1673.999,2025.453 
			"/>
	<polygon style="fill:#ffffff;" points="619.94,2013.351 620.488,1993.961 620.963,1974.571 621.367,1955.179 621.699,1935.784 
		621.959,1916.392 622.148,1896.995 622.264,1877.6 622.309,1858.202 622.281,1838.806 622.181,1819.411 622.01,1800.014 
		621.767,1780.617 621.451,1761.226 621.064,1741.832 620.605,1722.44 620.073,1703.053 619.47,1683.667 618.796,1664.279 
		618.049,1644.899 617.23,1625.521 616.34,1606.141 615.377,1586.77 614.342,1567.404 613.237,1548.037 612.059,1528.676 
		610.809,1509.322 609.488,1489.968 608.094,1470.624 606.63,1451.287 604.95,1430.108 603.198,1408.944 601.377,1387.776 
		599.482,1366.618 597.517,1345.469 595.48,1324.325 593.371,1303.186 591.19,1282.055 588.939,1260.934 586.616,1239.815 
		584.221,1218.712 581.755,1197.611 579.218,1176.521 576.61,1155.439 573.93,1134.366 571.178,1113.304 568.357,1092.248 
		565.462,1071.205 562.498,1050.171 559.462,1029.145 556.355,1008.134 553.177,987.127 549.928,966.137 546.608,945.156 
		543.218,924.185 539.756,903.226 536.224,882.282 532.621,861.343 528.946,840.423 525.201,819.512 522.362,803.966 
		524.908,802.31 527.376,800.622 529.806,798.878 532.181,797.091 534.529,795.244 536.841,793.336 540.195,790.441 
		545.282,785.044 549.231,780.716 553.107,776.325 556.914,771.868 560.645,767.351 564.301,762.775 567.881,758.139 
		571.382,753.452 575.001,748.439 578.533,743.388 581.988,738.28 585.366,733.119 588.665,727.904 591.883,722.64 595.017,717.331 
		597.823,712.409 600.674,707.539 603.576,702.441 606.409,697.316 609.183,692.15 611.851,687.031 614.46,681.868 616.999,676.684 
		619.068,672.327 649.302,612.998 652.314,607.22 655.413,601.369 658.509,595.62 661.696,589.795 664.888,584.056 668.105,578.361 
		671.389,572.638 674.672,567.006 676.654,563.676 678.655,560.394 680.688,557.14 682.759,553.9 684.907,550.618 687.087,547.362 
		689.307,544.12 691.474,541.027 694.91,536.299 698.358,531.801 701.823,527.519 705.98,522.645 714.036,512.97 722.075,503.569 
		730.158,494.368 737.531,486.197 740.492,483.414 744.411,479.834 748.376,476.313 752.38,472.858 756.492,469.408 
		760.639,466.029 764.833,462.708 768.98,459.516 771.076,457.972 773.202,456.472 775.346,455.026 777.602,453.571 
		782.011,450.831 786.53,448.098 791.058,445.434 796.112,442.542 800.437,439.968 804.114,437.916 807.623,436.088 
		810.929,434.486 815.732,432.421 821.19,430.119 826.639,427.866 832.138,425.638 837.548,423.49 842.95,421.391 848.365,419.332 
		853.238,417.518 861.789,414.73 870.923,411.837 880.102,409.018 889.26,406.291 897.303,403.977 899.182,403.456 900.447,404.977 
		904.797,410.042 909.228,415.04 913.737,419.964 918.327,424.823 922.789,429.392 927.328,433.887 931.941,438.306 936.631,442.65 
		941.391,446.913 946.221,451.094 951.122,455.197 956.315,459.397 960.677,462.696 965.058,465.82 969.524,468.823 
		974.078,471.703 978.714,474.457 983.422,477.081 988.205,479.575 993.618,482.209 997.638,483.864 1000.924,485.147 
		1004.229,486.374 1007.57,487.547 1010.941,488.664 1014.323,489.719 1017.726,490.717 1021.228,491.674 1026.042,492.935 
		1030.859,494.144 1035.69,495.307 1040.541,496.424 1045.42,497.497 1050.32,498.524 1055.23,499.504 1060.316,500.469 
		1064.626,501.156 1073.429,501.32 1073.429,1979.523 1041.458,1979.873 1003.022,1981.51 965.105,1983.285 927.193,1985.214 
		889.161,1987.309 875.21,1988.187 861.278,1989.226 847.351,1990.424 825.324,1992.568 816.795,1993.446 808.263,1994.37 
		799.734,1995.343 791.214,1996.364 782.705,1997.432 774.195,1998.546 765.681,1999.711 757.867,2000.827 750.066,2001.99 
		742.258,2003.202 734.483,2004.459 726.696,2005.765 718.919,2007.118 711.149,2008.52 703.886,2009.876 688.273,2012.547 
		672.418,2015.359 656.576,2018.267 640.762,2021.27 624.074,2024.54 619.553,2025.454 	"/>
</g>
</svg>
