<?xml version="1.0" encoding="iso-8859-1"?>
<!-- Generator: Adobe Illustrator 21.1.0, SVG Export Plug-In . SVG Version: 6.00 Build 0)  -->
<svg version="1.1" xmlns="http://www.w3.org/2000/svg" xmlns:xlink="http://www.w3.org/1999/xlink" x="0px" y="0px"
	 viewBox="0 0 3609 3609" style="enable-background:new 0 0 3609 3609;" xml:space="preserve">
<g id="bb-2-camright_x5F_Right_Sidepanel">
	<path style="fill:#ffffff;" d="M136.774,801.611l-4.323,1338.356l206.192-51.694L336.729,868.61l-1.471,0.067l-5.704,0.262
		l-0.279,0.013l-0.28,0.008l-5.707,0.173l-0.281,0.009l-0.281,0.004l-5.71,0.084l-0.28,0.004l-0.28,0l-5.71-0.005l-0.282,0
		l-0.282-0.004l-5.709-0.095l-0.281-0.004l-0.281-0.009l-5.707-0.184l-0.28-0.009l-0.279-0.013l-5.703-0.272l-0.284-0.014
		l-0.284-0.018l-5.699-0.362l-0.321-0.021l-0.321-0.026l-4.344-0.354l-0.369-0.03l-0.369-0.038l-4.334-0.443l-0.363-0.037
		l-0.362-0.044l-4.324-0.531l-0.371-0.046l-0.37-0.053l-4.313-0.621l-0.36-0.052l-0.358-0.059l-4.3-0.708l-0.368-0.061l-0.366-0.068
		l-4.283-0.796l-0.36-0.067l-0.358-0.074l-4.268-0.884l-0.364-0.075l-0.362-0.083l-4.247-0.971l-0.756-0.173l-0.748-0.206
		l-2.611-0.717l-0.376-0.104l-0.374-0.111l-2.595-0.773l-0.383-0.115l-0.381-0.123l-2.578-0.831l-0.373-0.12l-0.37-0.128
		l-2.559-0.887l-0.373-0.129l-0.37-0.138l-2.538-0.942l-0.372-0.138l-0.369-0.146l-2.517-0.998l-0.369-0.146l-0.365-0.154
		l-2.495-1.054l-0.361-0.152l-0.358-0.161l-2.471-1.107l-0.284-0.127l-0.282-0.132l-4.242-1.99l-0.204-0.096l-0.203-0.098
		l-4.217-2.043l-0.21-0.102l-0.208-0.104l-4.19-2.098l-0.201-0.1l-0.199-0.103l-4.164-2.149l-0.206-0.106l-0.205-0.109l-4.136-2.203
		l-0.196-0.104l-0.195-0.107l-4.108-2.254l-0.203-0.111l-0.202-0.114l-4.079-2.307l-0.196-0.111l-0.194-0.113l-4.05-2.357
		l-0.939-0.546l-0.904-0.603l-7.32-4.875l-0.177-0.118l-0.176-0.12l-7.262-4.961l-0.176-0.12l-0.174-0.123l-7.203-5.047
		l-0.174-0.122l-0.172-0.124l-7.143-5.131l-0.177-0.127l-0.175-0.129l-6.729-4.959l-0.181-0.133l-0.179-0.135L136.774,801.611z"/>
</g>
<g>
</g>
</svg>
