<?xml version="1.0" encoding="iso-8859-1"?>
<!-- Generator: Adobe Illustrator 21.1.0, SVG Export Plug-In . SVG Version: 6.00 Build 0)  -->
<svg version="1.1" xmlns="http://www.w3.org/2000/svg" xmlns:xlink="http://www.w3.org/1999/xlink" x="0px" y="0px"
	 viewBox="0 0 3609 3609" style="enable-background:new 0 0 3609 3609;" xml:space="preserve">
<g id="bb-3-camright_x5F_Right_Sleeve">
	<g>
		<polygon style="fill:#ffffff;" points="112.343,3120.804 120.088,3116.169 131.109,3109.472 143.98,3101.538 156.802,3093.531 
			169.583,3085.447 182.743,3077.015 190.265,3071.758 197.153,3066.86 204.003,3061.907 210.816,3056.898 217.578,3051.843 
			224.316,3046.725 231.002,3041.559 237.668,3036.323 243.528,3031.64 249.345,3026.903 255.125,3022.11 260.855,3017.269 
			266.543,3012.375 272.188,3007.43 277.783,3002.436 283.201,2997.514 287.654,2993.435 292.064,2989.304 296.424,2985.128 
			300.729,2980.913 305.006,2976.635 309.233,2972.312 313.399,2967.953 317.445,2963.629 327.021,2953.237 336.548,2942.807 
			346.032,2932.332 355.47,2921.813 364.858,2911.255 374.198,2900.657 383.498,2890.012 393.54,2878.409 401.7,2867.382 
			408.983,2857.417 416.207,2847.413 423.375,2837.364 430.482,2827.276 437.531,2817.147 444.523,2806.975 451.513,2796.675 
			455.063,2791.341 458.553,2785.961 461.974,2780.548 465.33,2775.097 468.628,2769.597 471.856,2764.066 475.02,2758.495 
			477.916,2753.261 481.421,2746.951 484.913,2740.563 488.367,2734.144 491.778,2727.696 495.14,2721.233 498.461,2714.742 
			501.734,2708.233 504.979,2701.668 507.536,2696.393 510.053,2691.083 512.518,2685.763 514.941,2680.412 517.312,2675.049 
			519.639,2669.663 521.921,2664.252 524.139,2658.866 527.065,2651.444 529.844,2644.237 532.56,2637.025 535.227,2629.779 
			537.834,2622.523 540.389,2615.241 542.886,2607.945 545.343,2600.587 547.217,2594.802 549.034,2588.995 550.791,2583.179 
			552.492,2577.341 554.136,2571.481 555.716,2565.624 557.246,2559.729 560.571,2546.387 562.438,2538.551 564.221,2530.702 
			565.921,2522.837 567.581,2514.75 569.157,2506.646 570.65,2498.525 572.178,2489.722 574.027,2473.471 575.621,2458.25 
			576.955,2444.309 580.916,2447.168 586.97,2451.354 593.104,2455.419 599.306,2459.353 606.144,2463.511 613.04,2467.534 
			620.006,2471.434 627.195,2475.289 632.729,2478.062 638.22,2480.671 643.767,2483.161 649.365,2485.531 655.009,2487.781 
			660.701,2489.911 666.438,2491.92 672.163,2493.788 680.027,2496.197 687.868,2498.473 695.743,2500.633 703.649,2502.674 
			708.552,2503.864 708.395,2533.498 708.558,2540.809 708.755,2547.617 708.999,2554.432 709.288,2561.239 709.623,2568.051 
			710.004,2574.855 710.431,2581.651 710.902,2588.442 711.485,2596.12 712.112,2603.793 712.785,2611.467 713.503,2619.134 
			714.267,2626.8 715.076,2634.458 715.93,2642.107 716.917,2650.522 718.591,2660.184 720.146,2668.868 721.748,2677.543 
			723.398,2686.212 725.098,2694.871 726.846,2703.521 728.642,2712.156 730.526,2720.971 731.26,2724.231 732.11,2727.758 
			733.017,2731.268 733.978,2734.771 734.997,2738.258 736.066,2741.721 737.192,2745.172 738.174,2748.029 740.651,2755.671 
			743.327,2763.578 746.104,2771.456 748.981,2779.294 751.959,2787.101 755.036,2794.86 758.211,2802.584 761.404,2810.086 
			764.147,2816.278 767.003,2822.453 769.959,2828.583 773.015,2834.664 776.168,2840.693 779.417,2846.669 782.763,2852.592 
			785.965,2858.052 789.934,2864.98 794.066,2872.036 798.263,2879.047 802.528,2886.021 806.904,2893.023 811.345,2899.985 
			815.854,2906.905 820.739,2914.255 826.551,2922.106 831.872,2929.182 837.249,2936.224 842.674,2943.219 848.113,2950.127 
			853.601,2956.987 859.136,2963.802 864.762,2970.625 868.244,2974.768 871.788,2978.877 875.224,2982.764 878.868,2986.78 
			882.495,2990.675 886.339,2994.69 889.904,2998.322 893.225,3001.616 895.82,3004.31 898.924,3007.438 902.068,3010.517 
			905.251,3013.546 908.567,3016.611 911.918,3019.622 915.307,3022.583 918.905,3025.636 928.98,3033.968 939.125,3042.227 
			949.33,3050.403 959.674,3058.56 966.174,3063.573 972.747,3068.512 979.188,3073.226 985.923,3078.023 995.096,3084.336 
			1004.089,3090.409 1013.139,3096.4 1022.226,3102.299 1032.385,3108.77 1038.27,3112.453 973.148,3306.531 177.147,3307.433 		"/>
	</g>
</g>
<g>
</g>
</svg>
