<?xml version="1.0" encoding="iso-8859-1"?>
<!-- Generator: Adobe Illustrator 21.1.0, SVG Export Plug-In . SVG Version: 6.00 Build 0)  -->
<svg version="1.1" xmlns="http://www.w3.org/2000/svg" xmlns:xlink="http://www.w3.org/1999/xlink" x="0px" y="0px"
	 viewBox="0 0 3609 3609" style="enable-background:new 0 0 3609 3609;" xml:space="preserve">
<g id="bb-4-camleft_x5F_Left_Sidepanel">
	<path style="fill:#ffffff;" d="M1948.724,2088.272l206.193,51.694l-4.322-1338.356l-5.852,4.425l-0.177,0.134l-0.179,0.132
		l-6.729,4.959l-0.178,0.131l-0.179,0.128l-7.145,5.132l-0.172,0.123l-0.173,0.121l-7.203,5.047l-0.174,0.122l-0.177,0.12
		l-7.262,4.961l-0.175,0.12l-0.178,0.118l-7.32,4.875l-0.902,0.602l-0.938,0.546l-4.049,2.357l-0.197,0.115l-0.198,0.112
		l-4.08,2.307l-0.199,0.113l-0.2,0.11l-4.107,2.254l-0.197,0.108l-0.199,0.106l-4.137,2.203l-0.204,0.108l-0.204,0.106l-4.164,2.149
		l-0.197,0.102l-0.198,0.099l-4.189,2.098l-0.21,0.105l-0.211,0.102l-4.217,2.043l-0.203,0.099l-0.204,0.096l-4.242,1.99
		l-0.282,0.132l-0.284,0.127l-2.471,1.107l-0.36,0.161l-0.362,0.153l-2.496,1.054l-0.361,0.152l-0.364,0.145l-2.516,0.998
		l-0.372,0.148l-0.376,0.139l-2.539,0.942l-0.368,0.137l-0.371,0.128l-2.559,0.887l-0.37,0.128l-0.372,0.12l-2.578,0.831
		l-0.379,0.122l-0.382,0.114l-2.594,0.773l-0.376,0.112l-0.379,0.104l-2.611,0.717l-0.748,0.206l-0.757,0.173l-4.248,0.972
		l-0.361,0.083l-0.362,0.075l-4.268,0.884l-0.358,0.074l-0.359,0.067l-4.283,0.796l-0.366,0.068l-0.367,0.061l-4.299,0.708
		l-0.36,0.059l-0.36,0.052l-4.314,0.621l-0.369,0.054l-0.371,0.045l-4.324,0.531l-0.362,0.044l-0.363,0.037l-4.334,0.443
		l-0.368,0.038l-0.369,0.03l-4.344,0.354l-0.321,0.026l-0.322,0.021l-5.699,0.362l-0.283,0.018l-0.284,0.014l-5.703,0.272
		l-0.279,0.013l-0.28,0.009l-5.707,0.184l-0.281,0.009l-0.281,0.004l-5.709,0.095l-0.282,0.004l-0.283,0l-5.708,0.005l-0.28,0
		l-0.28-0.004l-5.711-0.084l-0.281-0.004l-0.281-0.009l-5.708-0.173l-0.28-0.008l-0.279-0.013l-5.703-0.262l-1.472-0.067
		L1948.724,2088.272z"/>
</g>
<g>
</g>
</svg>
