<?xml version="1.0" encoding="iso-8859-1"?>
<!-- Generator: Adobe Illustrator 21.1.0, SVG Export Plug-In . SVG Version: 6.00 Build 0)  -->
<svg version="1.1" xmlns="http://www.w3.org/2000/svg" xmlns:xlink="http://www.w3.org/1999/xlink" x="0px" y="0px"
	 viewBox="0 0 3609 3609" style="enable-background:new 0 0 3609 3609;" xml:space="preserve">
<g id="bb-5-camleft_x5F_Left_Sleeve">
	<g>
		<polygon style="fill:#ffffff;" points="1320.629,3306.531 1255.508,3112.452 1261.638,3108.615 1271.812,3102.132 
			1280.915,3096.22 1289.959,3090.229 1298.948,3084.155 1307.855,3078.023 1314.59,3073.226 1321.408,3068.232 1327.968,3063.297 
			1334.4,3058.328 1344.666,3050.23 1354.875,3042.049 1365.012,3033.792 1375.232,3025.335 1378.472,3022.583 1381.861,3019.622 
			1385.211,3016.611 1388.527,3013.546 1391.71,3010.517 1394.854,3007.438 1397.958,3004.31 1400.555,3001.615 1403.874,2998.322 
			1407.765,2994.354 1411.284,2990.675 1414.911,2986.779 1418.71,2982.588 1422.294,2978.528 1425.831,2974.419 1429.223,2970.376 
			1434.808,2963.599 1440.347,2956.777 1445.838,2949.909 1451.266,2943.012 1456.696,2936.008 1462.066,2928.972 
			1467.393,2921.884 1473.039,2914.255 1478.112,2906.621 1482.619,2899.696 1487.056,2892.736 1491.432,2885.728 
			1495.692,2878.755 1499.891,2871.735 1504.016,2864.684 1507.821,2858.038 1511.014,2852.592 1514.36,2846.671 1517.61,2840.692 
			1520.762,2834.665 1523.818,2828.585 1526.775,2822.453 1529.631,2816.277 1532.374,2810.084 1535.743,2802.162 
			1538.914,2794.438 1541.986,2786.668 1544.958,2778.865 1547.831,2771.021 1550.528,2763.362 1553.271,2755.235 
			1555.604,2748.029 1556.586,2745.172 1557.712,2741.721 1558.782,2738.258 1559.799,2734.773 1560.763,2731.268 
			1561.668,2727.755 1562.52,2724.227 1563.334,2720.593 1565.178,2711.963 1566.974,2703.32 1568.719,2694.676 1570.418,2686.013 
			1572.067,2677.348 1573.668,2668.672 1575.221,2659.988 1576.861,2650.521 1577.872,2641.902 1578.725,2634.247 
			1579.534,2626.586 1580.295,2618.923 1581.013,2611.253 1581.684,2603.579 1582.309,2595.911 1582.892,2588.215 1583.363,2581.41 
			1583.788,2574.614 1584.167,2567.808 1584.501,2560.999 1584.789,2554.184 1585.03,2547.38 1585.227,2540.566 1585.383,2533.499 
			1585.226,2503.864 1590.129,2502.674 1598.035,2500.633 1605.911,2498.473 1613.75,2496.197 1621.615,2493.789 1627.341,2491.92 
			1633.078,2489.911 1638.769,2487.781 1644.413,2485.531 1650.011,2483.161 1655.559,2480.671 1661.049,2478.062 
			1666.583,2475.289 1673.772,2471.434 1680.739,2467.534 1687.634,2463.511 1694.472,2459.353 1700.674,2455.419 
			1706.808,2451.354 1712.861,2447.168 1716.824,2444.309 1718.19,2458.571 1719.787,2473.794 1721.601,2489.723 1723.193,2498.889 
			1724.69,2507.012 1726.27,2515.111 1727.935,2523.206 1729.639,2531.068 1731.427,2538.929 1733.296,2546.75 1736.622,2560.084 
			1738.15,2565.957 1739.739,2571.831 1741.385,2577.685 1743.088,2583.517 1744.85,2589.341 1746.67,2595.143 1748.535,2600.888 
			1750.979,2608.202 1753.479,2615.503 1756.035,2622.777 1758.647,2630.044 1761.312,2637.274 1764.036,2644.502 
			1766.812,2651.696 1769.64,2658.866 1771.979,2664.545 1774.26,2669.947 1776.59,2675.335 1778.967,2680.702 1781.39,2686.045 
			1783.862,2691.375 1786.375,2696.669 1788.92,2701.915 1792.153,2708.453 1795.432,2714.968 1798.751,2721.45 1802.116,2727.916 
			1805.53,2734.366 1808.978,2740.769 1812.481,2747.177 1815.903,2753.331 1818.965,2758.865 1822.132,2764.431 1825.372,2769.972 
			1828.667,2775.454 1832.025,2780.901 1835.458,2786.324 1838.946,2791.693 1842.44,2796.937 1849.374,2807.148 1856.365,2817.318 
			1863.417,2827.448 1870.524,2837.534 1877.693,2847.583 1884.918,2857.587 1892.204,2867.552 1900.239,2878.409 1910.39,2890.136 
			1919.683,2900.773 1929.025,2911.375 1938.416,2921.936 1947.854,2932.453 1957.335,2942.922 1966.867,2953.358 
			1976.522,2963.832 1980.645,2968.233 1984.829,2972.604 1989.057,2976.923 1993.32,2981.181 1997.641,2985.405 2002.006,2989.579 
			2006.413,2993.701 2010.684,2997.611 2016.233,3002.649 2021.836,3007.646 2027.481,3012.589 2033.171,3017.48 2038.905,3022.32 
			2044.685,3027.11 2050.503,3031.843 2056.354,3036.516 2063,3041.732 2069.697,3046.904 2076.42,3052.008 2083.193,3057.07 
			2090.006,3062.076 2096.856,3067.026 2103.75,3071.925 2111.035,3077.015 2124.375,3085.562 2137.151,3093.642 2149.977,3101.649 
			2162.861,3109.59 2173.902,3116.298 2181.435,3120.804 2116.631,3307.433 		"/>
	</g>
</g>
<g>
</g>
</svg>
