<?xml version="1.0" encoding="iso-8859-1"?>
<!-- Generator: Adobe Illustrator 21.1.0, SVG Export Plug-In . SVG Version: 6.00 Build 0)  -->
<svg version="1.1" xmlns="http://www.w3.org/2000/svg" xmlns:xlink="http://www.w3.org/1999/xlink" x="0px" y="0px"
	 viewBox="0 0 3609 3609" style="enable-background:new 0 0 3609 3609;" xml:space="preserve">
<g id="bb-6-camback_x5F_Back">
	<polygon style="fill:#ffffff;" points="2427.312,1572.238 2427.104,1566.26 2425.204,1542.417 2423.289,1519.374 2421.29,1496.343 
		2419.209,1473.314 2417.045,1450.301 2414.802,1427.287 2412.474,1404.285 2410.064,1381.292 2407.573,1358.308 2405,1335.333 
		2402.347,1312.367 2399.61,1289.409 2396.792,1266.463 2393.894,1243.529 2390.913,1220.599 2387.849,1197.684 2384.704,1174.782 
		2381.479,1151.887 2378.172,1129.007 2374.783,1106.133 2371.312,1083.279 2367.76,1060.434 2364.126,1037.603 2360.412,1014.783 
		2356.616,991.98 2352.739,969.184 2348.78,946.41 2344.742,923.644 2340.621,900.896 2336.42,878.162 2332.138,855.441 
		2330.462,846.721 2331.729,844.665 2336.044,837.538 2340.3,830.38 2344.494,823.192 2348.634,815.966 2352.715,808.708 
		2356.726,801.438 2361.243,793.103 2365.699,784.741 2370.099,776.343 2374.434,767.924 2378.716,759.465 2382.932,750.986 
		2387.094,742.472 2391.086,734.157 2395.67,724.583 2400.235,715.172 2404.834,705.819 2409.516,696.423 2415.475,684.603 
		2421.49,672.787 2427.561,660.987 2433.506,649.545 2437.226,642.774 2441.158,635.71 2445.1,628.721 2449.098,621.716 
		2453.137,614.733 2457.211,607.776 2461.325,600.84 2465.431,594.003 2466.509,592.247 2467.532,590.642 2468.585,589.052 
		2469.658,587.492 2470.896,585.756 2472.151,584.054 2473.443,582.365 2475.79,579.394 2479.008,574.621 2481.374,571.222 
		2483.802,567.837 2486.266,564.502 2488.658,561.363 2491.101,558.253 2493.569,555.206 2495.618,552.754 2500.061,548.012 
		2505.117,542.715 2510.246,537.439 2515.394,532.244 2520.559,527.126 2525.739,522.089 2530.986,517.08 2535.473,512.878 
		2540.451,508.833 2546.319,504.179 2552.229,499.606 2558.197,495.1 2564.195,490.683 2570.271,486.322 2576.394,482.036 
		2582.495,477.872 2585.421,475.948 2588.325,474.131 2591.261,472.383 2594.231,470.704 2597.254,469.084 2600.301,467.538 
		2603.373,466.064 2608.81,463.606 2614.871,459.941 2618.945,457.553 2623.025,455.235 2627.15,452.963 2631.105,450.855 
		2635.082,448.808 2639.09,446.814 2643.193,444.845 2651.525,440.951 2659.923,437.101 2668.35,433.311 2676.811,429.58 
		2685.211,425.95 2693.636,422.383 2702.072,418.883 2709.597,415.828 2760.839,398.77 2762.13,399.342 2767.307,401.512 
		2772.528,403.576 2777.791,405.535 2783.098,407.387 2788.44,409.131 2793.672,410.721 2798.945,412.204 2804.254,413.576 
		2809.585,414.835 2814.937,415.981 2820.318,417.018 2825.725,417.939 2831.154,418.749 2838.557,419.689 2845.893,420.493 
		2853.241,421.173 2860.599,421.727 2867.938,422.154 2875.287,422.455 2882.635,422.629 2889.919,422.677 2923.657,422.678 
		2957.565,422.749 2964.605,422.716 2971.955,422.558 2979.302,422.272 2986.642,421.862 2994.004,421.322 3001.35,420.659 
		3008.688,419.871 3016.1,418.946 3021.532,418.146 3026.929,417.238 3032.314,416.214 3037.673,415.078 3043.01,413.83 
		3048.316,412.469 3053.59,411 3058.832,409.418 3064.181,407.684 3069.482,405.845 3074.749,403.899 3079.975,401.846 
		3085.16,399.687 3086.452,399.118 3137.658,416.283 3145.175,419.355 3153.618,422.878 3162.023,426.458 3170.395,430.097 
		3178.86,433.852 3187.313,437.674 3195.675,441.529 3204.009,445.446 3208.092,447.417 3212.1,449.421 3216.069,451.477 
		3220.023,453.594 3224.146,455.875 3228.224,458.204 3232.277,460.593 3238.346,464.277 3243.768,466.743 3246.85,468.23 
		3249.891,469.782 3252.902,471.403 3255.869,473.089 3258.806,474.846 3261.705,476.669 3264.621,478.594 3270.727,482.781 
		3276.82,487.065 3282.896,491.447 3288.894,495.883 3294.857,500.405 3300.757,504.99 3306.594,509.639 3311.569,513.702 
		3316.056,517.921 3321.284,522.931 3326.477,528.002 3331.592,533.092 3336.757,538.327 3341.865,543.605 3346.922,548.924 
		3351.344,553.663 3353.387,556.12 3355.854,559.18 3358.284,562.286 3360.668,565.429 3363.135,568.783 3365.543,572.155 
		3367.91,575.572 3371.117,580.349 3373.454,583.32 3374.741,585.012 3375.998,586.724 3377.224,588.448 3378.308,590.032 
		3379.35,591.611 3380.364,593.213 3381.438,594.97 3385.532,601.821 3389.649,608.797 3393.693,615.735 3397.727,622.741 
		3401.691,629.719 3405.633,636.744 3409.535,643.794 3413.251,650.592 3419.176,662.054 3425.206,673.837 3431.208,685.686 
		3437.139,697.516 3441.786,706.892 3446.397,716.324 3450.934,725.72 3455.473,735.253 3459.572,743.836 3463.719,752.366 
		3467.921,760.855 3472.183,769.315 3476.506,777.751 3480.886,786.149 3485.327,794.524 3489.834,802.877 3493.844,810.18 
		3497.91,817.442 3502.037,824.676 3506.218,831.869 3510.464,839.045 3514.76,846.167 3515.874,847.982 3514.154,856.83 
		3509.826,879.536 3505.577,902.261 3501.407,925.003 3497.32,947.757 3493.313,970.529 3489.39,993.312 3485.546,1016.108 
		3481.784,1038.918 3478.102,1061.744 3474.502,1084.58 3470.982,1107.429 3467.543,1130.295 3464.189,1153.168 3460.916,1176.052 
		3457.723,1198.948 3454.609,1221.862 3451.581,1244.78 3448.634,1267.709 3445.766,1290.653 3442.983,1313.6 3440.279,1336.562 
		3437.657,1359.536 3435.12,1382.51 3432.661,1405.499 3430.285,1428.5 3427.993,1451.5 3425.78,1474.517 3423.651,1497.535 
		3421.603,1520.564 3419.637,1543.601 3417.699,1567.312 3417.478,1573.292 	"/>
</g>
<g>
</g>
</svg>
