<?xml version="1.0" encoding="iso-8859-1"?>
<!-- Generator: Adobe Illustrator 21.1.0, SVG Export Plug-In . SVG Version: 6.00 Build 0)  -->
<svg version="1.1" xmlns="http://www.w3.org/2000/svg" xmlns:xlink="http://www.w3.org/1999/xlink" x="0px" y="0px"
	 viewBox="0 0 3609 3609" style="enable-background:new 0 0 3609 3609;" xml:space="preserve">
<g id="bb-7-camback_x5F_Back_Pockets">
	<polygon style="fill:#ffffff;" points="2882.149,3092.822 2406.855,3092.862 2406.902,3086.161 2406.99,3064.624 
		2407.012,3043.085 2406.967,3021.551 2406.856,3000.013 2406.68,2978.482 2406.439,2956.945 2406.134,2935.41 2405.76,2913.878 
		2405.322,2892.348 2404.819,2870.814 2404.25,2849.291 2403.617,2827.758 2402.917,2806.233 2402.143,2784.52 2399.646,2727.762 
		2397.015,2670.926 2393.503,2598.487 2391.762,2563.875 3372.531,2563.875 3370.794,2598.421 3367.28,2670.848 3364.649,2727.679 
		3362.135,2784.826 3361.372,2806.346 3360.674,2827.87 3360.04,2849.396 3359.471,2870.926 3358.969,2892.455 3358.53,2913.986 
		3358.158,2935.52 3357.851,2957.055 3357.61,2978.591 3357.436,3000.125 3357.326,3021.657 3357.28,3043.198 3357.303,3064.732 
		3357.39,3086.27 3357.437,3092.862 	"/>
</g>
<g>
</g>
</svg>
