<?xml version="1.0" encoding="iso-8859-1"?>
<!-- Generator: Adobe Illustrator 21.1.0, SVG Export Plug-In . SVG Version: 6.00 Build 0)  -->
<!DOCTYPE svg PUBLIC "-//W3C//DTD SVG 1.1//EN" "http://www.w3.org/Graphics/SVG/1.1/DTD/svg11.dtd">
<svg version="1.1" id="Layer_1" xmlns="http://www.w3.org/2000/svg" xmlns:xlink="http://www.w3.org/1999/xlink" x="0px" y="0px"
	 viewBox="0 0 3960 3960" style="enable-background:new 0 0 3960 3960;" xml:space="preserve">
<g id="branding">
	<g>
		<g>
			<path style="fill:#FFFFFF;" d="M2745.589,3294.505c-2.009,0-3.639,1.628-3.64,3.638l-0.022,33.988
				c0,12.827,10.398,23.226,23.226,23.226h9.959c8.267,0,15.903-4.453,20.038-11.515h166.36c3.896,0,7.055-3.158,7.055-7.055v-6.072
				v-4.122v-28.447c0-2.01-1.63-3.64-3.64-3.64L2745.589,3294.505L2745.589,3294.505z"/>
		</g>
		<g>
			<g>
				<g>
					<path d="M2774.302,3323.381v17.7h-4.3v-13.975h-6.85v-3.725H2774.302L2774.302,3323.381z"/>
				</g>
				<g>
					<g>
						<path d="M2781.093,3302.483l0.182-1.3h-1.105v-1.352h1.274l0.39-2.6h1.43l-0.377,2.6h1.027l0.377-2.6h1.43l-0.377,2.6h1.105
							v1.352h-1.287l-0.195,1.3h1.105v1.352h-1.274l-0.377,2.6h-1.443l0.377-2.6h-1.014l-0.377,2.6h-1.43l0.364-2.6h-1.092v-1.352
							H2781.093z M2783.549,3302.483l0.169-1.3h-1.014l-0.182,1.3H2783.549z"/>
						<path d="M2773.351,3299.233c0.083-0.399,0.234-0.765,0.455-1.099c0.221-0.333,0.529-0.609,0.923-0.825
							c0.395-0.217,0.903-0.325,1.527-0.325c0.78,0,1.43,0.202,1.95,0.604c0.52,0.403,0.867,0.921,1.04,1.554l-1.963,0.663
							c-0.061-0.243-0.171-0.438-0.332-0.585s-0.357-0.221-0.591-0.221c-0.364,0-0.604,0.125-0.721,0.377
							c-0.117,0.251-0.176,0.581-0.176,0.988v6.071h-2.236v-6.058C2773.227,3300.013,2773.268,3299.631,2773.351,3299.233z"/>
						<path d="M2762.788,3301.859c0-0.806,0.149-1.501,0.449-2.086c0.299-0.585,0.693-1.066,1.183-1.443
							c0.49-0.377,1.042-0.655,1.658-0.832c0.615-0.178,1.239-0.267,1.872-0.267h3.432v9.204h-3.328
							c-0.65,0-1.292-0.076-1.924-0.228c-0.632-0.152-1.196-0.403-1.69-0.754c-0.494-0.351-0.893-0.821-1.196-1.411
							S2762.788,3302.726,2762.788,3301.859z M2765.102,3301.859c0,0.52,0.084,0.951,0.253,1.293
							c0.169,0.342,0.395,0.615,0.676,0.819c0.282,0.203,0.603,0.349,0.962,0.435c0.36,0.087,0.73,0.13,1.111,0.13h1.105v-5.382
							h-1.053c-0.398,0-0.782,0.046-1.151,0.137c-0.368,0.091-0.693,0.24-0.975,0.448s-0.507,0.485-0.676,0.832
							C2765.185,3300.918,2765.102,3301.348,2765.102,3301.859z"/>
						<path d="M2754.729,3297.394c0.598-0.273,1.287-0.41,2.067-0.41c0.711,0,1.367,0.117,1.97,0.351s1.125,0.565,1.566,0.995
							c0.442,0.429,0.789,0.942,1.04,1.541c0.251,0.598,0.377,1.256,0.377,1.976c0,0.736-0.128,1.404-0.383,2.002
							c-0.256,0.598-0.609,1.107-1.06,1.527s-0.979,0.743-1.586,0.968c-0.607,0.226-1.261,0.338-1.963,0.338
							c-0.65,0-1.289-0.115-1.917-0.345c-0.628-0.229-1.137-0.565-1.527-1.007l1.508-1.508c0.208,0.286,0.481,0.499,0.819,0.637
							s0.685,0.208,1.04,0.208c0.39,0,0.748-0.072,1.072-0.214c0.325-0.143,0.604-0.34,0.838-0.592
							c0.234-0.251,0.416-0.548,0.546-0.891c0.13-0.342,0.195-0.717,0.195-1.124c0-0.416-0.065-0.798-0.195-1.144
							c-0.13-0.347-0.31-0.644-0.54-0.891c-0.23-0.247-0.505-0.44-0.826-0.579c-0.32-0.139-0.671-0.208-1.053-0.208
							c-0.442,0-0.828,0.086-1.157,0.26c-0.329,0.173-0.594,0.398-0.793,0.676l-1.547-1.456
							C2753.627,3298.037,2754.13,3297.666,2754.729,3297.394z"/>
					</g>
				</g>
				<g>
					<rect x="2872.486" y="3328.086" width="9.005" height="7.339"/>
					<path d="M2765.154,3351.857h9.959c7.96,0,14.802-4.725,17.919-11.515h168.478c1.963,0,3.555-1.592,3.555-3.555v-10.195
						c0-1.963-1.592-3.555-3.555-3.555h-168.711c-3.216-6.528-9.917-11.031-17.686-11.031h-9.959
						c-10.894,0-19.726,8.832-19.726,19.726v0.399C2745.428,3343.025,2754.26,3351.857,2765.154,3351.857z M2942.631,3328.414
						c0-1.252,0.242-2.083,0.74-2.544c0.49-0.454,1.348-0.675,2.623-0.675h5.331c1.275,0,2.134,0.221,2.624,0.676
						c0.498,0.46,0.74,1.291,0.74,2.543v2.809l-3.444,0.662v-3.799h-5.171v10.111h-3.444L2942.631,3328.414L2942.631,3328.414z
						 M2926.646,3325.195l0.009,0.015l1.486,2.712h7.563l1.447-2.727h3.532l-7.357,13.002h-3.119l-0.009-0.015l-7.449-12.986
						L2926.646,3325.195L2926.646,3325.195z M2910.243,3325.195l0.008,0.006l7.083,5.202v-5.208h3.47v13.002h-3.47v-4.912
						l-6.534,4.912h-5.152l0.077-0.055l8.562-6.084l-9.652-6.863H2910.243L2910.243,3325.195z M2891.896,3325.195l0.009,0.008
						l5.01,4.697h2.367v-4.705h3.398v13.002h-10.941c-1.403,0-3.075-0.466-3.075-2.688v-2.921c0-2.222,1.672-2.688,3.075-2.688h0.87
						l-5.741-4.705H2891.896L2891.896,3325.195z M2869.039,3328.414c0-1.25,0.242-2.081,0.74-2.543
						c0.49-0.454,1.349-0.676,2.624-0.676h9.169c1.275,0,2.133,0.221,2.623,0.676c0.498,0.46,0.74,1.292,0.74,2.543v6.562
						c0,1.254-0.243,2.086-0.742,2.543c-0.491,0.456-1.349,0.678-2.622,0.678h-9.169c-1.274,0-2.133-0.222-2.625-0.678
						c-0.498-0.46-0.74-1.292-0.74-2.542v-6.563H2869.039z M2851.198,3328.414c0-1.25,0.242-2.081,0.74-2.543
						c0.491-0.454,1.349-0.676,2.624-0.676h9.168c1.275,0,2.134,0.221,2.625,0.676c0.498,0.46,0.74,1.291,0.74,2.543v6.562
						c0,1.253-0.243,2.085-0.741,2.543c-0.491,0.456-1.349,0.678-2.624,0.678h-9.168c-1.274,0-2.132-0.222-2.624-0.678
						c-0.498-0.46-0.74-1.291-0.74-2.542L2851.198,3328.414L2851.198,3328.414z M2844.016,3326.354c0-0.205,0-0.492,0.174-0.615
						c0.109-0.082,0.304-0.103,0.521-0.103h2.131c0.152,0,0.348,0.02,0.456,0.246c0.066,0.123,0.066,0.369,0.066,0.513v1.661
						c0,0.164,0.022,0.513-0.174,0.656c-0.131,0.103-0.391,0.103-0.609,0.103h-2c-0.131,0-0.305,0-0.435-0.144
						c-0.131-0.144-0.131-0.472-0.131-0.574L2844.016,3326.354L2844.016,3326.354z M2829.955,3331.38l2.217-0.308v1.6h6.109v-5.395
						h-6.109v1.847l-2.217-0.431v-1.005c0-0.554,0.022-1.231,0.522-1.641c0.283-0.246,0.826-0.41,1.891-0.41h5.739
						c0.761,0,1.478,0.082,1.891,0.431c0.456,0.41,0.5,1.087,0.5,1.621v4.574c0,0.554-0.022,1.231-0.522,1.641
						c-0.348,0.287-0.935,0.41-1.87,0.41h-5.739c-1.065,0-1.609-0.164-1.891-0.41c-0.5-0.41-0.522-1.087-0.522-1.641
						L2829.955,3331.38L2829.955,3331.38z M2814.928,3327.585c0-0.41,0.043-1.067,0.456-1.477c0.457-0.452,1.304-0.472,1.935-0.472
						h7.109c0.891,0,1.587,0.123,1.935,0.451c0.457,0.431,0.457,1.272,0.457,1.6v4.574c0,0.349,0,1.211-0.5,1.641
						c-0.326,0.287-0.935,0.41-1.804,0.41h-7.196c-0.435,0-1.435,0-1.935-0.451c-0.456-0.41-0.456-1.231-0.456-1.6
						L2814.928,3327.585L2814.928,3327.585z M2799.886,3325.637h2.087v5.969l4.109-4.923h0.435l4.152,4.779v-5.826h1.804v8.677
						h-1.804l-4.5-5.149l-4.478,5.149h-1.804L2799.886,3325.637L2799.886,3325.637z M2748.428,3331.733
						c0-9.223,7.503-16.726,16.726-16.726h9.959c6.036,0,11.319,3.225,14.261,8.031c1.553,2.538,2.465,5.508,2.465,8.695v0.399
						c0,2.985-0.795,5.783-2.171,8.211c-2.875,5.076-8.317,8.515-14.555,8.515h-9.959c-9.223,0-16.726-7.503-16.726-16.726V3331.733
						z"/>
					<rect x="2854.646" y="3328.086" width="9.005" height="7.339"/>
					<rect x="2817.146" y="3327.277" width="7.457" height="5.395"/>
					<path d="M2892.015,3333.295v1.507c0,0.316,0.077,0.523,0.229,0.614c0.045,0.025,0.238,0.106,0.798,0.106h6.241v-2.948h-6.241
						c-0.527,0-0.732,0.07-0.808,0.112C2892.089,3332.775,2892.015,3332.98,2892.015,3333.295z"/>
					<polygon points="2934.174,3330.715 2929.642,3330.715 2931.868,3334.928 					"/>
				</g>
			</g>
			<g>
				<path d="M2949.87,3311.005l1.956,3.372h0.741v-3.372h2.124v8.496h-3.434c-0.433,0-0.854-0.042-1.266-0.126
					c-0.412-0.084-0.78-0.226-1.107-0.426c-0.326-0.2-0.587-0.464-0.782-0.792c-0.195-0.328-0.292-0.736-0.292-1.224
					c0-0.576,0.166-1.061,0.496-1.452c0.331-0.392,0.789-0.672,1.374-0.84l-2.353-3.636H2949.87z M2949.959,3316.898
					c0,0.2,0.044,0.362,0.134,0.486c0.089,0.124,0.205,0.22,0.345,0.288c0.141,0.068,0.298,0.114,0.473,0.138
					c0.175,0.024,0.343,0.036,0.505,0.036h1.163v-1.98h-1.035c-0.179,0-0.362,0.014-0.55,0.042s-0.358,0.078-0.511,0.15
					c-0.153,0.072-0.279,0.176-0.377,0.312C2950.008,3316.505,2949.959,3316.681,2949.959,3316.898z"/>
				<path d="M2944.973,3311.005v8.496h-2.188v-8.496H2944.973z"/>
				<path d="M2931.235,3315.277c0-0.744,0.146-1.386,0.439-1.926c0.292-0.54,0.678-0.984,1.157-1.332
					c0.479-0.348,1.02-0.604,1.622-0.768s1.212-0.246,1.832-0.246h3.358v8.496h-3.256c-0.636,0-1.263-0.07-1.882-0.21
					c-0.619-0.14-1.17-0.372-1.654-0.696c-0.483-0.324-0.873-0.758-1.17-1.302S2931.235,3316.077,2931.235,3315.277z
					 M2933.5,3315.277c0,0.48,0.083,0.878,0.248,1.194c0.165,0.316,0.386,0.568,0.662,0.756c0.275,0.188,0.589,0.322,0.941,0.402
					c0.352,0.08,0.715,0.12,1.088,0.12h1.081v-4.968h-1.03c-0.39,0-0.765,0.042-1.126,0.126c-0.36,0.084-0.678,0.222-0.954,0.414
					c-0.276,0.192-0.496,0.448-0.662,0.768C2933.581,3314.409,2933.5,3314.805,2933.5,3315.277z"/>
				<path d="M2928.513,3311.005v8.496h-6.055v-1.728h3.956v-1.608h-3.74v-1.644h3.74v-1.764h-4.185v-1.752
					C2922.229,3311.005,2928.513,3311.005,2928.513,3311.005z"/>
				<path d="M2917.243,3312.062c0-0.336,0.125-0.616,0.375-0.84c0.25-0.224,0.549-0.336,0.896-0.336c0.178,0,0.346,0.03,0.502,0.09
					c0.157,0.06,0.295,0.142,0.414,0.246c0.119,0.104,0.212,0.226,0.28,0.366c0.068,0.14,0.102,0.294,0.102,0.462
					c0,0.16-0.034,0.312-0.102,0.456c-0.068,0.144-0.161,0.27-0.28,0.378c-0.119,0.108-0.256,0.194-0.414,0.258
					c-0.157,0.063-0.324,0.096-0.502,0.096c-0.348,0-0.646-0.112-0.896-0.336
					C2917.368,3312.678,2917.243,3312.398,2917.243,3312.062z"/>
				<path d="M2905.274,3311.005l1.956,3.372h0.741v-3.372h2.124v8.496h-3.434c-0.433,0-0.854-0.042-1.266-0.126
					c-0.412-0.084-0.78-0.226-1.107-0.426c-0.326-0.2-0.587-0.464-0.782-0.792c-0.195-0.328-0.292-0.736-0.292-1.224
					c0-0.576,0.166-1.061,0.496-1.452c0.331-0.392,0.789-0.672,1.374-0.84l-2.353-3.636H2905.274z M2905.364,3316.898
					c0,0.2,0.044,0.362,0.134,0.486c0.089,0.124,0.205,0.22,0.345,0.288c0.141,0.068,0.298,0.114,0.473,0.138
					c0.175,0.024,0.343,0.036,0.505,0.036h1.163v-1.98h-1.035c-0.179,0-0.362,0.014-0.55,0.042s-0.358,0.078-0.511,0.15
					c-0.153,0.072-0.279,0.176-0.377,0.312C2905.412,3316.505,2905.364,3316.681,2905.364,3316.898z"/>
				<path d="M2900.376,3311.005v8.496h-2.188v-8.496H2900.376z"/>
				<path d="M2889.323,3311.005l3.625,5.556h0.038l-0.051-5.556h2.111v8.496h-2.48l-3.612-5.544h-0.038l0.051,5.544h-2.111v-8.496
					H2889.323z"/>
				<path d="M2878.956,3317.294c0.187,0.224,0.431,0.402,0.731,0.534c0.301,0.132,0.592,0.198,0.872,0.198
					c0.144,0,0.291-0.012,0.439-0.036c0.148-0.024,0.282-0.07,0.4-0.138c0.119-0.068,0.218-0.156,0.299-0.264
					c0.081-0.108,0.121-0.246,0.121-0.414c0-0.144-0.032-0.264-0.096-0.36c-0.063-0.096-0.157-0.18-0.28-0.252
					s-0.269-0.138-0.438-0.198c-0.17-0.06-0.36-0.122-0.573-0.186c-0.305-0.096-0.623-0.202-0.954-0.318
					c-0.331-0.116-0.631-0.27-0.903-0.462s-0.496-0.43-0.674-0.714c-0.178-0.284-0.267-0.638-0.267-1.062
					c0-0.488,0.096-0.91,0.286-1.266c0.191-0.356,0.448-0.65,0.77-0.882c0.323-0.232,0.691-0.404,1.107-0.516
					s0.844-0.168,1.285-0.168c0.645,0,1.268,0.106,1.87,0.318c0.603,0.212,1.103,0.514,1.501,0.906l-1.424,1.368
					c-0.221-0.256-0.511-0.47-0.872-0.642c-0.361-0.172-0.719-0.258-1.075-0.258c-0.161,0-0.318,0.016-0.471,0.048
					s-0.286,0.084-0.401,0.156c-0.114,0.072-0.205,0.168-0.273,0.288c-0.068,0.12-0.102,0.264-0.102,0.432
					c0,0.16,0.042,0.296,0.127,0.408c0.085,0.112,0.206,0.214,0.363,0.306s0.352,0.176,0.585,0.252
					c0.233,0.076,0.499,0.158,0.795,0.246c0.289,0.088,0.571,0.192,0.846,0.312c0.275,0.12,0.521,0.274,0.738,0.462
					c0.216,0.188,0.39,0.416,0.521,0.684c0.131,0.268,0.197,0.594,0.197,0.978c0,0.472-0.102,0.876-0.305,1.212
					c-0.204,0.336-0.471,0.612-0.801,0.828c-0.331,0.216-0.704,0.374-1.119,0.474c-0.415,0.1-0.835,0.15-1.259,0.15
					c-0.509,0-1.028-0.088-1.559-0.264c-0.53-0.176-0.994-0.437-1.393-0.78L2878.956,3317.294z"/>
				<path d="M2874.911,3311.005v8.496h-6.055v-1.728h3.956v-1.608h-3.74v-1.644h3.74v-1.764h-4.185v-1.752
					C2868.627,3311.005,2874.911,3311.005,2874.911,3311.005z"/>
				<path d="M2863.641,3312.062c0-0.336,0.125-0.616,0.375-0.84c0.25-0.224,0.549-0.336,0.896-0.336c0.178,0,0.346,0.03,0.502,0.09
					c0.157,0.06,0.295,0.142,0.414,0.246c0.119,0.104,0.212,0.226,0.28,0.366c0.068,0.14,0.102,0.294,0.102,0.462
					c0,0.16-0.034,0.312-0.102,0.456c-0.068,0.144-0.161,0.27-0.28,0.378c-0.119,0.108-0.256,0.194-0.414,0.258
					c-0.157,0.063-0.324,0.096-0.502,0.096c-0.348,0-0.646-0.112-0.896-0.336
					C2863.766,3312.678,2863.641,3312.398,2863.641,3312.062z"/>
				<path d="M2851.63,3311.005l1.956,3.372h0.741v-3.372h2.124v8.496h-3.434c-0.433,0-0.854-0.042-1.266-0.126
					c-0.412-0.084-0.78-0.226-1.107-0.426c-0.326-0.2-0.587-0.464-0.782-0.792c-0.195-0.328-0.292-0.736-0.292-1.224
					c0-0.576,0.166-1.061,0.496-1.452c0.331-0.392,0.789-0.672,1.374-0.84l-2.353-3.636H2851.63z M2851.72,3316.898
					c0,0.2,0.044,0.362,0.134,0.486c0.089,0.124,0.205,0.22,0.345,0.288c0.141,0.068,0.298,0.114,0.473,0.138
					c0.175,0.024,0.343,0.036,0.505,0.036h1.163v-1.98h-1.035c-0.179,0-0.362,0.014-0.55,0.042s-0.358,0.078-0.511,0.15
					c-0.153,0.072-0.279,0.176-0.377,0.312C2851.77,3316.505,2851.72,3316.681,2851.72,3316.898z"/>
				<path d="M2846.733,3311.005v8.496h-6.055v-1.728h3.956v-1.608h-3.74v-1.644h3.74v-1.764h-4.185v-1.752
					C2840.449,3311.005,2846.733,3311.005,2846.733,3311.005z"/>
				<path d="M2830.897,3316.885c0-0.496,0.098-0.914,0.292-1.254c0.195-0.34,0.458-0.614,0.789-0.822
					c0.331-0.208,0.712-0.36,1.145-0.456c0.433-0.096,0.882-0.144,1.348-0.144h1.082v-3.204h2.175v8.496h-3.307
					c-0.492,0-0.952-0.046-1.38-0.138s-0.802-0.24-1.12-0.444c-0.318-0.204-0.568-0.472-0.75-0.804
					C2830.989,3317.783,2830.897,3317.373,2830.897,3316.885z M2833.073,3316.874c0,0.2,0.042,0.364,0.127,0.492
					s0.2,0.228,0.344,0.3s0.307,0.12,0.49,0.144c0.182,0.024,0.371,0.036,0.566,0.036h0.954v-2.004h-0.916
					c-0.204,0-0.398,0.016-0.585,0.048s-0.354,0.088-0.502,0.168c-0.148,0.08-0.265,0.186-0.35,0.318
					C2833.115,3316.507,2833.073,3316.673,2833.073,3316.874z"/>
				<path d="M2828.802,3311.005v8.496h-6.055v-1.728h3.956v-1.608h-3.74v-1.644h3.74v-1.764h-4.185v-1.752
					C2822.518,3311.005,2828.802,3311.005,2828.802,3311.005z"/>
				<path d="M2813.691,3311.005l0.7,1.668h3.485l0.661-1.668h2.366l-3.778,8.496h-2.112l-3.74-8.496H2813.691z M2816.108,3317.234
					l1.145-2.916h-2.264L2816.108,3317.234z"/>
				<path d="M2806.148,3317.75v-6.744h2.175v6.744h2.544v1.752h-7.263v-1.752H2806.148z"/>
				<path d="M2800.055,3312.062c0-0.336,0.125-0.616,0.375-0.84c0.25-0.224,0.549-0.336,0.896-0.336c0.178,0,0.346,0.03,0.502,0.09
					c0.157,0.06,0.295,0.142,0.414,0.246c0.119,0.104,0.212,0.226,0.28,0.366c0.068,0.14,0.102,0.294,0.102,0.462
					c0,0.16-0.034,0.312-0.102,0.456c-0.068,0.144-0.161,0.27-0.28,0.378c-0.119,0.108-0.256,0.194-0.414,0.258
					c-0.157,0.063-0.324,0.096-0.502,0.096c-0.348,0-0.646-0.112-0.896-0.336C2800.18,3312.678,2800.055,3312.398,2800.055,3312.062
					z"/>
				<path d="M2944.814,3298.005h2.028l1.68,5.748h0.036l1.68-5.748h2.04l2.412,8.496h-2.208l-1.344-5.652h-0.036l-1.512,5.652
					h-2.136l-1.524-5.652h-0.036l-1.368,5.652h-2.136L2944.814,3298.005z"/>
				<path d="M2936.496,3298.005l0.66,1.668h3.288l0.624-1.668h2.232l-3.564,8.496h-1.992l-3.528-8.496H2936.496z M2938.777,3304.234
					l1.08-2.916h-2.136L2938.777,3304.234z"/>
				<path d="M2928.622,3304.294c0.176,0.224,0.406,0.402,0.69,0.534c0.284,0.132,0.558,0.198,0.822,0.198
					c0.136,0,0.274-0.012,0.414-0.036c0.14-0.024,0.266-0.07,0.378-0.138c0.112-0.068,0.206-0.156,0.282-0.264
					c0.076-0.108,0.114-0.246,0.114-0.414c0-0.144-0.03-0.264-0.09-0.36s-0.148-0.18-0.264-0.252
					c-0.116-0.072-0.254-0.138-0.414-0.198s-0.34-0.122-0.54-0.186c-0.288-0.096-0.588-0.202-0.9-0.318
					c-0.312-0.116-0.596-0.27-0.852-0.462c-0.256-0.192-0.468-0.43-0.636-0.714c-0.168-0.284-0.252-0.638-0.252-1.062
					c0-0.488,0.09-0.91,0.27-1.266c0.18-0.356,0.422-0.65,0.726-0.882c0.304-0.232,0.652-0.404,1.044-0.516
					c0.392-0.112,0.796-0.168,1.212-0.168c0.608,0,1.196,0.106,1.764,0.318c0.568,0.212,1.04,0.514,1.416,0.906l-1.344,1.368
					c-0.208-0.256-0.482-0.47-0.822-0.642c-0.34-0.172-0.678-0.258-1.014-0.258c-0.152,0-0.3,0.016-0.444,0.048
					c-0.144,0.032-0.27,0.084-0.378,0.156s-0.194,0.168-0.258,0.288c-0.064,0.12-0.096,0.264-0.096,0.432
					c0,0.16,0.04,0.296,0.12,0.408c0.08,0.112,0.194,0.214,0.342,0.306c0.148,0.092,0.333,0.176,0.552,0.252
					c0.22,0.076,0.47,0.158,0.75,0.246c0.272,0.088,0.538,0.192,0.798,0.312c0.26,0.12,0.492,0.274,0.696,0.462
					c0.204,0.188,0.368,0.416,0.492,0.684s0.186,0.594,0.186,0.978c0,0.472-0.096,0.876-0.288,1.212
					c-0.192,0.336-0.444,0.612-0.756,0.828s-0.664,0.374-1.056,0.474c-0.392,0.1-0.788,0.15-1.188,0.15
					c-0.48,0-0.97-0.088-1.47-0.264s-0.938-0.437-1.314-0.78L2928.622,3304.294z"/>
				<path d="M2920.63,3298.005v3.552h3.312v-3.552h2.052v8.496h-2.052v-3.216h-3.312v3.216h-2.052v-8.496H2920.63z"/>
				<path d="M2907.694,3298.155c0.552-0.252,1.188-0.378,1.908-0.378c0.656,0,1.262,0.108,1.818,0.324
					c0.556,0.216,1.038,0.522,1.446,0.918s0.728,0.87,0.96,1.422s0.348,1.16,0.348,1.824c0,0.68-0.118,1.296-0.354,1.848
					c-0.236,0.552-0.562,1.022-0.978,1.41s-0.904,0.686-1.464,0.894s-1.164,0.312-1.812,0.312c-0.6,0-1.19-0.106-1.77-0.318
					c-0.58-0.212-1.05-0.522-1.41-0.93l1.392-1.392c0.192,0.264,0.444,0.46,0.756,0.588s0.632,0.192,0.96,0.192
					c0.36,0,0.69-0.066,0.99-0.198c0.3-0.132,0.558-0.314,0.774-0.546c0.216-0.232,0.384-0.506,0.504-0.822s0.18-0.662,0.18-1.038
					c0-0.384-0.06-0.736-0.18-1.056c-0.12-0.32-0.286-0.594-0.498-0.822c-0.212-0.228-0.466-0.406-0.762-0.534
					c-0.296-0.128-0.62-0.192-0.972-0.192c-0.408,0-0.764,0.08-1.068,0.24c-0.304,0.16-0.548,0.368-0.732,0.624l-1.428-1.344
					C2906.678,3298.75,2907.142,3298.407,2907.694,3298.155z"/>
				<path d="M2896.69,3302.29c0-0.672,0.116-1.286,0.348-1.842c0.232-0.556,0.554-1.032,0.966-1.428
					c0.412-0.396,0.902-0.702,1.47-0.918c0.568-0.216,1.184-0.324,1.848-0.324c0.664,0,1.278,0.108,1.842,0.324
					c0.564,0.216,1.052,0.522,1.464,0.918c0.412,0.396,0.734,0.872,0.966,1.428c0.232,0.556,0.348,1.17,0.348,1.842
					c0,0.68-0.116,1.294-0.348,1.842c-0.232,0.548-0.554,1.014-0.966,1.398c-0.412,0.384-0.9,0.68-1.464,0.888
					s-1.178,0.312-1.842,0.312c-0.664,0-1.28-0.104-1.848-0.312c-0.568-0.208-1.058-0.504-1.47-0.888
					c-0.412-0.384-0.734-0.85-0.966-1.398C2896.806,3303.584,2896.69,3302.969,2896.69,3302.29z M2898.886,3302.29
					c0,0.368,0.06,0.712,0.18,1.032c0.12,0.32,0.286,0.594,0.498,0.822c0.212,0.228,0.468,0.408,0.768,0.54
					c0.3,0.132,0.63,0.198,0.99,0.198c0.36,0,0.688-0.066,0.984-0.198c0.296-0.132,0.552-0.312,0.768-0.54
					c0.216-0.228,0.382-0.502,0.498-0.822c0.116-0.32,0.174-0.664,0.174-1.032c0-0.384-0.06-0.738-0.18-1.062
					c-0.12-0.324-0.286-0.602-0.498-0.834c-0.212-0.232-0.466-0.414-0.762-0.546c-0.296-0.132-0.624-0.198-0.984-0.198
					c-0.36,0-0.688,0.066-0.984,0.198c-0.296,0.132-0.552,0.314-0.768,0.546c-0.216,0.232-0.384,0.51-0.504,0.834
					C2898.946,3301.551,2898.886,3301.905,2898.886,3302.29z"/>
				<path d="M2895.31,3298.005v8.496h-2.064v-6.708h-3.288v-1.788H2895.31z"/>
				<path d="M2881.042,3302.277c0-0.744,0.138-1.386,0.414-1.926c0.276-0.54,0.64-0.984,1.092-1.332
					c0.452-0.348,0.962-0.604,1.53-0.768s1.144-0.246,1.728-0.246h3.168v8.496h-3.072c-0.6,0-1.192-0.07-1.776-0.21
					c-0.584-0.14-1.104-0.372-1.56-0.696s-0.824-0.758-1.104-1.302S2881.042,3303.077,2881.042,3302.277z M2883.178,3302.277
					c0,0.48,0.078,0.878,0.234,1.194s0.364,0.568,0.624,0.756s0.556,0.322,0.888,0.402c0.332,0.08,0.674,0.12,1.026,0.12h1.02
					v-4.968h-0.972c-0.368,0-0.722,0.042-1.062,0.126s-0.64,0.222-0.9,0.414c-0.26,0.192-0.468,0.448-0.624,0.768
					C2883.256,3301.409,2883.178,3301.805,2883.178,3302.277z"/>
				<path d="M2870.638,3298.005l0.804,0.828c0.272-0.288,0.606-0.526,1.002-0.714s0.89-0.282,1.482-0.282
					c0.384,0,0.76,0.05,1.128,0.15c0.368,0.1,0.694,0.256,0.978,0.468c0.284,0.212,0.512,0.476,0.684,0.792
					c0.172,0.316,0.258,0.69,0.258,1.122c0,0.296-0.048,0.568-0.144,0.816c-0.096,0.248-0.226,0.468-0.39,0.66
					s-0.354,0.36-0.57,0.504c-0.216,0.144-0.44,0.268-0.672,0.372c0.264,0.256,0.476,0.536,0.636,0.84s0.24,0.64,0.24,1.008
					c0,0.384-0.08,0.712-0.24,0.984s-0.366,0.496-0.618,0.672c-0.252,0.176-0.536,0.304-0.852,0.384
					c-0.316,0.08-0.63,0.12-0.942,0.12c-0.32,0-0.636-0.042-0.948-0.126s-0.59-0.214-0.834-0.39c-0.244-0.176-0.44-0.4-0.588-0.672
					s-0.222-0.596-0.222-0.972c0-0.272,0.044-0.518,0.132-0.738c0.088-0.22,0.21-0.42,0.366-0.6s0.338-0.342,0.546-0.486
					c0.208-0.144,0.428-0.276,0.66-0.396l-1.068-1.092l-0.852,1.308h-2.184l1.836-2.46l-2.112-2.1H2870.638L2870.638,3298.005z
					 M2874.106,3301.593c0.24-0.096,0.45-0.23,0.63-0.402c0.18-0.172,0.27-0.418,0.27-0.738c0-0.168-0.034-0.318-0.102-0.45
					c-0.068-0.132-0.156-0.244-0.264-0.336c-0.108-0.092-0.23-0.162-0.366-0.21c-0.136-0.048-0.276-0.072-0.42-0.072
					c-0.264,0-0.5,0.056-0.708,0.168s-0.388,0.272-0.54,0.48L2874.106,3301.593z M2872.594,3304.509c0,0.216,0.072,0.4,0.216,0.552
					c0.144,0.152,0.34,0.228,0.588,0.228c0.232,0,0.426-0.074,0.582-0.222c0.156-0.148,0.234-0.334,0.234-0.558
					c0-0.2-0.054-0.392-0.162-0.576c-0.108-0.185-0.266-0.36-0.474-0.528c-0.272,0.112-0.504,0.26-0.696,0.444
					C2872.69,3304.033,2872.594,3304.254,2872.594,3304.509z"/>
				<path d="M2858.854,3298.005v3.552h3.312v-3.552h2.052v8.496h-2.052v-3.216h-3.312v3.216h-2.052v-8.496H2858.854z"/>
				<path d="M2849.266,3298.005l0.66,1.668h3.288l0.624-1.668h2.232l-3.564,8.496h-1.992l-3.528-8.496H2849.266z M2851.547,3304.234
					l1.08-2.916h-2.136L2851.547,3304.234z"/>
				<path d="M2840.855,3298.005l3.42,5.556h0.036l-0.048-5.556h1.992v8.496h-2.34l-3.408-5.544h-0.036l0.048,5.544h-1.992v-8.496
					H2840.855z"/>
				<path d="M2830.661,3297.993c0.556-0.136,1.162-0.204,1.818-0.204c0.68,0,1.306,0.108,1.878,0.324
					c0.572,0.216,1.064,0.52,1.476,0.912c0.412,0.392,0.734,0.862,0.966,1.41c0.232,0.548,0.348,1.158,0.348,1.83
					c0,0.68-0.118,1.296-0.354,1.848s-0.562,1.022-0.978,1.41s-0.904,0.686-1.464,0.894c-0.56,0.208-1.164,0.312-1.812,0.312
					c-0.672,0-1.296-0.102-1.872-0.306c-0.576-0.204-1.044-0.478-1.404-0.822l1.296-1.476c0.2,0.232,0.464,0.422,0.792,0.57
					c0.328,0.148,0.7,0.222,1.116,0.222c0.36,0,0.692-0.066,0.996-0.198s0.568-0.316,0.792-0.552
					c0.224-0.236,0.398-0.516,0.522-0.84s0.186-0.678,0.186-1.062c0-0.392-0.056-0.752-0.168-1.08
					c-0.112-0.328-0.278-0.61-0.498-0.846c-0.22-0.236-0.492-0.42-0.816-0.552c-0.324-0.132-0.694-0.198-1.11-0.198
					c-0.24,0-0.468,0.018-0.684,0.054c-0.216,0.036-0.416,0.094-0.6,0.174v1.548h1.62v1.656h-3.504v-4.5
					C2829.619,3298.305,2830.105,3298.13,2830.661,3297.993z"/>
				<path d="M2816.543,3302.277c0-0.744,0.138-1.386,0.414-1.926c0.276-0.54,0.64-0.984,1.092-1.332
					c0.452-0.348,0.962-0.604,1.53-0.768c0.568-0.164,1.144-0.246,1.728-0.246h3.168v8.496h-3.072c-0.6,0-1.192-0.07-1.776-0.21
					c-0.584-0.14-1.104-0.372-1.56-0.696c-0.456-0.324-0.824-0.758-1.104-1.302S2816.543,3303.077,2816.543,3302.277z
					 M2818.679,3302.277c0,0.48,0.078,0.878,0.234,1.194s0.364,0.568,0.624,0.756s0.556,0.322,0.888,0.402
					c0.332,0.08,0.674,0.12,1.026,0.12h1.02v-4.968h-0.972c-0.368,0-0.722,0.042-1.062,0.126s-0.64,0.222-0.9,0.414
					c-0.26,0.192-0.468,0.448-0.624,0.768C2818.757,3301.409,2818.679,3301.805,2818.679,3302.277z"/>
				<path d="M2810.82,3298.005l1.844,3.372h0.7v-3.372h2.004v8.496h-3.24c-0.408,0-0.806-0.042-1.194-0.126
					c-0.388-0.084-0.736-0.226-1.044-0.426c-0.308-0.2-0.554-0.464-0.738-0.792c-0.184-0.328-0.276-0.736-0.276-1.224
					c0-0.576,0.156-1.061,0.468-1.452c0.312-0.392,0.744-0.672,1.296-0.84l-2.22-3.636H2810.82z M2810.904,3303.898
					c0,0.2,0.042,0.362,0.126,0.486s0.193,0.22,0.326,0.288c0.133,0.068,0.281,0.114,0.446,0.138
					c0.165,0.024,0.324,0.036,0.476,0.036h1.097v-1.98h-0.977c-0.169,0-0.342,0.014-0.519,0.042s-0.337,0.078-0.482,0.15
					c-0.145,0.072-0.263,0.176-0.355,0.312C2810.95,3303.505,2810.904,3303.681,2810.904,3303.898z"/>
				<path d="M2803.175,3301.606v-3.6h2.052v3.6l3.192,4.896h-2.484l-1.812-3.144l-1.812,3.144h-2.4L2803.175,3301.606z"/>
			</g>
		</g>
	</g>
</g>
<g id="Layer_1_1_">
</g>
</svg>
