<?xml version="1.0" encoding="iso-8859-1"?>
<!-- Generator: Adobe Illustrator 21.1.0, SVG Export Plug-In . SVG Version: 6.00 Build 0)  -->
<!DOCTYPE svg PUBLIC "-//W3C//DTD SVG 1.1//EN" "http://www.w3.org/Graphics/SVG/1.1/DTD/svg11.dtd">
<svg version="1.1" id="colorblock_x5F_3" xmlns="http://www.w3.org/2000/svg" xmlns:xlink="http://www.w3.org/1999/xlink" x="0px"
	 y="0px" viewBox="0 0 3609 3609" style="enable-background:new 0 0 3609 3609;" xml:space="preserve">
<g>
	<g>
		<defs>
			<polygon id="SVGID_1_" points="3584.193,803.776 3576.318,790.593 3568.668,777.301 3561.215,763.858 3552.836,748.19 
				3544.648,732.347 3536.697,716.422 3528.854,700.143 3519.66,680.963 3510.011,661.357 3497.793,637.111 3485.073,612.379 
				3476.816,597.368 3468.412,582.479 3459.93,567.828 3451,552.79 3448.082,548.1 3447.651,547.42 3444.394,542.562 
				3443.971,541.944 3440.077,536.542 3436.965,532.504 3432.23,525.562 3425.846,516.744 3419.72,508.788 3413.291,500.926 
				3412.422,499.904 3411.544,498.939 3400.678,487.397 3389.249,475.7 3377.96,464.572 3366.361,453.556 3365.287,452.571 
				3364.18,451.635 3357.871,446.484 3351.27,441.222 3344.604,436.037 3337.878,430.932 3331.087,425.906 3324.244,420.966 
				3317.334,416.103 3310.049,411.105 3305.945,408.396 3301.523,405.607 3297.026,402.913 3292.473,400.321 3287.861,397.83 
				3283.192,395.444 3278.48,393.166 3276.303,392.172 3269.244,387.95 3258.926,382.143 3249.211,377.025 3239.059,372.03 
				3221.379,363.799 3203.113,355.614 3185.52,348.042 3167.506,340.599 3166.066,340.029 3164.839,339.594 3081.029,311.496 
				3060.335,321.633 3056.744,323.303 3053.107,324.905 3049.453,326.428 3045.77,327.875 3042.041,329.252 3038.305,330.548 
				3034.533,331.771 3030.917,332.861 3027.286,333.874 3023.631,334.81 3019.961,335.669 3016.275,336.45 3012.566,337.156 
				3008.848,337.782 3005.146,338.326 2999.289,339.057 2993.348,339.696 2987.359,340.236 2981.4,340.672 2975.435,341.007 
				2969.494,341.237 2963.656,341.364 2923.672,341.324 2890.044,341.323 2883.871,341.281 2877.908,341.14 2871.963,340.896 
				2866.006,340.55 2860.042,340.101 2854.057,339.547 2848.12,338.897 2842.26,338.152 2838.572,337.603 2834.834,336.964 
				2831.145,336.255 2827.445,335.463 2823.793,334.6 2820.136,333.654 2816.502,332.632 2812.876,331.531 2809.131,330.308 
				2805.387,329.001 2801.664,327.616 2797.975,326.157 2794.323,324.627 2790.7,323.022 2787.115,321.346 2766.438,311.161 
				2682.559,339.082 2681.33,339.516 2680.122,339.988 2662.488,347.225 2644.452,354.936 2626.581,362.89 2608.289,371.353 
				2598.558,376.107 2588.404,381.421 2578.471,386.977 2571.011,391.411 2569.196,392.231 2564.481,394.487 2559.805,396.855 
				2555.188,399.325 2550.623,401.898 2546.113,404.576 2541.936,407.186 2540.879,407.867 2530.375,414.941 2523.445,419.79 
				2516.578,424.717 2509.777,429.72 2503.034,434.805 2496.352,439.972 2489.734,445.216 2482.967,450.713 2481.881,451.631 
				2480.826,452.589 2469.414,463.379 2457.871,474.705 2446.639,486.15 2435.516,497.906 2434.619,498.888 2433.768,499.887 
				2427.658,507.315 2421.194,515.657 2415.072,524.065 2410.154,531.231 2409.207,532.43 2405.23,537.718 2403.055,540.804 
				2401.602,542.874 2401.135,543.553 2397.954,548.435 2397.498,549.15 2387.281,566.195 2378.633,581.046 2370.287,595.751 
				2361.754,611.182 2349.15,635.551 2336.83,659.87 2327.228,679.268 2317.793,698.833 2309.906,715.116 2301.917,731.036 
				2293.706,746.839 2285.287,762.5 2277.807,775.927 2270.125,789.206 2262.236,802.352 2244.572,830.736 2256.453,893.159 
				2264.67,938.065 2270.872,973.386 2272.566,983.033 2280.141,1028.051 2287.398,1073.142 2294.332,1118.269 2300.944,1163.452 
				2307.234,1208.672 2313.199,1253.919 2318.848,1299.25 2324.168,1344.582 2329.168,1389.98 2333.844,1435.392 2338.195,1480.832 
				2342.229,1526.361 2345.867,1571.074 2346.398,1584.156 2347.301,1598.517 2347.358,1599.344 2348.05,1606.406 
				2348.172,1607.518 2348.271,1608.256 2348.918,1612.647 2352.371,1682.742 2355.797,1755.016 2358.365,1811.665 
				2360.787,1868.169 2362.186,1910.61 2363.33,1953.214 2364.214,1995.745 2364.838,2038.31 2365.206,2080.935 2365.312,2123.466 
				2365.16,2166.046 2364.306,2254.521 2362.407,2356.599 2427.632,2370.14 2457.637,2376.526 2487.547,2383.056 2517.423,2389.735 
				2532.1,2393.136 2546.717,2396.675 2561.267,2400.356 2576.361,2404.337 2578.428,2404.835 2580.512,2405.243 2599.371,2408.528 
				2618.719,2411.64 2638.111,2414.493 2657.719,2417.112 2678.365,2419.599 2699.188,2421.849 2720.042,2423.839 
				2740.917,2425.571 2742.182,2425.665 2743.146,2425.712 2813.432,2428.358 2814.306,2428.386 2878.983,2428.819 
				2923.332,2428.976 2967.464,2428.819 3031.173,2428.397 3032.053,2428.386 3102.892,2425.726 3104.178,2425.665 
				3105.143,2425.595 3125.617,2423.901 3146.467,2421.919 3167.295,2419.679 3188.275,2417.159 3207.498,2414.599 
				3226.89,2411.755 3246.242,2408.653 3265.844,2405.245 3267.931,2404.837 3269.998,2404.337 3285.099,2400.354 
				3299.643,2396.677 3314.246,2393.138 3328.973,2389.728 3358.797,2383.06 3388.738,2376.524 3418.691,2370.146 
				3483.951,2356.599 3481.024,2254.543 3478.992,2183.687 3478.478,2183.687 3478.354,2167.247 3478.292,2124.671 
				3478.49,2082.093 3478.947,2039.519 3479.662,1996.944 3480.637,1954.382 3481.871,1911.823 3483.363,1869.351 
				3485.906,1812.894 3488.591,1756.245 3492.168,1683.975 3495.773,1613.875 3496.383,1609.815 3496.535,1608.718 
				3496.616,1608.005 3497.289,1601.347 3497.365,1600.551 3498.333,1585.771 3498.913,1572.31 3502.652,1527.542 
				3506.774,1482.103 3511.227,1436.637 3515.996,1391.259 3521.098,1345.841 3526.513,1300.53 3532.252,1255.251 3538.32,1209.977 
				3544.707,1164.753 3551.411,1119.625 3558.446,1074.483 3565.795,1029.439 3573.465,984.436 3575.429,973.387 3581.465,939.437 
				3589.768,894.598 3601.785,832.18 			"/>
		</defs>
		<clipPath id="SVGID_2_">
			<use xlink:href="#SVGID_1_"  style="overflow:visible;"/>
		</clipPath>
		<g style="clip-path:url(#SVGID_2_);">
			<g>
				<polygon style="fill:#FFFFFF;" points="2472.327,716.662 2353.197,895.358 2393.283,895.358 2512.413,716.662 				"/>
				<polygon style="fill:#FFFFFF;" points="2426.231,716.662 2307.101,895.358 2347.188,895.358 2466.318,716.662 				"/>
				<polygon style="fill:#FFFFFF;" points="2380.137,716.662 2261.006,895.358 2301.092,895.358 2420.222,716.662 				"/>
				<polygon style="fill:#FFFFFF;" points="2149.66,716.662 2070.411,835.536 2070.411,895.358 2070.616,895.358 2189.746,716.662 
									"/>
				<polygon style="fill:#FFFFFF;" points="2334.041,716.662 2214.911,895.358 2254.997,895.358 2374.127,716.662 				"/>
				<polygon style="fill:#FFFFFF;" points="2241.851,716.662 2122.72,895.358 2162.806,895.358 2281.937,716.662 				"/>
				<polygon style="fill:#FFFFFF;" points="2195.755,716.662 2076.625,895.358 2116.711,895.358 2235.841,716.662 				"/>
				<polygon style="fill:#FFFFFF;" points="2518.422,716.662 2399.292,895.358 2439.378,895.358 2558.508,716.662 				"/>
				<polygon style="fill:#FFFFFF;" points="2287.945,716.662 2168.815,895.358 2208.901,895.358 2328.032,716.662 				"/>
				<polygon style="fill:#FFFFFF;" points="2485.473,895.358 2604.604,716.662 2564.518,716.662 2445.387,895.358 				"/>
				<polygon style="fill:#FFFFFF;" points="2854.235,895.358 2930.238,781.354 2973.365,716.662 2933.279,716.662 2930.238,721.225 
					2814.149,895.358 				"/>
				<polygon style="fill:#FFFFFF;" points="2860.244,895.358 2900.33,895.358 2930.238,850.497 3019.46,716.662 2979.374,716.662 
					2930.238,790.368 				"/>
				<polygon style="fill:#FFFFFF;" points="2906.339,895.358 2946.425,895.358 2946.971,894.539 3065.556,716.662 3025.47,716.662 
					2930.238,859.51 				"/>
				<polygon style="fill:#FFFFFF;" points="2952.435,895.358 2992.521,895.358 2993.066,894.539 3111.651,716.662 3071.564,716.662 
					2952.98,894.539 				"/>
				<polygon style="fill:#FFFFFF;" points="2669.854,895.358 2788.984,716.662 2748.898,716.662 2629.768,895.358 				"/>
				<polygon style="fill:#FFFFFF;" points="2715.949,895.358 2835.08,716.662 2794.993,716.662 2675.863,895.358 				"/>
				<polygon style="fill:#FFFFFF;" points="2762.044,895.358 2881.175,716.662 2841.089,716.662 2721.958,895.358 				"/>
				<polygon style="fill:#FFFFFF;" points="2808.14,895.358 2927.27,716.662 2887.184,716.662 2768.054,895.358 				"/>
				<polygon style="fill:#FFFFFF;" points="2998.53,895.358 3035.238,895.358 3035.787,894.539 3155.238,716.662 3117.66,716.662 
					2999.075,894.539 				"/>
				<polygon style="fill:#FFFFFF;" points="2531.568,895.358 2650.699,716.662 2610.612,716.662 2491.482,895.358 				"/>
				<polygon style="fill:#FFFFFF;" points="2070.411,716.662 2070.411,826.522 2143.651,716.662 				"/>
				<polygon style="fill:#FFFFFF;" points="2577.664,895.358 2696.794,716.662 2656.708,716.662 2537.578,895.358 				"/>
				<polygon style="fill:#FFFFFF;" points="2623.759,895.358 2742.889,716.662 2702.803,716.662 2583.673,895.358 				"/>
				<polygon style="fill:#FFFFFF;" points="3048.002,2538.364 3758.673,1472.358 3793.17,1472.358 3793.17,1412.793 
					3201.525,1412.793 3161.525,1472.358 3199.521,1472.358 2856.854,1986.358 2856.771,1986.358 2442.765,2607.367 
					2448.773,2607.367 2494.775,2538.364 2494.859,2538.364 3205.53,1472.358 3205.53,1472.358 3245.616,1472.358 
					2902.949,1986.358 2902.866,1986.358 2488.86,2607.367 2494.869,2607.367 2540.871,2538.364 2540.955,2538.364 
					3251.625,1472.358 3291.711,1472.358 2949.044,1986.358 2948.961,1986.358 2534.955,2607.367 2540.964,2607.367 
					2586.966,2538.364 2587.049,2538.364 3297.72,1472.358 3297.721,1472.358 3337.806,1472.358 2995.14,1986.358 
					2995.056,1986.358 2581.051,2607.367 2587.06,2607.367 2633.062,2538.364 2633.145,2538.364 3343.815,1472.358 
					3383.902,1472.358 3041.235,1986.358 3041.152,1986.358 2627.146,2607.367 2633.154,2607.367 2679.156,2538.364 
					2679.24,2538.364 3389.911,1472.358 3389.911,1472.358 3429.998,1472.358 3087.331,1986.358 3087.248,1986.358 
					2673.241,2607.367 2679.25,2607.367 2725.252,2538.364 2725.335,2538.364 3436.006,1472.358 3436.007,1472.358 
					3476.092,1472.358 3133.425,1986.358 3133.342,1986.358 2719.336,2607.367 2725.345,2607.367 2771.347,2538.364 
					2771.43,2538.364 3482.101,1472.358 3482.102,1472.358 3522.188,1472.358 3179.521,1986.358 3179.438,1986.358 
					2765.432,2607.367 2771.44,2607.367 2817.442,2538.364 2817.526,2538.364 3528.197,1472.358 3528.197,1472.358 
					3568.283,1472.358 3225.616,1986.358 3225.533,1986.358 2811.527,2607.367 2817.536,2607.367 2863.538,2538.364 
					2863.622,2538.364 3574.292,1472.358 3614.378,1472.358 3271.711,1986.358 3271.628,1986.358 2857.622,2607.367 
					2863.631,2607.367 2909.633,2538.364 2909.716,2538.364 3620.387,1472.358 3620.388,1472.358 3660.473,1472.358 
					3317.807,1986.358 3317.723,1986.358 2903.718,2607.367 2909.727,2607.367 2955.729,2538.364 2955.812,2538.364 
					3666.482,1472.358 3706.569,1472.358 3363.902,1986.358 3363.819,1986.358 2949.812,2607.367 2955.821,2607.367 
					3001.823,2538.364 3001.907,2538.364 3712.578,1472.358 3712.578,1472.358 3752.664,1472.358 3409.997,1986.358 
					3409.914,1986.358 2995.908,2607.367 3001.917,2607.367 3047.919,2538.364 				"/>
				<polygon style="fill:#FFFFFF;" points="3456.092,1986.358 3456.009,1986.358 3042.003,2607.367 3048.012,2607.367 
					3094.014,2538.364 3094.097,2538.364 3794.099,1488.362 3794.099,1479.349 				"/>
				<polygon style="fill:#FFFFFF;" points="3502.104,1986.358 3088.099,2607.367 3094.107,2607.367 3140.109,2538.364 
					3140.193,2538.364 3794.099,1557.505 3794.099,1548.491 3502.188,1986.358 				"/>
				<polygon style="fill:#FFFFFF;" points="3524.837,2021.401 3134.193,2607.367 3140.202,2607.367 3186.204,2538.364 
					3186.288,2538.364 3794.099,1626.648 3794.099,1617.634 3524.837,2021.526 				"/>
				<polygon style="fill:#FFFFFF;" points="3524.837,2090.543 3180.289,2607.367 3186.298,2607.367 3232.3,2538.364 
					3232.383,2538.364 3794.099,1695.79 3794.099,1686.776 3524.837,2090.668 				"/>
				<polygon style="fill:#FFFFFF;" points="3524.837,2159.686 3226.384,2607.367 3232.393,2607.367 3278.395,2538.364 
					3278.478,2538.364 3794.099,1764.933 3794.099,1755.92 3524.837,2159.811 				"/>
				<polygon style="fill:#FFFFFF;" points="3524.837,2228.829 3272.479,2607.367 3278.488,2607.367 3324.49,2538.364 
					3324.574,2538.364 3794.099,1834.076 3794.099,1825.062 3524.837,2228.954 				"/>
				<polygon style="fill:#FFFFFF;" points="3524.837,2297.972 3318.574,2607.367 3324.583,2607.367 3370.585,2538.364 
					3370.668,2538.364 3794.099,1903.219 3794.099,1894.205 3524.837,2298.097 				"/>
				<polygon style="fill:#FFFFFF;" points="3524.837,2367.115 3364.669,2607.367 3370.679,2607.367 3416.681,2538.364 
					3416.764,2538.364 3794.099,1972.361 3794.099,1963.348 3524.837,2367.24 				"/>
				<polygon style="fill:#FFFFFF;" points="3524.837,2436.258 3410.765,2607.367 3416.773,2607.367 3462.775,2538.364 
					3462.859,2538.364 3794.099,2041.504 3794.099,2032.491 3524.837,2436.382 				"/>
				<polygon style="fill:#FFFFFF;" points="3462.868,2607.367 3508.87,2538.364 3508.954,2538.364 3794.099,2110.646 
					3794.099,2101.508 3456.859,2607.367 				"/>
				<polygon style="fill:#FFFFFF;" points="3508.964,2607.367 3554.966,2538.364 3555.049,2538.364 3794.099,2179.79 
					3794.099,2170.65 3502.955,2607.367 				"/>
				<polygon style="fill:#FFFFFF;" points="3555.059,2607.367 3601.061,2538.364 3601.144,2538.364 3794.099,2248.932 
					3794.099,2239.793 3549.05,2607.367 				"/>
				<polygon style="fill:#FFFFFF;" points="3601.154,2607.367 3647.156,2538.364 3647.24,2538.364 3794.099,2318.075 
					3794.099,2308.936 3595.145,2607.367 				"/>
				<polygon style="fill:#FFFFFF;" points="3647.249,2607.367 3693.251,2538.364 3693.334,2538.364 3794.099,2387.218 
					3794.099,2378.079 3641.24,2607.367 				"/>
				<polygon style="fill:#FFFFFF;" points="3693.345,2607.367 3739.347,2538.364 3739.43,2538.364 3794.099,2456.361 
					3794.099,2447.222 3687.335,2607.367 				"/>
				<polygon style="fill:#FFFFFF;" points="3739.439,2607.367 3785.441,2538.364 3785.525,2538.364 3794.099,2525.503 
					3794.099,2516.365 3733.431,2607.367 				"/>
			</g>
		</g>
	</g>
	<g>
		<defs>
			<polygon id="SVGID_3_" points="2882.143,3174.176 2324.788,3174.223 2325.549,3085.77 2325.656,3043.199 2325.504,3000.605 
				2325.092,2958.035 2324.422,2915.447 2323.492,2872.887 2322.303,2830.342 2320.857,2787.879 2318.373,2731.375 
				2315.749,2674.727 2312.245,2602.459 2304.213,2462.678 3460.078,2462.678 3452.046,2602.479 3448.542,2674.752 
				3445.918,2731.402 3443.435,2787.854 3441.99,2830.355 3440.8,2872.891 3439.871,2915.445 3439.2,2958.039 3438.788,3000.605 
				3438.635,3043.199 3438.743,3085.77 3439.504,3174.223 			"/>
		</defs>
		<clipPath id="SVGID_4_">
			<use xlink:href="#SVGID_3_"  style="overflow:visible;"/>
		</clipPath>
		<g style="clip-path:url(#SVGID_4_);">
			<g>
				<g>
					<polygon style="fill:#FFFFFF;" points="2430.807,1636.342 2311.676,1815.037 2351.762,1815.037 2470.893,1636.342 					"/>
					<polygon style="fill:#FFFFFF;" points="2384.711,1636.342 2265.581,1815.037 2305.667,1815.037 2424.797,1636.342 					"/>
					<polygon style="fill:#FFFFFF;" points="2338.616,1636.342 2219.486,1815.037 2259.571,1815.037 2378.702,1636.342 					"/>
					<polygon style="fill:#FFFFFF;" points="2108.14,1636.342 2028.891,1755.215 2028.891,1815.037 2029.095,1815.037 
						2148.226,1636.342 					"/>
					<polygon style="fill:#FFFFFF;" points="2292.521,1636.342 2173.39,1815.037 2213.477,1815.037 2332.607,1636.342 					"/>
					<polygon style="fill:#FFFFFF;" points="2200.33,1636.342 2081.2,1815.037 2121.286,1815.037 2240.416,1636.342 					"/>
					<polygon style="fill:#FFFFFF;" points="2154.234,1636.342 2035.104,1815.037 2075.191,1815.037 2194.321,1636.342 					"/>
					<polygon style="fill:#FFFFFF;" points="2476.901,1636.342 2357.771,1815.037 2397.857,1815.037 2516.988,1636.342 					"/>
					<polygon style="fill:#FFFFFF;" points="2246.425,1636.342 2127.295,1815.037 2167.381,1815.037 2286.511,1636.342 					"/>
					<polygon style="fill:#FFFFFF;" points="2443.953,1815.037 2563.083,1636.342 2522.997,1636.342 2403.867,1815.037 					"/>
					<polygon style="fill:#FFFFFF;" points="2812.714,1815.037 2888.717,1701.033 2931.845,1636.342 2891.759,1636.342 
						2888.717,1640.905 2772.628,1815.037 					"/>
					<polygon style="fill:#FFFFFF;" points="2818.724,1815.037 2858.81,1815.037 2888.717,1770.177 2977.94,1636.342 
						2937.854,1636.342 2888.717,1710.047 					"/>
					<polygon style="fill:#FFFFFF;" points="2864.819,1815.037 2904.905,1815.037 2905.451,1814.219 3024.035,1636.342 
						2983.949,1636.342 2888.717,1779.19 					"/>
					<polygon style="fill:#FFFFFF;" points="2910.914,1815.037 2951,1815.037 2951.546,1814.219 3070.13,1636.342 
						3030.044,1636.342 2911.459,1814.219 					"/>
					<polygon style="fill:#FFFFFF;" points="2628.333,1815.037 2747.464,1636.342 2707.378,1636.342 2588.248,1815.037 					"/>
					<polygon style="fill:#FFFFFF;" points="2674.429,1815.037 2793.559,1636.342 2753.473,1636.342 2634.343,1815.037 					"/>
					<polygon style="fill:#FFFFFF;" points="2720.524,1815.037 2839.654,1636.342 2799.568,1636.342 2680.438,1815.037 					"/>
					<polygon style="fill:#FFFFFF;" points="2766.619,1815.037 2885.75,1636.342 2845.663,1636.342 2726.533,1815.037 					"/>
					<polygon style="fill:#FFFFFF;" points="2957.009,1815.037 2993.717,1815.037 2994.267,1814.219 3113.717,1636.342 
						3076.14,1636.342 2957.555,1814.219 					"/>
					<polygon style="fill:#FFFFFF;" points="2490.048,1815.037 2609.178,1636.342 2569.092,1636.342 2449.962,1815.037 					"/>
					<polygon style="fill:#FFFFFF;" points="2028.891,1636.342 2028.891,1746.202 2102.13,1636.342 					"/>
					<polygon style="fill:#FFFFFF;" points="2536.143,1815.037 2655.273,1636.342 2615.188,1636.342 2496.057,1815.037 					"/>
					<polygon style="fill:#FFFFFF;" points="2582.238,1815.037 2701.369,1636.342 2661.282,1636.342 2542.152,1815.037 					"/>
					<polygon style="fill:#FFFFFF;" points="3006.482,3458.044 3717.152,2392.038 3751.649,2392.038 3751.649,2332.472 
						3160.005,2332.472 3120.005,2392.038 3158,2392.038 2815.333,2906.038 2815.25,2906.038 2401.244,3527.046 2407.253,3527.046 
						2453.255,3458.044 2453.338,3458.044 3164.009,2392.038 3164.01,2392.038 3204.095,2392.038 2861.429,2906.038 
						2861.345,2906.038 2447.34,3527.046 2453.349,3527.046 2499.351,3458.044 2499.434,3458.044 3210.104,2392.038 
						3250.191,2392.038 2907.524,2906.038 2907.441,2906.038 2493.435,3527.046 2499.443,3527.046 2545.445,3458.044 
						2545.529,3458.044 3256.2,2392.038 3256.2,2392.038 3296.286,2392.038 2953.619,2906.038 2953.536,2906.038 2539.53,3527.046 
						2545.539,3527.046 2591.541,3458.044 2591.625,3458.044 3302.295,2392.038 3342.381,2392.038 2999.714,2906.038 
						2999.631,2906.038 2585.625,3527.046 2591.634,3527.046 2637.636,3458.044 2637.719,3458.044 3348.39,2392.038 
						3348.391,2392.038 3388.477,2392.038 3045.81,2906.038 3045.727,2906.038 2631.721,3527.046 2637.729,3527.046 
						2683.731,3458.044 2683.815,3458.044 3394.486,2392.038 3394.486,2392.038 3434.572,2392.038 3091.905,2906.038 
						3091.822,2906.038 2677.815,3527.046 2683.824,3527.046 2729.826,3458.044 2729.91,3458.044 3440.581,2392.038 
						3440.581,2392.038 3480.667,2392.038 3138,2906.038 3137.917,2906.038 2723.911,3527.046 2729.92,3527.046 2775.922,3458.044 
						2776.005,3458.044 3486.676,2392.038 3486.677,2392.038 3526.762,2392.038 3184.096,2906.038 3184.012,2906.038 
						2770.007,3527.046 2776.016,3527.046 2822.018,3458.044 2822.101,3458.044 3532.771,2392.038 3572.858,2392.038 
						3230.191,2906.038 3230.108,2906.038 2816.102,3527.046 2822.11,3527.046 2868.112,3458.044 2868.196,3458.044 
						3578.867,2392.038 3578.867,2392.038 3618.953,2392.038 3276.286,2906.038 3276.203,2906.038 2862.197,3527.046 
						2868.206,3527.046 2914.208,3458.044 2914.292,3458.044 3624.962,2392.038 3665.048,2392.038 3322.381,2906.038 
						3322.298,2906.038 2908.292,3527.046 2914.301,3527.046 2960.303,3458.044 2960.386,3458.044 3671.057,2392.038 
						3671.058,2392.038 3711.143,2392.038 3368.477,2906.038 3368.393,2906.038 2954.388,3527.046 2960.396,3527.046 
						3006.398,3458.044 					"/>
					<polygon style="fill:#FFFFFF;" points="3414.572,2906.038 3414.489,2906.038 3000.482,3527.046 3006.491,3527.046 
						3052.493,3458.044 3052.577,3458.044 3752.578,2408.042 3752.578,2399.029 					"/>
					<polygon style="fill:#FFFFFF;" points="3460.583,2906.038 3046.578,3527.046 3052.587,3527.046 3098.589,3458.044 
						3098.672,3458.044 3752.578,2477.185 3752.578,2468.171 3460.667,2906.038 					"/>
					<polygon style="fill:#FFFFFF;" points="3483.317,2941.081 3092.673,3527.046 3098.682,3527.046 3144.684,3458.044 
						3144.767,3458.044 3752.578,2546.327 3752.578,2537.314 3483.317,2941.205 					"/>
					<polygon style="fill:#FFFFFF;" points="3483.317,3010.223 3138.768,3527.046 3144.777,3527.046 3190.779,3458.044 
						3190.863,3458.044 3752.578,2615.47 3752.578,2606.456 3483.317,3010.348 					"/>
					<polygon style="fill:#FFFFFF;" points="3483.317,3079.366 3184.863,3527.046 3190.872,3527.046 3236.874,3458.044 
						3236.958,3458.044 3752.578,2684.613 3752.578,2675.599 3483.317,3079.491 					"/>
					<polygon style="fill:#FFFFFF;" points="3483.317,3148.509 3230.958,3527.046 3236.968,3527.046 3282.97,3458.044 
						3283.053,3458.044 3752.578,2753.756 3752.578,2744.742 3483.317,3148.634 					"/>
					<polygon style="fill:#FFFFFF;" points="3483.317,3217.652 3277.054,3527.046 3283.062,3527.046 3329.064,3458.044 
						3329.148,3458.044 3752.578,2822.898 3752.578,2813.885 3483.317,3217.776 					"/>
					<polygon style="fill:#FFFFFF;" points="3483.317,3286.794 3323.149,3527.046 3329.158,3527.046 3375.16,3458.044 
						3375.244,3458.044 3752.578,2892.041 3752.578,2883.028 3483.317,3286.92 					"/>
					<polygon style="fill:#FFFFFF;" points="3483.317,3355.937 3369.244,3527.046 3375.253,3527.046 3421.255,3458.044 
						3421.338,3458.044 3752.578,2961.184 3752.578,2952.17 3483.317,3356.062 					"/>
					<polygon style="fill:#FFFFFF;" points="3421.348,3527.046 3467.35,3458.044 3467.433,3458.044 3752.578,3030.326 
						3752.578,3021.188 3415.339,3527.046 					"/>
					<polygon style="fill:#FFFFFF;" points="3467.443,3527.046 3513.445,3458.044 3513.529,3458.044 3752.578,3099.469 
						3752.578,3090.33 3461.434,3527.046 					"/>
					<polygon style="fill:#FFFFFF;" points="3513.538,3527.046 3559.54,3458.044 3559.624,3458.044 3752.578,3168.612 
						3752.578,3159.473 3507.529,3527.046 					"/>
					<polygon style="fill:#FFFFFF;" points="3559.634,3527.046 3605.636,3458.044 3605.719,3458.044 3752.578,3237.755 
						3752.578,3228.616 3553.625,3527.046 					"/>
					<polygon style="fill:#FFFFFF;" points="3605.729,3527.046 3651.73,3458.044 3651.814,3458.044 3752.578,3306.897 
						3752.578,3297.759 3599.72,3527.046 					"/>
					<polygon style="fill:#FFFFFF;" points="3651.824,3527.046 3697.826,3458.044 3697.91,3458.044 3752.578,3376.041 
						3752.578,3366.902 3645.815,3527.046 					"/>
					<polygon style="fill:#FFFFFF;" points="3697.919,3527.046 3743.921,3458.044 3744.004,3458.044 3752.578,3445.183 
						3752.578,3436.044 3691.91,3527.046 					"/>
				</g>
			</g>
		</g>
	</g>
	<g>
		<defs>
			<polygon id="SVGID_5_" points="618.784,2163.648 634.69,2160.34 650.571,2157.133 666.456,2154.018 681.516,2151.16 
				696.522,2148.404 711.55,2145.74 727.622,2142.992 742.616,2140.242 756.554,2137.859 770.501,2135.65 784.509,2133.609 
				799.981,2131.537 815.536,2129.631 831.071,2127.904 847.128,2126.299 859.901,2125.055 872.276,2123.992 884.667,2123.07 
				897.263,2122.279 934.379,2120.236 971.802,2118.332 1009.112,2116.586 1045.314,2115.043 1135.793,2113.436 1135.792,426.156 
				1087.641,421.984 1082.305,421.448 1076.588,420.681 1074.416,420.335 1066.487,418.79 1058.258,417.02 1050.148,415.107 
				1042.179,413.06 1037.881,411.842 1033.841,410.542 1029.893,409.118 1026.753,407.857 1024.812,406.913 1022.043,405.469 
				1019.302,403.941 1016.604,402.339 1013.972,400.675 1011.38,398.932 1008.841,397.12 1006.44,395.306 1002.814,392.372 
				998.964,389.15 995.155,385.852 991.415,382.502 987.722,379.082 984.09,375.603 980.527,372.074 977.002,368.463 
				973.308,364.556 969.671,360.583 966.094,356.547 962.586,352.463 959.138,348.316 955.763,344.125 952.457,339.883 
				930.796,311.161 892.647,320.936 883.801,323.298 874.979,325.745 866.278,328.25 856.346,331.209 846.518,334.23 
				836.717,337.335 826.972,340.515 826.343,340.729 825.399,341.074 813.446,345.576 801.671,350.204 789.546,355.171 
				777.886,360.14 777.169,360.454 776.151,360.936 770.845,363.516 765.472,366.317 759.589,369.607 754.983,372.348 
				744.659,378.344 733.997,384.885 727.505,389.165 726.997,389.509 726.229,390.052 720.118,394.466 719.405,395.012 
				709.487,402.764 699.659,410.892 689.778,419.549 680.733,427.931 679.507,429.12 678.335,430.363 669.196,440.495 
				660.477,450.426 651.661,460.74 634.641,481.21 634.071,481.945 629.446,487.989 625.339,493.725 622.347,497.913 
				616.964,505.869 611.808,513.845 606.866,521.863 600.81,532.179 593.761,544.564 586.88,557.05 580.231,569.501 
				576.923,575.854 546.134,636.27 541.534,645.799 537.181,654.272 532.511,662.833 524.688,676.434 522.141,680.747 
				519.583,684.932 516.946,689.102 514.263,693.201 511.491,697.297 508.784,701.17 502.977,709.083 500.327,712.514 
				497.503,716.048 494.61,719.548 491.677,722.983 488.679,726.381 485.63,729.722 484.046,731.403 483.477,731.882 
				481.632,733.304 479.729,734.637 477.69,735.933 474.558,737.75 471.278,739.495 467.934,741.123 431.036,757.449 
				445.153,834.035 452.481,875.353 459.52,916.674 466.284,958.059 472.77,999.509 478.97,1040.958 484.891,1082.474 
				490.54,1124.067 495.893,1165.603 500.977,1207.271 505.768,1248.895 510.288,1290.618 514.518,1332.301 518.47,1374.078 
				522.14,1415.859 525.524,1457.625 528.339,1495.74 530.868,1533.825 533.116,1571.947 535.081,1610.086 536.763,1648.252 
				538.163,1686.412 539.278,1724.578 540.112,1762.783 540.661,1800.928 540.927,1839.141 540.909,1877.324 540.61,1915.537 
				540.026,1953.683 539.159,1991.885 538.009,2030.049 532.298,2182.16 			"/>
		</defs>
		<clipPath id="SVGID_6_">
			<use xlink:href="#SVGID_5_"  style="overflow:visible;"/>
		</clipPath>
		<g style="clip-path:url(#SVGID_6_);">
			<g>
				<polygon style="fill:#FFFFFF;" points="1688.627,2269.691 1876.529,1987.838 1876.529,1927.708 1648.541,2269.691 				"/>
				<polygon style="fill:#FFFFFF;" points="1642.531,2269.691 1876.529,1918.695 1876.529,1858.565 1602.445,2269.691 				"/>
				<polygon style="fill:#FFFFFF;" points="1876.529,2269.691 1876.529,2065.994 1740.731,2269.691 				"/>
				<polygon style="fill:#FFFFFF;" points="1734.722,2269.691 1876.529,2056.98 1876.529,1996.851 1694.636,2269.691 				"/>
				<polygon style="fill:#FFFFFF;" points="1233.683,2269.691 1273.77,2269.691 1876.529,1365.552 1876.529,1349.659 
					1847.038,1349.659 				"/>
				<polygon style="fill:#FFFFFF;" points="1365.96,2269.691 1876.529,1503.838 1876.529,1443.708 1325.874,2269.691 				"/>
				<polygon style="fill:#FFFFFF;" points="1616.561,1349.659 1003.207,2269.691 1043.293,2269.691 1656.647,1349.659 				"/>
				<polygon style="fill:#FFFFFF;" points="1570.466,1349.659 957.112,2269.691 997.198,2269.691 1610.552,1349.659 				"/>
				<polygon style="fill:#FFFFFF;" points="1478.276,1349.659 864.922,2269.691 905.008,2269.691 1518.362,1349.659 				"/>
				<polygon style="fill:#FFFFFF;" points="1524.371,1349.659 911.017,2269.691 951.103,2269.691 1564.457,1349.659 				"/>
				<polygon style="fill:#FFFFFF;" points="1432.18,1349.659 818.826,2269.691 858.912,2269.691 1472.267,1349.659 				"/>
				<polygon style="fill:#FFFFFF;" points="1800.943,1349.659 1187.588,2269.691 1227.674,2269.691 1841.029,1349.659 				"/>
				<polygon style="fill:#FFFFFF;" points="1662.656,1349.659 1049.302,2269.691 1089.388,2269.691 1702.743,1349.659 				"/>
				<polygon style="fill:#FFFFFF;" points="1596.436,2269.691 1876.529,1849.552 1876.529,1789.423 1556.35,2269.691 				"/>
				<polygon style="fill:#FFFFFF;" points="1708.752,1349.659 1095.398,2269.691 1135.484,2269.691 1748.838,1349.659 				"/>
				<polygon style="fill:#FFFFFF;" points="1754.847,1349.659 1141.493,2269.691 1181.579,2269.691 1794.933,1349.659 				"/>
				<polygon style="fill:#FFFFFF;" points="1319.865,2269.691 1876.529,1434.695 1876.529,1374.566 1279.779,2269.691 				"/>
				<polygon style="fill:#FFFFFF;" points="1504.246,2269.691 1876.529,1711.266 1876.529,1651.137 1464.16,2269.691 				"/>
				<polygon style="fill:#FFFFFF;" points="1342.081,1349.659 728.727,2269.691 766.722,2269.691 1380.076,1349.659 				"/>
				<polygon style="fill:#FFFFFF;" points="1458.151,2269.691 1876.529,1642.123 1876.529,1581.994 1418.065,2269.691 				"/>
				<polygon style="fill:#FFFFFF;" points="1412.055,2269.691 1876.529,1572.98 1876.529,1512.851 1371.969,2269.691 				"/>
				<polygon style="fill:#FFFFFF;" points="1386.085,1349.659 772.731,2269.691 812.817,2269.691 1426.171,1349.659 				"/>
				<polygon style="fill:#FFFFFF;" points="1550.341,2269.691 1876.529,1780.409 1876.529,1720.28 1510.255,2269.691 				"/>
				<polygon style="fill:#FFFFFF;" points="370.302,593.964 351.057,622.831 351.057,631.844 376.311,593.964 				"/>
				<polygon style="fill:#FFFFFF;" points="416.397,593.964 351.057,691.973 351.057,700.987 422.406,593.964 				"/>
				<polygon style="fill:#FFFFFF;" points="462.492,593.964 351.057,761.116 351.057,770.13 468.501,593.964 				"/>
				<polygon style="fill:#FFFFFF;" points="508.587,593.964 389.457,772.659 395.466,772.659 514.596,593.964 				"/>
				<polygon style="fill:#FFFFFF;" points="554.682,593.964 435.552,772.659 441.561,772.659 560.691,593.964 				"/>
				<polygon style="fill:#FFFFFF;" points="600.778,593.964 481.648,772.659 487.657,772.659 606.787,593.964 				"/>
				<polygon style="fill:#FFFFFF;" points="646.873,593.964 527.743,772.659 533.752,772.659 652.882,593.964 				"/>
				<polygon style="fill:#FFFFFF;" points="692.968,593.964 573.838,772.659 579.847,772.659 698.977,593.964 				"/>
				<polygon style="fill:#FFFFFF;" points="739.064,593.964 619.933,772.659 625.943,772.659 745.073,593.964 				"/>
				<polygon style="fill:#FFFFFF;" points="785.159,593.964 666.029,772.659 672.038,772.659 791.168,593.964 				"/>
				<polygon style="fill:#FFFFFF;" points="831.254,593.964 712.124,772.659 718.133,772.659 837.263,593.964 				"/>
				<polygon style="fill:#FFFFFF;" points="877.349,593.964 758.219,772.659 764.228,772.659 883.358,593.964 				"/>
				<polygon style="fill:#FFFFFF;" points="923.445,593.964 804.315,772.659 810.324,772.659 929.454,593.964 				"/>
				<polygon style="fill:#FFFFFF;" points="969.54,593.964 850.41,772.659 856.419,772.659 975.549,593.964 				"/>
				<polygon style="fill:#FFFFFF;" points="1015.635,593.964 896.505,772.659 902.514,772.659 1021.644,593.964 				"/>
				<polygon style="fill:#FFFFFF;" points="1061.73,593.964 942.6,772.659 948.609,772.659 1067.739,593.964 				"/>
				<polygon style="fill:#FFFFFF;" points="988.695,772.659 994.704,772.659 1113.835,593.964 1113.793,593.964 1107.826,593.964 
									"/>
				<polygon style="fill:#FFFFFF;" points="1040.8,772.659 1159.93,593.964 1153.921,593.964 1034.791,772.659 				"/>
				<polygon style="fill:#FFFFFF;" points="1086.895,772.659 1206.025,593.964 1200.016,593.964 1080.886,772.659 				"/>
				<polygon style="fill:#FFFFFF;" points="1132.99,772.659 1252.12,593.964 1246.111,593.964 1126.981,772.659 				"/>
				<polygon style="fill:#FFFFFF;" points="1179.085,772.659 1298.215,593.964 1292.206,593.964 1173.076,772.659 				"/>
			</g>
		</g>
	</g>
	<g>
		<defs>
			<polygon id="SVGID_7_" points="1674.768,2163.648 1658.861,2160.34 1642.98,2157.133 1627.096,2154.018 1612.035,2151.16 
				1597.029,2148.404 1582.002,2145.74 1565.93,2142.992 1550.936,2140.242 1536.998,2137.859 1523.051,2135.65 1509.043,2133.609 
				1493.57,2131.537 1478.016,2129.631 1462.48,2127.904 1446.424,2126.299 1433.65,2125.055 1421.275,2123.992 1408.885,2123.07 
				1396.289,2122.279 1359.173,2120.236 1321.75,2118.332 1284.44,2116.586 1248.237,2115.043 1157.759,2113.436 1157.76,426.156 
				1205.91,421.984 1211.247,421.448 1216.963,420.681 1219.135,420.335 1227.064,418.79 1235.293,417.02 1243.404,415.107 
				1251.373,413.06 1255.67,411.842 1259.71,410.542 1263.659,409.118 1266.799,407.857 1268.739,406.913 1271.509,405.469 
				1274.25,403.941 1276.948,402.339 1279.58,400.675 1282.171,398.932 1284.711,397.12 1287.111,395.306 1290.737,392.372 
				1294.588,389.15 1298.396,385.852 1302.137,382.502 1305.83,379.082 1309.461,375.603 1313.024,372.074 1316.55,368.463 
				1320.243,364.556 1323.88,360.583 1327.458,356.547 1330.966,352.463 1334.414,348.316 1337.789,344.125 1341.095,339.883 
				1362.756,311.161 1400.904,320.936 1409.751,323.298 1418.572,325.745 1427.273,328.25 1437.206,331.209 1447.033,334.23 
				1456.835,337.335 1466.58,340.515 1467.209,340.729 1468.152,341.074 1480.105,345.576 1491.881,350.204 1504.006,355.171 
				1515.666,360.14 1516.383,360.454 1517.4,360.936 1522.707,363.516 1528.08,366.317 1533.963,369.607 1538.568,372.348 
				1548.893,378.344 1559.555,384.885 1566.047,389.165 1566.555,389.509 1567.322,390.052 1573.434,394.466 1574.146,395.012 
				1584.064,402.764 1593.893,410.892 1603.773,419.549 1612.818,427.931 1614.045,429.12 1615.217,430.363 1624.355,440.495 
				1633.074,450.426 1641.891,460.74 1658.91,481.21 1659.48,481.945 1664.105,487.989 1668.213,493.725 1671.205,497.913 
				1676.588,505.869 1681.744,513.845 1686.686,521.863 1692.742,532.179 1699.791,544.564 1706.672,557.05 1713.32,569.501 
				1716.629,575.854 1747.418,636.27 1752.018,645.799 1756.371,654.272 1761.041,662.833 1768.863,676.434 1771.41,680.747 
				1773.969,684.932 1776.605,689.102 1779.289,693.201 1782.061,697.297 1784.768,701.17 1790.574,709.083 1793.225,712.514 
				1796.049,716.048 1798.941,719.548 1801.875,722.983 1804.873,726.381 1807.922,729.722 1809.506,731.403 1810.074,731.882 
				1811.92,733.304 1813.822,734.637 1815.861,735.933 1818.994,737.75 1822.273,739.495 1825.617,741.123 1862.516,757.449 
				1848.398,834.035 1841.07,875.353 1834.031,916.674 1827.268,958.059 1820.781,999.509 1814.582,1040.958 1808.66,1082.474 
				1803.012,1124.067 1797.658,1165.603 1792.574,1207.271 1787.783,1248.895 1783.264,1290.618 1779.033,1332.301 
				1775.082,1374.078 1771.412,1415.859 1768.027,1457.625 1765.213,1495.74 1762.684,1533.825 1760.436,1571.947 
				1758.471,1610.086 1756.789,1648.252 1755.389,1686.412 1754.273,1724.578 1753.439,1762.783 1752.891,1800.928 
				1752.625,1839.141 1752.643,1877.324 1752.941,1915.537 1753.525,1953.683 1754.393,1991.885 1755.543,2030.049 
				1761.254,2182.16 			"/>
		</defs>
		<clipPath id="SVGID_8_">
			<use xlink:href="#SVGID_7_"  style="overflow:visible;"/>
		</clipPath>
		<g style="clip-path:url(#SVGID_8_);">
			<g>
				<polygon style="fill:#FFFFFF;" points="1778.627,2269.691 1966.529,1987.838 1966.529,1927.708 1738.541,2269.691 				"/>
				<polygon style="fill:#FFFFFF;" points="1732.531,2269.691 1966.529,1918.695 1966.529,1858.565 1692.445,2269.691 				"/>
				<polygon style="fill:#FFFFFF;" points="1966.529,2269.691 1966.529,2065.994 1830.731,2269.691 				"/>
				<polygon style="fill:#FFFFFF;" points="1824.722,2269.691 1966.529,2056.98 1966.529,1996.851 1784.636,2269.691 				"/>
				<polygon style="fill:#FFFFFF;" points="1323.683,2269.691 1363.77,2269.691 1966.529,1365.552 1966.529,1349.659 
					1937.038,1349.659 				"/>
				<polygon style="fill:#FFFFFF;" points="1455.96,2269.691 1966.529,1503.838 1966.529,1443.708 1415.874,2269.691 				"/>
				<polygon style="fill:#FFFFFF;" points="1706.561,1349.659 1093.207,2269.691 1133.293,2269.691 1746.647,1349.659 				"/>
				<polygon style="fill:#FFFFFF;" points="1660.466,1349.659 1047.112,2269.691 1087.198,2269.691 1700.552,1349.659 				"/>
				<polygon style="fill:#FFFFFF;" points="1568.276,1349.659 954.922,2269.691 995.008,2269.691 1608.362,1349.659 				"/>
				<polygon style="fill:#FFFFFF;" points="1614.371,1349.659 1001.017,2269.691 1041.103,2269.691 1654.457,1349.659 				"/>
				<polygon style="fill:#FFFFFF;" points="1522.18,1349.659 908.826,2269.691 948.912,2269.691 1562.267,1349.659 				"/>
				<polygon style="fill:#FFFFFF;" points="1890.943,1349.659 1277.588,2269.691 1317.674,2269.691 1931.029,1349.659 				"/>
				<polygon style="fill:#FFFFFF;" points="1752.656,1349.659 1139.302,2269.691 1179.388,2269.691 1792.743,1349.659 				"/>
				<polygon style="fill:#FFFFFF;" points="1686.436,2269.691 1966.529,1849.552 1966.529,1789.423 1646.35,2269.691 				"/>
				<polygon style="fill:#FFFFFF;" points="1798.752,1349.659 1185.398,2269.691 1225.484,2269.691 1838.838,1349.659 				"/>
				<polygon style="fill:#FFFFFF;" points="1844.847,1349.659 1231.493,2269.691 1271.579,2269.691 1884.933,1349.659 				"/>
				<polygon style="fill:#FFFFFF;" points="1409.865,2269.691 1966.529,1434.695 1966.529,1374.566 1369.779,2269.691 				"/>
				<polygon style="fill:#FFFFFF;" points="1594.246,2269.691 1966.529,1711.266 1966.529,1651.137 1554.16,2269.691 				"/>
				<polygon style="fill:#FFFFFF;" points="1432.081,1349.659 818.727,2269.691 856.722,2269.691 1470.076,1349.659 				"/>
				<polygon style="fill:#FFFFFF;" points="1548.151,2269.691 1966.529,1642.123 1966.529,1581.994 1508.065,2269.691 				"/>
				<polygon style="fill:#FFFFFF;" points="1502.055,2269.691 1966.529,1572.98 1966.529,1512.851 1461.969,2269.691 				"/>
				<polygon style="fill:#FFFFFF;" points="1476.085,1349.659 862.731,2269.691 902.817,2269.691 1516.171,1349.659 				"/>
				<polygon style="fill:#FFFFFF;" points="1640.341,2269.691 1966.529,1780.409 1966.529,1720.28 1600.255,2269.691 				"/>
				<polygon style="fill:#FFFFFF;" points="460.302,593.964 441.057,622.831 441.057,631.844 466.311,593.964 				"/>
				<polygon style="fill:#FFFFFF;" points="506.397,593.964 441.057,691.973 441.057,700.987 512.406,593.964 				"/>
				<polygon style="fill:#FFFFFF;" points="552.492,593.964 441.057,761.116 441.057,770.13 558.501,593.964 				"/>
				<polygon style="fill:#FFFFFF;" points="598.587,593.964 479.457,772.659 485.466,772.659 604.596,593.964 				"/>
				<polygon style="fill:#FFFFFF;" points="644.682,593.964 525.552,772.659 531.561,772.659 650.691,593.964 				"/>
				<polygon style="fill:#FFFFFF;" points="690.778,593.964 571.648,772.659 577.657,772.659 696.787,593.964 				"/>
				<polygon style="fill:#FFFFFF;" points="736.873,593.964 617.743,772.659 623.752,772.659 742.882,593.964 				"/>
				<polygon style="fill:#FFFFFF;" points="782.968,593.964 663.838,772.659 669.847,772.659 788.977,593.964 				"/>
				<polygon style="fill:#FFFFFF;" points="829.064,593.964 709.933,772.659 715.943,772.659 835.073,593.964 				"/>
				<polygon style="fill:#FFFFFF;" points="875.159,593.964 756.029,772.659 762.038,772.659 881.168,593.964 				"/>
				<polygon style="fill:#FFFFFF;" points="921.254,593.964 802.124,772.659 808.133,772.659 927.263,593.964 				"/>
				<polygon style="fill:#FFFFFF;" points="967.349,593.964 848.219,772.659 854.228,772.659 973.358,593.964 				"/>
				<polygon style="fill:#FFFFFF;" points="1013.445,593.964 894.315,772.659 900.324,772.659 1019.454,593.964 				"/>
				<polygon style="fill:#FFFFFF;" points="1059.54,593.964 940.41,772.659 946.419,772.659 1065.549,593.964 				"/>
				<polygon style="fill:#FFFFFF;" points="1105.635,593.964 986.505,772.659 992.514,772.659 1111.644,593.964 				"/>
				<polygon style="fill:#FFFFFF;" points="1151.73,593.964 1032.6,772.659 1038.609,772.659 1157.739,593.964 				"/>
				<polygon style="fill:#FFFFFF;" points="1078.695,772.659 1084.704,772.659 1203.835,593.964 1203.793,593.964 1197.826,593.964 
									"/>
				<polygon style="fill:#FFFFFF;" points="1130.8,772.659 1249.93,593.964 1243.921,593.964 1124.791,772.659 				"/>
				<polygon style="fill:#FFFFFF;" points="1176.895,772.659 1296.025,593.964 1290.016,593.964 1170.886,772.659 				"/>
				<polygon style="fill:#FFFFFF;" points="1222.99,772.659 1342.12,593.964 1336.111,593.964 1216.981,772.659 				"/>
				<polygon style="fill:#FFFFFF;" points="1269.085,772.659 1388.215,593.964 1382.206,593.964 1263.076,772.659 				"/>
			</g>
		</g>
	</g>
</g>
</svg>
