<?xml version="1.0" encoding="iso-8859-1"?>
<!-- Generator: Adobe Illustrator 21.1.0, SVG Export Plug-In . SVG Version: 6.00 Build 0)  -->
<!DOCTYPE svg PUBLIC "-//W3C//DTD SVG 1.1//EN" "http://www.w3.org/Graphics/SVG/1.1/DTD/svg11.dtd">
<svg version="1.1" id="colorblock_x5F_4" xmlns="http://www.w3.org/2000/svg" xmlns:xlink="http://www.w3.org/1999/xlink" x="0px"
	 y="0px" viewBox="0 0 3609 3609" style="enable-background:new 0 0 3609 3609;" xml:space="preserve">
<g>
	<g>
		<defs>
			<polygon id="SVGID_1_" points="13.521,3084.223 56.717,3059.182 67.368,3052.908 77.903,3046.605 101.063,3032.426 
				113.475,3024.676 125.839,3016.854 137.403,3009.443 149.642,3000.818 162.257,2991.624 174.729,2982.227 187.024,2972.651 
				197.581,2964.14 207.965,2955.451 218.183,2946.583 228.307,2937.471 235.996,2930.352 243.389,2923.199 250.618,2915.891 
				257.793,2908.309 276.312,2888.126 294.734,2867.687 313.002,2847.05 329.981,2827.525 343.101,2809.688 356.953,2790.389 
				370.565,2770.949 383.948,2751.357 386.9,2746.927 392.852,2737.639 398.511,2728.334 404.012,2718.787 413.345,2701.877 
				419.684,2689.996 425.852,2678.047 431.846,2666.028 436.322,2656.694 440.624,2647.307 444.765,2637.841 448.683,2628.443 
				453.774,2615.389 458.727,2602.092 463.477,2588.725 468.006,2575.33 471.226,2565.231 474.227,2555.123 477.031,2544.949 
				479.685,2534.512 483.161,2520.277 486.279,2506.227 489.187,2491.691 491.629,2478.036 493.137,2464.801 494.656,2450.298 
				496.043,2435.795 497.303,2421.234 498.285,2408.797 499.132,2396.396 499.85,2384.012 504.745,2280.616 594.96,2355.377 
				603.663,2362.4 613.404,2369.984 623.21,2377.363 627.861,2380.719 632.581,2383.984 637.365,2387.154 642.235,2390.242 
				647.775,2393.611 653.417,2396.904 659.098,2400.083 664.651,2403.061 668.414,2404.946 672.337,2406.811 676.294,2408.586 
				680.299,2410.283 684.331,2411.891 688.396,2413.411 692.502,2414.85 696.696,2416.218 703.281,2418.234 709.963,2420.174 
				716.676,2422.016 723.421,2423.758 730.172,2425.395 736.965,2426.938 743.777,2428.377 784.429,2436.345 789.776,2497.713 
				789.891,2499.479 789.922,2501.254 789.754,2532.736 790.064,2544.869 790.552,2557.399 791.21,2569.928 792.037,2582.445 
				793.169,2596.832 794.472,2611.207 795.944,2625.572 797.462,2638.832 800.171,2654.225 803.256,2670.673 806.525,2687.096 
				809.928,2703.243 811.047,2708.045 812.155,2712.201 817.842,2729.975 820.155,2736.818 822.59,2743.732 825.102,2750.584 
				827.706,2757.416 830.402,2764.227 833.176,2770.98 836.028,2777.681 838.264,2782.727 840.565,2787.703 842.951,2792.65 
				845.414,2797.551 847.954,2802.406 850.576,2807.231 853.32,2812.088 863.969,2830.415 871.648,2843.111 879.635,2855.766 
				887.372,2867.524 896.64,2879.949 906.695,2893.02 916.869,2905.842 927.157,2918.415 932.932,2925.206 938.767,2931.722 
				944.606,2937.91 951.277,2944.617 953.88,2947.317 958.568,2951.977 963.373,2956.479 968.356,2960.897 980.541,2971.038 
				990.123,2978.842 999.86,2986.645 1009.57,2994.303 1015.298,2998.725 1021.018,3003.024 1026.814,3007.268 1032.592,3011.383 
				1040.811,3017.042 1049.179,3022.693 1057.608,3028.274 1066.101,3033.789 1075.712,3039.912 1085.343,3045.939 
				1095.064,3051.914 1136.089,3076.671 1031.684,3367.978 119.299,3369.01 			"/>
		</defs>
		<clipPath id="SVGID_2_">
			<use xlink:href="#SVGID_1_"  style="overflow:visible;"/>
		</clipPath>
		<g style="clip-path:url(#SVGID_2_);">
			<path style="fill:#FFFFFF;" d="M1379.645,2947.877l-2.185-2.185l1.311-1.311c-0.164-0.569-0.32-1.14-0.508-1.705
				c-4.644-14.014-15.868-24.858-30.033-29.02l-63.951-18.784l-5.819,5.819l-9-9l0.906-0.906l-12.298-3.613l-4.946-1.939
				l-8.169-3.302l-8.133-3.391l-8.075-3.468l-8.076-3.572l-7.978-3.629l-7.943-3.719l-7.355-3.541l-9.843-5.046l-9.733-5.301
				l-6.931-4l-0.425,0.426l-1.587-1.587l-0.66-0.381l-9.321-5.693l-6.563-4.267l-6.289-4.376l-6.154-4.577l-6.552-5.199
				l-9.383-7.692l-8.976-7.706l-8.792-7.899l-8.59-8.079l-8.105-7.981l-7.908-8.161l-7.722-8.349l-8.045-9.115l-10.068-11.524
				l-9.633-11.327l-9.467-11.437l-9.273-11.514l-6.879-8.813l-6.652-8.829l-6.513-8.957l-6.451-9.196l-7.928-11.646l-7.748-11.739
				l-7.599-11.881l-7.36-11.876l-5.421-9.074l-5.207-9.091l-5.034-9.168l-4.272-8.129l-5.938-12.7l-6.366-14.118l-6.185-14.232
				l-5.979-14.291l-5.753-14.301l-5.551-14.366l-5.363-14.469l-5.074-14.29l-2.337-7.006l-2.206-7.061l-2.07-7.096l-1.967-7.25
				l-2.497-9.871l-2.374-10.011l-2.255-10.175l-1.971-9.461l-3.962,3.962l-9-9l9-9l1.312,1.312l-1.54-7.393l-2.248-11.721
				l-2.099-11.812l-2.59-15.847l-0.995-7.78l-1.254-11.228l-4.527-45.594c-1.455-14.653-9.847-27.122-21.77-34.226l-0.289,0.289
				l-1.049-1.049c-6.021-3.314-12.869-5.295-20.144-5.542l-42.764-1.452l-8.043,8.043l-8.608-8.608l-32.929-1.118l-23.9-1.711
				l2.437,2.438l-9,9l-9-9l3.314-3.314l-8.522-0.61l-2.324-0.443l-2.656-0.573l-2.628-0.633l-2.601-0.694l-2.604-0.763l-2.576-0.823
				l-2.463-0.853l-1.584-0.596l-1.486-0.608l-1.472-0.65l-1.446-0.688l-1.412-0.724l-1.425-0.781l-1.159-0.68l-17.97-13.096
				l-85.81-69.894c-8.121-6.614-18.184-10.11-28.421-10.11c-3.917,0-7.86,0.513-11.729,1.557
				c-13.98,3.775-25.29,14.048-30.388,27.602L434.648,2303.1l-17.004,42.776l5.817,5.817l-9,9l-1.937-1.937l-16.25,40.877
				l-8.718,20.852l-9.058,21.001l-9.308,20.944l-9.519,20.794l-9.778,20.75l-9.98,20.587l-10.212,20.485l-10.357,20.212
				l-5.673,10.668l-5.776,10.369l-5.982,10.265l-6.18,10.146l-6.374,10.023l-6.565,9.893l-6.761,9.771l-7.604,10.548
				c-0.14,0.193-0.278,0.389-0.415,0.585l-0.654,0.938c-0.233,0.334-0.462,0.672-0.685,1.013l-0.641,0.975
				c-0.151,0.229-0.3,0.461-0.447,0.693l-4.409,6.983l-3.958,6.043l-4.072,5.998l-4.17,5.933l-4.265,5.856l-4.359,5.784
				l-4.454,5.712l-4.586,5.684l-5.619,6.751l-5.742,6.702l-5.838,6.621l-5.935,6.541l-6.029,6.456l-6.129,6.381l-6.2,6.274
				l-5.219,5.132l-5.673,5.071l-7.01,6.14l-7.056,6.056l-7.154,6.015l-7.081,5.832l-7.191,5.8l-7.163,5.661l-14.105,10.88
				l-6.094,4.572l-6.217,4.551l-6.311,4.509l-6.414,4.469l-6.436,4.374l-6.533,4.328l-5.878,3.798l-11.386,6.883l-12,6.971
				l-12.117,6.758l-12.245,6.55l-12.422,6.369l-12.539,6.156l-12.645,5.937l-12.06,5.408l-91.486,37.358
				c-12.547,5.123-22.117,15.629-26.051,28.599c-3.934,12.97-1.813,27.021,5.773,38.252l77.387,114.556l27.89,51.459l4.891,11.133
				l6.004,14.134l5.832,14.209l5.674,14.323l6.457,16.859l6.296,16.969l6.124,17.058l1.416,4.08l1.378-1.378l9,9l-5.753,5.753
				l2.391,7.37l2.505,8.268l2.325,8.261l2.223,8.544l4.193,17.18l4.052,17.426l3.72,16.823l-3.716,16.799l-3.861,16.605
				l-3.113,10.933c-3.865,13.574-1.138,28.175,7.366,39.438c8.504,11.264,21.8,17.885,35.913,17.885H1158.44
				c14.01,0,27.222-6.525,35.736-17.652c2.24-2.927,4.077-6.089,5.517-9.4l-2.233-2.233l4.578-4.578
				c1.896-7.423,1.892-15.306-0.162-22.895l-5.619-20.755l-3.379-14.134l-2.309-10.021l2.309-10.02l3.496-14.622l2.393-9.667
				l-1.307-1.307l2.167-2.167l3.359-13.569l6.162-23.529l2.802-10.274l4.25-13.687l4.678-14.447l2.693-7.882l2.928-8.036
				l5.625-14.95l5.762-14.775l5.163-12.756l7.087-16.834l3.099-7.045l3.151-6.787l3.302-6.744l4.089-7.944l4.924-9.197l5.065-9.108
				l4.377-7.584l-8.683-8.683l9-9l6.397,6.396l18.164-30.188l10.154-13.494l-7.715-7.715l9-9l6.444,6.444l50.601-67.246
				C1379.296,2973.537,1382.191,2960.409,1379.645,2947.877z M-125.54,2954.692l-9-9l9-9l9,9L-125.54,2954.692z M-89.54,3008.692
				l-9-9l9-9l9,9L-89.54,3008.692z M-53.54,3062.692l-9-9l9-9l9,9L-53.54,3062.692z M-53.54,2954.692l-9-9l9-9l9,9L-53.54,2954.692z
				 M-17.54,3116.692l-9-9l9-9l9,9L-17.54,3116.692z M-17.54,3008.692l-9-9l9-9l9,9L-17.54,3008.692z M-17.54,2900.692l-9-9l9-9l9,9
				L-17.54,2900.692z M18.46,3170.692l-9-9l9-9l9,9L18.46,3170.692z M18.46,3062.692l-9-9l9-9l9,9L18.46,3062.692z M18.46,2954.692
				l-9-9l9-9l9,9L18.46,2954.692z M54.46,3440.692l-9-9l9-9l9,9L54.46,3440.692z M54.46,3332.692l-9-9l9-9l9,9L54.46,3332.692z
				 M54.46,3224.692l-9-9l9-9l9,9L54.46,3224.692z M54.46,3116.692l-9-9l9-9l9,9L54.46,3116.692z M54.46,3008.692l-9-9l9-9l9,9
				L54.46,3008.692z M54.46,2900.692l-9-9l9-9l9,9L54.46,2900.692z M90.46,3386.692l-9-9l9-9l9,9L90.46,3386.692z M90.46,3278.692
				l-9-9l9-9l9,9L90.46,3278.692z M90.46,3170.692l-9-9l9-9l9,9L90.46,3170.692z M90.46,3062.692l-9-9l9-9l9,9L90.46,3062.692z
				 M90.46,2954.692l-9-9l9-9l9,9L90.46,2954.692z M90.46,2846.692l-9-9l9-9l9,9L90.46,2846.692z M126.46,3440.692l-9-9l9-9l9,9
				L126.46,3440.692z M126.46,3332.692l-9-9l9-9l9,9L126.46,3332.692z M126.46,3224.692l-9-9l9-9l9,9L126.46,3224.692z
				 M126.46,3116.692l-9-9l9-9l9,9L126.46,3116.692z M126.46,3008.692l-9-9l9-9l9,9L126.46,3008.692z M126.46,2900.692l-9-9l9-9l9,9
				L126.46,2900.692z M162.46,3386.692l-9-9l9-9l9,9L162.46,3386.692z M162.46,3278.692l-9-9l9-9l9,9L162.46,3278.692z
				 M162.46,3170.692l-9-9l9-9l9,9L162.46,3170.692z M162.46,3062.692l-9-9l9-9l9,9L162.46,3062.692z M162.46,2954.692l-9-9l9-9l9,9
				L162.46,2954.692z M162.46,2846.692l-9-9l9-9l9,9L162.46,2846.692z M198.46,3440.692l-9-9l9-9l9,9L198.46,3440.692z
				 M198.46,3332.692l-9-9l9-9l9,9L198.46,3332.692z M198.46,3224.692l-9-9l9-9l9,9L198.46,3224.692z M198.46,3116.692l-9-9l9-9l9,9
				L198.46,3116.692z M198.46,3008.692l-9-9l9-9l9,9L198.46,3008.692z M198.46,2900.692l-9-9l9-9l9,9L198.46,2900.692z
				 M198.46,2792.692l-9-9l9-9l9,9L198.46,2792.692z M234.46,3386.692l-9-9l9-9l9,9L234.46,3386.692z M234.46,3278.692l-9-9l9-9l9,9
				L234.46,3278.692z M234.46,3170.692l-9-9l9-9l9,9L234.46,3170.692z M234.46,3062.692l-9-9l9-9l9,9L234.46,3062.692z
				 M234.46,2954.692l-9-9l9-9l9,9L234.46,2954.692z M234.46,2846.692l-9-9l9-9l9,9L234.46,2846.692z M234.46,2738.692l-9-9l9-9l9,9
				L234.46,2738.692z M270.46,3440.692l-9-9l9-9l9,9L270.46,3440.692z M270.46,3332.692l-9-9l9-9l9,9L270.46,3332.692z
				 M270.46,3224.692l-9-9l9-9l9,9L270.46,3224.692z M270.46,3116.692l-9-9l9-9l9,9L270.46,3116.692z M270.46,3008.692l-9-9l9-9l9,9
				L270.46,3008.692z M270.46,2900.692l-9-9l9-9l9,9L270.46,2900.692z M270.46,2792.692l-9-9l9-9l9,9L270.46,2792.692z
				 M270.46,2684.692l-9-9l9-9l9,9L270.46,2684.692z M306.46,3386.692l-9-9l9-9l9,9L306.46,3386.692z M306.46,3278.692l-9-9l9-9l9,9
				L306.46,3278.692z M306.46,3170.692l-9-9l9-9l9,9L306.46,3170.692z M306.46,3062.692l-9-9l9-9l9,9L306.46,3062.692z
				 M306.46,2954.692l-9-9l9-9l9,9L306.46,2954.692z M306.46,2846.692l-9-9l9-9l9,9L306.46,2846.692z M306.46,2738.692l-9-9l9-9l9,9
				L306.46,2738.692z M306.46,2630.692l-9-9l9-9l9,9L306.46,2630.692z M342.46,3440.692l-9-9l9-9l9,9L342.46,3440.692z
				 M342.46,3332.692l-9-9l9-9l9,9L342.46,3332.692z M342.46,3224.692l-9-9l9-9l9,9L342.46,3224.692z M342.46,3116.692l-9-9l9-9l9,9
				L342.46,3116.692z M342.46,3008.692l-9-9l9-9l9,9L342.46,3008.692z M342.46,2900.692l-9-9l9-9l9,9L342.46,2900.692z
				 M342.46,2792.692l-9-9l9-9l9,9L342.46,2792.692z M342.46,2684.692l-9-9l9-9l9,9L342.46,2684.692z M342.46,2576.692l-9-9l9-9l9,9
				L342.46,2576.692z M378.46,3386.692l-9-9l9-9l9,9L378.46,3386.692z M378.46,3278.692l-9-9l9-9l9,9L378.46,3278.692z
				 M378.46,3170.692l-9-9l9-9l9,9L378.46,3170.692z M378.46,3062.692l-9-9l9-9l9,9L378.46,3062.692z M378.46,2954.692l-9-9l9-9l9,9
				L378.46,2954.692z M378.46,2846.692l-9-9l9-9l9,9L378.46,2846.692z M378.46,2738.692l-9-9l9-9l9,9L378.46,2738.692z
				 M378.46,2630.692l-9-9l9-9l9,9L378.46,2630.692z M378.46,2522.692l-9-9l9-9l9,9L378.46,2522.692z M414.46,3440.692l-9-9l9-9l9,9
				L414.46,3440.692z M414.46,3332.692l-9-9l9-9l9,9L414.46,3332.692z M414.46,3224.692l-9-9l9-9l9,9L414.46,3224.692z
				 M414.46,3116.692l-9-9l9-9l9,9L414.46,3116.692z M414.46,3008.692l-9-9l9-9l9,9L414.46,3008.692z M414.46,2900.692l-9-9l9-9l9,9
				L414.46,2900.692z M414.46,2792.692l-9-9l9-9l9,9L414.46,2792.692z M414.46,2684.692l-9-9l9-9l9,9L414.46,2684.692z
				 M414.46,2576.692l-9-9l9-9l9,9L414.46,2576.692z M414.46,2468.692l-9-9l9-9l9,9L414.46,2468.692z M450.46,3386.692l-9-9l9-9l9,9
				L450.46,3386.692z M450.46,3278.692l-9-9l9-9l9,9L450.46,3278.692z M450.46,3170.692l-9-9l9-9l9,9L450.46,3170.692z
				 M450.46,3062.692l-9-9l9-9l9,9L450.46,3062.692z M450.46,2954.692l-9-9l9-9l9,9L450.46,2954.692z M450.46,2846.692l-9-9l9-9l9,9
				L450.46,2846.692z M450.46,2738.692l-9-9l9-9l9,9L450.46,2738.692z M450.46,2630.692l-9-9l9-9l9,9L450.46,2630.692z
				 M450.46,2522.692l-9-9l9-9l9,9L450.46,2522.692z M450.46,2414.692l-9-9l9-9l9,9L450.46,2414.692z M450.46,2306.692l-9-9l9-9l9,9
				L450.46,2306.692z M486.46,3440.692l-9-9l9-9l9,9L486.46,3440.692z M486.46,3332.692l-9-9l9-9l9,9L486.46,3332.692z
				 M486.46,3224.692l-9-9l9-9l9,9L486.46,3224.692z M486.46,3116.692l-9-9l9-9l9,9L486.46,3116.692z M486.46,3008.692l-9-9l9-9l9,9
				L486.46,3008.692z M486.46,2900.692l-9-9l9-9l9,9L486.46,2900.692z M486.46,2792.692l-9-9l9-9l9,9L486.46,2792.692z
				 M486.46,2684.692l-9-9l9-9l9,9L486.46,2684.692z M486.46,2576.692l-9-9l9-9l9,9L486.46,2576.692z M486.46,2468.692l-9-9l9-9l9,9
				L486.46,2468.692z M486.46,2360.692l-9-9l9-9l9,9L486.46,2360.692z M486.46,2252.692l-9-9l9-9l9,9L486.46,2252.692z
				 M522.46,3386.692l-9-9l9-9l9,9L522.46,3386.692z M522.46,3278.692l-9-9l9-9l9,9L522.46,3278.692z M522.46,3170.692l-9-9l9-9l9,9
				L522.46,3170.692z M522.46,3062.692l-9-9l9-9l9,9L522.46,3062.692z M522.46,2954.692l-9-9l9-9l9,9L522.46,2954.692z
				 M522.46,2846.692l-9-9l9-9l9,9L522.46,2846.692z M522.46,2738.692l-9-9l9-9l9,9L522.46,2738.692z M522.46,2630.692l-9-9l9-9l9,9
				L522.46,2630.692z M522.46,2522.692l-9-9l9-9l9,9L522.46,2522.692z M522.46,2414.692l-9-9l9-9l9,9L522.46,2414.692z
				 M522.46,2306.692l-9-9l9-9l9,9L522.46,2306.692z M522.46,2198.692l-9-9l9-9l9,9L522.46,2198.692z M558.46,3440.692l-9-9l9-9l9,9
				L558.46,3440.692z M558.46,3332.692l-9-9l9-9l9,9L558.46,3332.692z M558.46,3224.692l-9-9l9-9l9,9L558.46,3224.692z
				 M558.46,3116.692l-9-9l9-9l9,9L558.46,3116.692z M558.46,3008.692l-9-9l9-9l9,9L558.46,3008.692z M558.46,2900.692l-9-9l9-9l9,9
				L558.46,2900.692z M558.46,2792.692l-9-9l9-9l9,9L558.46,2792.692z M558.46,2684.692l-9-9l9-9l9,9L558.46,2684.692z
				 M558.46,2576.692l-9-9l9-9l9,9L558.46,2576.692z M558.46,2468.692l-9-9l9-9l9,9L558.46,2468.692z M558.46,2360.692l-9-9l9-9l9,9
				L558.46,2360.692z M558.46,2252.692l-9-9l9-9l9,9L558.46,2252.692z M594.46,3386.692l-9-9l9-9l9,9L594.46,3386.692z
				 M594.46,3278.692l-9-9l9-9l9,9L594.46,3278.692z M594.46,3170.692l-9-9l9-9l9,9L594.46,3170.692z M594.46,3062.692l-9-9l9-9l9,9
				L594.46,3062.692z M594.46,2954.692l-9-9l9-9l9,9L594.46,2954.692z M594.46,2846.692l-9-9l9-9l9,9L594.46,2846.692z
				 M594.46,2738.692l-9-9l9-9l9,9L594.46,2738.692z M594.46,2630.692l-9-9l9-9l9,9L594.46,2630.692z M594.46,2522.692l-9-9l9-9l9,9
				L594.46,2522.692z M594.46,2414.692l-9-9l9-9l9,9L594.46,2414.692z M594.46,2306.692l-9-9l9-9l9,9L594.46,2306.692z
				 M594.46,2198.692l-9-9l9-9l9,9L594.46,2198.692z M630.46,3440.692l-9-9l9-9l9,9L630.46,3440.692z M630.46,3332.692l-9-9l9-9l9,9
				L630.46,3332.692z M630.46,3224.692l-9-9l9-9l9,9L630.46,3224.692z M630.46,3116.692l-9-9l9-9l9,9L630.46,3116.692z
				 M630.46,3008.692l-9-9l9-9l9,9L630.46,3008.692z M630.46,2900.692l-9-9l9-9l9,9L630.46,2900.692z M630.46,2792.692l-9-9l9-9l9,9
				L630.46,2792.692z M630.46,2684.692l-9-9l9-9l9,9L630.46,2684.692z M630.46,2576.692l-9-9l9-9l9,9L630.46,2576.692z
				 M630.46,2468.692l-9-9l9-9l9,9L630.46,2468.692z M630.46,2360.692l-9-9l9-9l9,9L630.46,2360.692z M630.46,2252.692l-9-9l9-9l9,9
				L630.46,2252.692z M666.46,3386.692l-9-9l9-9l9,9L666.46,3386.692z M666.46,3278.692l-9-9l9-9l9,9L666.46,3278.692z
				 M666.46,3170.692l-9-9l9-9l9,9L666.46,3170.692z M666.46,3062.692l-9-9l9-9l9,9L666.46,3062.692z M666.46,2954.692l-9-9l9-9l9,9
				L666.46,2954.692z M666.46,2846.692l-9-9l9-9l9,9L666.46,2846.692z M666.46,2738.692l-9-9l9-9l9,9L666.46,2738.692z
				 M666.46,2630.692l-9-9l9-9l9,9L666.46,2630.692z M666.46,2522.692l-9-9l9-9l9,9L666.46,2522.692z M666.46,2414.692l-9-9l9-9l9,9
				L666.46,2414.692z M666.46,2306.692l-9-9l9-9l9,9L666.46,2306.692z M702.46,3440.692l-9-9l9-9l9,9L702.46,3440.692z
				 M702.46,3332.692l-9-9l9-9l9,9L702.46,3332.692z M702.46,3224.692l-9-9l9-9l9,9L702.46,3224.692z M702.46,3116.692l-9-9l9-9l9,9
				L702.46,3116.692z M702.46,3008.692l-9-9l9-9l9,9L702.46,3008.692z M702.46,2900.692l-9-9l9-9l9,9L702.46,2900.692z
				 M702.46,2792.692l-9-9l9-9l9,9L702.46,2792.692z M702.46,2684.692l-9-9l9-9l9,9L702.46,2684.692z M702.46,2576.692l-9-9l9-9l9,9
				L702.46,2576.692z M702.46,2468.692l-9-9l9-9l9,9L702.46,2468.692z M702.46,2360.692l-9-9l9-9l9,9L702.46,2360.692z
				 M738.46,3386.692l-9-9l9-9l9,9L738.46,3386.692z M738.46,3278.692l-9-9l9-9l9,9L738.46,3278.692z M738.46,3170.692l-9-9l9-9l9,9
				L738.46,3170.692z M738.46,3062.692l-9-9l9-9l9,9L738.46,3062.692z M738.46,2954.692l-9-9l9-9l9,9L738.46,2954.692z
				 M738.46,2846.692l-9-9l9-9l9,9L738.46,2846.692z M738.46,2738.692l-9-9l9-9l9,9L738.46,2738.692z M738.46,2630.692l-9-9l9-9l9,9
				L738.46,2630.692z M738.46,2522.692l-9-9l9-9l9,9L738.46,2522.692z M738.46,2414.692l-9-9l9-9l9,9L738.46,2414.692z
				 M738.46,2306.692l-9-9l9-9l9,9L738.46,2306.692z M774.46,3440.692l-9-9l9-9l9,9L774.46,3440.692z M774.46,3332.692l-9-9l9-9l9,9
				L774.46,3332.692z M774.46,3224.692l-9-9l9-9l9,9L774.46,3224.692z M774.46,3116.692l-9-9l9-9l9,9L774.46,3116.692z
				 M774.46,3008.692l-9-9l9-9l9,9L774.46,3008.692z M774.46,2900.692l-9-9l9-9l9,9L774.46,2900.692z M774.46,2792.692l-9-9l9-9l9,9
				L774.46,2792.692z M774.46,2684.692l-9-9l9-9l9,9L774.46,2684.692z M774.46,2576.692l-9-9l9-9l9,9L774.46,2576.692z
				 M774.46,2468.692l-9-9l9-9l9,9L774.46,2468.692z M774.46,2360.692l-9-9l9-9l9,9L774.46,2360.692z M810.46,3386.692l-9-9l9-9l9,9
				L810.46,3386.692z M810.46,3278.692l-9-9l9-9l9,9L810.46,3278.692z M810.46,3170.692l-9-9l9-9l9,9L810.46,3170.692z
				 M810.46,3062.692l-9-9l9-9l9,9L810.46,3062.692z M810.46,2954.692l-9-9l9-9l9,9L810.46,2954.692z M810.46,2846.692l-9-9l9-9l9,9
				L810.46,2846.692z M810.46,2738.692l-9-9l9-9l9,9L810.46,2738.692z M810.46,2630.692l-9-9l9-9l9,9L810.46,2630.692z
				 M810.46,2522.692l-9-9l9-9l9,9L810.46,2522.692z M810.46,2414.692l-9-9l9-9l9,9L810.46,2414.692z M810.46,2306.692l-9-9l9-9l9,9
				L810.46,2306.692z M846.46,3440.692l-9-9l9-9l9,9L846.46,3440.692z M846.46,3332.692l-9-9l9-9l9,9L846.46,3332.692z
				 M846.46,3224.692l-9-9l9-9l9,9L846.46,3224.692z M846.46,3116.692l-9-9l9-9l9,9L846.46,3116.692z M846.46,3008.692l-9-9l9-9l9,9
				L846.46,3008.692z M846.46,2900.692l-9-9l9-9l9,9L846.46,2900.692z M846.46,2792.692l-9-9l9-9l9,9L846.46,2792.692z
				 M846.46,2684.692l-9-9l9-9l9,9L846.46,2684.692z M846.46,2576.692l-9-9l9-9l9,9L846.46,2576.692z M846.46,2468.692l-9-9l9-9l9,9
				L846.46,2468.692z M846.46,2360.692l-9-9l9-9l9,9L846.46,2360.692z M882.46,3386.692l-9-9l9-9l9,9L882.46,3386.692z
				 M882.46,3278.692l-9-9l9-9l9,9L882.46,3278.692z M882.46,3170.692l-9-9l9-9l9,9L882.46,3170.692z M882.46,3062.692l-9-9l9-9l9,9
				L882.46,3062.692z M882.46,2954.692l-9-9l9-9l9,9L882.46,2954.692z M882.46,2846.692l-9-9l9-9l9,9L882.46,2846.692z
				 M882.46,2738.692l-9-9l9-9l9,9L882.46,2738.692z M882.46,2630.692l-9-9l9-9l9,9L882.46,2630.692z M882.46,2522.692l-9-9l9-9l9,9
				L882.46,2522.692z M918.46,3440.692l-9-9l9-9l9,9L918.46,3440.692z M918.46,3332.692l-9-9l9-9l9,9L918.46,3332.692z
				 M918.46,3224.692l-9-9l9-9l9,9L918.46,3224.692z M918.46,3116.692l-9-9l9-9l9,9L918.46,3116.692z M918.46,3008.692l-9-9l9-9l9,9
				L918.46,3008.692z M918.46,2900.692l-9-9l9-9l9,9L918.46,2900.692z M918.46,2792.692l-9-9l9-9l9,9L918.46,2792.692z
				 M918.46,2684.692l-9-9l9-9l9,9L918.46,2684.692z M918.46,2576.692l-9-9l9-9l9,9L918.46,2576.692z M954.46,3386.692l-9-9l9-9l9,9
				L954.46,3386.692z M954.46,3278.692l-9-9l9-9l9,9L954.46,3278.692z M954.46,3170.692l-9-9l9-9l9,9L954.46,3170.692z
				 M954.46,3062.692l-9-9l9-9l9,9L954.46,3062.692z M954.46,2954.692l-9-9l9-9l9,9L954.46,2954.692z M954.46,2846.692l-9-9l9-9l9,9
				L954.46,2846.692z M954.46,2738.692l-9-9l9-9l9,9L954.46,2738.692z M954.46,2630.692l-9-9l9-9l9,9L954.46,2630.692z
				 M990.46,3440.692l-9-9l9-9l9,9L990.46,3440.692z M990.46,3332.692l-9-9l9-9l9,9L990.46,3332.692z M990.46,3224.692l-9-9l9-9l9,9
				L990.46,3224.692z M990.46,3116.692l-9-9l9-9l9,9L990.46,3116.692z M990.46,3008.692l-9-9l9-9l9,9L990.46,3008.692z
				 M990.46,2900.692l-9-9l9-9l9,9L990.46,2900.692z M990.46,2792.692l-9-9l9-9l9,9L990.46,2792.692z M990.46,2684.692l-9-9l9-9l9,9
				L990.46,2684.692z M1026.46,3386.692l-9-9l9-9l9,9L1026.46,3386.692z M1026.46,3278.692l-9-9l9-9l9,9L1026.46,3278.692z
				 M1026.46,3170.692l-9-9l9-9l9,9L1026.46,3170.692z M1026.46,3062.692l-9-9l9-9l9,9L1026.46,3062.692z M1026.46,2954.692l-9-9
				l9-9l9,9L1026.46,2954.692z M1026.46,2846.692l-9-9l9-9l9,9L1026.46,2846.692z M1026.46,2738.692l-9-9l9-9l9,9L1026.46,2738.692z
				 M1062.46,3440.692l-9-9l9-9l9,9L1062.46,3440.692z M1062.46,3332.692l-9-9l9-9l9,9L1062.46,3332.692z M1062.46,3224.692l-9-9
				l9-9l9,9L1062.46,3224.692z M1062.46,3116.692l-9-9l9-9l9,9L1062.46,3116.692z M1062.46,3008.692l-9-9l9-9l9,9L1062.46,3008.692z
				 M1062.46,2900.692l-9-9l9-9l9,9L1062.46,2900.692z M1062.46,2792.692l-9-9l9-9l9,9L1062.46,2792.692z M1098.46,3386.692l-9-9
				l9-9l9,9L1098.46,3386.692z M1098.46,3278.692l-9-9l9-9l9,9L1098.46,3278.692z M1098.46,3170.692l-9-9l9-9l9,9L1098.46,3170.692z
				 M1098.46,3062.692l-9-9l9-9l9,9L1098.46,3062.692z M1098.46,2954.692l-9-9l9-9l9,9L1098.46,2954.692z M1098.46,2846.692l-9-9
				l9-9l9,9L1098.46,2846.692z M1134.46,3440.692l-9-9l9-9l9,9L1134.46,3440.692z M1134.46,3332.692l-9-9l9-9l9,9L1134.46,3332.692z
				 M1134.46,3224.692l-9-9l9-9l9,9L1134.46,3224.692z M1134.46,3116.692l-9-9l9-9l9,9L1134.46,3116.692z M1134.46,3008.692l-9-9
				l9-9l9,9L1134.46,3008.692z M1134.46,2900.692l-9-9l9-9l9,9L1134.46,2900.692z M1170.46,3386.692l-9-9l9-9l9,9L1170.46,3386.692z
				 M1170.46,3278.692l-9-9l9-9l9,9L1170.46,3278.692z M1170.46,3170.692l-9-9l9-9l9,9L1170.46,3170.692z M1170.46,3062.692l-9-9
				l9-9l9,9L1170.46,3062.692z M1170.46,2954.692l-9-9l9-9l9,9L1170.46,2954.692z M1206.46,3224.692l-9-9l9-9l9,9L1206.46,3224.692z
				 M1206.46,3116.692l-9-9l9-9l9,9L1206.46,3116.692z M1206.46,3008.692l-9-9l9-9l9,9L1206.46,3008.692z M1206.46,2900.692l-9-9
				l9-9l9,9L1206.46,2900.692z M1242.46,3170.692l-9-9l9-9l9,9L1242.46,3170.692z M1242.46,3062.692l-9-9l9-9l9,9L1242.46,3062.692z
				 M1242.46,2954.692l-9-9l9-9l9,9L1242.46,2954.692z M1278.46,3008.692l-9-9l9-9l9,9L1278.46,3008.692z M1314.46,2954.692l-9-9
				l9-9l9,9L1314.46,2954.692z M1350.46,3008.692l-9-9l9-9l9,9L1350.46,3008.692z"/>
		</g>
	</g>
	<g>
		<defs>
			<polygon id="SVGID_3_" points="1674.768,2163.648 1658.861,2160.34 1642.98,2157.133 1627.096,2154.018 1612.035,2151.16 
				1597.029,2148.404 1582.002,2145.74 1565.93,2142.992 1550.936,2140.242 1536.998,2137.859 1523.051,2135.65 1509.043,2133.609 
				1493.57,2131.537 1478.016,2129.631 1462.48,2127.904 1446.424,2126.299 1433.65,2125.055 1421.275,2123.992 1408.885,2123.07 
				1396.289,2122.279 1359.173,2120.236 1321.75,2118.332 1284.44,2116.586 1248.237,2115.043 1157.759,2113.436 1157.76,426.156 
				1205.91,421.984 1211.247,421.448 1216.963,420.681 1219.135,420.335 1227.064,418.79 1235.293,417.02 1243.404,415.107 
				1251.373,413.06 1255.67,411.842 1259.71,410.542 1263.659,409.118 1266.799,407.857 1268.739,406.913 1271.509,405.469 
				1274.25,403.941 1276.948,402.339 1279.58,400.675 1282.171,398.932 1284.711,397.12 1287.111,395.306 1290.737,392.372 
				1294.588,389.15 1298.396,385.852 1302.137,382.502 1305.83,379.082 1309.461,375.603 1313.024,372.074 1316.55,368.463 
				1320.243,364.556 1323.88,360.583 1327.458,356.547 1330.966,352.463 1334.414,348.316 1337.789,344.125 1341.095,339.883 
				1362.756,311.161 1400.904,320.936 1409.751,323.298 1418.572,325.745 1427.273,328.25 1437.206,331.209 1447.033,334.23 
				1456.835,337.335 1466.58,340.515 1467.209,340.729 1468.152,341.074 1480.105,345.576 1491.881,350.204 1504.006,355.171 
				1515.666,360.14 1516.383,360.454 1517.4,360.936 1522.707,363.516 1528.08,366.317 1533.963,369.607 1538.568,372.348 
				1548.893,378.344 1559.555,384.885 1566.047,389.165 1566.555,389.509 1567.322,390.052 1573.434,394.466 1574.146,395.012 
				1584.064,402.764 1593.893,410.892 1603.773,419.549 1612.818,427.931 1614.045,429.12 1615.217,430.363 1624.355,440.495 
				1633.074,450.426 1641.891,460.74 1658.91,481.21 1659.48,481.945 1664.105,487.989 1668.213,493.725 1671.205,497.913 
				1676.588,505.869 1681.744,513.845 1686.686,521.863 1692.742,532.179 1699.791,544.564 1706.672,557.05 1713.32,569.501 
				1716.629,575.854 1747.418,636.27 1752.018,645.799 1756.371,654.272 1761.041,662.833 1768.863,676.434 1771.41,680.747 
				1773.969,684.932 1776.605,689.102 1779.289,693.201 1782.061,697.297 1784.768,701.17 1790.574,709.083 1793.225,712.514 
				1796.049,716.048 1798.941,719.548 1801.875,722.983 1804.873,726.381 1807.922,729.722 1809.506,731.403 1810.074,731.882 
				1811.92,733.304 1813.822,734.637 1815.861,735.933 1818.994,737.75 1822.273,739.495 1825.617,741.123 1862.516,757.449 
				1848.398,834.035 1841.07,875.353 1834.031,916.674 1827.268,958.059 1820.781,999.509 1814.582,1040.958 1808.66,1082.474 
				1803.012,1124.067 1797.658,1165.603 1792.574,1207.271 1787.783,1248.895 1783.264,1290.618 1779.033,1332.301 
				1775.082,1374.078 1771.412,1415.859 1768.027,1457.625 1765.213,1495.74 1762.684,1533.825 1760.436,1571.947 
				1758.471,1610.086 1756.789,1648.252 1755.389,1686.412 1754.273,1724.578 1753.439,1762.783 1752.891,1800.928 
				1752.625,1839.141 1752.643,1877.324 1752.941,1915.537 1753.525,1953.683 1754.393,1991.885 1755.543,2030.049 
				1761.254,2182.16 			"/>
		</defs>
		<clipPath id="SVGID_4_">
			<use xlink:href="#SVGID_3_"  style="overflow:visible;"/>
		</clipPath>
		<g style="clip-path:url(#SVGID_4_);">
			<polygon style="fill:#FFFFFF;" points="921.021,1350.094 441.057,1350.094 441.057,1409.659 881.021,1409.659 			"/>
			<polygon style="fill:#FFFFFF;" points="841.021,1469.224 441.057,1469.224 441.057,1528.79 801.021,1528.79 			"/>
			<polygon style="fill:#FFFFFF;" points="761.021,1588.355 441.057,1588.355 441.057,1647.92 721.021,1647.92 			"/>
			<polygon style="fill:#FFFFFF;" points="681.021,1707.485 441.057,1707.485 441.057,1767.05 641.021,1767.05 			"/>
			<polygon style="fill:#FFFFFF;" points="466.311,593.964 506.397,593.964 512.406,593.964 552.492,593.964 558.501,593.964 
				598.587,593.964 604.596,593.964 644.682,593.964 650.691,593.964 690.778,593.964 696.787,593.964 736.873,593.964 
				742.882,593.964 782.968,593.964 788.977,593.964 829.064,593.964 835.073,593.964 875.159,593.964 881.168,593.964 
				921.254,593.964 927.263,593.964 967.349,593.964 973.358,593.964 1013.445,593.964 1019.454,593.964 1059.54,593.964 
				1065.549,593.964 1105.635,593.964 1111.644,593.964 1151.73,593.964 1157.739,593.964 1197.826,593.964 1203.793,593.964 
				1203.793,292.784 441.057,292.784 441.057,593.964 460.302,593.964 			"/>
			<polygon style="fill:#FFFFFF;" points="1432.081,1349.659 1470.076,1349.659 1476.085,1349.659 1516.171,1349.659 
				1522.18,1349.659 1562.266,1349.659 1568.276,1349.659 1608.362,1349.659 1614.371,1349.659 1654.457,1349.659 
				1660.466,1349.659 1700.552,1349.659 1706.561,1349.659 1746.647,1349.659 1752.656,1349.659 1792.743,1349.659 
				1798.752,1349.659 1838.838,1349.659 1844.847,1349.659 1884.933,1349.659 1890.943,1349.659 1931.029,1349.659 
				1937.038,1349.659 1965.6,1349.659 1965.6,1290.094 1472.081,1290.094 			"/>
		</g>
	</g>
	<g>
		<defs>
			<polygon id="SVGID_5_" points="3584.193,803.776 3576.318,790.593 3568.668,777.301 3561.215,763.858 3552.836,748.19 
				3544.648,732.347 3536.697,716.422 3528.854,700.143 3519.66,680.963 3510.011,661.357 3497.793,637.111 3485.073,612.379 
				3476.816,597.368 3468.412,582.479 3459.93,567.828 3451,552.79 3448.082,548.1 3447.651,547.42 3444.394,542.562 
				3443.971,541.944 3440.077,536.542 3436.965,532.504 3432.23,525.562 3425.846,516.744 3419.72,508.788 3413.291,500.926 
				3412.422,499.904 3411.544,498.939 3400.678,487.397 3389.249,475.7 3377.96,464.572 3366.361,453.556 3365.287,452.571 
				3364.18,451.635 3357.871,446.484 3351.27,441.222 3344.604,436.037 3337.878,430.932 3331.087,425.906 3324.244,420.966 
				3317.334,416.103 3310.049,411.105 3305.945,408.396 3301.523,405.607 3297.026,402.913 3292.473,400.321 3287.861,397.83 
				3283.192,395.444 3278.48,393.166 3276.303,392.172 3269.244,387.95 3258.926,382.143 3249.211,377.025 3239.059,372.03 
				3221.379,363.799 3203.113,355.614 3185.52,348.042 3167.506,340.599 3166.066,340.029 3164.839,339.594 3081.029,311.496 
				3060.335,321.633 3056.744,323.303 3053.107,324.905 3049.453,326.428 3045.77,327.875 3042.041,329.252 3038.305,330.548 
				3034.533,331.771 3030.917,332.861 3027.286,333.874 3023.631,334.81 3019.961,335.669 3016.275,336.45 3012.566,337.156 
				3008.848,337.782 3005.146,338.326 2999.289,339.057 2993.348,339.696 2987.359,340.236 2981.4,340.672 2975.435,341.007 
				2969.494,341.237 2963.656,341.364 2923.672,341.324 2890.044,341.323 2883.871,341.281 2877.908,341.14 2871.963,340.896 
				2866.006,340.55 2860.042,340.101 2854.057,339.547 2848.12,338.897 2842.26,338.152 2838.572,337.603 2834.834,336.964 
				2831.145,336.255 2827.445,335.463 2823.793,334.6 2820.136,333.654 2816.502,332.632 2812.876,331.531 2809.131,330.308 
				2805.387,329.001 2801.664,327.616 2797.975,326.157 2794.323,324.627 2790.7,323.022 2787.115,321.346 2766.438,311.161 
				2682.559,339.082 2681.33,339.516 2680.122,339.988 2662.488,347.225 2644.452,354.936 2626.581,362.89 2608.289,371.353 
				2598.558,376.107 2588.404,381.421 2578.471,386.977 2571.011,391.411 2569.196,392.231 2564.481,394.487 2559.805,396.855 
				2555.188,399.325 2550.623,401.898 2546.113,404.576 2541.936,407.186 2540.879,407.867 2530.375,414.941 2523.445,419.79 
				2516.578,424.717 2509.777,429.72 2503.034,434.805 2496.352,439.972 2489.734,445.216 2482.967,450.713 2481.881,451.631 
				2480.826,452.589 2469.414,463.379 2457.871,474.705 2446.639,486.15 2435.516,497.906 2434.619,498.888 2433.768,499.887 
				2427.658,507.315 2421.194,515.657 2415.072,524.065 2410.154,531.231 2409.207,532.43 2405.23,537.718 2403.055,540.804 
				2401.602,542.874 2401.135,543.553 2397.954,548.435 2397.498,549.15 2387.281,566.195 2378.633,581.046 2370.287,595.751 
				2361.754,611.182 2349.15,635.551 2336.83,659.87 2327.228,679.268 2317.793,698.833 2309.906,715.116 2301.917,731.036 
				2293.706,746.839 2285.287,762.5 2277.807,775.927 2270.125,789.206 2262.236,802.352 2244.572,830.736 2256.453,893.159 
				2264.67,938.065 2270.872,973.386 2272.566,983.033 2280.141,1028.051 2287.398,1073.142 2294.332,1118.269 2300.944,1163.452 
				2307.234,1208.672 2313.199,1253.919 2318.848,1299.25 2324.168,1344.582 2329.168,1389.98 2333.844,1435.392 2338.195,1480.832 
				2342.229,1526.361 2345.867,1571.074 2346.398,1584.156 2347.301,1598.517 2347.358,1599.344 2348.05,1606.406 
				2348.172,1607.518 2348.271,1608.256 2348.918,1612.647 2352.371,1682.742 2355.797,1755.016 2358.365,1811.665 
				2360.787,1868.169 2362.186,1910.61 2363.33,1953.214 2364.214,1995.745 2364.838,2038.31 2365.206,2080.935 2365.312,2123.466 
				2365.16,2166.046 2364.306,2254.521 2362.407,2356.599 2427.632,2370.14 2457.637,2376.526 2487.547,2383.056 2517.423,2389.735 
				2532.1,2393.136 2546.717,2396.675 2561.267,2400.356 2576.361,2404.337 2578.428,2404.835 2580.512,2405.243 2599.371,2408.528 
				2618.719,2411.64 2638.111,2414.493 2657.719,2417.112 2678.365,2419.599 2699.188,2421.849 2720.042,2423.839 
				2740.917,2425.571 2742.182,2425.665 2743.146,2425.712 2813.432,2428.358 2814.306,2428.386 2878.983,2428.819 
				2923.332,2428.976 2967.464,2428.819 3031.173,2428.397 3032.053,2428.386 3102.892,2425.726 3104.178,2425.665 
				3105.143,2425.595 3125.617,2423.901 3146.467,2421.919 3167.295,2419.679 3188.275,2417.159 3207.498,2414.599 
				3226.89,2411.755 3246.242,2408.653 3265.844,2405.245 3267.931,2404.837 3269.998,2404.337 3285.099,2400.354 
				3299.643,2396.677 3314.246,2393.138 3328.973,2389.728 3358.797,2383.06 3388.738,2376.524 3418.691,2370.146 
				3483.951,2356.599 3481.024,2254.543 3478.992,2183.687 3478.478,2183.687 3478.354,2167.247 3478.292,2124.671 
				3478.49,2082.093 3478.947,2039.519 3479.662,1996.944 3480.637,1954.382 3481.871,1911.823 3483.363,1869.351 
				3485.906,1812.894 3488.591,1756.245 3492.168,1683.975 3495.773,1613.875 3496.383,1609.815 3496.535,1608.718 
				3496.616,1608.005 3497.289,1601.347 3497.365,1600.551 3498.333,1585.771 3498.913,1572.31 3502.652,1527.542 
				3506.774,1482.103 3511.227,1436.637 3515.996,1391.259 3521.098,1345.841 3526.513,1300.53 3532.252,1255.251 3538.32,1209.977 
				3544.707,1164.753 3551.411,1119.625 3558.446,1074.483 3565.795,1029.439 3573.465,984.436 3575.429,973.387 3581.465,939.437 
				3589.768,894.598 3601.785,832.18 			"/>
		</defs>
		<clipPath id="SVGID_6_">
			<use xlink:href="#SVGID_5_"  style="overflow:visible;"/>
		</clipPath>
		<g style="clip-path:url(#SVGID_6_);">
			<path style="fill:#FFFFFF;" d="M3787.63,266.039l2.107,2.107l-9,9l-9-9l2.107-2.107h-58.215l2.107,2.107l-9,9l-9-9l2.107-2.107
				h-58.215l2.107,2.107l-9,9l-9-9l2.107-2.107h-58.215l2.107,2.107l-9,9l-9-9l2.107-2.107h-58.215l2.107,2.107l-9,9l-9-9
				l2.107-2.107h-555.607v450.623h-2.968l-119.13,178.695h6.009l116.089-174.133l3.042-4.562h40.086l-43.127,64.691l-76.003,114.004
				h6.009l69.994-104.99l49.136-73.705h40.086l-89.223,133.834l-29.908,44.861h6.009l23.898-35.847l95.232-142.848h40.086
				l-118.584,177.877l-0.546,0.818h6.009l0.545-0.818l118.584-177.877h40.086l-118.584,177.877l-0.546,0.818h6.009l0.545-0.818
				l118.585-177.877h37.578l-119.451,177.877h687.451h70.861v-628.5H3787.63z M3096.738,871.147l-9-9l9-9l9,9L3096.738,871.147z
				 M3132.738,817.147l-9-9l9-9l9,9L3132.738,817.147z M3168.738,871.147l-9-9l9-9l9,9L3168.738,871.147z M3168.738,763.147l-9-9
				l9-9l9,9L3168.738,763.147z M3204.738,817.147l-9-9l9-9l9,9L3204.738,817.147z M3204.738,709.147l-9-9l9-9l9,9L3204.738,709.147z
				 M3240.738,871.147l-9-9l9-9l9,9L3240.738,871.147z M3240.738,763.147l-9-9l9-9l9,9L3240.738,763.147z M3240.738,655.147l-9-9
				l9-9l9,9L3240.738,655.147z M3276.738,817.147l-9-9l9-9l9,9L3276.738,817.147z M3276.738,709.147l-9-9l9-9l9,9L3276.738,709.147z
				 M3276.738,601.147l-9-9l9-9l9,9L3276.738,601.147z M3312.738,871.147l-9-9l9-9l9,9L3312.738,871.147z M3312.738,763.147l-9-9
				l9-9l9,9L3312.738,763.147z M3312.738,655.147l-9-9l9-9l9,9L3312.738,655.147z M3312.738,547.147l-9-9l9-9l9,9L3312.738,547.147z
				 M3348.738,817.147l-9-9l9-9l9,9L3348.738,817.147z M3348.738,709.147l-9-9l9-9l9,9L3348.738,709.147z M3348.738,601.147l-9-9
				l9-9l9,9L3348.738,601.147z M3348.738,493.147l-9-9l9-9l9,9L3348.738,493.147z M3384.738,871.147l-9-9l9-9l9,9L3384.738,871.147z
				 M3384.738,763.147l-9-9l9-9l9,9L3384.738,763.147z M3384.738,655.147l-9-9l9-9l9,9L3384.738,655.147z M3384.738,547.147l-9-9
				l9-9l9,9L3384.738,547.147z M3384.738,439.147l-9-9l9-9l9,9L3384.738,439.147z M3420.738,817.147l-9-9l9-9l9,9L3420.738,817.147z
				 M3420.738,709.147l-9-9l9-9l9,9L3420.738,709.147z M3420.738,601.147l-9-9l9-9l9,9L3420.738,601.147z M3420.738,493.147l-9-9
				l9-9l9,9L3420.738,493.147z M3420.738,385.147l-9-9l9-9l9,9L3420.738,385.147z M3456.738,871.147l-9-9l9-9l9,9L3456.738,871.147z
				 M3456.738,763.147l-9-9l9-9l9,9L3456.738,763.147z M3456.738,655.147l-9-9l9-9l9,9L3456.738,655.147z M3456.738,547.147l-9-9
				l9-9l9,9L3456.738,547.147z M3456.738,439.147l-9-9l9-9l9,9L3456.738,439.147z M3456.738,331.147l-9-9l9-9l9,9L3456.738,331.147z
				 M3492.738,817.147l-9-9l9-9l9,9L3492.738,817.147z M3492.738,709.147l-9-9l9-9l9,9L3492.738,709.147z M3492.738,601.147l-9-9
				l9-9l9,9L3492.738,601.147z M3492.738,493.147l-9-9l9-9l9,9L3492.738,493.147z M3492.738,385.147l-9-9l9-9l9,9L3492.738,385.147z
				 M3528.738,871.147l-9-9l9-9l9,9L3528.738,871.147z M3528.738,763.147l-9-9l9-9l9,9L3528.738,763.147z M3528.738,655.147l-9-9
				l9-9l9,9L3528.738,655.147z M3528.738,547.147l-9-9l9-9l9,9L3528.738,547.147z M3528.738,439.147l-9-9l9-9l9,9L3528.738,439.147z
				 M3528.738,331.147l-9-9l9-9l9,9L3528.738,331.147z M3564.738,817.147l-9-9l9-9l9,9L3564.738,817.147z M3564.738,709.147l-9-9
				l9-9l9,9L3564.738,709.147z M3564.738,601.147l-9-9l9-9l9,9L3564.738,601.147z M3564.738,493.147l-9-9l9-9l9,9L3564.738,493.147z
				 M3564.738,385.147l-9-9l9-9l9,9L3564.738,385.147z M3600.738,763.147l-9-9l9-9l9,9L3600.738,763.147z M3600.738,655.147l-9-9
				l9-9l9,9L3600.738,655.147z M3600.738,547.147l-9-9l9-9l9,9L3600.738,547.147z M3600.738,439.147l-9-9l9-9l9,9L3600.738,439.147z
				 M3600.738,331.147l-9-9l9-9l9,9L3600.738,331.147z M3636.738,709.147l-9-9l9-9l9,9L3636.738,709.147z M3636.738,601.147l-9-9
				l9-9l9,9L3636.738,601.147z M3636.738,493.147l-9-9l9-9l9,9L3636.738,493.147z M3636.738,385.147l-9-9l9-9l9,9L3636.738,385.147z
				 M3672.738,655.147l-9-9l9-9l9,9L3672.738,655.147z M3672.738,547.147l-9-9l9-9l9,9L3672.738,547.147z M3672.738,439.147l-9-9
				l9-9l9,9L3672.738,439.147z M3672.738,331.147l-9-9l9-9l9,9L3672.738,331.147z M3708.738,601.147l-9-9l9-9l9,9L3708.738,601.147z
				 M3708.738,493.147l-9-9l9-9l9,9L3708.738,493.147z M3708.738,385.147l-9-9l9-9l9,9L3708.738,385.147z M3744.738,547.147l-9-9
				l9-9l9,9L3744.738,547.147z M3744.738,439.147l-9-9l9-9l9,9L3744.738,439.147z M3744.738,331.147l-9-9l9-9l9,9L3744.738,331.147z
				 M3780.738,493.147l-9-9l9-9l9,9L3780.738,493.147z M3780.738,385.147l-9-9l9-9l9,9L3780.738,385.147z"/>
			<polygon style="fill:#FFFFFF;" points="2143.651,716.662 2070.411,826.522 2070.411,835.536 2149.66,716.662 			"/>
			<polygon style="fill:#FFFFFF;" points="2189.746,716.662 2070.616,895.358 2076.625,895.358 2195.755,716.662 			"/>
			<polygon style="fill:#FFFFFF;" points="2235.841,716.662 2116.711,895.358 2122.72,895.358 2241.851,716.662 			"/>
			<polygon style="fill:#FFFFFF;" points="2281.937,716.662 2162.806,895.358 2168.815,895.358 2287.945,716.662 			"/>
			<polygon style="fill:#FFFFFF;" points="2328.032,716.662 2208.901,895.358 2214.911,895.358 2334.041,716.662 			"/>
			<polygon style="fill:#FFFFFF;" points="2374.127,716.662 2254.997,895.358 2261.006,895.358 2380.137,716.662 			"/>
			<polygon style="fill:#FFFFFF;" points="2420.222,716.662 2301.092,895.358 2307.101,895.358 2426.231,716.662 			"/>
			<polygon style="fill:#FFFFFF;" points="2466.318,716.662 2347.188,895.358 2353.197,895.358 2472.327,716.662 			"/>
			<polygon style="fill:#FFFFFF;" points="2512.413,716.662 2393.283,895.358 2399.292,895.358 2518.422,716.662 			"/>
			<polygon style="fill:#FFFFFF;" points="2558.508,716.662 2439.378,895.358 2445.387,895.358 2564.518,716.662 			"/>
			<polygon style="fill:#FFFFFF;" points="2604.604,716.662 2485.473,895.358 2491.482,895.358 2610.612,716.662 			"/>
			<polygon style="fill:#FFFFFF;" points="2650.699,716.662 2531.568,895.358 2537.578,895.358 2656.708,716.662 			"/>
			<polygon style="fill:#FFFFFF;" points="2696.794,716.662 2577.664,895.358 2583.673,895.358 2702.803,716.662 			"/>
			<polygon style="fill:#FFFFFF;" points="2742.889,716.662 2623.759,895.358 2629.768,895.358 2748.898,716.662 			"/>
			<polygon style="fill:#FFFFFF;" points="2788.984,716.662 2669.854,895.358 2675.863,895.358 2794.993,716.662 			"/>
			<polygon style="fill:#FFFFFF;" points="2835.08,716.662 2715.949,895.358 2721.958,895.358 2841.089,716.662 			"/>
			<polygon style="fill:#FFFFFF;" points="2881.175,716.662 2762.044,895.358 2768.054,895.358 2887.184,716.662 			"/>
		</g>
	</g>
	<g>
		<defs>
			<polygon id="SVGID_7_" points="618.784,2163.648 634.69,2160.34 650.571,2157.133 666.456,2154.018 681.516,2151.16 
				696.522,2148.404 711.55,2145.74 727.622,2142.992 742.616,2140.242 756.554,2137.859 770.501,2135.65 784.509,2133.609 
				799.981,2131.537 815.536,2129.631 831.071,2127.904 847.128,2126.299 859.901,2125.055 872.276,2123.992 884.667,2123.07 
				897.263,2122.279 934.379,2120.236 971.802,2118.332 1009.112,2116.586 1045.314,2115.043 1135.793,2113.436 1135.792,426.156 
				1087.641,421.984 1082.305,421.448 1076.588,420.681 1074.416,420.335 1066.487,418.79 1058.258,417.02 1050.148,415.107 
				1042.179,413.06 1037.881,411.842 1033.841,410.542 1029.893,409.118 1026.753,407.857 1024.812,406.913 1022.043,405.469 
				1019.302,403.941 1016.604,402.339 1013.972,400.675 1011.38,398.932 1008.841,397.12 1006.44,395.306 1002.814,392.372 
				998.964,389.15 995.155,385.852 991.415,382.502 987.722,379.082 984.09,375.603 980.527,372.074 977.002,368.463 
				973.308,364.556 969.671,360.583 966.094,356.547 962.586,352.463 959.138,348.316 955.763,344.125 952.457,339.883 
				930.796,311.161 892.647,320.936 883.801,323.298 874.979,325.745 866.278,328.25 856.346,331.209 846.518,334.23 
				836.717,337.335 826.972,340.515 826.343,340.729 825.399,341.074 813.446,345.576 801.671,350.204 789.546,355.171 
				777.886,360.14 777.169,360.454 776.151,360.936 770.845,363.516 765.472,366.317 759.589,369.607 754.983,372.348 
				744.659,378.344 733.997,384.885 727.505,389.165 726.997,389.509 726.229,390.052 720.118,394.466 719.405,395.012 
				709.487,402.764 699.659,410.892 689.778,419.549 680.733,427.931 679.507,429.12 678.335,430.363 669.196,440.495 
				660.477,450.426 651.661,460.74 634.641,481.21 634.071,481.945 629.446,487.989 625.339,493.725 622.347,497.913 
				616.964,505.869 611.808,513.845 606.866,521.863 600.81,532.179 593.761,544.564 586.88,557.05 580.231,569.501 
				576.923,575.854 546.134,636.27 541.534,645.799 537.181,654.272 532.511,662.833 524.688,676.434 522.141,680.747 
				519.583,684.932 516.946,689.102 514.263,693.201 511.491,697.297 508.784,701.17 502.977,709.083 500.327,712.514 
				497.503,716.048 494.61,719.548 491.677,722.983 488.679,726.381 485.63,729.722 484.046,731.403 483.477,731.882 
				481.632,733.304 479.729,734.637 477.69,735.933 474.558,737.75 471.278,739.495 467.934,741.123 431.036,757.449 
				445.153,834.035 452.481,875.353 459.52,916.674 466.284,958.059 472.77,999.509 478.97,1040.958 484.891,1082.474 
				490.54,1124.067 495.893,1165.603 500.977,1207.271 505.768,1248.895 510.288,1290.618 514.518,1332.301 518.47,1374.078 
				522.14,1415.859 525.524,1457.625 528.339,1495.74 530.868,1533.825 533.116,1571.947 535.081,1610.086 536.763,1648.252 
				538.163,1686.412 539.278,1724.578 540.112,1762.783 540.661,1800.928 540.927,1839.141 540.909,1877.324 540.61,1915.537 
				540.026,1953.683 539.159,1991.885 538.009,2030.049 532.298,2182.16 			"/>
		</defs>
		<clipPath id="SVGID_8_">
			<use xlink:href="#SVGID_7_"  style="overflow:visible;"/>
		</clipPath>
		<g style="clip-path:url(#SVGID_8_);">
			<polygon style="fill:#FFFFFF;" points="831.021,1350.094 351.057,1350.094 351.057,1409.659 791.021,1409.659 			"/>
			<polygon style="fill:#FFFFFF;" points="751.021,1469.224 351.057,1469.224 351.057,1528.79 711.021,1528.79 			"/>
			<polygon style="fill:#FFFFFF;" points="671.021,1588.355 351.057,1588.355 351.057,1647.92 631.021,1647.92 			"/>
			<polygon style="fill:#FFFFFF;" points="591.021,1707.485 351.057,1707.485 351.057,1767.05 551.021,1767.05 			"/>
			<polygon style="fill:#FFFFFF;" points="376.311,593.964 416.397,593.964 422.406,593.964 462.492,593.964 468.501,593.964 
				508.587,593.964 514.596,593.964 554.682,593.964 560.691,593.964 600.778,593.964 606.787,593.964 646.873,593.964 
				652.882,593.964 692.968,593.964 698.977,593.964 739.064,593.964 745.073,593.964 785.159,593.964 791.168,593.964 
				831.254,593.964 837.263,593.964 877.349,593.964 883.358,593.964 923.445,593.964 929.454,593.964 969.54,593.964 
				975.549,593.964 1015.635,593.964 1021.644,593.964 1061.73,593.964 1067.739,593.964 1107.826,593.964 1113.793,593.964 
				1113.793,292.784 351.057,292.784 351.057,593.964 370.302,593.964 			"/>
			<polygon style="fill:#FFFFFF;" points="1342.081,1349.659 1380.076,1349.659 1386.085,1349.659 1426.171,1349.659 
				1432.18,1349.659 1472.266,1349.659 1478.276,1349.659 1518.362,1349.659 1524.371,1349.659 1564.457,1349.659 
				1570.466,1349.659 1610.552,1349.659 1616.561,1349.659 1656.647,1349.659 1662.656,1349.659 1702.743,1349.659 
				1708.752,1349.659 1748.838,1349.659 1754.847,1349.659 1794.933,1349.659 1800.943,1349.659 1841.029,1349.659 
				1847.038,1349.659 1875.6,1349.659 1875.6,1290.094 1382.081,1290.094 			"/>
		</g>
	</g>
</g>
</svg>
