<?xml version="1.0" encoding="iso-8859-1"?>
<!-- Generator: Adobe Illustrator 21.1.0, SVG Export Plug-In . SVG Version: 6.00 Build 0)  -->
<!DOCTYPE svg PUBLIC "-//W3C//DTD SVG 1.1//EN" "http://www.w3.org/Graphics/SVG/1.1/DTD/svg11.dtd">
<svg version="1.1" xmlns="http://www.w3.org/2000/svg" xmlns:xlink="http://www.w3.org/1999/xlink" x="0px" y="0px"
	 viewBox="0 0 3609 3609" style="enable-background:new 0 0 3609 3609;" xml:space="preserve">
<g id="colorblock_x5F_5">
	<polygon style="fill:#FFFFFF;" points="2241.113,3542.679 2264.263,3383.55 2241.391,3221.376 3470.928,3221.022 3438.781,3382.177 3470.848,3543.016 	
		"/>
	<polygon style="fill:#FFFFFF;" points="1867.183,2187.385 1869.449,761.73 1932.438,782.298 1935.486,783.197 1938.566,784.008 1941.731,784.745 
		1946.021,785.625 1950.393,786.416 1954.768,787.099 1957.78,787.498 1961.197,787.655 1966.188,787.806 1971.199,787.879 
		1976.197,787.875 1981.191,787.792 1986.189,787.631 1991.014,787.401 1999.829,786.772 2003.007,786.447 2006.42,786.028 
		2009.795,785.542 2013.195,784.981 2016.561,784.356 2019.914,783.661 2022.516,783.066 2025.458,782.223 2028.86,781.09 
		2032.037,779.872 2035.369,778.422 2042.598,774.973 2049.94,771.242 2057.17,767.333 2063.49,763.708 2069.32,759.824 
		2076.15,755.158 2082.914,750.419 2089.609,745.61 2095.891,740.981 2102.119,736.27 2108.271,731.496 2111.852,728.646 
		2114.836,725.405 2119.924,719.729 2124.938,713.982 2129.866,708.181 2135.045,701.923 2140.159,695.581 2145.164,689.212 
		2231.221,576.821 2236.787,2280.049 	"/>
	<polygon style="fill:#FFFFFF;" points="13.521,3084.223 56.717,3059.182 67.368,3052.908 77.903,3046.605 101.063,3032.426 113.475,3024.676 
		125.839,3016.854 137.403,3009.443 149.642,3000.818 162.257,2991.624 174.729,2982.227 187.024,2972.651 197.581,2964.14 
		207.965,2955.451 218.183,2946.583 228.307,2937.471 235.996,2930.352 243.389,2923.199 250.618,2915.891 257.793,2908.309 
		276.312,2888.126 294.734,2867.687 313.002,2847.05 329.981,2827.525 343.101,2809.688 356.953,2790.389 370.565,2770.949 
		383.948,2751.357 386.9,2746.927 392.852,2737.639 398.511,2728.334 404.012,2718.787 413.345,2701.877 419.684,2689.996 
		425.852,2678.047 431.846,2666.028 436.322,2656.694 440.624,2647.307 444.765,2637.841 448.683,2628.443 453.774,2615.389 
		458.727,2602.092 463.477,2588.725 468.006,2575.33 471.226,2565.231 474.227,2555.123 477.031,2544.949 479.685,2534.512 
		483.161,2520.277 486.279,2506.227 489.187,2491.691 491.629,2478.036 493.137,2464.801 494.656,2450.298 496.043,2435.795 
		497.303,2421.234 498.285,2408.797 499.132,2396.396 499.85,2384.012 504.745,2280.616 594.96,2355.377 603.663,2362.4 
		613.404,2369.984 623.21,2377.363 627.861,2380.719 632.581,2383.984 637.365,2387.154 642.235,2390.242 647.775,2393.611 
		653.417,2396.904 659.098,2400.083 664.651,2403.061 668.414,2404.946 672.337,2406.811 676.294,2408.586 680.299,2410.283 
		684.331,2411.891 688.396,2413.411 692.502,2414.85 696.696,2416.218 703.281,2418.234 709.963,2420.174 716.676,2422.016 
		723.421,2423.758 730.172,2425.395 736.965,2426.938 743.777,2428.377 784.429,2436.345 789.776,2497.713 789.891,2499.479 
		789.922,2501.254 789.754,2532.736 790.064,2544.869 790.552,2557.399 791.21,2569.928 792.037,2582.445 793.169,2596.832 
		794.472,2611.207 795.944,2625.572 797.462,2638.832 800.171,2654.225 803.256,2670.673 806.525,2687.096 809.928,2703.243 
		811.047,2708.045 812.155,2712.201 817.842,2729.975 820.155,2736.818 822.59,2743.732 825.102,2750.584 827.706,2757.416 
		830.402,2764.227 833.176,2770.98 836.028,2777.681 838.264,2782.727 840.565,2787.703 842.951,2792.65 845.414,2797.551 
		847.954,2802.406 850.576,2807.231 853.32,2812.088 863.969,2830.415 871.648,2843.111 879.635,2855.766 887.372,2867.524 
		896.64,2879.949 906.695,2893.02 916.869,2905.842 927.157,2918.415 932.932,2925.206 938.767,2931.722 944.606,2937.91 
		951.277,2944.617 953.88,2947.317 958.568,2951.977 963.373,2956.479 968.356,2960.897 980.541,2971.038 990.123,2978.842 
		999.86,2986.645 1009.57,2994.303 1015.298,2998.725 1021.018,3003.024 1026.814,3007.268 1032.592,3011.383 1040.811,3017.042 
		1049.179,3022.693 1057.608,3028.274 1066.101,3033.789 1075.712,3039.912 1085.343,3045.939 1095.064,3051.914 1136.089,3076.671 
		1031.684,3367.978 119.299,3369.01 	"/>
	<polygon style="fill:#FFFFFF;" points="3584.193,803.776 3576.318,790.593 3568.668,777.301 3561.215,763.858 3552.836,748.19 3544.648,732.347 
		3536.697,716.422 3528.854,700.143 3519.66,680.963 3510.011,661.357 3497.793,637.111 3485.073,612.379 3476.816,597.368 
		3468.412,582.479 3459.93,567.828 3451,552.79 3448.082,548.1 3447.651,547.42 3444.394,542.562 3443.971,541.944 
		3440.077,536.542 3436.965,532.504 3432.23,525.562 3425.846,516.744 3419.72,508.788 3413.291,500.926 3412.422,499.904 
		3411.544,498.939 3400.678,487.397 3389.249,475.7 3377.96,464.572 3366.361,453.556 3365.287,452.571 3364.18,451.635 
		3357.871,446.484 3351.27,441.222 3344.604,436.037 3337.878,430.932 3331.087,425.906 3324.244,420.966 3317.334,416.103 
		3310.049,411.105 3305.945,408.396 3301.523,405.607 3297.026,402.913 3292.473,400.321 3287.861,397.83 3283.192,395.444 
		3278.48,393.166 3276.303,392.172 3269.244,387.95 3258.926,382.143 3249.211,377.025 3239.059,372.03 3221.379,363.799 
		3203.113,355.614 3185.52,348.042 3167.506,340.599 3166.066,340.029 3164.839,339.594 3081.029,311.496 3060.335,321.633 
		3056.744,323.303 3053.107,324.905 3049.453,326.428 3045.77,327.875 3042.041,329.252 3038.305,330.548 3034.533,331.771 
		3030.917,332.861 3027.286,333.874 3023.631,334.81 3019.961,335.669 3016.275,336.45 3012.566,337.156 3008.848,337.782 
		3005.146,338.326 2999.289,339.057 2993.348,339.696 2987.359,340.236 2981.4,340.672 2975.435,341.007 2969.494,341.237 
		2963.656,341.364 2923.672,341.324 2890.044,341.323 2883.871,341.281 2877.908,341.14 2871.963,340.896 2866.006,340.55 
		2860.042,340.101 2854.057,339.547 2848.12,338.897 2842.26,338.152 2838.572,337.603 2834.834,336.964 2831.145,336.255 
		2827.445,335.463 2823.793,334.6 2820.136,333.654 2816.502,332.632 2812.876,331.531 2809.131,330.308 2805.387,329.001 
		2801.664,327.616 2797.975,326.157 2794.323,324.627 2790.7,323.022 2787.115,321.346 2766.438,311.161 2682.559,339.082 
		2681.33,339.516 2680.122,339.988 2662.488,347.225 2644.452,354.936 2626.581,362.89 2608.289,371.353 2598.558,376.107 
		2588.404,381.421 2578.471,386.977 2571.011,391.411 2569.196,392.231 2564.481,394.487 2559.805,396.855 2555.188,399.325 
		2550.623,401.898 2546.113,404.576 2541.936,407.186 2540.879,407.867 2530.375,414.941 2523.445,419.79 2516.578,424.717 
		2509.777,429.72 2503.034,434.805 2496.352,439.972 2489.734,445.216 2482.967,450.713 2481.881,451.631 2480.826,452.589 
		2469.414,463.379 2457.871,474.705 2446.639,486.15 2435.516,497.906 2434.619,498.888 2433.768,499.887 2427.658,507.315 
		2421.194,515.657 2415.072,524.065 2410.154,531.231 2409.207,532.43 2405.23,537.718 2403.055,540.804 2401.602,542.874 
		2401.135,543.553 2397.954,548.435 2397.498,549.15 2387.281,566.195 2378.633,581.046 2370.287,595.751 2361.754,611.182 
		2349.15,635.551 2336.83,659.87 2327.228,679.268 2317.793,698.833 2309.906,715.116 2301.917,731.036 2293.706,746.839 
		2285.287,762.5 2277.807,775.927 2270.125,789.206 2262.236,802.352 2244.572,830.736 2256.453,893.159 2264.67,938.065 
		2270.872,973.386 2272.566,983.033 2280.141,1028.051 2287.398,1073.142 2294.332,1118.269 2300.944,1163.452 2307.234,1208.672 
		2313.199,1253.919 2318.848,1299.25 2324.168,1344.582 2329.168,1389.98 2333.844,1435.392 2338.195,1480.832 2342.229,1526.361 
		2345.867,1571.074 2346.398,1584.156 2347.301,1598.517 2347.358,1599.344 2348.05,1606.406 2348.172,1607.518 2348.271,1608.256 
		2348.918,1612.647 2352.371,1682.742 2355.797,1755.016 2358.365,1811.665 2360.787,1868.169 2362.186,1910.61 2363.33,1953.214 
		2364.214,1995.745 2364.838,2038.31 2365.206,2080.935 2365.312,2123.466 2365.16,2166.046 2364.306,2254.521 2362.407,2356.599 
		2427.632,2370.14 2457.637,2376.526 2487.547,2383.056 2517.423,2389.735 2532.1,2393.136 2546.717,2396.675 2561.267,2400.356 
		2576.361,2404.337 2578.428,2404.835 2580.512,2405.243 2599.371,2408.528 2618.719,2411.64 2638.111,2414.493 2657.719,2417.112 
		2678.365,2419.599 2699.188,2421.849 2720.042,2423.839 2740.917,2425.571 2742.182,2425.665 2743.146,2425.712 2813.432,2428.358 
		2814.306,2428.386 2878.983,2428.819 2923.332,2428.976 2967.464,2428.819 3031.173,2428.397 3032.053,2428.386 3102.892,2425.726 
		3104.178,2425.665 3105.143,2425.595 3125.617,2423.901 3146.467,2421.919 3167.295,2419.679 3188.275,2417.159 3207.498,2414.599 
		3226.89,2411.755 3246.242,2408.653 3265.844,2405.245 3267.931,2404.837 3269.998,2404.337 3285.099,2400.354 3299.643,2396.677 
		3314.246,2393.138 3328.973,2389.728 3358.797,2383.06 3388.738,2376.524 3418.691,2370.146 3483.951,2356.599 3481.024,2254.543 
		3478.992,2183.687 3478.478,2183.687 3478.354,2167.247 3478.292,2124.671 3478.49,2082.093 3478.947,2039.519 3479.662,1996.944 
		3480.637,1954.382 3481.871,1911.823 3483.363,1869.351 3485.906,1812.894 3488.591,1756.245 3492.168,1683.975 3495.773,1613.875 
		3496.383,1609.815 3496.535,1608.718 3496.616,1608.005 3497.289,1601.347 3497.365,1600.551 3498.333,1585.771 3498.913,1572.31 
		3502.652,1527.542 3506.774,1482.103 3511.227,1436.637 3515.996,1391.259 3521.098,1345.841 3526.513,1300.53 3532.252,1255.251 
		3538.32,1209.977 3544.707,1164.753 3551.411,1119.625 3558.446,1074.483 3565.795,1029.439 3573.465,984.436 3575.429,973.387 
		3581.465,939.437 3589.768,894.598 3601.785,832.18 	"/>
	<polygon style="fill:#FFFFFF;" points="2882.143,3174.176 2324.788,3174.223 2325.549,3085.77 2325.656,3043.199 2325.504,3000.605 2325.092,2958.035 
		2324.422,2915.447 2323.492,2872.887 2322.303,2830.342 2320.857,2787.879 2318.373,2731.375 2315.749,2674.727 2312.245,2602.459 
		2304.213,2462.678 3460.078,2462.678 3452.046,2602.479 3448.542,2674.752 3445.918,2731.402 3443.435,2787.854 3441.99,2830.355 
		3440.8,2872.891 3439.871,2915.445 3439.2,2958.039 3438.788,3000.605 3438.635,3043.199 3438.743,3085.77 3439.504,3174.223 	"/>
	<polygon style="fill:#FFFFFF;" points="160.903,3545.189 90.239,3400.62 1055.807,3400.783 988.58,3545.34 	"/>
	<polygon style="fill:#FFFFFF;" points="420.185,2187.385 417.918,761.73 354.93,782.298 351.881,783.197 348.801,784.008 345.636,784.745 
		341.347,785.625 336.975,786.416 332.601,787.099 329.587,787.498 326.17,787.655 321.179,787.806 316.169,787.879 
		311.171,787.875 306.176,787.792 301.178,787.631 296.353,787.401 287.539,786.772 284.361,786.447 280.947,786.028 
		277.572,785.542 274.172,784.981 270.807,784.356 267.454,783.661 264.853,783.066 261.91,782.223 258.507,781.09 255.331,779.872 
		251.999,778.422 244.77,774.973 237.427,771.242 230.198,767.333 223.877,763.708 218.047,759.824 211.217,755.158 
		204.453,750.419 197.758,745.61 191.477,740.981 185.248,736.27 179.096,731.496 175.517,728.646 172.531,725.405 167.444,719.729 
		162.429,713.982 157.501,708.181 152.323,701.923 147.208,695.581 142.204,689.212 56.147,576.821 50.58,2280.049 	"/>
	<polygon style="fill:#FFFFFF;" points="2280.258,3084.223 2237.061,3059.182 2226.41,3052.908 2215.875,3046.605 2192.715,3032.426 2180.304,3024.676 
		2167.938,3016.854 2156.375,3009.443 2144.137,3000.818 2131.521,2991.624 2119.049,2982.227 2106.754,2972.651 2096.198,2964.14 
		2085.813,2955.451 2075.595,2946.583 2065.472,2937.471 2057.782,2930.352 2050.39,2923.199 2043.16,2915.891 2035.985,2908.309 
		2017.466,2888.126 1999.044,2867.687 1980.775,2847.05 1963.797,2827.525 1950.678,2809.688 1936.825,2790.389 1923.213,2770.949 
		1909.83,2751.357 1906.878,2746.927 1900.926,2737.639 1895.268,2728.334 1889.767,2718.787 1880.434,2701.877 1874.095,2689.996 
		1867.927,2678.047 1861.933,2666.028 1857.456,2656.694 1853.154,2647.307 1849.013,2637.841 1845.096,2628.443 1840.004,2615.389 
		1835.052,2602.092 1830.302,2588.725 1825.772,2575.33 1822.553,2565.231 1819.551,2555.123 1816.747,2544.949 1814.093,2534.512 
		1810.617,2520.277 1807.499,2506.227 1804.591,2491.691 1802.149,2478.036 1800.642,2464.801 1799.122,2450.298 1797.735,2435.795 
		1796.476,2421.234 1795.494,2408.797 1794.646,2396.396 1793.929,2384.012 1789.033,2280.616 1698.818,2355.377 1690.115,2362.4 
		1680.375,2369.984 1670.568,2377.363 1665.917,2380.719 1661.197,2383.984 1656.414,2387.154 1651.543,2390.242 1646.003,2393.611 
		1640.361,2396.904 1634.681,2400.083 1629.127,2403.061 1625.365,2404.946 1621.441,2406.811 1617.484,2408.586 1613.479,2410.283 
		1609.448,2411.891 1605.383,2413.411 1601.275,2414.85 1597.082,2416.218 1590.497,2418.234 1583.815,2420.174 1577.103,2422.016 
		1570.357,2423.758 1563.606,2425.395 1556.813,2426.938 1550.001,2428.377 1509.35,2436.345 1504.002,2497.713 1503.888,2499.479 
		1503.856,2501.254 1504.024,2532.736 1503.714,2544.869 1503.226,2557.399 1502.567,2569.928 1501.741,2582.445 1500.609,2596.832 
		1499.307,2611.207 1497.834,2625.572 1496.316,2638.832 1493.607,2654.225 1490.522,2670.673 1487.253,2687.096 1483.851,2703.243 
		1482.731,2708.045 1481.624,2712.201 1475.936,2729.975 1473.624,2736.818 1471.188,2743.732 1468.677,2750.584 1466.072,2757.416 
		1463.376,2764.227 1460.602,2770.98 1457.75,2777.681 1455.515,2782.727 1453.213,2787.703 1450.826,2792.65 1448.365,2797.551 
		1445.825,2802.406 1443.202,2807.231 1440.458,2812.088 1429.809,2830.415 1422.13,2843.111 1414.143,2855.766 1406.406,2867.524 
		1397.139,2879.949 1387.083,2893.02 1376.909,2905.842 1366.621,2918.415 1360.847,2925.206 1355.012,2931.722 1349.171,2937.91 
		1342.501,2944.617 1339.898,2947.317 1335.21,2951.977 1330.406,2956.479 1325.421,2960.897 1313.237,2971.038 1303.655,2978.842 
		1293.918,2986.645 1284.208,2994.303 1278.48,2998.725 1272.76,3003.024 1266.964,3007.268 1261.186,3011.383 1252.968,3017.042 
		1244.6,3022.693 1236.17,3028.274 1227.677,3033.789 1218.066,3039.912 1208.436,3045.939 1198.714,3051.914 1157.689,3076.671 
		1262.094,3367.978 2174.479,3369.01 	"/>
	<polygon style="fill:#FFFFFF;" points="2132.875,3545.189 2203.539,3400.62 1237.972,3400.783 1305.198,3545.34 	"/>
	<polygon style="fill:#FFFFFF;" points="1674.768,2163.648 1658.861,2160.34 1642.98,2157.133 1627.096,2154.018 1612.035,2151.16 1597.029,2148.404 
		1582.002,2145.74 1565.93,2142.992 1550.936,2140.242 1536.998,2137.859 1523.051,2135.65 1509.043,2133.609 1493.57,2131.537 
		1478.016,2129.631 1462.48,2127.904 1446.424,2126.299 1433.65,2125.055 1421.275,2123.992 1408.885,2123.07 1396.289,2122.279 
		1359.173,2120.236 1321.75,2118.332 1284.44,2116.586 1248.237,2115.043 1157.759,2113.436 1157.76,426.156 1205.91,421.984 
		1211.247,421.448 1216.963,420.681 1219.135,420.335 1227.064,418.79 1235.293,417.02 1243.404,415.107 1251.373,413.06 
		1255.67,411.842 1259.71,410.542 1263.659,409.118 1266.799,407.857 1268.739,406.913 1271.509,405.469 1274.25,403.941 
		1276.948,402.339 1279.58,400.675 1282.171,398.932 1284.711,397.121 1287.111,395.306 1290.737,392.372 1294.588,389.15 
		1298.396,385.852 1302.137,382.502 1305.83,379.082 1309.461,375.603 1313.024,372.074 1316.55,368.463 1320.243,364.556 
		1323.88,360.583 1327.458,356.547 1330.966,352.463 1334.414,348.316 1337.789,344.125 1341.095,339.883 1362.756,311.161 
		1400.904,320.936 1409.751,323.298 1418.572,325.746 1427.273,328.25 1437.206,331.209 1447.033,334.23 1456.835,337.335 
		1466.58,340.515 1467.209,340.729 1468.152,341.074 1480.105,345.576 1491.881,350.204 1504.006,355.171 1515.666,360.14 
		1516.383,360.454 1517.4,360.936 1522.707,363.516 1528.08,366.317 1533.963,369.607 1538.568,372.348 1548.893,378.344 
		1559.555,384.885 1566.047,389.165 1566.555,389.509 1567.322,390.052 1573.434,394.466 1574.146,395.012 1584.064,402.764 
		1593.893,410.892 1603.773,419.549 1612.818,427.931 1614.045,429.121 1615.217,430.363 1624.355,440.496 1633.074,450.426 
		1641.891,460.74 1658.91,481.21 1659.48,481.945 1664.105,487.989 1668.213,493.725 1671.205,497.913 1676.588,505.869 
		1681.744,513.845 1686.686,521.863 1692.742,532.179 1699.791,544.564 1706.672,557.05 1713.32,569.501 1716.629,575.854 
		1747.418,636.27 1752.018,645.799 1756.371,654.272 1761.041,662.833 1768.863,676.434 1771.41,680.747 1773.969,684.932 
		1776.605,689.102 1779.289,693.201 1782.061,697.297 1784.768,701.17 1790.574,709.083 1793.225,712.514 1796.049,716.048 
		1798.941,719.548 1801.875,722.983 1804.873,726.381 1807.922,729.722 1809.506,731.403 1810.074,731.882 1811.92,733.304 
		1813.822,734.637 1815.861,735.933 1818.994,737.75 1822.273,739.495 1825.617,741.123 1862.516,757.449 1848.398,834.035 
		1841.07,875.353 1834.031,916.674 1827.268,958.059 1820.781,999.509 1814.582,1040.958 1808.66,1082.474 1803.012,1124.067 
		1797.658,1165.603 1792.574,1207.271 1787.783,1248.895 1783.264,1290.618 1779.033,1332.301 1775.082,1374.078 1771.412,1415.859 
		1768.027,1457.625 1765.213,1495.74 1762.684,1533.825 1760.436,1571.947 1758.471,1610.086 1756.789,1648.252 1755.389,1686.412 
		1754.273,1724.578 1753.439,1762.783 1752.891,1800.928 1752.625,1839.141 1752.643,1877.324 1752.941,1915.537 1753.525,1953.683 
		1754.393,1991.885 1755.543,2030.049 1761.254,2182.16 	"/>
	<polygon style="fill:#FFFFFF;" points="618.784,2163.648 634.69,2160.34 650.571,2157.133 666.456,2154.018 681.516,2151.16 696.522,2148.404 
		711.55,2145.74 727.622,2142.992 742.616,2140.242 756.554,2137.859 770.501,2135.65 784.509,2133.609 799.981,2131.537 
		815.536,2129.631 831.071,2127.904 847.128,2126.299 859.901,2125.055 872.276,2123.992 884.667,2123.07 897.263,2122.279 
		934.379,2120.236 971.802,2118.332 1009.112,2116.586 1045.314,2115.043 1135.793,2113.436 1135.792,426.156 1087.641,421.984 
		1082.305,421.448 1076.588,420.681 1074.416,420.335 1066.487,418.79 1058.258,417.02 1050.148,415.107 1042.179,413.06 
		1037.881,411.842 1033.841,410.542 1029.893,409.118 1026.753,407.857 1024.812,406.913 1022.043,405.469 1019.302,403.941 
		1016.604,402.339 1013.972,400.675 1011.38,398.932 1008.841,397.121 1006.44,395.306 1002.814,392.372 998.964,389.15 
		995.155,385.852 991.415,382.502 987.722,379.082 984.09,375.603 980.527,372.074 977.002,368.463 973.308,364.556 
		969.671,360.583 966.094,356.547 962.586,352.463 959.138,348.316 955.763,344.125 952.457,339.883 930.796,311.161 
		892.647,320.936 883.801,323.298 874.979,325.746 866.278,328.25 856.346,331.209 846.518,334.23 836.717,337.335 826.972,340.515 
		826.343,340.729 825.399,341.074 813.446,345.576 801.671,350.204 789.546,355.171 777.886,360.14 777.169,360.454 
		776.151,360.936 770.845,363.516 765.472,366.317 759.589,369.607 754.983,372.348 744.659,378.344 733.997,384.885 
		727.505,389.165 726.997,389.509 726.229,390.052 720.118,394.466 719.405,395.012 709.487,402.764 699.659,410.892 
		689.778,419.549 680.733,427.931 679.507,429.121 678.335,430.363 669.196,440.496 660.477,450.426 651.661,460.74 634.641,481.21 
		634.071,481.945 629.446,487.989 625.339,493.725 622.347,497.913 616.964,505.869 611.808,513.845 606.866,521.863 
		600.81,532.179 593.761,544.564 586.88,557.05 580.231,569.501 576.923,575.854 546.134,636.27 541.534,645.799 537.181,654.272 
		532.511,662.833 524.688,676.434 522.141,680.747 519.583,684.932 516.946,689.102 514.263,693.201 511.491,697.297 
		508.784,701.17 502.977,709.083 500.327,712.514 497.503,716.048 494.61,719.548 491.677,722.983 488.679,726.381 485.63,729.722 
		484.046,731.403 483.477,731.882 481.632,733.304 479.729,734.637 477.69,735.933 474.558,737.75 471.278,739.495 467.934,741.123 
		431.036,757.449 445.153,834.035 452.481,875.353 459.52,916.674 466.284,958.059 472.77,999.509 478.97,1040.958 
		484.891,1082.474 490.54,1124.067 495.893,1165.603 500.977,1207.271 505.768,1248.895 510.288,1290.618 514.518,1332.301 
		518.47,1374.078 522.14,1415.859 525.524,1457.625 528.339,1495.74 530.868,1533.825 533.116,1571.947 535.081,1610.086 
		536.763,1648.252 538.163,1686.412 539.278,1724.578 540.112,1762.783 540.661,1800.928 540.927,1839.141 540.909,1877.324 
		540.61,1915.537 540.026,1953.683 539.159,1991.885 538.009,2030.049 532.298,2182.16 	"/>
</g>
<g>
</g>
</svg>
