<?xml version="1.0" encoding="iso-8859-1"?>
<!-- Generator: Adobe Illustrator 21.1.0, SVG Export Plug-In . SVG Version: 6.00 Build 0)  -->
<!DOCTYPE svg PUBLIC "-//W3C//DTD SVG 1.1//EN" "http://www.w3.org/Graphics/SVG/1.1/DTD/svg11.dtd">
<svg version="1.1" id="colorblock_x5F_1" xmlns="http://www.w3.org/2000/svg" xmlns:xlink="http://www.w3.org/1999/xlink" x="0px"
	 y="0px" viewBox="0 0 3609 3609" style="enable-background:new 0 0 3609 3609;" xml:space="preserve">
<g>
	<g>
		<defs>
			<polygon id="SVGID_1_" points="3584.193,803.776 3576.318,790.593 3568.668,777.301 3561.215,763.858 3552.836,748.19 
				3544.648,732.347 3536.697,716.422 3528.854,700.143 3519.66,680.963 3510.011,661.357 3497.793,637.111 3485.073,612.379 
				3476.816,597.368 3468.412,582.479 3459.93,567.828 3451,552.79 3448.082,548.1 3447.651,547.42 3444.394,542.562 
				3443.971,541.944 3440.077,536.542 3436.965,532.504 3432.23,525.562 3425.846,516.744 3419.72,508.788 3413.291,500.926 
				3412.422,499.904 3411.544,498.939 3400.678,487.397 3389.249,475.7 3377.96,464.572 3366.361,453.556 3365.287,452.571 
				3364.18,451.635 3357.871,446.484 3351.27,441.222 3344.604,436.037 3337.878,430.932 3331.087,425.906 3324.244,420.966 
				3317.334,416.103 3310.049,411.105 3305.945,408.396 3301.523,405.607 3297.026,402.913 3292.473,400.321 3287.861,397.83 
				3283.192,395.444 3278.48,393.166 3276.303,392.172 3269.244,387.95 3258.926,382.143 3249.211,377.025 3239.059,372.03 
				3221.379,363.799 3203.113,355.614 3185.52,348.042 3167.506,340.599 3166.066,340.029 3164.839,339.594 3081.029,311.496 
				3060.335,321.633 3056.744,323.303 3053.107,324.905 3049.453,326.428 3045.77,327.875 3042.041,329.252 3038.305,330.548 
				3034.533,331.771 3030.917,332.861 3027.286,333.874 3023.631,334.81 3019.961,335.669 3016.275,336.45 3012.566,337.156 
				3008.848,337.782 3005.146,338.326 2999.289,339.057 2993.348,339.696 2987.359,340.236 2981.4,340.672 2975.435,341.007 
				2969.494,341.237 2963.656,341.364 2923.672,341.324 2890.044,341.323 2883.871,341.281 2877.908,341.14 2871.963,340.896 
				2866.006,340.55 2860.042,340.101 2854.057,339.547 2848.12,338.897 2842.26,338.152 2838.572,337.603 2834.834,336.964 
				2831.145,336.255 2827.445,335.463 2823.793,334.6 2820.136,333.654 2816.502,332.632 2812.876,331.531 2809.131,330.308 
				2805.387,329.001 2801.664,327.616 2797.975,326.157 2794.323,324.627 2790.7,323.022 2787.115,321.346 2766.438,311.161 
				2682.559,339.082 2681.33,339.516 2680.122,339.988 2662.488,347.225 2644.452,354.936 2626.581,362.89 2608.289,371.353 
				2598.558,376.107 2588.404,381.421 2578.471,386.977 2571.011,391.411 2569.196,392.231 2564.481,394.487 2559.805,396.855 
				2555.188,399.325 2550.623,401.898 2546.113,404.576 2541.936,407.186 2540.879,407.867 2530.375,414.941 2523.445,419.79 
				2516.578,424.717 2509.777,429.72 2503.034,434.805 2496.352,439.972 2489.734,445.216 2482.967,450.713 2481.881,451.631 
				2480.826,452.589 2469.414,463.379 2457.871,474.705 2446.639,486.15 2435.516,497.906 2434.619,498.888 2433.768,499.887 
				2427.658,507.315 2421.194,515.657 2415.072,524.065 2410.154,531.231 2409.207,532.43 2405.23,537.718 2403.055,540.804 
				2401.602,542.874 2401.135,543.553 2397.954,548.435 2397.498,549.15 2387.281,566.195 2378.633,581.046 2370.287,595.751 
				2361.754,611.182 2349.15,635.551 2336.83,659.87 2327.228,679.268 2317.793,698.833 2309.906,715.116 2301.917,731.036 
				2293.706,746.839 2285.287,762.5 2277.807,775.927 2270.125,789.206 2262.236,802.352 2244.572,830.736 2256.453,893.159 
				2264.67,938.065 2270.872,973.386 2272.566,983.033 2280.141,1028.051 2287.398,1073.142 2294.332,1118.269 2300.944,1163.452 
				2307.234,1208.672 2313.199,1253.919 2318.848,1299.25 2324.168,1344.582 2329.168,1389.98 2333.844,1435.392 2338.195,1480.832 
				2342.229,1526.361 2345.867,1571.074 2346.398,1584.156 2347.301,1598.517 2347.358,1599.344 2348.05,1606.406 
				2348.172,1607.518 2348.271,1608.256 2348.918,1612.647 2352.371,1682.742 2355.797,1755.016 2358.365,1811.665 
				2360.787,1868.169 2362.186,1910.61 2363.33,1953.214 2364.214,1995.745 2364.838,2038.31 2365.206,2080.935 2365.312,2123.466 
				2365.16,2166.046 2364.306,2254.521 2362.407,2356.599 2427.632,2370.14 2457.637,2376.526 2487.547,2383.056 2517.423,2389.735 
				2532.1,2393.136 2546.717,2396.675 2561.267,2400.356 2576.361,2404.337 2578.428,2404.835 2580.512,2405.243 2599.371,2408.528 
				2618.719,2411.64 2638.111,2414.493 2657.719,2417.112 2678.365,2419.599 2699.188,2421.849 2720.042,2423.839 
				2740.917,2425.571 2742.182,2425.665 2743.146,2425.712 2813.432,2428.358 2814.306,2428.386 2878.983,2428.819 
				2923.332,2428.976 2967.464,2428.819 3031.173,2428.397 3032.053,2428.386 3102.892,2425.726 3104.178,2425.665 
				3105.143,2425.595 3125.617,2423.901 3146.467,2421.919 3167.295,2419.679 3188.275,2417.159 3207.498,2414.599 
				3226.89,2411.755 3246.242,2408.653 3265.844,2405.245 3267.931,2404.837 3269.998,2404.337 3285.099,2400.354 
				3299.643,2396.677 3314.246,2393.138 3328.973,2389.728 3358.797,2383.06 3388.738,2376.524 3418.691,2370.146 
				3483.951,2356.599 3481.024,2254.543 3478.992,2183.687 3478.478,2183.687 3478.354,2167.247 3478.292,2124.671 
				3478.49,2082.093 3478.947,2039.519 3479.662,1996.944 3480.637,1954.382 3481.871,1911.823 3483.363,1869.351 
				3485.906,1812.894 3488.591,1756.245 3492.168,1683.975 3495.773,1613.875 3496.383,1609.815 3496.535,1608.718 
				3496.616,1608.005 3497.289,1601.347 3497.365,1600.551 3498.333,1585.771 3498.913,1572.31 3502.652,1527.542 
				3506.774,1482.103 3511.227,1436.637 3515.996,1391.259 3521.098,1345.841 3526.513,1300.53 3532.252,1255.251 3538.32,1209.977 
				3544.707,1164.753 3551.411,1119.625 3558.446,1074.483 3565.795,1029.439 3573.465,984.436 3575.429,973.387 3581.465,939.437 
				3589.768,894.598 3601.785,832.18 			"/>
		</defs>
		<clipPath id="SVGID_2_">
			<use xlink:href="#SVGID_1_"  style="overflow:visible;"/>
		</clipPath>
		<g style="clip-path:url(#SVGID_2_);">
			<g>
				
					<rect x="3090.374" y="1503.783" transform="matrix(0.7071 -0.7071 0.7071 0.7071 -160.8216 2632.0361)" style="fill:#FFFFFF;" width="12.728" height="12.728"/>
				
					<rect x="3054.374" y="1557.783" transform="matrix(0.7071 -0.7071 0.7071 0.7071 -209.5495 2622.3965)" style="fill:#FFFFFF;" width="12.728" height="12.728"/>
				
					<rect x="3018.374" y="1503.783" transform="matrix(0.7071 -0.7071 0.7071 0.7071 -181.9099 2581.1245)" style="fill:#FFFFFF;" width="12.728" height="12.728"/>
				
					<rect x="3018.374" y="1611.783" transform="matrix(0.7071 -0.7071 0.7071 0.7071 -258.2775 2612.7568)" style="fill:#FFFFFF;" width="12.728" height="12.728"/>
				
					<rect x="2982.374" y="1557.783" transform="matrix(0.7071 -0.7071 0.7071 0.7071 -230.6378 2571.4849)" style="fill:#FFFFFF;" width="12.728" height="12.728"/>
				
					<rect x="2946.374" y="1503.783" transform="matrix(0.7071 -0.7071 0.7071 0.7071 -202.9982 2530.2126)" style="fill:#FFFFFF;" width="12.728" height="12.728"/>
				
					<rect x="2982.374" y="1665.783" transform="matrix(0.7071 -0.7071 0.7071 0.7071 -307.0054 2603.1172)" style="fill:#FFFFFF;" width="12.728" height="12.728"/>
				
					<rect x="2946.374" y="1611.783" transform="matrix(0.7071 -0.7071 0.7071 0.7071 -279.3658 2561.8452)" style="fill:#FFFFFF;" width="12.728" height="12.728"/>
				
					<rect x="2946.374" y="1719.783" transform="matrix(0.7071 -0.7071 0.7071 0.7071 -355.7333 2593.4775)" style="fill:#FFFFFF;" width="12.728" height="12.728"/>
				
					<rect x="2910.374" y="1557.783" transform="matrix(0.7071 -0.7071 0.7071 0.7071 -251.7262 2520.573)" style="fill:#FFFFFF;" width="12.728" height="12.728"/>
				
					<rect x="2874.374" y="1503.783" transform="matrix(0.7071 -0.7071 0.7071 0.7071 -224.0865 2479.301)" style="fill:#FFFFFF;" width="12.728" height="12.728"/>
				
					<rect x="2910.374" y="1665.783" transform="matrix(0.7071 -0.7071 0.7071 0.7071 -328.0937 2552.2056)" style="fill:#FFFFFF;" width="12.728" height="12.728"/>
				
					<rect x="2874.374" y="1611.783" transform="matrix(0.7071 -0.7071 0.7071 0.7071 -300.4541 2510.9336)" style="fill:#FFFFFF;" width="12.728" height="12.728"/>
				
					<rect x="2910.374" y="1773.783" transform="matrix(0.7071 -0.7071 0.7071 0.7071 -404.4612 2583.8381)" style="fill:#FFFFFF;" width="12.728" height="12.728"/>
				
					<rect x="2874.374" y="1719.783" transform="matrix(0.7071 -0.7071 0.7071 0.7071 -376.8216 2542.5659)" style="fill:#FFFFFF;" width="12.728" height="12.728"/>
				
					<rect x="2874.374" y="1827.783" transform="matrix(0.7071 -0.7071 0.7071 0.7071 -453.1891 2574.1985)" style="fill:#FFFFFF;" width="12.728" height="12.728"/>
				
					<rect x="2838.374" y="1557.783" transform="matrix(0.7071 -0.7071 0.7071 0.7071 -272.8145 2469.6614)" style="fill:#FFFFFF;" width="12.728" height="12.728"/>
				
					<rect x="2802.374" y="1503.783" transform="matrix(0.7071 -0.7071 0.7071 0.7071 -245.1749 2428.3894)" style="fill:#FFFFFF;" width="12.728" height="12.728"/>
				
					<rect x="2838.374" y="1665.783" transform="matrix(0.7071 -0.7071 0.7071 0.7071 -349.182 2501.2939)" style="fill:#FFFFFF;" width="12.728" height="12.728"/>
				
					<rect x="2802.374" y="1611.783" transform="matrix(0.7071 -0.7071 0.7071 0.7071 -321.5424 2460.0217)" style="fill:#FFFFFF;" width="12.728" height="12.728"/>
				
					<rect x="2838.374" y="1773.783" transform="matrix(0.7071 -0.7071 0.7071 0.7071 -425.5495 2532.9263)" style="fill:#FFFFFF;" width="12.728" height="12.728"/>
				
					<rect x="2802.374" y="1719.783" transform="matrix(0.7071 -0.7071 0.7071 0.7071 -397.9099 2491.6543)" style="fill:#FFFFFF;" width="12.728" height="12.728"/>
				
					<rect x="2838.374" y="1881.783" transform="matrix(0.7071 -0.7071 0.7071 0.7071 -501.9171 2564.5588)" style="fill:#FFFFFF;" width="12.728" height="12.728"/>
				
					<rect x="2802.374" y="1827.783" transform="matrix(0.7071 -0.7071 0.7071 0.7071 -474.2775 2523.2866)" style="fill:#FFFFFF;" width="12.728" height="12.728"/>
				
					<rect x="2802.374" y="1935.783" transform="matrix(0.7071 -0.7071 0.7071 0.7071 -550.645 2554.9192)" style="fill:#FFFFFF;" width="12.728" height="12.728"/>
				
					<rect x="2766.374" y="1557.783" transform="matrix(0.7071 -0.7071 0.7071 0.7071 -293.9028 2418.7498)" style="fill:#FFFFFF;" width="12.728" height="12.728"/>
				
					<rect x="2730.374" y="1503.783" transform="matrix(0.7071 -0.7071 0.7071 0.7071 -266.2632 2377.4775)" style="fill:#FFFFFF;" width="12.728" height="12.728"/>
				
					<rect x="2766.374" y="1665.783" transform="matrix(0.7071 -0.7071 0.7071 0.7071 -370.2703 2450.3821)" style="fill:#FFFFFF;" width="12.728" height="12.728"/>
				
					<rect x="2730.374" y="1611.783" transform="matrix(0.7071 -0.7071 0.7071 0.7071 -342.6307 2409.1101)" style="fill:#FFFFFF;" width="12.728" height="12.728"/>
				
					<rect x="2766.374" y="1773.783" transform="matrix(0.7071 -0.7071 0.7071 0.7071 -446.6378 2482.0146)" style="fill:#FFFFFF;" width="12.728" height="12.728"/>
				
					<rect x="2730.374" y="1719.783" transform="matrix(0.7071 -0.7071 0.7071 0.7071 -418.9982 2440.7427)" style="fill:#FFFFFF;" width="12.728" height="12.728"/>
				
					<rect x="2766.374" y="1881.783" transform="matrix(0.7071 -0.7071 0.7071 0.7071 -523.0054 2513.6472)" style="fill:#FFFFFF;" width="12.728" height="12.728"/>
				
					<rect x="2730.374" y="1827.783" transform="matrix(0.7071 -0.7071 0.7071 0.7071 -495.3658 2472.375)" style="fill:#FFFFFF;" width="12.728" height="12.728"/>
				
					<rect x="2766.374" y="1989.783" transform="matrix(0.7071 -0.7071 0.7071 0.7071 -599.3729 2545.2795)" style="fill:#FFFFFF;" width="12.728" height="12.728"/>
				
					<rect x="2730.374" y="1935.783" transform="matrix(0.7071 -0.7071 0.7071 0.7071 -571.7333 2504.0076)" style="fill:#FFFFFF;" width="12.728" height="12.728"/>
				
					<rect x="2730.374" y="2043.783" transform="matrix(0.7071 -0.7071 0.7071 0.7071 -648.1008 2535.6399)" style="fill:#FFFFFF;" width="12.728" height="12.728"/>
				
					<rect x="2694.374" y="1557.783" transform="matrix(0.7071 -0.7071 0.7071 0.7071 -314.9911 2367.8381)" style="fill:#FFFFFF;" width="12.728" height="12.728"/>
				
					<rect x="2658.374" y="1503.783" transform="matrix(0.7071 -0.7071 0.7071 0.7071 -287.3515 2326.5659)" style="fill:#FFFFFF;" width="12.728" height="12.728"/>
				
					<rect x="2694.374" y="1665.783" transform="matrix(0.7071 -0.7071 0.7071 0.7071 -391.3586 2399.4705)" style="fill:#FFFFFF;" width="12.728" height="12.728"/>
				
					<rect x="2658.374" y="1611.783" transform="matrix(0.7071 -0.7071 0.7071 0.7071 -363.719 2358.1985)" style="fill:#FFFFFF;" width="12.728" height="12.728"/>
				
					<rect x="2694.374" y="1773.783" transform="matrix(0.7071 -0.7071 0.7071 0.7071 -467.7262 2431.103)" style="fill:#FFFFFF;" width="12.728" height="12.728"/>
				
					<rect x="2658.374" y="1719.783" transform="matrix(0.7071 -0.7071 0.7071 0.7071 -440.0865 2389.8308)" style="fill:#FFFFFF;" width="12.728" height="12.728"/>
				
					<rect x="2694.374" y="1881.783" transform="matrix(0.7071 -0.7071 0.7071 0.7071 -544.0937 2462.7354)" style="fill:#FFFFFF;" width="12.728" height="12.728"/>
				
					<rect x="2658.374" y="1827.783" transform="matrix(0.7071 -0.7071 0.7071 0.7071 -516.4541 2421.4634)" style="fill:#FFFFFF;" width="12.728" height="12.728"/>
				
					<rect x="2694.374" y="1989.783" transform="matrix(0.7071 -0.7071 0.7071 0.7071 -620.4612 2494.3679)" style="fill:#FFFFFF;" width="12.728" height="12.728"/>
				
					<rect x="2658.374" y="1935.783" transform="matrix(0.7071 -0.7071 0.7071 0.7071 -592.8216 2453.0957)" style="fill:#FFFFFF;" width="12.728" height="12.728"/>
				
					<rect x="2694.374" y="2097.783" transform="matrix(0.7071 -0.7071 0.7071 0.7071 -696.8287 2526.0005)" style="fill:#FFFFFF;" width="12.728" height="12.728"/>
				
					<rect x="2658.374" y="2043.783" transform="matrix(0.7071 -0.7071 0.7071 0.7071 -669.1891 2484.7283)" style="fill:#FFFFFF;" width="12.728" height="12.728"/>
				
					<rect x="2658.374" y="2151.783" transform="matrix(0.7071 -0.7071 0.7071 0.7071 -745.5567 2516.3608)" style="fill:#FFFFFF;" width="12.728" height="12.728"/>
				
					<rect x="2622.374" y="1557.783" transform="matrix(0.7071 -0.7071 0.7071 0.7071 -336.0794 2316.9263)" style="fill:#FFFFFF;" width="12.728" height="12.728"/>
				
					<rect x="2622.374" y="1665.783" transform="matrix(0.7071 -0.7071 0.7071 0.7071 -412.4469 2348.5588)" style="fill:#FFFFFF;" width="12.728" height="12.728"/>
				
					<rect x="2586.374" y="1611.783" transform="matrix(0.7071 -0.7071 0.7071 0.7071 -384.8073 2307.2866)" style="fill:#FFFFFF;" width="12.728" height="12.728"/>
				
					<rect x="2622.374" y="1773.783" transform="matrix(0.7071 -0.7071 0.7071 0.7071 -488.8145 2380.1912)" style="fill:#FFFFFF;" width="12.728" height="12.728"/>
				
					<rect x="2586.374" y="1719.783" transform="matrix(0.7071 -0.7071 0.7071 0.7071 -461.1749 2338.9192)" style="fill:#FFFFFF;" width="12.728" height="12.728"/>
				
					<rect x="2622.374" y="1881.783" transform="matrix(0.7071 -0.7071 0.7071 0.7071 -565.182 2411.8237)" style="fill:#FFFFFF;" width="12.728" height="12.728"/>
				
					<rect x="2586.374" y="1827.783" transform="matrix(0.7071 -0.7071 0.7071 0.7071 -537.5424 2370.5518)" style="fill:#FFFFFF;" width="12.728" height="12.728"/>
				
					<rect x="2622.374" y="1989.783" transform="matrix(0.7071 -0.7071 0.7071 0.7071 -641.5496 2443.4563)" style="fill:#FFFFFF;" width="12.728" height="12.728"/>
				
					<rect x="2586.374" y="1935.783" transform="matrix(0.7071 -0.7071 0.7071 0.7071 -613.9099 2402.1841)" style="fill:#FFFFFF;" width="12.728" height="12.728"/>
				
					<rect x="2622.374" y="2097.783" transform="matrix(0.7071 -0.7071 0.7071 0.7071 -717.9171 2475.0886)" style="fill:#FFFFFF;" width="12.728" height="12.728"/>
				
					<rect x="2586.374" y="2043.783" transform="matrix(0.7071 -0.7071 0.7071 0.7071 -690.2775 2433.8167)" style="fill:#FFFFFF;" width="12.728" height="12.728"/>
				
					<rect x="2622.374" y="2205.783" transform="matrix(0.7071 -0.7071 0.7071 0.7071 -794.2846 2506.7212)" style="fill:#FFFFFF;" width="12.728" height="12.728"/>
				
					<rect x="2586.374" y="2151.783" transform="matrix(0.7071 -0.7071 0.7071 0.7071 -766.645 2465.449)" style="fill:#FFFFFF;" width="12.728" height="12.728"/>
				
					<rect x="2586.374" y="2259.783" transform="matrix(0.7071 -0.7071 0.7071 0.7071 -843.0125 2497.0815)" style="fill:#FFFFFF;" width="12.728" height="12.728"/>
				
					<rect x="2550.374" y="1665.783" transform="matrix(0.7071 -0.7071 0.7071 0.7071 -433.5352 2297.6472)" style="fill:#FFFFFF;" width="12.728" height="12.728"/>
				
					<rect x="2550.374" y="1773.783" transform="matrix(0.7071 -0.7071 0.7071 0.7071 -509.9028 2329.2795)" style="fill:#FFFFFF;" width="12.728" height="12.728"/>
				
					<rect x="2514.374" y="1719.783" transform="matrix(0.7071 -0.7071 0.7071 0.7071 -482.2632 2288.0076)" style="fill:#FFFFFF;" width="12.728" height="12.728"/>
				
					<rect x="2550.374" y="1881.783" transform="matrix(0.7071 -0.7071 0.7071 0.7071 -586.2703 2360.9121)" style="fill:#FFFFFF;" width="12.728" height="12.728"/>
				
					<rect x="2514.374" y="1827.783" transform="matrix(0.7071 -0.7071 0.7071 0.7071 -558.6307 2319.6399)" style="fill:#FFFFFF;" width="12.728" height="12.728"/>
				
					<rect x="2550.374" y="1989.783" transform="matrix(0.7071 -0.7071 0.7071 0.7071 -662.6378 2392.5444)" style="fill:#FFFFFF;" width="12.728" height="12.728"/>
				
					<rect x="2514.374" y="1935.783" transform="matrix(0.7071 -0.7071 0.7071 0.7071 -634.9982 2351.2725)" style="fill:#FFFFFF;" width="12.728" height="12.728"/>
				
					<rect x="2550.374" y="2097.783" transform="matrix(0.7071 -0.7071 0.7071 0.7071 -739.0054 2424.177)" style="fill:#FFFFFF;" width="12.728" height="12.728"/>
				
					<rect x="2514.374" y="2043.783" transform="matrix(0.7071 -0.7071 0.7071 0.7071 -711.3658 2382.905)" style="fill:#FFFFFF;" width="12.728" height="12.728"/>
				
					<rect x="2550.374" y="2205.783" transform="matrix(0.7071 -0.7071 0.7071 0.7071 -815.3729 2455.8096)" style="fill:#FFFFFF;" width="12.728" height="12.728"/>
				
					<rect x="2514.374" y="2151.783" transform="matrix(0.7071 -0.7071 0.7071 0.7071 -787.7333 2414.5374)" style="fill:#FFFFFF;" width="12.728" height="12.728"/>
				
					<rect x="2550.374" y="2313.783" transform="matrix(0.7071 -0.7071 0.7071 0.7071 -891.7404 2487.4419)" style="fill:#FFFFFF;" width="12.728" height="12.728"/>
				
					<rect x="2514.374" y="2259.783" transform="matrix(0.7071 -0.7071 0.7071 0.7071 -864.1008 2446.1699)" style="fill:#FFFFFF;" width="12.728" height="12.728"/>
				
					<rect x="2514.374" y="2367.783" transform="matrix(0.7071 -0.7071 0.7071 0.7071 -940.4684 2477.8022)" style="fill:#FFFFFF;" width="12.728" height="12.728"/>
				
					<rect x="2478.374" y="1773.783" transform="matrix(0.7071 -0.7071 0.7071 0.7071 -530.9911 2278.3679)" style="fill:#FFFFFF;" width="12.728" height="12.728"/>
				
					<rect x="2478.374" y="1881.783" transform="matrix(0.7071 -0.7071 0.7071 0.7071 -607.3586 2310.0005)" style="fill:#FFFFFF;" width="12.728" height="12.728"/>
				
					<rect x="2442.374" y="1827.783" transform="matrix(0.7071 -0.7071 0.7071 0.7071 -579.719 2268.7283)" style="fill:#FFFFFF;" width="12.728" height="12.728"/>
				
					<rect x="2478.374" y="1989.783" transform="matrix(0.7071 -0.7071 0.7071 0.7071 -683.7261 2341.6328)" style="fill:#FFFFFF;" width="12.728" height="12.728"/>
				
					<rect x="2442.374" y="1935.783" transform="matrix(0.7071 -0.7071 0.7071 0.7071 -656.0865 2300.3608)" style="fill:#FFFFFF;" width="12.728" height="12.728"/>
				
					<rect x="2478.374" y="2097.783" transform="matrix(0.7071 -0.7071 0.7071 0.7071 -760.0937 2373.2654)" style="fill:#FFFFFF;" width="12.728" height="12.728"/>
				
					<rect x="2442.374" y="2043.783" transform="matrix(0.7071 -0.7071 0.7071 0.7071 -732.4541 2331.9932)" style="fill:#FFFFFF;" width="12.728" height="12.728"/>
				
					<rect x="2478.374" y="2205.783" transform="matrix(0.7071 -0.7071 0.7071 0.7071 -836.4612 2404.8977)" style="fill:#FFFFFF;" width="12.728" height="12.728"/>
				
					<rect x="2442.374" y="2151.783" transform="matrix(0.7071 -0.7071 0.7071 0.7071 -808.8216 2363.6257)" style="fill:#FFFFFF;" width="12.728" height="12.728"/>
				
					<rect x="2478.374" y="2313.783" transform="matrix(0.7071 -0.7071 0.7071 0.7071 -912.8287 2436.5303)" style="fill:#FFFFFF;" width="12.728" height="12.728"/>
				
					<rect x="2442.374" y="2259.783" transform="matrix(0.7071 -0.7071 0.7071 0.7071 -885.1891 2395.2581)" style="fill:#FFFFFF;" width="12.728" height="12.728"/>
				
					<rect x="2478.374" y="2421.783" transform="matrix(0.7071 -0.7071 0.7071 0.7071 -989.1963 2468.1626)" style="fill:#FFFFFF;" width="12.728" height="12.728"/>
				
					<rect x="2442.374" y="2367.783" transform="matrix(0.7071 -0.7071 0.7071 0.7071 -961.5567 2426.8906)" style="fill:#FFFFFF;" width="12.728" height="12.728"/>
				
					<rect x="2442.374" y="2475.783" transform="matrix(0.7071 -0.7071 0.7071 0.7071 -1037.9242 2458.5232)" style="fill:#FFFFFF;" width="12.728" height="12.728"/>
				
					<rect x="2406.374" y="1881.783" transform="matrix(0.7071 -0.7071 0.7071 0.7071 -628.447 2259.0886)" style="fill:#FFFFFF;" width="12.728" height="12.728"/>
				
					<rect x="2406.374" y="1989.783" transform="matrix(0.7071 -0.7071 0.7071 0.7071 -704.8145 2290.7212)" style="fill:#FFFFFF;" width="12.728" height="12.728"/>
				
					<rect x="2370.374" y="1935.783" transform="matrix(0.7071 -0.7071 0.7071 0.7071 -677.1749 2249.449)" style="fill:#FFFFFF;" width="12.728" height="12.728"/>
				
					<rect x="2406.374" y="2097.783" transform="matrix(0.7071 -0.7071 0.7071 0.7071 -781.182 2322.3535)" style="fill:#FFFFFF;" width="12.728" height="12.728"/>
				
					<rect x="2406.374" y="2205.783" transform="matrix(0.7071 -0.7071 0.7071 0.7071 -857.5496 2353.9861)" style="fill:#FFFFFF;" width="12.728" height="12.728"/>
				
					<rect x="2370.374" y="2151.783" transform="matrix(0.7071 -0.7071 0.7071 0.7071 -829.9099 2312.7141)" style="fill:#FFFFFF;" width="12.728" height="12.728"/>
				
					<rect x="2406.374" y="2313.783" transform="matrix(0.7071 -0.7071 0.7071 0.7071 -933.9171 2385.6187)" style="fill:#FFFFFF;" width="12.728" height="12.728"/>
				
					<rect x="2370.374" y="2259.783" transform="matrix(0.7071 -0.7071 0.7071 0.7071 -906.2775 2344.3464)" style="fill:#FFFFFF;" width="12.728" height="12.728"/>
				
					<rect x="2406.374" y="2421.783" transform="matrix(0.7071 -0.7071 0.7071 0.7071 -1010.2846 2417.251)" style="fill:#FFFFFF;" width="12.728" height="12.728"/>
				
					<rect x="2370.374" y="2367.783" transform="matrix(0.7071 -0.7071 0.7071 0.7071 -982.645 2375.979)" style="fill:#FFFFFF;" width="12.728" height="12.728"/>
				<polygon style="fill:#FFFFFF;" points="2403.738,2536.147 2405.955,2538.364 2412.738,2545.147 2419.521,2538.364 
					2421.738,2536.147 2412.738,2527.147 				"/>
				
					<rect x="2370.374" y="2475.783" transform="matrix(0.7071 -0.7071 0.7071 0.7071 -1059.0126 2407.6113)" style="fill:#FFFFFF;" width="12.728" height="12.728"/>
				
					<rect x="2370.374" y="2583.783" transform="matrix(0.7071 -0.7071 0.7071 0.7071 -1135.38 2439.2439)" style="fill:#FFFFFF;" width="12.728" height="12.728"/>
				
					<rect x="2334.374" y="1989.783" transform="matrix(0.7071 -0.7071 0.7071 0.7071 -725.9028 2239.8096)" style="fill:#FFFFFF;" width="12.728" height="12.728"/>
				
					<rect x="2334.374" y="2205.783" transform="matrix(0.7071 -0.7071 0.7071 0.7071 -878.6378 2303.0745)" style="fill:#FFFFFF;" width="12.728" height="12.728"/>
				
					<rect x="2334.374" y="2313.783" transform="matrix(0.7071 -0.7071 0.7071 0.7071 -955.0054 2334.7068)" style="fill:#FFFFFF;" width="12.728" height="12.728"/>
				
					<rect x="2298.374" y="2259.783" transform="matrix(0.7071 -0.7071 0.7071 0.7071 -927.3658 2293.4348)" style="fill:#FFFFFF;" width="12.728" height="12.728"/>
				
					<rect x="2334.374" y="2421.783" transform="matrix(0.7071 -0.7071 0.7071 0.7071 -1031.3729 2366.3394)" style="fill:#FFFFFF;" width="12.728" height="12.728"/>
				
					<rect x="2298.374" y="2367.783" transform="matrix(0.7071 -0.7071 0.7071 0.7071 -1003.7333 2325.0671)" style="fill:#FFFFFF;" width="12.728" height="12.728"/>
				<polygon style="fill:#FFFFFF;" points="2331.738,2536.147 2333.955,2538.364 2340.738,2545.147 2347.521,2538.364 
					2349.738,2536.147 2340.738,2527.147 				"/>
				
					<rect x="2298.374" y="2475.783" transform="matrix(0.7071 -0.7071 0.7071 0.7071 -1080.1008 2356.6997)" style="fill:#FFFFFF;" width="12.728" height="12.728"/>
				
					<rect x="2298.374" y="2583.783" transform="matrix(0.7071 -0.7071 0.7071 0.7071 -1156.4684 2388.3323)" style="fill:#FFFFFF;" width="12.728" height="12.728"/>
				
					<rect x="2262.374" y="2313.783" transform="matrix(0.7071 -0.7071 0.7071 0.7071 -976.0937 2283.7952)" style="fill:#FFFFFF;" width="12.728" height="12.728"/>
				
					<rect x="2262.374" y="2421.783" transform="matrix(0.7071 -0.7071 0.7071 0.7071 -1052.4612 2315.4277)" style="fill:#FFFFFF;" width="12.728" height="12.728"/>
				
					<rect x="2226.374" y="2367.783" transform="matrix(0.7071 -0.7071 0.7071 0.7071 -1024.8217 2274.1555)" style="fill:#FFFFFF;" width="12.728" height="12.728"/>
				<polygon style="fill:#FFFFFF;" points="2259.738,2536.147 2261.955,2538.364 2268.738,2545.147 2275.521,2538.364 
					2277.738,2536.147 2268.738,2527.147 				"/>
				
					<rect x="2226.374" y="2475.783" transform="matrix(0.7071 -0.7071 0.7071 0.7071 -1101.1891 2305.7881)" style="fill:#FFFFFF;" width="12.728" height="12.728"/>
				
					<rect x="2226.374" y="2583.783" transform="matrix(0.7071 -0.7071 0.7071 0.7071 -1177.5566 2337.4204)" style="fill:#FFFFFF;" width="12.728" height="12.728"/>
				
					<rect x="2190.374" y="2421.783" transform="matrix(0.7071 -0.7071 0.7071 0.7071 -1073.5496 2264.5159)" style="fill:#FFFFFF;" width="12.728" height="12.728"/>
				<polygon style="fill:#FFFFFF;" points="2187.738,2536.147 2189.955,2538.364 2196.738,2545.147 2203.521,2538.364 
					2205.738,2536.147 2196.738,2527.147 				"/>
				
					<rect x="2154.374" y="2475.783" transform="matrix(0.7071 -0.7071 0.7071 0.7071 -1122.2775 2254.8765)" style="fill:#FFFFFF;" width="12.728" height="12.728"/>
				
					<rect x="2154.374" y="2583.783" transform="matrix(0.7071 -0.7071 0.7071 0.7071 -1198.645 2286.5088)" style="fill:#FFFFFF;" width="12.728" height="12.728"/>
				<polygon style="fill:#FFFFFF;" points="2115.738,2536.147 2117.955,2538.364 2124.738,2545.147 2131.521,2538.364 
					2133.738,2536.147 2124.738,2527.147 				"/>
				
					<rect x="2082.374" y="2583.783" transform="matrix(0.7071 -0.7071 0.7071 0.7071 -1219.7334 2235.5969)" style="fill:#FFFFFF;" width="12.728" height="12.728"/>
				
					<rect x="2370.374" y="2043.783" transform="matrix(0.7071 -0.7071 0.7071 0.7071 -753.5424 2281.0815)" style="fill:#FFFFFF;" width="12.728" height="12.728"/>
				
					<rect x="2334.374" y="2097.783" transform="matrix(0.7071 -0.7071 0.7071 0.7071 -802.2703 2271.4419)" style="fill:#FFFFFF;" width="12.728" height="12.728"/>
				
					<rect x="2298.374" y="2043.783" transform="matrix(0.7071 -0.7071 0.7071 0.7071 -774.6307 2230.1699)" style="fill:#FFFFFF;" width="12.728" height="12.728"/>
				
					<rect x="2298.374" y="2151.783" transform="matrix(0.7071 -0.7071 0.7071 0.7071 -850.9982 2261.8022)" style="fill:#FFFFFF;" width="12.728" height="12.728"/>
				
					<rect x="2262.374" y="2097.783" transform="matrix(0.7071 -0.7071 0.7071 0.7071 -823.3586 2220.5303)" style="fill:#FFFFFF;" width="12.728" height="12.728"/>
				
					<rect x="2262.374" y="2205.783" transform="matrix(0.7071 -0.7071 0.7071 0.7071 -899.7261 2252.1626)" style="fill:#FFFFFF;" width="12.728" height="12.728"/>
				
					<rect x="2226.374" y="2151.783" transform="matrix(0.7071 -0.7071 0.7071 0.7071 -872.0865 2210.8906)" style="fill:#FFFFFF;" width="12.728" height="12.728"/>
				
					<rect x="2226.374" y="2259.783" transform="matrix(0.7071 -0.7071 0.7071 0.7071 -948.4541 2242.5232)" style="fill:#FFFFFF;" width="12.728" height="12.728"/>
				
					<rect x="2190.374" y="2205.783" transform="matrix(0.7071 -0.7071 0.7071 0.7071 -920.8145 2201.251)" style="fill:#FFFFFF;" width="12.728" height="12.728"/>
				
					<rect x="2190.374" y="2313.783" transform="matrix(0.7071 -0.7071 0.7071 0.7071 -997.182 2232.8835)" style="fill:#FFFFFF;" width="12.728" height="12.728"/>
				
					<rect x="2154.374" y="2259.783" transform="matrix(0.7071 -0.7071 0.7071 0.7071 -969.5424 2191.6113)" style="fill:#FFFFFF;" width="12.728" height="12.728"/>
				
					<rect x="2154.374" y="2367.783" transform="matrix(0.7071 -0.7071 0.7071 0.7071 -1045.9099 2223.2439)" style="fill:#FFFFFF;" width="12.728" height="12.728"/>
				
					<rect x="2118.374" y="2313.783" transform="matrix(0.7071 -0.7071 0.7071 0.7071 -1018.2704 2181.9717)" style="fill:#FFFFFF;" width="12.728" height="12.728"/>
				
					<rect x="2118.374" y="2421.783" transform="matrix(0.7071 -0.7071 0.7071 0.7071 -1094.6379 2213.604)" style="fill:#FFFFFF;" width="12.728" height="12.728"/>
				
					<rect x="2082.374" y="2367.783" transform="matrix(0.7071 -0.7071 0.7071 0.7071 -1066.9983 2172.332)" style="fill:#FFFFFF;" width="12.728" height="12.728"/>
				
					<rect x="2082.374" y="2475.783" transform="matrix(0.7071 -0.7071 0.7071 0.7071 -1143.3658 2203.9644)" style="fill:#FFFFFF;" width="12.728" height="12.728"/>
				<polygon style="fill:#FFFFFF;" points="2992.521,895.358 2952.435,895.358 2946.425,895.358 2906.339,895.358 2900.33,895.358 
					2860.244,895.358 2854.235,895.358 2814.149,895.358 2808.14,895.358 2768.054,895.358 2762.044,895.358 2721.958,895.358 
					2715.949,895.358 2675.863,895.358 2669.854,895.358 2629.768,895.358 2623.759,895.358 2583.673,895.358 2577.664,895.358 
					2537.578,895.358 2531.568,895.358 2491.482,895.358 2485.473,895.358 2445.387,895.358 2439.378,895.358 2399.292,895.358 
					2393.283,895.358 2353.197,895.358 2347.188,895.358 2307.101,895.358 2301.092,895.358 2261.006,895.358 2254.997,895.358 
					2214.911,895.358 2208.901,895.358 2168.815,895.358 2162.806,895.358 2122.72,895.358 2116.711,895.358 2076.625,895.358 
					2070.616,895.358 2070.411,895.358 2070.411,896.358 2070.411,954.923 2995.238,954.923 3034.566,896.358 3035.238,895.358 
					2998.53,895.358 				"/>
			</g>
		</g>
	</g>
	<g>
		<defs>
			<polygon id="SVGID_3_" points="2882.143,3174.176 2324.788,3174.223 2325.549,3085.77 2325.656,3043.199 2325.504,3000.605 
				2325.092,2958.035 2324.422,2915.447 2323.492,2872.887 2322.303,2830.342 2320.857,2787.879 2318.373,2731.375 
				2315.749,2674.727 2312.245,2602.459 2304.213,2462.678 3460.078,2462.678 3452.046,2602.479 3448.542,2674.752 
				3445.918,2731.402 3443.435,2787.854 3441.99,2830.355 3440.8,2872.891 3439.871,2915.445 3439.2,2958.039 3438.788,3000.605 
				3438.635,3043.199 3438.743,3085.77 3439.504,3174.223 			"/>
		</defs>
		<clipPath id="SVGID_4_">
			<use xlink:href="#SVGID_3_"  style="overflow:visible;"/>
		</clipPath>
		<g style="clip-path:url(#SVGID_4_);">
			<g>
				<g>
					
						<rect x="3048.853" y="2423.463" transform="matrix(0.7071 -0.7071 0.7071 0.7071 -823.2944 2872.0447)" style="fill:#FFFFFF;" width="12.728" height="12.728"/>
					
						<rect x="3012.853" y="2477.463" transform="matrix(0.7071 -0.7071 0.7071 0.7071 -872.0223 2862.405)" style="fill:#FFFFFF;" width="12.728" height="12.728"/>
					
						<rect x="2976.853" y="2423.463" transform="matrix(0.7071 -0.7071 0.7071 0.7071 -844.3828 2821.1328)" style="fill:#FFFFFF;" width="12.728" height="12.728"/>
					
						<rect x="2976.853" y="2531.463" transform="matrix(0.7071 -0.7071 0.7071 0.7071 -920.7503 2852.7654)" style="fill:#FFFFFF;" width="12.728" height="12.728"/>
					
						<rect x="2940.853" y="2477.463" transform="matrix(0.7071 -0.7071 0.7071 0.7071 -893.1107 2811.4934)" style="fill:#FFFFFF;" width="12.728" height="12.728"/>
					
						<rect x="2904.853" y="2423.463" transform="matrix(0.7071 -0.7071 0.7071 0.7071 -865.4711 2770.2212)" style="fill:#FFFFFF;" width="12.728" height="12.728"/>
					
						<rect x="2940.853" y="2585.463" transform="matrix(0.7071 -0.7071 0.7071 0.7071 -969.4782 2843.1257)" style="fill:#FFFFFF;" width="12.728" height="12.728"/>
					
						<rect x="2904.853" y="2531.463" transform="matrix(0.7071 -0.7071 0.7071 0.7071 -941.8386 2801.8538)" style="fill:#FFFFFF;" width="12.728" height="12.728"/>
					
						<rect x="2904.853" y="2639.463" transform="matrix(0.7071 -0.7071 0.7071 0.7071 -1018.2061 2833.4861)" style="fill:#FFFFFF;" width="12.728" height="12.728"/>
					
						<rect x="2868.853" y="2477.463" transform="matrix(0.7071 -0.7071 0.7071 0.7071 -914.199 2760.5815)" style="fill:#FFFFFF;" width="12.728" height="12.728"/>
					
						<rect x="2832.853" y="2423.463" transform="matrix(0.7071 -0.7071 0.7071 0.7071 -886.5594 2719.3096)" style="fill:#FFFFFF;" width="12.728" height="12.728"/>
					
						<rect x="2868.853" y="2585.463" transform="matrix(0.7071 -0.7071 0.7071 0.7071 -990.5665 2792.2141)" style="fill:#FFFFFF;" width="12.728" height="12.728"/>
					
						<rect x="2832.853" y="2531.463" transform="matrix(0.7071 -0.7071 0.7071 0.7071 -962.9269 2750.9419)" style="fill:#FFFFFF;" width="12.728" height="12.728"/>
					
						<rect x="2868.853" y="2693.463" transform="matrix(0.7071 -0.7071 0.7071 0.7071 -1066.9341 2823.8464)" style="fill:#FFFFFF;" width="12.728" height="12.728"/>
					
						<rect x="2832.853" y="2639.463" transform="matrix(0.7071 -0.7071 0.7071 0.7071 -1039.2944 2782.5745)" style="fill:#FFFFFF;" width="12.728" height="12.728"/>
					
						<rect x="2832.853" y="2747.463" transform="matrix(0.7071 -0.7071 0.7071 0.7071 -1115.662 2814.207)" style="fill:#FFFFFF;" width="12.728" height="12.728"/>
					
						<rect x="2796.853" y="2477.463" transform="matrix(0.7071 -0.7071 0.7071 0.7071 -935.2873 2709.6699)" style="fill:#FFFFFF;" width="12.728" height="12.728"/>
					
						<rect x="2760.853" y="2423.463" transform="matrix(0.7071 -0.7071 0.7071 0.7071 -907.6477 2668.3979)" style="fill:#FFFFFF;" width="12.728" height="12.728"/>
					
						<rect x="2796.853" y="2585.463" transform="matrix(0.7071 -0.7071 0.7071 0.7071 -1011.6548 2741.3025)" style="fill:#FFFFFF;" width="12.728" height="12.728"/>
					
						<rect x="2760.853" y="2531.463" transform="matrix(0.7071 -0.7071 0.7071 0.7071 -984.0152 2700.0303)" style="fill:#FFFFFF;" width="12.728" height="12.728"/>
					
						<rect x="2796.853" y="2693.463" transform="matrix(0.7071 -0.7071 0.7071 0.7071 -1088.0223 2772.9348)" style="fill:#FFFFFF;" width="12.728" height="12.728"/>
					
						<rect x="2760.853" y="2639.463" transform="matrix(0.7071 -0.7071 0.7071 0.7071 -1060.3827 2731.6628)" style="fill:#FFFFFF;" width="12.728" height="12.728"/>
					
						<rect x="2796.853" y="2801.463" transform="matrix(0.7071 -0.7071 0.7071 0.7071 -1164.3899 2804.5674)" style="fill:#FFFFFF;" width="12.728" height="12.728"/>
					
						<rect x="2760.853" y="2747.463" transform="matrix(0.7071 -0.7071 0.7071 0.7071 -1136.7502 2763.2952)" style="fill:#FFFFFF;" width="12.728" height="12.728"/>
					
						<rect x="2760.853" y="2855.463" transform="matrix(0.7071 -0.7071 0.7071 0.7071 -1213.1178 2794.9277)" style="fill:#FFFFFF;" width="12.728" height="12.728"/>
					
						<rect x="2724.853" y="2477.463" transform="matrix(0.7071 -0.7071 0.7071 0.7071 -956.3756 2658.7583)" style="fill:#FFFFFF;" width="12.728" height="12.728"/>
					
						<rect x="2688.853" y="2423.463" transform="matrix(0.7071 -0.7071 0.7071 0.7071 -928.736 2617.4861)" style="fill:#FFFFFF;" width="12.728" height="12.728"/>
					
						<rect x="2724.853" y="2585.463" transform="matrix(0.7071 -0.7071 0.7071 0.7071 -1032.7432 2690.3906)" style="fill:#FFFFFF;" width="12.728" height="12.728"/>
					
						<rect x="2688.853" y="2531.463" transform="matrix(0.7071 -0.7071 0.7071 0.7071 -1005.1035 2649.1187)" style="fill:#FFFFFF;" width="12.728" height="12.728"/>
					
						<rect x="2724.853" y="2693.463" transform="matrix(0.7071 -0.7071 0.7071 0.7071 -1109.1107 2722.0232)" style="fill:#FFFFFF;" width="12.728" height="12.728"/>
					
						<rect x="2688.853" y="2639.463" transform="matrix(0.7071 -0.7071 0.7071 0.7071 -1081.4711 2680.751)" style="fill:#FFFFFF;" width="12.728" height="12.728"/>
					
						<rect x="2724.853" y="2801.463" transform="matrix(0.7071 -0.7071 0.7071 0.7071 -1185.4781 2753.6558)" style="fill:#FFFFFF;" width="12.728" height="12.728"/>
					
						<rect x="2688.853" y="2747.463" transform="matrix(0.7071 -0.7071 0.7071 0.7071 -1157.8386 2712.3835)" style="fill:#FFFFFF;" width="12.728" height="12.728"/>
					
						<rect x="2724.853" y="2909.463" transform="matrix(0.7071 -0.7071 0.7071 0.7071 -1261.8457 2785.2881)" style="fill:#FFFFFF;" width="12.728" height="12.728"/>
					
						<rect x="2688.853" y="2855.463" transform="matrix(0.7071 -0.7071 0.7071 0.7071 -1234.2062 2744.0161)" style="fill:#FFFFFF;" width="12.728" height="12.728"/>
					
						<rect x="2688.853" y="2963.463" transform="matrix(0.7071 -0.7071 0.7071 0.7071 -1310.5736 2775.6484)" style="fill:#FFFFFF;" width="12.728" height="12.728"/>
					
						<rect x="2652.853" y="2477.463" transform="matrix(0.7071 -0.7071 0.7071 0.7071 -977.4639 2607.8464)" style="fill:#FFFFFF;" width="12.728" height="12.728"/>
					
						<rect x="2616.853" y="2423.463" transform="matrix(0.7071 -0.7071 0.7071 0.7071 -949.8243 2566.5745)" style="fill:#FFFFFF;" width="12.728" height="12.728"/>
					
						<rect x="2652.853" y="2585.463" transform="matrix(0.7071 -0.7071 0.7071 0.7071 -1053.8314 2639.479)" style="fill:#FFFFFF;" width="12.728" height="12.728"/>
					
						<rect x="2616.853" y="2531.463" transform="matrix(0.7071 -0.7071 0.7071 0.7071 -1026.1919 2598.207)" style="fill:#FFFFFF;" width="12.728" height="12.728"/>
					
						<rect x="2652.853" y="2693.463" transform="matrix(0.7071 -0.7071 0.7071 0.7071 -1130.199 2671.1116)" style="fill:#FFFFFF;" width="12.728" height="12.728"/>
					
						<rect x="2616.853" y="2639.463" transform="matrix(0.7071 -0.7071 0.7071 0.7071 -1102.5593 2629.8394)" style="fill:#FFFFFF;" width="12.728" height="12.728"/>
					
						<rect x="2652.853" y="2801.463" transform="matrix(0.7071 -0.7071 0.7071 0.7071 -1206.5665 2702.7439)" style="fill:#FFFFFF;" width="12.728" height="12.728"/>
					
						<rect x="2616.853" y="2747.463" transform="matrix(0.7071 -0.7071 0.7071 0.7071 -1178.9269 2661.4719)" style="fill:#FFFFFF;" width="12.728" height="12.728"/>
					
						<rect x="2652.853" y="2909.463" transform="matrix(0.7071 -0.7071 0.7071 0.7071 -1282.9341 2734.3765)" style="fill:#FFFFFF;" width="12.728" height="12.728"/>
					
						<rect x="2616.853" y="2855.463" transform="matrix(0.7071 -0.7071 0.7071 0.7071 -1255.2944 2693.1042)" style="fill:#FFFFFF;" width="12.728" height="12.728"/>
					
						<rect x="2652.853" y="3017.463" transform="matrix(0.7071 -0.7071 0.7071 0.7071 -1359.3016 2766.0088)" style="fill:#FFFFFF;" width="12.728" height="12.728"/>
					
						<rect x="2616.853" y="2963.463" transform="matrix(0.7071 -0.7071 0.7071 0.7071 -1331.662 2724.7368)" style="fill:#FFFFFF;" width="12.728" height="12.728"/>
					
						<rect x="2616.853" y="3071.463" transform="matrix(0.7071 -0.7071 0.7071 0.7071 -1408.0295 2756.3694)" style="fill:#FFFFFF;" width="12.728" height="12.728"/>
					
						<rect x="2580.853" y="2477.463" transform="matrix(0.7071 -0.7071 0.7071 0.7071 -998.5522 2556.9348)" style="fill:#FFFFFF;" width="12.728" height="12.728"/>
					
						<rect x="2580.853" y="2585.463" transform="matrix(0.7071 -0.7071 0.7071 0.7071 -1074.9198 2588.5674)" style="fill:#FFFFFF;" width="12.728" height="12.728"/>
					
						<rect x="2544.853" y="2531.463" transform="matrix(0.7071 -0.7071 0.7071 0.7071 -1047.2802 2547.2952)" style="fill:#FFFFFF;" width="12.728" height="12.728"/>
					
						<rect x="2580.853" y="2693.463" transform="matrix(0.7071 -0.7071 0.7071 0.7071 -1151.2872 2620.1997)" style="fill:#FFFFFF;" width="12.728" height="12.728"/>
					
						<rect x="2544.853" y="2639.463" transform="matrix(0.7071 -0.7071 0.7071 0.7071 -1123.6477 2578.9277)" style="fill:#FFFFFF;" width="12.728" height="12.728"/>
					
						<rect x="2580.853" y="2801.463" transform="matrix(0.7071 -0.7071 0.7071 0.7071 -1227.6548 2651.8323)" style="fill:#FFFFFF;" width="12.728" height="12.728"/>
					
						<rect x="2544.853" y="2747.463" transform="matrix(0.7071 -0.7071 0.7071 0.7071 -1200.0153 2610.5603)" style="fill:#FFFFFF;" width="12.728" height="12.728"/>
					
						<rect x="2580.853" y="2909.463" transform="matrix(0.7071 -0.7071 0.7071 0.7071 -1304.0223 2683.4648)" style="fill:#FFFFFF;" width="12.728" height="12.728"/>
					
						<rect x="2544.853" y="2855.463" transform="matrix(0.7071 -0.7071 0.7071 0.7071 -1276.3827 2642.1926)" style="fill:#FFFFFF;" width="12.728" height="12.728"/>
					
						<rect x="2580.853" y="3017.463" transform="matrix(0.7071 -0.7071 0.7071 0.7071 -1380.3899 2715.0972)" style="fill:#FFFFFF;" width="12.728" height="12.728"/>
					
						<rect x="2544.853" y="2963.463" transform="matrix(0.7071 -0.7071 0.7071 0.7071 -1352.7502 2673.8252)" style="fill:#FFFFFF;" width="12.728" height="12.728"/>
					
						<rect x="2580.853" y="3125.463" transform="matrix(0.7071 -0.7071 0.7071 0.7071 -1456.7574 2746.7297)" style="fill:#FFFFFF;" width="12.728" height="12.728"/>
					
						<rect x="2544.853" y="3071.463" transform="matrix(0.7071 -0.7071 0.7071 0.7071 -1429.1178 2705.4575)" style="fill:#FFFFFF;" width="12.728" height="12.728"/>
					
						<rect x="2544.853" y="3179.463" transform="matrix(0.7071 -0.7071 0.7071 0.7071 -1505.4854 2737.0901)" style="fill:#FFFFFF;" width="12.728" height="12.728"/>
					
						<rect x="2508.853" y="2585.463" transform="matrix(0.7071 -0.7071 0.7071 0.7071 -1096.0081 2537.6558)" style="fill:#FFFFFF;" width="12.728" height="12.728"/>
					
						<rect x="2508.853" y="2693.463" transform="matrix(0.7071 -0.7071 0.7071 0.7071 -1172.3756 2569.2881)" style="fill:#FFFFFF;" width="12.728" height="12.728"/>
					
						<rect x="2472.853" y="2639.463" transform="matrix(0.7071 -0.7071 0.7071 0.7071 -1144.736 2528.0161)" style="fill:#FFFFFF;" width="12.728" height="12.728"/>
					
						<rect x="2508.853" y="2801.463" transform="matrix(0.7071 -0.7071 0.7071 0.7071 -1248.7432 2600.9207)" style="fill:#FFFFFF;" width="12.728" height="12.728"/>
					
						<rect x="2472.853" y="2747.463" transform="matrix(0.7071 -0.7071 0.7071 0.7071 -1221.1035 2559.6484)" style="fill:#FFFFFF;" width="12.728" height="12.728"/>
					
						<rect x="2508.853" y="2909.463" transform="matrix(0.7071 -0.7071 0.7071 0.7071 -1325.1107 2632.553)" style="fill:#FFFFFF;" width="12.728" height="12.728"/>
					
						<rect x="2472.853" y="2855.463" transform="matrix(0.7071 -0.7071 0.7071 0.7071 -1297.4711 2591.281)" style="fill:#FFFFFF;" width="12.728" height="12.728"/>
					
						<rect x="2508.853" y="3017.463" transform="matrix(0.7071 -0.7071 0.7071 0.7071 -1401.4781 2664.1855)" style="fill:#FFFFFF;" width="12.728" height="12.728"/>
					
						<rect x="2472.853" y="2963.463" transform="matrix(0.7071 -0.7071 0.7071 0.7071 -1373.8386 2622.9133)" style="fill:#FFFFFF;" width="12.728" height="12.728"/>
					
						<rect x="2508.853" y="3125.463" transform="matrix(0.7071 -0.7071 0.7071 0.7071 -1477.8457 2695.8179)" style="fill:#FFFFFF;" width="12.728" height="12.728"/>
					
						<rect x="2472.853" y="3071.463" transform="matrix(0.7071 -0.7071 0.7071 0.7071 -1450.2062 2654.5459)" style="fill:#FFFFFF;" width="12.728" height="12.728"/>
					
						<rect x="2508.853" y="3233.463" transform="matrix(0.7071 -0.7071 0.7071 0.7071 -1554.2133 2727.4504)" style="fill:#FFFFFF;" width="12.728" height="12.728"/>
					
						<rect x="2472.853" y="3179.463" transform="matrix(0.7071 -0.7071 0.7071 0.7071 -1526.5736 2686.1785)" style="fill:#FFFFFF;" width="12.728" height="12.728"/>
					
						<rect x="2472.853" y="3287.463" transform="matrix(0.7071 -0.7071 0.7071 0.7071 -1602.9412 2717.8108)" style="fill:#FFFFFF;" width="12.728" height="12.728"/>
					
						<rect x="2436.853" y="2693.463" transform="matrix(0.7071 -0.7071 0.7071 0.7071 -1193.4639 2518.3765)" style="fill:#FFFFFF;" width="12.728" height="12.728"/>
					
						<rect x="2436.853" y="2801.463" transform="matrix(0.7071 -0.7071 0.7071 0.7071 -1269.8314 2550.0088)" style="fill:#FFFFFF;" width="12.728" height="12.728"/>
					
						<rect x="2400.853" y="2747.463" transform="matrix(0.7071 -0.7071 0.7071 0.7071 -1242.1919 2508.7368)" style="fill:#FFFFFF;" width="12.728" height="12.728"/>
					
						<rect x="2436.853" y="2909.463" transform="matrix(0.7071 -0.7071 0.7071 0.7071 -1346.199 2581.6414)" style="fill:#FFFFFF;" width="12.728" height="12.728"/>
					
						<rect x="2400.853" y="2855.463" transform="matrix(0.7071 -0.7071 0.7071 0.7071 -1318.5593 2540.3694)" style="fill:#FFFFFF;" width="12.728" height="12.728"/>
					
						<rect x="2436.853" y="3017.463" transform="matrix(0.7071 -0.7071 0.7071 0.7071 -1422.5665 2613.2739)" style="fill:#FFFFFF;" width="12.728" height="12.728"/>
					
						<rect x="2400.853" y="2963.463" transform="matrix(0.7071 -0.7071 0.7071 0.7071 -1394.9269 2572.0017)" style="fill:#FFFFFF;" width="12.728" height="12.728"/>
					
						<rect x="2436.853" y="3125.463" transform="matrix(0.7071 -0.7071 0.7071 0.7071 -1498.9341 2644.9062)" style="fill:#FFFFFF;" width="12.728" height="12.728"/>
					
						<rect x="2400.853" y="3071.463" transform="matrix(0.7071 -0.7071 0.7071 0.7071 -1471.2944 2603.6343)" style="fill:#FFFFFF;" width="12.728" height="12.728"/>
					
						<rect x="2436.853" y="3233.463" transform="matrix(0.7071 -0.7071 0.7071 0.7071 -1575.3016 2676.5388)" style="fill:#FFFFFF;" width="12.728" height="12.728"/>
					
						<rect x="2400.853" y="3179.463" transform="matrix(0.7071 -0.7071 0.7071 0.7071 -1547.662 2635.2666)" style="fill:#FFFFFF;" width="12.728" height="12.728"/>
					
						<rect x="2436.853" y="3341.463" transform="matrix(0.7071 -0.7071 0.7071 0.7071 -1651.6691 2708.1711)" style="fill:#FFFFFF;" width="12.728" height="12.728"/>
					
						<rect x="2400.853" y="3287.463" transform="matrix(0.7071 -0.7071 0.7071 0.7071 -1624.0295 2666.8992)" style="fill:#FFFFFF;" width="12.728" height="12.728"/>
					
						<rect x="2400.853" y="3395.463" transform="matrix(0.7071 -0.7071 0.7071 0.7071 -1700.397 2698.5317)" style="fill:#FFFFFF;" width="12.728" height="12.728"/>
					
						<rect x="2364.853" y="2801.463" transform="matrix(0.7071 -0.7071 0.7071 0.7071 -1290.9198 2499.0972)" style="fill:#FFFFFF;" width="12.728" height="12.728"/>
					
						<rect x="2364.853" y="2909.463" transform="matrix(0.7071 -0.7071 0.7071 0.7071 -1367.2872 2530.7297)" style="fill:#FFFFFF;" width="12.728" height="12.728"/>
					
						<rect x="2328.853" y="2855.463" transform="matrix(0.7071 -0.7071 0.7071 0.7071 -1339.6477 2489.4575)" style="fill:#FFFFFF;" width="12.728" height="12.728"/>
					
						<rect x="2364.853" y="3017.463" transform="matrix(0.7071 -0.7071 0.7071 0.7071 -1443.6548 2562.3621)" style="fill:#FFFFFF;" width="12.728" height="12.728"/>
					
						<rect x="2364.853" y="3125.463" transform="matrix(0.7071 -0.7071 0.7071 0.7071 -1520.0223 2593.9946)" style="fill:#FFFFFF;" width="12.728" height="12.728"/>
					
						<rect x="2328.853" y="3071.463" transform="matrix(0.7071 -0.7071 0.7071 0.7071 -1492.3827 2552.7224)" style="fill:#FFFFFF;" width="12.728" height="12.728"/>
					
						<rect x="2364.853" y="3233.463" transform="matrix(0.7071 -0.7071 0.7071 0.7071 -1596.3899 2625.627)" style="fill:#FFFFFF;" width="12.728" height="12.728"/>
					
						<rect x="2328.853" y="3179.463" transform="matrix(0.7071 -0.7071 0.7071 0.7071 -1568.7502 2584.355)" style="fill:#FFFFFF;" width="12.728" height="12.728"/>
					
						<rect x="2364.853" y="3341.463" transform="matrix(0.7071 -0.7071 0.7071 0.7071 -1672.7574 2657.2595)" style="fill:#FFFFFF;" width="12.728" height="12.728"/>
					
						<rect x="2328.853" y="3287.463" transform="matrix(0.7071 -0.7071 0.7071 0.7071 -1645.1178 2615.9875)" style="fill:#FFFFFF;" width="12.728" height="12.728"/>
					<polygon style="fill:#FFFFFF;" points="2362.217,3455.827 2364.434,3458.044 2371.217,3464.827 2378,3458.044 
						2380.217,3455.827 2371.217,3446.827 					"/>
					
						<rect x="2328.853" y="3395.463" transform="matrix(0.7071 -0.7071 0.7071 0.7071 -1721.4854 2647.6199)" style="fill:#FFFFFF;" width="12.728" height="12.728"/>
					
						<rect x="2328.853" y="3503.463" transform="matrix(0.7071 -0.7071 0.7071 0.7071 -1797.8529 2679.2524)" style="fill:#FFFFFF;" width="12.728" height="12.728"/>
					
						<rect x="2292.853" y="2909.463" transform="matrix(0.7071 -0.7071 0.7071 0.7071 -1388.3756 2479.8179)" style="fill:#FFFFFF;" width="12.728" height="12.728"/>
					
						<rect x="2292.853" y="3125.463" transform="matrix(0.7071 -0.7071 0.7071 0.7071 -1541.1107 2543.083)" style="fill:#FFFFFF;" width="12.728" height="12.728"/>
					
						<rect x="2292.853" y="3233.463" transform="matrix(0.7071 -0.7071 0.7071 0.7071 -1617.4781 2574.7153)" style="fill:#FFFFFF;" width="12.728" height="12.728"/>
					
						<rect x="2256.853" y="3179.463" transform="matrix(0.7071 -0.7071 0.7071 0.7071 -1589.8386 2533.4434)" style="fill:#FFFFFF;" width="12.728" height="12.728"/>
					
						<rect x="2292.853" y="3341.463" transform="matrix(0.7071 -0.7071 0.7071 0.7071 -1693.8457 2606.3479)" style="fill:#FFFFFF;" width="12.728" height="12.728"/>
					
						<rect x="2256.853" y="3287.463" transform="matrix(0.7071 -0.7071 0.7071 0.7071 -1666.2062 2565.0757)" style="fill:#FFFFFF;" width="12.728" height="12.728"/>
					<polygon style="fill:#FFFFFF;" points="2290.217,3455.827 2292.434,3458.044 2299.217,3464.827 2306,3458.044 
						2308.217,3455.827 2299.217,3446.827 					"/>
					
						<rect x="2256.853" y="3395.463" transform="matrix(0.7071 -0.7071 0.7071 0.7071 -1742.5736 2596.7083)" style="fill:#FFFFFF;" width="12.728" height="12.728"/>
					
						<rect x="2256.853" y="3503.463" transform="matrix(0.7071 -0.7071 0.7071 0.7071 -1818.9412 2628.3408)" style="fill:#FFFFFF;" width="12.728" height="12.728"/>
					
						<rect x="2220.853" y="3233.463" transform="matrix(0.7071 -0.7071 0.7071 0.7071 -1638.5665 2523.8037)" style="fill:#FFFFFF;" width="12.728" height="12.728"/>
					
						<rect x="2220.853" y="3341.463" transform="matrix(0.7071 -0.7071 0.7071 0.7071 -1714.9341 2555.4363)" style="fill:#FFFFFF;" width="12.728" height="12.728"/>
					
						<rect x="2184.853" y="3287.463" transform="matrix(0.7071 -0.7071 0.7071 0.7071 -1687.2944 2514.1641)" style="fill:#FFFFFF;" width="12.728" height="12.728"/>
					<polygon style="fill:#FFFFFF;" points="2218.217,3455.827 2220.434,3458.044 2227.217,3464.827 2234,3458.044 
						2236.217,3455.827 2227.217,3446.827 					"/>
					
						<rect x="2184.853" y="3395.463" transform="matrix(0.7071 -0.7071 0.7071 0.7071 -1763.662 2545.7966)" style="fill:#FFFFFF;" width="12.728" height="12.728"/>
					
						<rect x="2184.853" y="3503.463" transform="matrix(0.7071 -0.7071 0.7071 0.7071 -1840.0295 2577.429)" style="fill:#FFFFFF;" width="12.728" height="12.728"/>
					
						<rect x="2148.853" y="3341.463" transform="matrix(0.7071 -0.7071 0.7071 0.7071 -1736.0223 2504.5244)" style="fill:#FFFFFF;" width="12.728" height="12.728"/>
					<polygon style="fill:#FFFFFF;" points="2146.217,3455.827 2148.434,3458.044 2155.217,3464.827 2162,3458.044 
						2164.217,3455.827 2155.217,3446.827 					"/>
					
						<rect x="2112.853" y="3395.463" transform="matrix(0.7071 -0.7071 0.7071 0.7071 -1784.7502 2494.8848)" style="fill:#FFFFFF;" width="12.728" height="12.728"/>
					
						<rect x="2112.853" y="3503.463" transform="matrix(0.7071 -0.7071 0.7071 0.7071 -1861.1178 2526.5173)" style="fill:#FFFFFF;" width="12.728" height="12.728"/>
					<polygon style="fill:#FFFFFF;" points="2074.217,3455.827 2076.434,3458.044 2083.217,3464.827 2090,3458.044 
						2092.217,3455.827 2083.217,3446.827 					"/>
					
						<rect x="2040.853" y="3503.463" transform="matrix(0.7071 -0.7071 0.7071 0.7071 -1882.2062 2475.6055)" style="fill:#FFFFFF;" width="12.728" height="12.728"/>
					
						<rect x="2328.853" y="2963.463" transform="matrix(0.7071 -0.7071 0.7071 0.7071 -1416.0153 2521.0901)" style="fill:#FFFFFF;" width="12.728" height="12.728"/>
					
						<rect x="2292.853" y="3017.463" transform="matrix(0.7071 -0.7071 0.7071 0.7071 -1464.7432 2511.4504)" style="fill:#FFFFFF;" width="12.728" height="12.728"/>
					
						<rect x="2256.853" y="2963.463" transform="matrix(0.7071 -0.7071 0.7071 0.7071 -1437.1035 2470.1785)" style="fill:#FFFFFF;" width="12.728" height="12.728"/>
					
						<rect x="2256.853" y="3071.463" transform="matrix(0.7071 -0.7071 0.7071 0.7071 -1513.4711 2501.8108)" style="fill:#FFFFFF;" width="12.728" height="12.728"/>
					
						<rect x="2220.853" y="3017.463" transform="matrix(0.7071 -0.7071 0.7071 0.7071 -1485.8314 2460.5388)" style="fill:#FFFFFF;" width="12.728" height="12.728"/>
					
						<rect x="2220.853" y="3125.463" transform="matrix(0.7071 -0.7071 0.7071 0.7071 -1562.199 2492.1711)" style="fill:#FFFFFF;" width="12.728" height="12.728"/>
					
						<rect x="2184.853" y="3071.463" transform="matrix(0.7071 -0.7071 0.7071 0.7071 -1534.5593 2450.8992)" style="fill:#FFFFFF;" width="12.728" height="12.728"/>
					
						<rect x="2184.853" y="3179.463" transform="matrix(0.7071 -0.7071 0.7071 0.7071 -1610.9269 2482.5317)" style="fill:#FFFFFF;" width="12.728" height="12.728"/>
					
						<rect x="2148.853" y="3125.463" transform="matrix(0.7071 -0.7071 0.7071 0.7071 -1583.2872 2441.2595)" style="fill:#FFFFFF;" width="12.728" height="12.728"/>
					
						<rect x="2148.853" y="3233.463" transform="matrix(0.7071 -0.7071 0.7071 0.7071 -1659.6548 2472.8921)" style="fill:#FFFFFF;" width="12.728" height="12.728"/>
					
						<rect x="2112.853" y="3179.463" transform="matrix(0.7071 -0.7071 0.7071 0.7071 -1632.0153 2431.6199)" style="fill:#FFFFFF;" width="12.728" height="12.728"/>
					
						<rect x="2112.853" y="3287.463" transform="matrix(0.7071 -0.7071 0.7071 0.7071 -1708.3827 2463.2524)" style="fill:#FFFFFF;" width="12.728" height="12.728"/>
					
						<rect x="2076.853" y="3233.463" transform="matrix(0.7071 -0.7071 0.7071 0.7071 -1680.7432 2421.9802)" style="fill:#FFFFFF;" width="12.728" height="12.728"/>
					
						<rect x="2076.853" y="3341.463" transform="matrix(0.7071 -0.7071 0.7071 0.7071 -1757.1107 2453.6125)" style="fill:#FFFFFF;" width="12.728" height="12.728"/>
					
						<rect x="2040.853" y="3287.463" transform="matrix(0.7071 -0.7071 0.7071 0.7071 -1729.4712 2412.3406)" style="fill:#FFFFFF;" width="12.728" height="12.728"/>
					
						<rect x="2040.853" y="3395.463" transform="matrix(0.7071 -0.7071 0.7071 0.7071 -1805.8386 2443.9729)" style="fill:#FFFFFF;" width="12.728" height="12.728"/>
					<polygon style="fill:#FFFFFF;" points="2951,1815.037 2910.914,1815.037 2904.905,1815.037 2864.819,1815.037 
						2858.81,1815.037 2818.724,1815.037 2812.714,1815.037 2772.628,1815.037 2766.619,1815.037 2726.533,1815.037 
						2720.524,1815.037 2680.438,1815.037 2674.429,1815.037 2634.343,1815.037 2628.333,1815.037 2588.248,1815.037 
						2582.238,1815.037 2542.152,1815.037 2536.143,1815.037 2496.057,1815.037 2490.048,1815.037 2449.962,1815.037 
						2443.953,1815.037 2403.867,1815.037 2397.857,1815.037 2357.771,1815.037 2351.762,1815.037 2311.676,1815.037 
						2305.667,1815.037 2265.581,1815.037 2259.571,1815.037 2219.486,1815.037 2213.477,1815.037 2173.39,1815.037 
						2167.381,1815.037 2127.295,1815.037 2121.286,1815.037 2081.2,1815.037 2075.191,1815.037 2035.104,1815.037 
						2029.095,1815.037 2028.891,1815.037 2028.891,1816.037 2028.891,1874.603 2953.717,1874.603 2993.045,1816.037 
						2993.717,1815.037 2957.009,1815.037 					"/>
				</g>
			</g>
		</g>
	</g>
	<g>
		<defs>
			<polygon id="SVGID_5_" points="618.784,2163.648 634.69,2160.34 650.571,2157.133 666.456,2154.018 681.516,2151.16 
				696.522,2148.404 711.55,2145.74 727.622,2142.992 742.616,2140.242 756.554,2137.859 770.501,2135.65 784.509,2133.609 
				799.981,2131.537 815.536,2129.631 831.071,2127.904 847.128,2126.299 859.901,2125.055 872.276,2123.992 884.667,2123.07 
				897.263,2122.279 934.379,2120.236 971.802,2118.332 1009.112,2116.586 1045.314,2115.043 1135.793,2113.436 1135.792,426.156 
				1087.641,421.984 1082.305,421.448 1076.588,420.681 1074.416,420.335 1066.487,418.79 1058.258,417.02 1050.148,415.107 
				1042.179,413.06 1037.881,411.842 1033.841,410.542 1029.893,409.118 1026.753,407.857 1024.812,406.913 1022.043,405.469 
				1019.302,403.941 1016.604,402.339 1013.972,400.675 1011.38,398.932 1008.841,397.12 1006.44,395.306 1002.814,392.372 
				998.964,389.15 995.155,385.852 991.415,382.502 987.722,379.082 984.09,375.603 980.527,372.074 977.002,368.463 
				973.308,364.556 969.671,360.583 966.094,356.547 962.586,352.463 959.138,348.316 955.763,344.125 952.457,339.883 
				930.796,311.161 892.647,320.936 883.801,323.298 874.979,325.745 866.278,328.25 856.346,331.209 846.518,334.23 
				836.717,337.335 826.972,340.515 826.343,340.729 825.399,341.074 813.446,345.576 801.671,350.204 789.546,355.171 
				777.886,360.14 777.169,360.454 776.151,360.936 770.845,363.516 765.472,366.317 759.589,369.607 754.983,372.348 
				744.659,378.344 733.997,384.885 727.505,389.165 726.997,389.509 726.229,390.052 720.118,394.466 719.405,395.012 
				709.487,402.764 699.659,410.892 689.778,419.549 680.733,427.931 679.507,429.12 678.335,430.363 669.196,440.495 
				660.477,450.426 651.661,460.74 634.641,481.21 634.071,481.945 629.446,487.989 625.339,493.725 622.347,497.913 
				616.964,505.869 611.808,513.845 606.866,521.863 600.81,532.179 593.761,544.564 586.88,557.05 580.231,569.501 
				576.923,575.854 546.134,636.27 541.534,645.799 537.181,654.272 532.511,662.833 524.688,676.434 522.141,680.747 
				519.583,684.932 516.946,689.102 514.263,693.201 511.491,697.297 508.784,701.17 502.977,709.083 500.327,712.514 
				497.503,716.048 494.61,719.548 491.677,722.983 488.679,726.381 485.63,729.722 484.046,731.403 483.477,731.882 
				481.632,733.304 479.729,734.637 477.69,735.933 474.558,737.75 471.278,739.495 467.934,741.123 431.036,757.449 
				445.153,834.035 452.481,875.353 459.52,916.674 466.284,958.059 472.77,999.509 478.97,1040.958 484.891,1082.474 
				490.54,1124.067 495.893,1165.603 500.977,1207.271 505.768,1248.895 510.288,1290.618 514.518,1332.301 518.47,1374.078 
				522.14,1415.859 525.524,1457.625 528.339,1495.74 530.868,1533.825 533.116,1571.947 535.081,1610.086 536.763,1648.252 
				538.163,1686.412 539.278,1724.578 540.112,1762.783 540.661,1800.928 540.927,1839.141 540.909,1877.324 540.61,1915.537 
				540.026,1953.683 539.159,1991.885 538.009,2030.049 532.298,2182.16 			"/>
		</defs>
		<clipPath id="SVGID_6_">
			<use xlink:href="#SVGID_5_"  style="overflow:visible;"/>
		</clipPath>
		<g style="clip-path:url(#SVGID_6_);">
			<g>
				<g>
					<polygon style="fill:#FFFFFF;" points="514.596,593.964 395.466,772.659 435.552,772.659 554.682,593.964 					"/>
					<polygon style="fill:#FFFFFF;" points="837.263,593.964 718.133,772.659 758.219,772.659 877.349,593.964 					"/>
					<polygon style="fill:#FFFFFF;" points="652.882,593.964 533.752,772.659 573.838,772.659 692.968,593.964 					"/>
					<polygon style="fill:#FFFFFF;" points="560.691,593.964 441.561,772.659 481.648,772.659 600.778,593.964 					"/>
					<polygon style="fill:#FFFFFF;" points="698.977,593.964 579.847,772.659 619.933,772.659 739.064,593.964 					"/>
					<polygon style="fill:#FFFFFF;" points="791.168,593.964 672.038,772.659 712.124,772.659 831.254,593.964 					"/>
					<polygon style="fill:#FFFFFF;" points="745.073,593.964 625.943,772.659 666.029,772.659 785.159,593.964 					"/>
					<polygon style="fill:#FFFFFF;" points="606.787,593.964 487.657,772.659 527.743,772.659 646.873,593.964 					"/>
					<polygon style="fill:#FFFFFF;" points="1173.076,772.659 1292.206,593.964 1252.12,593.964 1132.99,772.659 					"/>
					<polygon style="fill:#FFFFFF;" points="1080.886,772.659 1200.016,593.964 1159.93,593.964 1040.8,772.659 					"/>
					<polygon style="fill:#FFFFFF;" points="1126.981,772.659 1246.111,593.964 1206.025,593.964 1086.895,772.659 					"/>
					<polygon style="fill:#FFFFFF;" points="508.587,593.964 468.501,593.964 351.057,770.13 351.057,772.659 389.457,772.659 					
						"/>
					<polygon style="fill:#FFFFFF;" points="1215.793,772.659 1335.793,593.964 1298.215,593.964 1179.085,772.659 					"/>
					<polygon style="fill:#FFFFFF;" points="422.406,593.964 351.057,700.987 351.057,761.116 462.492,593.964 					"/>
					<polygon style="fill:#FFFFFF;" points="1034.791,772.659 1153.921,593.964 1113.835,593.964 994.704,772.659 					"/>
					<polygon style="fill:#FFFFFF;" points="351.057,593.964 351.057,622.831 370.302,593.964 					"/>
					<polygon style="fill:#FFFFFF;" points="376.311,593.964 351.057,631.844 351.057,691.973 416.397,593.964 					"/>
					<polygon style="fill:#FFFFFF;" points="883.358,593.964 764.228,772.659 804.315,772.659 923.445,593.964 					"/>
					<polygon style="fill:#FFFFFF;" points="1021.644,593.964 902.514,772.659 942.6,772.659 1061.73,593.964 					"/>
					<polygon style="fill:#FFFFFF;" points="1067.739,593.964 948.609,772.659 988.695,772.659 1107.826,593.964 					"/>
					<polygon style="fill:#FFFFFF;" points="975.549,593.964 856.419,772.659 896.505,772.659 1015.635,593.964 					"/>
					<polygon style="fill:#FFFFFF;" points="929.454,593.964 810.324,772.659 850.41,772.659 969.54,593.964 					"/>
				</g>
			</g>
		</g>
	</g>
	<g>
		<defs>
			<polygon id="SVGID_7_" points="1674.768,2163.648 1658.861,2160.34 1642.98,2157.133 1627.096,2154.018 1612.035,2151.16 
				1597.029,2148.404 1582.002,2145.74 1565.93,2142.992 1550.936,2140.242 1536.998,2137.859 1523.051,2135.65 1509.043,2133.609 
				1493.57,2131.537 1478.016,2129.631 1462.48,2127.904 1446.424,2126.299 1433.65,2125.055 1421.275,2123.992 1408.885,2123.07 
				1396.289,2122.279 1359.173,2120.236 1321.75,2118.332 1284.44,2116.586 1248.237,2115.043 1157.759,2113.436 1157.76,426.156 
				1205.91,421.984 1211.247,421.448 1216.963,420.681 1219.135,420.335 1227.064,418.79 1235.293,417.02 1243.404,415.107 
				1251.373,413.06 1255.67,411.842 1259.71,410.542 1263.659,409.118 1266.799,407.857 1268.739,406.913 1271.509,405.469 
				1274.25,403.941 1276.948,402.339 1279.58,400.675 1282.171,398.932 1284.711,397.12 1287.111,395.306 1290.737,392.372 
				1294.588,389.15 1298.396,385.852 1302.137,382.502 1305.83,379.082 1309.461,375.603 1313.024,372.074 1316.55,368.463 
				1320.243,364.556 1323.88,360.583 1327.458,356.547 1330.966,352.463 1334.414,348.316 1337.789,344.125 1341.095,339.883 
				1362.756,311.161 1400.904,320.936 1409.751,323.298 1418.572,325.745 1427.273,328.25 1437.206,331.209 1447.033,334.23 
				1456.835,337.335 1466.58,340.515 1467.209,340.729 1468.152,341.074 1480.105,345.576 1491.881,350.204 1504.006,355.171 
				1515.666,360.14 1516.383,360.454 1517.4,360.936 1522.707,363.516 1528.08,366.317 1533.963,369.607 1538.568,372.348 
				1548.893,378.344 1559.555,384.885 1566.047,389.165 1566.555,389.509 1567.322,390.052 1573.434,394.466 1574.146,395.012 
				1584.064,402.764 1593.893,410.892 1603.773,419.549 1612.818,427.931 1614.045,429.12 1615.217,430.363 1624.355,440.495 
				1633.074,450.426 1641.891,460.74 1658.91,481.21 1659.48,481.945 1664.105,487.989 1668.213,493.725 1671.205,497.913 
				1676.588,505.869 1681.744,513.845 1686.686,521.863 1692.742,532.179 1699.791,544.564 1706.672,557.05 1713.32,569.501 
				1716.629,575.854 1747.418,636.27 1752.018,645.799 1756.371,654.272 1761.041,662.833 1768.863,676.434 1771.41,680.747 
				1773.969,684.932 1776.605,689.102 1779.289,693.201 1782.061,697.297 1784.768,701.17 1790.574,709.083 1793.225,712.514 
				1796.049,716.048 1798.941,719.548 1801.875,722.983 1804.873,726.381 1807.922,729.722 1809.506,731.403 1810.074,731.882 
				1811.92,733.304 1813.822,734.637 1815.861,735.933 1818.994,737.75 1822.273,739.495 1825.617,741.123 1862.516,757.449 
				1848.398,834.035 1841.07,875.353 1834.031,916.674 1827.268,958.059 1820.781,999.509 1814.582,1040.958 1808.66,1082.474 
				1803.012,1124.067 1797.658,1165.603 1792.574,1207.271 1787.783,1248.895 1783.264,1290.618 1779.033,1332.301 
				1775.082,1374.078 1771.412,1415.859 1768.027,1457.625 1765.213,1495.74 1762.684,1533.825 1760.436,1571.947 
				1758.471,1610.086 1756.789,1648.252 1755.389,1686.412 1754.273,1724.578 1753.439,1762.783 1752.891,1800.928 
				1752.625,1839.141 1752.643,1877.324 1752.941,1915.537 1753.525,1953.683 1754.393,1991.885 1755.543,2030.049 
				1761.254,2182.16 			"/>
		</defs>
		<clipPath id="SVGID_8_">
			<use xlink:href="#SVGID_7_"  style="overflow:visible;"/>
		</clipPath>
		<g style="clip-path:url(#SVGID_8_);">
			<g>
				<g>
					<polygon style="fill:#FFFFFF;" points="604.596,593.964 485.466,772.659 525.552,772.659 644.682,593.964 					"/>
					<polygon style="fill:#FFFFFF;" points="927.263,593.964 808.133,772.659 848.219,772.659 967.349,593.964 					"/>
					<polygon style="fill:#FFFFFF;" points="742.882,593.964 623.752,772.659 663.838,772.659 782.968,593.964 					"/>
					<polygon style="fill:#FFFFFF;" points="650.691,593.964 531.561,772.659 571.648,772.659 690.778,593.964 					"/>
					<polygon style="fill:#FFFFFF;" points="788.977,593.964 669.847,772.659 709.933,772.659 829.064,593.964 					"/>
					<polygon style="fill:#FFFFFF;" points="881.168,593.964 762.038,772.659 802.124,772.659 921.254,593.964 					"/>
					<polygon style="fill:#FFFFFF;" points="835.073,593.964 715.943,772.659 756.029,772.659 875.159,593.964 					"/>
					<polygon style="fill:#FFFFFF;" points="696.787,593.964 577.657,772.659 617.743,772.659 736.873,593.964 					"/>
					<polygon style="fill:#FFFFFF;" points="1263.076,772.659 1382.206,593.964 1342.12,593.964 1222.99,772.659 					"/>
					<polygon style="fill:#FFFFFF;" points="1170.886,772.659 1290.016,593.964 1249.93,593.964 1130.8,772.659 					"/>
					<polygon style="fill:#FFFFFF;" points="1216.981,772.659 1336.111,593.964 1296.025,593.964 1176.895,772.659 					"/>
					<polygon style="fill:#FFFFFF;" points="598.587,593.964 558.501,593.964 441.057,770.13 441.057,772.659 479.457,772.659 					
						"/>
					<polygon style="fill:#FFFFFF;" points="1305.793,772.659 1425.793,593.964 1388.215,593.964 1269.085,772.659 					"/>
					<polygon style="fill:#FFFFFF;" points="512.406,593.964 441.057,700.987 441.057,761.116 552.492,593.964 					"/>
					<polygon style="fill:#FFFFFF;" points="1124.791,772.659 1243.921,593.964 1203.835,593.964 1084.704,772.659 					"/>
					<polygon style="fill:#FFFFFF;" points="441.057,593.964 441.057,622.831 460.302,593.964 					"/>
					<polygon style="fill:#FFFFFF;" points="466.311,593.964 441.057,631.844 441.057,691.973 506.397,593.964 					"/>
					<polygon style="fill:#FFFFFF;" points="973.358,593.964 854.228,772.659 894.315,772.659 1013.445,593.964 					"/>
					<polygon style="fill:#FFFFFF;" points="1111.644,593.964 992.514,772.659 1032.6,772.659 1151.73,593.964 					"/>
					<polygon style="fill:#FFFFFF;" points="1157.739,593.964 1038.609,772.659 1078.695,772.659 1197.826,593.964 					"/>
					<polygon style="fill:#FFFFFF;" points="1065.549,593.964 946.419,772.659 986.505,772.659 1105.635,593.964 					"/>
					<polygon style="fill:#FFFFFF;" points="1019.454,593.964 900.324,772.659 940.41,772.659 1059.54,593.964 					"/>
				</g>
			</g>
		</g>
	</g>
</g>
</svg>
