<svg xmlns="http://www.w3.org/2000/svg" width="94.96" height="67.43" viewBox="0 0 94.96 67.43"><defs><style>
      .a {
        fill: #fff;
      }
    </style></defs><g><g><path class="a" d="M17.37,13.52l-.69,3.36s-.82.48-1.22.73a19.39,19.39,0,0,0-7.23,7.56c-2.79,5.41-1.79,10.4,1.93,15,2.94,3.62,6.82,6,11,7.91A61.12,61.12,0,0,0,40.69,53a1.82,1.82,0,0,0,.54,0c-.35-1.87-1.16-6.06-1.16-6.06L53.72,57.22,40.36,67.43l.85-6.3S35,60.32,32,59.72c-9-1.81-17.6-4.84-24.67-11.06C3.63,45.41.88,41.54.17,36.53c-.78-5.43,1.17-10,4.65-14A36.45,36.45,0,0,1,16.93,13.7C17,13.66,17.16,13.59,17.37,13.52Z"></path><path class="a" d="M59.62,57.23l-5.45-4.18s3.46-.46,5-.71a51.67,51.67,0,0,0,19.57-7A23.17,23.17,0,0,0,85.65,39c3.67-5.31,3.62-11-.39-16.07a25,25,0,0,0-5.33-5L79,17.35l-.69-3.43s.63.24.91.39c5,2.59,9.54,5.81,12.74,10.62a16.35,16.35,0,0,1-.26,19.17c-3.47,4.95-8.29,8.22-13.65,10.78a65.61,65.61,0,0,1-21.42,5.81l-1.24.15Z"></path></g><g><path class="a" d="M43,19.81a7.67,7.67,0,0,1-.9,3.81,7.94,7.94,0,0,1-2.35,2.66,10.3,10.3,0,0,1-3.27,1.56,13.58,13.58,0,0,1-3.69.51,15.18,15.18,0,0,1-3.58-.42A11.25,11.25,0,0,1,26,26.66a9.25,9.25,0,0,1-2.51-2.21,9,9,0,0,1-1.6-3.24l6-1.56A4.82,4.82,0,0,0,29.45,22a4.46,4.46,0,0,0,3,1,5.24,5.24,0,0,0,1.4-.19,3.84,3.84,0,0,0,1.26-.59,3.1,3.1,0,0,0,.92-1,3.26,3.26,0,0,0,.36-1.6,2.92,2.92,0,0,0-.48-1.71,3.31,3.31,0,0,0-1.26-1.08,5.91,5.91,0,0,0-1.78-.57,11.06,11.06,0,0,0-2-.17H29.18V11.4h1.88a11.12,11.12,0,0,0,1.76-.13,4.8,4.8,0,0,0,1.51-.5,3,3,0,0,0,1.07-1,2.89,2.89,0,0,0,.4-1.61,2.59,2.59,0,0,0-1-2.22,3.88,3.88,0,0,0-2.37-.76A3.7,3.7,0,0,0,30,6a3.76,3.76,0,0,0-1.32,2.19l-6-1.37a8.78,8.78,0,0,1,1.49-3,9.17,9.17,0,0,1,2.35-2.13,11,11,0,0,1,3-1.29A12.49,12.49,0,0,1,32.82,0a13.29,13.29,0,0,1,3.5.46,9.31,9.31,0,0,1,3,1.41,7.43,7.43,0,0,1,2.16,2.37,6.63,6.63,0,0,1,.82,3.37,5.76,5.76,0,0,1-1.28,3.79,6.24,6.24,0,0,1-3.27,2.07v.12a6.92,6.92,0,0,1,2.1.85,6.8,6.8,0,0,1,1.65,1.4,6.47,6.47,0,0,1,1.07,1.83A6.06,6.06,0,0,1,43,19.81Z"></path><path class="a" d="M73.47,14.1a13.19,13.19,0,0,1-1.32,6.1,12.41,12.41,0,0,1-3.48,4.22,14.56,14.56,0,0,1-4.87,2.43,19.93,19.93,0,0,1-5.51.78H48.19V.72H58a24,24,0,0,1,5.66.67,14.27,14.27,0,0,1,5,2.2,11.26,11.26,0,0,1,3.52,4.12A13.73,13.73,0,0,1,73.47,14.1Zm-6.81,0a8.43,8.43,0,0,0-.74-3.78,6.45,6.45,0,0,0-2-2.4A8,8,0,0,0,61.1,6.65a14.2,14.2,0,0,0-3.27-.38H54.58V22h3.1a13.91,13.91,0,0,0,3.38-.4,7.93,7.93,0,0,0,2.87-1.31,6.56,6.56,0,0,0,2-2.43A8.46,8.46,0,0,0,66.66,14.1Z"></path><path class="a" d="M30.48,44.94H27.14L21.92,32.28h3.74l3.2,9h.08l3.17-9H35.8Z"></path><path class="a" d="M36.93,44.94V32.28h3.35V44.94Z"></path><path class="a" d="M43.13,44.94V32.28h9.28v2.57H46.35v2.4h5.73V39.7H46.35v2.63h6.41v2.61Z"></path><path class="a" d="M69.59,44.94h-3.3l-2.73-8.57H63.5l-2.73,8.57H57.46L53.54,32.28h3.59l2.18,8.42h.06l2.46-8.42H65.3l2.47,8.42h.06l2.23-8.42h3.47Z"></path></g></g></svg>