<svg xmlns="http://www.w3.org/2000/svg" width="24" height="24" fill="none"><rect id="backgroundrect" width="100%" height="100%" x="0" y="0" fill="none" stroke="none"/>

<mask id="mask0" mask-type="alpha" maskUnits="userSpaceOnUse" x="1" y="1" width="23" height="22">
<path fill-rule="evenodd" clip-rule="evenodd" d="M22.6196 2.00886C22.9986 2.11785 23.19 2.4209 23.2193 2.7673L23.2233 2.86274V16.6946C23.2233 17.317 22.7907 18.0086 22.1301 18.0797L22.0179 18.0857L15.6811 18.0855L15.6496 18.1307L12.4554 22.0824L12.4125 22.1308L12.3571 22.1823L12.3057 22.2216L12.2454 22.2595L12.1641 22.2983L12.0839 22.3254L12.0194 22.3399L11.9403 22.3495L11.8457 22.3494L11.7453 22.3359L11.6586 22.3121L11.5814 22.2806L11.5052 22.2383L11.4383 22.1902L11.3713 22.1288L11.3305 22.0824L8.13628 18.1307L8.10457 18.0855L2.73221 18.0857C2.04692 18.0857 1.57826 17.4268 1.53083 16.7988L1.52686 16.6946V2.86274C1.52686 2.4776 1.71713 2.12776 2.13055 2.00886C2.25889 1.97195 2.3716 1.9682 2.49317 1.98031L2.57153 1.99018L2.71889 2.01335H22.0312L22.0931 2.00426C22.1548 1.99345 22.2048 1.98551 22.257 1.98031C22.3785 1.9682 22.4913 1.97195 22.6196 2.00886ZM21.7763 3.46049H2.97307V16.6387L8.51793 16.6392C8.85041 16.6392 9.13049 16.8636 9.21503 17.1692L9.26118 17.2214L11.8928 20.4765L14.5247 17.2214L14.5706 17.1699C14.6477 16.8902 14.8886 16.6784 15.1836 16.6441L15.2679 16.6392L21.7763 16.6387V3.46049ZM16.7557 8.08846C16.4801 7.79934 16.0224 7.78836 15.7332 8.06394L11.1391 12.4424L9.03857 10.2641L8.97155 10.2027C8.69191 9.97697 8.28138 9.98954 8.01596 10.2454C7.72842 10.5227 7.72007 10.9805 7.9973 11.2681L10.597 13.9644L10.6638 14.0256C10.9422 14.2506 11.3508 14.2393 11.6166 13.9859L16.7312 9.11095L16.793 9.04428C17.0203 8.76594 17.0101 8.35534 16.7557 8.08846Z" fill="white" id="svg_1"/>
</mask>

<g class="currentLayer" style=""><title>Layer 1</title><path fill-rule="evenodd" clip-rule="evenodd" d="M22.6196 2.00886C22.9986 2.11785 23.19 2.4209 23.2193 2.7673L23.2233 2.86274V16.6946C23.2233 17.317 22.7907 18.0086 22.1301 18.0797L22.0179 18.0857L15.6811 18.0855L15.6496 18.1307L12.4554 22.0824L12.4125 22.1308L12.3571 22.1823L12.3057 22.2216L12.2454 22.2595L12.1641 22.2983L12.0839 22.3254L12.0194 22.3399L11.9403 22.3495L11.8457 22.3494L11.7453 22.3359L11.6586 22.3121L11.5814 22.2806L11.5052 22.2383L11.4383 22.1902L11.3713 22.1288L11.3305 22.0824L8.13628 18.1307L8.10457 18.0855L2.73221 18.0857C2.04692 18.0857 1.57826 17.4268 1.53083 16.7988L1.52686 16.6946V2.86274C1.52686 2.4776 1.71713 2.12776 2.13055 2.00886C2.25889 1.97195 2.3716 1.9682 2.49317 1.98031L2.57153 1.99018L2.71889 2.01335H22.0312L22.0931 2.00426C22.1548 1.99345 22.2048 1.98551 22.257 1.98031C22.3785 1.9682 22.4913 1.97195 22.6196 2.00886ZM21.7763 3.46049H2.97307V16.6387L8.51793 16.6392C8.85041 16.6392 9.13049 16.8636 9.21503 17.1692L9.26118 17.2214L11.8928 20.4765L14.5247 17.2214L14.5706 17.1699C14.6477 16.8902 14.8886 16.6784 15.1836 16.6441L15.2679 16.6392L21.7763 16.6387V3.46049ZM16.7557 8.08846C16.4801 7.79934 16.0224 7.78836 15.7332 8.06394L11.1391 12.4424L9.03857 10.2641L8.97155 10.2027C8.69191 9.97697 8.28138 9.98954 8.01596 10.2454C7.72842 10.5227 7.72007 10.9805 7.9973 11.2681L10.597 13.9644L10.6638 14.0256C10.9422 14.2506 11.3508 14.2393 11.6166 13.9859L16.7312 9.11095L16.793 9.04428C17.0203 8.76594 17.0101 8.35534 16.7557 8.08846Z" fill="#8C8C8C" id="svg_2"/><rect fill="#d50b0b" stroke-dashoffset="" fill-rule="nonzero" id="svg_5" x="2" y="2.489795506000519" width="20" height="14.510204493999481" style="color: rgb(0, 0, 0);" class=""/><path fill="#d50b0b" fill-opacity="1" stroke="none" stroke-opacity="1" stroke-width="1" stroke-dasharray="none" stroke-linejoin="miter" stroke-linecap="butt" stroke-dashoffset="" fill-rule="nonzero" opacity="1" marker-start="" marker-mid="" marker-end="" d="M8.918367397599603,17 C8.918367397599603,14.790055248618785 10.292874090336573,13 11.989795933221721,13 C13.68671777610687,13 15.06122446884384,14.790055248618785 15.06122446884384,17 C15.06122446884384,19.209944751381215 13.68671777610687,21 11.989795933221721,21 C10.292874090336573,21 8.918367397599603,19.209944751381215 8.918367397599603,17 z" id="svg_7" class=""/><g mask="url(#mask0)" id="svg_3" class="" fill="#ffffff" fill-opacity="1">
<rect width="24" height="24" fill="#ffffff" id="svg_4" fill-opacity="1"/>
</g></g></svg>