<svg xmlns="http://www.w3.org/2000/svg" width="10cm" height="10cm" viewBox="0 0 283.46 283.46"><g><polygon points="137.12 133.75 121.11 117.74 109.35 129.5 125.36 145.51 125.36 145.51 137.12 157.26 148.88 145.51 195.62 98.76 183.87 87 137.12 133.75"></polygon><path d="M223.12,54.39H70.34c-17.62,0-31.95,12.74-31.95,28.39v79.93c0,15.66,14.33,28.39,32,28.39h43.25l34.14,53.63,34.14-53.63h41.25c17.62,0,31.95-12.73,31.95-28.39V82.78C255.07,67.13,240.74,54.39,223.12,54.39Zm16.95,108.32c0,7.39-7.6,13.39-16.95,13.39H173.63l-25.9,40.7-25.91-40.7H70.34c-9.35,0-17-6-17-13.39V82.78c0-7.38,7.6-13.39,17-13.39H223.12c9.35,0,16.95,6,16.95,13.39Z"></path></g></svg>