<svg xmlns="http://www.w3.org/2000/svg" width="10cm" height="10cm" viewBox="0 0 283.46 283.46"><defs><style>
      .a {
        fill: #fff;
      }
    </style></defs><g><polygon class="a" points="138.93 133.75 122.91 117.74 111.16 129.5 127.17 145.51 127.17 145.51 138.93 157.26 150.68 145.51 197.43 98.76 185.67 87 138.93 133.75"></polygon><path class="a" d="M224.93,54.39H72.15c-17.62,0-31.95,12.74-31.95,28.39v79.93c0,15.66,14.33,28.39,32,28.39H115.4l34.14,53.63,34.14-53.63h41.25c17.62,0,31.95-12.73,31.95-28.39V82.78C256.88,67.13,242.55,54.39,224.93,54.39Zm16.95,108.32c0,7.39-7.6,13.39-16.95,13.39H175.44l-25.9,40.7-25.91-40.7H72.15c-9.35,0-17-6-17-13.39V82.78c0-7.38,7.6-13.39,17-13.39H224.93c9.35,0,16.95,6,16.95,13.39Z"></path></g></svg>