<svg xmlns="http://www.w3.org/2000/svg" width="73.39" height="52.96" viewBox="0 0 73.39 52.96"><defs><style>
      .a {
        fill: #b9b7b8;
      }
    </style></defs><path class="a" d="M32,53a4.18,4.18,0,0,1-4.19-4.19V37.16h-22A5.84,5.84,0,0,1,0,31.33V21.64A5.84,5.84,0,0,1,5.83,15.8h22V4.2A4.19,4.19,0,0,1,34.36.7l39,25.78-39,25.79A4.22,4.22,0,0,1,32,53ZM5.83,18.8A2.84,2.84,0,0,0,3,21.64v9.69a2.83,2.83,0,0,0,2.83,2.83h25V48.77a1.19,1.19,0,0,0,1.85,1L68,26.48,32.7,3.2a1.16,1.16,0,0,0-1.22-.06,1.19,1.19,0,0,0-.63,1.06V18.8Z"></path></svg>