<?xml version="1.0" encoding="UTF-8"?>
<svg width="27px" height="20px" viewBox="0 0 27 20" version="1.1" xmlns="http://www.w3.org/2000/svg" xmlns:xlink="http://www.w3.org/1999/xlink">
    <!-- Generator: sketchtool 52.2 (67145) - http://www.bohemiancoding.com/sketch -->
    <title>F5D98452-66AE-4643-8316-4A220F8A676A</title>
    <desc>Created with sketchtool.</desc>
    <g id="MOBILE-DESIGN-CENTER" stroke="none" stroke-width="1" fill="none" fill-rule="evenodd">
        <g id="DesignCenter-mobile" transform="translate(-218.000000, -76.000000)" fill="#5F6062" fill-rule="nonzero">
            <g id="navigation-express" transform="translate(0.000000, 68.000000)">
                <g id="add-art-button" transform="translate(205.000000, 0.000000)">
                    <g id="add-art-icon" transform="translate(13.000000, 8.000000)">
                        <path d="M25.3660027,19.0840099 L23.6611878,16.6117433 L21.9563728,19.0840099 L25.3660027,19.0840099 Z M26.0840099,18.5116969 L26.0840099,5.91599014 L12.9159901,5.91599014 L12.9159901,18.7824815 L16.487811,12.7394443 C16.5836,12.5773823 16.7636686,12.4959505 16.9392755,12.5179573 C17.1148824,12.4959505 17.294951,12.5773823 17.39074,12.7394443 L21.0069039,18.8575039 C21.0172499,18.8358215 21.0294408,18.8146729 21.0435145,18.7942637 L23.2506801,15.5935048 C23.3462594,15.4548988 23.5045842,15.3853354 23.6611878,15.3966592 C23.8177914,15.3853354 23.9761161,15.4548988 24.0716955,15.5935048 L26.0840099,18.5116969 Z M20.0767527,19.0840099 L16.9392755,13.7758232 L13.8017983,19.0840099 L20.0767527,19.0840099 Z M27,19.2066714 C27,19.6447192 26.6447192,20 26.2066714,20 L12.7933286,20 C12.3552808,20 12,19.6447192 12,19.2066714 L12,5.79332864 C12,5.35528082 12.3552808,5 12.7933286,5 L26.2066714,5 C26.6447192,5 27,5.35528082 27,5.79332864 L27,19.2066714 Z M24.4392587,10.4117773 C24.4392587,11.725381 23.3744121,12.7902277 22.0608083,12.7902277 C20.7471653,12.7902277 19.6820226,11.7253418 19.6820226,10.4117773 C19.6820226,9.09821272 20.7471653,8.03332686 22.0608083,8.03332686 C23.3744121,8.03332686 24.4392587,9.0981735 24.4392587,10.4117773 Z M23.5232686,10.4117773 C23.5232686,9.60406089 22.8685247,8.949317 22.0608083,8.949317 C21.2530033,8.949317 20.5980127,9.60414957 20.5980127,10.4117773 C20.5980127,11.219405 21.2530033,11.8742375 22.0608083,11.8742375 C22.8685247,11.8742375 23.5232686,11.2194937 23.5232686,10.4117773 Z" id="symbol_white-copy"></path>
                        <path d="M7.0719577,0.845510477 L0.856084599,0.845510477 L0.856084599,2.62842055 C0.856084599,2.86190182 0.664443534,3.05117579 0.4280423,3.05117579 C0.191641065,3.05117579 -3.55271368e-15,2.86190182 -3.55271368e-15,2.62842055 L-3.55271368e-15,0.422755238 C-3.55271368e-15,0.189273967 0.191641065,0 0.4280423,0 L14.5719577,0 C14.8083589,0 15,0.189273967 15,0.422755238 L15,2.62842055 C15,2.86190182 14.8083589,3.05117579 14.5719577,3.05117579 C14.3355565,3.05117579 14.1439154,2.86190182 14.1439154,2.62842055 L14.1439154,0.845510477 L7.9280423,0.845510477 L7.9280423,14.1533008 L9.73353516,14.1544896 C9.96993634,14.1546453 10.1614496,14.3440454 10.161292,14.5775266 C10.1611344,14.8110078 9.96936562,15.0001556 9.73296444,14.9999999 L5.26646484,14.997059 C5.03006366,14.9969034 4.83855039,14.8075033 4.838708,14.574022 C4.8388656,14.3405408 5.03063438,14.1513931 5.26703556,14.1515487 L7.0719577,14.1527371 L7.0719577,0.845510477 Z" id="text_white"></path>
                    </g>
                </g>
            </g>
        </g>
    </g>
</svg>