<svg width="18" height="17" viewBox="0 0 12 16" fill="none" xmlns="http://www.w3.org/2000/svg">
<path fill-rule="evenodd" clip-rule="evenodd" d="M11 13L11.4375 13C11.7484 13 12 13.2516 12 13.5625C12 13.8734 11.7484 14.125 11.4375 14.125L7.125 14.125L7.125 14.875C7.125 15.4969 6.62187 16 6 16C5.37812 16 4.875 15.4969 4.875 14.875L4.875 14.125L0.562499 14.125C0.251561 14.125 -1.21285e-06 13.8734 -1.18567e-06 13.5625C-1.15849e-06 13.2516 0.251561 13 0.562499 13L0.999999 13L0.999999 6C1 3.42813 2.94063 1.31094 5.4375 1.03125L5.4375 0.5625C5.4375 0.251563 5.68906 4.97354e-07 6 5.24537e-07C6.31094 5.5172e-07 6.5625 0.251563 6.5625 0.562501L6.5625 1.03125C9.05937 1.31094 11 3.42813 11 6L11 13ZM2.125 6L2.125 13L9.875 13L9.875 6C9.875 3.85938 8.14062 2.125 6 2.125C3.85937 2.125 2.125 3.85938 2.125 6Z" fill="#5F6062"/>
</svg>
