<?xml version="1.0" encoding="UTF-8"?>
<svg width="56px" height="34px" viewBox="0 0 56 34" version="1.1" xmlns="http://www.w3.org/2000/svg" xmlns:xlink="http://www.w3.org/1999/xlink">
    <!-- Generator: Sketch 50.2 (55047) - http://www.bohemiancoding.com/sketch -->
    <title>Payment/discover/color</title>
    <desc>Created with Sketch.</desc>
    <defs></defs>
    <g id="Payment/discover/color" stroke="none" stroke-width="1" fill="none" fill-rule="evenodd">
        <g id="Discover-light">
            <rect id="Rectangle" stroke="#DCDCDC" stroke-width="0.5" fill="#FFFFFF" x="0.25" y="0.25" width="55.5" height="33.5" rx="2"></rect>
            <g id="Light-Payment-badges" fill-rule="nonzero">
                <g id="Discover-light">
                    <g id="Rectangle" fill="#E6772F">
                        <g id="Mask_1_" transform="translate(13.440000, 18.700000)">
                            <path d="M0.056,15.3 L40.32,15.3 C41.552,15.3 42.56,14.28 42.56,13.0333333 L42.56,0.396666667 C42.56,0.396666667 27.552,10.71 0.056,15.3 Z" id="path-3_1_"></path>
                        </g>
                    </g>
                    <path d="M10.248,16.8866667 C9.8,17.2266667 9.296,17.3966667 8.456,17.3966667 L8.12,17.3966667 L8.12,13.0333333 L8.456,13.0333333 C9.296,13.0333333 9.8,13.2033333 10.248,13.5433333 C10.696,13.94 10.976,14.5633333 10.976,15.1866667 C10.976,15.8666667 10.696,16.49 10.248,16.8866667 Z M8.68,11.9566667 L6.72,11.9566667 L6.72,18.53 L8.624,18.53 C9.632,18.53 10.416,18.3033333 11.032,17.7933333 C11.816,17.17 12.264,16.2633333 12.264,15.3 C12.32,13.3166667 10.864,11.9566667 8.68,11.9566667 Z" id="Fill-13" fill="#1A1919"></path>
                    <polygon id="Fill-14" fill="#1A1919" points="12.936 11.9566667 14.28 11.9566667 14.28 18.53 12.936 18.53"></polygon>
                    <path d="M17.472,14.5066667 C16.688,14.2233333 16.464,14.0533333 16.464,13.6566667 C16.464,13.26 16.856,12.92 17.472,12.92 C17.864,12.92 18.2,13.09 18.536,13.43 L19.208,12.58 C18.648,12.07 17.976,11.8433333 17.192,11.8433333 C16.016,11.8433333 15.064,12.6366667 15.064,13.7133333 C15.064,14.62 15.512,15.0733333 16.744,15.5266667 C17.248,15.6966667 17.528,15.81 17.64,15.9233333 C17.92,16.0933333 18.032,16.32 18.032,16.6033333 C18.032,17.1133333 17.584,17.51 17.024,17.51 C16.408,17.51 15.904,17.2266667 15.568,16.66 L14.728,17.4533333 C15.344,18.3033333 16.072,18.7 17.08,18.7 C18.48,18.7 19.432,17.7933333 19.432,16.5466667 C19.432,15.47 18.984,15.0166667 17.472,14.5066667" id="Fill-15" fill="#1A1919"></path>
                    <path d="M19.88,15.2433333 C19.88,17.17 21.448,18.6433333 23.464,18.6433333 C24.024,18.6433333 24.528,18.53 25.144,18.2466667 L25.144,16.7166667 C24.64,17.2266667 24.136,17.4533333 23.52,17.4533333 C22.176,17.4533333 21.224,16.5466667 21.224,15.1866667 C21.224,13.94 22.176,12.92 23.464,12.92 C24.08,12.92 24.584,13.1466667 25.144,13.6566667 L25.144,12.1266667 C24.584,11.8433333 24.08,11.73 23.52,11.73 C21.448,11.8433333 19.88,13.3733333 19.88,15.2433333" id="Fill-16" fill="#1A1919"></path>
                    <polyline id="Fill-17" fill="#1A1919" points="35.784 16.3766667 33.992 11.9566667 32.536 11.9566667 35.448 18.7 36.12 18.7 39.088 11.9566667 37.632 11.9566667 35.784 16.3766667"></polyline>
                    <polyline id="Fill-18" fill="#1A1919" points="39.648 18.53 43.4 18.53 43.4 17.3966667 40.992 17.3966667 40.992 15.64 43.344 15.64 43.344 14.5633333 40.992 14.5633333 40.992 13.09 43.4 13.09 43.4 11.9566667 39.648 11.9566667 39.648 18.53"></polyline>
                    <path d="M46.032,14.96 L45.64,14.96 L45.64,12.9766667 L46.032,12.9766667 C46.872,12.9766667 47.32,13.3166667 47.32,13.94 C47.32,14.62 46.872,14.96 46.032,14.96 Z M48.664,13.8833333 C48.664,12.6366667 47.768,11.9566667 46.256,11.9566667 L44.296,11.9566667 L44.296,18.53 L45.64,18.53 L45.64,15.8666667 L45.808,15.8666667 L47.656,18.53 L49.28,18.53 L47.152,15.7533333 C48.104,15.5833333 48.664,14.9033333 48.664,13.8833333 Z" id="Fill-19" fill="#1A1919"></path>
                    <path d="M32.76,15.2433333 C32.76,17.1133333 31.192,18.6433333 29.232,18.6433333 C27.272,18.6433333 25.704,17.1133333 25.704,15.2433333 C25.704,13.3733333 27.272,11.8433333 29.232,11.8433333 C31.192,11.8433333 32.76,13.3733333 32.76,15.2433333" id="Fill-20" fill="#E6772F"></path>
                </g>
            </g>
        </g>
    </g>
</svg>