<?xml version="1.0" encoding="UTF-8"?>
<svg width="56px" height="34px" viewBox="0 0 56 34" version="1.1" xmlns="http://www.w3.org/2000/svg" xmlns:xlink="http://www.w3.org/1999/xlink">
    <!-- Generator: Sketch 50.2 (55047) - http://www.bohemiancoding.com/sketch -->
    <title>Payment/visa/color</title>
    <desc>Created with Sketch.</desc>
    <defs></defs>
    <g id="Payment/visa/color" stroke="none" stroke-width="1" fill="none" fill-rule="evenodd">
        <g id="Visa-light">
            <rect id="Rectangle" stroke="#DCDCDC" stroke-width="0.5" fill="#FFFFFF" x="0.25" y="0.25" width="55.5" height="33.5" rx="2"></rect>
            <g id="Light-Payment-badges" transform="translate(11.000000, 11.000000)" fill-rule="nonzero">
                <g id="Visa-light">
                    <polyline id="Fill-1" fill="#26337A" points="12.24 11.3833333 13.976 0.616666667 16.72 0.616666667 14.984 11.3833333 12.24 11.3833333"></polyline>
                    <path d="M24.952,0.843333333 C24.392,0.616666667 23.552,0.39 22.488,0.39 C19.744,0.39 17.84,1.86333333 17.84,3.96 C17.84,5.49 19.184,6.39666667 20.248,6.90666667 C21.312,7.41666667 21.704,7.75666667 21.704,8.26666667 C21.704,9.00333333 20.864,9.34333333 20.08,9.34333333 C18.96,9.34333333 18.4,9.17333333 17.504,8.77666667 L17.168,8.60666667 L16.776,11.0433333 C17.392,11.3266667 18.624,11.61 19.856,11.61 C22.768,11.61 24.616,10.1366667 24.672,7.92666667 C24.672,6.68 23.944,5.77333333 22.376,4.98 C21.424,4.47 20.808,4.13 20.808,3.62 C20.808,3.16666667 21.312,2.71333333 22.376,2.71333333 C23.272,2.71333333 23.944,2.88333333 24.448,3.11 L24.672,3.22333333 L24.952,0.843333333" id="Fill-2" fill="#26337A"></path>
                    <path d="M28.648,7.58666667 C28.872,6.96333333 29.768,4.58333333 29.768,4.58333333 C29.768,4.64 29.992,3.96 30.16,3.56333333 L30.328,4.47 C30.328,4.47 30.832,7.07666667 30.944,7.58666667 L28.648,7.58666667 Z M32.008,0.616666667 L29.88,0.616666667 C29.208,0.616666667 28.704,0.786666667 28.424,1.52333333 L24.336,11.44 L27.248,11.44 C27.248,11.44 27.696,10.08 27.808,9.79666667 C28.144,9.79666667 30.944,9.79666667 31.336,9.79666667 C31.392,10.1933333 31.672,11.44 31.672,11.44 L34.248,11.44 L32.008,0.616666667 Z" id="Fill-3" fill="#26337A"></path>
                    <path d="M9.944,0.616666667 L7.256,7.98333333 L6.92,6.45333333 C6.416,4.75333333 4.848,2.88333333 3.112,1.92 L5.576,11.3833333 L8.488,11.3833333 L12.8,0.616666667 L9.944,0.616666667" id="Fill-4" fill="#26337A"></path>
                    <path d="M4.736,0.616666667 L0.312,0.616666667 L0.256,0.843333333 C3.728,1.75 5.968,3.90333333 6.92,6.51 L5.968,1.52333333 C5.8,0.843333333 5.352,0.616666667 4.736,0.616666667" id="Fill-5" fill="#EC982D"></path>
                </g>
            </g>
        </g>
    </g>
</svg>