<?xml version="1.0" encoding="UTF-8"?>
<svg width="56px" height="34px" viewBox="0 0 56 34" version="1.1" xmlns="http://www.w3.org/2000/svg" xmlns:xlink="http://www.w3.org/1999/xlink">
    <!-- Generator: Sketch 50.2 (55047) - http://www.bohemiancoding.com/sketch -->
    <title>Payment/Master/color</title>
    <desc>Created with Sketch.</desc>
    <defs></defs>
    <g id="Payment/Master/color" stroke="none" stroke-width="1" fill="none" fill-rule="evenodd">
        <g id="Master_color">
            <rect id="Rectangle" stroke="#DCDCDC" stroke-width="0.5" fill="#FFFFFF" x="0.25" y="0.25" width="55.5" height="33.5" rx="2"></rect>
            <g id="_Group_" transform="translate(12.475248, 5.573770)" fill-rule="nonzero">
                <rect id="Rectangle-path" fill="#FF5F00" x="11.1445545" y="2.06229508" width="9.03762376" height="14.8262295"></rect>
                <path d="M12.0871287,9.47540984 C12.0871287,6.57704918 13.4178218,3.84590164 15.6356436,2.06229508 C11.5881188,-1.1704918 5.71089109,-0.445901639 2.4950495,3.62295082 C-0.720792079,7.69180328 -5.55111512e-16,13.6 4.04752475,16.8327869 C5.71089109,18.1147541 7.76237624,18.8393443 9.86930693,18.8393443 C11.9762376,18.8393443 13.9722772,18.1147541 15.6356436,16.8327869 C13.3623762,15.0491803 12.0871287,12.3180328 12.0871287,9.47540984 Z" id="_Path_" fill="#EB001B"></path>
                <path d="M30.7722772,9.47540984 C30.7722772,14.6590164 26.5584158,18.895082 21.4019802,18.895082 C19.2950495,18.895082 17.2990099,18.1704918 15.6356436,16.8885246 C19.6831683,13.6557377 20.4039604,7.74754098 17.1881188,3.62295082 C16.7445545,3.06557377 16.2455446,2.50819672 15.6356436,2.06229508 C19.6831683,-1.1704918 25.6158416,-0.445901639 28.7762376,3.67868852 C30.1069307,5.29508197 30.7722772,7.35737705 30.7722772,9.47540984 Z" id="Shape" fill="#F79E1B"></path>
            </g>
        </g>
        <g id="Group" transform="translate(14.000000, 26.000000)">
            <path d="M4.01980198,3.70819672 L4.01980198,2.09180328 C4.01980198,1.47868852 3.63168317,1.08852459 3.02178218,1.08852459 C2.68910891,1.08852459 2.35643564,1.2 2.13465347,1.53442623 C1.96831683,1.2557377 1.69108911,1.08852459 1.3029703,1.08852459 C1.02574257,1.08852459 0.748514851,1.1442623 0.582178218,1.47868852 L0.582178218,1.1442623 L0.0277227723,1.1442623 L0.0277227723,3.70819672 L0.582178218,3.70819672 L0.582178218,2.3147541 C0.582178218,1.86885246 0.803960396,1.64590164 1.19207921,1.64590164 C1.58019802,1.64590164 1.74653465,1.86885246 1.74653465,2.3147541 L1.74653465,3.76393443 L2.3009901,3.76393443 L2.3009901,2.3704918 C2.3009901,1.92459016 2.57821782,1.70163934 2.91089109,1.70163934 C3.2990099,1.70163934 3.46534653,1.92459016 3.46534653,2.3704918 L3.46534653,3.81967213 L4.01980198,3.81967213 L4.01980198,3.70819672 Z" id="Path" fill="#000000"></path>
            <path d="M12.2811881,1.1442623 L11.3940594,1.1442623 L11.3940594,0.363934426 L10.839604,0.363934426 L10.839604,1.1442623 L10.3405941,1.1442623 L10.3405941,1.64590164 L10.839604,1.64590164 L10.839604,2.81639344 C10.839604,3.4295082 11.0613861,3.76393443 11.7267327,3.76393443 C11.9485149,3.76393443 12.2257426,3.70819672 12.3920792,3.54098361 L12.2257426,3.03934426 C12.0594059,3.15081967 11.8930693,3.20655738 11.7267327,3.20655738 C11.449505,3.20655738 11.3386139,3.03934426 11.3386139,2.76065574 L11.3386139,1.59016393 L12.2257426,1.59016393 L12.2811881,1.1442623 Z" id="Path" fill="#000000"></path>
            <path d="M16.9940594,1.08852459 C16.6613861,1.08852459 16.439604,1.2557377 16.3287129,1.47868852 L16.3287129,1.1442623 L15.7742574,1.1442623 L15.7742574,3.70819672 L16.3287129,3.70819672 L16.3287129,2.25901639 C16.3287129,1.81311475 16.4950495,1.59016393 16.8831683,1.59016393 C16.9940594,1.59016393 17.1049505,1.59016393 17.2158416,1.64590164 L17.3821782,1.1442623 C17.2712871,1.08852459 17.1049505,1.08852459 16.9940594,1.08852459 Z" id="Path" fill="#000000"></path>
            <path d="M9.8970297,1.31147541 C9.61980198,1.1442623 9.28712871,1.03278689 8.84356436,1.03278689 C8.17821782,1.03278689 7.79009901,1.36721311 7.79009901,1.86885246 C7.79009901,2.25901639 8.12277228,2.53770492 8.67722772,2.64918033 L8.95445545,2.70491803 C9.23168317,2.76065574 9.3980198,2.81639344 9.3980198,2.98360656 C9.3980198,3.20655738 9.17623762,3.31803279 8.84356436,3.31803279 C8.45544554,3.31803279 8.17821782,3.20655738 8.01188119,3.03934426 L7.73465347,3.4852459 C8.01188119,3.70819672 8.4,3.81967213 8.84356436,3.81967213 C9.56435644,3.81967213 10.0079208,3.4852459 10.0079208,2.98360656 C10.0079208,2.53770492 9.67524752,2.3147541 9.12079208,2.20327869 L8.84356436,2.14754098 C8.62178218,2.09180328 8.4,2.09180328 8.4,1.86885246 C8.4,1.70163934 8.56633663,1.59016393 8.8990099,1.59016393 C9.23168317,1.59016393 9.56435644,1.70163934 9.67524752,1.81311475 L9.8970297,1.31147541 Z" id="Path" fill="#000000"></path>
            <path d="M24.7009901,1.08852459 C24.3683168,1.08852459 24.1465347,1.2557377 24.0356436,1.47868852 L24.0356436,1.1442623 L23.4811881,1.1442623 L23.4811881,3.70819672 L24.0356436,3.70819672 L24.0356436,2.25901639 C24.0356436,1.81311475 24.2019802,1.59016393 24.590099,1.59016393 C24.7009901,1.59016393 24.8118812,1.59016393 24.9227723,1.64590164 L25.0891089,1.1442623 C24.9782178,1.08852459 24.8118812,1.08852459 24.7009901,1.08852459 Z" id="Path" fill="#000000"></path>
            <path d="M17.6039604,2.42622951 C17.6039604,3.20655738 18.1584158,3.76393443 18.9346535,3.76393443 C19.3227723,3.76393443 19.6,3.65245902 19.8772277,3.4852459 L19.6,3.03934426 C19.3782178,3.20655738 19.1564356,3.26229508 18.9346535,3.26229508 C18.4910891,3.26229508 18.1584158,2.92786885 18.1584158,2.42622951 C18.1584158,1.92459016 18.4910891,1.59016393 18.9346535,1.59016393 C19.1564356,1.59016393 19.3782178,1.64590164 19.6,1.81311475 L19.8772277,1.36721311 C19.6,1.1442623 19.3227723,1.08852459 18.9346535,1.08852459 C18.1029703,1.08852459 17.6039604,1.64590164 17.6039604,2.42622951 Z" id="Path" fill="#000000"></path>
            <path d="M22.760396,2.42622951 L22.760396,1.1442623 L22.2059406,1.1442623 L22.2059406,1.47868852 C22.039604,1.2557377 21.7623762,1.08852459 21.429703,1.08852459 C20.7089109,1.08852459 20.1544554,1.64590164 20.1544554,2.42622951 C20.1544554,3.20655738 20.7089109,3.76393443 21.429703,3.76393443 C21.8178218,3.76393443 22.039604,3.59672131 22.2059406,3.37377049 L22.2059406,3.70819672 L22.760396,3.70819672 L22.760396,2.42622951 Z" id="Path" fill="#000000"></path>
            <path d="M20.7089109,2.42622951 C20.7089109,1.98032787 20.9861386,1.59016393 21.4851485,1.59016393 C21.9287129,1.59016393 22.2613861,1.92459016 22.2613861,2.42622951 C22.2613861,2.87213115 21.9287129,3.26229508 21.4851485,3.26229508 C20.9861386,3.20655738 20.7089109,2.87213115 20.7089109,2.42622951 Z" id="Path" fill="#FFFFFF"></path>
            <path d="M14,1.08852459 C13.2792079,1.08852459 12.7247525,1.64590164 12.7247525,2.42622951 C12.7247525,3.26229508 13.2792079,3.76393443 14.0554455,3.76393443 C14.4435644,3.76393443 14.7762376,3.65245902 15.1089109,3.4295082 L14.8316832,3.03934426 C14.609901,3.20655738 14.3326733,3.31803279 14.1108911,3.31803279 C13.7782178,3.31803279 13.4455446,3.15081967 13.3346535,2.70491803 L15.219802,2.70491803 C15.219802,2.64918033 15.219802,2.59344262 15.219802,2.48196721 C15.219802,1.59016393 14.7207921,1.08852459 14,1.08852459 Z" id="Path" fill="#000000"></path>
            <path d="M14,1.53442623 C14.3326733,1.53442623 14.609901,1.75737705 14.6653465,2.14754098 L13.3346535,2.14754098 C13.390099,1.81311475 13.6118812,1.53442623 14,1.53442623 Z" id="Path" fill="#FFFFFF"></path>
            <path d="M27.9168317,2.42622951 L27.9168317,0.140983607 L27.3623762,0.140983607 L27.3623762,1.47868852 C27.1960396,1.2557377 26.9188119,1.08852459 26.5861386,1.08852459 C25.8653465,1.08852459 25.3108911,1.64590164 25.3108911,2.42622951 C25.3108911,3.20655738 25.8653465,3.76393443 26.5861386,3.76393443 C26.9742574,3.76393443 27.1960396,3.59672131 27.3623762,3.37377049 L27.3623762,3.70819672 L27.9168317,3.70819672 L27.9168317,2.42622951 Z" id="Path" fill="#000000"></path>
            <path d="M25.809901,2.42622951 C25.809901,1.98032787 26.0871287,1.59016393 26.5861386,1.59016393 C27.029703,1.59016393 27.3623762,1.92459016 27.3623762,2.42622951 C27.3623762,2.87213115 27.029703,3.26229508 26.5861386,3.26229508 C26.1425743,3.20655738 25.809901,2.87213115 25.809901,2.42622951 Z" id="Path" fill="#FFFFFF"></path>
            <path d="M7.12475248,2.42622951 L7.12475248,1.1442623 L6.57029703,1.1442623 L6.57029703,1.47868852 C6.4039604,1.2557377 6.12673267,1.08852459 5.79405941,1.08852459 C5.07326733,1.08852459 4.51881188,1.64590164 4.51881188,2.42622951 C4.51881188,3.20655738 5.07326733,3.76393443 5.79405941,3.76393443 C6.18217822,3.76393443 6.4039604,3.59672131 6.57029703,3.37377049 L6.57029703,3.70819672 L7.12475248,3.70819672 L7.12475248,2.42622951 Z" id="Path" fill="#000000"></path>
            <path d="M5.07326733,2.42622951 C5.07326733,1.98032787 5.35049505,1.59016393 5.84950495,1.59016393 C6.29306931,1.59016393 6.62574257,1.92459016 6.62574257,2.42622951 C6.62574257,2.87213115 6.29306931,3.26229508 5.84950495,3.26229508 C5.40594059,3.20655738 5.07326733,2.87213115 5.07326733,2.42622951 Z" id="Path" fill="#FFFFFF"></path>
        </g>
    </g>
</svg>