<?xml version="1.0" encoding="UTF-8"?>
<svg width="18px" height="17px" viewBox="0 0 18 17" version="1.1" xmlns="http://www.w3.org/2000/svg" xmlns:xlink="http://www.w3.org/1999/xlink">
    <!-- Generator: Sketch 48.2 (47327) - http://www.bohemiancoding.com/sketch -->
    <title>Combined Shape</title>
    <desc>Created with Sketch.</desc>
    <defs></defs>
    <g id="Secondary-Navigation/Default" stroke="none" stroke-width="1" fill="none" fill-rule="evenodd" transform="translate(-898.000000, -11.000000)">
        <path d="M905.530187,27.6196038 C904.454979,27.6196038 903.590649,26.731449 903.590649,25.6445989 C903.590649,24.5577488 904.454979,23.6695941 905.530187,23.6695941 C906.605395,23.6695941 907.469725,24.5577488 907.469725,25.6445989 C907.469725,26.731449 906.605395,27.6196038 905.530187,27.6196038 Z M905.530187,26.3278574 C905.884004,26.3278574 906.177978,26.0257797 906.177978,25.6445989 C906.177978,25.2634182 905.884004,24.9613405 905.530187,24.9613405 C905.17637,24.9613405 904.882395,25.2634182 904.882395,25.6445989 C904.882395,26.0257797 905.17637,26.3278574 905.530187,26.3278574 Z M911.028543,27.6196038 C909.953335,27.6196038 909.089005,26.731449 909.089005,25.6445989 C909.089005,24.5577488 909.953335,23.6695941 911.028543,23.6695941 C912.103751,23.6695941 912.968081,24.5577488 912.968081,25.6445989 C912.968081,26.731449 912.103751,27.6196038 911.028543,27.6196038 Z M911.028543,26.3278574 C911.38236,26.3278574 911.676334,26.0257797 911.676334,25.6445989 C911.676334,25.2634182 911.38236,24.9613405 911.028543,24.9613405 C910.674726,24.9613405 910.380751,25.2634182 910.380751,25.6445989 C910.380751,26.0257797 910.674726,26.3278574 911.028543,26.3278574 Z M903.777852,23.0852327 L913.111785,23.0852327 C913.468491,23.0852327 913.757659,23.3744 913.757659,23.7311059 C913.757659,24.0878118 913.468491,24.3769791 913.111785,24.3769791 L902.928214,24.3769791 C902.571508,24.3769791 902.282341,24.0878118 902.282341,23.7311059 C902.282341,23.6755964 902.289344,23.6217225 902.302514,23.5703193 C902.288949,23.4694939 902.299075,23.3639798 902.336624,23.2618527 L903.310038,20.6181473 C903.31813,20.5908791 903.327189,20.5638979 903.337178,20.5372818 C903.310714,20.4739752 903.287138,20.4083311 903.266134,20.3413113 L901.370012,14.3481048 C901.325779,14.2077375 901.314483,14.0754294 901.33016,13.9545837 L900.727086,12.4677295 C900.723031,12.4577324 900.719245,12.4476931 900.715723,12.4376196 L899.416638,12.4376196 C899.059932,12.4376196 898.770765,12.1484523 898.770765,11.7917464 C898.770765,11.4350405 899.059932,11.1458732 899.416638,11.1458732 L901.172426,11.1458732 C901.529132,11.1458732 901.818299,11.4350405 901.818299,11.7917464 C901.818299,11.7968051 901.818241,11.8018503 901.818125,11.8068812 C901.861479,11.8579704 901.897557,11.9167296 901.924116,11.9822097 L902.43948,13.252819 L914.660707,13.252819 C914.888968,13.252819 915.03688,13.2739427 915.215768,13.38885 C915.544148,13.5997829 915.616154,13.9553532 915.512815,14.285079 L913.616463,20.3935098 C913.482102,20.8227448 913.163816,21.2165604 912.679826,21.2165604 L904.464907,21.2165604 L903.777852,23.0852327 Z M904.541494,19.924814 L912.409408,19.924814 L914.079697,14.5445654 L902.787021,14.5445654 L904.48007,19.8959112 C904.501122,19.9044896 904.521619,19.9141468 904.541494,19.924814 Z" id="Combined-Shape" fill="#5F6062" fill-rule="nonzero"></path>
    </g>
</svg>