<?xml version="1.0" encoding="utf-8"?>
<!-- Generator: Adobe Illustrator 22.0.1, SVG Export Plug-In . SVG Version: 6.00 Build 0)  -->
<!DOCTYPE svg PUBLIC "-//W3C//DTD SVG 1.1//EN" "http://www.w3.org/Graphics/SVG/1.1/DTD/svg11.dtd">
<svg version="1.1" id="Layer_1" xmlns="http://www.w3.org/2000/svg" xmlns:xlink="http://www.w3.org/1999/xlink" x="0px" y="0px"
	 width="16px" height="16px" viewBox="0 0 16 16" style="enable-background:new 0 0 16 16;" xml:space="preserve">
<path d="M4,2C2.9,2,2,2.9,2,4v8c0,1.1,0.9,2,2,2h8c1.1,0,2-0.9,2-2V7h-1v5c0,0.6-0.4,1-1,1H4c-0.6,0-1-0.4-1-1V4c0-0.6,0.4-1,1-1h7
	V2H4z M13.5,2.8l-0.4,0.4L7.2,9.1L5.4,7.4L5,7L4.3,7.7l0.4,0.4l2.5,2.5l6.7-6.7l0.4-0.4L13.5,2.8z"/>
</svg>
