<?xml version="1.0" encoding="UTF-8"?>
<svg width="32px" height="33px" viewBox="0 0 32 33" version="1.1" xmlns="http://www.w3.org/2000/svg" xmlns:xlink="http://www.w3.org/1999/xlink">
    <!-- Generator: Sketch 48.2 (47327) - http://www.bohemiancoding.com/sketch -->
    <title>color_white</title>
    <desc>Created with Sketch.</desc>
    <defs></defs>
    <g id="Design-Tools/Menu/Color" stroke="none" stroke-width="1" fill="none" fill-rule="evenodd" transform="translate(-26.000000, -15.000000)">
        <path d="M38.6931348,22.7026917 L28.9005907,32.4952358 C28.8540247,32.5418017 28.8088758,32.5892539 28.7651514,32.6375226 L50.7319817,32.6375226 L40.2832407,22.1887815 L40.2832407,25.3342475 C40.2832407,26.5778161 39.9503105,27.5862659 39.0071844,27.5862659 C38.5680888,27.5862659 38.2121315,27.2303085 38.2121315,26.7912129 C38.2121315,26.5037831 38.3646574,26.2519775 38.5931859,26.1123195 C38.653837,25.9269947 38.6931348,25.6441907 38.6931348,25.3342475 L38.6931348,22.7026917 Z M40.2832407,20.0364174 C40.4828407,20.1290255 40.6347199,20.2680501 40.950579,20.5840745 L52.487366,32.1208686 C52.6649151,32.2983264 52.788297,32.4253396 52.8789542,32.5357458 L54.1687363,33.8255278 C54.4792237,34.1360153 54.4792237,34.639415 54.1687363,34.9499025 C53.8582488,35.26039 53.3548491,35.26039 53.0443616,34.9499025 L52.5657843,34.4713252 L41.3205872,45.7165224 C39.631364,47.4057455 36.9430177,47.6717131 35.3371894,46.0658848 L27.4268536,38.155549 C25.6048921,36.3335876 25.864115,33.2829621 27.776216,31.3708611 L32.2359189,26.9111583 C32.0402428,26.5048785 31.9590888,25.9482189 31.9590888,25.3342475 L31.9590888,18.0494204 C31.9590888,16.8058519 32.2920189,15.7974021 33.235145,15.7974021 L39.0071844,15.7974021 C39.9503105,15.7974021 40.2832407,16.8058519 40.2832407,18.0494204 L40.2832407,20.0364174 Z M38.6931348,20.4539424 L38.6931348,18.0494204 C38.6931348,17.7985778 38.6673949,17.5655113 38.6254275,17.387508 L33.6169019,17.387508 C33.5749345,17.5655113 33.5491946,17.7985778 33.5491946,18.0494204 L33.5491946,25.3342475 C33.5491946,25.421819 33.5523317,25.507224 33.5582012,25.5888759 L38.6931348,20.4539424 Z M27.8967892,34.2276284 C27.629467,35.2495422 27.8337142,36.3136603 28.5512282,37.0311743 L36.4615641,44.9415102 C37.3916791,45.8716253 39.08418,45.7041802 40.1962126,44.5921477 L50.5607318,34.2276284 L27.8967892,34.2276284 Z M54.1799675,47.7974021 C52.1762557,47.7974021 50.5519263,46.1730727 50.5519263,44.1693608 C50.5519263,42.4735432 53.1068948,39.1248254 54.1799675,39.1248254 C55.2530403,39.1248254 57.8080088,42.4735432 57.8080088,44.1693608 C57.8080088,46.1730727 56.1836794,47.7974021 54.1799675,47.7974021 Z M54.134068,40.9330447 C53.8631638,41.1972231 53.5471335,41.5570354 53.2548284,41.9401506 C52.5722304,42.8348105 52.1420322,43.6937193 52.1420322,44.1693608 C52.1420322,45.2948815 53.0544469,46.2072962 54.1799675,46.2072962 C55.3054882,46.2072962 56.2179029,45.2948815 56.2179029,44.1693608 C56.2179029,43.6937193 55.7877046,42.8348105 55.1051066,41.9401506 C54.8128016,41.5570354 54.4967712,41.1972231 54.2258671,40.9330447 C54.2102687,40.9178336 54.1949583,40.9030799 54.1799675,40.8888066 C54.1649768,40.9030799 54.1496663,40.9178336 54.134068,40.9330447 Z" id="color_white" fill="#8C8C8C" fill-rule="nonzero"></path>
    </g>
</svg>