<svg xmlns="http://www.w3.org/2000/svg" xmlns:xlink="http://www.w3.org/1999/xlink" width="32" height="33" version="1.1"><rect id="backgroundrect" width="100%" height="100%" x="0" y="0" fill="none" stroke="none"/>
    <!-- Generator: Sketch 48.2 (47327) - http://www.bohemiancoding.com/sketch -->
    <title>color_white</title>
    <desc>Created with Sketch.</desc>
    <defs/>
    
<g class="currentLayer" style=""><title>Layer 1</title><rect fill="#d50b0b" stroke="none" stroke-width="5" stroke-dashoffset="" fill-rule="nonzero" id="svg_1" x="4.761617183685303" y="9.107109069824219" width="16.93886947631836" height="19.80914878845215" style="color: rgb(0, 0, 0);" class="" transform="rotate(45.34496307373047 13.231052398681648,19.011684417724606) "/><rect fill="#d50b0b" stroke-width="5" stroke-dashoffset="" fill-rule="nonzero" id="svg_2" x="7" y="2" width="6" height="11" style="color: rgb(0, 0, 0);"/><path fill="#d50b0b" fill-opacity="1" stroke="none" stroke-opacity="1" stroke-width="5" stroke-dasharray="none" stroke-linejoin="miter" stroke-linecap="butt" stroke-dashoffset="" fill-rule="nonzero" opacity="1" marker-start="" marker-mid="" marker-end="" d="M25.66386553645134,28.66386553645134 C25.66386553645134,27.00640697291543 26.78265006683808,25.66386553645134 28.16386553645134,25.66386553645134 C29.5450810060646,25.66386553645134 30.66386553645134,27.00640697291543 30.66386553645134,28.66386553645134 C30.66386553645134,30.32132409998725 29.5450810060646,31.66386553645134 28.16386553645134,31.66386553645134 C26.78265006683808,31.66386553645134 25.66386553645134,30.32132409998725 25.66386553645134,28.66386553645134 z" id="svg_4" class=""/><g id="Design-Tools/Menu/Color" stroke="none" stroke-width="1" fill="#ffffff" fill-rule="evenodd" class="" fill-opacity="1">
        <path d="M12.693134800000003,7.702691699999999 L2.9005906999999986,17.495235800000003 C2.8540247,17.5418017 2.808875799999999,17.589253900000003 2.7651514000000006,17.637522599999997 L24.7319817,17.637522599999997 L14.2832407,7.188781500000001 L14.2832407,10.3342475 C14.2832407,11.5778161 13.9503105,12.5862659 13.0071844,12.5862659 C12.568088799999998,12.5862659 12.212131499999998,12.2303085 12.212131499999998,11.791212900000001 C12.212131499999998,11.5037831 12.364657399999999,11.251977499999999 12.593185900000002,11.112319500000002 C12.653837000000003,10.926994700000002 12.693134800000003,10.6441907 12.693134800000003,10.3342475 L12.693134800000003,7.702691699999999 zM14.2832407,5.036417400000001 C14.482840699999997,5.129025500000001 14.6347199,5.2680501 14.950578999999998,5.5840745 L26.487366,17.1208686 C26.6649151,17.2983264 26.788297,17.4253396 26.878954200000003,17.5357458 L28.1687363,18.825527800000003 C28.4792237,19.136015299999997 28.4792237,19.639415 28.1687363,19.9499025 C27.8582488,20.26039 27.354849100000003,20.26039 27.044361600000002,19.9499025 L26.565784299999997,19.471325200000003 L15.320587199999999,30.716522400000002 C13.631363999999998,32.4057455 10.943017699999999,32.6717131 9.3371894,31.0658848 L1.4268536000000012,23.155549 C-0.3951078999999993,21.3335876 -0.13588499999999826,18.2829621 1.7762160000000016,16.3708611 L6.2359189000000015,11.9111583 C6.0402428000000015,11.5048785 5.9590888,10.9482189 5.9590888,10.3342475 L5.9590888,3.049420399999999 C5.9590888,1.8058519000000004 6.292018900000002,0.7974020999999993 7.235145000000003,0.7974020999999993 L13.0071844,0.7974020999999993 C13.9503105,0.7974020999999993 14.2832407,1.8058519000000004 14.2832407,3.049420399999999 L14.2832407,5.036417400000001 zM12.693134800000003,5.453942399999999 L12.693134800000003,3.049420399999999 C12.693134800000003,2.7985778000000003 12.667394899999998,2.5655113000000007 12.6254275,2.3875080000000004 L7.616901900000002,2.3875080000000004 C7.574934499999998,2.5655113000000007 7.5491946,2.7985778000000003 7.5491946,3.049420399999999 L7.5491946,10.3342475 C7.5491946,10.421819 7.552331700000003,10.507224 7.558201199999999,10.588875900000001 L12.693134800000003,5.453942399999999 zM1.8967892000000006,19.2276284 C1.6294669999999982,20.2495422 1.8337141999999993,21.313660300000002 2.5512282000000006,22.031174300000004 L10.461564099999997,29.941510200000003 C11.391679099999998,30.871625299999998 13.084180000000003,30.704180200000003 14.196212600000003,29.592147699999998 L24.5607318,19.2276284 L1.8967892000000006,19.2276284 zM28.179967499999997,32.7974021 C26.1762557,32.7974021 24.551926299999998,31.1730727 24.551926299999998,29.1693608 C24.551926299999998,27.4735432 27.1068948,24.1248254 28.179967499999997,24.1248254 C29.253040300000002,24.1248254 31.808008800000003,27.4735432 31.808008800000003,29.1693608 C31.808008800000003,31.1730727 30.183679400000003,32.7974021 28.179967499999997,32.7974021 zM28.134068,25.933044700000004 C27.863163800000002,26.197223100000002 27.5471335,26.557035399999997 27.2548284,26.940150600000003 C26.572230400000002,27.834810500000003 26.142032200000003,28.693719299999998 26.142032200000003,29.1693608 C26.142032200000003,30.294881500000002 27.054446900000002,31.207296200000002 28.179967499999997,31.207296200000002 C29.3054882,31.207296200000002 30.2179029,30.294881500000002 30.2179029,29.1693608 C30.2179029,28.693719299999998 29.787704599999998,27.834810500000003 29.1051066,26.940150600000003 C28.8128016,26.557035399999997 28.496771199999998,26.197223100000002 28.225867100000002,25.933044700000004 C28.2102687,25.9178336 28.194958300000003,25.9030799 28.179967499999997,25.888806600000002 C28.164976799999998,25.9030799 28.1496663,25.9178336 28.134068,25.933044700000004 z" id="color_white" fill="#ffffff" fill-rule="nonzero" fill-opacity="1"/>
    </g></g></svg>