<?xml version="1.0" encoding="UTF-8"?>
<svg width="10px" height="11px" viewBox="0 0 10 11" version="1.1" xmlns="http://www.w3.org/2000/svg" xmlns:xlink="http://www.w3.org/1999/xlink">
    <!-- Generator: sketchtool 51.2 (57519) - http://www.bohemiancoding.com/sketch -->
    <title>276154C7-2679-4A24-8438-5A1D67CAB8BD</title>
    <desc>Created with sketchtool.</desc>
    <defs></defs>
    <g id="Home-+-Product" stroke="none" stroke-width="1" fill="none" fill-rule="evenodd">
        <g id="1.4-DESIGN-prod-page" transform="translate(-528.000000, -1775.000000)" fill-rule="nonzero">
            <g id="Product-Thumbnail/Default-Copy-2" transform="translate(523.000000, 1507.000000)">
                <g id="Stacked-Group" transform="translate(5.000000, 227.000000)">
                    <g id="Group" transform="translate(0.000000, 39.000000)">
                        <g id="Product-Thumbnail/Collection">
                            <g id="Colorwheel" transform="translate(0.000000, 2.812500)">
                                <path d="M9.81075697,3.71115538 L7.96015936,4.20717131 C8.02788845,4.46015936 8.06374502,4.7250996 8.06374502,5 C8.06374502,5.2749004 8.02788845,5.53984064 7.96015936,5.79282869 L9.81075697,6.28884462 C10.0478088,5.40438247 10.0478088,4.59561753 9.81075697,3.71115538 Z" id="Shape" fill="#FEFE33"></path>
                                <path d="M7.16733068,2.83266932 L8.52191235,1.47808765 C7.87450199,0.830677291 7.1752988,0.426294821 6.28884462,0.189243028 L5.79282869,2.03984064 C6.32071713,2.1812749 6.79083665,2.45816733 7.16733068,2.83266932 Z" id="Shape" fill="#FB9902"></path>
                                <path d="M8.52191235,1.47808765 L7.16733068,2.83266932 C7.22310757,2.88844622 7.27689243,2.94621514 7.32868526,3.0059761 C7.57171315,3.28884462 7.76294821,3.61752988 7.89043825,3.97609562 C7.91633466,4.05179283 7.94023904,4.12749004 7.96215139,4.20517928 L9.812749,3.70916335 C9.57370518,2.82669323 9.16932271,2.12749004 8.52191235,1.47808765 Z" id="Shape" fill="#FABC02"></path>
                                <path d="M4.20717131,2.03984064 L3.71115538,0.189243028 C2.82669323,0.426294821 2.12749004,0.830677291 1.47808765,1.47808765 L2.83266932,2.83266932 C3.20916335,2.45816733 3.67928287,2.1812749 4.20717131,2.03984064 Z" id="Shape" fill="#FE2712"></path>
                                <path d="M3.71115538,0.189243028 L4.20717131,2.03984064 C4.29681275,2.01593625 4.38844622,1.99601594 4.48007968,1.98007968 C4.64940239,1.95219124 4.82270916,1.93625498 5,1.93625498 C5.19322709,1.93625498 5.38247012,1.95418327 5.56573705,1.98804781 C5.64342629,2.00199203 5.71912351,2.01992032 5.79282869,2.03984064 L6.28884462,0.189243028 C5.40438247,-0.0478087649 4.59561753,-0.0478087649 3.71115538,0.189243028 Z" id="Shape" fill="#FD5308"></path>
                                <path d="M1.93625498,5 C1.93625498,4.7250996 1.97211155,4.46015936 2.03984064,4.20717131 L0.189243028,3.71115538 C-0.0478087649,4.59561753 -0.0478087649,5.40438247 0.189243028,6.28884462 L2.03984064,5.79282869 C1.97211155,5.53984064 1.93625498,5.2749004 1.93625498,5 Z" id="Shape" fill="#8601AF"></path>
                                <path d="M1.47808765,1.47808765 C0.830677291,2.12549801 0.426294821,2.8247012 0.189243028,3.71115538 L2.03984064,4.20717131 C2.06972112,4.09760956 2.10358566,3.99003984 2.14541833,3.88645418 C2.2689243,3.56972112 2.44422311,3.27689243 2.66135458,3.02191235 C2.71713147,2.9561753 2.77290837,2.89442231 2.83466135,2.83466135 L1.47808765,1.47808765 Z" id="Shape" fill="#A7194B"></path>
                                <path d="M2.83266932,7.16733068 L1.47808765,8.52191235 C2.12549801,9.16932271 2.8247012,9.57370518 3.71115538,9.81075697 L4.20717131,7.96015936 C3.67928287,7.8187251 3.20916335,7.54183267 2.83266932,7.16733068 Z" id="Shape" fill="#0247FE"></path>
                                <path d="M2.66733068,6.98406375 C2.43824701,6.71314741 2.25298805,6.40438247 2.12749004,6.06374502 C2.0936255,5.97410359 2.06573705,5.88446215 2.04183267,5.79083665 L0.19123506,6.28685259 C0.428286853,7.17131474 0.832669323,7.87051793 1.48007968,8.51992032 L2.83466135,7.16533865 C2.7749004,7.10756972 2.71912351,7.04780876 2.66733068,6.98406375 Z" id="Shape" fill="#3D01A4"></path>
                                <path d="M5.79282869,7.96015936 L6.28884462,9.81075697 C7.17330677,9.57370518 7.87250996,9.16932271 8.52191235,8.52191235 L7.16733068,7.16733068 C6.79083665,7.54183267 6.32071713,7.8187251 5.79282869,7.96015936 Z" id="Shape" fill="#66B032"></path>
                                <path d="M5.79282869,7.96015936 C5.70916335,7.98207171 5.62549801,8.00199203 5.53784861,8.01593625 C5.3625498,8.04780876 5.18326693,8.06374502 4.99800797,8.06374502 C4.82270916,8.06374502 4.65139442,8.0498008 4.48605578,8.01992032 C4.39043825,8.00398406 4.29681275,7.98406375 4.20517928,7.95816733 L3.70916335,9.80876494 C4.5936255,10.0458167 5.40239044,10.0458167 6.28685259,9.80876494 L5.79282869,7.96015936 Z" id="Shape" fill="#0391CE"></path>
                                <path d="M7.96015936,5.79282869 C7.93625498,5.88047809 7.91035857,5.96613546 7.87848606,6.0498008 C7.75099602,6.39840637 7.56175299,6.71713147 7.3247012,6.9940239 C7.2749004,7.05378486 7.22111554,7.10956175 7.16733068,7.16533865 L8.52191235,8.51992032 C9.16932271,7.87250996 9.57370518,7.17330677 9.81075697,6.28685259 L7.96015936,5.79282869 Z" id="Shape" fill="#D0EA2B"></path>
                            </g>
                        </g>
                    </g>
                </g>
            </g>
        </g>
    </g>
</svg>