<svg xmlns="http://www.w3.org/2000/svg" xmlns:xlink="http://www.w3.org/1999/xlink" version="1.1" style="enable-background:new 0 0 490 490;" xml:space="preserve" width="490" height="490"><rect id="backgroundrect" width="100%" height="100%" x="0" y="0" fill="none" stroke="none"/>
















<g class="currentLayer" style=""><title>Layer 1</title><g id="svg_6">
</g><g id="svg_7">
</g><g id="svg_8">
</g><g id="svg_9">
</g><g id="svg_10">
</g><g id="svg_11">
</g><g id="svg_12">
</g><g id="svg_13">
</g><g id="svg_14">
</g><g id="svg_15">
</g><g id="svg_16">
</g><g id="svg_17">
</g><g id="svg_18">
</g><g id="svg_19">
</g><g id="svg_20">
</g><rect fill="#d50b0b" stroke-dashoffset="" fill-rule="nonzero" id="svg_21" x="24" y="43" width="305" height="179" style="color: rgb(0, 0, 0);"/><rect fill="#d50b0b" stroke-dashoffset="" fill-rule="nonzero" id="svg_23" x="166" y="165" width="303" height="178" style="color: rgb(0, 0, 0);" class=""/><path fill="#d50b0b" fill-opacity="1" stroke="none" stroke-opacity="1" stroke-width="1" stroke-dasharray="none" stroke-linejoin="miter" stroke-linecap="butt" stroke-dashoffset="" fill-rule="nonzero" opacity="1" marker-start="" marker-mid="" marker-end="" d="M68,223.5 C68,186.20718232044197 80.30662983425414,156 95.5,156 C110.69337016574586,156 123,186.20718232044197 123,223.5 C123,260.792817679558 110.69337016574586,291 95.5,291 C80.30662983425414,291 68,260.792817679558 68,223.5 Z" id="svg_25"/><path fill="#d50b0b" fill-opacity="1" stroke="none" stroke-opacity="1" stroke-width="1" stroke-dasharray="none" stroke-linejoin="miter" stroke-linecap="butt" stroke-dashoffset="" fill-rule="nonzero" opacity="1" marker-start="" marker-mid="" marker-end="" d="M106,207 C106,178.8232044198895 117.6353591160221,156 132,156 C146.3646408839779,156 158,178.8232044198895 158,207 C158,235.1767955801105 146.3646408839779,258 132,258 C117.6353591160221,258 106,235.1767955801105 106,207 Z" id="svg_27"/><path fill="#d50b0b" fill-opacity="1" stroke="none" stroke-opacity="1" stroke-width="1" stroke-dasharray="none" stroke-linejoin="miter" stroke-linecap="butt" stroke-dashoffset="" fill-rule="nonzero" opacity="1" marker-start="" marker-mid="" marker-end="" d="M329,327 C329,301.03314917127074 350.7044198895028,280 377.5,280 C404.2955801104972,280 426,301.03314917127074 426,327 C426,352.96685082872926 404.2955801104972,374 377.5,374 C350.7044198895028,374 329,352.96685082872926 329,327 Z" id="svg_29"/><path fill="#d50b0b" fill-opacity="1" stroke="none" stroke-opacity="1" stroke-width="1" stroke-dasharray="none" stroke-linejoin="miter" stroke-linecap="butt" stroke-dashoffset="" fill-rule="nonzero" opacity="1" marker-start="" marker-mid="" marker-end="" d="M361,378 C361,361.9779005524862 373.9779005524862,349 390,349 C406.0220994475138,349 419,361.9779005524862 419,378 C419,394.0220994475138 406.0220994475138,407 390,407 C373.9779005524862,407 361,394.0220994475138 361,378 Z" id="svg_31"/><g id="XMLID_874_" class="" fill-opacity="1" fill="#ffffff" stroke-width="5" stroke="#ffffff" stroke-opacity="1">
	<g id="svg_1" fill="#ffffff" stroke-width="5" stroke="#ffffff" stroke-opacity="1" fill-opacity="1">
		<g id="svg_2" fill="#ffffff" stroke-width="5" stroke="#ffffff" stroke-opacity="1" fill-opacity="1">
			<path d="M425,139.393h-75v-55c0-35.841-29.159-65-65-65H65c-35.841,0-65,29.159-65,65v100c0,34.159,26.486,62.248,60,64.81     v101.404l80-80v33.787c0,35.841,29.159,65,65,65h123.787L430,470.607V369.203c33.514-2.562,60-30.651,60-64.81v-100     C490,168.552,460.841,139.393,425,139.393z M140,204.393v23.787l-50,50v-58.787H65c-19.299,0-35-15.701-35-35v-100     c0-19.299,15.701-35,35-35h220c19.299,0,35,15.701,35,35v55H205C169.159,139.393,140,168.552,140,204.393z M460,304.393     c0,19.299-15.701,35-35,35h-25v58.787l-58.787-58.787H205c-19.299,0-35-15.701-35-35v-100c0-19.299,15.701-35,35-35h220     c19.299,0,35,15.701,35,35V304.393z" id="svg_3" fill="#ffffff" stroke-width="5" stroke="#ffffff" stroke-opacity="1" fill-opacity="1"/>
			<rect x="215" y="209.39300537109375" width="200" height="30" id="svg_4" fill="#ffffff" stroke-width="5" stroke="#ffffff" stroke-opacity="1" fill-opacity="1"/>
			<rect x="215" y="269.39300537109375" width="200" height="30" id="svg_5" fill="#ffffff" stroke-width="5" stroke="#ffffff" stroke-opacity="1" fill-opacity="1"/>
		</g>
	</g>
</g></g></svg>