<svg xmlns="http://www.w3.org/2000/svg" width="10cm" height="10cm" viewBox="0 0 283.46 283.46"><defs><style>
      .a {
        fill: #fff;
      }
    </style></defs><g><path class="a" d="M231.42,226.85v3.21c0,9.49.08,19-.07,28.45a12.9,12.9,0,0,1-1.51,6.15c-2.53,4.22-8.53,4.27-12.51.21-6.17-6.3-12.23-12.7-18.33-19.07-5.47-5.7-11-11.38-16.36-17.15a5.36,5.36,0,0,0-4.33-1.84q-41.43.09-82.85,0c-10.21,0-18.14-5-21.27-13.86a27.37,27.37,0,0,1-1.37-8.78c-.14-13.64-.07-27.28-.07-40.93v-3.05H36.18c-13.49,0-22.59-9-22.6-22.49q0-49,0-98.07C13.59,26.09,22.71,17,36.33,17q73.13,0,146.24,0c13.69,0,22.67,9,22.7,22.65s0,27.28,0,40.92v3.05h3.13c11.39,0,22.79-.06,34.19,0,10.84.08,19.16,6.4,21.67,16.41A24.63,24.63,0,0,1,265,106q.06,49.17,0,98.32c0,13.42-9.13,22.48-22.6,22.55C238.82,226.86,235.26,226.85,231.42,226.85Zm-16.94,12.27a4.58,4.58,0,0,0,.33-.88q0-8.87,0-17.72c0-6.54,3.1-9.66,9.57-9.67,5.49,0,11-.17,16.47.06,5,.21,8.05-1.8,8.07-8.22.08-32.11,0-64.21,0-96.32,0-5.64-1.64-7.29-7.26-7.29q-73,0-146,0c-5.38,0-7,1.61-7,7v89.08c0,3.24-.06,6.48,0,9.73s1.91,5.07,5.09,5.36c1.07.09,2.16.06,3.24.06,28.19,0,56.39,0,84.59,0a10.78,10.78,0,0,1,8.61,3.67c2.4,2.65,4.92,5.18,7.4,7.76ZM72.76,144.23v-3.29c0-11.47,0-23,0-34.43a29.28,29.28,0,0,1,.39-5.7c2.14-10.51,10.66-17.17,22-17.18q45.66,0,91.31,0h3.24c.06-1,.13-1.64.13-2.3q0-21,0-41.91c0-4.55-1.94-6.42-6.62-6.42Q110.07,33,37,33c-5,0-6.87,1.92-6.88,7,0,5.66,0,11.31,0,17v80.32c0,5.15,1.77,6.95,6.84,7,5.41,0,10.81,0,16.22,0Z"></path><rect class="a" x="102.84" y="129.91" width="133.68" height="16.63"></rect><rect class="a" x="102.84" y="163.83" width="133.68" height="16.63"></rect></g></svg>