<svg xmlns="http://www.w3.org/2000/svg" width="10cm" height="10cm" viewBox="0 0 283.46 283.46"><g><path d="M237.59,226.85v3.21c0,9.49.08,19-.07,28.45a12.79,12.79,0,0,1-1.51,6.15c-2.52,4.22-8.53,4.27-12.5.21-6.18-6.3-12.24-12.7-18.34-19.07-5.46-5.7-11-11.38-16.36-17.15a5.34,5.34,0,0,0-4.33-1.84q-41.41.09-82.85,0c-10.21,0-18.14-5-21.27-13.86A27.37,27.37,0,0,1,79,204.2c-.14-13.64-.06-27.28-.06-40.93v-3.05H42.35c-13.49,0-22.59-9-22.59-22.49q0-49,0-98.07C19.76,26.09,28.88,17,42.5,17q73.13,0,146.25,0c13.69,0,22.66,9,22.69,22.65s0,27.28,0,40.92v3.05h3.13c11.4,0,22.79-.06,34.19,0,10.84.08,19.16,6.4,21.67,16.41a25.15,25.15,0,0,1,.7,5.92q.06,49.17,0,98.32c0,13.42-9.14,22.48-22.61,22.55C245,226.86,241.44,226.85,237.59,226.85Zm-16.94,12.27a4.58,4.58,0,0,0,.33-.88q0-8.87.05-17.72c0-6.54,3.09-9.66,9.57-9.67,5.49,0,11-.17,16.47.06,5,.21,8-1.8,8.06-8.22.08-32.11,0-64.21,0-96.32,0-5.64-1.64-7.29-7.26-7.29q-73,0-146,0c-5.38,0-7,1.61-7,7q0,44.54,0,89.08c0,3.24,0,6.48,0,9.73s1.9,5.07,5.08,5.36c1.07.09,2.16.06,3.24.06,28.2,0,56.4,0,84.59,0a10.78,10.78,0,0,1,8.61,3.67c2.4,2.65,4.92,5.18,7.4,7.76ZM78.93,144.23v-3.29c0-11.47,0-23,0-34.43a29.27,29.27,0,0,1,.38-5.7C81.47,90.3,90,83.64,101.3,83.63q45.65,0,91.31,0h3.24c.05-1,.13-1.64.13-2.3q0-21,0-41.91C196,34.86,194,33,189.35,33q-73.09,0-146.2,0c-5,0-6.87,1.92-6.88,7,0,5.66,0,11.31,0,17v80.32c0,5.15,1.78,6.95,6.84,7,5.41,0,10.81,0,16.22,0Z"></path><rect x="109.02" y="129.91" width="133.68" height="16.63"></rect><rect x="109.02" y="163.83" width="133.68" height="16.63"></rect></g></svg>