<svg xmlns="http://www.w3.org/2000/svg" xmlns:xlink="http://www.w3.org/1999/xlink" version="1.1" style="enable-background:new 0 0 490 490;" xml:space="preserve" width="490" height="490"><rect id="backgroundrect" width="100%" height="100%" x="0" y="0" fill="none" stroke="none"/>
















<g class="currentLayer" style=""><title>Layer 1</title><g id="XMLID_874_" class="selected" fill-opacity="1" fill="#8c8c8c" stroke-width="5" stroke="#ffffff" stroke-opacity="1">
	<g id="svg_1" fill="#8c8c8c" stroke-width="5" stroke="#ffffff" stroke-opacity="1">
		<g id="svg_2" fill="#8c8c8c" stroke-width="5" stroke="#ffffff" stroke-opacity="1">
			<path d="M425,139.393h-75v-55c0-35.841-29.159-65-65-65H65c-35.841,0-65,29.159-65,65v100c0,34.159,26.486,62.248,60,64.81     v101.404l80-80v33.787c0,35.841,29.159,65,65,65h123.787L430,470.607V369.203c33.514-2.562,60-30.651,60-64.81v-100     C490,168.552,460.841,139.393,425,139.393z M140,204.393v23.787l-50,50v-58.787H65c-19.299,0-35-15.701-35-35v-100     c0-19.299,15.701-35,35-35h220c19.299,0,35,15.701,35,35v55H205C169.159,139.393,140,168.552,140,204.393z M460,304.393     c0,19.299-15.701,35-35,35h-25v58.787l-58.787-58.787H205c-19.299,0-35-15.701-35-35v-100c0-19.299,15.701-35,35-35h220     c19.299,0,35,15.701,35,35V304.393z" id="svg_3" fill="#8c8c8c" stroke-width="5" stroke="#ffffff" stroke-opacity="1"/>
			<rect x="215" y="209.39300537109375" width="200" height="30" id="svg_4" fill="#8c8c8c" stroke-width="5" stroke="#ffffff" stroke-opacity="1"/>
			<rect x="215" y="269.39300537109375" width="200" height="30" id="svg_5" fill="#8c8c8c" stroke-width="5" stroke="#ffffff" stroke-opacity="1"/>
		</g>
	</g>
</g><g id="svg_6">
</g><g id="svg_7">
</g><g id="svg_8">
</g><g id="svg_9">
</g><g id="svg_10">
</g><g id="svg_11">
</g><g id="svg_12">
</g><g id="svg_13">
</g><g id="svg_14">
</g><g id="svg_15">
</g><g id="svg_16">
</g><g id="svg_17">
</g><g id="svg_18">
</g><g id="svg_19">
</g><g id="svg_20">
</g></g></svg>