<?xml version="1.0" encoding="UTF-8"?>
<svg width="61px" height="33px" viewBox="0 0 61 33" version="1.1" xmlns="http://www.w3.org/2000/svg" xmlns:xlink="http://www.w3.org/1999/xlink">
    <!-- Generator: sketchtool 63.1 (101010) - https://sketch.com -->
    <title>0AC41201-F880-48DD-954E-8807027C1443</title>
    <desc>Created with sketchtool.</desc>
    <g id="4.-Team-Store" stroke="none" stroke-width="1" fill="none" fill-rule="evenodd">
        <g id="1.-Fixed-Date-Team-Store" transform="translate(-141.000000, -707.000000)">
            <g id="On-Demand" transform="translate(114.000000, 249.000000)">
                <g id="creditcard" transform="translate(27.000000, 458.000000)">
                    <rect id="Rectangle" stroke="#DCDCDC" stroke-width="0.5" fill="#FFFFFF" x="0.25" y="0.25" width="60.5" height="32.5" rx="2"></rect>
                    <g transform="translate(19.000000, 9.441176)">
                        <path d="M2,0 L20.9411765,0 C22.045746,-2.02906125e-16 22.9411765,0.8954305 22.9411765,2 L22.9411765,12.1176471 C22.9411765,13.2222166 22.045746,14.1176471 20.9411765,14.1176471 L2,14.1176471 C0.8954305,14.1176471 1.3527075e-16,13.2222166 0,12.1176471 L0,2 C-1.3527075e-16,0.8954305 0.8954305,2.02906125e-16 2,0 Z" id="Rectangle" stroke="#8C8C8C" stroke-width="0.5" fill="#8C8C8C"></path>
                        <polygon id="Rectangle-path" fill="#FFFFFF" fill-rule="nonzero" points="0 2.01680672 22.9411765 2.01680672 22.9411765 5.37815126 0 5.37815126"></polygon>
                        <polygon id="Rectangle-path" fill="#FFFFFF" fill-rule="nonzero" points="10.7958478 10.7563025 22.9411765 10.7563025 22.9411765 12.1008403 10.7958478 12.1008403"></polygon>
                    </g>
                </g>
            </g>
        </g>
    </g>
</svg>