<?xml version="1.0" encoding="UTF-8"?>
<svg width="45px" height="52px" viewBox="0 0 45 52" version="1.1" xmlns="http://www.w3.org/2000/svg" xmlns:xlink="http://www.w3.org/1999/xlink">
    <!-- Generator: Sketch 49 (51002) - http://www.bohemiancoding.com/sketch -->
    <title>Group</title>
    <desc>Created with Sketch.</desc>
    <defs></defs>
    <g id="Symbols" stroke="none" stroke-width="1" fill="none" fill-rule="evenodd">
        <g id="Design-Tools/Toolsets/Cube-View(Front)" transform="translate(-16.000000, 0.000000)">
            <g id="Group-10">
                <g id="Page-1" transform="translate(16.134704, 0.000000)">
                    <g id="Group">
                        <polygon id="Fill-1" fill="#FFFFFF" points="0.525306122 39.3215931 21.5177959 51.4985586 21.4468571 26.2319379 0.455265306 14.0531793"></polygon>
                        <g id="Group-8" transform="translate(0.000000, 0.854952)" stroke="#8C8C8C" stroke-linejoin="round" stroke-width="0.9">
                            <polygon id="Stroke-2" points="0.454906122 13.197869 0.524946939 38.4671793 21.5183347 50.6432483 21.446498 25.3775241"></polygon>
                            <polygon id="Stroke-4" points="43.4876245 12.6712345 22.488849 0.489786207 0.449338776 13.1957172 1.64182857 13.8878552 21.4472163 25.3771655 34.7962776 17.6829586"></polygon>
                            <polygon id="Stroke-6" fill="#8C8C8C" points="21.4468571 25.3774345 21.5204898 50.6548138 43.559102 37.9488828 43.4872653 12.6732966"></polygon>
                        </g>
                        <g id="Group-32" transform="translate(1.489796, 8.027366)">
                            <polygon id="Fill-9" fill="#8C8C8C" points="3.00242449 19.1030828 0.635404082 17.738531 0.621934694 22.2392207 1.02152653 22.4687379 1.02781224 20.3367379 2.85785306 21.3928759 2.85875102 20.9894276 1.0287102 19.9350828 1.0332 18.3714966 3.00152653 19.5056345"></polygon>
                            <path d="M4.90834286,20.2023448 L3.75177143,19.5353103 L3.7392,24.036 L4.13879184,24.2664138 L4.14417959,22.1577241 L4.81226122,22.5423448 L5.89340408,25.2777241 L6.38189388,25.5592414 L5.23879184,22.7575172 C5.38336327,22.8247586 5.51446531,22.8606207 5.63838367,22.8686897 C5.76230204,22.8848276 5.86556735,22.866 5.95626122,22.8148966 C6.04515918,22.7628966 6.11430204,22.6848966 6.16997551,22.5817931 C6.21846531,22.476 6.24630204,22.3415172 6.2472,22.1756552 C6.2472,21.9551034 6.21397551,21.7453103 6.14483265,21.5552414 C6.08377143,21.3696552 5.9876898,21.1885517 5.8709551,21.0253793 C5.74793469,20.8595172 5.60964898,20.7088966 5.44532245,20.5753103 C5.28009796,20.4318621 5.10140408,20.3135172 4.90834286,20.2023448 M4.14597551,21.7713103 L4.15046531,20.1611034 L4.8589551,20.5690345 C5.0107102,20.656 5.14091429,20.7393793 5.26483265,20.8424828 C5.38875102,20.9455862 5.49201633,21.0522759 5.57462857,21.1634483 C5.66352653,21.2782069 5.72548571,21.3929655 5.77307755,21.5229655 C5.82156735,21.6538621 5.84850612,21.7955172 5.84760816,21.9452414 C5.8467102,22.2142069 5.75691429,22.3603448 5.58450612,22.3953103 C5.41209796,22.4302759 5.16426122,22.3585517 4.84099592,22.172069 L4.14597551,21.7713103" id="Fill-10" fill="#8C8C8C"></path>
                            <path d="M8.91413878,22.3924414 C8.61781224,22.2220966 8.34932245,22.1306483 8.10148571,22.1055448 C7.84646531,22.0777517 7.63275102,22.1198897 7.44597551,22.2185103 C7.26728163,22.3287862 7.12181224,22.4901655 7.01764898,22.7223724 C6.91348571,22.9474069 6.85691429,23.2316138 6.85601633,23.5785793 C6.85601633,23.9264414 6.90989388,24.2734069 7.01226122,24.6176828 C7.11462857,24.969131 7.25830204,25.297269 7.43609796,25.6137517 C7.62197551,25.9257517 7.83479184,26.2144414 8.08891429,26.4798207 C8.33585306,26.7416138 8.60434286,26.9585793 8.90066939,27.1298207 C9.18981224,27.2956828 9.46458776,27.3916138 9.71332245,27.4158207 C9.96115918,27.4400276 10.1820571,27.4014759 10.361649,27.299269 C10.5475265,27.1934759 10.6929959,27.0320966 10.7971592,26.7998897 C10.9013224,26.5748552 10.9498122,26.2861655 10.9516082,25.9392 C10.9525061,25.5913379 10.9049143,25.2479586 10.8025469,24.9045793 C10.7001796,24.553131 10.5565061,24.2249931 10.3715265,23.9049241 C10.1928327,23.5956138 9.97283265,23.3033379 9.72499592,23.0424414 C9.47805714,22.7806483 9.20328163,22.5592 8.91413878,22.3924414 M8.90156735,26.7192 C8.6474449,26.5721655 8.42026122,26.3937517 8.22091429,26.1678207 C8.02156735,25.9508552 7.85005714,25.7096828 7.70548571,25.4443034 C7.56899592,25.1914759 7.4594449,24.9144414 7.3912,24.6383034 C7.31577143,24.3576828 7.28254694,24.0932 7.2834449,23.825131 C7.28434286,23.5642345 7.31936327,23.331131 7.3956898,23.1383724 C7.46483265,22.941131 7.57528163,22.7994759 7.71356735,22.697269 C7.85903673,22.5986483 8.0314449,22.5556138 8.23079184,22.5681655 C8.43103673,22.5726483 8.65822041,22.6560276 8.91324082,22.8030621 C9.16017959,22.9456138 9.38736327,23.1240276 9.59389388,23.3535448 C9.79324082,23.5714069 9.96475102,23.8125793 10.1012408,24.0734759 C10.2458122,24.3379586 10.3481796,24.6033379 10.4236082,24.8839586 C10.4981388,25.1636828 10.5322612,25.437131 10.5313633,25.697131 C10.5304653,25.9652 10.4954449,26.1902345 10.4191184,26.3838897 C10.3427918,26.5766483 10.2386286,26.7308552 10.0940571,26.8205103 C9.95577143,26.9236138 9.78336327,26.9666483 9.58311837,26.9532 C9.37658776,26.945131 9.14940408,26.8617517 8.90156735,26.7192" id="Fill-12" fill="#8C8C8C"></path>
                            <polygon id="Fill-14" fill="#8C8C8C" points="14.9902694 26.0137034 14.5906776 25.7832897 14.579902 29.620531 14.5664327 29.6124621 12.2928 24.4590828 11.7899429 24.1686 11.7773714 28.6692897 12.1769633 28.8997034 12.1877388 25.0230138 12.2012082 25.0310828 14.4748408 30.2239103 14.977698 30.5143931"></polygon>
                            <polygon id="Fill-16" fill="#8C8C8C" points="18.6031184 28.0961241 15.5752 26.3505379 15.5734041 26.7530897 16.8880163 27.5115724 16.8763429 31.6088138 17.2759347 31.838331 17.2876082 27.7410897 18.6022204 28.4986759"></polygon>
                            <polygon id="Fill-18" fill="#8C8C8C" points="19.6212245 2.63451724 16.4262857 0.793 16.0527347 1.00996552 17.4355918 1.80789655 13.7009796 3.97486207 14.1212245 4.21693103 17.8567347 2.04996552 19.2467755 2.85148276"></polygon>
                            <path d="M22.1055184,3.94124138 C21.7939265,3.76193103 21.4536,3.63193103 21.0773551,3.54048276 C20.7091918,3.45262069 20.3329469,3.41137931 19.9504163,3.40689655 C19.5678857,3.41137931 19.1853551,3.45710345 18.8180898,3.54496552 C18.4427429,3.63641379 18.0970286,3.77 17.7872327,3.94931034 C17.471151,4.13310345 17.2412735,4.33393103 17.0904163,4.54641379 C16.9332735,4.76337931 16.855151,4.98572414 16.856049,5.20268966 C16.8569469,5.42772414 16.9305796,5.64468966 17.0832327,5.85806897 C17.2430694,6.07503448 17.4756408,6.26689655 17.7872327,6.44710345 C18.0916408,6.62193103 18.4238857,6.75551724 18.8001306,6.84786207 C19.1691918,6.93572414 19.5445388,6.97696552 19.935151,6.97696552 C20.3176816,6.98144828 20.7002122,6.93572414 21.0746612,6.84337931 C21.4428245,6.75551724 21.7813551,6.61834483 22.0974367,6.43455172 C22.4072327,6.25524138 22.6442939,6.058 22.8014367,5.84103448 C22.9522939,5.62855172 23.0304163,5.40710345 23.0295184,5.18117241 C23.0205388,4.96062069 22.9469061,4.74365517 22.7942531,4.53027586 C22.6344163,4.31331034 22.4090286,4.11696552 22.1055184,3.94124138 M18.154498,6.23372414 C17.8860082,6.07951724 17.6974367,5.91275862 17.580702,5.73703448 C17.472049,5.55772414 17.4199673,5.37841379 17.4262531,5.1982069 C17.4469061,5.01889655 17.5187429,4.84317241 17.6543347,4.67193103 C17.7980082,4.50517241 17.9847837,4.34648276 18.2218449,4.20841379 C18.4669878,4.06675862 18.7336816,3.96186207 19.0219265,3.87848276 C19.3173551,3.79958621 19.628049,3.75386207 19.9378449,3.74041379 C20.2485388,3.73682759 20.5592327,3.76641379 20.8699265,3.82917241 C21.1734367,3.89551724 21.4634776,4.004 21.7310694,4.1582069 C21.9923755,4.30882759 22.180049,4.47558621 22.2967837,4.65131034 C22.4135184,4.83510345 22.464702,5.01441379 22.4512327,5.19013793 C22.4305796,5.36944828 22.3524571,5.54875862 22.2168653,5.72 C22.0731918,5.88675862 21.8936,6.04186207 21.6484571,6.18351724 C21.4113959,6.32158621 21.1375184,6.43006897 20.8492735,6.51344828 C20.5529469,6.59324138 20.2503347,6.63448276 19.9396408,6.64703448 C19.6370286,6.65510345 19.3263347,6.62641379 19.0084571,6.55917241 C18.704049,6.49282759 18.4149061,6.38434483 18.154498,6.23372414" id="Fill-20" fill="#8C8C8C"></path>
                            <path d="M26.191502,6.42164138 L25.0250531,5.74922759 L20.9159918,8.13405517 L21.3362367,8.37612414 L23.2506857,7.26529655 L23.9888082,7.69115862 C24.1989306,7.8121931 24.4090531,7.90812414 24.6263592,7.98343448 C24.850849,8.05426207 25.0600735,8.10088276 25.2764816,8.11702069 C25.4866041,8.13853793 25.6958286,8.12508966 25.9050531,8.08743448 C26.1061959,8.0461931 26.3091347,7.97088276 26.4959102,7.8624 C26.6826857,7.75391724 26.8057061,7.64095172 26.8766449,7.52350345 C26.9484816,7.40695172 26.9691347,7.28591724 26.939502,7.16129655 C26.9026857,7.03936552 26.829951,6.91474483 26.698849,6.78922759 C26.5758286,6.6681931 26.4016245,6.54267586 26.191502,6.42164138 M23.6026857,7.06088276 L25.0861143,6.2001931 L25.8026857,6.61350345 C26.1214612,6.79729655 26.3100327,6.97302069 26.3612163,7.14426207 C26.4276653,7.31550345 26.3270939,7.4741931 26.0756653,7.62033103 C25.8314204,7.76198621 25.5566449,7.82115862 25.2531347,7.79515862 C24.9648898,7.77005517 24.6461143,7.66157241 24.3201551,7.4741931 L23.6026857,7.06088276" id="Fill-22" fill="#8C8C8C"></path>
                            <polygon id="Fill-24" fill="#FFFFFF" points="26.0634531 25.5628276 25.6432082 25.8057931 25.6566776 30.5503448 28.0030449 29.1974483 28.0021469 28.7653103 26.0760245 29.8761379"></polygon>
                            <polygon id="Fill-26" fill="#FFFFFF" points="31.1846041 22.610931 28.6209306 24.0884483 28.633502 28.8338966 31.2708082 27.3142414 31.2699102 26.8821034 29.052849 28.1596897 29.0474612 26.3316207 31.053502 25.175069 31.053502 24.751 29.0465633 25.9075517 29.0411755 24.2785172 31.185502 23.043069"></polygon>
                            <polygon id="Fill-28" fill="#FFFFFF" points="34.5747592 20.6567172 32.0829224 22.0929931 32.0963918 26.8384414 32.5166367 26.5963724 32.510351 24.3523034 34.4373714 23.2414759 34.4355755 22.8093379 32.5085551 23.9201655 32.5040653 22.2830621 34.5756571 21.0888552"></polygon>
                            <polygon id="Fill-30" fill="#FFFFFF" points="38.0736571 18.6399241 34.885902 20.4769586 34.887698 20.9090966 36.2705551 20.1120621 36.2831265 24.4253724 36.7033714 24.1824069 36.6908 19.8699931 38.0745551 19.0720621"></polygon>
                        </g>
                    </g>
                </g>
            </g>
        </g>
    </g>
</svg>