<?xml version="1.0" encoding="UTF-8"?>
<svg width="45px" height="52px" viewBox="0 0 45 52" version="1.1" xmlns="http://www.w3.org/2000/svg" xmlns:xlink="http://www.w3.org/1999/xlink">
    <!-- Generator: Sketch 49 (51002) - http://www.bohemiancoding.com/sketch -->
    <title>Group 12</title>
    <desc>Created with Sketch.</desc>
    <defs></defs>
    <g id="Symbols" stroke="none" stroke-width="1" fill="none" fill-rule="evenodd">
        <g id="Group-11" transform="translate(-16.000000, -1.000000)">
            <g id="Page-1" transform="translate(16.203533, 0.500000)">
                <g id="Group-12">
                    <polygon id="Stroke-22" stroke="#8C8C8C" stroke-width="0.9" fill="#8C8C8C" stroke-linejoin="round" points="21.4473061 26.2323862 21.5200408 51.5097655 43.559551 38.8038345 43.4877143 13.5282483"></polygon>
                    <g id="Group-16" transform="translate(24.675003, 25.868634)" fill="#FFFFFF">
                        <path d="M1.78427797,8.31553812 L0.637578004,8.97708484 L0.650402235,13.4467932 L1.05222813,13.2141849 L1.04795339,11.1239106 L1.70198915,10.7461888 L2.78563665,12.2154627 L3.27082005,11.9359059 L2.12412008,10.4634309 C2.26839268,10.3652659 2.40411579,10.2478947 2.51953386,10.1177194 C2.64350143,9.99287915 2.7514387,9.85096671 2.83265883,9.7026522 C2.92135976,9.55753873 2.99723646,9.39642009 3.04425864,9.22783238 C3.09769293,9.06351271 3.11799796,8.90346109 3.11799796,8.73807441 C3.11692928,8.51933719 3.08273133,8.35928556 3.02074755,8.23764633 C2.95235165,8.12881122 2.86365072,8.05412046 2.74075184,8.03064622 C2.62319639,8.00397095 2.47999248,8.01677508 2.31648354,8.07119263 C2.1529746,8.1266772 1.97557274,8.205636 1.78427797,8.31553812 M1.04581602,10.7333847 L1.04154127,9.13606945 L1.74473659,8.73060533 C1.8879405,8.6484455 2.02473229,8.58549186 2.14656249,8.53747637 C2.26304925,8.50226501 2.36564309,8.49052789 2.45434402,8.501198 C2.53663284,8.51720316 2.60502873,8.56415164 2.65205091,8.63777539 C2.70014178,8.71246615 2.7215155,8.81810022 2.72258418,8.96641473 C2.72258418,9.23316744 2.64136405,9.4753789 2.46503088,9.71118829 C2.29510983,9.94272964 2.04931207,10.1550648 1.72763762,10.3396577 L1.04581602,10.7333847" id="Fill-1"></path>
                        <polygon id="Fill-4" points="4.33597928 6.84466368 3.93308469 7.07620503 3.94590893 11.5469804 4.34880351 11.3143721"></polygon>
                        <path d="M7.18723324,5.08324219 C6.89441331,5.25289691 6.62831052,5.4684331 6.38251276,5.72771673 C6.13778369,5.98700037 5.91977177,6.27722731 5.73702648,6.58666046 C5.55962462,6.90036164 5.4174894,7.23326902 5.31489556,7.57364548 C5.2133704,7.92255802 5.16100479,8.26720253 5.16100479,8.60331094 C5.16100479,8.94795544 5.21764514,9.2296463 5.32023898,9.45265157 C5.4174894,9.68739395 5.561762,9.84744558 5.73916385,9.95628068 C5.92297783,10.0619148 6.13564632,10.1045952 6.38892488,10.0757859 C6.63365395,10.0523117 6.90723754,9.94987862 7.20112616,9.78022389 C7.46722895,9.62657433 7.71943882,9.44945053 7.96523657,9.2296463 C8.20996564,9.01837815 8.44187048,8.77403267 8.65347029,8.50407893 L8.64705817,6.49169649 L7.34326138,7.24287212 L7.34433007,7.64193417 L8.25271308,7.11909886 L8.25698782,8.47420263 C8.14156974,8.62678518 7.99088503,8.78363577 7.80707106,8.94475441 C7.6296692,9.101605 7.4255502,9.25098652 7.20753827,9.3768938 C6.95425972,9.52307428 6.72876699,9.59776504 6.5310601,9.60203308 C6.33228453,9.61483721 6.16129478,9.57215678 6.01702219,9.48252787 C5.88023039,9.38009483 5.77122443,9.24031641 5.69534773,9.04825446 C5.61947103,8.85725952 5.58527309,8.62571817 5.5842044,8.36750154 C5.58313571,8.10181585 5.61626498,7.83933118 5.69107299,7.56084135 C5.765881,7.28341853 5.87381828,7.00919675 6.00954139,6.74991311 C6.1527453,6.49489752 6.32266635,6.24841802 6.52037324,6.03288183 C6.71914882,5.81627863 6.94250417,5.63168576 7.19578273,5.48657228 C7.43409968,5.34892788 7.65318029,5.26996908 7.83699426,5.24969588 C8.02187692,5.23795876 8.18645455,5.26783506 8.32217766,5.35426294 L8.59469256,4.88371116 C8.43011494,4.78234513 8.23240804,4.74820078 8.00050321,4.7791441 C7.76752968,4.80368535 7.50142689,4.90291735 7.18723324,5.08324219" id="Fill-7"></path>
                        <polygon id="Fill-10" points="12.5650744 2.1014804 12.1685919 2.32875371 12.175004 4.26324436 10.0515252 5.48603878 10.0472504 3.55261514 9.65076796 3.78095546 9.66359219 8.25066386 10.059006 8.02232354 10.0536625 5.90857507 12.1760727 4.68578065 12.1824848 6.79952912 12.5778986 6.5711888"></polygon>
                        <polygon id="Fill-13" points="16.1541491 0.0326530885 13.1511417 1.76334467 13.1522104 2.16240672 14.4560072 1.41123109 14.4677628 5.48187744 14.8631765 5.25353712 14.851421 1.18289077 16.1552178 0.431715142"></polygon>
                    </g>
                    <polygon id="Fill-17" fill="#8C8C8C" points="0.525306122 39.3215931 21.516898 51.4985586 21.4468571 26.2319379 0.455265306 14.0531793"></polygon>
                    <g id="Group-24" transform="translate(0.000000, 0.854952)" stroke="#8C8C8C" stroke-linejoin="round" stroke-width="0.9">
                        <polygon id="Stroke-18" fill="#FFFFFF" points="0.454906122 13.197869 0.524946939 38.4671793 21.5174367 50.6432483 21.4473959 25.3775241"></polygon>
                        <polygon id="Stroke-20" points="43.4876245 12.6712345 22.487951 0.489786207 0.448440816 13.1957172 1.64093061 13.8878552 21.4472163 25.3771655 34.7962776 17.6829586"></polygon>
                    </g>
                    <g id="Group-30" transform="translate(14.959184, 8.717021)" fill="#8C8C8C">
                        <polygon id="Fill-25" points="6.15228571 1.94486207 2.95734694 0.103344828 2.58289796 0.320310345 3.96665306 1.11824138 0.231142857 3.2852069 0.651387755 3.52727586 4.38689796 1.36031034 5.77783673 2.16182759"></polygon>
                        <path d="M8.63568163,3.25158621 C8.3240898,3.07227586 7.98376327,2.94227586 7.60751837,2.85082759 C7.2393551,2.76296552 6.86400816,2.72172414 6.48147755,2.71724138 C6.09894694,2.72172414 5.71641633,2.76744828 5.34825306,2.85531034 C4.97380408,2.94675862 4.62719184,3.08034483 4.31739592,3.25965517 C4.00131429,3.44344828 3.77143673,3.64427586 3.62147755,3.85675862 C3.46343673,4.07372414 3.38531429,4.29606897 3.38621224,4.51303448 C3.38800816,4.73806897 3.46074286,4.95503448 3.61429388,5.16841379 C3.77413061,5.38537931 4.00670204,5.57724138 4.31739592,5.75744828 C4.62180408,5.93227586 4.95494694,6.06586207 5.33029388,6.1582069 C5.6993551,6.24606897 6.07470204,6.28731034 6.46531429,6.28731034 C6.8478449,6.2917931 7.23037551,6.24606897 7.60572245,6.15372414 C7.97298776,6.06586207 8.31151837,5.92868966 8.62849796,5.74489655 C8.93739592,5.56558621 9.1753551,5.36834483 9.33249796,5.15137931 C9.48245714,4.93889655 9.56057959,4.71744828 9.55968163,4.49151724 C9.5516,4.27096552 9.47796735,4.054 9.32531429,3.84062069 C9.16547755,3.62365517 8.9400898,3.42731034 8.63568163,3.25158621 M4.68555918,5.54406897 C4.41706939,5.38986207 4.22849796,5.22310345 4.11176327,5.04737931 C4.00221224,4.86806897 3.95102857,4.68875862 3.95731429,4.50855172 C3.97796735,4.32924138 4.04890612,4.15351724 4.18539592,3.98227586 C4.32817143,3.81551724 4.51494694,3.65682759 4.75290612,3.51875862 C4.99715102,3.37710345 5.2638449,3.2722069 5.5520898,3.18882759 C5.84841633,3.10993103 6.15821224,3.0642069 6.46890612,3.05075862 C6.7796,3.04717241 7.08939592,3.07675862 7.40098776,3.13951724 C7.70449796,3.20586207 7.99364082,3.31434483 8.26123265,3.46855172 C8.52253878,3.61917241 8.7111102,3.78593103 8.8278449,3.96165517 C8.94457959,4.14544828 8.99576327,4.32475862 8.98229388,4.50048276 C8.96164082,4.6797931 8.88262041,4.85910345 8.74702857,5.03034483 C8.6033551,5.19710345 8.42466122,5.3522069 8.17862041,5.49386207 C7.94245714,5.63193103 7.66768163,5.74041379 7.38033469,5.8237931 C7.08400816,5.90358621 6.78139592,5.94482759 6.47070204,5.95737931 C6.16719184,5.96544828 5.85649796,5.93675862 5.53862041,5.86951724 C5.2351102,5.80317241 4.94596735,5.69468966 4.68555918,5.54406897" id="Fill-26"></path>
                        <path d="M12.7221143,5.73198621 L11.5556653,5.05957241 L7.44660408,7.4444 L7.86684898,7.68646897 L9.78129796,6.57564138 L10.5203184,7.00150345 C10.7295429,7.12253793 10.9405633,7.21846897 11.1569714,7.29377931 C11.3814612,7.3646069 11.5906857,7.41122759 11.8070939,7.42736552 C12.0172163,7.44888276 12.2264408,7.43543448 12.4356653,7.39777931 C12.6368082,7.35653793 12.8397469,7.28122759 13.0265224,7.17274483 C13.213298,7.06426207 13.3363184,6.95129655 13.4072571,6.83384828 C13.4790939,6.71729655 13.4997469,6.59626207 13.4701143,6.47164138 C13.433298,6.34971034 13.3605633,6.22508966 13.2294612,6.09957241 C13.1064408,5.97853793 12.9322367,5.85302069 12.7221143,5.73198621 M10.133298,6.37122759 L11.6167265,5.51053793 L12.333298,5.92384828 C12.6520735,6.10764138 12.8406449,6.28336552 12.8918286,6.4546069 C12.9582776,6.62584828 12.8577061,6.78453793 12.6062776,6.93067586 C12.3620327,7.07233103 12.0872571,7.13150345 11.7837469,7.10550345 C11.495502,7.0804 11.1767265,6.97191724 10.8507673,6.78453793 L10.133298,6.37122759" id="Fill-28"></path>
                    </g>
                    <g id="Group-43" transform="translate(2.622449, 27.119581)" fill="#8C8C8C">
                        <path d="M2.04106803,0.989499687 L0.926544218,0.346447962 L0.914217687,4.64371546 L2.02155102,5.28266479 C2.23829252,5.40676249 2.43551701,5.48983615 2.60706122,5.52778339 C2.77757823,5.57393542 2.92138776,5.57393542 3.04670748,5.5400906 C3.16483673,5.51137377 3.25728571,5.43547931 3.32302721,5.32368882 C3.38876871,5.21805193 3.42266667,5.07139101 3.42266667,4.89909007 C3.42369388,4.58217941 3.33946259,4.27757597 3.18229932,4.00579175 C3.02513605,3.73503312 2.82277551,3.50529854 2.57932653,3.3350488 L2.57932653,3.31966479 C2.7837415,3.38427764 2.94090476,3.36991923 3.06622449,3.26838474 C3.18435374,3.17095266 3.24393197,3.00890773 3.24495918,2.78327555 C3.24598639,2.56584817 3.21311565,2.37303521 3.14121088,2.18842706 C3.06930612,2.00381891 2.97788435,1.83869718 2.86078231,1.68793386 C2.74881633,1.54127294 2.61836054,1.40486803 2.47352381,1.29102633 C2.32971429,1.17103103 2.18590476,1.07257335 2.04106803,0.989499687 M1.30147619,2.44687847 L1.30558503,0.942322048 L1.96813605,1.32384556 C2.09242857,1.39563762 2.21055782,1.47871129 2.31636054,1.56178495 C2.42729932,1.64896102 2.52591156,1.75049551 2.60397959,1.85613239 C2.68204762,1.96176928 2.7467619,2.08176458 2.79298639,2.19970867 C2.84537415,2.32688318 2.86489116,2.45098088 2.86489116,2.59456499 C2.86386395,2.73712351 2.84331973,2.83865799 2.79093197,2.90634765 C2.74573469,2.97711411 2.68615646,3.02634295 2.60706122,3.03352215 C2.52796599,3.04890617 2.44270748,3.04480376 2.35128571,3.01403574 C2.25267347,2.98019091 2.16022449,2.94224368 2.06777551,2.88993804 L1.30147619,2.44687847 M1.29531293,4.48577294 L1.30044898,2.80071076 L2.08112925,3.25094953 C2.38929252,3.42837847 2.62452381,3.63965225 2.78887755,3.86938683 C2.95939456,4.11040303 3.04362585,4.37090564 3.04259864,4.64884347 C3.04259864,4.79960679 3.00870068,4.90832048 2.95631293,4.99139415 C2.89673469,5.06216061 2.82482993,5.10318464 2.73238095,5.11856865 C2.63376871,5.12985026 2.5289932,5.12164545 2.40470068,5.07959582 C2.27321769,5.03446938 2.14173469,4.97395893 2.00408844,4.89498767 L1.29531293,4.48577294" id="Fill-31"></path>
                        <path d="M5.83897483,3.17843955 L5.46507007,2.96306338 L3.83283197,6.32498292 L4.25193401,6.56702471 L4.66179116,5.67372638 L6.59705646,6.78855449 L7.00691361,8.15568041 L7.43320612,8.40079901 L5.83897483,3.17843955 Z M4.8076551,5.34963652 L5.64072313,3.54663025 L6.45427415,6.29831729 L4.8076551,5.34963652 Z" id="Fill-34"></path>
                        <path d="M9.6489,5.26215277 C9.36744422,5.09908224 9.11166871,5.01190617 8.87438299,4.98831735 C8.63196122,4.96165172 8.42857347,5.00267576 8.25086599,5.09600543 C8.07932177,5.20061672 7.9406483,5.36266165 7.84203605,5.57701223 C7.74342381,5.79854201 7.69000884,6.06930063 7.68898163,6.39236489 C7.68795442,6.72363396 7.73931497,7.05490303 7.82970952,7.37796729 C7.92729456,7.71436437 8.06494082,8.02614702 8.23443061,8.32767367 C8.40494762,8.62920031 8.61449864,8.90098454 8.85692041,9.15328234 C9.0921517,9.40968255 9.35409048,9.61377712 9.63657347,9.77684765 C9.80709048,9.87530533 9.95809048,9.93889258 10.1019,9.97683981 C10.2467367,10.0229918 10.3782197,10.0383759 10.496349,10.0311967 C10.6144782,10.0240175 10.720281,10.0014542 10.8055395,9.95325099 C10.8979884,9.90812456 10.9760565,9.84761411 11.041798,9.77992445 L10.7408252,9.38814493 C10.6103694,9.53070345 10.4511517,9.60557231 10.2549544,9.5901883 C10.0638932,9.58608589 9.85331497,9.51019143 9.64376395,9.38917053 C9.40134218,9.24968882 9.18562789,9.07943908 8.99456667,8.8640629 C8.80555986,8.65689154 8.64223333,8.42715695 8.50458707,8.17383354 C8.37413129,7.92563814 8.26935578,7.66923793 8.19847823,7.40258171 C8.12657347,7.1348999 8.09370272,6.87542288 8.09472993,6.62722748 C8.09575714,6.37903208 8.1296551,6.1575023 8.20258707,5.97289415 C8.26832857,5.7852092 8.37413129,5.64982989 8.50561429,5.55239781 C8.64326054,5.45804253 8.8086415,5.4170185 8.99867551,5.42932571 C9.18870952,5.44163292 9.4126415,5.51752738 9.65506327,5.65700909 C9.77319252,5.72469875 9.88413129,5.80469561 9.9889068,5.89494848 C10.0947095,5.99238056 10.1851041,6.08365904 10.2765259,6.18929592 C10.3617844,6.29083041 10.4408796,6.39646729 10.5066211,6.50210418 L10.6627571,6.80363083 L10.9791381,6.71440355 C10.9133966,6.57081944 10.8343014,6.43544013 10.7428796,6.30006082 C10.6452946,6.1595535 10.540519,6.02417419 10.4223898,5.89597409 C10.311451,5.77187638 10.1861313,5.65495789 10.0556755,5.549321 C9.91802925,5.43240251 9.78757347,5.34112403 9.6489,5.26215277" id="Fill-37"></path>
                        <polygon id="Fill-40" points="14.416802 8.12316886 13.8723803 7.80933501 12.0840061 8.70776134 12.0768156 8.70365893 12.0829789 6.77758056 11.7008565 6.55810199 11.6895571 10.8543439 12.0696252 11.0738225 12.0768156 8.785707 12.0840061 8.7898094 13.9525027 12.1589082 14.5102782 12.4799212 12.5226252 8.98364796"></polygon>
                    </g>
                </g>
            </g>
        </g>
    </g>
</svg>