<?xml version="1.0" encoding="utf-8"?>
<svg viewBox="50.525 93.967 310.069 180.705" width="310.069" height="180.705" style="enable-background:new 0 0 380 380;" xmlns="http://www.w3.org/2000/svg">
  <defs>
    <style type="text/css">
	.st0{display:none;}
	.st1{display:inline;}
	.st2{fill:#E21313;}
	.st3{fill:#E61737;}
	.st4{display:inline;fill:#E61737;}
</style>
  </defs>
  <g class="st0">
    <g class="st1">
      <g>
        <path class="st2" d="M153.5,196.56h-19.5c-6.98,0-12.66-5.68-12.66-12.66v-8.45h10.28v8.45c0,1.31,1.07,2.39,2.38,2.39h19.5 c1.31,0,2.38-1.07,2.38-2.38v-7.47h10.28v7.47C166.16,190.88,160.48,196.56,153.5,196.56z"/>
      </g>
    </g>
    <g class="st1">
      <path class="st2" d="M258.15,277.5H121.84c-6.58,0-11.93-5.35-11.93-11.93v-8.19h10.28v8.19c0,0.91,0.74,1.65,1.65,1.65h136.31 c0.91,0,1.65-0.74,1.65-1.65v-8.19h10.28v8.19C270.08,272.15,264.73,277.5,258.15,277.5z"/>
    </g>
    <g class="st1">
      <path class="st2" d="M263.45,260.3H116.43c-8.82,0-16-7.18-16-16v-12.59c0-8.82,7.18-16,16-16h90.1c0.14,0,0.26-0.08,0.31-0.2 c3.05-8.1,8.51-29.2-6.38-50.27l-19.75-0.06v5.34c0,6.91-5.62,12.53-12.52,12.53h-47.52c-6.91,0-12.52-5.62-12.52-12.53v-35.79 c0-15.01,12.21-27.22,27.22-27.22h99.32c16.29,0,30.35,11.47,34.99,28.54c6.75,24.79,10.26,63.24,9.88,108.28 C279.48,253.13,272.26,260.3,263.45,260.3z M116.43,225.98c-3.16,0-5.73,2.57-5.73,5.73v12.59c0,3.16,2.57,5.73,5.73,5.73h147.03 c3.18,0,5.8-2.6,5.82-5.79c0.36-43.48-3.11-81.93-9.52-105.5c-3.41-12.54-13.49-20.96-25.08-20.96h-99.32 c-9.34,0-16.95,7.6-16.95,16.95v35.79c0,1.24,1.01,2.25,2.25,2.25h47.52c1.24,0,2.25-1.01,2.25-2.25v-6.73 c0-4.9,3.99-8.89,8.89-8.89h20.91c3.44,0,6.67,1.65,8.61,4.41c17.73,25.09,11.23,50.19,7.61,59.82c-1.54,4.1-5.53,6.86-9.93,6.86 H116.43z"/>
    </g>
    <g class="st1">
      <rect x="138.61" y="192.5" class="st2" width="10.28" height="17.87"/>
    </g>
  </g>
  <g>
    <g>
      <path class="st3" d="M135.3,272.03c-15.69,0-28.46-12.76-28.46-28.46c0-15.69,12.76-28.46,28.46-28.46 c15.69,0,28.46,12.76,28.46,28.46C163.75,259.26,150.99,272.03,135.3,272.03z M135.3,222.53c-11.6,0-21.03,9.43-21.03,21.03 c0,11.6,9.43,21.03,21.03,21.03c11.6,0,21.03-9.43,21.03-21.03C156.33,231.97,146.9,222.53,135.3,222.53z" style="fill: rgba(0, 0, 0, 0.25);"/>
    </g>
    <g>
      <path class="st3" d="M303.57,272.03c-15.69,0-28.46-12.76-28.46-28.46c0-15.69,12.76-28.46,28.46-28.46 c15.69,0,28.46,12.76,28.46,28.46C332.03,259.26,319.26,272.03,303.57,272.03z M303.57,222.53c-11.6,0-21.03,9.43-21.03,21.03 c0,11.6,9.43,21.03,21.03,21.03s21.03-9.43,21.03-21.03C324.6,231.97,315.17,222.53,303.57,222.53z" style="fill: rgba(0, 0, 0, 0.25);"/>
    </g>
    <g>
      <ellipse transform="matrix(0.9716 -0.2367 0.2367 0.9716 -49.0207 78.7658)" class="st3" cx="303.57" cy="243.57" rx="9.9" ry="9.9" style="fill: rgba(0, 0, 0, 0.25);"/>
    </g>
    <g>
      <ellipse transform="matrix(0.8702 -0.4927 0.4927 0.8702 -102.4437 98.2753)" class="st3" cx="135.3" cy="243.57" rx="9.9" ry="9.9" style="fill: rgba(0, 0, 0, 0.25);"/>
    </g>
    <g>
      <path class="st3" d="M343.16,242.33c-2.05,0-3.71-1.66-3.71-3.71s1.66-3.71,3.71-3.71c3.41,0,6.19-2.77,6.19-6.19V178.7 c0-2-0.7-3.94-1.96-5.48l-38.03-46.49c-1.65-2.02-4.1-3.18-6.7-3.18h-39.92v111.36h1.24c2.05,0,3.71,1.66,3.71,3.71 s-1.66,3.71-3.71,3.71h-4.95c-2.05,0-3.71-1.66-3.71-3.71V119.84c0-2.05,1.66-3.71,3.71-3.71h43.63c4.84,0,9.38,2.15,12.45,5.9 l38.03,46.49c2.34,2.86,3.64,6.48,3.64,10.18v50.02C356.77,236.23,350.67,242.33,343.16,242.33z" style="fill: rgba(0, 0, 0, 0.25);"/>
    </g>
    <g>
      <path class="st3" d="M331.54,182.94h-52.71c-2.05,0-3.71-1.66-3.71-3.71v-39.59c0-2.05,1.66-3.71,3.71-3.71h20.29 c1.11,0,2.17,0.5,2.87,1.36l32.42,39.59c0.91,1.11,1.1,2.65,0.48,3.94C334.28,182.11,332.97,182.94,331.54,182.94z M282.54,175.52 h41.16l-26.35-32.17h-14.82V175.52z" style="fill: rgba(0, 0, 0, 0.25);"/>
    </g>
    <g>
      <path class="st3" d="M353.06,222.53h-19.8c-2.05,0-3.71-1.66-3.71-3.71v-19.8c0-2.05,1.66-3.71,3.71-3.71h19.8 c2.05,0,3.71,1.66,3.71,3.71c0,2.05-1.66,3.71-3.71,3.71h-16.08v12.37h16.08c2.05,0,3.71,1.66,3.71,3.71 C356.77,220.87,355.11,222.53,353.06,222.53z" style="fill: rgba(0, 0, 0, 0.25);"/>
    </g>
    <g>
      <path class="st3" d="M259.03,242.33h-79.19c-2.05,0-3.71-1.66-3.71-3.71s1.66-3.71,3.71-3.71h79.19c2.05,0,3.71,1.66,3.71,3.71 S261.08,242.33,259.03,242.33z" style="fill: rgba(0, 0, 0, 0.25);"/>
    </g>
    <g>
      <path class="st3" d="M90.75,242.33h-9.9c-2.05,0-3.71-1.66-3.71-3.71v-59.39c0-2.05,1.66-3.71,3.71-3.71s3.71,1.66,3.71,3.71 v55.68h6.19c2.05,0,3.71,1.66,3.71,3.71S92.8,242.33,90.75,242.33z" style="fill: rgba(0, 0, 0, 0.25);"/>
    </g>
    <g>
      <path class="st3" d="M259.03,123.55c-2.05,0-3.71-1.66-3.71-3.71v-16.08H84.57v11.14c0,2.05-1.66,3.71-3.71,3.71 s-3.71-1.66-3.71-3.71v-14.85c0-2.05,1.66-3.71,3.71-3.71h178.17c2.05,0,3.71,1.66,3.71,3.71v19.8 C262.74,121.89,261.08,123.55,259.03,123.55z" style="fill: rgba(0, 0, 0, 0.25);"/>
    </g>
    <g>
      <path class="st3" d="M169.94,207.69c-0.95,0-1.9-0.36-2.62-1.09l-34.64-34.64c-1.45-1.45-1.45-3.8,0-5.25l14.85-14.85 c1.45-1.45,3.8-1.45,5.25,0l17.17,17.17l36.97-36.97c1.45-1.45,3.8-1.45,5.25,0l14.85,14.85c1.45,1.45,1.45,3.8,0,5.25 l-54.44,54.44C171.84,207.32,170.89,207.69,169.94,207.69z M140.55,169.33l29.4,29.4l49.19-49.19l-9.6-9.6l-36.97,36.97 c-1.45,1.45-3.8,1.45-5.25,0l-17.17-17.17L140.55,169.33z" style="fill: rgba(0, 0, 0, 0.25);"/>
    </g>
    <g>
      <path class="st3" d="M115.5,163.14H56.11c-2.05,0-3.71-1.66-3.71-3.71c0-2.05,1.66-3.71,3.71-3.71h59.39 c2.05,0,3.71,1.66,3.71,3.71C119.21,161.48,117.55,163.14,115.5,163.14z" style="fill: rgba(0, 0, 0, 0.25);"/>
    </g>
    <g>
      <path class="st3" d="M130.35,138.4H70.96c-2.05,0-3.71-1.66-3.71-3.71c0-2.05,1.66-3.71,3.71-3.71h59.39 c2.05,0,3.71,1.66,3.71,3.71C134.06,136.73,132.4,138.4,130.35,138.4z" style="fill: rgba(0, 0, 0, 0.25);"/>
    </g>
  </g>
  <g class="st0">
    <path class="st4" d="M268.78,186.4c-8.53,0-15.46,6.09-15.46,13.57c0,7.48,6.94,13.57,15.46,13.57c8.52,0,15.46-6.09,15.46-13.57 C284.24,192.48,277.3,186.4,268.78,186.4z M268.78,209.01c-5.68,0-10.31-4.06-10.31-9.04c0-4.99,4.62-9.05,10.31-9.05 c5.68,0,10.3,4.06,10.3,9.05C279.09,204.95,274.46,209.01,268.78,209.01z M314.61,119.99c-0.26-4.68-1.73-8.27-4.5-10.85 c-4.83-4.53-11.94-4.53-16.65-4.53l-10.65-0.1v-7.14c0-1.25-1.15-2.26-2.58-2.26c-1.42,0-2.57,1.01-2.57,2.26v7.09l-24.07-0.22 c-1.81-0.02-3.67-0.04-5.55-0.05c0.59-0.74,0.94-1.63,0.94-2.6c0-2.5-2.31-4.52-5.15-4.52h-35.38c-2.85,0-5.15,2.02-5.15,4.52 c0,0.79,0.25,1.53,0.66,2.17c-21.97-0.2-43.47-0.39-58.2-0.47v-5.62c0-1.75-1.61-3.17-3.61-3.17c-1.99,0-3.61,1.42-3.61,3.17v5.59 c-2-0.01-3.78-0.01-5.32-0.01c-30.86,0-45.86,9.62-45.86,29.4c0,35.53,7.84,51.39,8.18,52.05c0.83,1.63,2.67,2.68,4.7,2.68h29.37 v13.57H89.92c-1.47,0-3.68,0.42-5.83,2.39c-5.48,5.05-8.9,19.71-8.59,25.41c0.34,6.29,2.49,38.05,2.58,39.4 c0.16,2.39,2.41,4.26,5.14,4.26h227.75c2.84,0,5.15-2.03,5.15-4.52c0-27.77-1.66-47.05-3.01-62.54 c-0.88-10.11-1.63-18.83-1.63-27.02c0-5.16,0.56-15.23,0.67-15.23c3.17,0.11,5.85-1.82,5.99-4.32l1.91-34.07 C320.22,122.21,317.76,120.1,314.61,119.99z M91.16,209.99h16.87c-0.26,0.51-0.41,1.07-0.41,1.66c0,2.25,2.08,4.07,4.64,4.07h44.66 c2.56,0,4.64-1.82,4.64-4.07c0-0.59-0.15-1.15-0.41-1.66h45.76c3.2,0,11.34,0,16.15-4.9c-0.08,1.63-0.52,8.42-0.52,9.88 c0,4.72-1.11,6.19-2.2,7.01c-2.05,1.55-6.51,2.34-13.26,2.34l-120.92-0.29C87.03,218.73,89.41,212.09,91.16,209.99z M134.76,200.94 v-13.57h14.43c2.19,0,4.14-1.21,4.86-3.03l7.74-19.48c1.52-3.87,3.28-4.18,5.43-4.18h37.1c3.18,0,5.67,1,7.46,5.91 c1.6,4.37,5.41,25.81,4.47,30.38c-0.36,1.77-0.81,3.97-9.35,3.97H134.76z M88.09,263.36c-0.49-7.27-1.48-22.1-2-30.29l120.98,0.29 c9.67,0,15.83-1.39,19.97-4.52c5.13-3.87,5.79-9.45,5.79-13.87c0-1.21,0.11-2.9,0.23-4.85c0.6-9.29,0.58-18.85-1.31-28.04 c-1.7-8.3-6.05-18.61-12.66-24.92c-3.44-3.28-7.05-5.52-14.78-5.52c-7.73,0-37.1,0-37.1,0c-7.4,0-12.5,3.46-15.18,10.29 l-6.52,16.39h-41.66c-2.02-5.63-6.21-20.33-6.21-45.68c0-10.57,4.31-20.35,35.56-20.35c19.77,0,80.24,0.6,120.26,0.99l39.99,0.37 c3.87,0,7.48,0.13,9.13,1.67c1.4,1.31,1.99,4.07,1.7,7.99c0,0-3.1,38.32-3.1,55.02c0,8.53,0.77,17.42,1.66,27.7 c1.25,14.48,2.79,32.31,2.96,57.33H88.09z M268.78,161.59c10.51,0,19.06-7.51,19.06-16.73c0-9.23-8.55-16.74-19.06-16.74 c-10.51,0-19.07,7.51-19.07,16.74C249.72,154.09,258.27,161.59,268.78,161.59z M268.78,135.36c5.97,0,10.82,4.26,10.82,9.5 c0,5.24-4.85,9.49-10.82,9.49c-5.97,0-10.82-4.26-10.82-9.49C257.96,139.62,262.81,135.36,268.78,135.36z M268.78,175.84 c-15.16,0-27.48,10.82-27.48,24.12c0,13.3,12.33,24.12,27.48,24.12c15.15,0,27.48-10.82,27.48-24.12 C296.26,186.66,283.93,175.84,268.78,175.84z M268.78,216.85c-10.61,0-19.24-7.57-19.24-16.89c0-9.31,8.63-16.89,19.24-16.89 c10.61,0,19.24,7.57,19.24,16.89C288.02,209.28,279.39,216.85,268.78,216.85z"/>
  </g>
</svg>