<?xml version='1.0' encoding='ASCII' standalone='yes'?>
<svg xmlns:xlink="http://www.w3.org/1999/xlink" xmlns="http://www.w3.org/2000/svg" version="1.1" width="4453" viewBox="0 0 4453 4453" height="4453">
  <g>
    <g><g id="colorblock_x5F_5">
	<g>
		<defs>
			<path id="_x31_" d="M2763.586,2284.81l-788.929-0.001l-62.537-1526.95l25.767-16.748c0,0,3.312-2.286,3.492-2.41     c58.462-40.34,84.074-123.826,91.424-190.722c8.11-73.809-8.671-144.828-8.671-217.972l-1.457-10.85l-1.545-10.833l-1.633-10.823     l-1.748-10.992l-23.126-147.103L2497.29,8.001l20.328,26.638l1.64,2.019l1.706,1.977c0,0,1.444,1.573,1.731,1.886     c44.036,47.951,122.01,33.532,179.824,33.369l29.912-0.084l30.72-0.289l0.126,0.001l30.037,0.267c0,0,25.63,0.056,29.404,0.064     c83.716,0.183,151.923,4.507,205.664-66.025l502.739,131.067l-26.396,169.068c0,0-1.515,10.678-1.515,10.683     c-16.735,125.154-36.047,318.68,71.441,411.678l3.296,2.697l3.382,2.614l3.445,2.517l3.503,2.414l25.776,16.731l-61.52,1526.992     L2763.586,2284.81z"/>
		</defs>
		<clipPath id="_x31__1_">
			<use xlink:href="#_x31_" style="overflow:visible;"/>
		</clipPath>
		<g style="clip-path:url(#_x31__1_);">
			<g>
				<polygon style="fill:#000D3C;" points="3712.537,689.756 3503.608,789.275 3304.868,883.94 3115.591,974.098 2935.116,1060.063       2762.843,1142.122 2590.571,1060.063 2410.096,974.098 2220.819,883.94 2022.08,789.275 1813.15,689.756 1593.226,585       1580.885,579.122 1580.885,626.766 1609.017,640.166 1825.971,743.508 2032.08,841.683 2228.136,935.07 2414.858,1024.011       2592.896,1108.816 2762.843,1189.766 2932.79,1108.816 3110.829,1024.011 3297.551,935.07 3493.607,841.683 3699.715,743.508       3916.67,640.166 3944.802,626.766 3944.802,579.122 3932.461,585     "/>
				<polygon style="fill:#000D3C;" points="3743.461,560.11 3527.729,662.87 3322.518,760.617 3127.077,853.711 2940.726,942.476       2762.843,1027.206 2584.961,942.476 2398.61,853.711 2203.169,760.617 1997.958,662.87 1782.225,560.11 1580.885,464.206       1580.885,512.641 1795.26,614.754 2008.125,716.148 2210.608,812.596 2403.451,904.452 2587.326,992.037 2762.843,1075.641       2938.362,992.037 3122.236,904.452 3315.079,812.596 3517.562,716.148 3730.427,614.754 3944.802,512.641 3944.802,464.206           "/>
			</g>
		</g>
	</g>
	<g>
		<defs>
			<path id="_x32_" d="M891.836,2284.81H100.744L40.538,758.492l24.456-16.686l3.207-2.301l3.142-2.369l3.094-2.449     c0,0,2.785-2.313,3.03-2.517c118.374-98.351,94.342-277.669,73.473-410.59l-1.64-10.446L123.04,139.356L644.765,3.001     l8.578,58.26l1.255,7.842c0,0,0.003,0.017,0.009,0.05c9.899,57.255,26.6,119.769,54.956,170.724     c28.68,51.537,76.744,93.137,136.635,100.844l3.255,0.332l41.736,0.841c0,0,41.753-0.869,41.775-0.871     c60.661-6.242,109.37-47.65,138.6-99.419c29.93-53.007,42.073-114.141,56.05-172.667l1.25-7.838l8.537-58.263l521.811,136.005     l-29.272,192.469l-1.384,10.047l-1.301,10.125c-8.148,68.371-14.249,141.239-4.9,209.717     c8.931,65.415,37.776,136.846,92.104,177.754l3.216,2.304l24.459,16.669l-59.187,1526.353L891.836,2284.81z"/>
		</defs>
		<clipPath id="_x32__1_">
			<use xlink:href="#_x32_" style="overflow:visible;"/>
		</clipPath>
		<g style="clip-path:url(#_x32__1_);">
			<g>
				<g>
					<polygon style="fill:#000D3C;" points="1840.618,690.391 1631.688,789.91 1432.949,884.575 1243.671,974.733        1063.196,1060.699 890.924,1142.757 718.651,1060.699 538.177,974.733 348.899,884.575 150.16,789.91 -58.769,690.391        -278.693,585.635 -291.034,579.757 -291.034,627.402 -262.902,640.802 -45.948,744.143 160.161,842.318 356.217,935.706        542.939,1024.646 720.977,1109.451 890.924,1190.401 1060.871,1109.451 1238.909,1024.646 1425.631,935.706 1621.687,842.318        1827.796,744.143 2044.751,640.801 2072.882,627.402 2072.882,579.757 2060.541,585.635      "/>
					<polygon style="fill:#000D3C;" points="1871.542,560.745 1655.809,663.505 1450.598,761.252 1255.158,854.346        1068.806,943.111 890.924,1027.841 713.042,943.111 526.69,854.346 331.25,761.252 126.039,663.505 -89.694,560.745        -291.034,464.841 -291.034,513.276 -76.66,615.389 136.205,716.783 338.689,813.231 531.532,905.088 715.406,992.672        890.924,1076.276 1066.442,992.672 1250.317,905.088 1443.159,813.231 1645.642,716.783 1858.508,615.389 2072.882,513.276        2072.882,464.841      "/>
				</g>
			</g>
		</g>
	</g>
</g>
<g>
</g>
</g>
    <g><g id="colorblock_x5F_4">
	<g>
		<defs>
			<path id="_x33_" d="M2763.586,2284.81l-788.929-0.001l-62.537-1526.95l25.767-16.748c0,0,3.312-2.286,3.492-2.41     c58.462-40.34,84.074-123.826,91.424-190.722c8.11-73.809-8.671-144.828-8.671-217.972l-1.457-10.85l-1.545-10.833l-1.633-10.823     l-1.748-10.992l-23.126-147.103L2497.29,8.001l20.328,26.638l1.64,2.019l1.706,1.977c0,0,1.444,1.573,1.731,1.886     c44.036,47.951,122.01,33.532,179.824,33.369l29.912-0.084l30.72-0.289l0.126,0.001l30.037,0.267c0,0,25.63,0.056,29.404,0.064     c83.716,0.183,151.923,4.507,205.664-66.025l502.739,131.067l-26.396,169.068c0,0-1.515,10.678-1.515,10.683     c-16.735,125.154-36.047,318.68,71.441,411.678l3.296,2.697l3.382,2.614l3.445,2.517l3.503,2.414l25.776,16.731l-61.52,1526.992     L2763.586,2284.81z"/>
		</defs>
		<clipPath id="_x33__1_">
			<use xlink:href="#_x33_" style="overflow:visible;"/>
		</clipPath>
		<g style="clip-path:url(#_x33__1_);">
			<g>
				<path style="fill:#265FAC;" d="M3517.562,716.148l-202.483,96.448l-192.843,91.856l-183.875,87.585l-175.518,83.604      l-175.518-83.604l-183.875-87.585l-192.843-91.856l-202.483-96.448L1795.26,614.754l-214.374-102.113v29.244v37.237      l12.341,5.878l219.924,104.756l208.93,99.519l198.739,94.665l189.277,90.158l180.475,85.965l172.272,82.058l172.273-82.058      l180.475-85.965l189.277-90.158l198.74-94.665l208.929-99.519L3932.461,585l12.341-5.878v-37.236v-29.244l-214.375,102.113      L3517.562,716.148z M1623.001,572.117l-2.375,18.445l-8.92-16.318l-18.276,3.441l12.763-13.526l-8.92-16.318l16.808,7.959      l12.763-13.526l-2.375,18.445l16.808,7.959L1623.001,572.117z M1726.487,621.384l-2.375,18.445l-8.92-16.318l-18.276,3.441      l12.763-13.526l-8.92-16.318l16.808,7.959l12.763-13.526l-2.375,18.445l16.808,7.959L1726.487,621.384z M1829.973,670.65      l-2.375,18.445l-8.92-16.318l-9.166,1.726l-9.11,1.715l7.598-8.052l5.165-5.474l-8.92-16.318l16.808,7.959l12.763-13.526      l-2.375,18.445l16.808,7.959L1829.973,670.65z M1933.459,719.917l-2.375,18.445l-8.92-16.318l-18.276,3.441l12.763-13.526      l-8.92-16.318l16.808,7.958l12.763-13.526l-2.375,18.445l16.808,7.959L1933.459,719.917z M2036.945,769.184l-2.375,18.445      l-8.92-16.318l-6.756,1.272l-11.521,2.169l9.927-10.52l2.836-3.006l-5.239-9.583l-3.682-6.735l2.635,1.247l14.173,6.711      l12.763-13.526l-2.375,18.445l16.808,7.958L2036.945,769.184z M2140.431,818.45l-2.375,18.445l-8.92-16.318l-18.276,3.441      l12.763-13.526l-8.92-16.318l16.808,7.959l12.763-13.526l-2.375,18.445l16.808,7.959L2140.431,818.45z M2243.917,867.717      l-2.375,18.445l-8.92-16.318l-13.457,2.534l-4.819,0.907l4.297-4.554l8.466-8.972l-8.92-16.318l16.808,7.959l12.763-13.526      l-2.375,18.445l16.808,7.959L2243.917,867.717z M2347.402,916.984l-2.375,18.445l-8.92-16.318l-18.276,3.441l12.763-13.526      l-8.92-16.318l16.808,7.958l12.763-13.526l-2.375,18.445l16.808,7.959L2347.402,916.984z M2450.888,966.25l-2.375,18.445      l-8.92-16.318l-18.276,3.441l12.763-13.526l-8.92-16.318l16.808,7.958l12.763-13.526l-2.375,18.445l16.809,7.959      L2450.888,966.25z M2554.374,1015.517l-2.375,18.445l-8.92-16.318l-18.276,3.441l12.763-13.526l-8.92-16.318l16.808,7.959      l12.763-13.526l-2.375,18.445l16.809,7.958L2554.374,1015.517z M2657.86,1064.784l-2.375,18.445l-8.92-16.318l-18.276,3.441      l12.763-13.526l-8.92-16.318l16.808,7.958l12.763-13.526l-2.375,18.445l16.808,7.959L2657.86,1064.784z M2777.889,1128.058      l-15.046-10.931l-15.045,10.931l5.746-17.687l-15.045-10.931h18.597l5.747-17.687l5.747,17.687h18.597l-15.045,10.931      L2777.889,1128.058z M2879.122,1066.91l-8.92,16.318l-2.375-18.445l-18.276-3.441l16.808-7.959l-2.375-18.445l12.763,13.526      l16.808-7.958l-8.92,16.318l12.763,13.526L2879.122,1066.91z M2982.608,1017.644l-8.92,16.318l-2.375-18.445l-18.276-3.441      l16.808-7.958l-2.375-18.445l12.763,13.526l16.808-7.959l-8.92,16.318l12.763,13.526L2982.608,1017.644z M3086.094,968.377      l-8.92,16.318l-2.375-18.445l-18.276-3.441l16.808-7.959l-2.375-18.445l12.763,13.526l16.808-7.958l-8.92,16.318l12.763,13.526      L3086.094,968.377z M3189.58,919.11l-8.92,16.318l-2.375-18.445l-18.276-3.441l16.808-7.959l-2.375-18.445l12.763,13.526      l16.808-7.958l-8.92,16.318l12.763,13.526L3189.58,919.11z M3306.523,872.377l-13.458-2.534l-8.92,16.318l-2.375-18.445      l-18.276-3.441l16.808-7.959l-2.375-18.445l12.763,13.526l16.808-7.959l-8.92,16.318l8.466,8.972l4.297,4.554L3306.523,872.377z       M3898.843,542.273l12.763,13.526l16.808-7.959l-8.92,16.318l12.763,13.526l-18.276-3.441l-8.92,16.318l-2.375-18.445      l-18.276-3.441l16.809-7.959L3898.843,542.273z M3795.357,591.539l12.763,13.526l16.808-7.959l-8.92,16.318l12.763,13.526      l-18.276-3.441l-8.92,16.318l-2.375-18.445l-18.276-3.441l16.808-7.959L3795.357,591.539z M3396.551,820.577l-8.92,16.318      l-2.375-18.445l-18.276-3.441l16.808-7.959l-2.375-18.445l12.763,13.526l16.808-7.959l-8.92,16.318l12.763,13.526      L3396.551,820.577z M3506.793,772.582l-6.756-1.272l-8.92,16.318l-2.375-18.445l-18.276-3.441l16.808-7.958l-2.375-18.445      l12.763,13.526l14.174-6.711l2.634-1.247l-3.681,6.735l-5.239,9.583l2.836,3.006l9.927,10.52L3506.793,772.582z       M3603.523,722.044l-8.92,16.318l-2.375-18.445l-18.276-3.441l16.809-7.959l-2.375-18.445l12.763,13.526l16.808-7.958      l-8.92,16.318l12.763,13.526L3603.523,722.044z M3716.175,674.503l-9.166-1.726l-8.92,16.318l-2.375-18.445l-18.276-3.441      l16.809-7.959l-2.375-18.445l12.763,13.526l16.808-7.959l-8.92,16.318l5.165,5.474l7.598,8.052L3716.175,674.503z"/>
				<polygon style="fill:#265FAC;" points="2762.843,-248.48 1580.885,-248.48 1580.885,-200.044 1580.885,-133.564       1580.885,-85.919 1580.885,367.079 1580.885,424.305 1580.885,464.206 1782.225,560.11 1997.958,662.87 2203.169,760.617       2398.61,853.711 2584.961,942.476 2762.843,1027.206 2940.726,942.476 3127.077,853.711 3322.518,760.617 3527.729,662.87       3743.461,560.11 3944.802,464.206 3944.802,424.305 3944.802,367.079 3944.802,-85.919 3944.802,-133.564 3944.802,-200.044       3944.802,-248.48     "/>
			</g>
		</g>
	</g>
	<g>
		<defs>
			<path id="_x34_" d="M891.836,2284.81H100.744L40.538,758.492l24.456-16.686l3.207-2.301l3.142-2.369l3.094-2.449     c0,0,2.785-2.313,3.03-2.517c118.374-98.351,94.342-277.669,73.473-410.59l-1.64-10.446L123.04,139.356L644.765,3.001     l8.578,58.26l1.255,7.842c0,0,0.003,0.017,0.009,0.05c9.899,57.255,26.6,119.769,54.956,170.724     c28.68,51.537,76.744,93.137,136.635,100.844l3.255,0.332l41.736,0.841c0,0,41.753-0.869,41.775-0.871     c60.661-6.242,109.37-47.65,138.6-99.419c29.93-53.007,42.073-114.141,56.05-172.667l1.25-7.838l8.537-58.263l521.811,136.005     l-29.272,192.469l-1.384,10.047l-1.301,10.125c-8.148,68.371-14.249,141.239-4.9,209.717     c8.931,65.415,37.776,136.846,92.104,177.754l3.216,2.304l24.459,16.669l-59.187,1526.353L891.836,2284.81z"/>
		</defs>
		<clipPath id="_x34__1_">
			<use xlink:href="#_x34_" style="overflow:visible;"/>
		</clipPath>
		<g style="clip-path:url(#_x34__1_);">
			<g>
				<g>
					<path style="fill:#265FAC;" d="M1645.642,716.783l-202.483,96.448l-192.842,91.856l-183.875,87.585l-175.518,83.604       l-175.518-83.604l-183.875-87.585l-192.843-91.856l-202.483-96.448L-76.66,615.389l-214.374-102.113v29.244v37.237       l12.341,5.878l219.924,104.756l208.93,99.519l198.739,94.665l189.277,90.158l180.475,85.965l172.273,82.058l172.272-82.058       l180.475-85.965l189.277-90.158l198.74-94.665l208.929-99.519l219.924-104.756l12.341-5.878v-37.236v-29.244l-214.375,102.113       L1645.642,716.783z M-248.918,572.752l-2.375,18.445l-8.92-16.318l-18.276,3.441l12.763-13.526l-8.92-16.318l16.808,7.959       l12.763-13.526l-2.375,18.445l16.808,7.958L-248.918,572.752z M-145.432,622.019l-2.375,18.445l-8.92-16.318l-18.276,3.441       l12.763-13.526l-8.92-16.318l16.808,7.959l12.763-13.526l-2.375,18.445l16.808,7.959L-145.432,622.019z M-41.947,671.285       l-2.375,18.445l-8.92-16.318l-9.166,1.726l-9.11,1.715l7.598-8.052l5.165-5.474l-8.92-16.318l16.808,7.959l12.763-13.526       l-2.375,18.445l16.808,7.959L-41.947,671.285z M61.539,720.552l-2.375,18.445l-8.92-16.318l-18.276,3.441l12.763-13.526       l-8.92-16.318l16.808,7.958l12.763-13.526l-2.375,18.445l16.808,7.959L61.539,720.552z M165.025,769.819l-2.375,18.445       l-8.92-16.318l-6.756,1.272l-11.52,2.169l9.927-10.52l2.836-3.006l-5.239-9.583l-3.682-6.735l2.635,1.247l14.173,6.711       l12.763-13.526l-2.375,18.445l16.808,7.958L165.025,769.819z M268.511,819.085l-2.375,18.445l-8.92-16.318l-18.276,3.441       l12.763-13.526l-8.92-16.318l16.808,7.959l12.763-13.526l-2.375,18.445l16.808,7.958L268.511,819.085z M371.997,868.352       l-2.375,18.445l-8.92-16.318l-13.457,2.534l-4.819,0.907l4.297-4.554l8.466-8.972l-8.92-16.318l16.808,7.959l12.763-13.526       l-2.375,18.445l16.808,7.959L371.997,868.352z M475.483,917.619l-2.375,18.445l-8.92-16.318l-18.276,3.441l12.763-13.526       l-8.92-16.318l16.808,7.959l12.763-13.526l-2.375,18.445l16.809,7.959L475.483,917.619z M578.969,966.885l-2.375,18.445       l-8.92-16.318l-18.276,3.441l12.763-13.526l-8.92-16.318l16.808,7.958l12.763-13.526l-2.375,18.445l16.809,7.959       L578.969,966.885z M682.455,1016.152l-2.375,18.445l-8.92-16.318l-18.276,3.441l12.763-13.526l-8.92-16.318l16.808,7.958       l12.763-13.526l-2.375,18.445l16.809,7.958L682.455,1016.152z M785.941,1065.419l-2.375,18.445l-8.92-16.318l-18.276,3.441       l12.763-13.526l-8.92-16.318l16.808,7.958l12.763-13.526l-2.375,18.445l16.808,7.958L785.941,1065.419z M905.97,1128.693       l-15.046-10.931l-15.045,10.931l5.746-17.687l-15.045-10.931h18.597l5.747-17.687l5.747,17.687h18.597l-15.045,10.931       L905.97,1128.693z M1007.203,1067.545l-8.92,16.318l-2.375-18.445l-18.276-3.441l16.808-7.958l-2.375-18.445l12.763,13.526       l16.808-7.958l-8.92,16.318l12.763,13.526L1007.203,1067.545z M1110.689,1018.279l-8.92,16.318l-2.375-18.445l-18.276-3.441       l16.808-7.958l-2.375-18.445l12.763,13.526l16.808-7.958l-8.92,16.318l12.763,13.526L1110.689,1018.279z M1214.175,969.012       l-8.92,16.318l-2.375-18.445l-18.276-3.441l16.808-7.959l-2.375-18.445l12.763,13.526l16.808-7.958l-8.92,16.318l12.763,13.526       L1214.175,969.012z M1317.661,919.745l-8.92,16.318l-2.375-18.445l-18.276-3.441l16.808-7.959l-2.375-18.445l12.763,13.526       l16.808-7.959l-8.92,16.318l12.763,13.526L1317.661,919.745z M1434.603,873.013l-13.457-2.534l-8.92,16.318l-2.375-18.445       l-18.276-3.441l16.808-7.959l-2.375-18.445l12.763,13.526l16.808-7.959l-8.92,16.318l8.466,8.973l4.297,4.554L1434.603,873.013       z M2026.923,542.908l12.763,13.526l16.808-7.959l-8.92,16.318l12.763,13.526l-18.276-3.441l-8.92,16.318l-2.375-18.445       l-18.276-3.441l16.808-7.958L2026.923,542.908z M1923.437,592.174l12.763,13.526l16.808-7.959l-8.92,16.318l12.763,13.526       l-18.276-3.441l-8.92,16.318l-2.375-18.445l-18.276-3.441l16.808-7.959L1923.437,592.174z M1524.632,821.212l-8.92,16.318       l-2.375-18.445l-18.276-3.441l16.808-7.958l-2.375-18.445l12.763,13.526l16.808-7.959l-8.92,16.318l12.763,13.526       L1524.632,821.212z M1634.873,773.217l-6.756-1.272l-8.92,16.318l-2.375-18.445l-18.276-3.441l16.808-7.958l-2.375-18.445       l12.763,13.526l14.174-6.711l2.634-1.247l-3.682,6.735l-5.239,9.583l2.836,3.006l9.927,10.52L1634.873,773.217z        M1731.604,722.679l-8.92,16.318l-2.375-18.445l-18.276-3.441l16.808-7.959l-2.375-18.445l12.763,13.526l16.808-7.958       l-8.92,16.318l12.763,13.526L1731.604,722.679z M1844.256,675.138l-9.166-1.726l-8.92,16.318l-2.375-18.445l-18.276-3.441       l16.808-7.959l-2.375-18.445l12.763,13.526l16.808-7.959l-8.92,16.318l5.165,5.474l7.598,8.052L1844.256,675.138z"/>
					<polygon style="fill:#265FAC;" points="890.924,-247.845 -291.034,-247.845 -291.034,-199.409 -291.034,-132.929        -291.034,-85.284 -291.034,367.714 -291.034,424.941 -291.034,464.841 -89.694,560.745 126.039,663.505 331.25,761.252        526.69,854.346 713.042,943.111 890.924,1027.841 1068.806,943.111 1255.158,854.346 1450.598,761.252 1655.809,663.505        1871.542,560.745 2072.882,464.841 2072.882,424.941 2072.882,367.714 2072.882,-85.284 2072.882,-132.929 2072.882,-199.409        2072.882,-247.845      "/>
				</g>
			</g>
		</g>
	</g>
</g>
<g>
</g>
</g>
    <g><g id="colorblock_x5F_3">
	<g>
		<defs>
			<path id="_x35_" d="M2763.586,2284.81l-788.929-0.001l-62.537-1526.95l25.767-16.748c0,0,3.312-2.286,3.492-2.41     c58.462-40.34,84.074-123.826,91.424-190.722c8.11-73.809-8.671-144.828-8.671-217.972l-1.457-10.85l-1.545-10.833l-1.633-10.823     l-1.748-10.992l-23.126-147.103L2497.29,8.001l20.328,26.638l1.64,2.019l1.706,1.977c0,0,1.444,1.573,1.731,1.886     c44.036,47.951,122.01,33.532,179.824,33.369l29.912-0.084l30.72-0.289l0.126,0.001l30.037,0.267c0,0,25.63,0.056,29.404,0.064     c83.716,0.183,151.923,4.507,205.664-66.025l502.739,131.067l-26.396,169.068c0,0-1.515,10.678-1.515,10.683     c-16.735,125.154-36.047,318.68,71.441,411.678l3.296,2.697l3.382,2.614l3.445,2.517l3.503,2.414l25.776,16.731l-61.52,1526.992     L2763.586,2284.81z"/>
		</defs>
		<clipPath id="_x35__1_">
			<use xlink:href="#_x35_" style="overflow:visible;"/>
		</clipPath>
		<g style="clip-path:url(#_x35__1_);">
			<g>
				<polygon style="fill:#FFFFFF;" points="1580.885,626.766 1580.885,579.122 1580.885,541.885 1530.849,367.079 1325.517,367.079       2116.209,2734.818 2208.585,2734.818 1609.017,640.166     "/>
				<polygon style="fill:#FFFFFF;" points="1825.971,743.508 2300.961,2734.818 2393.338,2734.818 2032.08,841.683     "/>
				<polygon style="fill:#FFFFFF;" points="2228.136,935.07 2485.715,2734.818 2578.091,2734.818 2414.858,1024.011     "/>
				<polygon style="fill:#FFFFFF;" points="2592.896,1108.816 2670.467,2734.818 2762.843,2734.818 2762.843,1189.766     "/>
				<polygon style="fill:#FFFFFF;" points="2932.79,1108.816 2855.22,2734.818 2947.596,2734.818 3110.829,1024.011     "/>
				<polygon style="fill:#FFFFFF;" points="3297.551,935.07 3039.973,2734.818 3132.349,2734.818 3493.607,841.683     "/>
				<polygon style="fill:#FFFFFF;" points="3699.715,743.508 3224.725,2734.818 3317.102,2734.818 3916.67,640.166     "/>
				<polygon style="fill:#FFFFFF;" points="2738.5,1099.44 2753.545,1110.371 2747.798,1128.058 2762.843,1117.127       2762.843,1081.753 2757.096,1099.44     "/>
				<polygon style="fill:#FFFFFF;" points="2777.889,1128.058 2772.142,1110.371 2787.187,1099.44 2768.59,1099.44       2762.843,1081.753 2762.843,1117.127     "/>
				<polygon style="fill:#FFFFFF;" points="2661.703,1034.939 2648.94,1048.465 2632.132,1040.507 2641.052,1056.825       2628.289,1070.351 2646.565,1066.91 2655.485,1083.228 2657.86,1064.784 2676.136,1061.343 2659.328,1053.384     "/>
				<polygon style="fill:#FFFFFF;" points="2555.842,1004.117 2558.217,985.673 2545.454,999.199 2528.646,991.24       2537.566,1007.559 2524.803,1021.085 2543.079,1017.644 2551.999,1033.962 2554.374,1015.517 2572.65,1012.076     "/>
				<polygon style="fill:#FFFFFF;" points="2454.731,936.406 2441.968,949.932 2425.16,941.974 2434.08,958.292 2421.317,971.818       2439.593,968.377 2448.513,984.695 2450.888,966.25 2469.165,962.809 2452.356,954.851     "/>
				<polygon style="fill:#FFFFFF;" points="2348.87,905.584 2351.245,887.139 2338.482,900.665 2321.674,892.707 2330.594,909.025       2317.831,922.551 2336.107,919.11 2345.028,935.429 2347.402,916.984 2365.678,913.543     "/>
				<polygon style="fill:#FFFFFF;" points="2232.621,869.844 2241.542,886.162 2243.917,867.717 2262.193,864.276 2245.385,856.317       2247.76,837.873 2234.996,851.399 2218.188,843.44 2227.108,859.758 2218.642,868.731 2219.164,872.377     "/>
				<polygon style="fill:#FFFFFF;" points="2219.164,872.377 2218.642,868.731 2214.345,873.285     "/>
				<polygon style="fill:#FFFFFF;" points="2144.274,788.606 2131.51,802.132 2114.702,794.174 2123.623,810.492 2110.859,824.018       2129.135,820.577 2138.056,836.895 2140.431,818.45 2158.707,815.009 2141.898,807.051     "/>
				<polygon style="fill:#FFFFFF;" points="2007.373,774.751 2018.894,772.582 2017.3,764.231     "/>
				<polygon style="fill:#FFFFFF;" points="2014.898,751.642 2013.851,746.154 2011.216,744.907     "/>
				<polygon style="fill:#FFFFFF;" points="2020.137,761.225 2017.3,764.231 2018.894,772.582 2025.65,771.31 2034.57,787.628       2036.945,769.184 2055.221,765.743 2038.413,757.784 2040.788,739.339 2028.024,752.865 2013.851,746.154 2014.898,751.642           "/>
				<polygon style="fill:#FFFFFF;" points="1937.302,690.073 1924.539,703.599 1907.731,695.64 1916.651,711.958 1903.888,725.485       1922.164,722.044 1931.084,738.362 1933.459,719.917 1951.735,716.476 1934.927,708.517     "/>
				<polygon style="fill:#FFFFFF;" points="1827.598,689.095 1829.973,670.65 1848.249,667.209 1831.441,659.251 1833.816,640.806       1821.053,654.332 1804.245,646.374 1813.165,662.692 1808,668.165 1809.512,674.503 1818.678,672.777     "/>
				<polygon style="fill:#FFFFFF;" points="1800.402,676.218 1809.512,674.503 1808,668.165     "/>
				<polygon style="fill:#FFFFFF;" points="1715.192,623.51 1724.112,639.828 1726.487,621.384 1744.763,617.943 1727.955,609.984       1730.33,591.539 1717.567,605.065 1700.759,597.107 1709.679,613.425 1696.916,626.951     "/>
				<polygon style="fill:#FFFFFF;" points="1611.706,574.244 1620.626,590.562 1623.001,572.117 1641.277,568.676 1624.469,560.717       1626.844,542.273 1614.081,555.799 1597.273,547.84 1606.193,564.158 1593.43,577.685     "/>
				<polygon style="fill:#FFFFFF;" points="2884.635,1056.825 2893.555,1040.507 2876.747,1048.465 2863.984,1034.939       2866.359,1053.384 2849.551,1061.343 2867.827,1064.784 2870.202,1083.228 2879.122,1066.91 2897.398,1070.351     "/>
				<polygon style="fill:#FFFFFF;" points="2997.041,991.24 2980.233,999.199 2967.47,985.673 2969.845,1004.117 2953.037,1012.076       2971.312,1015.517 2973.688,1033.962 2982.608,1017.644 3000.884,1021.085 2988.121,1007.559     "/>
				<polygon style="fill:#FFFFFF;" points="3091.607,958.292 3100.527,941.974 3083.719,949.932 3070.955,936.406 3073.331,954.851       3056.523,962.809 3074.799,966.25 3077.174,984.695 3086.094,968.377 3104.37,971.818     "/>
				<polygon style="fill:#FFFFFF;" points="3204.013,892.707 3187.205,900.665 3174.441,887.139 3176.817,905.584 3160.009,913.543       3178.284,916.984 3180.66,935.429 3189.58,919.11 3207.856,922.551 3195.093,909.025     "/>
				<polygon style="fill:#FFFFFF;" points="3311.342,873.285 3307.045,868.731 3306.523,872.377     "/>
				<polygon style="fill:#FFFFFF;" points="3307.499,843.44 3290.69,851.399 3277.927,837.873 3280.302,856.317 3263.495,864.276       3281.77,867.717 3284.145,886.162 3293.065,869.844 3306.523,872.377 3307.045,868.731 3298.579,859.758     "/>
				<polygon style="fill:#FFFFFF;" points="3410.984,794.174 3394.176,802.132 3381.413,788.606 3383.788,807.051 3366.98,815.009       3385.256,818.45 3387.631,836.895 3396.551,820.577 3414.827,824.018 3402.065,810.492     "/>
				<polygon style="fill:#FFFFFF;" points="3484.899,739.339 3487.274,757.784 3470.466,765.743 3488.742,769.184 3491.117,787.628       3500.037,771.31 3506.793,772.582 3508.386,764.231 3505.55,761.225 3510.789,751.642 3511.836,746.154 3497.662,752.865           "/>
				<polygon style="fill:#FFFFFF;" points="3518.313,774.751 3508.386,764.231 3506.793,772.582     "/>
				<polygon style="fill:#FFFFFF;" points="3514.47,744.907 3511.836,746.154 3510.789,751.642     "/>
				<polygon style="fill:#FFFFFF;" points="3592.228,719.917 3594.603,738.362 3603.523,722.044 3621.799,725.485 3609.036,711.958       3617.956,695.64 3601.148,703.599 3588.385,690.073 3590.76,708.517 3573.952,716.476     "/>
				<polygon style="fill:#FFFFFF;" points="3725.285,676.218 3717.687,668.165 3716.175,674.503     "/>
				<polygon style="fill:#FFFFFF;" points="3721.442,646.374 3704.634,654.332 3691.871,640.806 3694.246,659.251 3677.438,667.209       3695.714,670.65 3698.089,689.095 3707.009,672.777 3716.175,674.503 3717.687,668.165 3712.522,662.692     "/>
				<polygon style="fill:#FFFFFF;" points="3824.928,597.107 3808.12,605.065 3795.357,591.539 3797.732,609.984 3780.924,617.943       3799.2,621.384 3801.574,639.828 3810.495,623.51 3828.771,626.951 3816.008,613.425     "/>
				<polygon style="fill:#FFFFFF;" points="3919.494,564.158 3928.414,547.84 3911.606,555.799 3898.843,542.273 3901.218,560.717       3884.409,568.676 3902.686,572.117 3905.06,590.562 3913.981,574.244 3932.257,577.685     "/>
			</g>
		</g>
	</g>
	<g>
		<defs>
			<path id="_x36_" d="M891.836,2284.81H100.744L40.538,758.492l24.456-16.686l3.207-2.301l3.142-2.369l3.094-2.449     c0,0,2.785-2.313,3.03-2.517c118.374-98.351,94.342-277.669,73.473-410.59l-1.64-10.446L123.04,139.356L644.765,3.001     l8.578,58.26l1.255,7.842c0,0,0.003,0.017,0.009,0.05c9.899,57.255,26.6,119.769,54.956,170.724     c28.68,51.537,76.744,93.137,136.635,100.844l3.255,0.332l41.736,0.841c0,0,41.753-0.869,41.775-0.871     c60.661-6.242,109.37-47.65,138.6-99.419c29.93-53.007,42.073-114.141,56.05-172.667l1.25-7.838l8.537-58.263l521.811,136.005     l-29.272,192.469l-1.384,10.047l-1.301,10.125c-8.148,68.371-14.249,141.239-4.9,209.717     c8.931,65.415,37.776,136.846,92.104,177.754l3.216,2.304l24.459,16.669l-59.187,1526.353L891.836,2284.81z"/>
		</defs>
		<clipPath id="_x36__1_">
			<use xlink:href="#_x36_" style="overflow:visible;"/>
		</clipPath>
		<g style="clip-path:url(#_x36__1_);">
			<g>
				<g>
					<polygon style="fill:#FFFFFF;" points="-291.034,627.402 -291.034,579.757 -291.034,542.52 -341.07,367.714 -546.403,367.714        244.29,2735.454 336.666,2735.454 -262.902,640.802      "/>
					<polygon style="fill:#FFFFFF;" points="-45.948,744.143 429.042,2735.454 521.418,2735.454 160.161,842.318      "/>
					<polygon style="fill:#FFFFFF;" points="356.217,935.706 613.795,2735.454 706.171,2735.454 542.939,1024.646      "/>
					<polygon style="fill:#FFFFFF;" points="720.977,1109.451 798.548,2735.454 890.924,2735.454 890.924,1190.401      "/>
					<polygon style="fill:#FFFFFF;" points="1060.871,1109.451 983.3,2735.454 1075.677,2735.454 1238.909,1024.646      "/>
					<polygon style="fill:#FFFFFF;" points="1425.631,935.706 1168.053,2735.454 1260.43,2735.454 1621.687,842.318      "/>
					<polygon style="fill:#FFFFFF;" points="1827.796,744.143 1352.806,2735.454 1445.182,2735.454 2044.751,640.801      "/>
					<polygon style="fill:#FFFFFF;" points="866.58,1100.075 881.625,1111.006 875.879,1128.693 890.924,1117.762 890.924,1082.388        885.177,1100.075      "/>
					<polygon style="fill:#FFFFFF;" points="905.97,1128.693 900.223,1111.006 915.268,1100.075 896.671,1100.075 890.924,1082.388        890.924,1117.762      "/>
					<polygon style="fill:#FFFFFF;" points="789.784,1035.574 777.02,1049.101 760.212,1041.142 769.133,1057.46 756.369,1070.987        774.646,1067.545 783.566,1083.864 785.941,1065.419 804.216,1061.978 787.408,1054.019      "/>
					<polygon style="fill:#FFFFFF;" points="683.922,1004.753 686.298,986.308 673.534,999.834 656.727,991.876 665.647,1008.194        652.883,1021.72 671.16,1018.279 680.08,1034.597 682.455,1016.152 700.731,1012.711      "/>
					<polygon style="fill:#FFFFFF;" points="582.812,937.041 570.049,950.567 553.241,942.609 562.161,958.927 549.398,972.453        567.674,969.012 576.594,985.33 578.969,966.885 597.245,963.445 580.437,955.486      "/>
					<polygon style="fill:#FFFFFF;" points="476.951,906.219 479.326,887.774 466.563,901.301 449.755,893.342 458.675,909.66        445.912,923.186 464.188,919.745 473.108,936.064 475.483,917.619 493.759,914.178      "/>
					<polygon style="fill:#FFFFFF;" points="360.702,870.479 369.622,886.797 371.997,868.352 390.273,864.911 373.465,856.953        375.84,838.508 363.077,852.034 346.269,844.075 355.189,860.394 346.723,869.366 347.245,873.013      "/>
					<polygon style="fill:#FFFFFF;" points="347.245,873.013 346.723,869.366 342.426,873.92      "/>
					<polygon style="fill:#FFFFFF;" points="272.354,789.241 259.591,802.767 242.783,794.809 251.703,811.127 238.94,824.653        257.216,821.212 266.136,837.53 268.511,819.085 286.787,815.644 269.979,807.686      "/>
					<polygon style="fill:#FFFFFF;" points="135.454,775.386 146.975,773.217 145.381,764.866      "/>
					<polygon style="fill:#FFFFFF;" points="142.979,752.277 141.932,746.79 139.297,745.542      "/>
					<polygon style="fill:#FFFFFF;" points="148.217,761.86 145.381,764.866 146.975,773.217 153.73,771.945 162.65,788.264        165.025,769.819 183.301,766.378 166.493,758.419 168.868,739.974 156.105,753.501 141.932,746.79 142.979,752.277      "/>
					<polygon style="fill:#FFFFFF;" points="65.382,690.708 52.619,704.234 35.811,696.275 44.731,712.594 31.968,726.12        50.244,722.679 59.165,738.997 61.539,720.552 79.816,717.111 63.007,709.153      "/>
					<polygon style="fill:#FFFFFF;" points="-44.321,689.73 -41.947,671.285 -23.67,667.844 -40.479,659.886 -38.103,641.441        -50.866,654.967 -67.675,647.009 -58.754,663.327 -63.919,668.801 -62.408,675.138 -53.242,673.412      "/>
					<polygon style="fill:#FFFFFF;" points="-71.517,676.853 -62.408,675.138 -63.919,668.801      "/>
					<polygon style="fill:#FFFFFF;" points="-156.727,624.145 -147.807,640.464 -145.432,622.019 -127.156,618.578        -143.964,610.619 -141.589,592.174 -154.352,605.701 -171.161,597.742 -162.24,614.06 -175.003,627.586      "/>
					<polygon style="fill:#FFFFFF;" points="-260.213,574.879 -251.293,591.197 -248.918,572.752 -230.642,569.311 -247.45,561.353        -245.075,542.908 -257.838,556.434 -274.647,548.475 -265.726,564.794 -278.489,578.32      "/>
					<polygon style="fill:#FFFFFF;" points="1012.716,1057.46 1021.635,1041.142 1004.828,1049.101 992.065,1035.574        994.44,1054.019 977.632,1061.978 995.907,1065.419 998.283,1083.864 1007.203,1067.545 1025.479,1070.987      "/>
					<polygon style="fill:#FFFFFF;" points="1125.121,991.876 1108.313,999.834 1095.551,986.308 1097.925,1004.753        1081.118,1012.711 1099.393,1016.152 1101.769,1034.597 1110.689,1018.279 1128.964,1021.72 1116.202,1008.194      "/>
					<polygon style="fill:#FFFFFF;" points="1219.688,958.927 1228.607,942.609 1211.799,950.567 1199.036,937.041        1201.411,955.486 1184.603,963.445 1202.879,966.885 1205.254,985.33 1214.175,969.012 1232.45,972.453      "/>
					<polygon style="fill:#FFFFFF;" points="1332.093,893.342 1315.285,901.301 1302.522,887.774 1304.897,906.219        1288.089,914.178 1306.365,917.619 1308.74,936.064 1317.661,919.745 1335.936,923.186 1323.173,909.66      "/>
					<polygon style="fill:#FFFFFF;" points="1439.422,873.92 1435.125,869.366 1434.603,873.013      "/>
					<polygon style="fill:#FFFFFF;" points="1435.579,844.075 1418.771,852.034 1406.008,838.508 1408.383,856.953        1391.575,864.911 1409.851,868.352 1412.226,886.797 1421.146,870.479 1434.603,873.013 1435.125,869.366 1426.659,860.394             "/>
					<polygon style="fill:#FFFFFF;" points="1539.065,794.809 1522.257,802.767 1509.494,789.241 1511.869,807.686        1495.061,815.644 1513.337,819.085 1515.712,837.53 1524.632,821.212 1542.908,824.653 1530.145,811.127      "/>
					<polygon style="fill:#FFFFFF;" points="1612.98,739.974 1615.355,758.419 1598.547,766.378 1616.823,769.819 1619.197,788.264        1628.118,771.945 1634.873,773.217 1636.467,764.866 1633.631,761.86 1638.869,752.277 1639.917,746.789 1625.743,753.501             "/>
					<polygon style="fill:#FFFFFF;" points="1646.394,775.386 1636.467,764.866 1634.873,773.217      "/>
					<polygon style="fill:#FFFFFF;" points="1642.551,745.542 1639.917,746.789 1638.869,752.277      "/>
					<polygon style="fill:#FFFFFF;" points="1720.308,720.552 1722.683,738.997 1731.604,722.679 1749.88,726.12 1737.116,712.594        1746.037,696.275 1729.229,704.234 1716.465,690.708 1718.841,709.153 1702.032,717.111      "/>
					<polygon style="fill:#FFFFFF;" points="1853.366,676.853 1845.768,668.801 1844.256,675.138      "/>
					<polygon style="fill:#FFFFFF;" points="1849.523,647.009 1832.715,654.967 1819.951,641.441 1822.327,659.886        1805.518,667.844 1823.794,671.285 1826.169,689.73 1835.089,673.412 1844.256,675.138 1845.768,668.801 1840.602,663.327             "/>
					<polygon style="fill:#FFFFFF;" points="1953.009,597.742 1936.201,605.701 1923.437,592.174 1925.813,610.619        1909.004,618.578 1927.28,622.019 1929.655,640.464 1938.575,624.145 1956.852,627.586 1944.088,614.06      "/>
					<polygon style="fill:#FFFFFF;" points="2047.574,564.794 2056.494,548.475 2039.686,556.434 2026.923,542.908        2029.298,561.353 2012.49,569.311 2030.766,572.752 2033.141,591.197 2042.061,574.879 2060.337,578.32      "/>
				</g>
			</g>
		</g>
	</g>
</g>
<g>
</g>
</g>
    <g><g id="colorblock_x5F_2">
	<g>
		<defs>
			<path id="_x37_" d="M2763.586,2284.81l-788.929-0.001l-62.537-1526.95l25.767-16.748c0,0,3.312-2.286,3.492-2.41     c58.462-40.34,84.074-123.826,91.424-190.722c8.11-73.809-8.671-144.828-8.671-217.972l-1.457-10.85l-1.545-10.833l-1.633-10.823     l-1.748-10.992l-23.126-147.103L2497.29,8.001l20.328,26.638l1.64,2.019l1.706,1.977c0,0,1.444,1.573,1.731,1.886     c44.036,47.951,122.01,33.532,179.824,33.369l29.912-0.084l30.72-0.289l0.126,0.001l30.037,0.267c0,0,25.63,0.056,29.404,0.064     c83.716,0.183,151.923,4.507,205.664-66.025l502.739,131.067l-26.396,169.068c0,0-1.515,10.678-1.515,10.683     c-16.735,125.154-36.047,318.68,71.441,411.678l3.296,2.697l3.382,2.614l3.445,2.517l3.503,2.414l25.776,16.731l-61.52,1526.992     L2763.586,2284.81z"/>
		</defs>
		<clipPath id="_x37__1_">
			<use xlink:href="#_x37_" style="overflow:visible;"/>
		</clipPath>
		<g style="clip-path:url(#_x37__1_);">
			<g>
				<polygon style="fill:#D22128;" points="1609.017,640.166 2208.585,2734.818 2300.961,2734.818 1825.971,743.508     "/>
				<polygon style="fill:#D22128;" points="2032.08,841.683 2393.338,2734.818 2485.715,2734.818 2228.136,935.07     "/>
				<polygon style="fill:#D22128;" points="2414.858,1024.011 2578.091,2734.818 2670.467,2734.818 2592.896,1108.816     "/>
				<polygon style="fill:#D22128;" points="2762.843,2734.818 2855.22,2734.818 2932.79,1108.816 2762.843,1189.766     "/>
				<polygon style="fill:#D22128;" points="3110.829,1024.011 2947.596,2734.818 3039.973,2734.818 3297.551,935.07     "/>
				<polygon style="fill:#D22128;" points="3493.607,841.683 3132.349,2734.818 3224.725,2734.818 3699.715,743.508     "/>
				<polygon style="fill:#D22128;" points="3994.837,367.079 3944.802,541.886 3944.802,579.122 3944.802,626.766 3916.67,640.166       3317.102,2734.818 3409.478,2734.818 4200.17,367.079     "/>
			</g>
		</g>
	</g>
	<g>
		<defs>
			<path id="_x38_" d="M891.836,2284.81H100.744L40.538,758.492l24.456-16.686l3.207-2.301l3.142-2.369l3.094-2.449     c0,0,2.785-2.313,3.03-2.517c118.374-98.351,94.342-277.669,73.473-410.59l-1.64-10.446L123.04,139.356L644.765,3.001     l8.578,58.26l1.255,7.842c0,0,0.003,0.017,0.009,0.05c9.899,57.255,26.6,119.769,54.956,170.724     c28.68,51.537,76.744,93.137,136.635,100.844l3.255,0.332l41.736,0.841c0,0,41.753-0.869,41.775-0.871     c60.661-6.242,109.37-47.65,138.6-99.419c29.93-53.007,42.073-114.141,56.05-172.667l1.25-7.838l8.537-58.263l521.811,136.005     l-29.272,192.469l-1.384,10.047l-1.301,10.125c-8.148,68.371-14.249,141.239-4.9,209.717     c8.931,65.415,37.776,136.846,92.104,177.754l3.216,2.304l24.459,16.669l-59.187,1526.353L891.836,2284.81z"/>
		</defs>
		<clipPath id="_x38__1_">
			<use xlink:href="#_x38_" style="overflow:visible;"/>
		</clipPath>
		<g style="clip-path:url(#_x38__1_);">
			<g>
				<g>
					<polygon style="fill:#D22128;" points="-262.902,640.802 336.666,2735.454 429.042,2735.454 -45.948,744.143      "/>
					<polygon style="fill:#D22128;" points="160.161,842.318 521.418,2735.454 613.795,2735.454 356.217,935.706      "/>
					<polygon style="fill:#D22128;" points="542.939,1024.646 706.171,2735.454 798.548,2735.454 720.977,1109.451      "/>
					<polygon style="fill:#D22128;" points="890.924,2735.454 983.3,2735.454 1060.871,1109.451 890.924,1190.401      "/>
					<polygon style="fill:#D22128;" points="1238.909,1024.646 1075.677,2735.454 1168.053,2735.454 1425.631,935.706      "/>
					<polygon style="fill:#D22128;" points="1621.687,842.318 1260.43,2735.454 1352.806,2735.454 1827.796,744.143      "/>
					<polygon style="fill:#D22128;" points="2122.918,367.714 2072.882,542.521 2072.882,579.757 2072.882,627.402        2044.751,640.801 1445.182,2735.454 1537.558,2735.454 2328.251,367.714      "/>
				</g>
			</g>
		</g>
	</g>
</g>
<g>
</g>
</g>
    <g><g>
	<rect x="2909.606" y="3180.796" style="fill:#000D3C;" width="1448.239" height="239.445"/>
</g>
<g>
	<g>
		<path style="fill:#000D3C;" d="M1346.715,3114.532H735.446l-611.286-0.114l13.547-85.06L73.277,2623.84l30.815-24.333    l10.313-7.868c0,0,0.018-0.013,0.052-0.038c67.418-49.689,143.242-88.461,217.225-127.181c0,0,8.495-4.436,8.691-4.538    c71.454-37.312,149.077-64.833,229.031-76.283l8.156-1.054c0,0,9.83-1.078,10.063-1.103c40.847-4.478,83.076-6.802,124.221-6.802    l11.567-0.307l12.637-0.2l11.652,0.205l11.57,0.31l11.692,0.423l36.659,1.831l25.325,1.422l25.281,1.524l27.446,1.827    c0,0,7.849,0.909,7.923,0.918c79.62,9.226,157.445,36.044,228.391,72.975c0,0,8.744,4.442,8.749,4.445    c77.04,40.256,155.838,80.113,225.975,131.849l10.311,7.872l30.673,24.232l-64.511,405.506L1346.715,3114.532z"/>
	</g>
</g>
<g>
	<g>
		<path style="fill:#000D3C;" d="M1663.996,3029.556l-64.511-405.506l30.673-24.232l10.31-7.872    c70.136-51.737,148.934-91.593,225.975-131.849c0.004-0.002,8.749-4.445,8.749-4.445c70.945-36.93,148.77-63.749,228.391-72.975    c0.073-0.009,7.923-0.918,7.923-0.918l27.446-1.827l25.281-1.524l25.325-1.422l36.659-1.831l11.692-0.423l11.57-0.31l11.653-0.205    l12.637,0.2l11.567,0.307c41.145,0,83.375,2.325,124.221,6.802c0.234,0.026,10.063,1.103,10.063,1.103l8.156,1.054    c79.954,11.451,157.577,38.971,229.031,76.283c0.196,0.102,8.691,4.538,8.691,4.538c73.983,38.72,149.806,77.493,217.225,127.181    c0.034,0.025,0.052,0.038,0.052,0.038l10.313,7.868l30.815,24.333l-64.431,405.519l13.547,85.06l-611.286,0.114h-611.269    L1663.996,3029.556z"/>
	</g>
</g>
</g>
    <g><desc>Created with Fabric.js 2.3.3</desc>
<defs>
</defs>
<path d="M 280.879 140.059 c 0 30.73 -6.29 60.855 -18.864 90.381 c -10.826 25.371 -24.551 46.641 -41.171 63.808 C 205.204 310.323 191.59 318.36 180 318.36 c -11.593 0 -25.207 -8.037 -40.844 -24.112 c -16.624 -17.167 -30.346 -38.437 -41.172 -63.808 c -12.577 -29.525 -18.863 -59.651 -18.863 -90.381 c 0 -28.87 8.419 -52.162 25.261 -69.877 C 122.425 51.154 147.629 41.64 180 41.64 c 32.368 0 57.575 9.514 75.618 28.541 C 272.457 87.896 280.879 111.189 280.879 140.059 z M 161.3 228.143 c -0.11 -5.028 -0.492 -9.731 -1.148 -14.106 c -1.641 -10.278 -4.321 -17.934 -8.038 -22.964 c -6.782 -8.748 -20.778 -14.927 -41.992 -18.536 c -0.548 17.059 2.896 29.8 10.334 38.219 C 127.564 218.85 141.178 224.645 161.3 228.143 z M 249.877 172.537 c -6.233 1.094 -11.867 2.46 -16.895 4.101 c -12.138 3.829 -20.504 8.64 -25.097 14.435 c -5.688 7.328 -8.75 19.684 -9.186 37.071 c 5.795 -0.984 11.154 -2.24 16.075 -3.772 c 11.7 -3.609 19.956 -8.146 24.769 -13.615 C 246.978 202.336 250.423 189.596 249.877 172.537 z" style="stroke: rgb(0,0,0); stroke-width: 0; stroke-dasharray: none; stroke-linecap: butt; stroke-linejoin: miter; stroke-miterlimit: 10; fill: rgb(255,255,255); fill-rule: nonzero; opacity: 1;" transform="translate(872.04 728.57) scale(1 1) translate(-180, -180) " stroke-linecap="round"/>
	<g transform="translate(11.5 18.97)">
		<text xml:space="preserve" font-family="Times New Roman" font-size="15" font-style="normal" font-weight="normal" style="stroke: none; stroke-width: 1; stroke-dasharray: none; stroke-linecap: butt; stroke-linejoin: miter; stroke-miterlimit: 4; fill: rgb(0,0,0); fill-rule: nonzero; opacity: 1; white-space: pre;"/>
	</g>
</g>
  </g>
</svg>
