<svg version="1.1" id="Layer_1" xmlns="http://www.w3.org/2000/svg" xmlns:xlink="http://www.w3.org/1999/xlink" x="0px" y="0px" viewBox="0 0 134.4 16" style="enable-background:new 0 0 134.4 16;" xml:space="preserve"><style type="text/css">
	.st0{fill:#52C41A;}
</style><g><polygon class="st0" points="122,7.2 121.4,6.6 120.3,7.7 123.6,11 131,3.5 129.9,2.5 123.6,8.8 	"></polygon><path class="st0" d="M129.1,12c0,0.5-0.3,0.8-0.8,0.8h-8c-0.5,0-0.8-0.3-0.8-0.8V4c0-0.5,0.3-0.8,0.8-0.8h7.3V1.8h-7.3
		c-1.2,0-2.2,1-2.2,2.2v8c0,1.2,1,2.2,2.2,2.2h8c1.2,0,2.2-1,2.2-2.2V6.8h-1.5V12z"></path></g><g><path class="st0" d="M3.6,2.5h3.6c0.9,0,1.7,0.1,2.5,0.3s1.5,0.5,2.1,1c0.6,0.4,1.1,1,1.4,1.7S13.7,7,13.7,8c0,0.9-0.2,1.7-0.5,2.3
		c-0.3,0.7-0.8,1.2-1.4,1.7s-1.2,0.8-2,1s-1.5,0.4-2.3,0.4H3.6V2.5z M6,11.2h1.3c0.6,0,1.1-0.1,1.6-0.2s0.9-0.3,1.2-0.6
		s0.6-0.6,0.8-1c0.2-0.4,0.3-1,0.3-1.6c0-0.5-0.1-1-0.3-1.4c-0.2-0.4-0.5-0.7-0.8-1C9.7,5.2,9.3,5,8.9,4.9C8.4,4.8,8,4.7,7.4,4.7H6
		V11.2z"></path><path class="st0" d="M15.4,2.5h7.4v2.2h-5v2h4.7V9h-4.7v2.2h5.3v2.2h-7.7V2.5z"></path><path class="st0" d="M30.5,5.1c-0.2-0.2-0.5-0.4-0.8-0.5s-0.7-0.2-1-0.2c-0.2,0-0.4,0-0.5,0.1c-0.2,0-0.4,0.1-0.5,0.2
		c-0.2,0.1-0.3,0.2-0.4,0.3c-0.1,0.1-0.2,0.3-0.2,0.5c0,0.3,0.1,0.6,0.4,0.8c0.2,0.2,0.6,0.3,0.9,0.4c0.4,0.1,0.8,0.2,1.2,0.4
		c0.4,0.1,0.8,0.3,1.2,0.5c0.4,0.2,0.7,0.5,0.9,0.9c0.2,0.4,0.4,0.9,0.4,1.5c0,0.6-0.1,1.1-0.3,1.6c-0.2,0.5-0.5,0.8-0.9,1.1
		c-0.4,0.3-0.8,0.5-1.3,0.7c-0.5,0.1-1,0.2-1.6,0.2c-0.7,0-1.4-0.1-2-0.3c-0.6-0.2-1.2-0.6-1.7-1.1l1.7-1.9c0.2,0.3,0.6,0.6,0.9,0.8
		c0.4,0.2,0.8,0.3,1.2,0.3c0.2,0,0.4,0,0.6-0.1c0.2,0,0.4-0.1,0.5-0.2s0.3-0.2,0.4-0.4c0.1-0.1,0.1-0.3,0.1-0.5
		c0-0.3-0.1-0.6-0.4-0.8c-0.3-0.2-0.6-0.4-1-0.5s-0.8-0.3-1.2-0.4c-0.4-0.1-0.9-0.3-1.2-0.5c-0.4-0.2-0.7-0.5-1-0.9
		c-0.3-0.4-0.4-0.9-0.4-1.5c0-0.6,0.1-1.1,0.3-1.5c0.2-0.4,0.5-0.8,0.9-1.1c0.4-0.3,0.8-0.5,1.3-0.7c0.5-0.1,1-0.2,1.6-0.2
		c0.6,0,1.2,0.1,1.8,0.3c0.6,0.2,1.1,0.5,1.6,0.9L30.5,5.1z"></path><path class="st0" d="M33.9,2.5h2.4v10.9h-2.4V2.5z"></path><path class="st0" d="M48.5,12.6c-0.7,0.4-1.5,0.6-2.2,0.8c-0.8,0.2-1.6,0.2-2.4,0.2c-0.9,0-1.6-0.1-2.4-0.4
		c-0.7-0.3-1.3-0.7-1.9-1.2c-0.5-0.5-0.9-1.1-1.2-1.8C38.1,9.6,38,8.8,38,7.9s0.1-1.7,0.4-2.4c0.3-0.7,0.7-1.3,1.2-1.8
		c0.5-0.5,1.1-0.9,1.9-1.2c0.7-0.3,1.5-0.4,2.4-0.4c0.9,0,1.7,0.1,2.4,0.3c0.7,0.2,1.4,0.6,1.9,1.1l-1.7,1.9
		c-0.3-0.3-0.7-0.6-1.1-0.8c-0.4-0.2-0.9-0.3-1.5-0.3c-0.5,0-1,0.1-1.4,0.3s-0.8,0.4-1.1,0.7c-0.3,0.3-0.5,0.7-0.7,1.1
		c-0.2,0.4-0.2,0.9-0.2,1.4c0,0.5,0.1,1,0.2,1.4c0.2,0.4,0.4,0.8,0.7,1.1c0.3,0.3,0.7,0.6,1.1,0.7c0.4,0.2,0.9,0.3,1.4,0.3
		c0.5,0,1-0.1,1.4-0.2s0.7-0.2,0.9-0.4V9.1h-2V6.9h4.3V12.6z"></path><path class="st0" d="M50.6,2.5h3.3l4.7,7.6h0V2.5h2.4v10.9h-3.2L53,5.6h0v7.8h-2.4V2.5z"></path><path class="st0" d="M71.1,4.7c-0.3-0.4-0.7-0.8-1.2-1c-0.5-0.2-1-0.3-1.5-0.3c-0.6,0-1.2,0.1-1.7,0.4c-0.5,0.2-1,0.6-1.3,1
		s-0.7,0.9-0.9,1.5c-0.2,0.6-0.3,1.1-0.3,1.7c0,0.6,0.1,1.2,0.3,1.8c0.2,0.6,0.5,1,0.9,1.4s0.8,0.7,1.3,1s1.1,0.4,1.7,0.4
		c0.7,0,1.3-0.1,1.8-0.4s1-0.6,1.4-1.1l1,0.8c-0.5,0.7-1.1,1.1-1.8,1.5s-1.5,0.5-2.4,0.5c-0.8,0-1.5-0.1-2.2-0.4
		c-0.7-0.3-1.3-0.7-1.8-1.2c-0.5-0.5-0.9-1.1-1.2-1.8s-0.4-1.5-0.4-2.3c0-0.8,0.1-1.6,0.4-2.3c0.3-0.7,0.7-1.3,1.2-1.8
		c0.5-0.5,1.1-0.9,1.8-1.2s1.4-0.4,2.2-0.4c0.7,0,1.5,0.1,2.1,0.4c0.7,0.3,1.3,0.7,1.7,1.3L71.1,4.7z"></path><path class="st0" d="M74.3,2.5h1.3v4.6h5.8V2.5h1.3v10.9h-1.3V8.3h-5.8v5.1h-1.3V2.5z"></path><path class="st0" d="M85.5,2.5h6.9v1.2h-5.6v3.4H92v1.2h-5.2v3.9h5.9v1.2h-7.2V2.5z"></path><path class="st0" d="M102.3,4.7c-0.3-0.4-0.7-0.8-1.2-1c-0.5-0.2-1-0.3-1.5-0.3c-0.6,0-1.2,0.1-1.7,0.4c-0.5,0.2-1,0.6-1.3,1
		s-0.7,0.9-0.9,1.5s-0.3,1.1-0.3,1.7c0,0.6,0.1,1.2,0.3,1.8c0.2,0.6,0.5,1,0.9,1.4c0.4,0.4,0.8,0.7,1.3,1c0.5,0.2,1.1,0.4,1.7,0.4
		c0.7,0,1.3-0.1,1.8-0.4s1-0.6,1.4-1.1l1,0.8c-0.5,0.7-1.1,1.1-1.8,1.5s-1.5,0.5-2.4,0.5c-0.8,0-1.5-0.1-2.2-0.4
		c-0.7-0.3-1.3-0.7-1.8-1.2c-0.5-0.5-0.9-1.1-1.2-1.8C94.1,9.5,94,8.8,94,7.9c0-0.8,0.1-1.6,0.4-2.3c0.3-0.7,0.7-1.3,1.2-1.8
		c0.5-0.5,1.1-0.9,1.8-1.2c0.7-0.3,1.4-0.4,2.2-0.4c0.7,0,1.5,0.1,2.1,0.4s1.3,0.7,1.7,1.3L102.3,4.7z"></path><path class="st0" d="M105.5,2.5h1.3v4.7h0.2l5-4.7h1.9l-5.4,5l5.7,6h-1.9L107,7.8h-0.2v5.6h-1.3V2.5z"></path></g></svg>