<?xml version="1.0" encoding="UTF-8"?>
<svg width="10px" height="6px" viewBox="0 0 10 6" version="1.1" xmlns="http://www.w3.org/2000/svg" xmlns:xlink="http://www.w3.org/1999/xlink">
    <!-- Generator: sketchtool 52.2 (67145) - http://www.bohemiancoding.com/sketch -->
    <title>0F6270F7-437F-40C0-9901-6445BF14C955</title>
    <desc>Created with sketchtool.</desc>
    <g id="MOBILE-DESIGN-CENTER" stroke="none" stroke-width="1" fill="none" fill-rule="evenodd" fill-opacity="1">
        <g id="Designcenter-mobile2" transform="translate(-28.000000, -162.000000)" fill="#FFFFFF">
            <g id="colorcombos-close" transform="translate(0.000000, 120.000000)">
                <path d="M35.8053265,45.5190932 L31.1998578,49.8354994 C30.9166546,50.1011244 30.4713422,50.0874526 30.2057172,49.8042494 C29.9400922,49.5210463 29.953764,49.0757338 30.2369672,48.8101088 L34.2936078,45.0073745 L30.235014,41.202687 C29.9518109,40.937062 29.938139,40.4917495 30.203764,40.2085463 C30.469389,39.9253432 30.9147015,39.9116713 31.1979046,40.1772963 L35.8033734,44.4937026 C35.9459515,44.6265151 36.0260296,44.812062 36.0260296,45.0073745 C36.0260296,45.2026869 35.9459515,45.3882338 35.8053265,45.5190932 L35.8053265,45.5190932 Z" id="Shape-Copy" transform="translate(33.019632, 45.006398) scale(-1, 1) rotate(-270.000000) translate(-33.019632, -45.006398) "></path>
            </g>
        </g>
    </g>
</svg>