<?xml version="1.0" encoding="utf-8"?>
<!-- Generator: Adobe Illustrator 24.0.0, SVG Export Plug-In . SVG Version: 6.00 Build 0)  -->
<svg version="1.1" id="Layer_1" xmlns="http://www.w3.org/2000/svg" xmlns:xlink="http://www.w3.org/1999/xlink" x="0px" y="0px"
	 viewBox="0 0 332.4 95.8" style="enable-background:new 0 0 332.4 95.8;" xml:space="preserve">
<style type="text/css">
	.st0{fill:#FFFFFF;}
	.st1{fill:#97D700;}
	.st2{fill:#231F20;}
</style>
<g>
	<rect width="332.4" height="95.8"/>
	<g>
		<path class="st0" d="M55,38.4c0.1,2.8-0.5,5.6-1.8,8.2c-1.1,2.2-2.7,4.1-4.6,5.7c-1.9,1.5-4.1,2.6-6.5,3.3c-2.4,0.7-4.9,1-7.3,1
			H21.3v-36h13c2.5,0,5.1,0.3,7.5,0.9c2.4,0.6,4.6,1.6,6.6,3c2,1.4,3.6,3.3,4.7,5.5C54.4,32.5,55.1,35.5,55,38.4z M45.9,38.4
			c0.1-1.7-0.3-3.5-1-5.1c-0.6-1.3-1.5-2.4-2.7-3.2c-1.1-0.8-2.4-1.4-3.8-1.7c-1.4-0.3-2.9-0.5-4.3-0.5h-4.3V49h4.1
			c1.5,0,3-0.2,4.5-0.5c1.4-0.3,2.7-0.9,3.8-1.8c1.1-0.9,2-2,2.7-3.3C45.6,41.9,46,40.2,45.9,38.4z"/>
		<path class="st0" d="M76.4,41.3v15.3h-8.7V41.3L54.1,20.5h10.6l7.7,13.4l7.7-13.4h10.2L76.4,41.3z"/>
		<path class="st0" d="M115.9,56.6L101.3,33h-0.1l0.2,23.6h-8.4V20.5h9.9L117.3,44h0.2l-0.2-23.5h8.5v36.1H115.9z"/>
		<path class="st0" d="M157.6,56.6l-2.8-7.1h-13.9l-2.6,7.1h-9.5l15.1-36.1h8.4l15,36.1H157.6z M148,30.1l-4.6,12.4h9.1L148,30.1z"
			/>
		<path class="st0" d="M203,56.6l0.2-25.5h-0.1l-9.4,25.5h-6.1l-9.1-25.5h-0.2l0.2,25.5h-8.2V20.5h12.4l8.2,23.1h0.2l7.9-23.1h12.6
			v36.1H203z"/>
		<path class="st0" d="M219,56.6V20.5h8.8v36.1H219z"/>
		<path class="st0" d="M261,55.9c-2.6,1.1-5.3,1.7-8.1,1.6c-2.6,0-5.2-0.4-7.7-1.4c-4.6-1.7-8.3-5.3-10.2-9.9
			c-1-2.5-1.5-5.1-1.5-7.8c0-2.7,0.5-5.4,1.5-7.8c0.9-2.3,2.4-4.3,4.1-6c1.8-1.7,3.9-2.9,6.2-3.8c4.9-1.8,10.3-1.8,15.2,0
			c2.3,0.8,4.4,2.1,6,4l-5.9,5.9c-0.8-1.1-1.9-2-3.2-2.5c-1.3-0.5-2.7-0.8-4.1-0.8c-1.4,0-2.9,0.3-4.2,0.8c-1.2,0.5-2.4,1.3-3.3,2.3
			c-0.9,1-1.7,2.2-2.1,3.5c-0.5,1.4-0.8,2.9-0.8,4.4c0,1.5,0.2,3.1,0.8,4.5c0.5,1.3,1.2,2.5,2.1,3.5c0.9,1,2,1.7,3.2,2.3
			c1.3,0.6,2.7,0.8,4.1,0.8c1.6,0,3.1-0.3,4.5-1c1.2-0.6,2.3-1.5,3.1-2.7l6.1,5.7C265.3,53.4,263.3,54.9,261,55.9z"/>
	</g>
	<g>
		<path class="st1" d="M34.7,71.5c0,1.6-0.9,2.3-2.7,2.3h-7.6v4.7h-2.8V66.5H32c1.8,0,2.7,0.8,2.7,2.3V71.5z M32,70.8v-1.3
			c0-0.3-0.1-0.6-0.3-0.8c-0.3-0.1-0.6-0.2-0.9-0.2h-6.3v3.2h6.3c0.3,0,0.6,0,0.9-0.2C31.9,71.4,32,71.1,32,70.8z"/>
		<path class="st1" d="M63.1,78.5h-4L54.3,74h-2.7v4.6h-2.8V66.5h10.3c1.8,0,2.7,0.8,2.7,2.3v2.8c0.1,1-0.5,1.9-1.4,2.2
			c-1,0.2-1.9,0.2-2.9,0.2L63.1,78.5z M59.1,70.9v-1.4c0-0.4-0.1-0.7-0.3-0.8c-0.3-0.1-0.6-0.2-0.9-0.2h-6.3v3.3h6.3
			c0.3,0,0.6,0,0.9-0.2C59.1,71.6,59.2,71.3,59.1,70.9L59.1,70.9z"/>
		<path class="st1" d="M80.2,78.5h-2.8V66.5h2.8V78.5z"/>
		<path class="st1" d="M109.1,75.7c0.1,0.8-0.1,1.6-0.6,2.3c-0.7,0.5-1.5,0.7-2.4,0.6h-7.2c-0.8,0.1-1.7-0.1-2.4-0.6
			c-0.5-0.6-0.7-1.5-0.6-2.3v-6.3c-0.1-0.8,0.1-1.6,0.6-2.3c0.7-0.5,1.5-0.7,2.4-0.6h7.2c1.4,0,2.3,0.3,2.7,1c0.3,1,0.4,2,0.3,3
			l-2.8,0.4v-2.3h-7.6v7.6h7.6v-2.6l2.8,0.6L109.1,75.7z"/>
		<path class="st1" d="M137.2,78.5h-12.5V66.5h12.4v2h-9.5v2.7h5.6v2.1h-5.6v3h9.6L137.2,78.5z"/>
	</g>
	<g>
		<path class="st1" d="M183.2,72.2c0.1,2.1-0.9,4.1-2.7,5.2c-1.6,0.7-3.3,1.1-5,0.9h-7V66.3h7.8c1.7-0.1,3.5,0.4,4.9,1.4
			C182.6,68.8,183.3,70.5,183.2,72.2z M180.3,72.2c0-2.5-1.3-3.8-4-3.8h-5v7.6h3.6c1.3,0.1,2.6-0.1,3.7-0.7
			C179.8,74.8,180.5,73.5,180.3,72.2L180.3,72.2z"/>
		<path class="st1" d="M211.6,78.3h-4l-4.9-4.6H200v4.6h-2.8V66.3h10.3c1.8,0,2.7,0.8,2.7,2.3v2.8c0.1,1-0.5,1.9-1.4,2.2
			c-1,0.2-1.9,0.2-2.9,0.2L211.6,78.3z M207.6,70.8v-1.4c0-0.4-0.1-0.7-0.4-0.8c-0.3-0.1-0.6-0.2-0.9-0.2H200v3.4h6.4
			c0.3,0,0.6,0,0.9-0.2C207.5,71.4,207.6,71.2,207.6,70.8L207.6,70.8z"/>
		<path class="st1" d="M239.5,75.5c0.1,0.8-0.1,1.6-0.6,2.3c-0.7,0.5-1.5,0.7-2.4,0.6h-8.9c-0.8,0.1-1.7-0.1-2.4-0.6
			c-0.5-0.6-0.8-1.5-0.6-2.3v-6.4c-0.1-0.8,0.1-1.6,0.6-2.3c0.7-0.5,1.5-0.7,2.4-0.6h8.9c0.8-0.1,1.7,0.1,2.4,0.6
			c0.5,0.6,0.7,1.5,0.6,2.3V75.5z M236.7,76.1v-7.6h-9.2v7.6H236.7z"/>
		<path class="st1" d="M267.3,71.3c0,1.6-0.9,2.3-2.7,2.3H257v4.7h-2.8V66.3h10.3c1.8,0,2.7,0.8,2.7,2.3L267.3,71.3z M264.6,70.6
			v-1.3c0-0.3-0.1-0.6-0.4-0.8c-0.3-0.1-0.6-0.2-0.9-0.2H257v3.2h6.3c0.3,0,0.6,0,0.9-0.2C264.5,71.2,264.7,70.9,264.6,70.6
			L264.6,70.6z"/>
	</g>
	<polygon class="st1" points="282.7,20.7 282.7,49.7 272.5,49.7 294.3,78.5 317.2,49.9 306.9,49.5 306.9,20.5 	"/>
	<path class="st2" d="M299.7,27.8c1.1,0.4,2.2,1.1,3.1,1.9l-3.9,3.9c-0.4-0.5-1-0.9-1.6-1.2c-0.5-0.2-1.1-0.4-1.7-0.4
		c-0.4,0-0.8,0-1.1,0.2c-0.3,0.1-0.4,0.4-0.4,0.6c0,0.3,0.2,0.5,0.4,0.6c0.5,0.2,0.9,0.4,1.4,0.5c0.7,0.2,1.4,0.4,2.1,0.7
		c0.7,0.3,1.4,0.6,2,1.1c0.6,0.4,1.2,1,1.6,1.6c0.4,0.7,0.6,1.5,0.6,2.4c0,0.9-0.2,1.8-0.5,2.6c-0.3,0.7-0.8,1.4-1.4,1.9
		c-0.6,0.5-1.3,1-2,1.2c-0.8,0.3-1.6,0.5-2.4,0.6v2h-2.7v-2c-1.2-0.1-2.4-0.4-3.6-0.8c-1.1-0.4-2.1-1-3-1.8l3.8-4.1
		c0.2,0.3,0.5,0.5,0.8,0.7c0.3,0.2,0.6,0.4,1,0.6c0.3,0.2,0.7,0.3,1.1,0.4c0.4,0.1,0.8,0.1,1.2,0.1c0.3,0,0.7-0.1,1-0.2
		c0.3-0.1,0.4-0.4,0.4-0.7c0-0.2,0-0.3-0.1-0.4c-0.1-0.2-0.3-0.3-0.5-0.4c-0.3-0.2-0.7-0.3-1-0.4l-1.6-0.5c-0.6-0.2-1.2-0.5-1.8-0.7
		c-0.6-0.3-1.1-0.6-1.5-1c-0.5-0.4-0.8-0.9-1.1-1.5c-0.3-0.7-0.4-1.4-0.4-2.1c0-0.9,0.1-1.7,0.5-2.5c0.3-0.7,0.7-1.3,1.2-1.8
		c0.5-0.5,1.2-0.9,1.8-1.2c0.7-0.3,1.4-0.5,2.2-0.6v-1.9h2.7V27C297.4,27.1,298.6,27.3,299.7,27.8z"/>
</g>
</svg>
