<svg width="66" height="59" viewBox="0 0 66 59" fill="none" xmlns="http://www.w3.org/2000/svg">
<mask id="path-1-outside-1" maskUnits="userSpaceOnUse" x="0" y="0" width="65" height="57" fill="black">
<rect fill="white" width="65" height="57"/>
<path fill-rule="evenodd" clip-rule="evenodd" d="M4 4H20.4491C20.4491 9.60607 24.9937 14.1507 30.5997 14.1507H35.6045C41.2106 14.1507 45.7552 9.60607 45.7552 4H60.9387V21.7637H52.0815V52.2158H12.8571V21.7637H4V4Z"/>
</mask>
<path d="M20.4491 4H24.245C24.245 1.90357 22.5455 0.204082 20.4491 0.204082V4ZM4 4V0.204082C1.90357 0.204082 0.204082 1.90357 0.204082 4L4 4ZM45.7552 4V0.204082C43.6587 0.204082 41.9593 1.90357 41.9593 4L45.7552 4ZM60.9387 4H64.7346C64.7346 1.90357 63.0351 0.204082 60.9387 0.204082V4ZM60.9387 21.7637V25.5596C63.0351 25.5596 64.7346 23.8601 64.7346 21.7637H60.9387ZM52.0815 21.7637V17.9678C49.9851 17.9678 48.2856 19.6673 48.2856 21.7637H52.0815ZM52.0815 52.2158V56.0117C54.178 56.0117 55.8775 54.3123 55.8775 52.2158H52.0815ZM12.8571 52.2158H9.06114C9.06114 54.3123 10.7606 56.0117 12.8571 56.0117V52.2158ZM12.8571 21.7637H16.653C16.653 19.6673 14.9535 17.9678 12.8571 17.9678V21.7637ZM4 21.7637H0.204082C0.204082 23.8601 1.90357 25.5596 4 25.5596L4 21.7637ZM20.4491 0.204082H4V7.79592H20.4491V0.204082ZM30.5997 10.3548C27.0901 10.3548 24.245 7.50965 24.245 4H16.6531C16.6531 11.7025 22.8972 17.9466 30.5997 17.9466V10.3548ZM35.6045 10.3548H30.5997V17.9466H35.6045V10.3548ZM41.9593 4C41.9593 7.50965 39.1141 10.3548 35.6045 10.3548V17.9466C43.307 17.9466 49.5511 11.7025 49.5511 4H41.9593ZM60.9387 0.204082H45.7552V7.79592H60.9387V0.204082ZM64.7346 21.7637V4H57.1427V21.7637H64.7346ZM52.0815 25.5596H60.9387V17.9678H52.0815V25.5596ZM55.8775 52.2158V21.7637H48.2856V52.2158H55.8775ZM12.8571 56.0117H52.0815V48.4199H12.8571V56.0117ZM9.06114 21.7637V52.2158H16.653V21.7637H9.06114ZM4 25.5596H12.8571V17.9678H4V25.5596ZM0.204082 4V21.7637H7.79592V4H0.204082Z" fill="#8C8C8C" mask="url(#path-1-outside-1)"/>
<path d="M52.0815 58.5599C59.7684 58.5599 65.9999 52.3111 65.9999 44.6027C65.9999 36.8944 59.7684 30.6455 52.0815 30.6455C44.3946 30.6455 38.1631 36.8944 38.1631 44.6027C38.1631 52.3111 44.3946 58.5599 52.0815 58.5599Z" fill="white"/>
<path fill-rule="evenodd" clip-rule="evenodd" d="M38.1631 44.6027C38.1631 52.3108 44.3949 58.5599 52.0815 58.5599C59.7681 58.5599 65.9999 52.3108 65.9999 44.6027C65.9999 36.8946 59.7681 30.6455 52.0815 30.6455C44.3949 30.6455 38.1631 36.8946 38.1631 44.6027ZM63.3967 44.6027C63.3967 50.8692 58.3304 55.9496 52.0814 55.9496C45.8324 55.9496 40.7661 50.8692 40.7661 44.6027C40.7661 38.3363 45.8324 33.2558 52.0814 33.2558C58.3304 33.2558 63.3967 38.3363 63.3967 44.6027Z" fill="#8C8C8C"/>
<path d="M56.275 41.142C56.7835 40.6613 57.5843 40.685 58.0636 41.1949C58.543 41.7048 58.5194 42.5078 58.0109 42.9885L51.2997 49.3327C50.7972 49.8077 50.0078 49.791 49.5257 49.2951L46.1145 45.7862C45.6267 45.2844 45.6369 44.4811 46.1372 43.9919C46.6376 43.5027 47.4387 43.513 47.9265 44.0147L50.4692 46.6303L56.275 41.142Z" fill="#8C8C8C"/>
</svg>
