<?xml version="1.0" encoding="utf-8"?>
<!-- Generator: Adobe Illustrator 24.3.0, SVG Export Plug-In . SVG Version: 6.00 Build 0)  -->
<svg version="1.1" id="Design" xmlns="http://www.w3.org/2000/svg" xmlns:xlink="http://www.w3.org/1999/xlink" x="0px" y="0px"
	 viewBox="0 0 4389.8 4389.8" style="enable-background:new 0 0 4389.8 4389.8;" xml:space="preserve">
<g>
	<path d="M2830.7,1971.6l-24.4-18.5c-9.5-7.7-17.7-17.1-27.1-28.9c-9.8-12.8-19-25.9-27.4-38.9l-30.8-55.1
		c-12.9-26.1-26.9-52.7-41.7-78.9c0-0.1-0.1-0.2-0.1-0.2c-16.6-28.5-34.7-58.6-54.4-85.9c-15.8-21.9-35-47.7-57.4-72.2
		c-0.1-0.1-0.2-0.2-0.3-0.4c-20.4-21.2-42.3-41.3-65.1-59.8c-0.1-0.1-0.2-0.2-0.3-0.3c-24.1-18.7-49.5-36-75.5-51.6
		c-0.1-0.1-0.2-0.1-0.3-0.2l-53.3-30.4c-4.8-2.7-10.5-3.4-15.8-1.7c-5.3,1.6-9.7,5.4-12.1,10.4l-24.1,49.8
		c-5.2,10.3-10.8,20.4-16.8,30.1c-8.2,12.8-16.7,24.2-26,34.8c-12.5,13.1-24.4,23.4-36.5,31.6c-7.4,4.6-15.8,8.3-25.7,11.3
		c-6.3,1.8-12.8,3.4-19.5,4.7c-6.6-1.4-13.2-2.9-19.5-4.7c-9.8-3-18.2-6.7-25.7-11.3c-12-8.2-24-18.6-36.5-31.6
		c-9.3-10.6-17.8-22-26-34.8c-6-9.7-11.7-19.9-16.8-30.1l-24.1-49.8c-2.4-5-6.8-8.8-12.1-10.4c-5.3-1.6-11-1-15.8,1.7l-53.3,30.4
		c-0.1,0.1-0.2,0.1-0.3,0.2c-26.1,15.6-51.5,33-75.5,51.6c-0.1,0.1-0.2,0.2-0.3,0.3c-22.8,18.5-44.7,38.6-65.1,59.8
		c-0.1,0.1-0.2,0.2-0.3,0.4c-22.4,24.5-41.6,50.2-57.4,72.2c-19.7,27.4-37.8,57.5-54.4,85.9c0,0.1-0.1,0.2-0.1,0.2
		c-14.8,26.2-28.8,52.7-41.7,78.9l-30.8,55.1c-8.3,13-17.5,26.1-27.3,38.9c-9.4,11.8-17.6,21.3-27.1,29l-24.4,18.5
		c-5.7,4.3-8.6,11.3-7.8,18.4l7.8,64.4c9,76.3,17.7,153.3,25.7,228.9c7.4,71.7,14.2,141.7,20.2,208.1c4.9,55.5,11,128.6,15.4,202
		c3.5,62.9,6,126.8,7.4,189.8c1.7,105.7,3.7,225.5,2.7,341.8l-1.5,106.2c-0.1,6.2,2.7,12.2,7.7,16c4.9,3.9,11.3,5.2,17.4,3.6
		l155.2-40.3c0.1,0,0.1,0,0.2-0.1c64.6-17.5,130.1-31.9,191.2-44.9c35.5-7.5,72.7-13.6,110.6-17.9c20.3-2.3,42.2-3.8,71-4.6
		l11.5-0.2l11.5,0.2c28.8,0.8,50.7,2.3,71,4.6c37.8,4.3,75,10.4,110.5,17.9c61.1,13,126.6,27.4,191.2,44.9c0.1,0,0.1,0,0.2,0.1
		l155.2,40.3c1.7,0.4,3.3,0.6,5,0.6c4.4,0,8.8-1.5,12.3-4.3c4.9-3.9,7.7-9.8,7.7-16l-1.5-106.1c-1-116.3,1-236.1,2.7-341.9
		c1.4-63.1,3.9-126.9,7.4-189.8c4.4-73.4,10.6-146.5,15.4-202c6-66.5,12.8-136.5,20.2-208.1c8-75.7,16.7-152.7,25.7-228.9l7.8-64.4
		C2839.4,1982.8,2836.4,1975.9,2830.7,1971.6z M2791,2049.6c-9.1,76.4-17.7,153.6-25.8,229.5c-7.5,71.8-14.3,142.1-20.3,208.8
		c-4.9,55.8-11,129.2-15.5,203.1c0,0,0,0.1,0,0.1c-3.5,63.4-6,127.7-7.5,191.3c0,0,0,0.1,0,0.1c-1.7,106-3.7,226.1-2.7,343
		c0,0,0,0.1,0,0.1l1.1,80l-129.8-33.7c-65.5-17.8-131.6-32.3-193.3-45.4c-36.7-7.8-75.2-14-114.2-18.5c-21.5-2.5-44.5-4-74.6-4.9
		c-0.1,0-0.2,0-0.3,0l-11.9-0.2c-0.2,0-0.4,0-0.6,0l-11.9,0.2c-0.1,0-0.2,0-0.3,0c-30.1,0.9-53.1,2.4-74.6,4.9
		c-39.1,4.5-77.5,10.7-114.3,18.5c-61.7,13.1-127.7,27.6-193.3,45.4l-129.8,33.7l1.1-80c0,0,0-0.1,0-0.1c1-116.8-1-237-2.7-343
		c0,0,0-0.1,0-0.1c-1.4-63.5-4-127.9-7.5-191.3c0,0,0-0.1,0-0.1c-4.5-73.9-10.6-147.4-15.5-203.2c-6-66.6-12.8-136.8-20.3-208.8
		c-8-75.8-16.7-153-25.8-229.5l-6.4-53l15.5-11.8c0.2-0.1,0.3-0.2,0.5-0.4c12.5-10.1,22.5-21.5,33.7-35.5c0.1-0.1,0.1-0.2,0.2-0.3
		c10.7-13.9,20.7-28.1,29.7-42.3c0.2-0.3,0.4-0.7,0.6-1l31.3-56.1c0.2-0.3,0.3-0.6,0.5-0.9c12.6-25.6,26.3-51.5,40.8-77.2
		c16.1-27.6,33.6-56.6,52.2-82.6c15.1-21,33.4-45.5,54.3-68.4c19.1-19.9,39.7-38.8,61.1-56.1c22.7-17.6,46.7-34,71.2-48.7l34.5-19.7
		l14.8,30.7c0,0.1,0.1,0.2,0.2,0.3c5.7,11.4,12,22.6,18.6,33.4c0.1,0.1,0.1,0.2,0.2,0.3c9.4,14.7,19.2,27.8,30,40.1
		c0.2,0.2,0.4,0.4,0.5,0.6c14.7,15.5,29,27.8,43.6,37.7c0.2,0.1,0.4,0.3,0.7,0.4c10.6,6.6,22.2,11.7,35.6,15.8
		c0.1,0,0.2,0.1,0.4,0.1c8.7,2.5,17.7,4.6,26.8,6.3c2.5,0.5,5,0.5,7.5,0c9.1-1.7,18.2-3.9,26.8-6.3c0.1,0,0.2-0.1,0.4-0.1
		c13.4-4.1,25.1-9.3,35.6-15.8c0.2-0.1,0.4-0.3,0.7-0.4c14.7-9.9,28.9-22.3,43.6-37.7c0.2-0.2,0.4-0.4,0.5-0.6
		c10.8-12.3,20.6-25.4,30-40.1c0.1-0.1,0.1-0.2,0.2-0.3c6.6-10.8,12.9-22,18.6-33.4c0.1-0.1,0.1-0.2,0.2-0.3l14.8-30.7l34.5,19.7
		c24.6,14.7,48.5,31.1,71.2,48.7c21.4,17.4,42,36.2,61.1,56.1c20.9,22.9,39.2,47.4,54.3,68.4c18.7,25.9,36.2,55,52.2,82.6
		c14.5,25.7,28.2,51.6,40.8,77.2c0.2,0.3,0.3,0.6,0.5,0.9l31.3,56.1c0.2,0.3,0.4,0.7,0.6,1c9.1,14.2,19.1,28.4,29.7,42.3
		c0.1,0.1,0.1,0.2,0.2,0.3c11.2,14,21.2,25.5,33.7,35.5c0.2,0.1,0.3,0.2,0.5,0.4l15.5,11.8L2791,2049.6z"/>
	<path d="M1491.2,2049.8c-3.1-10.6-14.2-16.7-24.8-13.6l-56.1,16.4c-22.4,6.6-46.2,11-64.5,14.1c-25.3,4-50.8,7.1-75.8,9.3
		c-7.4,0.4-119.1,5.9-119.1,5.9c-7.2,0.4-13.7,4.6-16.9,11l-15,29.9c0,0.1-0.1,0.2-0.1,0.3l-3.1,6.5c0,0.1-0.1,0.2-0.1,0.3l-3,6.5
		c-8.8,18.9-16.6,40.3-23.3,63.6c-7.5,26.3-13.4,55.3-18.6,91.3c-4.5,31-7.6,62.5-9.4,93.7c0,0.1,0,0.2,0,0.3
		c0,0.9-1.3,29.2-1.3,29.2c0,0,0,0.1,0,0.1c-2,51.2-3.1,103.9-3.4,161.1c-0.1,61.4,0.5,122.4,1.6,181.4l0.1,760.4
		c0,6.3,2.9,12.1,7.9,15.9c3.5,2.7,7.8,4.1,12.1,4.1c1.8,0,3.6-0.2,5.4-0.7c7.8-2.2,15.6-4.3,23.4-6.5c35.9-9.9,73-20.2,109.2-31.7
		l0,0c1.7-0.5,4.2-1.4,8-2.7l40.7-13.9c42.4-14.1,85.7-27.8,128.4-40.7l48.1-14.3c8.6-2.5,14.4-10.5,14.3-19.5l-6.4-448.9
		c0-0.1,0-0.1,0-0.2c-1.3-58.2-3.1-115.8-5.1-179.8h0c-0.1-3-0.7-20.9-4.5-137.9c-1.3-64.3-1.1-120.3,0.6-171.3
		c1.4-32.7,3.6-65.6,6.6-97.9c5.1-41.1,11.9-82.8,20.2-123.7c7.8-36.6,16.8-69.3,27.4-100.1l0,0c0.9-2.4,3.5-9.6,11.8-32.5
		c1.5-4,1.6-8.4,0.4-12.4L1491.2,2049.8z M1456.8,2134.4c0,0.1-0.1,0.2-0.1,0.3c-11.1,32.3-20.5,66.6-28.7,104.8
		c0,0.1,0,0.2-0.1,0.2c-8.5,42.1-15.4,84.8-20.7,127.1c0,0.2,0,0.4-0.1,0.6c-3,33-5.3,66.8-6.7,100.2c0,0.1,0,0.1,0,0.2
		c-1.7,51.8-1.9,108.5-0.6,173.6c0,0.1,0,0.2,0,0.3c0,0,4.5,137.6,4.5,138c2,63.8,3.8,121.4,5.1,179.4l6.2,433.7l-33.7,10
		c-43.2,13-86.8,26.9-129.6,41.1c0,0-0.1,0-0.1,0c0,0-44.9,15.3-48.2,16.4c-34.9,11-70.9,21-105.8,30.7l-0.1-734.3
		c0-0.1,0-0.3,0-0.4c-1.2-58.7-1.7-119.5-1.6-180.6c0.3-56.7,1.4-109,3.4-159.7c0.9-20.5,1.2-26.8,1.3-28.9h0
		c1.7-30.1,4.8-60.5,9.1-90.3c4.9-34.2,10.5-61.5,17.5-86c6.1-21.3,13.2-40.8,21.1-57.8l2.9-6.4l3-6.2l9.7-19.3
		c86.4-4.3,104.3-5.2,108.6-5.5l0,0.1c26.1-2.3,52.7-5.6,79-9.7c0.1,0,0.1,0,0.2,0c19.4-3.3,44.7-7.9,69.2-15.2l36.9-10.8l8.1,27.5
		C1463,2117.2,1456.9,2134.1,1456.8,2134.4z"/>
	<path d="M1534.8,1347.4c-9.2-20.3-18.7-41.4-26.8-62.3c-5.9-16.2-10.8-31.2-14.9-45.8c-4.6-17.7-7.5-32.5-9-45.3c0,0,0,0,0,0
		c-0.1-0.7-8-67.6-8-67.6c-0.7-6.2-4.3-11.6-9.6-14.8s-11.8-3.7-17.6-1.4l-212.9,83.7c-50.1,19.3-109.3,41.7-168.5,62.2
		c-30.7,10.3-61.8,19.8-92.5,28.3c-24.8,6.4-50.1,12-75.4,16.7c-21.4,3.6-43.9,6.8-67,9.5c-22.5,2.3-47.1,4.1-77.4,5.7
		c-0.2,0-0.4,0-0.6,0c-38.2,3.1-71.4,10.6-101.3,23c-0.2,0.1-0.4,0.2-0.6,0.2l-13.3,5.9c-0.2,0.1-0.4,0.2-0.6,0.3
		c-22.4,10.9-43.9,25.3-63.7,42.7c-1,0.9-1.9,1.8-2.7,2.8l-131.7,170.5l-30.2,39.4l-55.9,72.4c-6.6,8.6-5.2,20.9,3.2,27.7l89.9,73.6
		l55.2,45.5l55,45.7l54.8,45.8l58.6,49.3l58.4,49.5l58.2,49.7l89.1,76.5c3.8,3.2,8.4,4.8,13,4.8c4.8,0,9.6-1.7,13.4-5.2l36.9-33.4
		c36.2-32.2,69.7-59.3,102.3-83c32.1-23.3,62.2-43.4,92.1-61.3c24-14.4,51-28.9,82.7-44.2l50.2-23.6c9.8-4.6,14.2-16.3,9.8-26.2
		l-20.3-45.8c-2.9-7.1-5.6-14.4-7.9-21.8c-4.7-16.5-8.2-34.6-10.8-55.4c-1.7-16.3,0-35.4,5.4-60.1c6.3-26.3,17.9-53.6,35.5-83.5
		c10.4-17,23.9-34.3,42.4-54.5c13.6-14.4,28-28.3,43-41.3c20.8-17.5,42.8-34.7,67.5-52.5c18.7-13.3,38-26.2,57.4-38.4l42.8-26.5
		c8.5-5.3,11.8-16.1,7.7-25.2C1538.4,1355.5,1536.6,1351.5,1534.8,1347.4z M1468.5,1377.4L1468.5,1377.4c-20.1,12.7-40,26-59.4,39.8
		c0,0-0.1,0.1-0.1,0.1c-25.5,18.5-48.4,36.3-70,54.5c-0.1,0.1-0.1,0.1-0.2,0.2c-16.1,13.9-31.6,28.8-46.2,44.3
		c-0.1,0.1-0.1,0.1-0.2,0.2c-20.4,22.2-35.4,41.5-47.2,60.8c-0.1,0.1-0.1,0.2-0.2,0.3c-19.7,33.5-32.8,64.5-40.1,94.8
		c0,0.1-0.1,0.2-0.1,0.3c-6.4,29.2-8.4,52.4-6.2,73.2c0,0.1,0,0.2,0,0.4c2.8,23,6.8,43.2,12.1,61.8c0,0.2,0.1,0.3,0.1,0.5
		c2.7,8.7,5.8,17.3,9.3,25.7c0.1,0.1,0.1,0.3,0.2,0.4l12.5,28.2l-32.6,15.4c-0.1,0-0.1,0.1-0.2,0.1c-32.8,15.9-60.9,30.9-86,45.9
		c-30.9,18.6-62,39.3-95,63.3c-33.7,24.5-68.1,52.5-105.4,85.5c0,0-0.1,0.1-0.1,0.1l-23.9,21.7l-75.8-65.1l-58.3-49.8l-58.5-49.6
		l-58.7-49.4l-54.9-45.9l-55.1-45.7l-55.3-45.5l-74.9-61.3l44.1-57.1l30.2-39.4l130.5-168.8c16.7-14.4,34.6-26.3,53.2-35.4
		c8-3.6,11.2-5,12.6-5.6c26-10.7,55.1-17.2,89-20c30.8-1.7,56-3.5,79.1-5.9c0.1,0,0.2,0,0.3,0c23.9-2.8,47.2-6.1,69.4-9.8
		c0.1,0,0.2,0,0.3,0c26.2-4.8,52.6-10.7,78.4-17.3c0.1,0,0.2-0.1,0.3-0.1c31.5-8.7,63.4-18.5,94.8-29c0.1,0,0.1,0,0.2-0.1
		c59.8-20.7,119.4-43.3,169.9-62.7c0,0,0.1,0,0.1-0.1l188.9-74.3l3.7,31.3c0.6,5.1,1,8.3,1.3,10.6l-0.1,0c1.7,14.6,5,31.2,10.1,50.8
		c0,0.1,0.1,0.3,0.1,0.4c4.4,15.7,9.6,31.7,16,49c0,0.1,0.1,0.2,0.1,0.3c8,20.7,17.1,41,26,60.7
		C1474.4,1373.7,1469.6,1376.6,1468.5,1377.4z"/>
	<path d="M3348.6,2414.6c0,0,0-0.1,0-0.1c-0.9-19.9-1.2-26.8-1.4-29.5l0,0c-1.8-31.2-5-62.7-9.4-93.7c-5.2-36-11.1-65-18.6-91.3
		c-6.7-23.4-14.5-44.8-23.3-63.6l-3-6.5c0-0.1-0.1-0.2-0.1-0.3l-3.1-6.5c0-0.1-0.1-0.2-0.1-0.3l-15-29.9c-3.2-6.4-9.7-10.7-16.9-11
		c-92.8-4.6-113.8-5.6-118.8-5.9c-25.2-2.2-50.8-5.4-76.1-9.3c-18.2-3.1-42-7.4-64.5-14.1l-56.1-16.4c-10.6-3.1-21.7,3-24.8,13.6
		l-15.5,53c-1.2,4.1-1.1,8.4,0.4,12.4c0,0,11,30.3,11.9,32.6c10.5,30.7,19.5,63.4,27.3,99.9c8.2,41,15,82.6,20.2,123.7
		c3,32.3,5.2,65.2,6.6,97.9c1.7,51,1.9,107,0.6,171.3c-3.8,117-4.4,134.9-4.5,137.9h0c-2,63.9-3.8,121.5-5.1,179.8
		c0,0.1,0,0.1,0,0.2l-6.4,448.9c-0.1,9,5.7,16.9,14.3,19.5l48,14.3c42.9,12.9,86.1,26.6,128.5,40.7l40.7,13.9c3.8,1.3,6.3,2.1,8,2.7
		l0,0c36.3,11.5,73.4,21.7,109.2,31.7c7.8,2.2,15.6,4.3,23.5,6.5c1.8,0.5,3.6,0.7,5.4,0.7c4.3,0,8.6-1.4,12.1-4.1
		c5-3.8,7.9-9.7,7.9-15.9l0.1-760.4c1.2-58.9,1.7-120,1.6-181.4C3351.7,2518.4,3350.6,2465.7,3348.6,2414.6z M3310.4,2756.5
		c0,0.1,0,0.3,0,0.4l-0.1,734.3c-34.9-9.7-70.9-19.7-105.8-30.7c-3.3-1.1-48.2-16.4-48.2-16.4c0,0-0.1,0-0.1,0
		c-42.8-14.2-86.4-28-129.7-41.1l-33.6-10l6.2-433.7c1.3-58.1,3.1-115.6,5.1-179.3c0-0.4,4.5-138,4.5-138c0-0.1,0-0.2,0-0.3
		c1.3-65.1,1.1-121.9-0.6-173.6c0-0.1,0-0.1,0-0.2c-1.4-33.5-3.7-67.2-6.7-100.2c0-0.2,0-0.4-0.1-0.6c-5.3-42.3-12.2-85-20.7-127.1
		c0-0.1,0-0.2,0-0.2c-8.2-38.2-17.6-72.5-28.7-104.8l0,0c-0.8-2.3-3-8.4-9.8-27l8.1-27.5l36.8,10.8c24.5,7.2,49.9,11.9,69.3,15.2
		c0.1,0,0.1,0,0.2,0c26.3,4.1,52.9,7.4,79,9.7c0.3,0,0.5,0,0.8,0.1c0.5,0,77.9,3.9,107.8,5.3l9.7,19.3l3,6.2l3,6.4
		c7.9,17,15,36.4,21.1,57.7c7,24.5,12.6,51.8,17.5,86c4.3,29.8,7.4,60.2,9.1,90.2c0.1,2,1.3,27.8,1.3,29c2,50.7,3.1,102.9,3.4,159.6
		C3312.1,2637,3311.5,2697.8,3310.4,2756.5z"/>
	<path d="M4033.8,1673.5l-55.9-72.3l-30.3-39.5L3816,1391.2c-0.8-1-1.7-2-2.7-2.8c-19.9-17.4-41.3-31.7-63.7-42.7
		c-0.2-0.1-0.4-0.2-0.6-0.3l-13.3-5.9c-0.2-0.1-0.4-0.2-0.6-0.2c-30-12.3-63.1-19.8-101.3-23c-0.2,0-0.4,0-0.6,0
		c-30.3-1.6-54.8-3.4-77.4-5.7c-23.1-2.7-45.6-5.9-67-9.5c-25.2-4.7-50.6-10.3-75.3-16.6c-30.7-8.5-61.8-18-92.5-28.3
		c-59.2-20.5-118.4-42.9-168.5-62.2l-212.9-83.7c-5.8-2.3-12.3-1.7-17.6,1.4c-5.3,3.2-8.9,8.7-9.6,14.8c-5.8,49.2-7.5,63.2-8,67.6
		l-0.1,0c-1.5,12.7-4.5,27.5-9,45.3c-4.1,14.6-9,29.6-14.9,45.8c-8.1,20.9-17.6,42-26.8,62.3c-1.8,4-3.7,8.1-5.5,12.1
		c-4.1,9.2-0.8,19.9,7.7,25.2c30.5,18.9,39.7,24.6,42.7,26.4l0,0c19.4,12.3,38.7,25.2,57.5,38.5c24.6,17.8,46.7,35,67.5,52.6
		c15,13,29.5,26.9,43,41.3c18.5,20.2,32,37.5,42.4,54.5c17.6,29.9,29.2,57.2,35.5,83.5c5.4,24.7,7.1,43.8,5.4,60.1
		c-2.6,20.8-6.1,38.9-10.8,55.4c-2.3,7.3-4.9,14.6-7.9,21.7l-20.3,45.9c-4.4,9.9-0.1,21.6,9.8,26.2l50.2,23.6
		c31.7,15.3,58.7,29.7,82.7,44.2c29.9,18,60,38,92.1,61.3c32.6,23.7,66,50.8,102.3,83l36.9,33.4c3.8,3.4,8.6,5.2,13.4,5.2
		c4.6,0,9.3-1.6,13-4.8l89.1-76.5l58.2-49.7l58.4-49.5l58.5-49.3l54.8-45.8l55-45.6l55.2-45.5l90-73.6
		C4039.1,1694.3,4040.5,1682,4033.8,1673.5z M3915.3,1743.9l-55.3,45.5l-55.1,45.7l-54.9,45.9l-58.7,49.4l-58.5,49.6l-58.3,49.8
		l-75.8,65.1l-23.9-21.7c0,0-0.1-0.1-0.1-0.1c-37.2-33.1-71.7-61.1-105.4-85.5c-33-24-64.1-44.7-95-63.3c-25-15.1-53.2-30.1-86-45.9
		c-0.1,0-0.1-0.1-0.2-0.1l-32.6-15.4l12.5-28.2c0.1-0.1,0.1-0.3,0.2-0.4c3.5-8.4,6.6-17,9.3-25.7c0-0.1,0.1-0.3,0.1-0.5
		c5.3-18.6,9.2-38.8,12.1-61.8c0-0.1,0-0.2,0-0.4c2.2-20.8,0.2-44.1-6.2-73.2c0-0.1-0.1-0.2-0.1-0.3c-7.2-30.3-20.3-61.3-40.1-94.8
		c-0.1-0.1-0.1-0.2-0.2-0.3c-11.8-19.3-26.8-38.6-47.2-60.8c-0.1-0.1-0.1-0.1-0.2-0.2c-14.6-15.5-30.1-30.4-46.2-44.3
		c-0.1-0.1-0.1-0.1-0.2-0.2c-21.6-18.2-44.5-36-70-54.5c0,0-0.1-0.1-0.1-0.1c-19.3-13.7-39.3-27.1-59.4-39.8c-0.1,0-0.1-0.1-0.2-0.1
		c-1-0.6-15.9-9.9-27.9-17.3c8.9-19.7,18-40,26-60.7c0-0.1,0.1-0.2,0.1-0.3c6.3-17.3,11.5-33.3,16-49c0-0.1,0.1-0.3,0.1-0.4
		c5-19.6,8.3-36.2,10.1-50.8c0,0,0,0,0,0c0-0.3,2.7-22.9,5-41.9l188.9,74.3c0,0,0.1,0,0.1,0.1c50.5,19.4,110.1,42,169.9,62.7
		c0.1,0,0.1,0,0.2,0.1c31.5,10.6,63.3,20.3,94.8,29c0.1,0,0.2,0.1,0.3,0.1c25.8,6.7,52.1,12.5,78.4,17.3c0.1,0,0.2,0,0.3,0
		c22.1,3.8,45.5,7.1,69.4,9.8c0.1,0,0.2,0,0.3,0c23.2,2.4,48.3,4.2,79.1,5.9c33.9,2.8,63,9.3,89,20c1.4,0.6,4.6,2.1,12.6,5.6
		c18.6,9.1,36.5,21,53.2,35.4L3916,1586l30.3,39.5l44,57L3915.3,1743.9z"/>
	<path d="M1630.3,1241.4c19.7,19.7,43.4,37.9,70.6,54.3c26.8,16.2,55.4,29.3,84.8,39.1c29.2,9.7,62.5,17.4,98.8,23
		c0.2,0,14.1,2.2,14.1,2.2c0.1,0,0.3,0,0.4,0.1c53.6,7.2,97.3,10.5,137.4,10.6l158.6,0.2c0,0,0,0,0,0l149.5-0.1c0.1,0,0.2,0,0.3,0
		c47.3-0.7,85.8-3.1,121.1-7.5c47.4-5.9,83.6-12.8,117.3-22.3c25.4-7.2,58.6-17.7,89.5-35.6c28.4-16.4,55.6-36,81-58.5
		c0.1-0.1,0.3-0.3,0.4-0.4l44.2-41.5c4-3.8,6.3-9,6.3-14.5s-2.2-10.8-6.2-14.6l-38.8-37c-25.8-25.8-57.4-48.7-91.2-66.3
		c-32.1-16.7-67.7-29.6-105.9-38.5c-37.3-8.7-77.1-15.1-121.7-19.6c-30.6-3.1-61-4.1-86.7-4.7c-0.1,0-0.3,0-0.4,0l-158.6-0.2
		l-149.6,0.1c-0.1,0-0.2,0-0.3,0c-45.9,0.7-92.4,3.9-138.2,9.6c-0.1,0-0.2,0-0.3,0c-33.4,4.7-66.9,11.5-99.5,20.1
		c-0.1,0-0.2,0.1-0.4,0.1c-36.8,10.4-69.2,23.9-99.3,41.2c-0.2,0.1-0.4,0.2-0.5,0.3c-24.9,15.4-48.7,33.1-70.6,52.5
		c-0.1,0.1-0.3,0.3-0.4,0.4l-44.2,41.5c-4,3.8-6.3,9-6.3,14.5s2.2,10.8,6.2,14.6L1630.3,1241.4z M1662.8,1163.3
		c20.2-17.8,42-34,64.8-48.2c27-15.6,56.4-27.7,89.7-37.2c31-8.1,62.9-14.5,94.6-19.1c44.2-5.5,89.1-8.6,133.5-9.3l149.5-0.1
		c140.5,0.2,156.5,0.2,158.4,0.2c24.9,0.6,54.2,1.6,83.4,4.5c42.9,4.3,81,10.5,116.7,18.8c35.4,8.2,67,19.7,96.5,35.1
		c30.4,15.8,58.6,36.3,81.6,59.3c0.1,0.1,0.2,0.2,0.4,0.3l23.7,22.6l-28.5,26.8c-23.3,20.6-48.3,38.6-74.3,53.6
		c-27.1,15.6-57.2,25.2-80.4,31.7c-31.7,9-66,15.5-111.3,21.1c-33.8,4.2-70.9,6.5-116.6,7.2l-149.4,0.1l-158.6-0.2
		c-38.2,0-80.1-3.3-131.9-10.2c-1.6-0.3-13.4-2.1-13.9-2.1c-34.2-5.2-65.2-12.4-92.4-21.4c-26.6-8.8-52.4-20.7-76.7-35.4
		c-24.1-14.6-46-31.3-63.1-48.5c-0.1-0.1-0.2-0.2-0.3-0.3l-23.7-22.6C1655.2,1170.5,1661.1,1165,1662.8,1163.3z"/>
	<path d="M46.6,488.4v3447h4294.6v-3447H46.6z M4274,555.6v185.3H113.8V555.6H4274z M113.8,802.9H4274v2818H113.8V802.9z
		 M113.8,3868.3v-185.3H4274v185.3H113.8z"/>
	<rect x="3610.4" y="3716.8" width="117.1" height="117.1"/>
	<rect x="184.6" y="3710.8" width="2383.7" height="26.6"/>
	<rect x="184.6" y="3760" width="2614.3" height="26.6"/>
	<rect x="184.6" y="3810.3" width="2215.3" height="26.6"/>
	<rect x="3748.7" y="584.9" width="439.7" height="26.6"/>
	<rect x="3748.7" y="634.1" width="490.3" height="26.6"/>
	<rect x="3748.7" y="684.3" width="271.4" height="26.6"/>
	<rect x="479.9" y="610.2" width="1920" height="26.6"/>
	<rect x="479.9" y="660.4" width="1754.9" height="26.6"/>
	<rect x="3780.6" y="3716.8" width="117.1" height="117.1"/>
	<rect x="3950.9" y="3716.8" width="117.1" height="117.1"/>
	<rect x="4121.2" y="3716.8" width="117.1" height="117.1"/>
	<ellipse transform="matrix(0.9732 -0.2298 0.2298 0.9732 -141.9185 77.3057)" cx="261" cy="648.1" rx="61.9" ry="61.9"/>
	<path d="M342.9,648.1c0,27.2-17.5,50.2-41.9,58.5c6.3,2.1,13,3.3,20,3.3c34.2,0,61.9-27.7,61.9-61.9c0-34.2-27.7-61.9-61.9-61.9
		c-7,0-13.7,1.2-20,3.3C325.3,597.9,342.9,620.9,342.9,648.1z"/>
	<path d="M406.9,648.1c0,27.2-17.5,50.2-41.9,58.5c6.3,2.1,13,3.3,20,3.3c34.2,0,61.9-27.7,61.9-61.9c0-34.2-27.7-61.9-61.9-61.9
		c-7,0-13.7,1.2-20,3.3C389.4,597.9,406.9,620.9,406.9,648.1z"/>
</g>
</svg>
