<svg width="222" height="153" viewBox="0 0 222 153" fill="none" xmlns="http://www.w3.org/2000/svg">
<g clip-path="url(#clip0)">
<path d="M143.901 140.987C143.799 140.987 143.698 140.974 143.6 140.948L134.251 138.521L134.239 138.518C130.349 137.464 126.407 136.596 122.727 135.816C120.59 135.362 118.351 135 116.073 134.738C114.852 134.596 113.535 134.511 111.799 134.461L111.107 134.451L110.414 134.461C108.679 134.511 107.36 134.596 106.139 134.738C103.861 135 101.624 135.362 99.484 135.816C95.8038 136.599 91.8624 137.464 87.9721 138.518L87.9601 138.521L78.6149 140.948C78.4356 140.994 78.2481 140.999 78.0668 140.961C77.8856 140.923 77.7156 140.844 77.57 140.729C77.4243 140.615 77.3071 140.468 77.2273 140.301C77.1475 140.134 77.1073 139.951 77.1098 139.766L77.1995 133.375C77.2597 126.37 77.1393 119.158 77.0352 112.794C76.9491 109.001 76.7992 105.153 76.5897 101.365C76.3218 96.9458 75.9528 92.5444 75.6608 89.2043C75.2996 85.2063 74.8914 80.9898 74.4435 76.6751C73.9619 72.1238 73.4393 67.4864 72.8951 62.8948L72.4267 59.0202C72.4014 58.8111 72.4313 58.5991 72.5135 58.4053C72.5957 58.2115 72.7272 58.0426 72.8951 57.9154L74.367 56.8011C74.939 56.3381 75.4344 55.7692 75.9997 55.0588C76.5903 54.2889 77.1436 53.5014 77.6469 52.7182L79.4993 49.4004C80.2747 47.8268 81.1187 46.2296 82.0097 44.6529C82.0122 44.6477 82.015 44.6426 82.0181 44.6378C83.0181 42.9245 84.1072 41.1124 85.2937 39.4659C86.2461 38.1444 87.4008 36.5954 88.7481 35.1223L88.768 35.1006C89.9989 33.82 91.3082 32.6173 92.6884 31.4993L92.7082 31.4836C94.1606 30.3577 95.6792 29.3199 97.2559 28.376L97.277 28.364L100.487 26.5308C100.63 26.449 100.789 26.3975 100.953 26.3796C101.117 26.3616 101.283 26.3776 101.441 26.4265C101.598 26.4754 101.744 26.5561 101.869 26.6638C101.994 26.7714 102.096 26.9036 102.168 27.0522L103.619 30.052C103.931 30.6697 104.271 31.2796 104.632 31.8653C105.1 32.6024 105.623 33.3032 106.197 33.9616C106.948 34.749 107.667 35.3727 108.392 35.8658C108.875 36.1567 109.394 36.3841 109.936 36.5424C110.316 36.6496 110.709 36.7453 111.108 36.8272C111.508 36.7453 111.901 36.6466 112.28 36.5424C112.822 36.3838 113.341 36.1558 113.825 35.864C114.547 35.3709 115.27 34.7472 116.02 33.9598C116.593 33.3014 117.117 32.6006 117.585 31.8635C117.946 31.2778 118.286 30.6679 118.598 30.0502L120.049 27.0504C120.121 26.9018 120.223 26.7696 120.348 26.662C120.473 26.5543 120.619 26.4735 120.776 26.4247C120.934 26.3758 121.1 26.3598 121.264 26.3777C121.428 26.3957 121.587 26.4472 121.73 26.529L124.94 28.3622L124.961 28.3742C126.537 29.3195 128.055 30.3584 129.507 31.4855L129.526 31.5011C130.906 32.6174 132.216 33.8185 133.446 35.0976L133.467 35.1193C134.814 36.5924 135.969 38.1414 136.921 39.4629C138.107 41.1094 139.196 42.9215 140.197 44.6348L140.205 44.6499C141.096 46.2266 141.94 47.8237 142.715 49.3974L144.568 52.7152C145.07 53.4978 145.624 54.2859 146.215 55.0558C146.781 55.7662 147.276 56.3351 147.847 56.7981L149.319 57.9142C149.487 58.0413 149.619 58.2102 149.701 58.404C149.784 58.5978 149.814 58.8099 149.788 59.0189L149.319 62.8966C148.778 67.4852 148.254 72.1226 147.771 76.6769C147.324 80.9886 146.914 85.2051 146.554 89.2062C146.262 92.5438 145.892 96.9452 145.625 101.367C145.416 105.155 145.264 109 145.18 112.796C145.076 119.16 144.958 126.372 145.015 133.377L145.105 139.768C145.107 139.927 145.077 140.086 145.018 140.234C144.958 140.382 144.87 140.516 144.758 140.63C144.646 140.744 144.512 140.834 144.365 140.895C144.218 140.957 144.06 140.989 143.901 140.989V140.987ZM134.864 136.192L142.675 138.22L142.607 133.404V133.397C142.547 126.36 142.668 119.129 142.772 112.748V112.74C142.859 108.916 143.01 105.042 143.221 101.226C143.221 101.224 143.221 101.222 143.221 101.22C143.49 96.7712 143.861 92.3475 144.155 88.9906C144.516 84.9757 144.926 80.7489 145.376 76.4234C145.857 71.8559 146.382 67.2089 146.928 62.6082L147.314 59.4175L146.379 58.7095L146.35 58.6872C145.598 58.0816 144.996 57.3941 144.323 56.5489C144.318 56.5435 144.314 56.5379 144.31 56.532C143.668 55.6958 143.066 54.8385 142.52 53.9848C142.507 53.9644 142.494 53.9439 142.483 53.9246L140.597 50.5479C140.587 50.5298 140.577 50.5112 140.568 50.4925C139.81 48.9525 138.984 47.3885 138.112 45.8443C137.143 44.1857 136.092 42.4356 134.967 40.8746C134.058 39.6104 132.958 38.1372 131.699 36.7586C130.544 35.5573 129.315 34.4288 128.02 33.3794C126.651 32.3179 125.219 31.3395 123.733 30.4494L121.653 29.2622L120.759 31.1098L120.75 31.1285C120.405 31.8118 120.028 32.4878 119.628 33.1368L119.617 33.1537C119.078 34.0031 118.474 34.8102 117.811 35.5678C117.801 35.5804 117.79 35.5924 117.778 35.6039C116.893 36.534 116.032 37.2769 115.152 37.8741L115.113 37.9C114.443 38.3103 113.721 38.6303 112.968 38.8518L112.946 38.8584C112.424 39.0059 111.881 39.1341 111.331 39.2395C111.182 39.2678 111.028 39.2678 110.879 39.2395C110.329 39.1341 109.786 39.0059 109.265 38.8584L109.243 38.8518C108.49 38.6299 107.769 38.3095 107.1 37.8988L107.059 37.8729C106.177 37.2757 105.318 36.5328 104.433 35.6027C104.422 35.5914 104.412 35.5794 104.401 35.5666C103.738 34.8093 103.134 34.0022 102.595 33.1525L102.584 33.1356C102.185 32.4866 101.807 31.8111 101.462 31.1273L101.453 31.1086L100.559 29.261L98.4792 30.4482C96.9929 31.3383 95.5614 32.3167 94.1922 33.3782C92.897 34.4274 91.6681 35.556 90.5127 36.7574C89.2532 38.136 88.1545 39.6116 87.2455 40.8734C86.1197 42.4344 85.0686 44.1845 84.0999 45.8431C83.2276 47.3873 82.4016 48.9513 81.6437 50.4913C81.6346 50.51 81.625 50.5286 81.6148 50.5467L79.7292 53.9234C79.7172 53.9439 79.7052 53.9644 79.6925 53.9836C79.1459 54.8373 78.5439 55.6946 77.9015 56.5308L77.8889 56.5476C77.2164 57.3905 76.6138 58.0804 75.8612 58.686C75.8522 58.6939 75.8426 58.7011 75.833 58.7083L74.9022 59.4193L75.2881 62.61C75.8336 67.2137 76.3555 71.8607 76.8401 76.4252C77.2892 80.7538 77.6998 84.9806 78.061 88.9924C78.3548 92.3523 78.7233 96.776 78.9954 101.224C78.9951 101.227 78.9951 101.229 78.9954 101.231C79.2061 105.047 79.3566 108.921 79.4439 112.745V112.752C79.5486 119.134 79.6666 126.362 79.6088 133.402V133.409L79.5414 138.225L87.3533 136.192C91.2977 135.124 95.2759 134.248 98.9873 133.46C101.2 132.991 103.514 132.617 105.867 132.345C107.159 132.195 108.544 132.104 110.356 132.053H110.373L111.092 132.043H111.125L111.843 132.053H111.861C113.673 132.105 115.058 132.195 116.351 132.345C118.703 132.616 121.017 132.991 123.229 133.46C126.94 134.251 130.919 135.124 134.864 136.192Z" fill="#231F20"/>
<path d="M43.8109 152.186C43.4915 152.186 43.1853 152.059 42.9595 151.833C42.7337 151.608 42.6068 151.301 42.6068 150.982L42.6026 105.206C42.5322 101.654 42.4991 97.9817 42.5039 94.2871C42.5225 90.8399 42.5894 87.6685 42.7092 84.5867C42.7095 84.5843 42.7095 84.5819 42.7092 84.5795C42.7092 84.5795 42.7868 82.8481 42.788 82.8204C42.788 82.815 42.788 82.8096 42.788 82.8041C42.8964 80.927 43.089 79.0283 43.3563 77.1614C43.6688 74.9941 44.0246 73.2482 44.4767 71.6673C44.8441 70.3559 45.3133 69.0751 45.88 67.8367L46.0606 67.4478L46.0691 67.4303L46.2569 67.0408L46.2653 67.0239L47.1683 65.2239C47.264 65.0334 47.4086 64.8717 47.5872 64.7553C47.7659 64.639 47.9722 64.5721 48.1852 64.5617L55.3565 64.2065C56.8651 64.0722 58.4009 63.8838 59.921 63.6454C61.0191 63.4606 62.4495 63.1969 63.8022 62.7983L67.1796 61.8098C67.3314 61.7653 67.4904 61.7512 67.6477 61.7682C67.8049 61.7852 67.9573 61.8331 68.0961 61.909C68.2348 61.9849 68.3573 62.0874 68.4564 62.2107C68.5555 62.334 68.6294 62.4755 68.6738 62.6274L69.6075 65.8181C69.6794 66.0639 69.6709 66.3263 69.5834 66.567L68.8713 68.532C68.2027 70.5022 67.6536 72.511 67.2271 74.5474C66.7305 77.0157 66.3241 79.5189 66.0135 81.995C65.8329 83.9377 65.7016 85.9208 65.6167 87.8888C65.5144 90.9561 65.5029 94.3305 65.5806 98.1979C65.8124 105.242 65.8479 106.325 65.8533 106.501C65.9737 110.354 66.0809 113.823 66.1591 117.327V117.337L66.5438 144.363C66.5475 144.626 66.4654 144.882 66.31 145.093C66.1546 145.305 65.9344 145.46 65.6829 145.534L62.7872 146.394C60.213 147.171 57.6098 147.996 55.056 148.844L52.6034 149.679C52.374 149.757 52.2265 149.808 52.1218 149.84C49.9383 150.531 47.7047 151.149 45.5447 151.748C45.0739 151.878 44.6035 152.008 44.1336 152.139C44.0286 152.169 43.92 152.185 43.8109 152.186ZM45.1155 84.6831C44.995 87.7371 44.93 90.8809 44.912 94.2949C44.9072 97.9673 44.9403 101.631 45.0101 105.17C45.0101 105.178 45.0101 105.186 45.0101 105.193L45.0137 149.398C47.1142 148.817 49.282 148.215 51.3825 147.551L54.283 146.563H54.2921C56.8675 145.707 59.4935 144.877 62.0955 144.089L64.1219 143.487L63.7505 117.378C63.6728 113.886 63.5662 110.421 63.4452 106.579C63.4452 106.557 63.1719 98.2707 63.1719 98.2707C63.1716 98.2657 63.1716 98.2607 63.1719 98.2556C63.093 94.3365 63.1051 90.917 63.2092 87.8021V87.7907C63.2965 85.7751 63.4332 83.7451 63.6156 81.756C63.6156 81.7428 63.6156 81.7301 63.6198 81.7169C63.9371 79.1727 64.3567 76.5997 64.8666 74.0646C64.8666 74.0598 64.8666 74.0549 64.8666 74.0501C65.3144 71.914 65.8908 69.8069 66.5926 67.7403C66.6305 67.6326 66.7509 67.3009 67.1814 66.1149L66.6961 64.4575L64.4771 65.1065C63.0027 65.5423 61.4754 65.8229 60.3099 66.0192H60.2967C58.7133 66.2678 57.1132 66.4641 55.5407 66.6025C55.3769 66.6121 54.5064 66.6555 49.0015 66.9282L48.4181 68.0919L48.2375 68.4628L48.0569 68.8469C47.5426 69.9718 47.117 71.1352 46.7843 72.3265C46.3628 73.8003 46.0281 75.4444 45.7319 77.5039C45.4731 79.3034 45.2888 81.1329 45.1841 82.9426C45.1883 83.0684 45.1714 83.4471 45.1155 84.6831Z" fill="#231F20"/>
<path d="M32.4826 68.1442C32.1955 68.1439 31.9179 68.041 31.7 67.854L26.3341 63.2456L22.8292 60.2553L19.3121 57.2765L15.7873 54.3091L12.4876 51.5513L9.17649 48.803L5.85513 46.0662L0.441746 41.6378C0.198973 41.4393 0.0432018 41.154 0.007562 40.8424C-0.0280778 40.5309 0.0592258 40.2177 0.250905 39.9696L3.61802 35.6115L5.43552 33.2402L13.3648 22.9781C13.4124 22.9164 13.4661 22.8595 13.5249 22.8083C14.6842 21.7865 15.9739 20.9231 17.3604 20.2407L17.3977 20.2232L18.1972 19.8668L18.2333 19.8512C20.0394 19.1101 22.0339 18.658 24.3348 18.4695H24.3685C26.1896 18.372 27.6706 18.2624 29.027 18.1246C30.417 17.9638 31.774 17.7724 33.0605 17.5539C34.5794 17.2733 36.1056 16.9362 37.5968 16.5515C39.4438 16.0404 41.3161 15.4678 43.1631 14.8466C46.7252 13.613 50.2892 12.2609 53.3065 11.1008L66.1254 6.05884C66.2968 5.99133 66.4815 5.96406 66.6651 5.97913C66.8487 5.99421 67.0264 6.05122 67.1846 6.14578C67.3427 6.24034 67.477 6.36993 67.5772 6.52456C67.6773 6.6792 67.7407 6.85476 67.7623 7.03773C67.7623 7.03773 68.2313 10.9996 68.2439 11.1056C68.3348 11.872 68.5124 12.7636 68.7857 13.8303C69.0344 14.7099 69.3276 15.6123 69.6833 16.587C70.1704 17.8513 70.7441 19.1155 71.2986 20.34C71.4081 20.5832 71.5179 20.8267 71.6279 21.0703C71.7477 21.3365 71.7666 21.6372 71.6813 21.9164C71.5959 22.1956 71.4119 22.4343 71.1637 22.588C69.3251 23.7252 68.7725 24.0671 68.5901 24.1779C67.4203 24.916 66.256 25.6956 65.1297 26.4957C63.6469 27.5691 62.3182 28.6028 61.0678 29.6587C60.1636 30.4432 59.2996 31.2729 58.4791 32.1445C57.3648 33.36 56.5526 34.4021 55.9247 35.4225C54.8652 37.2237 54.1662 38.8685 53.7876 40.4488C53.4595 41.9358 53.3571 43.0856 53.4595 44.0681C53.5907 45.1939 53.8074 46.3081 54.1078 47.4009C54.2451 47.8428 54.404 48.2835 54.581 48.7109L55.8031 51.473C55.9304 51.7606 55.9401 52.0865 55.8302 52.3812C55.7203 52.6758 55.4995 52.9158 55.2149 53.0497L52.1916 54.4711C50.2862 55.3922 48.6583 56.2615 47.2147 57.1296C45.414 58.2133 43.6025 59.4173 41.6694 60.823C39.7081 62.248 37.6961 63.8831 35.5138 65.8198L33.2917 67.833C33.0702 68.0339 32.7817 68.1449 32.4826 68.1442ZM2.87271 40.5162L7.38306 44.2066L10.711 46.9488L14.027 49.7007L17.3381 52.4645L20.869 55.4367L24.3902 58.4203L27.9012 61.416L32.4645 65.3352L33.9052 64.0318L33.913 64.0246C36.1513 62.0325 38.2283 60.3474 40.2541 58.8779C42.2408 57.433 44.1125 56.188 45.9733 55.0689C47.4814 54.1622 49.1743 53.2574 51.1507 52.3032L51.1615 52.2978L53.1265 51.3725L52.3758 49.6718C52.3722 49.6633 52.368 49.6549 52.3644 49.6459C52.1555 49.1414 51.967 48.6224 51.8057 48.0993C51.8057 48.0902 51.8003 48.0812 51.7979 48.0716C51.4603 46.8523 51.2171 45.6089 51.0706 44.3523C51.0706 44.3451 51.0706 44.3384 51.0706 44.3312C50.9382 43.0796 51.0562 41.6787 51.4427 39.9232C51.4427 39.916 51.4457 39.9094 51.4475 39.9021C51.8828 38.0792 52.672 36.2117 53.8598 34.1938L53.8712 34.1745C54.584 33.0144 55.4877 31.8513 56.7146 30.5136L56.7254 30.5022C57.6059 29.567 58.5332 28.677 59.5038 27.8358L59.5152 27.8262C60.815 26.7293 62.1936 25.6553 63.7293 24.5439L63.7384 24.5373C64.9015 23.7113 66.1037 22.9058 67.3114 22.1437L67.3222 22.1371L69.0031 21.0974C68.4667 19.912 67.9194 18.6893 67.4378 17.4437C67.4378 17.4371 67.4324 17.4298 67.43 17.4232C67.0501 16.3829 66.7359 15.4173 66.4668 14.4733C66.4668 14.4649 66.4619 14.4558 66.4601 14.4474C66.1561 13.2687 65.958 12.2693 65.8539 11.3916C65.8455 11.3314 65.8382 11.276 65.8316 11.217L65.5535 8.86908L54.1819 13.3409L54.1728 13.3445C51.1344 14.5124 47.5428 15.873 43.9439 17.121L43.9337 17.1246C42.0403 17.761 40.1198 18.3491 38.2265 18.8705L38.2066 18.8759C36.6546 19.2762 35.0671 19.6272 33.4868 19.9186L33.4723 19.927C32.1394 20.1534 30.7337 20.3527 29.2955 20.5182H29.2798C27.8855 20.6591 26.3684 20.7699 24.5142 20.871C22.4758 21.0396 20.7215 21.4333 19.1562 22.075L18.3983 22.414C17.2444 22.9843 16.1686 23.7006 15.1973 24.5451L7.34454 34.7091L5.52643 37.0799L2.87271 40.5162Z" fill="#231F20"/>
<path d="M179.393 152.186C179.284 152.185 179.175 152.17 179.07 152.141C178.6 152.01 178.129 151.879 177.657 151.749C175.498 151.151 173.263 150.533 171.081 149.842C170.977 149.81 170.829 149.76 170.599 149.681L168.146 148.846C165.592 147.998 162.99 147.173 160.409 146.394L157.52 145.536C157.268 145.462 157.048 145.307 156.892 145.096C156.737 144.884 156.655 144.628 156.658 144.365L157.043 117.339V117.329C157.121 113.831 157.228 110.357 157.349 106.503C157.355 106.322 157.39 105.245 157.622 98.2011C157.7 94.3319 157.688 90.9588 157.585 87.8897C157.501 85.9217 157.367 83.9392 157.189 81.9971C156.88 79.5204 156.472 77.0147 155.976 74.5495C155.548 72.5099 154.998 70.4979 154.328 68.5244C154.257 68.3348 154.085 67.8622 153.616 66.5703C153.528 66.3296 153.52 66.0671 153.592 65.8213L154.526 62.6306C154.615 62.3241 154.823 62.0658 155.103 61.9125C155.383 61.7592 155.713 61.7234 156.019 61.8131L159.394 62.8004C160.748 63.2001 162.181 63.4626 163.278 63.6486C164.805 63.8894 166.348 64.0773 167.861 64.2109L175.014 64.5649C175.227 64.5754 175.434 64.6422 175.612 64.7586C175.791 64.8749 175.936 65.0366 176.031 65.2271L176.934 67.0266L176.943 67.044L177.13 67.4336C177.133 67.4396 177.136 67.445 177.138 67.451L177.319 67.8435C177.885 69.0807 178.354 70.3603 178.721 71.6706C179.173 73.2515 179.529 74.9974 179.841 77.1646C180.11 79.0309 180.301 80.9297 180.41 82.8074C180.41 82.8134 180.41 82.8194 180.41 82.8255C180.413 82.8905 180.489 84.5828 180.489 84.5828V84.59C180.61 87.6693 180.676 90.8408 180.695 94.2825C180.7 97.9844 180.667 101.657 180.596 105.206L180.592 150.982C180.592 151.302 180.465 151.608 180.24 151.834C180.014 152.059 179.707 152.186 179.388 152.186L179.393 152.186ZM171.821 147.55C173.921 148.212 176.089 148.814 178.189 149.397L178.193 105.192V105.169C178.264 101.634 178.297 97.9735 178.291 94.2892C178.273 90.8787 178.207 87.735 178.088 84.6839C178.032 83.4467 178.016 83.0675 178.01 82.9423C177.905 81.1326 177.721 79.303 177.462 77.5036C177.165 75.4471 176.831 73.8023 176.41 72.3262C176.078 71.1361 175.652 69.9738 175.138 68.8501L174.958 68.4624L174.777 68.091L174.194 66.9279L167.702 66.6064C167.686 66.6064 167.67 66.6052 167.655 66.6028C166.083 66.4643 164.483 66.268 162.899 66.0194H162.886C161.721 65.8231 160.193 65.5426 158.716 65.1061L156.499 64.4578L156.018 66.1151L156.599 67.7165C156.602 67.7243 156.605 67.7315 156.608 67.7388C157.309 69.8055 157.884 71.9126 158.332 74.0486C158.333 74.0534 158.334 74.0583 158.335 74.063C158.845 76.5963 159.264 79.1706 159.581 81.7153C159.581 81.7286 159.584 81.7412 159.585 81.7545C159.766 83.7411 159.905 85.7736 159.992 87.7891C159.992 87.7929 159.992 87.7968 159.992 87.8006C160.096 90.9166 160.108 94.3361 160.029 98.2541C160.029 98.2591 160.029 98.2641 160.029 98.2691C160.029 98.2691 159.756 106.554 159.756 106.577C159.635 110.421 159.528 113.888 159.45 117.374L159.079 143.484L161.1 144.086C163.707 144.873 166.333 145.705 168.909 146.56H168.917L171.821 147.55Z" fill="#231F20"/>
<path d="M189.517 68.1438C189.218 68.1444 188.93 68.0334 188.709 67.8326L186.486 65.8212C184.305 63.8833 182.291 62.2476 180.329 60.8244C178.399 59.4217 176.585 58.2135 174.785 57.131C173.34 56.2629 171.714 55.3936 169.807 54.4725L166.784 53.0487C166.499 52.9148 166.278 52.6748 166.168 52.3802C166.059 52.0855 166.068 51.7596 166.196 51.472L167.418 48.7118C167.595 48.2849 167.754 47.8442 167.891 47.4018C168.192 46.3085 168.409 45.194 168.54 44.0678C168.643 43.0865 168.54 41.9366 168.212 40.452C167.834 38.8711 167.135 37.2276 166.075 35.4263C165.447 34.4029 164.635 33.3632 163.52 32.1477C162.7 31.2759 161.836 30.4463 160.931 29.662C159.681 28.6078 158.352 27.5729 156.869 26.4989C155.743 25.6994 154.581 24.9204 153.413 24.1836L150.837 22.5894C150.588 22.4358 150.404 22.1972 150.319 21.918C150.233 21.6388 150.252 21.338 150.372 21.0717C150.482 20.8273 150.592 20.5831 150.703 20.339C151.257 19.1151 151.83 17.8491 152.317 16.5884C152.672 15.6132 152.966 14.7113 153.214 13.8318C153.489 12.765 153.667 11.8734 153.756 11.107H153.759C153.788 10.8403 153.888 9.99569 154.241 7.03555C154.262 6.85266 154.326 6.67717 154.426 6.5226C154.526 6.36802 154.66 6.23847 154.818 6.14393C154.976 6.04938 155.154 5.99234 155.337 5.97721C155.521 5.96209 155.705 5.98926 155.877 6.05666L168.696 11.0986C171.713 12.2587 175.278 13.6108 178.84 14.8444C180.687 15.4651 182.559 16.0382 184.406 16.5493C185.897 16.934 187.423 17.2717 188.942 17.5517C190.228 17.7702 191.585 17.9617 192.976 18.1224C194.332 18.2603 195.813 18.3698 197.634 18.4674H197.668C199.968 18.6558 201.965 19.1079 203.77 19.849L203.803 19.864L204.604 20.221L204.641 20.2385C206.027 20.9211 207.317 21.7845 208.477 22.8061C208.535 22.8576 208.589 22.9145 208.637 22.9759L216.564 33.2344L218.387 35.6129L221.751 39.9674C221.943 40.2155 222.031 40.5286 221.995 40.8401C221.959 41.1516 221.804 41.437 221.561 41.6356L216.143 46.0671L212.822 48.8039L209.51 51.5515L206.211 54.31L202.687 57.2767L199.171 60.2555L195.666 63.2458L190.299 67.8537C190.081 68.0406 189.804 68.1435 189.517 68.1438ZM168.875 51.3691L170.84 52.2944L170.85 52.2998C172.825 53.254 174.518 54.1589 176.028 55.0655C177.889 56.1847 179.76 57.4302 181.747 58.8745C183.775 60.3476 185.85 62.0321 188.092 64.0242L188.1 64.0314L189.54 65.3348L194.1 61.4217L197.611 58.426L201.133 55.4424L204.664 52.4696L207.969 49.7063L211.287 46.9526L214.615 44.2104L219.13 40.5176L216.481 37.0861L214.658 34.7075L206.801 24.5448C205.83 23.7004 204.754 22.9841 203.6 22.4136L202.842 22.0747C201.277 21.4329 199.524 21.0392 197.484 20.8706C195.628 20.7713 194.113 20.6587 192.719 20.5166H192.704C191.265 20.3511 189.86 20.1518 188.526 19.9255L188.51 19.9224C186.93 19.6311 185.342 19.2801 183.79 18.8797L183.77 18.8743C181.877 18.3506 179.957 17.7624 178.063 17.1285L178.052 17.1248C174.454 15.8787 170.862 14.5163 167.823 13.3484L167.815 13.3447L156.445 8.87232C156.309 10.0162 156.148 11.3767 156.144 11.393C156.039 12.2707 155.843 13.2701 155.537 14.4483L155.53 14.4747C155.264 15.4199 154.95 16.3856 154.567 17.4246C154.567 17.4313 154.561 17.4385 154.559 17.4451C154.077 18.6907 153.531 19.9134 152.994 21.0988L153.385 21.3396C154.16 21.8212 154.509 22.0349 154.682 22.1481V22.1439C155.89 22.9055 157.091 23.7092 158.255 24.5375L158.265 24.5442C159.801 25.6561 161.179 26.7301 162.479 27.8264L162.491 27.836C163.461 28.6771 164.389 29.567 165.269 30.5024C165.273 30.5059 165.276 30.5097 165.279 30.5138C166.507 31.8515 167.41 33.0146 168.123 34.1747C168.127 34.1807 168.13 34.1874 168.135 34.194C169.322 36.2126 170.112 38.0794 170.547 39.9024C170.547 39.9096 170.547 39.9162 170.551 39.9234C170.938 41.6789 171.056 43.0798 170.923 44.3314C170.923 44.3387 170.923 44.3453 170.923 44.3525C170.777 45.6091 170.534 46.8525 170.197 48.0718C170.197 48.0814 170.191 48.0905 170.189 48.0995C170.027 48.6215 169.839 49.1422 169.629 49.6461L169.619 49.6726L168.875 51.3691Z" fill="#231F20"/>
<path d="M111.045 21.7463L101.496 21.733C99.0845 21.733 96.4566 21.5277 93.2274 21.0961L93.2045 21.0931L92.3557 20.963C90.1691 20.6283 88.1662 20.1623 86.4053 19.5784C84.6216 18.9858 82.9095 18.1963 81.3007 17.2245C79.6656 16.2377 78.2358 15.1379 77.0511 13.9549L74.7128 11.7274C74.5942 11.6144 74.4998 11.4784 74.4356 11.3277C74.3713 11.177 74.3385 11.0148 74.3391 10.8509C74.3397 10.6871 74.3738 10.5251 74.4392 10.3749C74.5046 10.2247 74.5999 10.0894 74.7194 9.97732L76.9644 7.87024C77.1883 7.66074 77.3202 7.53672 77.4087 7.45846C78.7344 6.28639 80.1572 5.22905 81.6619 4.29784L81.6938 4.27857C83.5035 3.23467 85.4583 2.42254 87.6707 1.79643L87.6936 1.79041C89.6655 1.27517 91.6653 0.873167 93.6831 0.58637H93.7036C96.4633 0.241749 99.2397 0.0480113 102.021 0.00602022H102.037L111.045 0L120.594 0.0114384H120.62C122.166 0.0469577 123.995 0.107762 125.84 0.294991C128.523 0.567105 130.921 0.953604 133.168 1.47676C135.467 2.01256 137.611 2.79278 139.542 3.79635C141.563 4.84342 143.415 6.18921 145.034 7.78836L147.372 10.0158C147.491 10.1288 147.585 10.2648 147.649 10.4155C147.714 10.5662 147.746 10.7285 147.746 10.8923C147.745 11.0561 147.711 11.2181 147.646 11.3683C147.58 11.5186 147.485 11.6538 147.365 11.7659L144.705 14.2625L144.679 14.286C143.175 15.6196 141.542 16.7992 139.803 17.8072C137.943 18.8806 135.95 19.5152 134.418 19.948C132.389 20.5217 130.211 20.9359 127.357 21.2917C125.228 21.5572 122.911 21.6999 120.066 21.7408H120.049L111.045 21.7463ZM93.5579 18.7127C96.6746 19.1287 99.1982 19.3237 101.499 19.3267L111.045 19.3382L120.038 19.3321C122.79 19.2924 125.021 19.1558 127.058 18.9017C129.787 18.5616 131.854 18.1696 133.762 17.6302C135.157 17.2353 136.969 16.6616 138.599 15.7212C140.193 14.7966 141.691 13.7152 143.071 12.4932L144.786 10.881L143.361 9.52339L143.34 9.50292C141.955 8.11827 140.257 6.88473 138.428 5.93353C136.652 5.01003 134.752 4.31951 132.62 3.82284C130.473 3.32316 128.175 2.95292 125.595 2.69104C123.838 2.51043 122.072 2.45384 120.575 2.41953L111.044 2.40809L102.046 2.41411C99.3595 2.45381 96.6767 2.63991 94.01 2.97158C92.0907 3.24525 90.1887 3.62836 88.3131 4.11904C86.3059 4.68795 84.5384 5.42061 82.9105 6.35796C81.5331 7.21208 80.23 8.18054 79.0148 9.25308L77.2961 10.8653L78.7217 12.2211L78.7427 12.2421C79.7776 13.2764 81.0906 14.289 82.5445 15.1631C84 16.0424 85.5489 16.7568 87.1626 17.2931C88.7959 17.8349 90.6664 18.2684 92.7235 18.5832L93.5579 18.7127Z" fill="#231F20"/>
</g>
<defs>
<clipPath id="clip0">
<rect width="222" height="152.186" fill="white"/>
</clipPath>
</defs>
</svg>
