<?xml version="1.0" encoding="UTF-8"?>
<svg width="14px" height="14px" viewBox="0 0 14 14" version="1.1" xmlns="http://www.w3.org/2000/svg" xmlns:xlink="http://www.w3.org/1999/xlink">
    <!-- Generator: Sketch 48.2 (47327) - http://www.bohemiancoding.com/sketch -->
    <title>fb</title>
    <desc>Created with Sketch.</desc>
    <defs></defs>
    <g id="social/facebook/default" stroke="none" stroke-width="1" fill="none" fill-rule="evenodd">
        <path d="M12.7303094,0.915380157 L0.813778128,0.915380157 C0.514371878,0.915380157 0.271840628,1.15791141 0.271840628,1.45691141 L0.271840628,13.3738489 C0.271840628,13.6728489 0.514371878,13.9153802 0.813778128,13.9153802 L7.17809063,13.9153802 L7.17809063,9.04038016 L5.55309063,9.04038016 L5.55309063,7.00913016 L7.17809063,7.00913016 L7.17809063,5.38413016 C7.17809063,3.70509891 8.24124688,2.87878641 9.73909063,2.87878641 C10.4565281,2.87878641 11.0732156,2.93241141 11.2527781,2.95597391 L11.2527781,4.71097391 L10.2139969,4.71138016 C9.39946563,4.71138016 9.20934063,5.09853641 9.20934063,5.66647391 L9.20934063,7.00913016 L11.2405906,7.00913016 L10.8343406,9.04038016 L9.20934063,9.04038016 L9.24184063,13.9153802 L12.7303094,13.9153802 C13.0293094,13.9153802 13.2718406,13.6728489 13.2718406,13.3738489 L13.2718406,1.45691141 C13.2718406,1.15791141 13.0293094,0.915380157 12.7303094,0.915380157" id="fb" fill="#DCDCDC"></path>
    </g>
</svg>