<?xml version="1.0" encoding="utf-8"?>
<svg viewBox="0 0 296.341 380.273" width="296.341" height="380.273" style="enable-background:new 0 0 380 380;" xmlns="http://www.w3.org/2000/svg">
  <defs>
    <style type="text/css">
	.st0{display:none;fill:#231F20;stroke:#FFFFFF;stroke-miterlimit:10;}
	.st1{display:none;fill:#26A514;stroke:#FFFFFF;stroke-miterlimit:10;}
	.st2{display:none;fill:#DD1919;stroke:#FFFFFF;stroke-miterlimit:10;}
	.st3{display:none;fill:#D8D6D6;stroke:#FFFFFF;stroke-miterlimit:10;}
	.st4{display:none;}
	.st5{display:inline;}
	.st6{fill:#FFFFFF;}
	.st7{display:inline;fill:#231F20;stroke:#FFFFFF;stroke-miterlimit:10;}
	.st8{fill:#26A514;stroke:#FFFFFF;stroke-miterlimit:10;}
	.st9{fill:#DD1919;stroke:#FFFFFF;stroke-miterlimit:10;}
	.st10{fill:#D8D6D6;stroke:#FFFFFF;stroke-miterlimit:10;}
	.st11{fill:#9E9E9E;stroke:#FFFFFF;stroke-miterlimit:10;}
	.st12{display:inline;fill:#28B21D;stroke:#FFFFFF;stroke-miterlimit:10;}
	.st13{display:inline;fill:#28B21D;}
	.st14{display:inline;fill:none;stroke:#28B21D;stroke-width:11;stroke-miterlimit:10;}
	.st15{display:inline;fill:#FCFCFC;stroke:#28B21D;stroke-width:8;stroke-miterlimit:10;}
	.st16{fill:#E21313;}
</style>
  </defs>
  <g id="Layer_2_copy">
    <circle class="st0" cx="190" cy="185.4" r="172.5"/>
    <circle class="st1" cx="190" cy="185.4" r="172.5"/>
    <circle class="st2" cx="190" cy="185.4" r="172.5"/>
    <circle class="st3" cx="190" cy="185.4" r="172.5"/>
    <g class="st4">
      <g class="st5">
        <path class="st6" d="M126.4,265.3c-14.4,0-26.1-11.7-26.1-26.1s11.7-26.1,26.1-26.1s26.1,11.7,26.1,26.1 C152.5,253.6,140.8,265.3,126.4,265.3z M126.4,219.8c-10.7,0-19.3,8.7-19.3,19.3c0,10.7,8.7,19.3,19.3,19.3 c10.7,0,19.3-8.7,19.3-19.3C145.7,228.4,137,219.8,126.4,219.8z"/>
      </g>
      <g class="st5">
        <path class="st6" d="M281,265.3c-14.4,0-26.1-11.7-26.1-26.1s11.7-26.1,26.1-26.1s26.1,11.7,26.1,26.1 C307.1,253.6,295.4,265.3,281,265.3z M281,219.8c-10.7,0-19.3,8.7-19.3,19.3c0,10.7,8.7,19.3,19.3,19.3s19.3-8.7,19.3-19.3 C300.3,228.4,291.6,219.8,281,219.8z"/>
      </g>
      <g class="st5">
        <ellipse class="st6" cx="281" cy="239.2" rx="9.1" ry="9.1"/>
      </g>
      <g class="st5">
        <ellipse class="st6" cx="126.4" cy="239.2" rx="9.1" ry="9.1"/>
      </g>
      <g class="st5">
        <path class="st6" d="M317.3,237.9c-1.9,0-3.4-1.5-3.4-3.4s1.5-3.4,3.4-3.4c3.1,0,5.7-2.5,5.7-5.7v-46c0-1.8-0.6-3.6-1.8-5 l-34.9-42.7c-1.5-1.9-3.8-2.9-6.2-2.9h-36.7v102.3h1.1c1.9,0,3.4,1.5,3.4,3.4s-1.5,3.4-3.4,3.4h-4.4c-1.9,0-3.4-1.5-3.4-3.4 V125.4c0-1.9,1.5-3.4,3.4-3.4h40c4.4,0,8.6,2,11.4,5.4l34.9,42.7c2.1,2.6,3.3,6,3.3,9.4v46C329.9,232.4,324.2,237.9,317.3,237.9z "/>
      </g>
      <g class="st5">
        <path class="st6" d="M306.7,183.4h-48.4c-1.9,0-3.4-1.5-3.4-3.4v-36.4c0-1.9,1.5-3.4,3.4-3.4h18.6c1,0,2,0.5,2.6,1.2l29.8,36.4 c0.8,1,1,2.4,0.4,3.6C309.2,182.7,308,183.4,306.7,183.4z M261.7,176.6h37.8l-24.2-29.6h-13.6L261.7,176.6L261.7,176.6z"/>
      </g>
      <g class="st5">
        <path class="st6" d="M326.4,219.8h-18.2c-1.9,0-3.4-1.5-3.4-3.4v-18.2c0-1.9,1.5-3.4,3.4-3.4h18.2c1.9,0,3.4,1.5,3.4,3.4 s-1.5,3.4-3.4,3.4h-14.8v11.4h14.8c1.9,0,3.4,1.5,3.4,3.4C329.9,218.2,328.3,219.8,326.4,219.8z"/>
      </g>
      <g class="st5">
        <path class="st6" d="M240.1,237.9h-72.8c-1.9,0-3.4-1.5-3.4-3.4s1.5-3.4,3.4-3.4h72.8c1.9,0,3.4,1.5,3.4,3.4 S241.9,237.9,240.1,237.9z"/>
      </g>
      <g class="st5">
        <path class="st6" d="M85.5,237.9h-9.1c-1.9,0-3.4-1.5-3.4-3.4v-54.6c0-1.9,1.5-3.4,3.4-3.4s3.4,1.5,3.4,3.4v51.2h5.7 c1.9,0,3.4,1.5,3.4,3.4S87.3,237.9,85.5,237.9z"/>
      </g>
      <g class="st5">
        <path class="st6" d="M240.1,128.9c-1.9,0-3.4-1.5-3.4-3.4v-14.8H79.8v10.2c0,1.9-1.5,3.4-3.4,3.4s-3.4-1.5-3.4-3.4v-13.6 c0-1.9,1.5-3.4,3.4-3.4h163.7c1.9,0,3.4,1.5,3.4,3.4v18.2C243.5,127.4,241.9,128.9,240.1,128.9z"/>
      </g>
      <g class="st5">
        <path class="st6" d="M158.2,206.2c-0.9,0-1.7-0.3-2.4-1L124,173.4c-1.3-1.3-1.3-3.5,0-4.8l13.6-13.6c1.3-1.3,3.5-1.3,4.8,0 l15.8,15.8l34-34c1.3-1.3,3.5-1.3,4.8,0l13.6,13.6c1.3,1.3,1.3,3.5,0,4.8l-50,50C160,205.9,159.1,206.2,158.2,206.2z M131.2,170.9l27,27l45.2-45.2l-8.8-8.8l-34,34c-1.3,1.3-3.5,1.3-4.8,0L140,162.1L131.2,170.9z"/>
      </g>
      <g class="st5">
        <path class="st6" d="M108.2,165.2H53.6c-1.9,0-3.4-1.5-3.4-3.4s1.5-3.4,3.4-3.4h54.6c1.9,0,3.4,1.5,3.4,3.4 S110.1,165.2,108.2,165.2z"/>
      </g>
      <g class="st5">
        <path class="st6" d="M121.8,142.4H67.3c-1.9,0-3.4-1.5-3.4-3.4s1.5-3.4,3.4-3.4h54.6c1.9,0,3.4,1.5,3.4,3.4 C125.2,140.9,123.7,142.4,121.8,142.4z"/>
      </g>
    </g>
    <g class="st4">
      <g class="st5">
        <path class="st6" d="M114.8,272.4c-15.7,0-28.5-12.8-28.5-28.5c0-15.7,12.8-28.5,28.5-28.5s28.5,12.8,28.5,28.5 C143.3,259.7,130.5,272.4,114.8,272.4z M114.8,222.9c-11.6,0-21,9.4-21,21c0,11.6,9.4,21,21,21s21-9.4,21-21 C135.8,232.4,126.4,222.9,114.8,222.9z"/>
      </g>
      <g class="st5">
        <path class="st6" d="M283.1,272.4c-15.7,0-28.5-12.8-28.5-28.5c0-15.7,12.8-28.5,28.5-28.5s28.5,12.8,28.5,28.5 C311.5,259.7,298.8,272.4,283.1,272.4z M283.1,222.9c-11.6,0-21,9.4-21,21c0,11.6,9.4,21,21,21s21-9.4,21-21 C304.1,232.4,294.7,222.9,283.1,222.9z"/>
      </g>
      <g class="st5">
        <ellipse class="st6" cx="283.1" cy="243.9" rx="9.9" ry="9.9"/>
      </g>
      <g class="st5">
        <ellipse class="st6" cx="114.8" cy="243.9" rx="9.9" ry="9.9"/>
      </g>
      <g class="st5">
        <path class="st6" d="M322.7,242.7c-2,0-3.7-1.7-3.7-3.7s1.7-3.7,3.7-3.7c3.4,0,6.2-2.8,6.2-6.2v-50c0-2-0.7-3.9-2-5.5l-38-46.5 c-1.6-2-4.1-3.2-6.7-3.2h-39.9v111.4h1.2c2,0,3.7,1.7,3.7,3.7s-1.7,3.7-3.7,3.7h-5c-2,0-3.7-1.7-3.7-3.7V120.2 c0-2.1,1.7-3.7,3.7-3.7h43.6c4.8,0,9.4,2.2,12.5,5.9l38,46.5c2.3,2.9,3.6,6.5,3.6,10.2v50C336.3,236.6,330.2,242.7,322.7,242.7z"/>
      </g>
      <g class="st5">
        <path class="st6" d="M311.1,183.4h-52.7c-2,0-3.7-1.7-3.7-3.7v-39.6c0-2.1,1.7-3.7,3.7-3.7h20.3c1.1,0,2.2,0.5,2.9,1.4l32.4,39.6 c0.9,1.1,1.1,2.6,0.5,3.9C313.8,182.4,312.5,183.4,311.1,183.4z M262.1,175.9h41.2l-26.4-32.2h-14.8L262.1,175.9L262.1,175.9z"/>
      </g>
      <g class="st5">
        <path class="st6" d="M332.6,222.9h-19.8c-2,0-3.7-1.7-3.7-3.7v-19.8c0-2.1,1.7-3.7,3.7-3.7h19.8c2,0,3.7,1.7,3.7,3.7 s-1.7,3.7-3.7,3.7h-16.1v12.4h16.1c2,0,3.7,1.7,3.7,3.7C336.3,221.2,334.6,222.9,332.6,222.9z"/>
      </g>
      <g class="st5">
        <path class="st6" d="M238.5,242.7h-79.2c-2.1,0-3.7-1.7-3.7-3.7s1.7-3.7,3.7-3.7h79.2c2,0,3.7,1.7,3.7,3.7 S240.6,242.7,238.5,242.7z"/>
      </g>
      <g class="st5">
        <path class="st6" d="M70.3,242.7h-9.9c-2.1,0-3.7-1.7-3.7-3.7v-59.4c0-2.1,1.7-3.7,3.7-3.7c2.1,0,3.7,1.7,3.7,3.7v55.7h6.2 c2.1,0,3.7,1.7,3.7,3.7S72.3,242.7,70.3,242.7z"/>
      </g>
      <g class="st5">
        <path class="st6" d="M238.5,123.9c-2,0-3.7-1.7-3.7-3.7v-16.1H64.1v11.1c0,2.1-1.7,3.7-3.7,3.7c-2.1,0-3.7-1.7-3.7-3.7v-14.8 c0-2.1,1.7-3.7,3.7-3.7h178.2c2,0,3.7,1.7,3.7,3.7v19.8C242.2,122.2,240.6,123.9,238.5,123.9z"/>
      </g>
      <g class="st5">
        <path class="st6" d="M149.5,208.1c-0.9,0-1.9-0.4-2.6-1.1l-34.6-34.6c-1.4-1.4-1.4-3.8,0-5.2l14.9-14.9c1.4-1.4,3.8-1.4,5.2,0 l17.2,17.2l37-37c1.4-1.4,3.8-1.4,5.2,0l14.9,14.9c1.4,1.4,1.4,3.8,0,5.2l-54.6,54.4C151.3,207.7,150.4,208.1,149.5,208.1z M120.1,169.7l29.4,29.4l49.2-49.2l-9.6-9.6l-37,37c-1.4,1.4-3.8,1.4-5.2,0l-17.2-17.2L120.1,169.7z"/>
      </g>
      <g class="st5">
        <path class="st6" d="M95,163.6H35.6c-2,0-3.7-1.7-3.7-3.7s1.7-3.7,3.7-3.7H95c2.1,0,3.7,1.7,3.7,3.7S97.1,163.6,95,163.6z"/>
      </g>
      <g class="st5">
        <path class="st6" d="M109.9,138.8H50.5c-2.1,0-3.7-1.7-3.7-3.7s1.7-3.7,3.7-3.7h59.4c2.1,0,3.7,1.7,3.7,3.7 S111.9,138.8,109.9,138.8z"/>
      </g>
    </g>
  </g>
  <g id="Layer_2_copy_00000117665577643094982590000017124763885740479915_" class="st4">
    <circle class="st7" cx="190" cy="185.4" r="172.5"/>
    <circle class="st8" cx="190" cy="185.4" r="172.5"/>
    <circle class="st9" cx="190" cy="185.4" r="172.5"/>
    <circle class="st10" cx="190" cy="185.4" r="172.5"/>
    <g>
      <g class="st5">
        <path class="st6" d="M126.4,265.3c-14.4,0-26.1-11.7-26.1-26.1s11.7-26.1,26.1-26.1s26.1,11.7,26.1,26.1 C152.5,253.6,140.8,265.3,126.4,265.3z M126.4,219.8c-10.7,0-19.3,8.7-19.3,19.3c0,10.7,8.7,19.3,19.3,19.3 c10.7,0,19.3-8.7,19.3-19.3C145.7,228.4,137,219.8,126.4,219.8z"/>
      </g>
      <g class="st5">
        <path class="st6" d="M281,265.3c-14.4,0-26.1-11.7-26.1-26.1s11.7-26.1,26.1-26.1s26.1,11.7,26.1,26.1 C307.1,253.6,295.4,265.3,281,265.3z M281,219.8c-10.7,0-19.3,8.7-19.3,19.3c0,10.7,8.7,19.3,19.3,19.3s19.3-8.7,19.3-19.3 C300.3,228.4,291.6,219.8,281,219.8z"/>
      </g>
      <g class="st5">
        <ellipse class="st6" cx="281" cy="239.2" rx="9.1" ry="9.1"/>
      </g>
      <g class="st5">
        <ellipse class="st6" cx="126.4" cy="239.2" rx="9.1" ry="9.1"/>
      </g>
      <g class="st5">
        <path class="st6" d="M317.3,237.9c-1.9,0-3.4-1.5-3.4-3.4s1.5-3.4,3.4-3.4c3.1,0,5.7-2.5,5.7-5.7v-46c0-1.8-0.6-3.6-1.8-5 l-34.9-42.7c-1.5-1.9-3.8-2.9-6.2-2.9h-36.7v102.3h1.1c1.9,0,3.4,1.5,3.4,3.4s-1.5,3.4-3.4,3.4h-4.4c-1.9,0-3.4-1.5-3.4-3.4 V125.4c0-1.9,1.5-3.4,3.4-3.4h40c4.4,0,8.6,2,11.4,5.4l34.9,42.7c2.1,2.6,3.3,6,3.3,9.4v46C329.9,232.4,324.2,237.9,317.3,237.9z "/>
      </g>
      <g class="st5">
        <path class="st6" d="M306.7,183.4h-48.4c-1.9,0-3.4-1.5-3.4-3.4v-36.4c0-1.9,1.5-3.4,3.4-3.4h18.6c1,0,2,0.5,2.6,1.2l29.8,36.4 c0.8,1,1,2.4,0.4,3.6C309.2,182.7,308,183.4,306.7,183.4z M261.7,176.6h37.8l-24.2-29.6h-13.6L261.7,176.6L261.7,176.6z"/>
      </g>
      <g class="st5">
        <path class="st6" d="M326.4,219.8h-18.2c-1.9,0-3.4-1.5-3.4-3.4v-18.2c0-1.9,1.5-3.4,3.4-3.4h18.2c1.9,0,3.4,1.5,3.4,3.4 s-1.5,3.4-3.4,3.4h-14.8v11.4h14.8c1.9,0,3.4,1.5,3.4,3.4C329.9,218.2,328.3,219.8,326.4,219.8z"/>
      </g>
      <g class="st5">
        <path class="st6" d="M240.1,237.9h-72.8c-1.9,0-3.4-1.5-3.4-3.4s1.5-3.4,3.4-3.4h72.8c1.9,0,3.4,1.5,3.4,3.4 S241.9,237.9,240.1,237.9z"/>
      </g>
      <g class="st5">
        <path class="st6" d="M85.5,237.9h-9.1c-1.9,0-3.4-1.5-3.4-3.4v-54.6c0-1.9,1.5-3.4,3.4-3.4s3.4,1.5,3.4,3.4v51.2h5.7 c1.9,0,3.4,1.5,3.4,3.4S87.3,237.9,85.5,237.9z"/>
      </g>
      <g class="st5">
        <path class="st6" d="M240.1,128.9c-1.9,0-3.4-1.5-3.4-3.4v-14.8H79.8v10.2c0,1.9-1.5,3.4-3.4,3.4s-3.4-1.5-3.4-3.4v-13.6 c0-1.9,1.5-3.4,3.4-3.4h163.7c1.9,0,3.4,1.5,3.4,3.4v18.2C243.5,127.4,241.9,128.9,240.1,128.9z"/>
      </g>
      <g class="st5">
        <path class="st6" d="M158.2,206.2c-0.9,0-1.7-0.3-2.4-1L124,173.4c-1.3-1.3-1.3-3.5,0-4.8l13.6-13.6c1.3-1.3,3.5-1.3,4.8,0 l15.8,15.8l34-34c1.3-1.3,3.5-1.3,4.8,0l13.6,13.6c1.3,1.3,1.3,3.5,0,4.8l-50,50C160,205.9,159.1,206.2,158.2,206.2z"/>
      </g>
      <g class="st5">
        <path class="st6" d="M108.2,165.2H53.6c-1.9,0-3.4-1.5-3.4-3.4s1.5-3.4,3.4-3.4h54.6c1.9,0,3.4,1.5,3.4,3.4 S110.1,165.2,108.2,165.2z"/>
      </g>
      <g class="st5">
        <path class="st6" d="M121.8,142.4H67.3c-1.9,0-3.4-1.5-3.4-3.4s1.5-3.4,3.4-3.4h54.6c1.9,0,3.4,1.5,3.4,3.4 C125.2,140.9,123.7,142.4,121.8,142.4z"/>
      </g>
    </g>
    <g>
      <g class="st5">
        <path class="st6" d="M114.8,272.4c-15.7,0-28.5-12.8-28.5-28.5c0-15.7,12.8-28.5,28.5-28.5s28.5,12.8,28.5,28.5 C143.3,259.7,130.5,272.4,114.8,272.4z M114.8,222.9c-11.6,0-21,9.4-21,21c0,11.6,9.4,21,21,21s21-9.4,21-21 C135.8,232.4,126.4,222.9,114.8,222.9z"/>
      </g>
      <g class="st5">
        <path class="st6" d="M283.1,272.4c-15.7,0-28.5-12.8-28.5-28.5c0-15.7,12.8-28.5,28.5-28.5s28.5,12.8,28.5,28.5 C311.5,259.7,298.8,272.4,283.1,272.4z M283.1,222.9c-11.6,0-21,9.4-21,21c0,11.6,9.4,21,21,21s21-9.4,21-21 C304.1,232.4,294.7,222.9,283.1,222.9z"/>
      </g>
      <g class="st5">
        <ellipse class="st6" cx="283.1" cy="243.9" rx="9.9" ry="9.9"/>
      </g>
      <g class="st5">
        <ellipse class="st6" cx="114.8" cy="243.9" rx="9.9" ry="9.9"/>
      </g>
      <g class="st5">
        <path class="st6" d="M322.7,242.7c-2,0-3.7-1.7-3.7-3.7s1.7-3.7,3.7-3.7c3.4,0,6.2-2.8,6.2-6.2v-50c0-2-0.7-3.9-2-5.5l-38-46.5 c-1.6-2-4.1-3.2-6.7-3.2h-39.9v111.4h1.2c2,0,3.7,1.7,3.7,3.7s-1.7,3.7-3.7,3.7h-5c-2,0-3.7-1.7-3.7-3.7V120.2 c0-2.1,1.7-3.7,3.7-3.7h43.6c4.8,0,9.4,2.2,12.5,5.9l38,46.5c2.3,2.9,3.6,6.5,3.6,10.2v50C336.3,236.6,330.2,242.7,322.7,242.7z"/>
      </g>
      <g class="st5">
        <path class="st6" d="M311.1,183.4h-52.7c-2,0-3.7-1.7-3.7-3.7v-39.6c0-2.1,1.7-3.7,3.7-3.7h20.3c1.1,0,2.2,0.5,2.9,1.4l32.4,39.6 c0.9,1.1,1.1,2.6,0.5,3.9C313.8,182.4,312.5,183.4,311.1,183.4z M262.1,175.9h41.2l-26.4-32.2h-14.8L262.1,175.9L262.1,175.9z"/>
      </g>
      <g class="st5">
        <path class="st6" d="M332.6,222.9h-19.8c-2,0-3.7-1.7-3.7-3.7v-19.8c0-2.1,1.7-3.7,3.7-3.7h19.8c2,0,3.7,1.7,3.7,3.7 s-1.7,3.7-3.7,3.7h-16.1v12.4h16.1c2,0,3.7,1.7,3.7,3.7C336.3,221.2,334.6,222.9,332.6,222.9z"/>
      </g>
      <g class="st5">
        <path class="st6" d="M238.5,242.7h-79.2c-2.1,0-3.7-1.7-3.7-3.7s1.7-3.7,3.7-3.7h79.2c2,0,3.7,1.7,3.7,3.7 S240.6,242.7,238.5,242.7z"/>
      </g>
      <g class="st5">
        <path class="st6" d="M70.3,242.7h-9.9c-2.1,0-3.7-1.7-3.7-3.7v-59.4c0-2.1,1.7-3.7,3.7-3.7c2.1,0,3.7,1.7,3.7,3.7v55.7h6.2 c2.1,0,3.7,1.7,3.7,3.7S72.3,242.7,70.3,242.7z"/>
      </g>
      <g class="st5">
        <path class="st6" d="M238.5,123.9c-2,0-3.7-1.7-3.7-3.7v-16.1H64.1v11.1c0,2.1-1.7,3.7-3.7,3.7c-2.1,0-3.7-1.7-3.7-3.7v-14.8 c0-2.1,1.7-3.7,3.7-3.7h178.2c2,0,3.7,1.7,3.7,3.7v19.8C242.2,122.2,240.6,123.9,238.5,123.9z"/>
      </g>
      <g class="st5">
        <path class="st6" d="M149.5,208.1c-0.9,0-1.9-0.4-2.6-1.1l-34.6-34.6c-1.4-1.4-1.4-3.8,0-5.2l14.9-14.9c1.4-1.4,3.8-1.4,5.2,0 l17.2,17.2l37-37c1.4-1.4,3.8-1.4,5.2,0l14.9,14.9c1.4,1.4,1.4,3.8,0,5.2l-54.6,54.4C151.3,207.7,150.4,208.1,149.5,208.1z M120.1,169.7l29.4,29.4l49.2-49.2l-9.6-9.6l-37,37c-1.4,1.4-3.8,1.4-5.2,0l-17.2-17.2L120.1,169.7z"/>
      </g>
      <g class="st5">
        <path class="st6" d="M95,163.6H35.6c-2,0-3.7-1.7-3.7-3.7s1.7-3.7,3.7-3.7H95c2.1,0,3.7,1.7,3.7,3.7S97.1,163.6,95,163.6z"/>
      </g>
      <g class="st5">
        <path class="st6" d="M109.9,138.8H50.5c-2.1,0-3.7-1.7-3.7-3.7s1.7-3.7,3.7-3.7h59.4c2.1,0,3.7,1.7,3.7,3.7 S111.9,138.8,109.9,138.8z"/>
      </g>
    </g>
  </g>
  <g id="Layer_6" class="st4" style="" transform="matrix(1.707947, 0, 0, 1.707947, -188.356216, -108.531296)">
    <g class="st5">
      <path class="st11" d="M315,118.7c0-0.2,0-0.4-0.1-0.6c0,0,0,0,0-0.1s-0.1-0.2-0.1-0.3l0,0c0-0.1-0.1-0.2-0.2-0.3c0,0,0,0,0-0.1 c-0.1-0.1-0.1-0.1-0.2-0.2l0,0c-0.1-0.1-0.2-0.2-0.3-0.2l0,0c-0.1-0.1-0.2-0.1-0.3-0.2c0,0,0,0-0.1,0c-0.2-0.1-0.4-0.2-0.6-0.3 l-80.9-26.5l0,0L190,76.1c-0.9-0.3-1.8-0.2-2.6,0.2l-109.2,62c-1.3,0.7-1.6,2.1-1,3.2c-0.2,0.4-0.3,0.8-0.3,1.2v112.4 c0,1,0.7,1.9,1.8,2.3l123.1,45.4h0.1h0.1c0.1,0,0.1,0,0.2,0.1h0.1c0.1,0,0.1,0,0.2,0h0.1c0.1,0,0.2,0,0.3,0s0.3,0,0.4,0h0.1 c0.1,0,0.2,0,0.3-0.1c0.1,0,0.1,0,0.2-0.1c0.1,0,0.2-0.1,0.2-0.1c0.1,0,0.1-0.1,0.2-0.1c0.1,0,0.1,0,0.2-0.1c0,0,0,0,0.1,0 c0,0,0,0,0.1,0L313.9,233c0.7-0.5,1.2-1.2,1.2-2L315,118.7L315,118.7z M202.5,185.3L163.7,171l104.4-63.7c0.1-0.1,0.2-0.1,0.3-0.2 l37.7,12.4L202.5,185.3z M261.9,105l-105.8,64.5c-0.8,0.5-1.2,1.2-1.2,2v36.4L125.5,197v-37.2L231.6,95L261.9,105z M189.4,81.2 l35.7,11.7l-102.9,62.7l-38.8-14.3L189.4,81.2z M82.7,146.5l37,13.7v38.5c0,1,0.7,1.9,1.8,2.3l35.2,13c0.4,0.1,0.8,0.2,1.1,0.2 c0.6,0,1.1-0.1,1.6-0.4c0.8-0.5,1.3-1.2,1.3-2.1v-36.4l39.3,14.5v106.9L82.7,253.4V146.5z M309.2,229.8l-103.4,65.7V189.4 l103.4-65.7V229.8z"/>
      <path class="st11" d="M96.8,228.6c-1.6,0-2.9,1.1-2.9,2.5v14.5c0,1.4,1.3,2.5,2.9,2.5s2.9-1.1,2.9-2.5v-14.5 C99.7,229.7,98.4,228.6,96.8,228.6z"/>
      <path class="st11" d="M111.6,234.6c-1.6,0-2.9,1.1-2.9,2.5v14.5c0,1.4,1.3,2.5,2.9,2.5s2.9-1.1,2.9-2.5v-14.5 C114.5,235.7,113.2,234.6,111.6,234.6z"/>
    </g>
  </g>
  <g id="Layer_3" style="" transform="matrix(1.707947, 0, 0, 1.707947, -188.356216, -108.531296)">
    <path class="st6" d="M272.4,203.4l1.9,1.2v-98.9c0-5.8-4.7-10.5-10.5-10.5h-9.3v104.7h5.5C264.4,199.9,268.7,201.1,272.4,203.4z"/>
    <path class="st6" d="M125.2,282.4h74c-3.1-4-5-9-5-14.4v-2.2h-59.8V95.2h-9.3c-5.8,0-10.5,4.7-10.5,10.5v166.2 C114.7,277.7,119.4,282.4,125.2,282.4z"/>
    <path class="st6" d="M153,118.2h83c4.9,0,8.9-4,8.9-8.9V94.6c0-13.8-14.9-3.7-22.4-16.7c-8.5-14.8-47.3-14.8-55.8,0 c-7.5,12.9-22.4,3-22.4,16.7v14.7C144.2,114.2,148.2,118.2,153,118.2z M194.5,73.4c5.6,0,10.1,4.5,10.1,10.1s-4.5,10.1-10.1,10.1 s-10.1-4.5-10.1-10.1C184.5,78,189,73.4,194.5,73.4z"/>
    <rect x="156.9" y="140.2" class="st6" width="75.3" height="4.8"/>
    <rect x="156.9" y="161.6" class="st6" width="75.3" height="4.8"/>
    <rect x="156.9" y="183" class="st6" width="75.3" height="4.8"/>
    <path class="st6" d="M203.9,204.4h-47v4.8H199C200.4,207.4,202,205.7,203.9,204.4z"/>
    <rect x="156.9" y="225.8" class="st6" width="37.4" height="4.8"/>
    <polygon class="st6" points="242.5,247.2 227.9,232.6 218.2,242.3 242.5,266.7 281.5,227.6 271.8,217.9 &#9;"/>
    <path class="st6" d="M203.3,268c0,7.9,6.5,14.4,14.4,14.4h42.4c7.9,0,14.4-6.5,14.4-14.4v-22.3l-9,9V268c0,3-2.4,5.4-5.4,5.4h-42.4 c-3,0-5.4-2.4-5.4-5.4v-44.7c0-3,2.4-5.4,5.4-5.4h42.4c0.2,0,0.4,0,0.7,0l6.9-6.9c-2.2-1.4-4.8-2.2-7.6-2.2h-42.4 c-7.9,0-14.4,6.5-14.4,14.4L203.3,268L203.3,268z"/>
  </g>
  <g id="Layer_3_copy" class="st4" style="" transform="matrix(1.707947, 0, 0, 1.707947, -188.356216, -108.531296)">
    <path class="st12" d="M282.8,209.6l2.1,1.3V101.5c0-6.4-5.2-11.7-11.7-11.7H263v115.9h6.1C273.9,205.7,278.7,207.1,282.8,209.6z"/>
    <path class="st12" d="M119.9,297.1h81.9c-3.4-4.4-5.5-9.9-5.5-15.9v-2.4h-66.1v-189H120c-6.4,0-11.7,5.2-11.7,11.7v183.9 C108.3,291.9,113.5,297.1,119.9,297.1z"/>
    <rect x="148.3" y="127.7" class="st12" width="103.7" height="6.2"/>
    <rect x="148.3" y="155.2" class="st12" width="103.7" height="6.2"/>
    <rect x="148.3" y="182.7" class="st12" width="103.7" height="6.2"/>
    <path class="st12" d="M213.1,210.3h-64.7v6.2h58C208.2,214.1,210.5,212,213.1,210.3z"/>
    <rect x="148.3" y="237.8" class="st12" width="51.5" height="6.2"/>
    <polygon class="st12" points="249.7,258.1 233.5,241.9 222.7,252.7 249.7,279.6 292.9,236.4 282.1,225.7 &#9;"/>
    <path class="st12" d="M206.3,281.1c0,8.8,7.1,15.9,15.9,15.9h46.9c8.8,0,15.9-7.2,15.9-15.9v-24.7l-10,10v14.7c0,3.3-2.7,5.9-6,5.9 h-46.9c-3.3,0-5.9-2.7-5.9-5.9v-49.5c0-3.3,2.7-5.9,5.9-5.9H269c0.2,0,0.5,0,0.7,0l7.7-7.7c-2.4-1.5-5.3-2.4-8.4-2.4h-46.9 c-8.8,0-15.9,7.2-15.9,15.9L206.3,281.1L206.3,281.1z"/>
    <rect x="123.4" y="89.8" class="st13" width="146.3" height="28.9"/>
  </g>
  <g id="Layer_7" class="st4" style="" transform="matrix(1.707947, 0, 0, 1.707947, -188.356216, -108.531296)">
    <rect x="116.4" y="114.1" class="st12" width="115.6" height="12.7"/>
    <rect x="101.5" y="90.7" class="st14" width="153.3" height="189.2"/>
    <circle class="st15" cx="232" cy="244.8" r="46.7"/>
    <polygon class="st12" points="223.9,250.3 207.7,234.1 196.9,244.9 223.9,271.8 267.1,228.6 256.3,217.9 &#9;"/>
    <rect x="116.4" y="147.1" class="st12" width="79.6" height="12.7"/>
  </g>
  <g id="Layer_1_00000147928192205372788300000015238636102623182765_" class="st4" style="" transform="matrix(1.707947, 0, 0, 1.707947, -188.356216, -108.531296)">
    <g class="st5">
      <g>
        <g>
          <path class="st16" d="M153.5,196.6H134c-7,0-12.7-5.7-12.7-12.7v-8.4h10.3v8.4c0,1.3,1.1,2.4,2.4,2.4h19.5 c1.3,0,2.4-1.1,2.4-2.4v-7.5h10.3v7.5C166.2,190.9,160.5,196.6,153.5,196.6z"/>
        </g>
      </g>
      <g>
        <path class="st16" d="M258.1,277.5H121.8c-6.6,0-11.9-5.4-11.9-11.9v-8.2h10.3v8.2c0,0.9,0.7,1.6,1.7,1.6h136.3 c0.9,0,1.6-0.7,1.6-1.6v-8.2h10.3v8.2C270.1,272.1,264.7,277.5,258.1,277.5z"/>
      </g>
      <g>
        <path class="st16" d="M263.5,260.3h-147c-8.8,0-16-7.2-16-16v-12.6c0-8.8,7.2-16,16-16h90.1c0.1,0,0.3-0.1,0.3-0.2 c3.1-8.1,8.5-29.2-6.4-50.3l-19.8-0.1v5.3c0,6.9-5.6,12.5-12.5,12.5h-47.5c-6.9,0-12.5-5.6-12.5-12.5v-35.8 c0-15,12.2-27.2,27.2-27.2h99.3c16.3,0,30.4,11.5,35,28.5c6.8,24.8,10.3,63.2,9.9,108.3C279.5,253.1,272.3,260.3,263.5,260.3z M116.4,226c-3.2,0-5.7,2.6-5.7,5.7v12.6c0,3.2,2.6,5.7,5.7,5.7h147c3.2,0,5.8-2.6,5.8-5.8c0.4-43.5-3.1-81.9-9.5-105.5 c-3.4-12.5-13.5-21-25.1-21h-99.3c-9.3,0-16.9,7.6-16.9,17v35.8c0,1.2,1,2.2,2.2,2.2h47.5c1.2,0,2.2-1,2.2-2.2v-6.7 c0-4.9,4-8.9,8.9-8.9h20.9c3.4,0,6.7,1.6,8.6,4.4c17.7,25.1,11.2,50.2,7.6,59.8c-1.5,4.1-5.5,6.9-9.9,6.9H116.4L116.4,226z"/>
      </g>
      <g>
        <rect x="138.6" y="192.5" class="st16" width="10.3" height="17.9"/>
      </g>
    </g>
    <g class="st5">
      <g>
        <path class="st16" d="M153,233.4c-10.2,0-18.5-8.3-18.5-18.5s8.3-18.5,18.5-18.5s18.5,8.3,18.5,18.5 C171.6,225.1,163.2,233.4,153,233.4z M153,201.2c-7.6,0-13.7,6.1-13.7,13.7c0,7.6,6.1,13.7,13.7,13.7s13.7-6.1,13.7-13.7 S160.6,201.2,153,201.2z"/>
      </g>
      <g>
        <path class="st16" d="M262.6,233.4c-10.2,0-18.5-8.3-18.5-18.5s8.3-18.5,18.5-18.5c10.2,0,18.5,8.3,18.5,18.5 C281.1,225.1,272.8,233.4,262.6,233.4z M262.6,201.2c-7.6,0-13.7,6.1-13.7,13.7c0,7.6,6.1,13.7,13.7,13.7 c7.5,0,13.7-6.1,13.7-13.7C276.3,207.3,270.2,201.2,262.6,201.2z"/>
      </g>
      <g>
        <ellipse class="st16" cx="262.6" cy="214.9" rx="6.5" ry="6.5"/>
      </g>
      <g>
        <ellipse class="st16" cx="153" cy="214.9" rx="6.5" ry="6.5"/>
      </g>
      <g>
        <path class="st16" d="M288.4,214.1c-1.3,0-2.4-1.1-2.4-2.4c0-1.3,1.1-2.4,2.4-2.4c2.2,0,4-1.8,4-4v-32.6c0-1.3-0.5-2.6-1.3-3.6 l-24.8-30.3c-1.1-1.3-2.7-2.1-4.4-2.1h-26v72.5h0.8c1.3,0,2.4,1.1,2.4,2.4c0,1.3-1.1,2.4-2.4,2.4h-3.2c-1.3,0-2.4-1.1-2.4-2.4 v-77.3c0-1.3,1.1-2.4,2.4-2.4H262c3.1,0,6.1,1.4,8.1,3.8l24.8,30.3c1.5,1.9,2.4,4.2,2.4,6.6v32.6 C297.2,210.1,293.3,214.1,288.4,214.1z"/>
      </g>
      <g>
        <path class="st16" d="M280.8,175.4h-34.3c-1.3,0-2.4-1.1-2.4-2.4v-25.8c0-1.3,1.1-2.4,2.4-2.4h13.2c0.7,0,1.4,0.3,1.9,0.9 l21.1,25.8c0.6,0.7,0.7,1.7,0.3,2.6C282.6,174.9,281.8,175.4,280.8,175.4z M248.9,170.6h26.8l-17.2-20.9h-9.6L248.9,170.6 L248.9,170.6z"/>
      </g>
      <g>
        <path class="st16" d="M294.8,201.2h-12.9c-1.3,0-2.4-1.1-2.4-2.4v-12.9c0-1.3,1.1-2.4,2.4-2.4h12.9c1.3,0,2.4,1.1,2.4,2.4 c0,1.3-1.1,2.4-2.4,2.4h-10.5v8.1h10.5c1.3,0,2.4,1.1,2.4,2.4S296.2,201.2,294.8,201.2z"/>
      </g>
      <g>
        <path class="st16" d="M233.6,214.1H182c-1.3,0-2.4-1.1-2.4-2.4c0-1.3,1.1-2.4,2.4-2.4h51.6c1.3,0,2.4,1.1,2.4,2.4 S234.9,214.1,233.6,214.1z"/>
      </g>
      <g>
        <path class="st16" d="M124,214.1h-6.4c-1.3,0-2.4-1.1-2.4-2.4V173c0-1.3,1.1-2.4,2.4-2.4s2.4,1.1,2.4,2.4v36.3h4 c1.3,0,2.4,1.1,2.4,2.4C126.4,213,125.3,214.1,124,214.1z"/>
      </g>
      <g>
        <path class="st16" d="M233.6,136.7c-1.3,0-2.4-1.1-2.4-2.4v-10.5H120v7.2c0,1.3-1.1,2.4-2.4,2.4s-2.4-1.1-2.4-2.4v-9.7 c0-1.3,1.1-2.4,2.4-2.4h116c1.3,0,2.4,1.1,2.4,2.4v12.9C236,135.6,234.9,136.7,233.6,136.7z"/>
      </g>
      <g>
        <path class="st16" d="M175.6,191.5c-0.6,0-1.2-0.2-1.7-0.7l-22.6-22.6c-0.9-0.9-0.9-2.5,0-3.4l9.7-9.7c0.9-0.9,2.5-0.9,3.4,0 l11.2,11.2l24.1-24.1c0.9-0.9,2.5-0.9,3.4,0l9.7,9.7c0.9,0.9,0.9,2.5,0,3.4l-35.5,35.5C176.8,191.3,176.2,191.5,175.6,191.5z M156.4,166.5l19.1,19.1l32-32l-6.2-6.2l-24.1,24.1c-0.9,0.9-2.5,0.9-3.4,0l-11.2-11.2L156.4,166.5z"/>
      </g>
      <g>
        <path class="st16" d="M140.1,162.5h-38.7c-1.3,0-2.4-1.1-2.4-2.4c0-1.3,1.1-2.4,2.4-2.4h38.7c1.3,0,2.4,1.1,2.4,2.4 S141.4,162.5,140.1,162.5z"/>
      </g>
      <g>
        <path class="st16" d="M149.8,146.4h-38.7c-1.3,0-2.4-1.1-2.4-2.4s1.1-2.4,2.4-2.4h38.7c1.3,0,2.4,1.1,2.4,2.4 S151.1,146.4,149.8,146.4z"/>
      </g>
    </g>
    <g class="st5">
      <path class="st11" d="M268.8,186.4c-8.5,0-15.5,6.1-15.5,13.6s6.9,13.6,15.5,13.6c8.5,0,15.5-6.1,15.5-13.6 C284.2,192.5,277.3,186.4,268.8,186.4z M268.8,209c-5.7,0-10.3-4.1-10.3-9c0-5,4.6-9.1,10.3-9.1c5.7,0,10.3,4.1,10.3,9.1 C279.1,204.9,274.5,209,268.8,209z M314.6,120c-0.3-4.7-1.7-8.3-4.5-10.8c-4.8-4.5-11.9-4.5-16.6-4.5l-10.6-0.1v-7.1 c0-1.2-1.1-2.3-2.6-2.3c-1.4,0-2.6,1-2.6,2.3v7.1l-24.1-0.2c-1.8,0-3.7,0-5.6-0.1c0.6-0.7,0.9-1.6,0.9-2.6c0-2.5-2.3-4.5-5.1-4.5 h-35.4c-2.9,0-5.1,2-5.1,4.5c0,0.8,0.2,1.5,0.7,2.2c-22-0.2-43.5-0.4-58.2-0.5v-5.6c0-1.8-1.6-3.2-3.6-3.2s-3.6,1.4-3.6,3.2v5.6 c-2,0-3.8,0-5.3,0c-30.9,0-45.9,9.6-45.9,29.4c0,35.5,7.8,51.4,8.2,52.1c0.8,1.6,2.7,2.7,4.7,2.7h29.4v13.6H89.9 c-1.5,0-3.7,0.4-5.8,2.4c-5.5,5.1-8.9,19.7-8.6,25.4c0.3,6.3,2.5,38.1,2.6,39.4c0.2,2.4,2.4,4.3,5.1,4.3H311c2.8,0,5.1-2,5.1-4.5 c0-27.8-1.7-47.1-3-62.5c-0.9-10.1-1.6-18.8-1.6-27c0-5.2,0.6-15.2,0.7-15.2c3.2,0.1,5.9-1.8,6-4.3l1.9-34.1 C320.2,122.2,317.8,120.1,314.6,120z M91.2,210H108c-0.3,0.5-0.4,1.1-0.4,1.7c0,2.2,2.1,4.1,4.6,4.1h44.7c2.6,0,4.6-1.8,4.6-4.1 c0-0.6-0.1-1.1-0.4-1.7h45.8c3.2,0,11.3,0,16.1-4.9c-0.1,1.6-0.5,8.4-0.5,9.9c0,4.7-1.1,6.2-2.2,7c-2.1,1.6-6.5,2.3-13.3,2.3 L86.2,224C87,218.7,89.4,212.1,91.2,210z M134.8,200.9v-13.6h14.4c2.2,0,4.1-1.2,4.9-3l7.7-19.5c1.5-3.9,3.3-4.2,5.4-4.2h37.1 c3.2,0,5.7,1,7.5,5.9c1.6,4.4,5.4,25.8,4.5,30.4c-0.4,1.8-0.8,4-9.4,4L134.8,200.9L134.8,200.9z M88.1,263.4 c-0.5-7.3-1.5-22.1-2-30.3l121,0.3c9.7,0,15.8-1.4,20-4.5c5.1-3.9,5.8-9.4,5.8-13.9c0-1.2,0.1-2.9,0.2-4.9 c0.6-9.3,0.6-18.9-1.3-28c-1.7-8.3-6.1-18.6-12.7-24.9c-3.4-3.3-7.1-5.5-14.8-5.5s-37.1,0-37.1,0c-7.4,0-12.5,3.5-15.2,10.3 l-6.5,16.4h-41.7c-2-5.6-6.2-20.3-6.2-45.7c0-10.6,4.3-20.3,35.6-20.3c19.8,0,80.2,0.6,120.3,1l40,0.4c3.9,0,7.5,0.1,9.1,1.7 c1.4,1.3,2,4.1,1.7,8c0,0-3.1,38.3-3.1,55c0,8.5,0.8,17.4,1.7,27.7c1.2,14.5,2.8,32.3,3,57.3L88.1,263.4L88.1,263.4z M268.8,161.6 c10.5,0,19.1-7.5,19.1-16.7s-8.5-16.7-19.1-16.7s-19.1,7.5-19.1,16.7C249.7,154.1,258.3,161.6,268.8,161.6z M268.8,135.4 c6,0,10.8,4.3,10.8,9.5s-4.9,9.5-10.8,9.5s-10.8-4.3-10.8-9.5C258,139.6,262.8,135.4,268.8,135.4z M268.8,175.8 c-15.2,0-27.5,10.8-27.5,24.1s12.3,24.1,27.5,24.1c15.2,0,27.5-10.8,27.5-24.1S283.9,175.8,268.8,175.8z M268.8,216.9 c-10.6,0-19.2-7.6-19.2-16.9c0-9.3,8.6-16.9,19.2-16.9S288,190.7,288,200S279.4,216.9,268.8,216.9z"/>
    </g>
  </g>
</svg>