<svg width="53" height="54" viewBox="0 0 53 54" fill="none" xmlns="http://www.w3.org/2000/svg">
<path fill-rule="evenodd" clip-rule="evenodd" d="M40.134 0.999255C38.8088 -0.332075 36.6553 -0.334703 35.3291 1.00108L4.44939 32.1038L3.48453 33.0757C3.1927 33.3696 2.99792 33.7459 2.92641 34.1539L0.0304637 50.6764C-0.0837318 51.3279 0.12715 51.9942 0.595429 52.4614C1.06371 52.9285 1.73047 53.1378 2.38173 53.0221L18.7871 50.1066C19.1982 50.0335 19.5768 49.8353 19.8709 49.539L20.8358 48.5672L51.7155 17.4644C53.0327 16.1377 53.0327 13.9911 51.7155 12.6644L40.1358 1.00108L40.134 0.999255ZM48.3855 15.0644L37.7325 4.33442L30.1906 11.9307L40.8437 22.6608L48.3855 15.0644ZM38.7299 24.7897L28.0769 14.0597L7.32634 34.9601L6.80975 35.4805L4.5236 48.5239L17.4461 46.2274L17.9589 45.7109L38.7299 24.7897Z" fill="#8C8C8C"/>
</svg>
