<svg width="181" height="162" viewBox="0 0 181 162" fill="none" xmlns="http://www.w3.org/2000/svg">
<g clip-path="url(#clip0)">
<path d="M99.4737 68.0208C102.425 70.7337 102.028 73.7364 99.8225 76.002C101.117 77.2823 101.848 78.8241 101.477 80.6754C101.152 82.2807 100.228 83.5359 98.6698 84.1082C97.8606 84.406 97.721 84.8281 97.7302 85.5844C97.7666 88.5547 97.7759 91.5263 97.7157 94.4959C97.7051 95.0173 97.4444 95.6612 97.0791 96.0304C91.7301 101.436 86.3586 106.82 80.9646 112.181C79.7491 113.397 79.6002 113.392 78.384 112.175C73.0085 106.794 67.639 101.409 62.2754 96.0198C61.9115 95.6519 61.6614 95.0048 61.6508 94.4814C61.5925 91.4721 61.6408 88.4601 61.6005 85.4514C61.5952 85.0624 61.3927 84.4702 61.1029 84.3226C57.3485 82.4104 56.7107 79.2277 59.5533 75.9821C58.4416 74.8745 57.7356 73.5855 57.7985 71.9227C57.8607 70.2778 58.7321 69.1278 59.9245 68.0678C51.7858 61.0222 47.7164 52.1874 48.3834 41.4424C48.9128 32.9643 52.5348 25.8479 58.8598 20.1747C71.6501 8.70248 91.3152 9.78631 102.948 22.5832C114.629 35.437 113.917 55.9312 99.4737 68.0208ZM86.3328 67.4101C89.8688 67.4101 93.2665 67.4246 96.6636 67.3876C97.009 67.3836 97.3987 67.1229 97.6872 66.8854C106.508 59.6016 110.36 50.3129 108.709 38.936C106.361 22.7572 90.1679 11.4908 74.1387 14.6894C59.0087 17.7119 48.8724 31.6886 50.3916 46.3699C51.2518 54.7071 54.9757 61.4794 61.4953 66.7107C61.9962 67.1123 62.7525 67.3604 63.4022 67.3836C65.6566 67.4643 67.9156 67.4154 70.1726 67.4154H73.0297C73.0297 62.8921 73.0469 58.5402 72.9993 54.189C72.9946 53.8059 72.6413 53.3381 72.3197 53.0642C70.3347 51.3617 68.3291 49.6896 66.3103 48.0314C63.79 45.9577 62.198 43.3454 61.7348 40.1078C61.1995 36.3971 62.3237 33.2601 65.3562 31.0077C68.2014 28.8943 71.2676 28.8242 74.398 30.4823C74.6746 30.6286 75.1603 30.6458 75.4283 30.5009C78.2689 28.9651 81.081 28.9678 83.9243 30.4916C84.1969 30.6372 84.6898 30.6425 84.9538 30.4916C90.3485 27.4208 96.4088 30.9019 97.5112 36.4467C98.3972 40.9032 96.8184 44.6337 93.4955 47.6159C91.4052 49.4918 89.1807 51.2194 87.0547 53.0569C86.7126 53.3527 86.3698 53.8747 86.3652 54.2969C86.3136 58.6097 86.3328 62.9259 86.3328 67.412V67.4101ZM76.5723 32.124L77.1513 32.9352C79.5949 36.3455 79.2535 40.8906 76.3275 43.9052C75.1934 45.0744 74.6965 45.0856 73.5802 43.9674C72.1454 42.5271 71.2706 40.6227 71.113 38.5958C70.9554 36.5689 71.5251 34.5522 72.72 32.9074C72.8993 32.6599 73.0595 32.3992 73.2328 32.1392C69.3117 30.0622 64.6661 32.292 63.7708 36.7518C62.9649 40.7443 64.5271 43.9502 67.5457 46.5162C69.6273 48.2855 71.7242 50.039 73.8548 51.7488C74.6283 52.3694 74.9724 53.0284 74.9552 54.0574C74.889 58.0565 74.9247 62.0584 74.9228 66.0589V67.3326H84.4344C84.4344 62.7783 84.4529 58.3073 84.4179 53.8344C84.4113 53.0013 84.6746 52.4356 85.3164 51.9155C87.4689 50.1693 89.6174 48.4145 91.6957 46.581C92.6353 45.7519 93.5378 44.8183 94.2273 43.7795C96.3738 40.5432 96.3539 36.7339 94.3186 33.9866C92.6254 31.7031 89.1575 30.2296 86.1277 32.2246C86.3169 32.4747 86.5108 32.7188 86.6914 32.9729C89.1734 36.4666 88.6612 41.3921 85.5407 44.1831C84.9234 44.7356 84.3431 45.0863 83.5822 44.4021C81.7956 42.7975 80.7654 40.8502 80.6231 38.4205C80.4848 36.0484 81.2789 34.0151 82.7862 32.1511C80.6807 31.0071 78.6771 31.0732 76.5723 32.124ZM63.5412 93.1494C64.6786 92.3938 65.7194 91.8195 66.6193 91.0757C67.7442 90.1494 68.7036 90.105 69.8616 91.0367C70.9355 91.9022 72.1715 92.5625 73.297 93.3678C73.7926 93.7224 74.1446 93.7377 74.6501 93.377C75.9073 92.4825 77.2499 91.7076 78.4826 90.7833C79.3653 90.1216 80.0706 90.1811 80.9268 90.813C82.1675 91.7281 83.4617 92.5764 84.7831 93.3704C85.0848 93.5524 85.6804 93.5504 85.9854 93.3704C87.2095 92.6459 88.4429 91.9041 89.5386 91.0049C90.6727 90.0746 91.5898 90.1785 92.6776 91.044C93.6179 91.793 94.6799 92.3898 95.7703 93.1091V84.6164H63.5412V93.1494ZM64.2088 95.0683C64.2829 95.2205 64.3107 95.3469 64.3875 95.4236C66.9541 98.0042 69.5129 100.592 72.1172 103.133C72.4031 103.412 72.9589 103.521 73.3916 103.525C76.8721 103.558 80.3618 103.402 83.8316 103.601C86.0469 103.728 87.7078 103.161 89.0397 101.399C89.6061 100.648 90.3631 100.041 91.0367 99.3712C92.4302 97.9817 93.825 96.5981 95.2774 95.1543C94.0202 94.3153 92.8801 93.6073 91.8042 92.8087C91.255 92.4011 90.8779 92.4553 90.3485 92.8285C89.0596 93.743 87.7018 94.5615 86.4201 95.4838C85.7048 95.998 85.1166 96.0297 84.3881 95.5096C83.07 94.5681 81.6798 93.7284 80.3585 92.7928C79.8536 92.4355 79.5029 92.4461 79.004 92.8001C77.7799 93.6682 76.4658 94.4146 75.2682 95.3144C74.3736 95.9887 73.653 96.0529 72.7306 95.3528C71.5052 94.4265 70.1937 93.6027 68.879 92.7994C68.5911 92.6241 68.0406 92.5612 67.774 92.7207C66.5578 93.4459 65.3979 94.2703 64.2088 95.065V95.0683ZM79.626 82.6287C85.1695 82.6287 90.7129 82.6287 96.256 82.6287C98.2794 82.6287 99.6464 81.4635 99.6458 79.7722C99.6458 78.0929 98.2635 76.9211 96.2527 76.9184C92.3708 76.9131 88.4903 76.9131 84.6111 76.9184C77.4446 76.9184 70.278 76.9153 63.1111 76.9091C61.8308 76.9091 60.7595 77.2585 60.1058 78.4251C58.9882 80.4187 60.4194 82.6122 62.8769 82.6221C68.4608 82.6439 74.0421 82.6274 79.6266 82.6281L79.626 82.6287ZM79.6405 75.0194C85.0246 75.0194 90.4087 75.0253 95.7922 75.0101C96.3822 75.0156 96.9704 74.9449 97.5423 74.7997C98.8121 74.457 99.6597 73.3149 99.6306 72.1113C99.5981 70.8654 98.7704 69.7134 97.4391 69.538C95.8054 69.323 94.1373 69.323 92.4838 69.3197C82.7451 69.3007 73.0065 69.297 63.2679 69.3084C61.9942 69.3084 60.8243 69.5638 60.1421 70.8118C59.0173 72.863 60.4684 75.0048 63.0138 75.0121C68.5567 75.03 74.099 75.0194 79.6412 75.022L79.6405 75.0194ZM84.9035 105.538H74.8612L79.8457 110.523C79.9568 110.419 80.1626 110.238 80.3571 110.045C81.8188 108.598 83.2778 107.149 84.9035 105.538ZM74.9274 33.5638C72.4474 35.9776 72.4752 40.1323 74.9274 42.2483C77.3849 40.1356 77.4166 36.0173 74.9274 33.5638ZM84.4245 33.5638C81.9531 36.0193 81.9908 40.174 84.4443 42.2483C86.8952 40.0979 86.9144 35.9697 84.4245 33.5638Z" fill="black"/>
<path d="M49.7583 20.2902L48.6751 21.1504L43.1633 15.5923L44.2842 14.7017L49.7583 20.2902Z" fill="black"/>
<path d="M115.318 14.5938L116.383 15.6352L110.699 21.3098L109.715 20.2253L115.318 14.5938Z" fill="black"/>
<path d="M109.491 66.9874L110.603 65.9492L116.232 71.6681L115.089 72.5984L109.491 66.9874Z" fill="black"/>
<path d="M44.0104 72.692L42.9702 71.6399L48.6792 65.9429L49.5361 67.1273L44.0104 72.692Z" fill="black"/>
<path d="M125.256 44.5443H117.797V42.7578H125.256V44.5443Z" fill="black"/>
<path d="M78.7864 7.43398V0H80.5564V7.43398H78.7864Z" fill="black"/>
<path d="M34.0984 44.5311V42.769H41.5701V44.5311H34.0984Z" fill="black"/>
<path d="M63.7906 161.269C63.4528 161.269 63.1279 161.139 62.8824 160.907C62.637 160.675 62.4896 160.358 62.4705 160.02C62.4514 159.683 62.562 159.351 62.7796 159.093C62.9972 158.834 63.3055 158.669 63.6411 158.631C102.94 154.117 132.533 150.119 151.595 146.748C160.452 145.182 167.253 143.714 171.809 142.386C173.949 141.762 175.623 141.16 176.784 140.599C177.645 140.184 178.05 139.871 178.236 139.693C177.979 139.492 177.342 139.109 175.83 138.645C174.187 138.14 171.872 137.652 168.949 137.189C163.5 136.329 155.98 135.568 145.966 134.853C127.391 133.53 103.505 132.618 80.4054 131.738C59.7081 130.95 40.158 130.206 25.4859 129.213C17.5934 128.679 11.7997 128.119 7.77342 127.501C5.51643 127.155 3.84304 126.796 2.65797 126.403C1.946 126.169 0.0496245 125.541 -1.49384e-06 123.98C-0.0522742 122.294 2.00158 121.368 5.10089 120.497C8.09301 119.656 12.5388 118.771 18.6925 117.792C31.6224 115.735 51.3643 113.379 79.0463 110.591C79.2212 110.57 79.3986 110.584 79.5682 110.632C79.7377 110.68 79.8959 110.761 80.0336 110.871C80.1712 110.981 80.2855 111.118 80.3697 111.272C80.4539 111.427 80.5064 111.597 80.524 111.773C80.5416 111.948 80.5241 112.125 80.4723 112.293C80.4206 112.462 80.3358 112.618 80.2228 112.753C80.1098 112.889 79.9709 113 79.8144 113.081C79.6578 113.162 79.4867 113.21 79.311 113.224C53.6193 115.812 34.1301 118.109 21.3855 120.051C15.3642 120.969 10.6742 121.833 7.45184 122.619C5.31792 123.139 4.09382 123.562 3.39707 123.861C3.70409 123.966 4.10903 124.086 4.63772 124.216C5.9452 124.536 7.74761 124.849 9.9927 125.142C14.2116 125.7 20.0052 126.212 27.7072 126.706C42.108 127.632 60.7601 128.341 80.5093 129.093C104.385 130.002 129.073 130.945 147.929 132.341C158.154 133.1 165.703 133.919 171.005 134.846C173.99 135.367 176.205 135.911 177.776 136.509C179.129 137.025 180.936 137.903 181 139.581C181.06 141.16 179.471 142.12 178.949 142.437C177.856 143.098 176.273 143.755 174.11 144.449C169.809 145.827 163.113 147.347 154.211 148.966C135.155 152.431 104.788 156.566 63.9454 161.258C63.8941 161.264 63.8424 161.268 63.7906 161.269Z" fill="#231F20"/>
</g>
<defs>
<clipPath id="clip0">
<rect width="181" height="161.269" fill="white"/>
</clipPath>
</defs>
</svg>
