<svg version="1.1" id="Layer_1" xmlns="http://www.w3.org/2000/svg" xmlns:xlink="http://www.w3.org/1999/xlink" x="0px" y="0px" viewBox="0 0 85.04 85.04" style="enable-background:new 0 0 85.04 85.04;" xml:space="preserve"><style type="text/css">
	.st0{fill:#717171;}
</style><path class="st0" d="M79.71,41.43c-0.16-0.22-3.98-5.51-10.49-10.86c-3.84-3.15-7.82-5.67-11.82-7.48
	c-4.62-2.09-9.3-3.23-13.92-3.41V9.31c0-0.7-0.57-1.26-1.26-1.26c-0.7,0-1.26,0.57-1.26,1.26v10.38c-4.62,0.18-9.29,1.32-13.92,3.41
	c-4.01,1.81-7.99,4.32-11.82,7.48C8.69,35.92,4.87,41.21,4.71,41.43L4.24,42.1l0.41,0.71c0.13,0.22,3.28,5.55,9.47,10.94
	c3.64,3.17,7.59,5.69,11.73,7.51c4.8,2.1,9.87,3.25,15.09,3.41v10.37c0,0.7,0.57,1.26,1.26,1.26c0.7,0,1.26-0.57,1.26-1.26V64.65
	c5.22-0.16,10.29-1.3,15.09-3.41c4.14-1.81,8.09-4.34,11.73-7.51c6.2-5.39,9.34-10.71,9.47-10.94l0.41-0.71L79.71,41.43z
	 M40.95,43.43v6.5c-3.32-0.54-5.96-3.17-6.5-6.5H40.95z M34.45,40.9c0.54-3.32,3.17-5.96,6.5-6.5v6.5H34.45z M43.48,43.43h6.5
	c-0.54,3.32-3.17,5.96-6.5,6.5V43.43z M43.48,40.9v-6.5c3.32,0.54,5.96,3.17,6.5,6.5H43.48z M40.95,31.85
	c-4.72,0.58-8.47,4.33-9.05,9.05h-2.67c0.29-3.01,1.6-5.79,3.76-7.96c2.16-2.16,4.95-3.47,7.96-3.76V31.85z M31.9,43.43
	c0.58,4.72,4.33,8.47,9.05,9.05v2.67c-3.01-0.29-5.79-1.6-7.96-3.76c-2.16-2.16-3.47-4.95-3.76-7.96H31.9z M43.48,52.48
	c4.72-0.58,8.47-4.33,9.05-9.05h2.67c-0.29,3.01-1.6,5.79-3.76,7.96c-2.16,2.16-4.95,3.47-7.96,3.76V52.48z M52.53,40.9
	c-0.58-4.72-4.33-8.47-9.05-9.05v-2.67c3.01,0.29,5.79,1.6,7.96,3.76c2.16,2.16,3.47,4.95,3.76,7.96H52.53z M26.92,58.95
	c-3.9-1.7-7.62-4.08-11.07-7.06c-4.63-4.01-7.52-8.06-8.57-9.66c1.23-1.58,4.63-5.69,9.59-9.75c3.66-3,7.44-5.39,11.24-7.1
	c4.28-1.93,8.59-2.99,12.84-3.17v4.43c-3.68,0.29-7.1,1.87-9.75,4.51c-2.64,2.64-4.22,6.06-4.51,9.75H13.09
	c-0.7,0-1.26,0.57-1.26,1.26c0,0.7,0.57,1.26,1.26,1.26h13.61c0.29,3.68,1.87,7.1,4.51,9.75c2.64,2.64,6.06,4.22,9.75,4.51v4.44
	C36.1,61.96,31.38,60.9,26.92,58.95z M68.57,51.89c-3.45,2.99-7.17,5.36-11.07,7.06c-4.47,1.95-9.18,3.01-14.03,3.17v-4.44
	c3.68-0.29,7.1-1.87,9.75-4.51c2.64-2.64,4.22-6.06,4.51-9.75h13.61c0.7,0,1.26-0.57,1.26-1.26c0-0.7-0.57-1.26-1.26-1.26H57.73
	c-0.29-3.68-1.87-7.1-4.51-9.75c-2.64-2.64-6.06-4.22-9.75-4.51v-4.43c4.25,0.18,8.56,1.24,12.84,3.17c3.8,1.71,7.58,4.1,11.24,7.1
	c4.95,4.06,8.35,8.17,9.59,9.75C76.09,43.83,73.2,47.88,68.57,51.89z"></path></svg>