<?xml version="1.0" encoding="UTF-8"?>
<svg width="28px" height="28px" viewBox="0 0 28 28" version="1.1" xmlns="http://www.w3.org/2000/svg" xmlns:xlink="http://www.w3.org/1999/xlink">
    <!-- Generator: Sketch 48.2 (47327) - http://www.bohemiancoding.com/sketch -->
    <title>symbol_white copy</title>
    <desc>Created with Sketch.</desc>
    <defs></defs>
    <g id="Design-Tools/Menu/Symbol" stroke="none" stroke-width="1" fill="none" fill-rule="evenodd" transform="translate(-28.000000, -18.000000)">
        <path d="M52.7543383,43.8680868 L49.6288443,39.3355981 L46.5033502,43.8680868 L52.7543383,43.8680868 Z M54.0706847,42.8188464 L54.0706847,19.7267173 L29.9293153,19.7267173 L29.9293153,43.3152848 L36.4776535,32.2363832 C36.6532666,31.9392696 36.9833924,31.789978 37.3053384,31.8303238 C37.6272845,31.789978 37.9574102,31.9392696 38.1330234,32.2363832 L44.7626572,43.4528258 C44.7816248,43.4130749 44.8039749,43.3743024 44.8297767,43.3368855 L48.8762468,37.4688275 C49.0514756,37.2147165 49.3417377,37.0871837 49.6288443,37.1079439 C49.9159508,37.0871837 50.2062129,37.2147165 50.3814417,37.4688275 L54.0706847,42.8188464 Z M43.05738,43.8680868 L37.3053384,34.1364114 L31.5532968,43.8680868 L43.05738,43.8680868 Z M55.75,44.0929662 C55.75,44.8960539 55.0986518,45.5474021 54.2955642,45.5474021 L29.7044358,45.5474021 C28.9013482,45.5474021 28.25,44.8960539 28.25,44.0929662 L28.25,19.5018379 C28.25,18.6987502 28.9013482,18.0474021 29.7044358,18.0474021 L54.2955642,18.0474021 C55.0986518,18.0474021 55.75,18.6987502 55.75,19.5018379 L55.75,44.0929662 Z M51.0553077,27.9689937 C51.0553077,30.3772673 49.1030888,32.3294862 46.6948153,32.3294862 C44.2864697,32.3294862 42.3337081,30.3771954 42.3337081,27.9689937 C42.3337081,25.5607921 44.2864697,23.6085013 46.6948153,23.6085013 C49.1030888,23.6085013 51.0553077,25.5607202 51.0553077,27.9689937 Z M49.3759924,27.9689937 C49.3759924,26.4881804 48.1756286,25.2878166 46.6948153,25.2878166 C45.2138393,25.2878166 44.0130233,26.488343 44.0130233,27.9689937 C44.0130233,29.4496445 45.2138393,30.6501709 46.6948153,30.6501709 C48.1756286,30.6501709 49.3759924,29.4498071 49.3759924,27.9689937 Z" id="symbol_white-copy" fill="#8C8C8C" fill-rule="nonzero"></path>
    </g>
</svg>