<?xml version="1.0" encoding="UTF-8"?>
<svg width="14px" height="14px" viewBox="0 0 14 14" version="1.1" xmlns="http://www.w3.org/2000/svg" xmlns:xlink="http://www.w3.org/1999/xlink">
    <!-- Generator: Sketch 48.2 (47327) - http://www.bohemiancoding.com/sketch -->
    <title>instagram_hover</title>
    <desc>Created with Sketch.</desc>
    <defs></defs>
    <g id="social/instagram/On-Hover" stroke="none" stroke-width="1" fill="none" fill-rule="evenodd">
        <path d="M10.1647625,0.5 L4.04711545,0.5 C2.14660616,0.5 0.605938976,2.04066718 0.605938976,3.94117647 L0.605938976,10.0588235 C0.605938976,11.9593328 2.14660616,13.5 4.04711545,13.5 L10.1647625,13.5 C11.0774193,13.5 11.952696,13.1374485 12.5980417,12.4921027 C13.2433875,11.846757 13.605939,10.9714803 13.605939,10.0588235 L13.605939,3.94117647 C13.605939,2.04066718 12.0652718,0.5 10.1647625,0.5 Z M12.5047048,9.8793418 C12.5047048,11.2707813 11.3767203,12.3987659 9.98528077,12.3987659 L4.22659718,12.3987659 C2.83515769,12.3987659 1.70717311,11.2707813 1.70717311,9.8793418 L1.70717311,4.1206582 C1.70717311,2.72921871 2.83515769,1.60123413 4.22659718,1.60123413 L9.98528077,1.60123413 C11.3767203,1.60123413 12.5047048,2.72921871 12.5047048,4.1206582 L12.5047048,9.8793418 Z M7.10593898,4.02554528 C5.463193,4.02554528 4.13148426,5.35725402 4.13148426,7 C4.13148426,8.64274598 5.463193,9.97445472 7.10593898,9.97445472 C8.74868496,9.97445472 10.0803937,8.64274598 10.0803937,7 C10.0803937,6.21112556 9.76701454,5.45456136 9.20919608,4.8967429 C8.65137761,4.33892443 7.89481342,4.02554528 7.10593898,4.02554528 Z M7.10593898,8.97060255 C6.01760524,8.97060255 5.13533643,8.08833373 5.13533643,7 C5.13533643,5.91166627 6.01760524,5.02939745 7.10593898,5.02939745 C8.19427271,5.02939745 9.07654152,5.91166627 9.07654152,7 C9.07654152,7.52263629 8.86892507,8.02386676 8.4993654,8.39342642 C8.12980574,8.76298609 7.62857527,8.97060255 7.10593898,8.97060255 Z M10.5471154,2.79411765 C10.9694508,2.79411765 11.3118213,3.13648813 11.3118213,3.55882353 C11.3118213,3.98115893 10.9694508,4.32352941 10.5471154,4.32352941 C10.1247801,4.32352941 9.78240956,3.98115893 9.78240956,3.55882353 C9.78240956,3.13648813 10.1247801,2.79411765 10.5471154,2.79411765 Z" id="instagram_hover" fill="#E61737"></path>
    </g>
</svg>