<?xml version="1.0" encoding="UTF-8"?>
<svg width="84px" height="86px" viewBox="0 0 84 86" version="1.1" xmlns="http://www.w3.org/2000/svg" xmlns:xlink="http://www.w3.org/1999/xlink">
    <!-- Generator: Sketch 48.2 (47327) - http://www.bohemiancoding.com/sketch -->
    <title>Jackroologo</title>
    <desc>Created with Sketch.</desc>
    <defs></defs>
    <g id="7.0-Signup-Modal" stroke="none" stroke-width="1" fill="none" fill-rule="evenodd" transform="translate(-470.000000, -113.000000)">
        <g id="Jackroologo" transform="translate(470.000000, 113.861546)">
            <g id="Group">
                <path d="M1.13686797e-13,4.99094675 L1.13686797e-13,0 L83.8664392,0 L83.8664392,38 L83.866326,79.8663651 C83.866326,82.3580586 81.8463553,84.3780292 79.3546618,84.3780292 L4.51155086,84.3780292 C2.01985736,84.3780292 -0.000113258795,82.3580586 -0.000113258795,79.8663651 L-0.000113258795,5.0232541 C-0.000113258795,5.01247612 -7.54640952e-05,5.00170696 1.13667552e-13,4.99094675 Z" id="Combined-Shape" fill="#CD1B22"></path>
                <path d="M64.8744413,43.5591411 C64.8125384,45.7209844 63.1996567,48.3610468 60.0176227,51.5181943 L46.3030163,65.1302594 C43.1295011,68.2693821 40.4608632,69.8611927 38.2942633,69.9225895 C36.1009712,69.9975049 33.5788557,68.5848152 30.706336,65.7267659 L24.1236203,59.1753329 L30.273016,50.2384371 L34.8799516,54.8071477 L49.6315727,40.2037214 L28.8577691,19.6307235 L36.4826108,12.0732843 L60.6457379,36.0281756 C63.5176897,38.8879147 64.9357762,41.4018039 64.8744413,43.5591411 Z M40.8118354,7.77776128 C38.4203406,5.40750679 34.545449,5.40750679 32.1539542,7.77719801 L24.5291124,15.3346373 L24.5285445,15.3357638 C23.3790823,16.4752659 22.7339296,18.0208882 22.7344975,19.6318501 C22.7344975,21.2433753 23.380786,22.7895608 24.5308162,23.9284996 L39.2193986,38.474472 L39.2699432,38.5246034 C39.8906755,39.1498368 40.2819697,39.9147621 40.4449616,40.7168635 C40.726648,42.1008262 40.3279709,43.594064 39.2460907,44.6676631 C38.1619388,45.7429521 36.6524178,46.1372434 35.2542083,45.8550435 C34.7180955,45.746895 34.1978843,45.5401736 33.7248102,45.2314998 C33.705501,45.2191078 33.6873277,45.2050259 33.6685865,45.1915074 C32.5100376,44.4248923 31.1135319,44.0610177 29.7022603,44.1916971 C27.8883362,44.3601158 26.2430833,45.3210603 25.215723,46.8148613 L19.0657594,55.7517572 C17.4085801,58.159751 17.7107115,61.3968832 19.785877,63.4618436 L26.3702965,70.0160929 C30.5501591,74.1730506 34.5193248,76.1276093 38.4691814,75.9935503 C42.3491843,75.883712 46.2127177,73.7984738 50.6276976,69.4302886 C50.6299692,69.4280355 50.6322409,69.4257824 50.6345126,69.4235293 L64.3479831,55.8125907 C68.7731854,51.4224378 70.8852655,47.5837295 70.9954412,43.7309394 C71.1078886,39.8021074 69.1411951,35.880598 64.9749625,31.7332159 L40.8118354,7.77776128 Z" id="Fill-4" fill="#FEFEFE"></path>
            </g>
            <polygon id="Fill-6" fill="#FEFEFE" points="36 56.4234872 39.5701836 60 54 45.5625986 50.4275913 42"></polygon>
        </g>
    </g>
</svg>