<?xml version="1.0" encoding="UTF-8"?>
<svg width="476px" height="136px" viewBox="0 0 476 136" version="1.1" xmlns="http://www.w3.org/2000/svg" xmlns:xlink="http://www.w3.org/1999/xlink">
    <!-- Generator: Sketch 49.3 (51167) - http://www.bohemiancoding.com/sketch -->
    <title>jakroo_logo copy 2</title>
    <desc>Created with Sketch.</desc>
    <defs>
        <rect id="path-1" x="0" y="0" width="468" height="128"></rect>
        <filter x="-1.5%" y="-3.9%" width="103.0%" height="110.9%" filterUnits="objectBoundingBox" id="filter-3">
            <feOffset dx="0" dy="2" in="SourceAlpha" result="shadowOffsetOuter1"></feOffset>
            <feGaussianBlur stdDeviation="2" in="shadowOffsetOuter1" result="shadowBlurOuter1"></feGaussianBlur>
            <feColorMatrix values="0 0 0 0 0.862745098   0 0 0 0 0.862745098   0 0 0 0 0.862745098  0 0 0 1 0" type="matrix" in="shadowBlurOuter1"></feColorMatrix>
        </filter>
        <polygon id="path-4" points="0 0.433346806 70.8491061 0.433346806 70.8491061 71.4729623 0 71.4729623"></polygon>
        <polygon id="path-6" points="0 72 307 72 307 1 0 1"></polygon>
    </defs>
    <g id="Team-Store" stroke="none" stroke-width="1" fill="none" fill-rule="evenodd">
        <g id="6.1-Teamstore-browser" transform="translate(-519.000000, -736.000000)">
            <g id="jakroo_logo-copy-2" transform="translate(523.000000, 738.000000)">
                <mask id="mask-2" fill="white">
                    <use xlink:href="#path-1"></use>
                </mask>
                <g id="Mask">
                    <use fill="black" fill-opacity="1" filter="url(#filter-3)" xlink:href="#path-1"></use>
                    <use fill="#FFFFFF" fill-rule="evenodd" xlink:href="#path-1"></use>
                </g>
                <g id="jakroo_logo" mask="url(#mask-2)">
                    <g transform="translate(80.000000, 28.000000)">
                        <g id="Group-3" stroke="none" stroke-width="1" fill="none" fill-rule="evenodd">
                            <mask id="mask-5" fill="white">
                                <use xlink:href="#path-4"></use>
                            </mask>
                            <g id="Clip-2"></g>
                            <path d="M67.037715,71.4731541 L3.81129544,71.4731541 C1.70634741,71.4731541 -9.56794557e-05,69.7621202 -9.56794557e-05,67.6515092 L-9.56794557e-05,4.25499171 C-9.56794557e-05,2.14438074 1.70634741,0.433346806 3.81129544,0.433346806 L67.037715,0.433346806 C69.142663,0.433346806 70.8491061,2.14438074 70.8491061,4.25499171 L70.8491061,67.6515092 C70.8491061,69.7621202 69.142663,71.4731541 67.037715,71.4731541" id="Fill-1" fill="#CD1B22" mask="url(#mask-5)"></path>
                        </g>
                        <path d="M55.6834774,38.1935495 C55.6297503,40.046558 54.2298907,42.3094687 51.4681253,45.0155951 L39.5648821,56.6830795 C36.8105104,59.3737561 34.4943341,60.7381652 32.6138889,60.790791 C30.7102769,60.8550042 28.521271,59.6441273 26.0281407,57.1943708 L20.3148403,51.5788568 L25.6520516,43.9186604 L29.650524,47.834698 L42.4538178,35.3174755 L24.4237241,17.6834773 L31.0415113,11.2056722 L52.0132819,31.7384363 C54.5059194,34.1896412 55.7367115,36.3444034 55.6834774,38.1935495 Z M34.7989515,7.52379538 C32.7233145,5.49214868 29.360201,5.49214868 27.284564,7.52331258 L20.6667768,14.0011177 L20.6662839,14.0020833 C19.6686374,14.9787994 19.1086936,16.3036184 19.1091865,17.6844429 C19.1091865,19.0657503 19.6701162,20.3910521 20.6682555,21.3672854 L33.4168365,33.8352617 L33.4607054,33.8782315 C33.9994542,34.4141459 34.339068,35.0697961 34.4805327,35.7573115 C34.7250152,36.9435653 34.3789936,38.2234834 33.4400032,39.1437112 C32.4990412,40.0653875 31.1888909,40.4033515 29.9753506,40.1614658 C29.5100451,40.0687671 29.0585411,39.8915774 28.6479485,39.6269998 C28.6311896,39.6163781 28.6154165,39.604308 28.5991505,39.5927206 C27.5936175,38.935622 26.381556,38.6237294 25.1566788,38.7357404 C23.5823296,38.8800993 22.1543741,39.7037659 21.262703,40.9841669 L15.9249987,48.6443633 C14.4866922,50.708358 14.7489194,53.4830428 16.5500065,55.2530088 L22.2647856,60.8709368 C25.8925909,64.4340434 29.3375272,66.1093794 32.7657046,65.9944717 C36.1332543,65.9003245 39.4865097,64.1129775 43.318379,60.3688188 C43.3203507,60.3668875 43.3223223,60.3649563 43.3242939,60.3630251 L55.2265513,48.6965063 C59.067293,44.9335181 60.9004191,41.6431967 60.9960433,38.3408052 C61.0936392,34.973235 59.3866976,31.6119411 55.7707221,28.0570422 L34.7989515,7.52379538 Z" id="Fill-4" stroke="none" fill="#FEFEFE" fill-rule="evenodd"></path>
                        <polygon id="Fill-6" stroke="none" fill="#FEFEFE" fill-rule="evenodd" points="31 48.8208775 34.1734965 52 47 39.1667543 43.8245256 36"></polygon>
                        <path d="M100.859451,43.7752236 L90.1400879,43.7752236 L90.1400879,35.5936511 L83,37.0188653 L83,43.0678844 C83,45.7641062 83.5012369,47.5547232 84.5327881,48.5446149 C85.5504929,49.5234919 87.3302071,50 89.9734704,50 L101.026068,50 C103.669331,50 105.449046,49.5249286 106.465366,48.5460516 C107.49784,47.5547232 108,45.7641062 108,43.0678844 L108,22 L100.859451,22 L100.859451,43.7752236 Z" id="Fill-8" stroke="none" fill="#231F20" fill-rule="evenodd"></path>
                        <path d="M137.011881,38.1126789 L127.156334,38.1126789 L132.170288,29.0398686 L137.011881,38.1126789 Z M135.781632,22 L128.999528,22 L113,50 L120.681671,50 L123.828707,44.1267382 L140.277051,44.1267382 L143.508814,49.9674346 L143.527696,50 L152,50 L135.800998,22.0330443 L135.781632,22 Z" id="Fill-10" stroke="none" fill="#231F20" fill-rule="evenodd"></path>
                        <polygon id="Fill-12" stroke="none" fill="#231F20" fill-rule="evenodd" points="189.640612 22.11781 189.80735 22 178.655193 22 164.511875 32.5775224 164.511875 22 157 22 157 50 164.511875 50 164.511875 38.7841004 179.843079 49.9875485 179.859946 50 192 50 171.107657 35.220586"></polygon>
                        <path d="M218.461465,33.8672071 C218.298229,33.9567619 217.856869,34.1076163 216.72427,34.1076163 L203.305409,34.1076163 L203.305409,27.7597619 L216.72427,27.7597619 C217.93011,27.7597619 218.345141,27.9355192 218.440881,27.9886774 C218.767831,28.1859853 218.932504,28.6308858 218.932504,29.3114064 L218.932504,32.5559717 C218.932504,33.2350557 218.773097,33.6766039 218.461465,33.8672071 Z M219.524653,39.8673782 C222.54045,39.8673782 226.135472,38.8635983 226.135472,34.0784032 L226.135472,27.788975 C226.135472,23.0037799 222.54045,22 219.524653,22 L196,22 L196,50 L203.305409,50 L203.305409,39.8673782 L208.396362,39.8673782 L219.169459,49.9822806 L219.188607,50 L230,50 L217.65438,39.8673782 L219.524653,39.8673782 Z" id="Fill-14" stroke="none" fill="#231F20" fill-rule="evenodd"></path>
                        <mask id="mask-7" fill="white">
                            <use xlink:href="#path-6"></use>
                        </mask>
                        <g id="Clip-17" stroke="none" fill="none"></g>
                        <path d="M240.369111,43.7752236 L259.628032,43.7752236 L259.628032,27.9685635 L240.369111,27.9685635 L240.369111,43.7752236 Z M259.804689,22 L240.195311,22 C237.471178,22 235.636043,22.4765081 234.586102,23.4592163 C233.519019,24.444319 233,26.2358938 233,28.9359468 L233,43.0678844 C233,45.7626695 233.518542,47.5537654 234.583721,48.5446149 C235.633186,49.5234919 237.468797,50 240.195311,50 L259.804689,50 C262.532631,50 264.368243,49.5234919 265.417232,48.5446149 C266.482886,47.5494552 267,45.7588383 267,43.0678844 L267,28.9359468 C267,26.2425984 266.482886,24.4505448 265.418184,23.4601741 C264.365862,22.4779448 262.529774,22 259.804689,22 Z" id="Fill-16" stroke="none" fill="#231F20" fill-rule="evenodd" mask="url(#mask-7)"></path>
                        <path d="M279.368159,43.7752236 L298.628508,43.7752236 L298.628508,27.9685635 L279.368159,27.9685635 L279.368159,43.7752236 Z M304.417708,23.4601741 C303.365386,22.4779448 301.530727,22 298.805641,22 L279.195787,22 C276.46975,22 274.634614,22.4765081 273.584673,23.4592163 C272.518542,24.4457557 272,26.2373305 272,28.9359468 L272,43.0678844 C272,45.7641062 272.51759,47.5542443 273.582292,48.5446149 C274.632233,49.5234919 276.468321,50 279.195787,50 L298.805641,50 C301.532155,50 303.368243,49.5234919 304.417708,48.5446149 C305.48241,47.5494552 306,45.7588383 306,43.0678844 L306,28.9359468 C306,26.2411617 305.48241,24.4505448 304.417708,23.4601741 Z" id="Fill-18" stroke="none" fill="#231F20" fill-rule="evenodd" mask="url(#mask-7)"></path>
                    </g>
                </g>
            </g>
        </g>
    </g>
</svg>