<?xml version="1.0" encoding="UTF-8"?>
<svg width="146px" height="34px" viewBox="0 0 146 34" version="1.1" xmlns="http://www.w3.org/2000/svg" xmlns:xlink="http://www.w3.org/1999/xlink">
    <!-- Generator: Sketch 48.2 (47327) - http://www.bohemiancoding.com/sketch -->
    <title>jakroo_logo</title>
    <desc>Created with Sketch.</desc>
    <defs>
        <polygon id="path-1" points="0 0.204635992 33.5465304 0.204635992 33.5465304 33.7511211 0 33.7511211"></polygon>
        <polygon id="path-3" points="0 33.7730933 144.462726 33.7730933 144.462726 0.226517591 0 0.226517591"></polygon>
    </defs>
    <g id="Primary-Navigation/Default" stroke="none" stroke-width="1" fill="none" fill-rule="evenodd" transform="translate(-33.000000, -18.000000)">
        <g id="jakroo_logo" transform="translate(33.828559, 18.000000)">
            <g id="Group-3" transform="translate(0.000000, 0.021972)">
                <mask id="mask-2" fill="white">
                    <use xlink:href="#path-1"></use>
                </mask>
                <g id="Clip-2"></g>
                <path d="M31.7418647,33.7512117 L1.80462034,33.7512117 C0.807942944,33.7512117 -4.53035182e-05,32.9432234 -4.53035182e-05,31.946546 L-4.53035182e-05,2.00930164 C-4.53035182e-05,1.01262424 0.807942944,0.204635992 1.80462034,0.204635992 L31.7418647,0.204635992 C32.7385421,0.204635992 33.5465304,1.01262424 33.5465304,2.00930164 L33.5465304,31.946546 C33.5465304,32.9432234 32.7385421,33.7512117 31.7418647,33.7512117" id="Fill-1" fill="#CD1B22" mask="url(#mask-2)"></path>
            </g>
            <path d="M25.744132,18.0251147 C25.7194415,18.8944892 25.0761316,19.9561771 23.8069535,21.2258082 L18.3367802,26.6998323 C17.0709999,27.9622149 16.0065938,28.6023536 15.1424291,28.627044 C14.2676182,28.6571708 13.2616536,28.0890647 12.1159276,26.9397145 L9.49036221,24.3050884 L11.9430947,20.7111603 L13.7806054,22.5484444 L19.6643998,16.6757494 L11.3786128,8.40242087 L14.419838,5.36323435 L24.057482,14.9965745 C25.2029814,16.1466043 25.7685959,17.1575523 25.744132,18.0251147 Z M16.1465816,3.6358112 C15.192716,2.68262518 13.6471865,2.68262518 12.6933209,3.63558468 L9.65209577,6.6747712 L9.65186925,6.67522424 C9.19339765,7.13346933 8.93607366,7.7550336 8.93630018,8.40287391 C8.93630018,9.05094073 9.1940772,9.67273152 9.65277532,10.1307501 L15.5114263,15.9803404 L15.5315864,16.0005004 C15.7791701,16.251935 15.9352407,16.5595458 16.0002513,16.8821069 C16.112604,17.4386606 15.9535886,18.0391587 15.5220726,18.4709013 C15.0896505,18.9033234 14.4875668,19.0618857 13.9298805,18.9484004 C13.7160479,18.904909 13.5085578,18.821777 13.3198686,18.6976454 C13.312167,18.692662 13.3049184,18.6869991 13.2974434,18.6815626 C12.8353475,18.3732722 12.2783407,18.2269418 11.7154445,18.2794939 C10.9919473,18.3472227 10.3357259,18.7336617 9.92595554,19.3343863 L7.47299654,22.9283144 C6.81201821,23.8966771 6.93252557,25.1984737 7.76022085,26.0288872 L10.3864658,28.6646459 C12.0536353,30.3363457 13.6367667,31.1223618 15.2121966,31.0684506 C16.7597647,31.0242797 18.3007639,30.1857115 20.0617117,28.4290676 C20.0626177,28.4281615 20.0635238,28.4272555 20.0644299,28.4263494 L25.5341502,22.9527783 C27.2991752,21.1873002 28.1415941,19.6435828 28.1855386,18.0942025 C28.230389,16.5142423 27.4459586,14.9372269 25.7842256,13.2693778 L16.1465816,3.6358112 Z" id="Fill-4" fill="#FEFEFE"></path>
            <polygon id="Fill-6" fill="#FEFEFE" points="14.3140543 23.0819387 15.7678442 24.5375407 21.6437105 18.6616744 20.1890146 17.2117353"></polygon>
            <path d="M47.9291516,20.6774091 L42.6682805,20.6774091 L42.6682805,16.8075826 L39.1640534,17.481699 L39.1640534,20.3428426 C39.1640534,21.6181367 39.4100515,22.465086 39.9163183,22.9332978 C40.4157896,23.3962998 41.2892414,23.6216848 42.5865077,23.6216848 L48.0109244,23.6216848 C49.3081907,23.6216848 50.1816425,23.3969793 50.6804342,22.9339774 C51.1871541,22.465086 51.4336052,21.6181367 51.4336052,20.3428426 L51.4336052,10.3778808 L47.9291516,10.3778808 L47.9291516,20.6774091 Z" id="Fill-8" fill="#231F20"></path>
            <path d="M64.6498647,17.9990198 L60.0388726,17.9990198 L62.3846888,13.7076441 L64.6498647,17.9990198 Z M64.0742835,10.3778355 L60.9012251,10.3778355 L53.4157247,23.6216395 L57.0096528,23.6216395 L58.4820172,20.8436277 L66.1774993,20.8436277 L67.6895042,23.6062363 L67.6983384,23.6216395 L71.6621697,23.6216395 L64.0833442,10.3934652 L64.0742835,10.3778355 Z" id="Fill-10" fill="#231F20"></path>
            <polygon id="Fill-12" fill="#231F20" points="88.9845589 10.4335588 89.062934 10.3778355 83.8208639 10.3778355 77.1727991 15.3809295 77.1727991 10.3778355 73.6418429 10.3778355 73.6418429 23.6216395 77.1727991 23.6216395 77.1727991 18.3165975 84.3792297 23.61575 84.3871579 23.6216395 90.093589 23.6216395 80.2731454 16.6310801"></polygon>
            <path d="M102.710551,15.9910999 C102.633308,16.0334587 102.424459,16.1048118 101.888519,16.1048118 L95.5387774,16.1048118 L95.5387774,13.1023211 L101.888519,13.1023211 C102.459116,13.1023211 102.655507,13.1854531 102.700811,13.2105965 C102.855522,13.3039218 102.933444,13.5143566 102.933444,13.8362381 L102.933444,15.3708948 C102.933444,15.6920967 102.858014,15.9009459 102.710551,15.9910999 Z M103.213646,18.8291388 C104.640707,18.8291388 106.341854,18.354358 106.341854,16.0909942 L106.341854,13.1161387 C106.341854,10.8527749 104.640707,10.377994 103.213646,10.377994 L92.0818925,10.377994 L92.0818925,23.621798 L95.5387774,23.621798 L95.5387774,18.8291388 L97.947792,18.8291388 L103.04557,23.6134169 L103.054631,23.621798 L108.170531,23.621798 L102.328642,18.8291388 L103.213646,18.8291388 Z" id="Fill-14" fill="#231F20"></path>
            <mask id="mask-4" fill="white">
                <use xlink:href="#path-3"></use>
            </mask>
            <g id="Clip-17"></g>
            <path d="M113.642063,20.6774318 L122.803794,20.6774318 L122.803794,13.2009922 L113.642063,13.2009922 L113.642063,20.6774318 Z M122.887832,10.3779034 L113.559384,10.3779034 C112.263477,10.3779034 111.390478,10.6032884 110.891007,11.0681025 C110.383381,11.5340492 110.136477,12.3814515 110.136477,13.6585577 L110.136477,20.3428653 C110.136477,21.6174798 110.383155,22.4646556 110.889875,22.9333205 C111.389119,23.3963224 112.262345,23.6217074 113.559384,23.6217074 L122.887832,23.6217074 C124.185551,23.6217074 125.058776,23.3963224 125.557795,22.9333205 C126.064741,22.4626169 126.310739,21.6156676 126.310739,20.3428653 L126.310739,13.6585577 C126.310739,12.3846228 126.064741,11.5369939 125.558248,11.0685556 C125.057644,10.603968 124.184192,10.3779034 122.887832,10.3779034 Z" id="Fill-16" fill="#231F20" mask="url(#mask-4)"></path>
            <path d="M131.793597,20.6774318 L140.956007,20.6774318 L140.956007,13.2009922 L131.793597,13.2009922 L131.793597,20.6774318 Z M143.710008,11.0685556 C143.209404,10.603968 142.336632,10.3779034 141.040272,10.3779034 L131.711598,10.3779034 C130.414785,10.3779034 129.541786,10.6032884 129.042315,11.0681025 C128.535142,11.5347288 128.288464,12.3821311 128.288464,13.6585577 L128.288464,20.3428653 C128.288464,21.6181593 128.534689,22.4648821 129.041182,22.9333205 C129.540653,23.3963224 130.414105,23.6217074 131.711598,23.6217074 L141.040272,23.6217074 C142.337312,23.6217074 143.210764,23.3963224 143.710008,22.9333205 C144.216502,22.4626169 144.462726,21.6156676 144.462726,20.3428653 L144.462726,13.6585577 C144.462726,12.3839432 144.216502,11.5369939 143.710008,11.0685556 Z" id="Fill-18" fill="#231F20" mask="url(#mask-4)"></path>
        </g>
    </g>
</svg>