<?xml version="1.0" encoding="UTF-8"?>
<svg width="200px" height="47px" viewBox="0 0 200 47" version="1.1" xmlns="http://www.w3.org/2000/svg" xmlns:xlink="http://www.w3.org/1999/xlink">
    <!-- Generator: Sketch 62 (91390) - https://sketch.com -->
    <title>jakroo_logo</title>
    <desc>Created with Sketch.</desc>
    <defs>
        <polygon id="path-1" points="0 0.28225654 46.2710764 0.28225654 46.2710764 46.5532704 0 46.5532704"></polygon>
        <polygon id="path-3" points="0 46.5835769 199.258933 46.5835769 199.258933 0.312438057 0 0.312438057"></polygon>
    </defs>
    <g id="6.1-Admin/-Orders" stroke="none" stroke-width="1" fill="none" fill-rule="evenodd">
        <g id="Orders/PREVIEW" transform="translate(-33.000000, -11.000000)">
            <g id="jakroo_logo" transform="translate(33.000000, 11.000000)">
                <g id="Group-3" transform="translate(0.000000, 0.030306)">
                    <mask id="mask-2" fill="white">
                        <use xlink:href="#path-1"></use>
                    </mask>
                    <g id="Clip-2"></g>
                    <path d="M43.7818824,46.5533954 L2.48913151,46.5533954 C1.11440406,46.5533954 -6.24876113e-05,45.4389289 -6.24876113e-05,44.0642014 L-6.24876113e-05,2.77145054 C-6.24876113e-05,1.39672309 1.11440406,0.28225654 2.48913151,0.28225654 L43.7818824,0.28225654 C45.1566098,0.28225654 46.2710764,1.39672309 46.2710764,2.77145054 L46.2710764,44.0642014 C46.2710764,45.4389289 45.1566098,46.5533954 43.7818824,46.5533954" id="Fill-1" fill="#CD1B22" mask="url(#mask-2)"></path>
                </g>
                <path d="M35.5091475,24.8622271 C35.4750918,26.0613644 34.5877677,27.5257615 32.8371773,29.2769769 L25.2921106,36.8273549 C23.5462068,38.5685722 22.0780603,39.4515222 20.8861092,39.4855779 C19.6794734,39.5271322 18.291936,38.7435375 16.7116243,37.1582268 L13.0901548,33.5242598 L16.473234,28.5671176 L19.0077316,31.1013027 L27.1233101,23.0010336 L15.6946384,11.589546 L19.8894318,7.39756462 L33.1827338,20.6849303 C34.762733,22.2711783 35.5428908,23.6655894 35.5091475,24.8622271 L35.5091475,24.8622271 Z M22.2711471,5.014912 C20.9554704,3.70017266 18.8237055,3.70017266 17.5080289,5.01459957 L13.3132355,9.20658097 L13.3129231,9.20720585 C12.6805485,9.83926804 12.3256188,10.6965981 12.3259313,11.5901709 C12.3259313,12.4840562 12.6814858,13.3416987 13.3141729,13.9734484 L21.3950708,22.0418488 L21.4228777,22.0696558 C21.7643725,22.416462 21.9796424,22.8407529 22.0693121,23.2856647 C22.2242814,24.053325 22.0049498,24.8815983 21.4097553,25.4771052 C20.8133111,26.0735495 19.9828507,26.2922561 19.2136282,26.1357246 C18.9186867,26.0757365 18.6324935,25.9610718 18.3722326,25.7898557 C18.3616097,25.7829821 18.3516116,25.7751711 18.3413012,25.7676726 C17.7039276,25.3424444 16.9356424,25.1406094 16.1592338,25.2130951 C15.1613066,25.306514 14.2561736,25.8395334 13.6909732,26.6681191 L10.3075814,31.6252613 C9.39588719,32.960934 9.56210424,34.7565155 10.7037529,35.9019134 L14.3261597,39.5374426 C16.6257038,41.8432355 18.8093334,42.9273956 20.9823401,42.8530353 C23.1169169,42.7921099 25.242433,41.6354642 27.6713264,39.2125071 C27.6725762,39.2112573 27.6738259,39.2100076 27.6750757,39.2087578 L35.2195174,31.6590046 C37.6540348,29.2238624 38.8159919,27.094597 38.8766049,24.9575207 C38.9384676,22.7782653 37.8564946,20.6030715 35.5644491,18.3025901 L22.2711471,5.014912 Z" id="Fill-4" fill="#FFFFFF"></path>
                <polygon id="Fill-6" fill="#FFFFFF" points="19.7435232 31.8371568 21.7487506 33.8448837 29.8533938 25.7402405 27.8469166 23.7403245"></polygon>
                <path d="M66.1091746,28.5205643 L58.8528007,28.5205643 L58.8528007,23.1828726 L54.019384,24.1126882 L54.019384,28.0590933 C54.019384,29.8181196 54.3586917,30.9863255 55.0569908,31.6321349 C55.7459167,32.2707583 56.9506778,32.5816342 58.7400106,32.5816342 L66.2219647,32.5816342 C68.0112975,32.5816342 69.2160586,32.2716956 69.9040472,31.6330722 C70.6029711,30.9863255 70.9429038,29.8181196 70.9429038,28.0590933 L70.9429038,14.3143183 L66.1091746,14.3143183 L66.1091746,28.5205643 Z" id="Fill-8" fill="#FFFFFF"></path>
                <path d="M89.1722271,24.8262343 L82.8122381,24.8262343 L86.0478466,18.9070953 L89.1722271,24.8262343 Z M88.378322,14.3142558 L84.0016897,14.3142558 L73.6768617,32.5815717 L78.6340039,32.5815717 L80.6648513,28.7498314 L91.2793094,28.7498314 L93.3648334,32.5603259 L93.3770185,32.5815717 L98.8443721,32.5815717 L88.3908196,14.3358141 L88.378322,14.3142558 Z" id="Fill-10" fill="#FFFFFF"></path>
                <polygon id="Fill-12" fill="#FFFFFF" points="122.737323 14.3911156 122.845426 14.3142558 115.614985 14.3142558 106.44524 21.2150752 106.44524 14.3142558 101.574956 14.3142558 101.574956 32.5815717 106.44524 32.5815717 106.44524 25.2642724 116.385144 32.5734483 116.39608 32.5815717 124.267019 32.5815717 110.72158 22.9394208"></polygon>
                <path d="M141.669725,22.0566896 C141.563184,22.1151155 141.275116,22.2135335 140.535888,22.2135335 L131.777624,22.2135335 L131.777624,18.072167 L140.535888,18.072167 C141.322919,18.072167 141.593803,18.1868318 141.656291,18.2215124 C141.869686,18.3502369 141.977164,18.6404919 141.977164,19.0844664 L141.977164,21.2012342 C141.977164,21.6442713 141.873123,21.9323392 141.669725,22.0566896 L141.669725,22.0566896 Z M142.36365,25.971226 C144.33201,25.971226 146.67842,25.3163558 146.67842,22.1944748 L146.67842,18.0912258 C146.67842,14.9693447 144.33201,14.3144745 142.36365,14.3144745 L127.009507,14.3144745 L127.009507,32.5817904 L131.777624,32.5817904 L131.777624,25.971226 L135.100403,25.971226 L142.131821,32.5702302 L142.144319,32.5817904 L149.200732,32.5817904 L141.142955,25.971226 L142.36365,25.971226 Z" id="Fill-14" fill="#FFFFFF"></path>
                <mask id="mask-4" fill="white">
                    <use xlink:href="#path-3"></use>
                </mask>
                <g id="Clip-17"></g>
                <path d="M156.747674,28.5205956 L169.384543,28.5205956 L169.384543,18.2082651 L156.747674,18.2082651 L156.747674,28.5205956 Z M169.500458,14.3143496 L156.633634,14.3143496 C154.846176,14.3143496 153.642039,14.6252254 152.953113,15.2663483 C152.25294,15.9090334 151.912382,17.0778642 151.912382,18.8393899 L151.912382,28.0591246 C151.912382,29.8172135 152.252627,30.9857318 152.951551,31.6321662 C153.640165,32.2707896 154.844613,32.5816654 156.633634,32.5816654 L169.500458,32.5816654 C171.290415,32.5816654 172.494864,32.2707896 173.183165,31.6321662 C173.882401,30.9829199 174.221709,29.814714 174.221709,28.0591246 L174.221709,18.8393899 C174.221709,17.0822383 173.882401,15.9130951 173.18379,15.2669732 C172.493302,14.6261627 171.288541,14.3143496 169.500458,14.3143496 L169.500458,14.3143496 Z" id="Fill-16" fill="#FFFFFF" mask="url(#mask-4)"></path>
                <path d="M181.784272,28.5205956 L194.422079,28.5205956 L194.422079,18.2082651 L181.784272,18.2082651 L181.784272,28.5205956 Z M198.220701,15.2669732 C197.530213,14.6261627 196.326389,14.3143496 194.538306,14.3143496 L181.67117,14.3143496 C179.882462,14.3143496 178.678326,14.6252254 177.9894,15.2663483 C177.289851,15.9099707 176.949606,17.0788015 176.949606,18.8393899 L176.949606,28.0591246 C176.949606,29.8181508 177.289226,30.9860443 177.987837,31.6321662 C178.676763,32.2707896 179.881525,32.5816654 181.67117,32.5816654 L194.538306,32.5816654 C196.327327,32.5816654 197.532088,32.2707896 198.220701,31.6321662 C198.919313,30.9829199 199.258933,29.814714 199.258933,28.0591246 L199.258933,18.8393899 C199.258933,17.081301 198.919313,15.9130951 198.220701,15.2669732 L198.220701,15.2669732 Z" id="Fill-18" fill="#FFFFFF" mask="url(#mask-4)"></path>
            </g>
        </g>
    </g>
</svg>