<svg xmlns="http://www.w3.org/2000/svg" width="488" height="582.5" viewBox="0 0 488 582.5">
  <defs>
    <style>
      .cls-1 {
        fill: #606060;
      }
    </style>
  </defs>
  <g id="Layer_2" data-name="Layer 2">
    <g id="Layer_1-2" data-name="Layer 1">
      <g>
        <path d="M387.8,43.74a13.61,13.61,0,0,0-11.3-5.63,36.58,36.58,0,0,0-6.18.63A26.54,26.54,0,0,0,364.44,40a5.53,5.53,0,0,0-3.71,5.19A7.25,7.25,0,0,0,364.41,51a21.56,21.56,0,0,0,7.51,2.38,20,20,0,0,0,8.11,0,16,16,0,0,0,7-3.49c1.82-1.75,1.8-4,.81-6.19-.8-1.75-3.39-.23-2.6,1.52a2.11,2.11,0,0,1-.77,2.92,15.29,15.29,0,0,1-4.8,2.25c-3.87,1.06-8.67.16-12.33-1.3-1.66-.66-3.39-1.88-3.57-3.82s1.58-2.58,3.08-2.94a45.63,45.63,0,0,1,8.93-1.25c3.75-.11,7.18,1,9.46,4.14,1.14,1.54,3.74,0,2.6-1.52Z"/>
        <path d="M359.89,45.08C357.38,51,349,51.51,343.62,52.8a25.55,25.55,0,0,0-9.54,3.92c-3.45,2.57-5.57,6.33-7.21,10.24-2,4.75-3.59,9.69-5.33,14.54s-3.8,9.87-5.29,14.92c-1.26,4.22-1.91,9.14.58,13.07a11.39,11.39,0,0,0,9.09,5c9.71.59,15.35-9.32,14.45-18l-2.94.4a121.92,121.92,0,0,1,4.7,47.39,116.92,116.92,0,0,1-1.79,11.94c-.73,3.59-1.83,7.09-2.54,10.67-.56,2.79-.88,5.87.27,8.56,1.3,3,4.13,4.25,7.24,4.67A230.82,230.82,0,0,0,396,181.34c5.56-.48,12-1.69,15.45-6.57,2.1-3,2.2-6.71,1.58-10.19-.7-3.9-2.07-7.69-3-11.55a124.22,124.22,0,0,1-1.54-48.21q.51-3,1.15-6h-2.89c1.6,7.7,6.37,16.49,15.38,16.21,3.47-.11,7.1-1.7,8.77-4.89,2.18-4.14.83-9.12,0-13.45C428.19,82,423.83,64.9,410.67,56c-4.36-3-9.38-4.14-14.24-6a28,28,0,0,1-5.68-2.79,14.94,14.94,0,0,1-2.95-3.46c-1.15-1.52-3.75,0-2.6,1.52A29.86,29.86,0,0,0,388,48.85a11.59,11.59,0,0,0,2.8,1.84c4.07,2.1,8.39,3.24,12.64,4.88,6.69,2.59,11.83,7.7,15.42,13.83,3.71,6.32,5.9,13.42,7.57,20.52.84,3.6,1.54,7.23,2.17,10.87s1,8.3-2.88,10.37a9.37,9.37,0,0,1-10-1.21c-3.59-2.9-5.23-7.51-6.14-11.89a1.51,1.51,0,0,0-2.89,0,128.31,128.31,0,0,0-1.42,46.35q.88,5.79,2.3,11.46c.91,3.65,2.37,7.32,2.67,11.09a8.78,8.78,0,0,1-3.27,8.09,17.92,17.92,0,0,1-7.72,2.87,84.31,84.31,0,0,1-10.41.87q-6.17.3-12.32.29-12.09,0-24.13-1.2-2.94-.28-5.88-.65c-1.62-.2-3.46-.37-4.73-1.52-1.94-1.75-1.72-4.91-1.33-7.24.56-3.35,1.65-6.6,2.37-9.92.81-3.75,1.44-7.54,1.9-11.34A124.26,124.26,0,0,0,340.32,96c-.47-1.54-3.13-1.35-2.95.4.71,6.9-3.06,15.21-11,15a8.16,8.16,0,0,1-7.68-4.87c-1.53-4,0-8.56,1.4-12.38,1.7-4.75,3.43-9.5,5.14-14.25,1.56-4.31,2.93-8.76,4.83-13,1.57-3.48,3.66-6.78,7-8.73a30.67,30.67,0,0,1,8.8-3c6.48-1.44,14-2.63,16.85-9.46a1.51,1.51,0,0,0-1-1.85,1.54,1.54,0,0,0-1.85,1Z"/>
        <path d="M376.67,178.67a950.27,950.27,0,0,0,1-97.69q-.57-13.87-1.55-27.74c-.14-1.91-3.14-1.93-3,0A950.16,950.16,0,0,1,375,150.92q-.45,13.89-1.31,27.75c-.12,1.93,2.88,1.92,3,0Z"/>
        <path d="M355.83,51.7c1.72,6.66,9.24,8.13,15.12,8.83,6.46.76,13.83.74,19.15-3.56A10.81,10.81,0,0,0,394,50.9c.4-1.88-2.5-2.69-2.9-.8-.85,4-4.63,6.23-8.35,7.16a28.93,28.93,0,0,1-9.82.48,39,39,0,0,1-8.17-1.47c-2.74-.88-5.23-2.44-6-5.37-.48-1.87-3.37-1.08-2.89.8Z"/>
        <path d="M358.74,55.2c-3.71,1.71-7.32,3.6-11,5.34-3.1,1.46-6.47,2.84-8.79,5.48-2.76,3.15-2.65,6.92-2.21,10.85.38,3.37.56,6.74.61,10.13A113.34,113.34,0,0,0,338,98.5c.22,1.9,3.22,1.92,3,0-.71-6.17-.47-12.36-1-18.54-.29-3.54-1.6-8,.54-11.16,1.77-2.64,5-4,7.81-5.27,4-1.84,7.89-3.9,11.89-5.73,1.75-.81.23-3.4-1.52-2.6Z"/>
        <path d="M387.74,57.8c3.51,1.61,6.93,3.38,10.42,5,2.95,1.4,6.28,2.61,8.57,5,2.74,2.93,1.75,7,1.4,10.59-.3,3-.41,6.07-.46,9.11-.05,3.65-.26,7.28-.67,10.91-.22,1.91,2.78,1.9,3,0,.75-6.59.48-13.21,1.1-19.8.38-3.91,1.24-8.08-1.15-11.56-1.92-2.81-5-4.45-8-5.84-4.26-2-8.42-4.14-12.67-6.1-1.74-.8-3.27,1.79-1.52,2.6Z"/>
        <path d="M337.56,103.44a15.73,15.73,0,0,0-10.4-5.4,17.16,17.16,0,0,0-11.29,3.46,1.55,1.55,0,0,0-.53,2.06,1.5,1.5,0,0,0,2.05.53,14.64,14.64,0,0,1,9.49-3.07,12.73,12.73,0,0,1,8.56,4.54c1.29,1.44,3.4-.68,2.12-2.12Z"/>
        <path d="M431.56,100.44a14.58,14.58,0,0,0-11.4-3.94,21,21,0,0,0-11.59,5.24c-1.47,1.26.66,3.37,2.12,2.12,5.23-4.5,13.26-6.45,18.75-1.3,1.41,1.32,3.53-.8,2.12-2.12Z"/>
      </g>
      <g>
        <path d="M387.8,360.74a13.61,13.61,0,0,0-11.3-5.63,36.58,36.58,0,0,0-6.18.63,26.54,26.54,0,0,0-5.88,1.25,5.53,5.53,0,0,0-3.71,5.19,7.25,7.25,0,0,0,3.68,5.86,21.56,21.56,0,0,0,7.51,2.38,20,20,0,0,0,8.11,0,16,16,0,0,0,7-3.49c1.82-1.75,1.8-4,.81-6.19-.8-1.75-3.39-.23-2.6,1.52a2.11,2.11,0,0,1-.77,2.92,15.29,15.29,0,0,1-4.8,2.25c-3.87,1.06-8.67.16-12.33-1.3-1.66-.66-3.39-1.88-3.57-3.82s1.58-2.58,3.08-2.94a45.63,45.63,0,0,1,8.93-1.25c3.75-.11,7.18,1,9.46,4.14,1.14,1.54,3.74,0,2.6-1.52Z"/>
        <path d="M359.89,362.08c-2.51,5.94-10.88,6.43-16.27,7.72a25.55,25.55,0,0,0-9.54,3.92c-3.45,2.57-5.57,6.33-7.21,10.24-2,4.75-3.59,9.69-5.33,14.54s-3.8,9.87-5.29,14.92c-1.26,4.22-1.91,9.14.58,13.07a11.39,11.39,0,0,0,9.09,5c9.71.59,15.35-9.32,14.45-18l-2.94.4a121.92,121.92,0,0,1,4.7,47.39,116.92,116.92,0,0,1-1.79,11.94c-.73,3.59-1.83,7.09-2.54,10.67-.56,2.79-.88,5.87.27,8.56,1.3,3,4.13,4.25,7.24,4.67A230.82,230.82,0,0,0,396,498.34c5.56-.48,12-1.69,15.45-6.57,2.1-3,2.2-6.71,1.58-10.19-.7-3.9-2.07-7.69-3-11.55a124.22,124.22,0,0,1-1.54-48.21q.51-3,1.15-6h-2.89c1.6,7.7,6.37,16.49,15.38,16.21,3.47-.11,7.1-1.7,8.77-4.89,2.18-4.14.83-9.12,0-13.45C428.19,399,423.83,381.9,410.67,373c-4.36-3-9.38-4.14-14.24-6a28,28,0,0,1-5.68-2.79,14.94,14.94,0,0,1-2.95-3.46c-1.15-1.52-3.75,0-2.6,1.52a29.86,29.86,0,0,0,2.84,3.59,11.59,11.59,0,0,0,2.8,1.84c4.07,2.1,8.39,3.24,12.64,4.88,6.69,2.59,11.83,7.7,15.42,13.83,3.71,6.32,5.9,13.42,7.57,20.52.84,3.6,1.54,7.23,2.17,10.87s1,8.3-2.88,10.37a9.37,9.37,0,0,1-10-1.21c-3.59-2.9-5.23-7.51-6.14-11.89a1.51,1.51,0,0,0-2.89,0,128.31,128.31,0,0,0-1.42,46.35q.88,5.79,2.3,11.46c.91,3.65,2.37,7.32,2.67,11.09a8.78,8.78,0,0,1-3.27,8.09,17.92,17.92,0,0,1-7.72,2.87,84.31,84.31,0,0,1-10.41.87q-6.17.3-12.32.29-12.09,0-24.13-1.2-2.94-.28-5.88-.65c-1.62-.2-3.46-.37-4.73-1.52-1.94-1.75-1.72-4.91-1.33-7.24.56-3.35,1.65-6.6,2.37-9.92.81-3.75,1.44-7.54,1.9-11.34A124.26,124.26,0,0,0,340.32,413c-.47-1.54-3.13-1.35-2.95.4.71,6.9-3.06,15.21-11,15.05a8.16,8.16,0,0,1-7.68-4.87c-1.53-4,0-8.56,1.4-12.38,1.7-4.75,3.43-9.5,5.14-14.25,1.56-4.31,2.93-8.76,4.83-13,1.57-3.48,3.66-6.78,7-8.73a30.67,30.67,0,0,1,8.8-3c6.48-1.44,14-2.63,16.85-9.46a1.51,1.51,0,0,0-1-1.85,1.54,1.54,0,0,0-1.85,1.05Z"/>
        <path d="M376.67,495.67a950.27,950.27,0,0,0,1-97.69q-.57-13.87-1.55-27.74c-.14-1.91-3.14-1.93-3,0A950.16,950.16,0,0,1,375,467.92q-.45,13.89-1.31,27.75c-.12,1.93,2.88,1.92,3,0Z"/>
        <path d="M355.83,368.7c1.72,6.66,9.24,8.13,15.12,8.83,6.46.76,13.83.74,19.15-3.56A10.81,10.81,0,0,0,394,367.9c.4-1.88-2.5-2.69-2.9-.8-.85,4-4.63,6.23-8.35,7.16a28.93,28.93,0,0,1-9.82.48,39,39,0,0,1-8.17-1.47c-2.74-.88-5.23-2.44-6-5.37-.48-1.87-3.37-1.08-2.89.8Z"/>
        <path d="M358.74,372.2c-3.71,1.71-7.32,3.6-11,5.34-3.1,1.46-6.47,2.84-8.79,5.48-2.76,3.15-2.65,6.92-2.21,10.85.38,3.37.56,6.74.61,10.13a113.34,113.34,0,0,0,.67,11.5c.22,1.9,3.22,1.92,3,0-.71-6.17-.47-12.36-1-18.54-.29-3.54-1.6-8,.54-11.16,1.77-2.64,5-4,7.81-5.27,4-1.84,7.89-3.9,11.89-5.73,1.75-.81.23-3.4-1.52-2.6Z"/>
        <path d="M387.74,374.8c3.51,1.61,6.93,3.38,10.42,5,2.95,1.4,6.28,2.61,8.57,5.05,2.74,2.93,1.75,7,1.4,10.59-.3,3-.41,6.07-.46,9.11-.05,3.65-.26,7.28-.67,10.91-.22,1.91,2.78,1.9,3,0,.75-6.59.48-13.21,1.1-19.8.38-3.91,1.24-8.08-1.15-11.56-1.92-2.81-5-4.45-8-5.84-4.26-2-8.42-4.14-12.67-6.1-1.74-.8-3.27,1.79-1.52,2.6Z"/>
        <path d="M337.56,420.44a15.73,15.73,0,0,0-10.4-5.4,17.16,17.16,0,0,0-11.29,3.46,1.55,1.55,0,0,0-.53,2.06,1.5,1.5,0,0,0,2.05.53,14.64,14.64,0,0,1,9.49-3.07,12.73,12.73,0,0,1,8.56,4.54c1.29,1.44,3.4-.68,2.12-2.12Z"/>
        <path d="M431.56,417.44a14.58,14.58,0,0,0-11.4-3.94,21,21,0,0,0-11.59,5.24c-1.47,1.26.66,3.37,2.12,2.12,5.23-4.5,13.26-6.45,18.75-1.3,1.41,1.32,3.53-.8,2.12-2.12Z"/>
      </g>
      <g>
        <path d="M204,221H17A17.06,17.06,0,0,1,0,204V17A17.06,17.06,0,0,1,17,0H204a17.06,17.06,0,0,1,17,17V204A17.06,17.06,0,0,1,204,221ZM17,4A13.06,13.06,0,0,0,4,17V204a13.06,13.06,0,0,0,13,13H204a13.06,13.06,0,0,0,13-13V17A13.06,13.06,0,0,0,204,4Z"/>
        <path d="M30,44c-10.48,0-19-6.73-19-15s8.52-15,19-15,19,6.73,19,15S40.48,44,30,44Zm0-26c-8.27,0-15,4.93-15,11s6.73,11,15,11,15-4.93,15-11S38.27,18,30,18Z"/>
        <path d="M95.5,126c-12.77-.42-25.55-.16-38.31-.58l1.5,1.5c.64-12.37,1.46-26.37,9.42-36.54,4.18-5.33,10.09-8.76,16.46-10.88a85.14,85.14,0,0,1,21.05-3.93c7.18-.47,14.54.25,20.92,3.82A38.5,38.5,0,0,1,139.21,91.6,97.78,97.78,0,0,1,147.84,108a70.22,70.22,0,0,1,3.45,8.56c.79,2.83.27,6.33-2.69,7.58-2.75,1.16-6.2,1-9.11,1.26q-6.27.49-12.58.74-12.59.51-25.2.08-3.09-.1-6.18-.27l1.5,1.5a72.22,72.22,0,0,0-2.62-23.85,71.75,71.75,0,0,0-4.24-11.23,40.38,40.38,0,0,0-5.11-8.64,9.59,9.59,0,0,0-9-3.67,1.52,1.52,0,0,0-1,1.85,1.54,1.54,0,0,0,1.85,1c3.53-.49,5.93,2.43,7.6,5.13a62.77,62.77,0,0,1,5.58,11.84,69.63,69.63,0,0,1,4,27.52,1.53,1.53,0,0,0,1.5,1.5q13.45.7,26.94.35,6.66-.19,13.33-.63a104.53,104.53,0,0,0,11.45-1c2.73-.5,5.29-1.86,6.49-4.47,1.65-3.62.62-7.19-.8-10.66a148.84,148.84,0,0,0-8.38-18A50,50,0,0,0,132.4,79.73a35.12,35.12,0,0,0-19.87-7.21c-7.75-.46-15.78.76-23.32,2.56-7,1.67-14,4.39-19.46,9.21C59.16,93.59,56.91,108.47,56,121.78c-.12,1.71-.21,3.43-.3,5.14a1.51,1.51,0,0,0,1.5,1.5c12.76.42,25.54.16,38.31.58,1.93.06,1.93-2.94,0-3Z"/>
        <path d="M81.2,128.26c8.82,12.41,23.12,19.41,37.6,22.92a111.49,111.49,0,0,0,22.94,3c7.29.21,16.66-.13,19.74-8.12,1.76-4.55,1.24-10.15.22-14.81a35.83,35.83,0,0,0-6.28-13.74c-1.14-1.53-3.74,0-2.59,1.51,4.87,6.54,7.83,15.41,6.47,23.6a9.13,9.13,0,0,1-6.76,7.69c-3.38,1-7,1-10.45.88-14-.38-28.45-3.12-40.91-9.74A49.59,49.59,0,0,1,83.8,126.74c-1.11-1.56-3.72-.06-2.6,1.52Z"/>
        <rect class="cls-1" x="5.5" y="230.5" width="107.5" height="14"/>
        <rect class="cls-1" x="31" y="252" width="37" height="14"/>
        <path d="M23.5,251v15.5H8V251H23.5m2-2H6v19.5H25.5V249Z"/>
      </g>
      <g>
        <path d="M471,221H284a17.06,17.06,0,0,1-17-17V17A17.06,17.06,0,0,1,284,0H471a17.06,17.06,0,0,1,17,17V204A17.06,17.06,0,0,1,471,221ZM284,4a13.06,13.06,0,0,0-13,13V204a13.06,13.06,0,0,0,13,13H471a13.06,13.06,0,0,0,13-13V17A13.06,13.06,0,0,0,471,4Z"/>
        <path d="M297,44c-10.48,0-19-6.73-19-15s8.52-15,19-15,19,6.73,19,15S307.48,44,297,44Zm0-26c-8.27,0-15,4.93-15,11s6.73,11,15,11,15-4.93,15-11S305.27,18,297,18Z"/>
        <rect class="cls-1" x="272.5" y="230.5" width="68.5" height="14"/>
        <rect class="cls-1" x="298" y="252" width="37" height="14"/>
        <path d="M290.5,251v15.5H275V251h15.5m2-2H273v19.5h19.5V249Z"/>
      </g>
      <g>
        <path d="M204,535H17A17.06,17.06,0,0,1,0,518V331a17.06,17.06,0,0,1,17-17H204a17.06,17.06,0,0,1,17,17V518A17.06,17.06,0,0,1,204,535ZM17,318A13.06,13.06,0,0,0,4,331V518a13.06,13.06,0,0,0,13,13H204a13.06,13.06,0,0,0,13-13V331a13.06,13.06,0,0,0-13-13Z"/>
        <path d="M30,358c-10.48,0-19-6.73-19-15s8.52-15,19-15,19,6.73,19,15S40.48,358,30,358Zm0-26c-8.27,0-15,4.93-15,11s6.73,11,15,11,15-4.93,15-11S38.27,332,30,332Z"/>
        <rect class="cls-1" x="5.5" y="544.5" width="176.5" height="14"/>
        <rect class="cls-1" x="272.5" y="544.5" width="176.5" height="14"/>
        <rect class="cls-1" x="272.5" y="230.5" width="176.5" height="14"/>
        <rect class="cls-1" x="5.5" y="230.5" width="176.5" height="14"/>
        <rect class="cls-1" x="31" y="566" width="105" height="14"/>
        <rect class="cls-1" x="298" y="566" width="105" height="14"/>
        <rect class="cls-1" x="298" y="252" width="105" height="14"/>
        <rect class="cls-1" x="31" y="252" width="105" height="14"/>
        <path d="M23.5,565v15.5H8V565H23.5m2-2H6v19.5H25.5V563Z"/>
      </g>
      <g>
        <path d="M471,535H284a17.06,17.06,0,0,1-17-17V331a17.06,17.06,0,0,1,17-17H471a17.06,17.06,0,0,1,17,17V518A17.06,17.06,0,0,1,471,535ZM284,318a13.06,13.06,0,0,0-13,13V518a13.06,13.06,0,0,0,13,13H471a13.06,13.06,0,0,0,13-13V331a13.06,13.06,0,0,0-13-13Z"/>
        <path d="M297,358c-10.48,0-19-6.73-19-15s8.52-15,19-15,19,6.73,19,15S307.48,358,297,358Zm0-26c-8.27,0-15,4.93-15,11s6.73,11,15,11,15-4.93,15-11S305.27,332,297,332Z"/>
        <rect class="cls-1" x="272.5" y="544.5" width="58" height="14"/>
        <rect class="cls-1" x="298" y="566" width="37" height="14"/>
        <path d="M290.5,565v15.5H275V565h15.5m2-2H273v19.5h19.5V563Z"/>
      </g>
      <path d="M109,351.78c-2.37-.4-4.72-.88-7-1.47-1.91-.48-4.12-.85-5.81-1.94-.46-.3-1.07-.75-1.12-1.36-.08-.94,1.07-1.65,1.76-2.06a14.14,14.14,0,0,1,5.81-1.8c4.33-.45,8.75.22,13.06.62l3.34.31a8.33,8.33,0,0,1,3.35.68c.61.34,1.33,1.06,1,1.82s-1.28,1-1.91,1.18c-2.19.68-4.37,1.15-6.51,2a44,44,0,0,1-6.78,2.29c-1.88.41-1.09,3.31.8,2.9a54.48,54.48,0,0,0,7.74-2.68c2.32-.88,4.93-1.13,7.13-2.26a4.22,4.22,0,0,0,2.32-5.35c-1-2.57-3.73-3.24-6.22-3.5-3-.32-6.1-.58-9.14-.85a43.53,43.53,0,0,0-8.15-.16c-3.72.38-11.91,2.5-10.43,7.85.7,2.52,3.49,3.66,5.75,4.32a86.54,86.54,0,0,0,10.29,2.35c1.89.32,2.7-2.57.8-2.89Z"/>
      <path d="M92,348.5c0,2.69,1.59,5.84-.71,7.95a5.41,5.41,0,0,1-3.46,1.37c-1.43.08-2.75.53-2.94,2.16-.33,2.85,3.25,4.76,5.42,5.67A37.65,37.65,0,0,0,99,367.71c6.45,1,13,1.89,19.57,1.27a36.89,36.89,0,0,0,9.4-2c2.46-.91,5.37-2.16,6.18-4.91a4.64,4.64,0,0,0-.5-3.83c-1-1.49-2.59-1.57-4.17-1.93-3.76-.86-3.61-5.69-3.51-8.67.06-1.93-2.94-1.93-3,0-.1,2.82-.11,5.81,1.4,8.3a7.5,7.5,0,0,0,2.59,2.6c1.16.66,2.37.57,3.57,1,.94.34,1,1.26.56,2.08-.6,1.1-2,1.68-3.09,2.13a32.75,32.75,0,0,1-8.55,2.17,66.63,66.63,0,0,1-17.44-.72,74.7,74.7,0,0,1-8.27-1.52,15.74,15.74,0,0,1-3.65-1.43,10.17,10.17,0,0,1-1.43-1c-.19-.17-.4-.49-.61-.6-.08-.32-.19-.32-.35,0-.34.23-.29.3.15.22,1.17.28,2.94-.49,3.94-1A8.19,8.19,0,0,0,94.71,357c1.66-2.64.35-5.63.29-8.49,0-1.93-3-1.93-3,0Z"/>
      <path d="M87.1,358.05a70.35,70.35,0,0,0-22.79,7.33,56.79,56.79,0,0,0-8.91,5.85,30.15,30.15,0,0,0-7,8.48c-3.72,6.6-5.42,14.15-6.61,21.57-1.54,9.67-2.68,19.42-3.65,29.15-2,20.24-2.36,40.54-2.43,60.87,0,2.16-.35,4.63.21,6.74s2.48,2.89,4.53,3.29a40.15,40.15,0,0,0,14.54.15c2-.34,3.72-1.16,4.59-3.05s.73-4,.77-6q.15-7.59.56-15.15a446.45,446.45,0,0,1,7.34-60c.46-2.4.95-4.8,1.44-7.2l-2.89-.79c-1.32,8.2,2.38,15.73,3.82,23.63,1.52,8.34.57,16.93-.09,25.31l-2.06,26.33L68,491c-.13,1.73-.7,4,.3,5.6s3,1.56,4.6,1.76c2.11.26,4.23.5,6.34.72a348.37,348.37,0,0,0,51.68,1.51c4.26-.19,8.55-.39,12.8-.81,3.27-.33,6.36-1.89,5.82-5.7-.28-1.92-1-3.81-1.43-5.7-.48-2.1-.87-4.23-1.15-6.36a77.59,77.59,0,0,1-.52-12.84c.3-8.69,1.28-17.37,2-26l2.26-26.34.55-6.46-3,.4c3.31,8.32,4.82,17.17,5.69,26,.91,9.3,1.4,18.65,2,28l1,14.34c.31,4.5.42,9.05,1,13.52.39,3.12,1.46,6.59,4.69,7.81,2,.76,4.39.37,6.5.26l7.21-.39c1.83-.09,4.4.23,5.74-1.29s.89-4,.87-5.87q-.08-7.32-.3-14.62-.42-14.37-1.37-28.72t-2.45-28.89c-.89-8.58-1.74-17.22-3.75-25.62-1.87-7.84-4.87-15.88-10.08-22.16-2.83-3.42-6.61-5.14-10.66-6.73L141,361.15l-6.69-2.64c-1.8-.7-2.58,2.2-.8,2.9l12.69,5c4,1.58,8.28,2.9,12.07,5,3.63,2,6,5.38,8,8.9a53.65,53.65,0,0,1,4.56,10.7c2.35,7.51,3.43,15.35,4.31,23.15q1.54,13.62,2.59,27.28t1.62,27.22c.38,9.12.84,18.31.67,27.44,0,1.09-.36,1.08-1.39,1.14l-3.48.18-7,.37c-1.68.09-3.94.55-5.34-.64a6.24,6.24,0,0,1-1.71-3.71,46.2,46.2,0,0,1-.52-5.63l-.46-6.68-.95-13.84c-.61-8.86-1.14-17.72-1.86-26.57-.69-8.31-1.69-16.67-4.06-24.7-.6-2-1.3-4-2.08-6a1.51,1.51,0,0,0-2.95.4c-1.42,16.64-2.89,33.28-4.27,49.93-.67,8.11-1,16.18.32,24.25q.48,3,1.23,6c.23.9.48,1.81.74,2.71.2.74.59,1.78.13,2.5-.68,1.05-2.68,1-3.76,1.09-2,.16-4.07.31-6.11.43a347.46,347.46,0,0,1-49.25-.47q-6.12-.49-12.2-1.2l-2.93-.35a3.07,3.07,0,0,1-1.17-.2c-.31-.22-.25-.59-.23-1,.06-2,.31-4.06.47-6.08l2-25.09c.64-8,1.61-16.18,1.13-24.25a57.18,57.18,0,0,0-2-11.76,74.46,74.46,0,0,1-2.67-11.2,21,21,0,0,1,.07-5.66c.31-1.86-2.49-2.71-2.89-.79a452.24,452.24,0,0,0-8.12,56.52c-.76,9.49-1.13,19-1.37,28.51,0,2-.27,3.68-2.51,4.17a32.09,32.09,0,0,1-6.85.6,37.62,37.62,0,0,1-6.94-.69c-.85-.17-1.89-.22-2.19-1.15a9.84,9.84,0,0,1-.12-3c.06-19.4.22-38.81,1.91-58.16.85-9.66,2-19.31,3.33-28.92,1-7.26,2.16-14.6,4.89-21.45A29.19,29.19,0,0,1,62,370.26a62.44,62.44,0,0,1,19.72-8.14c2.06-.47,4.13-.85,6.22-1.17,1.9-.3,1.09-3.19-.8-2.9Z"/>
      <path d="M107,354.5c1.11,18.2,1.13,36.38.92,54.61l-.66,57.19-.37,32.19c0,1.93,3,1.93,3,0l.66-57.15c.21-18.81.67-37.63.51-56.44q-.14-15.21-1.06-30.4c-.12-1.92-3.12-1.93-3,0Z"/>
      <path d="M38.53,500c-.16,2.82-.2,5.64-.09,8.46a6.2,6.2,0,0,0,.82,3.52,4.47,4.47,0,0,0,3.32,1.6,32.29,32.29,0,0,0,8.26-.55c2.32-.35,4.58-1.26,5.38-3.67a9.85,9.85,0,0,0,.23-3.59,4.92,4.92,0,0,1,.39-2.94c1-1.64-1.56-3.15-2.59-1.52a6.48,6.48,0,0,0-.84,3.58,19.7,19.7,0,0,1,.06,3.07,2.21,2.21,0,0,1-1.83,1.86,24.14,24.14,0,0,1-3.79.61,25.52,25.52,0,0,1-4.45.21,3.14,3.14,0,0,1-1.58-.29,1.41,1.41,0,0,1-.34-1.06,67,67,0,0,1,.05-9.29c.11-1.93-2.89-1.92-3,0Z"/>
      <path d="M164.36,500c-.05,3.17-.24,6.37-.16,9.53a3.25,3.25,0,0,0,2.09,3.2,16.84,16.84,0,0,0,4.22.86,42.41,42.41,0,0,0,8.94-.19c1.35-.13,3.23,0,4-1.35s.17-2.9-.06-4.16a37.1,37.1,0,0,0-3.17-9.44c-.85-1.74-3.44-.22-2.59,1.51a34.47,34.47,0,0,1,2.81,8.44c.08.39.15.78.21,1.18a5.45,5.45,0,0,0,.14,1c-.54-.33,1.12-.49,0-.35l-1.23.13c-1.55.15-3.09.29-4.64.34a29.57,29.57,0,0,1-4.61-.16,19.87,19.87,0,0,1-2-.36c-.39-.09-1-.21-1.13-.42a2.37,2.37,0,0,1,0-.84c0-.45,0-.89,0-1.33l.05-2.65.08-5c0-1.93-3-1.93-3,0Z"/>
      <path d="M89.43,364.45a48,48,0,0,1-5.19,3.88,48,48,0,0,1-5.85,2.87,29,29,0,0,0-9.77,6.54A25.3,25.3,0,0,0,62,398.61a25.83,25.83,0,0,0,5.22,12.13,1.51,1.51,0,0,0,2.13,0,1.54,1.54,0,0,0,0-2.12,22.16,22.16,0,0,1,1.62-29,27.57,27.57,0,0,1,9.11-5.89,43.35,43.35,0,0,0,6-3,60.08,60.08,0,0,0,5.43-4.12c1.49-1.22-.64-3.33-2.13-2.12Z"/>
      <path d="M128.1,367c4.12.9,7.61,3.33,10.73,6.09,1.49,1.32,2.91,2.72,4.31,4.14s3.19,3,4.12,5a27.75,27.75,0,0,1,1.88,6.84,47.5,47.5,0,0,1,.74,6.94,49.2,49.2,0,0,1-1.73,14.69,1.5,1.5,0,0,0,2.89.79,52.13,52.13,0,0,0,.72-24.58c-.81-3.81-2-7.14-4.72-10a88.63,88.63,0,0,0-7.77-7.37,25.52,25.52,0,0,0-10.37-5.44c-1.88-.41-2.69,2.48-.8,2.9Z"/>
    </g>
  </g>
</svg>
