<?xml version="1.0" encoding="utf-8"?>
<svg viewBox="0 0 491.29 491.29" width="491.29" height="491.29" style="enable-background:new 0 0 491.29 491.29;" xmlns="http://www.w3.org/2000/svg">
  <path d="M 481.82 390.445 L 248.656 480.813 C 246.354 481.701 243.802 481.701 241.499 480.813 L 6.707 389.814 C 2.585 388.573 -2.399 381.837 1.288 374.943 L 1.288 119.778 C 1.288 115.269 4.049 111.265 8.166 109.789 L 239.209 27.25 C 240.58 26.435 241.637 25.718 244.059 25.386 C 247.453 24.92 249.601 25.906 249.617 25.911 L 484.409 109.789 C 488.526 111.265 491.288 115.269 491.288 119.778 L 491.288 379.919 C 491.374 384.982 485.637 389.045 481.82 390.445 Z M 450.76 379.919 L 245.69 300.434 L 184.148 324.281 L 379.467 407.551 L 450.76 379.919 Z M 351.383 418.437 L 146.135 330.937 L 141.081 280.119 L 102.869 296.05 L 102.869 343.216 L 315.748 432.25 L 351.383 418.437 Z M 245.078 459.639 L 287.474 443.208 L 90.17 360.703 L 39.998 380.152 L 245.078 459.639 Z M 21.706 364.21 L 82.453 340.663 L 82.453 281.79 L 158.616 250.029 L 164.468 308.882 L 236.081 281.124 L 236.081 50.726 L 21.706 127.31 L 21.706 364.21 Z M 470.872 127.311 L 256.497 50.727 L 256.497 281.594 L 470.872 364.678 L 470.872 127.311 Z" style="fill: rgb(255, 255, 255);" transform="matrix(-1, 0, 0, -1, 491.288239, 506.73996)"/>
  <g/>
  <g/>
  <g/>
  <g/>
  <g/>
  <g/>
  <g/>
  <g/>
  <g/>
  <g/>
  <g/>
  <g/>
  <g/>
  <g/>
  <g/>
</svg>