<?xml version="1.0" encoding="UTF-8"?>
<svg width="68px" height="17px" viewBox="0 0 68 17" version="1.1" xmlns="http://www.w3.org/2000/svg" xmlns:xlink="http://www.w3.org/1999/xlink">
    <!-- Generator: Sketch 50.2 (55047) - http://www.bohemiancoding.com/sketch -->
    <title>Group</title>
    <desc>Created with Sketch.</desc>
    <defs></defs>
    <g id="Symbols" stroke="none" stroke-width="1" fill="none" fill-rule="evenodd">
        <g id="Payment/Button/Paypal" transform="translate(-36.000000, -16.000000)">
            <g id="Group" transform="translate(36.000000, 15.000000)">
                <g id="Paypal-light" transform="translate(34.500000, 9.730769) scale(1, -1) translate(-34.500000, -9.730769) ">
                    <path d="M46.2229915,13.8206736 C45.937497,12.0811856 44.5059845,12.0811856 43.1209322,12.0811856 L42.3331289,12.0811856 L42.8859379,15.3289797 C42.9189313,15.5251719 43.1014054,15.6695044 43.3155263,15.6695044 L43.6771078,15.6695044 C44.6197783,15.6695044 45.5099286,15.6695044 45.9691438,15.171526 C46.2438649,14.8734887 46.3266852,14.431119 46.2229915,13.8206736 M45.6203557,18.3593377 L40.3979611,18.3593377 C40.0404196,18.3593377 39.736745,18.1181587 39.6808581,17.7907551 L37.5692762,5.36441266 C37.5275294,5.11948475 37.7322235,4.89767504 37.9988646,4.89767504 L40.6787422,4.89767504 C40.9285499,4.89767504 41.1413241,5.06637538 41.1803776,5.29505807 L41.7796467,8.81839601 C41.8348603,9.14579964 42.1392082,9.38697865 42.4960763,9.38697865 L44.148443,9.38697865 C47.588517,9.38697865 49.5741851,10.931524 50.0926539,13.9937477 C50.3263015,15.3321038 50.1020806,16.3842941 49.4267245,17.1209522 C48.6840348,17.9307139 47.3676628,18.3593377 45.6203557,18.3593377" id="Shape" fill="#0079C1"></path>
                    <path d="M8.97424178,13.8206736 C8.68874729,12.0811856 7.25723479,12.0811856 5.87218249,12.0811856 L5.08437928,12.0811856 L5.6371882,15.3289797 C5.67018166,15.5251719 5.85265574,15.6695044 6.06677661,15.6695044 L6.42835808,15.6695044 C7.37102859,15.6695044 8.26117888,15.6695044 8.72039408,15.171526 C8.9951152,14.8734887 9.07793554,14.431119 8.97424178,13.8206736 M8.371606,18.3593377 L3.1492114,18.3593377 C2.79166994,18.3593377 2.48799537,18.1181587 2.43210848,17.7907551 L0.320526546,5.36441266 C0.27877971,5.11948475 0.482800541,4.89767504 0.750114962,4.89767504 L3.24415178,4.89767504 C3.6010199,4.89767504 3.90469447,5.13885405 3.96058137,5.46563286 L4.53089702,8.81839601 C4.58611058,9.14579964 4.89045849,9.38697865 5.24732661,9.38697865 L6.89969334,9.38697865 C10.3397673,9.38697865 12.3254354,10.931524 12.8439042,13.9937477 C13.0775518,15.3321038 12.8533309,16.3842941 12.1779748,17.1209522 C11.4352851,17.9307139 10.1189131,18.3593377 8.371606,18.3593377" id="Shape" fill="#00457C"></path>
                    <path d="M20.4958974,9.35961171 C20.2541697,8.03375196 19.1202718,7.14338903 17.6732725,7.14338903 C16.9480896,7.14338903 16.3670006,7.36020021 15.9939724,7.77007957 C15.6243109,8.17621003 15.4849303,8.75541455 15.6020908,9.39959994 C15.826985,10.714213 16.9797364,11.6326926 18.4045155,11.6326926 C19.1148851,11.6326926 19.6912608,11.414007 20.0716956,11.0003788 C20.4548239,10.5836264 20.6056511,10.0012978 20.4958974,9.35961171 M23.9810849,13.8764072 L21.4803147,13.8764072 C21.2661938,13.8764072 21.0837198,13.7320747 21.050053,13.5352576 L20.9402992,12.8866985 L20.7659051,13.1216294 C20.2238696,13.8507898 19.016578,14.0950929 17.8113064,14.0950929 C15.0486085,14.0950929 12.6885656,12.1519148 12.2293504,9.42709184 C11.9903161,8.06749203 12.3296774,6.76849938 13.1605742,5.86189123 C13.9234639,5.02901138 15.0122484,4.68223845 16.309767,4.68223845 C18.5371627,4.68223845 19.7720611,6.00934783 19.7720611,6.00934783 L19.6602873,5.36453762 C19.6185405,5.11960971 19.8225613,4.8978 20.090549,4.8978 L22.3421849,4.8978 C22.6997263,4.8978 23.0034009,5.13835419 23.0592878,5.46575783 L24.4113466,13.4096696 C24.4530935,13.6545975 24.2483993,13.8764072 23.9810849,13.8764072" id="Shape" fill="#00457C"></path>
                    <path d="M57.7447144,9.35961171 C57.5029867,8.03375196 56.3690888,7.14338903 54.9220895,7.14338903 C54.1969066,7.14338903 53.6158176,7.36020021 53.2427894,7.77007957 C52.8724545,8.17621003 52.7337473,8.75541455 52.8509078,9.39959994 C53.075802,10.714213 54.2285534,11.6326926 55.6533325,11.6326926 C56.3637021,11.6326926 56.9400778,11.414007 57.3205126,11.0003788 C57.7036409,10.5836264 57.8544682,10.0012978 57.7447144,9.35961171 M61.2299019,13.8764072 L58.7291317,13.8764072 C58.5150108,13.8764072 58.3325368,13.7320747 58.29887,13.5352576 L58.1891162,12.8866985 L58.0140488,13.1216294 C57.4726866,13.8507898 56.265395,14.0950929 55.0601234,14.0950929 C52.2974255,14.0950929 49.9373826,12.1519148 49.4781674,9.42709184 C49.2391331,8.06749203 49.5784945,6.76849938 50.4093912,5.86189123 C51.1722809,5.02901138 52.2610654,4.68223845 53.558584,4.68223845 C55.7859797,4.68223845 57.0208781,6.00934783 57.0208781,6.00934783 L56.9091043,5.36453762 C56.8673575,5.11960971 57.0713783,4.8978 57.3393661,4.8978 L59.5910019,4.8978 C59.9485433,4.8978 60.2522179,5.13835419 60.3081048,5.46575783 L61.6601636,13.4096696 C61.7019105,13.6545975 61.4972163,13.8764072 61.2299019,13.8764072" id="Shape" fill="#0079C1"></path>
                    <path d="M37.3001438,13.8763447 L34.7865802,13.8763447 C34.5461992,13.8763447 34.321305,13.7657523 34.1866378,13.5808067 L30.718957,8.8422015 L29.2497377,13.3958612 C29.1574906,13.6807773 28.8746895,13.8763447 28.5541815,13.8763447 L26.0837115,13.8763447 C25.7854236,13.8763447 25.5753427,13.6039249 25.6716298,13.342127 L28.439041,5.80309603 L25.8359238,2.39472426 C25.6319029,2.12730297 25.8379438,1.75741184 26.1914452,1.75741184 L28.7023154,1.75741184 C28.9400031,1.75741184 29.1628773,1.86550503 29.2988912,2.04670169 L37.6576852,13.2421564 C37.8576661,13.5102025 37.6516252,13.8763447 37.3001438,13.8763447" id="Shape" fill="#00457C"></path>
                    <path d="M64.1773632,18.0178757 L62.0341345,5.36410025 C61.9923877,5.11917234 62.1964085,4.89736263 62.4637229,4.89736263 L64.619745,4.89736263 C64.9766132,4.89736263 65.2809611,5.13854164 65.3361746,5.46594527 L67.4497766,17.8922877 C67.4915234,18.1372156 67.2875026,18.3590253 67.0195148,18.3590253 L64.607625,18.3590253 C64.3928308,18.3590253 64.2103567,18.2146928 64.1773632,18.0178757" id="Shape" fill="#0079C1"></path>
                </g>
            </g>
        </g>
    </g>
</svg>