<?xml version="1.0" encoding="UTF-8"?>
<svg width="61px" height="33px" viewBox="0 0 61 33" version="1.1" xmlns="http://www.w3.org/2000/svg" xmlns:xlink="http://www.w3.org/1999/xlink">
    <!-- Generator: sketchtool 63.1 (101010) - https://sketch.com -->
    <title>614D10F9-35A9-46E7-8BD3-F11B5D13E56C</title>
    <desc>Created with sketchtool.</desc>
    <g id="4.-Team-Store" stroke="none" stroke-width="1" fill="none" fill-rule="evenodd">
        <g id="1.-Fixed-Date-Team-Store" transform="translate(-216.000000, -707.000000)">
            <g id="On-Demand" transform="translate(114.000000, 249.000000)">
                <g id="paypal" transform="translate(102.000000, 458.000000)">
                    <rect id="Rectangle" stroke="#DCDCDC" stroke-width="0.5" fill="#FFFFFF" x="0.25" y="0.25" width="60.5" height="32.5" rx="2"></rect>
                    <g id="Paypal-light" transform="translate(30.500000, 16.500000) scale(1, -1) translate(-30.500000, -16.500000) translate(11.000000, 11.000000)" fill="#8C8C8C">
                        <path d="M26.2600183,7.52183829 C26.0978244,6.44926861 25.2845593,6.44926861 24.497689,6.44926861 L24.0501254,6.44926861 L24.364185,8.45186099 C24.3829291,8.57283329 24.4865955,8.66182883 24.608241,8.66182883 L24.8136612,8.66182883 C25.3492074,8.66182883 25.8549159,8.66182883 26.1158034,8.35477494 C26.2718769,8.17100492 26.3189284,7.89823936 26.2600183,7.52183829 M25.9176513,10.3203822 L22.9507257,10.3203822 C22.7476007,10.3203822 22.5750783,10.171671 22.5433281,9.96979365 L21.3437048,2.30770108 C21.3199877,2.15667834 21.4362777,2.0199103 21.5877608,2.0199103 L23.110242,2.0199103 C23.2521617,2.0199103 23.3730421,2.12393106 23.395229,2.26493699 L23.7356833,4.43742995 C23.767051,4.63930729 23.9399559,4.78801846 24.1426984,4.78801846 L25.0814343,4.78801846 C27.0357952,4.78801846 28.1638849,5.74038636 28.4584352,7.62855589 C28.5911742,8.4537873 28.4637907,9.10256867 28.0801102,9.55679268 C27.6581763,10.0560924 26.9103244,10.3203822 25.9176513,10.3203822" id="Shape"></path>
                        <path d="M5.09840982,7.52183829 C4.93621585,6.44926861 4.12295078,6.44926861 3.33608048,6.44926861 L2.88851692,6.44926861 L3.20257648,8.45186099 C3.2213206,8.57283329 3.32498703,8.66182883 3.44663251,8.66182883 L3.65205271,8.66182883 C4.18759885,8.66182883 4.69330742,8.66182883 4.9541949,8.35477494 C5.11026835,8.17100492 5.1573199,7.89823936 5.09840982,7.52183829 M4.75604283,10.3203822 L1.7891172,10.3203822 C1.5859922,10.3203822 1.41346983,10.171671 1.3817196,9.96979365 L0.182096241,2.30770108 C0.158379197,2.15667834 0.274286684,2.0199103 0.426152268,2.0199103 L1.84305435,2.0199103 C2.04579682,2.0199103 2.21831918,2.16862147 2.25006942,2.37011354 L2.57407483,4.43742995 C2.60544253,4.63930729 2.77834743,4.78801846 2.9810899,4.78801846 L3.91982578,4.78801846 C5.87418666,4.78801846 7.00227636,5.74038636 7.29682674,7.62855589 C7.42956567,8.4537873 7.3021822,9.10256867 6.91850164,9.55679268 C6.49656779,10.0560924 5.74871585,10.3203822 4.75604283,10.3203822" id="Shape"></path>
                        <path d="M11.644046,4.77114398 C11.5067167,3.95361781 10.8625312,3.40461932 10.0404679,3.40461932 C9.62847988,3.40461932 9.29835394,3.53830527 9.08643068,3.79103721 C8.87642008,4.04145757 8.79723576,4.39859553 8.8637965,4.79580075 C8.9915625,5.6063922 9.64645893,6.17272748 10.4558987,6.17272748 C10.8594709,6.17272748 11.1869192,6.03788575 11.4030503,5.78284224 C11.6207115,5.52587242 11.7063989,5.16680815 11.644046,4.77114398 M13.6240366,7.55620367 L12.2033092,7.55620367 C12.0816637,7.55620367 11.9779973,7.46720812 11.9588707,7.34585056 L11.8965178,6.94594851 L11.7974418,7.09080706 C11.4895027,7.54040792 10.8036211,7.6910454 10.1188871,7.6910454 C8.5493544,7.6910454 7.20857638,6.49288028 6.94768891,4.81275228 C6.81188971,3.97442196 7.00468632,3.17346207 7.47673199,2.61444676 C7.91014183,2.10089239 8.52869762,1.88707193 9.26583864,1.88707193 C10.5312577,1.88707193 11.2328231,2.70536862 11.2328231,2.70536862 L11.1693226,2.30777814 C11.1456056,2.1567554 11.2615131,2.01998735 11.4137612,2.01998735 L12.6929514,2.01998735 C12.8960764,2.01998735 13.0685988,2.16831326 13.100349,2.3701906 L13.8684752,7.26841288 C13.8921922,7.41943562 13.7759022,7.55620367 13.6240366,7.55620367" id="Shape"></path>
                        <path d="M32.8056928,4.77114398 C32.6683635,3.95361781 32.024178,3.40461932 31.2021146,3.40461932 C30.7901266,3.40461932 30.4600007,3.53830527 30.2480774,3.79103721 C30.0376843,4.04145757 29.9588825,4.39859553 30.0254433,4.79580075 C30.1532093,5.6063922 30.8081057,6.17272748 31.6175454,6.17272748 C32.0211177,6.17272748 32.3485659,6.03788575 32.564697,5.78284224 C32.7823583,5.52587242 32.8680457,5.16680815 32.8056928,4.77114398 M34.7856834,7.55620367 L33.364956,7.55620367 C33.2433105,7.55620367 33.1396441,7.46720812 33.1205174,7.34585056 L33.0581646,6.94594851 L32.958706,7.09080706 C32.6511495,7.54040792 31.9652679,7.6910454 31.2805339,7.6910454 C29.7110012,7.6910454 28.3702231,6.49288028 28.1093357,4.81275228 C27.9735365,3.97442196 28.1663331,3.17346207 28.6383788,2.61444676 C29.0717886,2.10089239 29.6903444,1.88707193 30.4274854,1.88707193 C31.6929044,1.88707193 32.3944699,2.70536862 32.3944699,2.70536862 L32.3309694,2.30777814 C32.3072524,2.1567554 32.4231598,2.01998735 32.575408,2.01998735 L33.8545982,2.01998735 C34.0577232,2.01998735 34.2302455,2.16831326 34.2619958,2.3701906 L35.030122,7.26841288 C35.053839,7.41943562 34.937549,7.55620367 34.7856834,7.55620367" id="Shape"></path>
                        <path d="M21.1908063,7.55616514 L19.7628108,7.55616514 C19.6262465,7.55616514 19.4984805,7.48797375 19.4219739,7.37393617 L17.4519292,4.45210844 L16.6172423,7.25989859 C16.5648353,7.43557811 16.4041714,7.55616514 16.2220857,7.55616514 L14.8185723,7.55616514 C14.6491102,7.55616514 14.5297599,7.38819087 14.5844621,7.22676605 L16.1566726,2.5781936 L14.6778002,0.476588869 C14.5618927,0.311696692 14.6789478,0.0836215313 14.8797776,0.0836215313 L16.306243,0.0836215313 C16.4412771,0.0836215313 16.5678955,0.150271874 16.6451672,0.261997882 L21.3939313,7.16512411 C21.5075436,7.33040155 21.3904885,7.55616514 21.1908063,7.55616514" id="Shape"></path>
                        <path d="M36.4601832,10.1098364 L35.2425808,2.30750845 C35.2188637,2.15648571 35.3347712,2.01971767 35.4866368,2.01971767 L36.7115073,2.01971767 C36.9142498,2.01971767 37.0871547,2.16842884 37.1185224,2.37030617 L38.3192933,10.0323987 C38.3430104,10.1834215 38.2271029,10.3201895 38.0748548,10.3201895 L36.7046217,10.3201895 C36.5825937,10.3201895 36.4789273,10.231194 36.4601832,10.1098364" id="Shape"></path>
                    </g>
                </g>
            </g>
        </g>
    </g>
</svg>