<svg version="1.1" id="Design" xmlns="http://www.w3.org/2000/svg" xmlns:xlink="http://www.w3.org/1999/xlink" x="0px" y="0px" width="4038.6px" height="1516.6px" viewBox="0 0 4038.6 1516.6" style="enable-background:new 0 0 4038.6 1516.6;" xml:space="preserve"><g><g><g><path d="M586.8,890.3c0,2.4,1.1,4.6,3,6.1c1.3,1,3,1.6,4.6,1.6c0.7,0,1.4-0.1,2.1-0.3c3-0.8,6-1.6,9-2.5
				c13.7-3.8,28-7.7,41.8-12.1c0.7-0.2,1.6-0.5,3.1-1l15.6-5.3c16.2-5.4,32.8-10.6,49.2-15.6l18.4-5.5c3.3-1,5.5-4,5.5-7.5
				l-2.5-171.9c0,0,0,0,0-0.1c-0.5-22.3-1.2-44.3-2-68.9c0-1.1-0.3-8-1.7-52.8c-0.5-24.6-0.4-46.1,0.2-65.6
				c0.5-12.5,1.4-25.1,2.5-37.5c2-15.7,4.6-31.7,7.7-47.4c3-14,6.4-26.5,10.5-38.3c0.3-0.9,1.3-3.7,4.5-12.4
				c0.6-1.5,0.6-3.2,0.2-4.7l-6-20.3c-1.2-4.1-5.4-6.4-9.5-5.2l-21.5,6.3c-8.6,2.5-17.7,4.2-24.7,5.4c-9.7,1.5-19.5,2.7-29,3.6
				c-2.8,0.2-45.6,2.3-45.6,2.3c-2.8,0.2-5.2,1.8-6.5,4.2l-5.7,11.4c0,0,0,0.1,0,0.1l-1.2,2.5c0,0,0,0.1,0,0.1l-1.1,2.5
				c-3.4,7.2-6.4,15.4-8.9,24.4c-2.9,10.1-5.1,21.2-7.1,35c-1.7,11.9-2.9,23.9-3.6,35.9c0,0,0,0.1,0,0.1c0,0.3-0.5,11.2-0.5,11.2v0
				c-0.8,19.6-1.2,39.8-1.3,61.7c0,23.5,0.2,46.9,0.6,69.5L586.8,890.3z M601.4,529.6c0.1-21.7,0.5-41.7,1.3-61.2
				c0.3-7.9,0.5-10.3,0.5-11.1c0.7-11.5,1.8-23.2,3.5-34.6c1.9-13.1,4-23.6,6.7-32.9c2.3-8.2,5.1-15.6,8.1-22.1l1.1-2.5l1.1-2.4
				l3.7-7.4c33.1-1.6,39.9-2,41.6-2.1v0c10-0.9,20.2-2.1,30.3-3.7c0,0,0,0,0.1,0c7.4-1.3,17.1-3,26.5-5.8l14.1-4.1l3.1,10.5
				c-1.3,3.7-3.7,10.2-3.7,10.3c0,0,0,0.1,0,0.1c-4.3,12.4-7.9,25.5-11,40.1c0,0,0,0.1,0,0.1c-3.3,16.1-5.9,32.5-7.9,48.7
				c0,0.1,0,0.2,0,0.2c-1.1,12.6-2,25.6-2.6,38.4c0,0,0,0,0,0.1c-0.7,19.8-0.7,41.5-0.2,66.5c0,0,0,0.1,0,0.1c0,0,1.7,52.7,1.7,52.8
				c0.8,24.4,1.5,46.5,2,68.7l2.4,166.1l-12.9,3.8c-16.5,5-33.2,10.3-49.6,15.7h0c0,0-17.2,5.9-18.5,6.3c-13.4,4.2-27.2,8-40.5,11.8
				l0-281.2c0,0,0-0.1,0-0.2C601.5,576.3,601.3,553,601.4,529.6z"></path><path d="M816.3,1191.6l-17.2-8.5c-2.6-1.4-5.2-2.9-7.7-4.5c-5.4-3.7-10.9-8.1-16.8-13.6c-4.5-4.4-8.7-10.4-13.2-19
				c-4.6-9.3-7.9-20.1-10.1-33.2c-1.1-7.5-1.4-15.9-0.9-26.4c0.5-7.6,1.3-15.2,2.5-22.7c1.8-10.3,4-20.7,6.9-32
				c2.2-8.5,4.7-17,7.4-25.4l6.1-18.3c1.2-3.6-0.5-7.6-3.9-9.3c-1.5-0.8-3-1.5-4.6-2.3c-7.7-3.7-15.7-7.6-23.2-11.7
				c-5.7-3.3-10.8-6.5-15.6-9.8c-5.7-4.1-10.2-7.7-13.8-11.1c-0.2-0.2-19-17.9-19-17.9c-1.7-1.6-4.1-2.3-6.5-2
				c-2.3,0.4-4.4,1.8-5.5,3.9l-41.9,76.9c-10,18-21.8,39.1-34.2,59.7c-6.5,10.6-13.3,21-20.2,31c-5.7,8-11.8,15.8-18,23.4
				c-5.4,6.3-11.2,12.8-17.3,19.3c-6,6.2-12.8,12.8-21.3,20.7c-0.1,0-0.1,0.1-0.2,0.1c-10.5,10.3-18.4,20.7-24.1,31.7
				c0,0.1-0.1,0.2-0.1,0.2l-2.5,5c0,0.1-0.1,0.2-0.1,0.2c-3.9,8.7-6.7,18.2-8.2,28.2c-0.1,0.5-0.1,1-0.1,1.5l3.2,82.4l0.8,19l1.4,35
				c0.2,4.1,3.6,7.4,7.7,7.3l44.5-0.5l27.4-0.2l27.4-0.1l27.3,0l29.3,0.1l29.3,0.2l29.3,0.3l45,0.6c1.9,0,3.6-0.7,5-1.8
				c1.4-1.2,2.4-2.9,2.7-4.8l2.6-18.9c2.7-18.4,5.9-34.5,9.6-49.5c3.7-14.7,7.6-28,12-40.6c3.5-10.1,7.9-21,13.4-33.3l8.9-19.3
				C821.7,1197.9,820.1,1193.4,816.3,1191.6z M797,1214.6C797,1214.6,797,1214.6,797,1214.6c-5.8,12.8-10.3,24.1-14,34.7
				c-4.5,13.1-8.5,26.8-12.3,41.9c-3.9,15.5-7.1,32.2-9.9,51l0,0.1l-1.7,12.2l-38.3-0.5l-29.4-0.3l-29.4-0.2l-29.4-0.1l-27.4,0
				l-27.4,0.1l-27.4,0.2l-37.1,0.4l-1.1-27.6l-0.8-19l-3.2-81.6c1.4-8.3,3.7-16.2,6.9-23.5c1.5-3,2.1-4.2,2.3-4.7
				c5-9.5,12-18.6,21.2-27.8c8.6-8.1,15.6-14.8,21.8-21.2c0,0,0.1,0,0.1-0.1c6.3-6.7,12.4-13.4,18-19.9c0,0,0.1,0,0.1-0.1
				c6.5-7.8,12.8-16.1,18.8-24.4c0,0,0-0.1,0.1-0.1c7.1-10.3,14.1-21,20.7-31.8c0,0,0,0,0-0.1c12.5-20.8,24.4-42.1,34.5-60.2
				c0,0,0,0,0-0.1l37.2-68.3l8.8,8.3c1.4,1.3,2.3,2.2,3,2.8l0,0c4.1,3.9,9.1,7.9,15.5,12.4c0,0,0.1,0.1,0.1,0.1
				c5.2,3.5,10.6,6.9,16.7,10.5c0,0,0.1,0,0.1,0.1c7.4,4.1,15.1,7.8,22.6,11.4c-3.2,9.5-3.9,11.5-4,12c-2.8,8.7-5.4,17.5-7.7,26.3
				l0,0.1c-2.9,11.7-5.3,22.6-7.2,33.2c0,0.1,0,0.1,0,0.1c-1.3,8-2.2,16.2-2.7,24.4c0,0.1,0,0.1,0,0.1c-0.5,11.5-0.2,20.9,1.1,29.5
				c0,0.1,0,0.1,0,0.1c2.5,14.7,6.2,27,11.5,37.7c0,0,0,0.1,0,0.1c5.3,10.1,10.4,17.5,16.2,23c0,0,0,0.1,0.1,0.1
				c6.5,6.1,12.6,11,18.7,15.2c0,0.1,0.1,0.1,0.2,0.1c2.9,1.9,6,3.7,9,5.3c0.1,0,0.1,0.1,0.2,0.1l10.6,5.2L797,1214.6z"></path><path d="M520.3,1101l1.4-35l0.8-19l3.2-82.4c0-0.5,0-1-0.1-1.5c-1.5-10-4.3-19.5-8.2-28.2c0-0.1-0.1-0.2-0.1-0.2l-2.5-5
				c-0.1,0-0.1-0.1-0.1-0.2c-5.7-11-13.6-21.4-24.1-31.7c-0.1,0-0.1-0.1-0.2-0.1c-8.5-7.9-15.3-14.5-21.3-20.7
				c-6.1-6.5-11.9-12.9-17.3-19.3c-6.3-7.6-12.3-15.5-18-23.4c-6.9-10-13.7-20.5-20.2-31c-12.3-20.6-24.2-41.7-34.2-59.7l-41.9-76.9
				c-1.1-2.1-3.2-3.6-5.5-3.9c-2.3-0.4-4.7,0.3-6.5,2c0,0-18.8,17.7-19,17.9c-3.6,3.4-8.1,7-13.8,11.1c-4.8,3.3-9.9,6.5-15.6,9.8
				c-7.5,4.1-15.5,8-23.2,11.7c-1.5,0.8-3,1.5-4.6,2.3c-3.4,1.7-5.1,5.6-3.9,9.3l6.1,18.3c2.7,8.4,5.2,16.9,7.4,25.4
				c2.9,11.3,5.1,21.8,6.9,32c1.2,7.5,2,15.1,2.5,22.7c0.5,10.5,0.2,18.9-0.9,26.4c-2.2,13.1-5.5,24-10.1,33.2
				c-4.5,8.6-8.7,14.6-13.2,19c-5.9,5.5-11.4,9.9-16.8,13.6c-2.5,1.6-5.1,3.1-7.7,4.5l-17.2,8.5c-3.7,1.8-5.3,6.3-3.6,10.1l8.9,19.3
				c5.5,12.3,9.9,23.2,13.4,33.3c4.4,12.6,8.3,25.9,12,40.6c3.7,15,6.9,31.2,9.6,49.5l2.6,18.9c0.3,2,1.2,3.6,2.7,4.8
				c1.4,1.1,3.1,1.8,5,1.8l45-0.6l29.3-0.3l29.3-0.2l29.3-0.1l27.3,0l27.4,0.1l27.4,0.2l44.5,0.5
				C516.6,1108.4,520.1,1105.2,520.3,1101z M507.1,1046.4l-0.8,19l-1.1,27.6l-37.1-0.4l-27.4-0.2l-27.4-0.1l-27.4,0l-29.4,0.1
				l-29.4,0.2l-29.4,0.3l-38.3,0.5l-1.7-12.2l0-0.1c-2.8-18.9-6.1-35.5-9.9-51c-3.8-15.2-7.8-28.9-12.3-41.9
				c-3.7-10.6-8.2-21.9-14-34.6c0,0,0-0.1,0-0.1l-5.8-12.5l10.6-5.2c0.1,0,0.1-0.1,0.2-0.1c3.1-1.6,6.1-3.4,9-5.3
				c0-0.1,0.1-0.1,0.2-0.1c6.1-4.2,12.3-9.1,18.7-15.2c0-0.1,0.1-0.1,0.1-0.1c5.8-5.6,10.9-12.9,16.2-23c0,0,0-0.1,0-0.1
				c5.3-10.7,9.1-23,11.5-37.7c0-0.1,0-0.1,0-0.1c1.3-8.6,1.6-17.9,1.1-29.5c0-0.1,0-0.1,0-0.1c-0.5-8.1-1.4-16.3-2.7-24.4
				c0-0.1,0-0.1,0-0.1c-1.9-10.7-4.2-21.5-7.2-33.2l0-0.1c-2.3-8.8-4.9-17.6-7.7-26.3c-0.1-0.5-0.8-2.5-4-12
				c7.5-3.6,15.1-7.3,22.6-11.4c0,0,0.1,0,0.1-0.1c6.1-3.5,11.6-6.9,16.7-10.5c0,0,0.1-0.1,0.1-0.1c6.3-4.5,11.4-8.6,15.5-12.4l0,0
				c0.7-0.6,1.6-1.4,3-2.8l8.8-8.3l37.2,68.3c0,0,0,0.1,0,0.1c10.1,18.1,22,39.4,34.5,60.2c0,0.1,0,0.1,0,0.1
				c6.6,10.8,13.6,21.5,20.7,31.8c0,0,0,0.1,0.1,0.1c6,8.3,12.3,16.5,18.8,24.4c0,0,0.1,0,0.1,0.1c5.6,6.5,11.6,13.2,18,19.9
				c0,0,0.1,0,0.1,0.1c6.2,6.4,13.1,13.1,21.8,21.2c9.3,9.2,16.2,18.2,21.2,27.8c0.3,0.5,0.9,1.7,2.3,4.7c3.2,7.2,5.6,15.1,6.9,23.5
				L507.1,1046.4z"></path><path d="M370.4,212c4,11.8,7.5,24.3,10.5,38.3c3.1,15.7,5.7,31.6,7.7,47.4c1.1,12.4,2,25,2.5,37.5c0.7,19.5,0.7,41,0.2,65.6
				c-1.5,44.8-1.7,51.7-1.7,52.8c-0.8,24.5-1.5,46.5-2,68.9c0,0,0,0,0,0.1l-2.5,171.9c0,3.4,2.2,6.5,5.5,7.5l18.4,5.5
				c16.4,4.9,33,10.2,49.2,15.6l15.6,5.3c1.5,0.5,2.4,0.8,3.1,1c13.9,4.4,28.1,8.3,41.8,12.1c3,0.8,6,1.6,9,2.5
				c0.7,0.2,1.4,0.3,2.1,0.3c1.6,0,3.3-0.5,4.6-1.6c1.9-1.5,3-3.7,3-6.1l0-291.2c0.5-22.6,0.7-46,0.6-69.5
				c-0.2-21.9-0.6-42.1-1.4-61.7v0c-0.3-7.6-0.5-10.3-0.5-11.3c-0.7-11.9-1.9-24-3.6-35.9c-2-13.8-4.3-24.9-7.1-35
				c-2.6-9-5.6-17.2-8.9-24.4l-1.1-2.5c0,0,0-0.1,0-0.1l-1.2-2.5c0,0,0-0.1,0-0.1l-5.7-11.4c-1.2-2.5-3.7-4.1-6.5-4.2
				c-35.5-1.8-43.6-2.1-45.5-2.3c-9.7-0.8-19.5-2.1-29.1-3.6c-7-1.2-16.1-2.8-24.7-5.4l-21.5-6.3c-4.1-1.2-8.3,1.1-9.5,5.2
				l-5.9,20.3c-0.5,1.6-0.4,3.2,0.2,4.7C365.9,199.5,370.1,211.1,370.4,212z M384.2,186.2l14.1,4.1c9.4,2.8,19.1,4.6,26.5,5.8
				c0,0,0,0,0.1,0c10.1,1.6,20.3,2.8,30.3,3.7c0.1,0,0.2,0,0.3,0c0.2,0,29.8,1.5,41.3,2l3.7,7.4l1.1,2.4l1.1,2.5
				c3,6.5,5.7,13.9,8.1,22.1c2.7,9.4,4.8,19.8,6.7,32.9c1.6,11.4,2.8,23.1,3.5,34.5c0,0.8,0.5,10.6,0.5,11.1
				c0.8,19.4,1.2,39.4,1.3,61.1c0,23.4-0.3,46.6-0.7,69.1c0,0,0,0.1,0,0.2l0,281.2c-13.4-3.7-27.2-7.5-40.5-11.8
				c-1.3-0.4-18.5-6.3-18.5-6.3h0c-16.4-5.4-33.1-10.7-49.7-15.7l-12.9-3.8l2.4-166.1c0.5-22.2,1.2-44.3,2-68.7
				c0-0.2,1.7-52.8,1.7-52.8c0,0,0-0.1,0-0.1c0.5-24.9,0.4-46.7-0.2-66.5c0,0,0,0,0-0.1c-0.5-12.8-1.4-25.7-2.6-38.4
				c0-0.1,0-0.2,0-0.2c-2-16.2-4.7-32.6-7.9-48.7c0,0,0-0.1,0-0.1c-3.1-14.6-6.7-27.8-11-40.1c-0.3-0.9-1.1-3.2-3.8-10.3
				L384.2,186.2z"></path><path d="M775.1,235.8c7.5,7.5,16.6,14.5,27,20.8c10.3,6.2,21.2,11.2,32.5,15c11.2,3.7,23.9,6.7,37.8,8.8c0.1,0,5.4,0.8,5.4,0.8
				c0,0,0.1,0,0.2,0c20.5,2.8,37.3,4,52.6,4.1l60.7,0.1l57.2,0c0,0,0.1,0,0.1,0c18.1-0.3,32.9-1.2,46.4-2.9
				c18.2-2.3,32-4.9,44.9-8.5c9.7-2.8,22.4-6.8,34.3-13.6c10.9-6.3,21.3-13.8,31-22.4c0,0,0.1-0.1,0.2-0.2l16.9-15.9
				c1.5-1.5,2.4-3.4,2.4-5.6c0-2.1-0.8-4.1-2.4-5.6l-14.9-14.2c-9.9-9.9-22-18.6-34.9-25.4c-12.3-6.4-25.9-11.3-40.6-14.7
				c-14.3-3.3-29.5-5.8-46.6-7.5c-11.7-1.2-23.4-1.6-33.2-1.8c0,0-0.1,0-0.2,0l-60.7-0.1l-57.3,0c0,0-0.1,0-0.1,0
				c-17.6,0.3-35.4,1.5-52.9,3.7c0,0-0.1,0-0.1,0c-12.8,1.8-25.6,4.4-38.1,7.7c0,0-0.1,0-0.2,0c-14.1,4-26.5,9.2-38,15.8
				c-0.1,0-0.2,0.1-0.2,0.1c-9.5,5.9-18.6,12.7-27,20.1c0,0-0.1,0.1-0.2,0.2l-16.9,15.9c-1.5,1.5-2.4,3.4-2.4,5.6s0.8,4.1,2.4,5.6
				L775.1,235.8z M787.6,205.9c7.7-6.8,16.1-13,24.8-18.5c10.3-6,21.6-10.6,34.3-14.2c11.9-3.1,24.1-5.6,36.2-7.3
				c16.9-2.1,34.1-3.3,51.1-3.6l57.2,0c53.8,0.1,59.9,0.1,60.7,0.1c9.5,0.2,20.8,0.6,31.9,1.7c16.4,1.6,31,4,44.7,7.2
				c13.6,3.1,25.7,7.5,37,13.4c11.6,6.1,22.4,13.9,31.2,22.7c0,0,0.1,0.1,0.2,0.1l9.1,8.7l-10.9,10.3c-8.9,7.9-18.5,14.8-28.5,20.5
				c-10.4,6-21.9,9.7-30.8,12.1c-12.1,3.4-25.3,5.9-42.6,8.1c-12.9,1.6-27.2,2.5-44.7,2.8l-57.2,0l-60.7-0.1
				c-14.6,0-30.7-1.3-50.5-3.9c-0.6-0.1-5.1-0.8-5.3-0.8c-13.1-2-25-4.7-35.4-8.2c-10.2-3.4-20.1-7.9-29.4-13.6
				c-9.2-5.6-17.6-12-24.2-18.6c0,0-0.1-0.1-0.1-0.1l-9.1-8.7C784.6,208.7,786.9,206.6,787.6,205.9z"></path><path d="M1294.1,1160.4c1.2-1.7,2.5-3.3,3.8-5c37.6-51.4,51.2-108.5,38.4-170.8c-10.4-50.6-37.9-93.6-75.5-123.9
				c0.1-2.5,0.3-5,0.4-7.5c1.7-28.1,4.1-56.1,5.9-77.4c2.3-25.5,4.9-52.3,7.7-79.7c3.1-29,6.4-58.5,9.8-87.7l3-24.7
				c0.3-2.8-0.8-5.4-3-7l-9.3-7.1c-3.6-2.9-6.8-6.5-10.4-11.1c-3.8-4.9-7.3-9.9-10.5-14.9l-11.8-21.1c-4.9-10-10.3-20.2-16-30.2
				c0,0,0-0.1,0-0.1c-6.4-10.9-13.3-22.4-20.8-32.9c-6.1-8.4-13.4-18.3-22-27.6c0,0-0.1-0.1-0.1-0.2c-7.8-8.1-16.2-15.8-24.9-22.9
				c0,0-0.1-0.1-0.1-0.1c-9.2-7.2-19-13.8-28.9-19.8c0,0-0.1,0-0.1-0.1l-20.4-11.6c-1.8-1-4-1.3-6.1-0.7c-2,0.6-3.7,2.1-4.6,4
				l-9.2,19.1c-2,3.9-4.1,7.8-6.4,11.5c-3.1,4.9-6.4,9.3-10,13.3c-4.8,5-9.3,9-14,12.1c-2.8,1.8-6.1,3.2-9.8,4.3
				c-2.4,0.7-4.9,1.3-7.5,1.8c-2.5-0.5-5.1-1.1-7.5-1.8c-3.8-1.1-7-2.6-9.8-4.3c-4.6-3.1-9.2-7.1-14-12.1c-3.6-4.1-6.8-8.4-10-13.3
				c-2.3-3.7-4.5-7.6-6.4-11.5l-9.2-19.1c-0.9-1.9-2.6-3.4-4.6-4c-2-0.6-4.2-0.4-6.1,0.7l-20.4,11.6c0,0-0.1,0-0.1,0.1
				c-10,6-19.7,12.6-28.9,19.8c0,0-0.1,0.1-0.1,0.1c-8.7,7.1-17.1,14.8-24.9,22.9c0,0-0.1,0.1-0.1,0.2c-8.6,9.4-15.9,19.2-22,27.6
				c-7.5,10.5-14.5,22-20.8,32.9c0,0,0,0.1,0,0.1c-5.7,10-11,20.2-16,30.2l-11.8,21.1c-3.2,5-6.7,10-10.5,14.9
				c-3.6,4.5-6.7,8.2-10.4,11.1l-9.3,7.1c-2.2,1.6-3.3,4.3-3,7l3,24.7c3.4,29.2,6.8,58.7,9.8,87.7c2.8,27.5,5.4,54.3,7.7,79.7
				c1.9,21.3,4.2,49.2,5.9,77.4c1.3,24.1,2.3,48.6,2.8,72.7c0.7,40.5,1.4,86.4,1,130.9l-0.6,40.7c0,2.4,1,4.7,2.9,6.1
				c1.9,1.5,4.3,2,6.7,1.4l59.4-15.4c0,0,0,0,0.1,0c5.5-1.5,11.1-2.9,16.6-4.3c3.8,13.1,8.9,25.8,15.4,38
				c41.7,78.1,108.2,117.3,196.5,119.3c31.5,0.7,62.3-4.1,91.1-17.6c10.3-4.8,20.1-10.8,30.4-16.4c0.8,0.8,1.9,1.8,3,2.8
				c57.8,56.9,115.7,113.9,173.5,170.8c9.2,9,18.7,9,27.9-0.1c6.5-6.4,13-12.8,19.4-19.2c10-9.9,10-18.8-0.1-28.7
				c-45.7-45-91.5-89.9-137-135C1318.7,1186.6,1306.8,1173.6,1294.1,1160.4z M890.4,1074.7l-49.7,12.9l0.4-30.6v0
				c0.4-44.7-0.4-90.8-1-131.3v0c-0.5-24.3-1.5-49-2.9-73.3v0c-1.7-28.3-4.1-56.4-5.9-77.8c-2.3-25.5-4.9-52.4-7.8-80
				c-3.1-29-6.4-58.6-9.9-87.9l-2.5-20.3l5.9-4.5c0.1,0,0.1-0.1,0.2-0.2c4.8-3.9,8.6-8.2,12.9-13.6c0,0,0-0.1,0.1-0.1
				c4.1-5.3,7.9-10.8,11.4-16.2c0.1-0.1,0.2-0.3,0.2-0.4l12-21.5c0.1-0.1,0.1-0.2,0.2-0.3c4.8-9.8,10.1-19.7,15.6-29.6
				c6.2-10.6,12.9-21.7,20-31.6c5.8-8,12.8-17.4,20.8-26.2c7.3-7.6,15.2-14.9,23.4-21.5c8.7-6.7,17.9-13,27.3-18.6l13.2-7.5
				l5.7,11.8c0,0,0,0.1,0.1,0.1c2.2,4.4,4.6,8.7,7.1,12.8c0,0,0,0.1,0.1,0.1c3.6,5.6,7.4,10.6,11.5,15.4c0.1,0.1,0.2,0.2,0.2,0.2
				c5.6,5.9,11.1,10.6,16.7,14.4c0.1,0,0.2,0.1,0.3,0.2c4.1,2.5,8.5,4.5,13.6,6.1c0,0,0.1,0,0.2,0c3.3,1,6.8,1.8,10.3,2.4
				c1,0.2,1.9,0.2,2.9,0c3.5-0.7,7-1.5,10.3-2.4c0,0,0.1,0,0.2,0c5.1-1.6,9.6-3.6,13.6-6.1c0.1,0,0.2-0.1,0.3-0.2
				c5.6-3.8,11.1-8.5,16.7-14.4c0.1-0.1,0.2-0.2,0.2-0.2c4.1-4.7,7.9-9.7,11.5-15.4c0,0,0-0.1,0.1-0.1c2.5-4.1,4.9-8.4,7.1-12.8
				c0,0,0-0.1,0.1-0.1l5.7-11.8l13.2,7.5c9.4,5.6,18.6,11.9,27.3,18.6c8.2,6.7,16.1,13.9,23.4,21.5c8,8.8,15,18.2,20.8,26.2
				c7.2,9.9,13.9,21.1,20,31.6c5.6,9.8,10.8,19.8,15.6,29.6c0.1,0.1,0.1,0.2,0.2,0.3l12,21.5c0.1,0.1,0.2,0.3,0.2,0.4
				c3.5,5.4,7.3,10.9,11.4,16.2c0,0,0,0.1,0.1,0.1c4.3,5.4,8.1,9.8,12.9,13.6c0.1,0,0.1,0.1,0.2,0.2l5.9,4.5l-2.2,20.3
				c-3.5,29.3-6.8,58.8-9.9,87.9c-2.9,27.5-5.5,54.4-7.8,80c-1.8,20.7-4.1,47.8-5.8,75.3c-47.1-31.8-106.9-45.5-168.1-33.2
				c-48.9,9.8-89.7,34.1-122.6,71.6c-43.6,49.6-60.9,118.6-47.8,182.1C901.8,1071.7,896.1,1073.2,890.4,1074.7z M1257.5,1072.6
				c-3.8,11-8.9,21.3-15.1,30.9c-25.4,39-69.8,64.8-120.3,64.8c-64.2,0-118.6-41.8-136.6-99.3c-1.5-4.9-2.8-9.8-3.8-14.9
				c-1.7-8.6-2.5-17.6-2.5-26.7c0.1-78,63.9-140.6,143.1-140.5c50.6,0.1,94.9,25.8,120.2,64.8c6.2,9.5,11.2,19.8,15,30.8
				c4.9,14.3,7.5,29.5,7.5,45.5C1265,1043.4,1262.4,1058.5,1257.5,1072.6z M1293.9,1160.8C1293.8,1161.1,1293.8,1161,1293.9,1160.8
				L1293.9,1160.8z"></path></g><path d="M1523.3,1404c0,18.2-14.8,33-33,33H151.1c-18.2,0-33-14.8-33-33V121.4c0-18.2,14.8-33,33-33h1149c2.4,0,4.8,0,7.2,0.1
			v174.1c0,25.3,20.5,45.8,45.8,45.8h170.1c0,1,0,2.1,0,3.1v66.9h23v-66.9c0-1,0-2.1,0-3.1h0.3l-0.7-12.1c0,0,0,0,0,0l-0.3-4.3l0,0
			c-4.5-57.5-29.3-111.7-69.9-153c-40.6-41.2-94.3-66.8-151.6-72.4l0,0l-4.3-0.3l-12.4-1v0.3c-2.4-0.1-4.8-0.1-7.2-0.1h-1149
			c-30.9,0-56,25.1-56,56V1404c0,30.9,25.1,56,56,56h1339.2c30.9,0,56-25.1,56-56v-59.8h-23V1404z M1330.3,105.7V90.4
			c7.1,1,14.1,2.3,21,3.9c40.7,9.6,78.2,30.5,107.9,60.7c29.8,30.3,50.1,68.2,59,109.1c1.5,7,2.7,14.1,3.5,21.3H1507h-153.8
			c-12.6,0-22.8-10.2-22.8-22.8V105.7z"></path></g><g><path d="M1795.2,543c0,22.5-4.2,41.5-12.5,56.9c-8.4,15.4-19.6,27.9-33.8,37.3c-14.2,9.4-30.5,16.3-49,20.7
			c-18.5,4.4-37.8,6.5-57.7,6.5h-46.3V810h-93V424.3h141.5c21,0,40.7,2.1,59.1,6.3c18.3,4.2,34.3,10.9,47.9,20.1
			c13.6,9.3,24.3,21.4,32.1,36.5C1791.3,502.3,1795.2,520.9,1795.2,543z M1702.2,543.7c0-9.1-1.8-16.5-5.5-22.3
			c-3.6-5.8-8.5-10.3-14.7-13.6c-6.2-3.3-13.2-5.4-21-6.5c-7.8-1.1-15.9-1.6-24.2-1.6h-40.9v90.8h39.2c8.7,0,17.1-0.7,25.1-2.2
			c8-1.5,15.2-4,21.5-7.6c6.4-3.6,11.4-8.4,15-14.4C1700.4,560.2,1702.2,552.7,1702.2,543.7z"></path><path d="M2057.9,810l-83.2-153.2h-31.5V810h-91.7V424.3h147c18.5,0,36.6,1.9,54.2,5.7c17.6,3.8,33.4,10.3,47.4,19.3
			c14,9.1,25.1,21.1,33.5,35.9c8.3,14.9,12.5,33.4,12.5,55.5c0,26.1-7.1,48.1-21.3,65.9c-14.2,17.8-33.8,30.5-58.9,38.1L2166.7,810
			H2057.9z M2053.9,542.5c0-9-1.9-16.4-5.7-22c-3.8-5.6-8.7-9.9-14.6-13c-6-3.1-12.6-5.1-20.1-6.2c-7.4-1.1-14.6-1.6-21.4-1.6h-49.3
			v89.5h43.9c7.6,0,15.4-0.6,23.3-1.9c8-1.3,15.2-3.5,21.7-6.8s11.8-8,16-14.1C2051.8,560.2,2053.9,552.2,2053.9,542.5z"></path><path d="M2212.7,810V424.3h93.9V810H2212.7z"></path><path d="M2631,810l-155.2-252.2h-1.6l2.1,252.2h-90.3V424.3h106.2L2646.7,676h1.6l-2.1-251.7h90.3V810H2631z"></path><path d="M2980.9,504v306h-93V504H2779v-79.7h310.9V504H2980.9z"></path><path d="M1795.2,1004.5c0,22.5-4.2,41.5-12.5,56.9c-8.4,15.4-19.6,27.8-33.8,37.3c-14.2,9.4-30.5,16.3-49,20.7
			c-18.5,4.4-37.8,6.5-57.7,6.5h-46.3v145.7h-93V885.8h141.5c21,0,40.7,2.1,59.1,6.3c18.3,4.2,34.3,10.9,47.9,20.1
			c13.6,9.3,24.3,21.4,32.1,36.5C1791.3,963.8,1795.2,982.4,1795.2,1004.5z M1702.2,1005.2c0-9.1-1.8-16.5-5.5-22.3
			c-3.6-5.8-8.5-10.3-14.7-13.6c-6.2-3.3-13.2-5.4-21-6.5c-7.8-1.1-15.9-1.6-24.2-1.6h-40.9v90.8h39.2c8.7,0,17.1-0.7,25.1-2.2
			c8-1.5,15.2-4,21.5-7.6c6.4-3.6,11.4-8.4,15-14.4C1700.4,1021.7,1702.2,1014.2,1702.2,1005.2z"></path><path d="M2057.9,1271.5l-83.2-153.2h-31.5v153.2h-91.7V885.8h147c18.5,0,36.6,1.9,54.2,5.7c17.6,3.8,33.4,10.3,47.4,19.3
			c14,9.1,25.1,21.1,33.5,35.9c8.3,14.9,12.5,33.4,12.5,55.5c0,26.1-7.1,48.1-21.3,65.9s-33.8,30.5-58.9,38.1l100.8,165.2H2057.9z
			 M2053.9,1004c0-9-1.9-16.4-5.7-22c-3.8-5.6-8.7-9.9-14.6-13c-6-3.1-12.6-5.1-20.1-6.2c-7.4-1.1-14.6-1.6-21.4-1.6h-49.3v89.5
			h43.9c7.6,0,15.4-0.6,23.3-1.9c8-1.3,15.2-3.5,21.7-6.8s11.8-8,16-14.1C2051.8,1021.7,2053.9,1013.7,2053.9,1004z"></path><path d="M2212.7,1271.5V885.8H2472v78.8h-169.4v72.6h160.1v74.8h-160.1v79.7h179.2v79.7H2212.7z"></path><path d="M2734.4,1271.5h-93.1l-146-385.7h104.6l89.3,273.5h2.2l88.8-273.5h102.9L2734.4,1271.5z"></path><path d="M2914.8,1271.5V885.8h93.9v385.7H2914.8z"></path><path d="M3088,1271.5V885.8h259.3v78.8h-169.4v72.6H3338v74.8h-160.1v79.7h179.2v79.7H3088z"></path><path d="M3827,1271.5H3735l-76.3-261h-1.6l-76.3,261h-92.6l-109.5-385.7H3479l61,256.6h1.6l68.6-256.6h97l69.2,256.6h1.6
			l62.1-256.6h97L3827,1271.5z"></path></g></g></svg>