<?xml version="1.0" encoding="utf-8"?>
<!-- Generator: Adobe Illustrator 24.3.0, SVG Export Plug-In . SVG Version: 6.00 Build 0)  -->
<svg version="1.1" id="Design" xmlns="http://www.w3.org/2000/svg" xmlns:xlink="http://www.w3.org/1999/xlink" x="0px" y="0px"
	 width="2957.2px" height="1516.6px" viewBox="0 0 2957.2 1516.6" style="enable-background:new 0 0 2957.2 1516.6;"
	 xml:space="preserve">
<g>
	<g>
		<g>
			<g>
				<path d="M586.8,890.3c0,2.4,1.1,4.6,3,6.1c1.3,1,3,1.6,4.6,1.6c0.7,0,1.4-0.1,2.1-0.3c3-0.8,6-1.6,9-2.5
					c13.7-3.8,28-7.7,41.8-12.1c0.7-0.2,1.6-0.5,3.1-1l15.6-5.3c16.2-5.4,32.8-10.6,49.2-15.6l18.4-5.5c3.3-1,5.5-4,5.5-7.5
					l-2.5-171.9c0,0,0,0,0-0.1c-0.5-22.3-1.2-44.3-2-68.9c0-1.1-0.3-8-1.7-52.8c-0.5-24.6-0.4-46.1,0.2-65.6
					c0.5-12.5,1.4-25.1,2.5-37.5c2-15.7,4.6-31.7,7.7-47.4c3-14,6.4-26.5,10.5-38.3c0.3-0.9,1.3-3.7,4.5-12.4
					c0.6-1.5,0.6-3.2,0.2-4.7l-6-20.3c-1.2-4.1-5.4-6.4-9.5-5.2l-21.5,6.3c-8.6,2.5-17.7,4.2-24.7,5.4c-9.7,1.5-19.5,2.7-29,3.6
					c-2.8,0.2-45.6,2.3-45.6,2.3c-2.8,0.2-5.2,1.8-6.5,4.2l-5.7,11.4v0.1l-1.2,2.5v0.1l-1.1,2.5c-3.4,7.2-6.4,15.4-8.9,24.4
					c-2.9,10.1-5.1,21.2-7.1,35c-1.7,11.9-2.9,23.9-3.6,35.9v0.1c0,0.3-0.5,11.2-0.5,11.2l0,0c-0.8,19.6-1.2,39.8-1.3,61.7
					c0,23.5,0.2,46.9,0.6,69.5L586.8,890.3z M601.4,529.6c0.1-21.7,0.5-41.7,1.3-61.2c0.3-7.9,0.5-10.3,0.5-11.1
					c0.7-11.5,1.8-23.2,3.5-34.6c1.9-13.1,4-23.6,6.7-32.9c2.3-8.2,5.1-15.6,8.1-22.1l1.1-2.5l1.1-2.4l3.7-7.4
					c33.1-1.6,39.9-2,41.6-2.1l0,0c10-0.9,20.2-2.1,30.3-3.7c0,0,0,0,0.1,0c7.4-1.3,17.1-3,26.5-5.8l14.1-4.1l3.1,10.5
					c-1.3,3.7-3.7,10.2-3.7,10.3v0.1c-4.3,12.4-7.9,25.5-11,40.1v0.1c-3.3,16.1-5.9,32.5-7.9,48.7c0,0.1,0,0.2,0,0.2
					c-1.1,12.6-2,25.6-2.6,38.4c0,0,0,0,0,0.1c-0.7,19.8-0.7,41.5-0.2,66.5v0.1c0,0,1.7,52.7,1.7,52.8c0.8,24.4,1.5,46.5,2,68.7
					l2.4,166.1l-12.9,3.8c-16.5,5-33.2,10.3-49.6,15.7l0,0c0,0-17.2,5.9-18.5,6.3c-13.4,4.2-27.2,8-40.5,11.8V598.8c0,0,0-0.1,0-0.2
					C601.5,576.3,601.3,553,601.4,529.6z"/>
				<path d="M806.3,1211.6l-17.2-8.5c-2.6-1.4-5.2-2.9-7.7-4.5c-5.4-3.7-10.9-8.1-16.8-13.6c-4.5-4.4-8.7-10.4-13.2-19
					c-4.6-9.3-7.9-20.1-10.1-33.2c-1.1-7.5-1.4-15.9-0.9-26.4c0.5-7.6,1.3-15.2,2.5-22.7c1.8-10.3,4-20.7,6.9-32
					c2.2-8.5,4.7-17,7.4-25.4l6.1-18.3c1.2-3.6-0.5-7.6-3.9-9.3c-1.5-0.8-3-1.5-4.6-2.3c-7.7-3.7-15.7-7.6-23.2-11.7
					c-5.7-3.3-10.8-6.5-15.6-9.8c-5.7-4.1-10.2-7.7-13.8-11.1c-0.2-0.2-19-17.9-19-17.9c-1.7-1.6-4.1-2.3-6.5-2
					c-2.3,0.4-4.4,1.8-5.5,3.9l-41.9,76.9c-10,18-21.8,39.1-34.2,59.7c-6.5,10.6-13.3,21-20.2,31c-5.7,8-11.8,15.8-18,23.4
					c-5.4,6.3-11.2,12.8-17.3,19.3c-6,6.2-12.8,12.8-21.3,20.7c-0.1,0-0.1,0.1-0.2,0.1c-10.5,10.3-18.4,20.7-24.1,31.7
					c0,0.1-0.1,0.2-0.1,0.2l-2.5,5c0,0.1-0.1,0.2-0.1,0.2c-3.9,8.7-6.7,18.2-8.2,28.2c-0.1,0.5-0.1,1-0.1,1.5l3.2,82.4l0.8,19
					l1.4,35c0.2,4.1,3.6,7.4,7.7,7.3l44.5-0.5l27.4-0.2l27.4-0.1h27.3l29.3,0.1l29.3,0.2l29.3,0.3l45,0.6c1.9,0,3.6-0.7,5-1.8
					c1.4-1.2,2.4-2.9,2.7-4.8l2.6-18.9c2.7-18.4,5.9-34.5,9.6-49.5c3.7-14.7,7.6-28,12-40.6c3.5-10.1,7.9-21,13.4-33.3l8.9-19.3
					C811.7,1217.9,810.1,1213.4,806.3,1211.6z M787,1234.6L787,1234.6c-5.8,12.8-10.3,24.1-14,34.7c-4.5,13.1-8.5,26.8-12.3,41.9
					c-3.9,15.5-7.1,32.2-9.9,51v0.1l-1.7,12.2l-38.3-0.5l-29.4-0.3l-29.4-0.2l-29.4-0.1h-27.4l-27.4,0.1l-27.4,0.2l-37.1,0.4
					l-1.1-27.6l-0.8-19l-3.2-81.6c1.4-8.3,3.7-16.2,6.9-23.5c1.5-3,2.1-4.2,2.3-4.7c5-9.5,12-18.6,21.2-27.8
					c8.6-8.1,15.6-14.8,21.8-21.2c0,0,0.1,0,0.1-0.1c6.3-6.7,12.4-13.4,18-19.9c0,0,0.1,0,0.1-0.1c6.5-7.8,12.8-16.1,18.8-24.4
					c0,0,0-0.1,0.1-0.1c7.1-10.3,14.1-21,20.7-31.8c0,0,0,0,0-0.1c12.5-20.8,24.4-42.1,34.5-60.2c0,0,0,0,0-0.1l37.2-68.3l8.8,8.3
					c1.4,1.3,2.3,2.2,3,2.8l0,0c4.1,3.9,9.1,7.9,15.5,12.4l0.1,0.1c5.2,3.5,10.6,6.9,16.7,10.5c0,0,0.1,0,0.1,0.1
					c7.4,4.1,15.1,7.8,22.6,11.4c-3.2,9.5-3.9,11.5-4,12c-2.8,8.7-5.4,17.5-7.7,26.3v0.1c-2.9,11.7-5.3,22.6-7.2,33.2
					c0,0.1,0,0.1,0,0.1c-1.3,8-2.2,16.2-2.7,24.4c0,0.1,0,0.1,0,0.1c-0.5,11.5-0.2,20.9,1.1,29.5c0,0.1,0,0.1,0,0.1
					c2.5,14.7,6.2,27,11.5,37.7v0.1c5.3,10.1,10.4,17.5,16.2,23c0,0,0,0.1,0.1,0.1c6.5,6.1,12.6,11,18.7,15.2c0,0.1,0.1,0.1,0.2,0.1
					c2.9,1.9,6,3.7,9,5.3c0.1,0,0.1,0.1,0.2,0.1l10.6,5.2L787,1234.6z"/>
				<path d="M495.3,1121l1.4-35l0.8-19l3.2-82.4c0-0.5,0-1-0.1-1.5c-1.5-10-4.3-19.5-8.2-28.2c0-0.1-0.1-0.2-0.1-0.2l-2.5-5
					c-0.1,0-0.1-0.1-0.1-0.2c-5.7-11-13.6-21.4-24.1-31.7c-0.1,0-0.1-0.1-0.2-0.1c-8.5-7.9-15.3-14.5-21.3-20.7
					c-6.1-6.5-11.9-12.9-17.3-19.3c-6.3-7.6-12.3-15.5-18-23.4c-6.9-10-13.7-20.5-20.2-31c-12.3-20.6-24.2-41.7-34.2-59.7
					l-41.9-76.9c-1.1-2.1-3.2-3.6-5.5-3.9c-2.3-0.4-4.7,0.3-6.5,2c0,0-18.8,17.7-19,17.9c-3.6,3.4-8.1,7-13.8,11.1
					c-4.8,3.3-9.9,6.5-15.6,9.8c-7.5,4.1-15.5,8-23.2,11.7c-1.5,0.8-3,1.5-4.6,2.3c-3.4,1.7-5.1,5.6-3.9,9.3l6.1,18.3
					c2.7,8.4,5.2,16.9,7.4,25.4c2.9,11.3,5.1,21.8,6.9,32c1.2,7.5,2,15.1,2.5,22.7c0.5,10.5,0.2,18.9-0.9,26.4
					c-2.2,13.1-5.5,24-10.1,33.2c-4.5,8.6-8.7,14.6-13.2,19c-5.9,5.5-11.4,9.9-16.8,13.6c-2.5,1.6-5.1,3.1-7.7,4.5l-17.2,8.5
					c-3.7,1.8-5.3,6.3-3.6,10.1l8.9,19.3c5.5,12.3,9.9,23.2,13.4,33.3c4.4,12.6,8.3,25.9,12,40.6c3.7,15,6.9,31.2,9.6,49.5l2.6,18.9
					c0.3,2,1.2,3.6,2.7,4.8c1.4,1.1,3.1,1.8,5,1.8l45-0.6l29.3-0.3l29.3-0.2l29.3-0.1h27.3l27.4,0.1l27.4,0.2l44.5,0.5
					C491.6,1128.4,495.1,1125.2,495.3,1121z M482.1,1066.4l-0.8,19l-1.1,27.6l-37.1-0.4l-27.4-0.2l-27.4-0.1h-27.4l-29.4,0.1
					l-29.4,0.2l-29.4,0.3l-38.3,0.5l-1.7-12.2v-0.1c-2.8-18.9-6.1-35.5-9.9-51c-3.8-15.2-7.8-28.9-12.3-41.9
					c-3.7-10.6-8.2-21.9-14-34.6v-0.1l-5.8-12.5l10.6-5.2c0.1,0,0.1-0.1,0.2-0.1c3.1-1.6,6.1-3.4,9-5.3c0-0.1,0.1-0.1,0.2-0.1
					c6.1-4.2,12.3-9.1,18.7-15.2c0-0.1,0.1-0.1,0.1-0.1c5.8-5.6,10.9-12.9,16.2-23v-0.1c5.3-10.7,9.1-23,11.5-37.7
					c0-0.1,0-0.1,0-0.1c1.3-8.6,1.6-17.9,1.1-29.5c0-0.1,0-0.1,0-0.1c-0.5-8.1-1.4-16.3-2.7-24.4c0-0.1,0-0.1,0-0.1
					c-1.9-10.7-4.2-21.5-7.2-33.2v-0.1c-2.3-8.8-4.9-17.6-7.7-26.3c-0.1-0.5-0.8-2.5-4-12c7.5-3.6,15.1-7.3,22.6-11.4
					c0,0,0.1,0,0.1-0.1c6.1-3.5,11.6-6.9,16.7-10.5l0.1-0.1c6.3-4.5,11.4-8.6,15.5-12.4l0,0c0.7-0.6,1.6-1.4,3-2.8l8.8-8.3
					l37.2,68.3v0.1c10.1,18.1,22,39.4,34.5,60.2c0,0.1,0,0.1,0,0.1c6.6,10.8,13.6,21.5,20.7,31.8c0,0,0,0.1,0.1,0.1
					c6,8.3,12.3,16.5,18.8,24.4c0,0,0.1,0,0.1,0.1c5.6,6.5,11.6,13.2,18,19.9c0,0,0.1,0,0.1,0.1c6.2,6.4,13.1,13.1,21.8,21.2
					c9.3,9.2,16.2,18.2,21.2,27.8c0.3,0.5,0.9,1.7,2.3,4.7c3.2,7.2,5.6,15.1,6.9,23.5L482.1,1066.4z"/>
				<path d="M345.4,192c4,11.8,7.5,24.3,10.5,38.3c3.1,15.7,5.7,31.6,7.7,47.4c1.1,12.4,2,25,2.5,37.5c0.7,19.5,0.7,41,0.2,65.6
					c-1.5,44.8-1.7,51.7-1.7,52.8c-0.8,24.5-1.5,46.5-2,68.9c0,0,0,0,0,0.1l-2.5,171.9c0,3.4,2.2,6.5,5.5,7.5l18.4,5.5
					c16.4,4.9,33,10.2,49.2,15.6l15.6,5.3c1.5,0.5,2.4,0.8,3.1,1c13.9,4.4,28.1,8.3,41.8,12.1c3,0.8,6,1.6,9,2.5
					c0.7,0.2,1.4,0.3,2.1,0.3c1.6,0,3.3-0.5,4.6-1.6c1.9-1.5,3-3.7,3-6.1V425.4c0.5-22.6,0.7-46,0.6-69.5
					c-0.2-21.9-0.6-42.1-1.4-61.7l0,0c-0.3-7.6-0.5-10.3-0.5-11.3c-0.7-11.9-1.9-24-3.6-35.9c-2-13.8-4.3-24.9-7.1-35
					c-2.6-9-5.6-17.2-8.9-24.4l-1.1-2.5V185l-1.2-2.5v-0.1l-5.7-11.4c-1.2-2.5-3.7-4.1-6.5-4.2c-35.5-1.8-43.6-2.1-45.5-2.3
					c-9.7-0.8-19.5-2.1-29.1-3.6c-7-1.2-16.1-2.8-24.7-5.4l-21.5-6.3c-4.1-1.2-8.3,1.1-9.5,5.2l-5.9,20.3c-0.5,1.6-0.4,3.2,0.2,4.7
					C340.9,179.5,345.1,191.1,345.4,192z M359.2,166.2l14.1,4.1c9.4,2.8,19.1,4.6,26.5,5.8c0,0,0,0,0.1,0
					c10.1,1.6,20.3,2.8,30.3,3.7c0.1,0,0.2,0,0.3,0c0.2,0,29.8,1.5,41.3,2l3.7,7.4l1.1,2.4l1.1,2.5c3,6.5,5.7,13.9,8.1,22.1
					c2.7,9.4,4.8,19.8,6.7,32.9c1.6,11.4,2.8,23.1,3.5,34.5c0,0.8,0.5,10.6,0.5,11.1c0.8,19.4,1.2,39.4,1.3,61.1
					c0,23.4-0.3,46.6-0.7,69.1c0,0,0,0.1,0,0.2v281.2c-13.4-3.7-27.2-7.5-40.5-11.8c-1.3-0.4-18.5-6.3-18.5-6.3l0,0
					c-16.4-5.4-33.1-10.7-49.7-15.7l-12.9-3.8l2.4-166.1c0.5-22.2,1.2-44.3,2-68.7c0-0.2,1.7-52.8,1.7-52.8V381
					c0.5-24.9,0.4-46.7-0.2-66.5c0,0,0,0,0-0.1c-0.5-12.8-1.4-25.7-2.6-38.4c0-0.1,0-0.2,0-0.2c-2-16.2-4.7-32.6-7.9-48.7V227
					c-3.1-14.6-6.7-27.8-11-40.1c-0.3-0.9-1.1-3.2-3.8-10.3L359.2,166.2z"/>
				<path d="M695,224.8c7.5,7.5,16.6,14.5,27,20.8c10.3,6.2,21.2,11.2,32.5,15c11.2,3.7,23.9,6.7,37.8,8.8c0.1,0,5.4,0.8,5.4,0.8
					s0.1,0,0.2,0c20.5,2.8,37.3,4,52.6,4.1l60.7,0.1h57.2h0.1c18.1-0.3,32.9-1.2,46.4-2.9c18.2-2.3,32-4.9,44.9-8.5
					c9.7-2.8,22.4-6.8,34.3-13.6c10.9-6.3,21.3-13.8,31-22.4c0,0,0.1-0.1,0.2-0.2l16.9-15.9c1.5-1.5,2.4-3.4,2.4-5.6
					c0-2.1-0.8-4.1-2.4-5.6l-14.9-14.2c-9.9-9.9-22-18.6-34.9-25.4c-12.3-6.4-25.9-11.3-40.6-14.7c-14.3-3.3-29.5-5.8-46.6-7.5
					c-11.7-1.2-23.4-1.6-33.2-1.8c0,0-0.1,0-0.2,0l-60.7-0.1h-57.3h-0.1c-17.6,0.3-35.4,1.5-52.9,3.7h-0.1
					c-12.8,1.8-25.6,4.4-38.1,7.7c0,0-0.1,0-0.2,0c-14.1,4-26.5,9.2-38,15.8c-0.1,0-0.2,0.1-0.2,0.1c-9.5,5.9-18.6,12.7-27,20.1
					c0,0-0.1,0.1-0.2,0.2l-16.9,15.9c-1.5,1.5-2.4,3.4-2.4,5.6s0.8,4.1,2.4,5.6L695,224.8z M707.5,194.9c7.7-6.8,16.1-13,24.8-18.5
					c10.3-6,21.6-10.6,34.3-14.2c11.9-3.1,24.1-5.6,36.2-7.3c16.9-2.1,34.1-3.3,51.1-3.6h57.2c53.8,0.1,59.9,0.1,60.7,0.1
					c9.5,0.2,20.8,0.6,31.9,1.7c16.4,1.6,31,4,44.7,7.2c13.6,3.1,25.7,7.5,37,13.4c11.6,6.1,22.4,13.9,31.2,22.7
					c0,0,0.1,0.1,0.2,0.1l9.1,8.7l-10.9,10.3c-8.9,7.9-18.5,14.8-28.5,20.5c-10.4,6-21.9,9.7-30.8,12.1c-12.1,3.4-25.3,5.9-42.6,8.1
					c-12.9,1.6-27.2,2.5-44.7,2.8h-57.2l-60.7-0.1c-14.6,0-30.7-1.3-50.5-3.9c-0.6-0.1-5.1-0.8-5.3-0.8c-13.1-2-25-4.7-35.4-8.2
					c-10.2-3.4-20.1-7.9-29.4-13.6c-9.2-5.6-17.6-12-24.2-18.6l-0.1-0.1l-9.1-8.7C704.5,197.7,706.8,195.6,707.5,194.9z"/>
				<path d="M1294.1,1160.4c1.2-1.7,2.5-3.3,3.8-5c37.6-51.4,51.2-108.5,38.4-170.8c-10.4-50.6-37.9-93.6-75.5-123.9
					c0.1-2.5,0.3-5,0.4-7.5c1.7-28.1,4.1-56.1,5.9-77.4c2.3-25.5,4.9-52.3,7.7-79.7c3.1-29,6.4-58.5,9.8-87.7l3-24.7
					c0.3-2.8-0.8-5.4-3-7l-9.3-7.1c-3.6-2.9-6.8-6.5-10.4-11.1c-3.8-4.9-7.3-9.9-10.5-14.9l-11.8-21.1c-4.9-10-10.3-20.2-16-30.2
					v-0.1c-6.4-10.9-13.3-22.4-20.8-32.9c-6.1-8.4-13.4-18.3-22-27.6c0,0-0.1-0.1-0.1-0.2c-7.8-8.1-16.2-15.8-24.9-22.9l-0.1-0.1
					c-9.2-7.2-19-13.8-28.9-19.8c0,0-0.1,0-0.1-0.1l-20.4-11.6c-1.8-1-4-1.3-6.1-0.7c-2,0.6-3.7,2.1-4.6,4l-9.2,19.1
					c-2,3.9-4.1,7.8-6.4,11.5c-3.1,4.9-6.4,9.3-10,13.3c-4.8,5-9.3,9-14,12.1c-2.8,1.8-6.1,3.2-9.8,4.3c-2.4,0.7-4.9,1.3-7.5,1.8
					c-2.5-0.5-5.1-1.1-7.5-1.8c-3.8-1.1-7-2.6-9.8-4.3c-4.6-3.1-9.2-7.1-14-12.1c-3.6-4.1-6.8-8.4-10-13.3
					c-2.3-3.7-4.5-7.6-6.4-11.5l-9.2-19.1c-0.9-1.9-2.6-3.4-4.6-4s-4.2-0.4-6.1,0.7l-20.4,11.6c0,0-0.1,0-0.1,0.1
					c-10,6-19.7,12.6-28.9,19.8l-0.1,0.1c-8.7,7.1-17.1,14.8-24.9,22.9c0,0-0.1,0.1-0.1,0.2c-8.6,9.4-15.9,19.2-22,27.6
					c-7.5,10.5-14.5,22-20.8,32.9v0.1c-5.7,10-11,20.2-16,30.2L829,543.6c-3.2,5-6.7,10-10.5,14.9c-3.6,4.5-6.7,8.2-10.4,11.1
					l-9.3,7.1c-2.2,1.6-3.3,4.3-3,7l3,24.7c3.4,29.2,6.8,58.7,9.8,87.7c2.8,27.5,5.4,54.3,7.7,79.7c1.9,21.3,4.2,49.2,5.9,77.4
					c1.3,24.1,2.3,48.6,2.8,72.7c0.7,40.5,1.4,86.4,1,130.9l-0.6,40.7c0,2.4,1,4.7,2.9,6.1c1.9,1.5,4.3,2,6.7,1.4l59.4-15.4
					c0,0,0,0,0.1,0c5.5-1.5,11.1-2.9,16.6-4.3c3.8,13.1,8.9,25.8,15.4,38c41.7,78.1,108.2,117.3,196.5,119.3
					c31.5,0.7,62.3-4.1,91.1-17.6c10.3-4.8,20.1-10.8,30.4-16.4c0.8,0.8,1.9,1.8,3,2.8c57.8,56.9,115.7,113.9,173.5,170.8
					c9.2,9,18.7,9,27.9-0.1c6.5-6.4,13-12.8,19.4-19.2c10-9.9,10-18.8-0.1-28.7c-45.7-45-91.5-89.9-137-135
					C1318.7,1186.6,1306.8,1173.6,1294.1,1160.4z M890.4,1074.7l-49.7,12.9l0.4-30.6l0,0c0.4-44.7-0.4-90.8-1-131.3l0,0
					c-0.5-24.3-1.5-49-2.9-73.3l0,0c-1.7-28.3-4.1-56.4-5.9-77.8c-2.3-25.5-4.9-52.4-7.8-80c-3.1-29-6.4-58.6-9.9-87.9l-2.5-20.3
					l5.9-4.5c0.1,0,0.1-0.1,0.2-0.2c4.8-3.9,8.6-8.2,12.9-13.6c0,0,0-0.1,0.1-0.1c4.1-5.3,7.9-10.8,11.4-16.2
					c0.1-0.1,0.2-0.3,0.2-0.4l12-21.5c0.1-0.1,0.1-0.2,0.2-0.3c4.8-9.8,10.1-19.7,15.6-29.6c6.2-10.6,12.9-21.7,20-31.6
					c5.8-8,12.8-17.4,20.8-26.2c7.3-7.6,15.2-14.9,23.4-21.5c8.7-6.7,17.9-13,27.3-18.6l13.2-7.5l5.7,11.8c0,0,0,0.1,0.1,0.1
					c2.2,4.4,4.6,8.7,7.1,12.8c0,0,0,0.1,0.1,0.1c3.6,5.6,7.4,10.6,11.5,15.4c0.1,0.1,0.2,0.2,0.2,0.2c5.6,5.9,11.1,10.6,16.7,14.4
					c0.1,0,0.2,0.1,0.3,0.2c4.1,2.5,8.5,4.5,13.6,6.1c0,0,0.1,0,0.2,0c3.3,1,6.8,1.8,10.3,2.4c1,0.2,1.9,0.2,2.9,0
					c3.5-0.7,7-1.5,10.3-2.4c0,0,0.1,0,0.2,0c5.1-1.6,9.6-3.6,13.6-6.1c0.1,0,0.2-0.1,0.3-0.2c5.6-3.8,11.1-8.5,16.7-14.4
					c0.1-0.1,0.2-0.2,0.2-0.2c4.1-4.7,7.9-9.7,11.5-15.4c0,0,0-0.1,0.1-0.1c2.5-4.1,4.9-8.4,7.1-12.8c0,0,0-0.1,0.1-0.1l5.7-11.8
					l13.2,7.5c9.4,5.6,18.6,11.9,27.3,18.6c8.2,6.7,16.1,13.9,23.4,21.5c8,8.8,15,18.2,20.8,26.2c7.2,9.9,13.9,21.1,20,31.6
					c5.6,9.8,10.8,19.8,15.6,29.6c0.1,0.1,0.1,0.2,0.2,0.3l12,21.5c0.1,0.1,0.2,0.3,0.2,0.4c3.5,5.4,7.3,10.9,11.4,16.2
					c0,0,0,0.1,0.1,0.1c4.3,5.4,8.1,9.8,12.9,13.6c0.1,0,0.1,0.1,0.2,0.2l5.9,4.5l-2.2,20.3c-3.5,29.3-6.8,58.8-9.9,87.9
					c-2.9,27.5-5.5,54.4-7.8,80c-1.8,20.7-4.1,47.8-5.8,75.3c-47.1-31.8-106.9-45.5-168.1-33.2c-48.9,9.8-89.7,34.1-122.6,71.6
					c-43.6,49.6-60.9,118.6-47.8,182.1C901.8,1071.7,896.1,1073.2,890.4,1074.7z M1257.5,1072.6c-3.8,11-8.9,21.3-15.1,30.9
					c-25.4,39-69.8,64.8-120.3,64.8c-64.2,0-118.6-41.8-136.6-99.3c-1.5-4.9-2.8-9.8-3.8-14.9c-1.7-8.6-2.5-17.6-2.5-26.7
					c0.1-78,63.9-140.6,143.1-140.5c50.6,0.1,94.9,25.8,120.2,64.8c6.2,9.5,11.2,19.8,15,30.8c4.9,14.3,7.5,29.5,7.5,45.5
					C1265,1043.4,1262.4,1058.5,1257.5,1072.6z M1293.9,1160.8C1293.8,1161.1,1293.8,1161,1293.9,1160.8L1293.9,1160.8z"/>
			</g>
			<path d="M1523.3,1404c0,18.2-14.8,33-33,33H151.1c-18.2,0-33-14.8-33-33V121.4c0-18.2,14.8-33,33-33h1149c2.4,0,4.8,0,7.2,0.1
				v174.1c0,25.3,20.5,45.8,45.8,45.8h170.1c0,1,0,2.1,0,3.1v66.9h23v-66.9c0-1,0-2.1,0-3.1h0.3l-0.7-12.1l0,0l-0.3-4.3l0,0
				c-4.5-57.5-29.3-111.7-69.9-153c-40.6-41.2-94.3-66.8-151.6-72.4l0,0l-4.3-0.3l-12.4-1v0.3c-2.4-0.1-4.8-0.1-7.2-0.1h-1149
				c-30.9,0-56,25.1-56,56V1404c0,30.9,25.1,56,56,56h1339.2c30.9,0,56-25.1,56-56v-59.8h-23L1523.3,1404L1523.3,1404z
				 M1330.3,105.7V90.4c7.1,1,14.1,2.3,21,3.9c40.7,9.6,78.2,30.5,107.9,60.7c29.8,30.3,50.1,68.2,59,109.1c1.5,7,2.7,14.1,3.5,21.3
				H1507h-153.8c-12.6,0-22.8-10.2-22.8-22.8L1330.3,105.7L1330.3,105.7z"/>
		</g>
		<g>
			<path d="M1664.3,1271.5h-93.1l-146-385.7h104.6l89.3,273.5h2.2l88.8-273.5H1813L1664.3,1271.5z"/>
			<path d="M1844.7,1271.5V885.8h93.9v385.7H1844.7z"/>
			<path d="M2017.9,1271.5V885.8h259.3v78.8h-169.4v72.6h160.1v74.8h-160.1v79.7H2287v79.7h-269.1V1271.5z"/>
			<path d="M2756.9,1271.5h-92l-76.3-261h-1.6l-76.3,261h-92.6l-109.5-385.7h100.3l61,256.6h1.6l68.6-256.6h97l69.2,256.6h1.6
				l62.1-256.6h97L2756.9,1271.5z"/>
		</g>
	</g>
	<g>
		<path d="M1668.1,810h-246.3v-49.6l150.3-149.2c11.4-11.7,21.1-24,29.3-36.8c8.2-12.8,12.3-27.2,12.3-43.2c0-9.9-1.8-18.9-5.3-26.9
			c-3.6-8-8.4-14.8-14.4-20.5c-6-5.7-13.2-10-21.3-13.1c-8.2-3-16.9-4.5-26.1-4.5c-19.2,0-35,6.1-47.4,18.4
			c-12.4,12.3-20.3,28-23.5,47.2l-50.6-8.5c2.1-14.2,6.7-27.5,13.6-39.7c6.9-12.3,15.7-22.9,26.4-32c10.7-9.1,23-16.1,37-21.1
			c14-5,29.1-7.5,45-7.5c15.6,0,30.6,2.3,45,6.9c14.4,4.6,27.1,11.4,38.1,20.3c11,8.9,19.8,20.1,26.4,33.6c6.6,13.5,9.9,29,9.9,46.4
			c0,12.1-1.6,23.3-4.8,33.6c-3.2,10.3-7.6,20.1-13.1,29.3c-5.5,9.2-12,18-19.5,26.4c-7.5,8.4-15.3,16.6-23.5,24.8l-122.6,119.4h185
			V810z"/>
		<path d="M1713.3,432.6h129.5c24.2,0,48.3,3.6,72.5,10.7c24.2,7.1,46,18.3,65.6,33.6c19.5,15.3,35.4,34.8,47.4,58.6
			c12.1,23.8,18.1,52.4,18.1,85.8c0,32.3-6,60.3-18.1,84c-12.1,23.6-27.9,43.2-47.4,58.6c-19.5,15.5-41.4,27-65.6,34.6
			c-24.2,7.6-48.3,11.5-72.5,11.5h-129.5V432.6z M1766.1,763.6h66.1c22.7,0,43.8-3.2,63.2-9.6c19.4-6.4,36.1-15.6,50.1-27.7
			c14-12.1,25-27,32.8-44.8c7.8-17.8,11.7-37.8,11.7-60.2c0-23.5-3.9-44.1-11.7-61.8c-7.8-17.8-18.7-32.6-32.8-44.5
			c-14-11.9-30.7-21-50.1-27.2c-19.4-6.2-40.4-9.3-63.2-9.3h-66.1V763.6z"/>
	</g>
</g>
</svg>
