<?xml version="1.0" encoding="UTF-8"?>
<svg width="157px" height="32px" viewBox="0 0 157 32" version="1.1" xmlns="http://www.w3.org/2000/svg" xmlns:xlink="http://www.w3.org/1999/xlink">
    <!-- Generator: Sketch 62 (91390) - https://sketch.com -->
    <title>ProAssist-logo</title>
    <desc>Created with Sketch.</desc>
    <g id="2.-DesignLAB" stroke="none" stroke-width="1" fill="none" fill-rule="evenodd">
        <g id="Pro-Assist-2" transform="translate(-142.000000, -80.000000)" fill="#52C41A" fill-rule="nonzero">
            <g id="ProAssist-logo" transform="translate(142.000000, 80.000000)">
                <path d="M13.6757895,4.87017544 L10.7929825,7.75298246 L18.6526316,15.6126316 L13.0694737,21.1705263 L11.3263158,19.4273684 L9.00210526,22.8350877 L11.4891228,25.3333333 C12.5754386,26.4252632 13.5298246,26.9614035 14.3607018,26.9333333 C15.1915789,26.9052632 16.1908772,26.3045614 17.4035088,25.1059649 L22.5768421,19.9298246 C23.7810526,18.725614 24.3901754,17.7178947 24.4154386,16.8926316 C24.4407018,16.0673684 23.9017544,15.1129825 22.8154386,14.0210526 L13.6757895,4.87017544 Z M14.9529825,23.0568421 L13.5747368,21.6757895 L19.1466667,16.1066667 L20.5277193,17.4821053 L14.9529825,23.0568421 Z" id="Shape"></path>
                <path d="M30.1024561,0 L1.7122807,0 C0.766614183,0 0,0.766614183 0,1.7122807 L0,30.1024561 C0,31.0481227 0.766614183,31.8147368 1.7122807,31.8147368 L30.1024561,31.8147368 C31.0481227,31.8147368 31.8147368,31.0481227 31.8147368,30.1024561 L31.8147368,1.7122807 C31.8147368,0.766614183 31.0481227,0 30.1024561,0 Z M24.2077193,21.5522807 L19.0287719,26.7424561 C17.3445614,28.4070175 15.8961404,29.2014035 14.4308772,29.2435088 C12.965614,29.285614 11.4329825,28.5501754 9.85263158,26.9642105 L7.36280702,24.4659649 C6.57659396,23.6792438 6.45886285,22.4454217 7.08210526,21.5242105 L9.40631579,18.1164912 C10.121321,17.0655534 11.5503959,16.7885134 12.6063158,17.4961404 C12.6128024,17.4974262 12.6194783,17.4974262 12.6259649,17.4961404 C12.8013779,17.612492 12.997789,17.6935353 13.2042105,17.7347368 C13.752458,17.8485846 14.3211766,17.6786703 14.7171164,17.2827304 C15.1130562,16.8867906 15.2829706,16.3180721 15.1691228,15.7698246 C15.1073563,15.4510018 14.9519708,15.1578215 14.722807,14.9277193 L14.7059649,14.9080702 L9.15649123,9.3922807 C8.72057953,8.95868967 8.47549085,8.36921944 8.47549085,7.75438596 C8.47549085,7.13955249 8.72057953,6.55008226 9.15649123,6.11649123 L9.15649123,6.11649123 L12.0392982,3.23368421 C12.4731449,2.79932483 13.061875,2.55526111 13.6757895,2.55526111 C14.2897039,2.55526111 14.8784341,2.79932483 15.3122807,3.23368421 L24.4519298,12.3705263 C26.0294737,13.9508772 26.7733333,15.4582456 26.7312281,16.9459649 C26.6891228,18.4336842 25.8891228,19.8792982 24.2161404,21.5522807 L24.2077193,21.5522807 Z" id="Shape"></path>
                <path d="M35.6491228,6.87719298 L41.2350877,6.87719298 C42.1262951,6.86769167 43.0158469,6.95617619 43.8877193,7.14105263 C44.6147375,7.29244502 45.3039299,7.58835867 45.914386,8.01122807 C46.4729518,8.40650849 46.9212779,8.93792957 47.2168421,9.55508772 C47.5410079,10.26619 47.6984626,11.0419425 47.677193,11.8231579 C47.7041786,12.6516948 47.5206856,13.4735506 47.1438596,14.2119298 C46.8029794,14.8418588 46.3098705,15.3764622 45.7094737,15.7670175 C45.0630104,16.1739424 44.347639,16.4593299 43.5985965,16.6091228 C42.7588624,16.7949174 41.9014455,16.8890356 41.0414035,16.8898246 L38.7003509,16.8898246 L38.7003509,23.9578947 L35.6491228,23.9578947 L35.6491228,6.87719298 Z M40.8112281,14.3326316 C41.2887118,14.3343139 41.7655616,14.2977054 42.237193,14.2231579 C42.6563776,14.1593322 43.062813,14.0295381 43.4414035,13.8385965 C43.784006,13.663335 44.0744384,13.4009777 44.2835088,13.0778947 C44.508334,12.6992207 44.6176072,12.2631032 44.5978947,11.8231579 C44.6550488,10.9953388 44.2010986,10.2165027 43.4526316,9.85824561 C43.0810607,9.67361112 42.6802553,9.55488913 42.2680702,9.50736842 C41.8165026,9.45057733 41.3617908,9.42245082 40.9066667,9.42314489 L38.6863158,9.42314489 L38.6863158,14.3326316 L40.8112281,14.3326316 Z" id="Shape"></path>
                <path d="M49.7740351,6.87716345 L55.7108772,6.87716345 C56.4972013,6.87534673 57.2813393,6.96006751 58.0491228,7.12982456 C58.7670228,7.28414092 59.4502783,7.56962376 60.0645614,7.97192982 C60.647927,8.35764365 61.1294319,8.87863199 61.4680702,9.49052632 C61.8442953,10.1970435 62.0300398,10.9893601 62.0070175,11.7894737 C62.0534389,12.8947589 61.678177,13.9763961 60.957193,14.8154386 C60.1952524,15.6248946 59.1971518,16.173064 58.1052632,16.3817544 L62.6638596,23.9607018 L58.9922807,23.9607018 L55.034386,16.7242105 L52.8140351,16.7242105 L52.8140351,23.9578947 L49.7740351,23.9578947 L49.7740351,6.87716345 Z M55.2982456,14.234386 C55.734153,14.2346196 56.1694846,14.2027203 56.6007018,14.1389474 C57.0078607,14.0822002 57.4031488,13.9599168 57.7712281,13.7768421 C58.1163492,13.5997603 58.4109143,13.3380319 58.6273684,13.0161404 C58.8658867,12.6382737 58.9834019,12.1966123 58.9642105,11.7501754 C58.9869262,11.3467295 58.8828882,10.9462814 58.6666667,10.6049123 C58.4604622,10.3091138 58.1885657,10.0650795 57.8722807,9.89192982 C57.5249324,9.71186256 57.1487162,9.59405748 56.7607018,9.54385965 C56.3651924,9.48100895 55.9653837,9.44909934 55.5649123,9.44842105 L52.8140351,9.44842105 L52.8140351,14.2484211 L55.2982456,14.234386 Z" id="Shape"></path>
                <path d="M63.5284211,15.3684211 C63.5088827,14.1007916 63.7426947,12.8420242 64.2161404,11.6659649 C64.6455965,10.6059227 65.2952441,9.64915159 66.1221053,8.85894737 C66.9553504,8.07325815 67.9401015,7.46578806 69.0161404,7.07368421 C70.1847929,6.6463084 71.4209705,6.4333055 72.6652632,6.44491228 C73.9213283,6.43175029 75.1695899,6.64375513 76.3508772,7.07087719 C77.4349286,7.46367062 78.428735,8.07083764 79.2729825,8.85614035 C80.1050837,9.64423859 80.7588002,10.6013638 81.1901754,11.6631579 C81.6622466,12.8396167 81.8960068,14.0981053 81.8778947,15.365614 C81.8921421,16.615491 81.6583942,17.8557861 81.1901754,19.0147368 C80.7526209,20.0847078 80.1000898,21.0534728 79.2729825,21.8610526 C78.4334339,22.672931 77.4398871,23.3085719 76.3508772,23.7305263 C75.1730269,24.1813332 73.9207545,24.4060757 72.6596491,24.3929825 C71.4123472,24.4046789 70.1741273,24.1798943 69.0105263,23.7305263 C67.9306124,23.3122051 66.9462697,22.6801635 66.1164912,21.8722807 C65.2945854,21.0626911 64.646096,20.0942549 64.2105263,19.0259649 C63.7418285,17.8643811 63.5099216,16.6208636 63.5284211,15.3684211 Z M66.8322807,15.3684211 C66.8217275,16.2290689 66.9652767,17.08466 67.2561404,17.8947368 C67.5213685,18.6315291 67.9307412,19.3080914 68.4603509,19.8849123 C68.983219,20.4454968 69.6157184,20.8926414 70.3185965,21.1985965 C71.0714873,21.5197021 71.8833359,21.6793943 72.7017544,21.6673684 C73.5220334,21.6768204 74.3353777,21.5162542 75.0905263,21.1957895 C75.7983834,20.8928884 76.4351459,20.4454337 76.96,19.8821053 C77.4898353,19.3049445 77.9000724,18.6285303 78.1670175,17.8919298 C78.4555881,17.0813312 78.5981455,16.2259869 78.5880702,15.365614 C78.5957077,14.5273959 78.4531039,13.6945896 78.1670175,12.9066667 C77.9010478,12.1754634 77.4948501,11.5032348 76.9712281,10.9277193 C76.4517661,10.3609812 75.8198383,9.9087848 75.1157895,9.6 C74.3543146,9.27014094 73.5315232,9.10558266 72.7017544,9.11719298 C71.8764412,9.10473689 71.0580496,9.2693724 70.3017544,9.6 C69.6010493,9.91036149 68.9721812,10.3624202 68.4547368,10.9277193 C67.929312,11.5045247 67.5220966,12.1787666 67.2561404,12.9122807 C66.9677672,13.6987007 66.8241645,14.5308355 66.8322807,15.3684211 L66.8322807,15.3684211 Z" id="Shape"></path>
                <path d="M83.5284211,23.9578947 L81.6224561,23.9578947 L89.0077193,6.87719298 L90.6919298,6.87719298 L98.0266667,23.9578947 L96.0982456,23.9578947 L94.2147368,19.4666667 L85.3866667,19.4666667 L83.5284211,23.9578947 Z M86.0378947,17.8778947 L93.5663158,17.8778947 L89.8021053,8.80561404 L86.0378947,17.8778947 Z" id="Shape"></path>
                <path d="M108.213333,9.62807018 C107.839832,9.10954412 107.351892,8.68403721 106.787368,8.3845614 C106.14246,8.05564891 105.425434,7.89352184 104.701754,7.91298246 C104.267973,7.91539029 103.836829,7.98062926 103.421754,8.10666667 C102.991203,8.23080194 102.586919,8.43246809 102.228772,8.70175439 C101.873226,8.96767991 101.58087,9.30892239 101.372632,9.70105263 C101.148406,10.1411328 101.038369,10.6305057 101.052632,11.1242105 C101.034489,11.5939772 101.142049,12.0600741 101.364211,12.474386 C101.578251,12.8315211 101.865195,13.1395078 102.206316,13.3782456 C102.568686,13.6371701 102.965519,13.8440904 103.385263,13.9929825 C103.826901,14.1557895 104.288187,14.3167251 104.769123,14.4757895 C105.362339,14.662924 105.959298,14.8725146 106.56,15.1045614 C107.136391,15.3241854 107.678104,15.6257676 108.168421,16 C108.654245,16.3688166 109.056111,16.8367027 109.347368,17.3726316 C109.674089,18.0278982 109.831394,18.7545924 109.804912,19.4863158 C109.824796,20.2506122 109.657099,21.0081387 109.316491,21.6926316 C109.010855,22.2894106 108.578844,22.8124207 108.050526,23.2252632 C107.518921,23.6323921 106.915085,23.9352626 106.270877,24.1178947 C105.615702,24.3062184 104.93714,24.4007256 104.255439,24.3986317 C103.736862,24.3978694 103.219661,24.3452089 102.711579,24.2414035 C102.204644,24.1396707 101.710442,23.9824675 101.237895,23.7726316 C100.76944,23.5618696 100.329852,23.2920801 99.9298246,22.9698246 C99.5280141,22.6441563 99.1712135,22.2665894 98.8687719,21.8470175 L100.364912,20.7242105 C100.752522,21.3526785 101.285961,21.8784143 101.92,22.2568421 C102.630941,22.6782653 103.446057,22.8912848 104.272281,22.8715789 C104.722591,22.8698049 105.170108,22.8007379 105.6,22.6666667 C106.041113,22.5346845 106.454102,22.3224804 106.818246,22.0407018 C107.18122,21.7565997 107.484559,21.403658 107.710877,21.0021053 C108.178759,20.0852472 108.178759,18.9996651 107.710877,18.082807 C107.476556,17.6994249 107.161387,17.3718017 106.787368,17.122807 C106.377082,16.8434575 105.931561,16.619753 105.462456,16.4575439 C104.962807,16.2816374 104.439766,16.1047953 103.893333,15.9270175 C103.33193,15.7501754 102.770526,15.5480702 102.228772,15.3235088 C101.695252,15.1070159 101.198211,14.8097381 100.755088,14.4421053 C100.316766,14.073458 99.9601648,13.6174292 99.7080702,13.1031579 C99.4229525,12.4885085 99.28641,11.8154118 99.3094737,11.1382456 C99.2891228,10.4001829 99.4592696,9.66932495 99.8035088,9.01614035 C100.120216,8.43586957 100.561116,7.93266847 101.094737,7.54245614 C101.625702,7.15771596 102.222007,6.87240252 102.854737,6.70035088 C103.4752,6.52627033 104.116287,6.43657471 104.760702,6.43368421 C105.784961,6.40505744 106.801797,6.61553675 107.730526,7.04842105 C108.454593,7.38325917 109.090075,7.88318481 109.585965,8.50807018 L108.213333,9.62807018 Z" id="Path"></path>
                <path d="M121.215439,9.62807018 C120.843037,9.10959966 120.356016,8.68405688 119.792281,8.3845614 C119.143132,8.05346503 118.421019,7.89127919 117.692632,7.91298246 C117.259764,7.91530523 116.829533,7.980549 116.415439,8.10666667 C115.988825,8.23206048 115.588447,8.43367625 115.233684,8.70175439 C114.883232,8.96921095 114.595765,9.3103386 114.391579,9.70105263 C114.164949,10.1414642 114.052963,10.631887 114.065965,11.1270175 C114.047822,11.5967842 114.155383,12.0628812 114.377544,12.477193 C114.591585,12.8343281 114.878529,13.1423148 115.219649,13.3810526 C115.581746,13.6404216 115.978644,13.8473757 116.398596,13.9957895 C116.838363,14.1585965 117.299649,14.3195322 117.782456,14.4785965 C118.375673,14.665731 118.972632,14.8753216 119.573333,15.1073684 C120.146389,15.3273386 120.685146,15.6279083 121.173333,16 C121.659158,16.3688166 122.061023,16.8367027 122.352281,17.3726316 C122.679001,18.0278982 122.836306,18.7545924 122.809825,19.4863158 C122.829708,20.2506122 122.662012,21.0081387 122.321404,21.6926316 C122.015767,22.2894106 121.583757,22.8124207 121.055439,23.2252632 C120.523173,23.632996 119.918299,23.9359091 119.272982,24.1178947 C118.618805,24.3064014 117.941143,24.4009149 117.260351,24.3986381 C116.741774,24.3978694 116.224573,24.3452089 115.716491,24.2414035 C115.210182,24.1380887 114.716879,23.9789893 114.245614,23.7670175 C113.779416,23.5575875 113.341752,23.2897066 112.943158,22.9698246 C112.541347,22.6441563 112.184547,22.2665894 111.882105,21.8470175 L113.378246,20.7242105 C113.765067,21.3533057 114.298678,21.8792113 114.933333,22.2568421 C115.644274,22.6782653 116.45939,22.8912848 117.285614,22.8715789 C117.735924,22.8698049 118.183441,22.8007379 118.613333,22.6666667 C119.054207,22.534091 119.467092,22.3219405 119.831579,22.0407018 C120.194553,21.7565997 120.497893,21.403658 120.724211,21.0021053 C121.192093,20.0852472 121.192093,18.9996651 120.724211,18.082807 C120.487464,17.6985415 120.169354,17.3708495 119.792281,17.122807 C119.378649,16.8415906 118.929292,16.616912 118.45614,16.4547368 C117.956491,16.2788304 117.43345,16.1019883 116.887018,15.9242105 C116.325614,15.7473684 115.764211,15.5452632 115.222456,15.3207018 C114.688936,15.1042089 114.191896,14.8069311 113.748772,14.4392982 C113.31045,14.070651 112.953849,13.6146222 112.701754,13.1003509 C112.416637,12.4857015 112.280094,11.8126048 112.303158,11.1354386 C112.282807,10.3973759 112.452954,9.66651793 112.797193,9.01333333 C113.1139,8.43306255 113.5548,7.92986145 114.088421,7.53964912 C114.619386,7.15490895 115.215691,6.8695955 115.848421,6.69754386 C116.468884,6.52346331 117.109972,6.43376769 117.754386,6.43087719 C118.778645,6.40225042 119.795481,6.61272973 120.724211,7.04561404 C121.448277,7.38045215 122.083759,7.88037779 122.579649,8.50526316 L121.215439,9.62807018 Z" id="Path"></path>
                <polygon id="Path" points="127.682807 23.9578947 125.945263 23.9578947 125.945263 6.87719298 127.682807 6.87719298"></polygon>
                <path d="M139.890526,9.62807018 C139.517452,9.11021165 139.030587,8.68480566 138.467368,8.3845614 C137.81822,8.05346503 137.096107,7.89127919 136.367719,7.91298246 C135.934851,7.91530523 135.504621,7.980549 135.090526,8.10666667 C134.663913,8.23206048 134.263535,8.43367625 133.908772,8.70175439 C133.553543,8.96687382 133.26121,9.30713083 133.052632,9.69824561 C132.826002,10.1386572 132.714016,10.62908 132.727018,11.1242105 C132.713171,11.5952573 132.825595,12.0614317 133.052632,12.474386 C133.266672,12.8315211 133.553616,13.1395078 133.894737,13.3782456 C134.256834,13.6376146 134.653732,13.8445687 135.073684,13.9929825 C135.515322,14.1557895 135.976608,14.3167251 136.457544,14.4757895 C137.048889,14.662924 137.645848,14.8725146 138.248421,15.1045614 C138.821638,15.3254028 139.360403,15.6269223 139.848421,16 C140.334245,16.3688166 140.736111,16.8367027 141.027368,17.3726316 C141.347922,18.0246854 141.501296,18.7462184 141.473684,19.4722807 C141.493568,20.2365771 141.325871,20.9941037 140.985263,21.6785965 C140.679627,22.2753756 140.247616,22.7983856 139.719298,23.2112281 C139.186529,23.6181544 138.581815,23.9209872 137.936842,24.1038596 C137.282665,24.2923663 136.605003,24.3868799 135.924211,24.384603 C135.405633,24.3838343 134.888433,24.3311738 134.380351,24.2273684 C133.873307,24.1260576 133.37906,23.9688398 132.906667,23.7585965 C132.440469,23.5491665 132.002804,23.2812856 131.604211,22.9614035 C131.2024,22.6357352 130.845599,22.2581684 130.543158,21.8385965 L132.039298,20.7157895 C132.427321,21.3595244 132.968229,21.8975393 133.614035,22.2821053 C134.324976,22.7035284 135.140092,22.916548 135.966316,22.8968421 C136.41661,22.8948586 136.864095,22.8257963 137.294035,22.6919298 C137.734909,22.5593542 138.147794,22.3472036 138.512281,22.0659649 C138.875255,21.7818629 139.178594,21.4289212 139.404912,21.0273684 C139.872794,20.1105104 139.872794,19.0249282 139.404912,18.1080702 C139.169511,17.714049 138.849228,17.3774639 138.467368,17.122807 C138.056326,16.8430351 137.609819,16.61931 137.139649,16.4575439 C136.643743,16.2816374 136.121637,16.1047953 135.573333,15.9270175 C135.025029,15.7492398 134.470175,15.5480702 133.908772,15.3235088 C133.375252,15.1070159 132.878211,14.8097381 132.435088,14.4421053 C131.996695,14.072827 131.63929,13.6169914 131.385263,13.1031579 C131.102505,12.4878199 130.966993,11.8150676 130.989474,11.1382456 C130.969123,10.4001829 131.13927,9.66932495 131.483509,9.01614035 C131.800417,8.43920376 132.240269,7.93897972 132.77193,7.55087719 C133.302895,7.16613702 133.8992,6.88082357 134.53193,6.70877193 C135.152393,6.53469138 135.79348,6.44499576 136.437895,6.44210526 C137.461285,6.41308808 138.477299,6.62359611 139.404912,7.05684211 C140.13027,7.39085816 140.766843,7.89088562 141.263158,8.51649123 L139.890526,9.62807018 Z" id="Path"></path>
                <polygon id="Path" points="150.338246 23.9578947 148.600702 23.9578947 148.600702 8.42105263 142.877193 8.42105263 142.877193 6.87719298 156.070175 6.87719298 156.070175 8.42105263 150.338246 8.42105263"></polygon>
            </g>
        </g>
    </g>
</svg>