<?xml version="1.0" encoding="UTF-8"?>
<svg width="24px" height="24px" viewBox="0 0 24 24" version="1.1" xmlns="http://www.w3.org/2000/svg" xmlns:xlink="http://www.w3.org/1999/xlink">
    <!-- Generator: Sketch 62 (91390) - https://sketch.com -->
    <title>Chatwith designer-icon</title>
    <desc>Created with Sketch.</desc>
    <g id="Symbols" stroke="none" stroke-width="1" fill="none" fill-rule="evenodd">
        <g id="Design-Tools/View-Panel" transform="translate(-384.000000, -23.000000)" fill="#52C41A" fill-rule="nonzero">
            <g id="Chatwith-designer-icon" transform="translate(384.000000, 23.000000)">
                <path d="M24,12.0094974 C24,18.5888405 18.5750903,24 11.9744668,24 C5.37384334,24 0,18.5805303 0,11.9418283 C0,5.40284923 5.42847246,0 11.9827799,0 C18.6147924,0.00849809629 23.9895325,5.37978419 24,12.0094974 Z M11.9946558,1.12663237 C6.03176802,1.12663237 1.13414815,6.00593589 1.12582441,11.9560744 C1.1175219,17.9548872 5.99495274,22.8650574 11.9637785,22.8674317 C17.968232,22.8674317 22.874165,17.9821923 22.874165,11.9964385 C22.8610906,5.99631598 17.9968629,1.13642655 11.9946558,1.12663237 Z" id="Shape"></path>
                <path d="M5.65264621,14.8576842 C5.65264621,14.7778172 5.6418352,14.6967757 5.6418352,14.6157342 C5.6418352,14.1870363 5.62982297,13.757164 5.6418352,13.323768 C5.65024377,13.0888651 5.59138382,12.9655411 5.33071832,13.0043 C5.30514856,13.0066496 5.27940979,13.0066496 5.25384002,13.0043 C4.45757556,12.979379 3.8294035,12.3337837 3.84360367,11.5549489 C3.83879878,9.94742979 3.83879878,8.33991068 3.84360367,6.73239157 C3.83147603,6.34365717 3.98417001,5.96730024 4.26554199,5.69240688 C4.54691396,5.41751351 4.93195271,5.26851904 5.3295171,5.28069141 C8.66010937,5.28069141 11.991102,5.28069141 15.3224951,5.28069141 C16.0757009,5.26439832 16.712109,5.82340184 16.7759755,6.55738888 C16.7905874,6.65739868 16.7986121,6.75822314 16.8,6.85923916 C16.8,7.93626913 16.8,9.01329911 16.8,10.0903291 C16.8,10.3181849 16.7255241,10.3957029 16.4876819,10.3945284 C14.6017611,10.3863068 12.7170414,10.3945284 10.8323218,10.3945284 C9.73920845,10.3945284 9.00165724,11.0992372 8.97042543,12.1668711 C8.97042543,12.3688876 8.95961442,12.5720786 8.97042543,12.7729206 C8.98123644,12.9737627 8.90075447,13.0172197 8.71576606,13.0172197 C8.2520938,13.0089981 7.78601909,13.0242668 7.32234683,13.0101726 C7.13971868,12.9970854 6.96589354,13.0887081 6.87669293,13.2450755 C6.49590509,13.7947484 6.10310501,14.3361997 5.71510983,14.88 L5.65264621,14.8576842 Z" id="Path"></path>
                <path d="M17.7992288,18.24 C17.5424804,17.8747225 17.2690136,17.5189326 17.0337604,17.1394235 C16.9212609,16.9388772 16.6986744,16.8248442 16.468914,16.8500478 C14.5856947,16.8595355 12.7036696,16.8559776 10.8216445,16.8500478 C10.0693121,16.8500478 9.6274661,16.4491912 9.61433014,15.6996607 C9.59522329,14.5279262 9.59522329,13.3554011 9.61433014,12.1820853 C9.62627192,11.4515302 10.0788655,11.04 10.8085085,11.04 C13.2040304,11.04 15.5995522,11.04 17.995074,11.04 C18.7545715,11.04 19.1976116,11.4764355 19.2,12.2259661 C19.2,13.3723999 19.2,14.5188338 19.2,15.6652677 C19.2,16.3981947 18.8154746,16.8037951 18.0810549,16.8512337 C17.9031223,16.8607215 17.8672969,16.9378093 17.8696853,17.0884269 C17.8696853,17.4620063 17.8696853,17.8343996 17.8696853,18.2079789 L17.7992288,18.24 Z M12.3298918,14.5160665 C12.4856102,14.5189218 12.6360745,14.460133 12.7480906,14.3526696 C12.8601067,14.2452062 12.9244699,14.0978987 12.926981,13.9432449 C12.9311692,13.7833221 12.8701156,13.6285031 12.7576825,13.5139401 C12.6452494,13.399377 12.4909765,13.3347903 12.3298918,13.3348388 C11.9965983,13.3334477 11.7233331,13.5969292 11.7148899,13.9278274 C11.7161029,14.087403 11.7820275,14.2397578 11.897764,14.3504579 C12.0135005,14.4611579 12.169279,14.5208585 12.3298918,14.5160665 L12.3298918,14.5160665 Z M17.091081,13.9301993 C17.091081,13.6027038 16.823755,13.3372163 16.4939918,13.3372163 C16.3339286,13.3343263 16.1798844,13.3977699 16.068857,13.5123094 C15.9578295,13.6268488 15.8998503,13.7821354 15.9088444,13.940873 C15.9034544,14.0956319 15.9629937,14.2456686 16.0732484,14.3551651 C16.1835031,14.4646616 16.3345788,14.5237914 16.4904093,14.5184385 C16.6499145,14.5240186 16.804694,14.4641168 16.9183392,14.3528238 C17.0319844,14.2415308 17.0944639,14.0886703 17.091081,13.9301993 Z M14.426869,13.3372163 C14.2674811,13.3321118 14.1126601,13.3905399 13.9969096,13.4994794 C13.8811591,13.6084188 13.8140985,13.7588162 13.810673,13.9171537 C13.8034088,14.0759399 13.8624941,14.230657 13.9739587,14.3447231 C14.0854232,14.4587892 14.2393712,14.5220776 14.3994029,14.5196244 C14.7291662,14.5271568 15.0026406,14.2677755 15.0102251,13.94028 C15.0178097,13.6127845 14.7566323,13.3411908 14.426869,13.3336584 L14.426869,13.3372163 Z" id="Shape"></path>
            </g>
        </g>
    </g>
</svg>