<?xml version="1.0" encoding="UTF-8"?>
<svg width="38px" height="38px" viewBox="0 0 38 38" version="1.1" xmlns="http://www.w3.org/2000/svg" xmlns:xlink="http://www.w3.org/1999/xlink">
    <!-- Generator: Sketch 62 (91390) - https://sketch.com -->
    <title>Chatwith designer-icon</title>
    <desc>Created with Sketch.</desc>
    <g id="2.-DesignLAB" stroke="none" stroke-width="1" fill="none" fill-rule="evenodd">
        <g id="Pro-Assist-2" transform="translate(-476.000000, -115.000000)" fill="#5F6062" fill-rule="nonzero">
            <g id="Group-2" transform="translate(476.000000, 115.000000)">
                <g id="Chatwith-designer-icon">
                    <path d="M38,19.0150376 C38,29.4323308 29.4105597,38 18.9595725,38 C8.50858528,38 0,29.4191729 0,18.9078947 C0,8.55451128 8.5950814,0 18.9727349,0 C29.4734213,0.0134553191 37.9834264,8.51799164 38,19.0150376 Z M18.9915384,1.78383459 C9.55029937,1.78383459 1.79573457,9.5093985 1.78255532,18.9304511 C1.76940967,28.4285714 9.49200851,36.2030075 18.9426493,36.2067669 C28.4497006,36.2067669 36.2174279,28.4718045 36.2174279,18.9943609 C36.1967267,9.49416697 28.4950329,1.79934204 18.9915384,1.78383459 Z" id="Shape"></path>
                    <path d="M8.95002317,23.5246667 C8.95002317,23.3982106 8.93290574,23.2698949 8.93290574,23.1415791 C8.93290574,22.4628075 8.91388637,21.7821763 8.93290574,21.0959661 C8.9462193,20.7240364 8.85302438,20.5287733 8.44030401,20.5901417 C8.39981855,20.5938619 8.3590655,20.5938619 8.31858004,20.5901417 C7.05782796,20.5506833 6.06322222,19.5284909 6.08570581,18.2953358 C6.07809806,15.7500972 6.07809806,13.2048586 6.08570581,10.65962 C6.06650371,10.0441239 6.30826919,9.44822538 6.75377482,9.01297756 C7.19928044,8.57772973 7.80892513,8.34182182 8.43840208,8.36109474 C13.7118398,8.36109474 18.9859116,8.36109474 24.2606173,8.36109474 C25.453193,8.33529734 26.4608393,9.22038624 26.5619613,10.3825324 C26.5850968,10.5408812 26.5978025,10.70052 26.6,10.860462 C26.6,12.5657595 26.6,14.2710569 26.6,15.9763544 C26.6,16.3371261 26.4820799,16.4598629 26.1054963,16.4580033 C23.119455,16.4449857 20.1353156,16.4580033 17.1511762,16.4580033 C15.4204134,16.4580033 14.252624,17.5737922 14.2031736,19.2642125 C14.2031736,19.584072 14.1860562,19.9057912 14.2031736,20.223791 C14.220291,20.5417909 14.0928612,20.6105979 13.7999629,20.6105979 C13.0658152,20.5975803 12.3278636,20.6217557 11.5937158,20.59944 C11.3045546,20.5787185 11.0293314,20.7237879 10.8880971,20.9713696 C10.2851831,21.841685 9.66324961,22.6989829 9.0489239,23.56 L8.95002317,23.5246667 Z" id="Path"></path>
                    <path d="M28.1821122,28.88 C27.775594,28.3016439 27.3426048,27.73831 26.9701207,27.1374205 C26.7919965,26.8198889 26.4395678,26.6393367 26.0757806,26.6792423 C23.0940167,26.6942645 20.1141436,26.6886312 17.1342704,26.6792423 C15.9430775,26.6792423 15.243488,26.0445528 15.2226894,24.8577961 C15.1924369,23.0025498 15.1924369,21.1460517 15.2226894,19.2883018 C15.2415972,18.1315895 15.9582038,17.48 17.1134718,17.48 C20.9063814,17.48 24.699291,17.48 28.4922005,17.48 C29.6947382,17.48 30.3962184,18.1710229 30.4,19.3577796 C30.4,21.1729666 30.4,22.9881535 30.4,24.8033405 C30.4,25.9638083 29.7911681,26.6060089 28.6283369,26.6811201 C28.3466103,26.6961423 28.2898868,26.818198 28.2936684,27.056676 C28.2936684,27.6481766 28.2936684,28.2377994 28.2936684,28.8293 L28.1821122,28.88 Z M19.5223286,22.983772 C19.7688828,22.9882929 20.0071179,22.8952106 20.1844768,22.7250602 C20.3618356,22.5549098 20.463744,22.321673 20.4677199,22.0768045 C20.4743512,21.8235933 20.377683,21.5784633 20.1996639,21.3970718 C20.0216448,21.2156803 19.7773795,21.1134179 19.5223286,21.1134948 C18.994614,21.1112921 18.561944,21.5284713 18.5485757,22.0523933 C18.5504963,22.3050548 18.654877,22.5462832 18.8381264,22.7215583 C19.0213758,22.8968334 19.2680251,22.9913593 19.5223286,22.983772 L19.5223286,22.983772 Z M27.0608782,22.0561489 C27.0608782,21.5376144 26.6376122,21.1172591 26.115487,21.1172591 C25.8620536,21.1126834 25.6181503,21.2131357 25.4423569,21.3944898 C25.2665634,21.575844 25.1747629,21.8217143 25.1890036,22.0730489 C25.1804695,22.3180838 25.27474,22.555642 25.4493099,22.7290114 C25.6238799,22.9023808 25.863083,22.996003 26.1098147,22.9875276 C26.3623646,22.9963627 26.6074321,22.9015183 26.7873703,22.7253044 C26.9673086,22.5490905 27.0662346,22.3070613 27.0608782,22.0561489 Z M22.8425426,21.1172591 C22.5901784,21.109177 22.3450452,21.2016882 22.1617736,21.3741757 C21.9785019,21.5466631 21.8723226,21.7847922 21.8668989,22.0354933 C21.8553973,22.2869049 21.9489491,22.5318735 22.1254346,22.7124782 C22.3019201,22.8930828 22.5456711,22.9932896 22.7990546,22.9894054 C23.3211797,23.0013316 23.7541809,22.5906445 23.7661898,22.07211 C23.7781987,21.5535755 23.3646677,21.1235521 22.8425426,21.1116258 L22.8425426,21.1172591 Z" id="Shape"></path>
                </g>
            </g>
        </g>
    </g>
</svg>