<svg xmlns="http://www.w3.org/2000/svg" width="10cm" height="10cm" viewBox="0 0 283.46 283.46"><defs><style>
      .a {
        fill: #fff;
      }
    </style></defs><g><g><rect class="a" x="75.83" y="178.98" width="41.24" height="41.24"></rect><rect class="a" x="125.04" y="178.98" width="41.24" height="41.24"></rect><rect class="a" x="75.29" y="155.95" width="140.74" height="15.05"></rect><rect class="a" x="75.29" y="135.66" width="140.74" height="15.05"></rect><rect class="a" x="174.26" y="178.98" width="41.24" height="41.24"></rect></g><path class="a" d="M220.41,129.65H198.1a7.88,7.88,0,1,1,0-15.75h1L145.66,68,92.19,113.9h1a7.88,7.88,0,1,1,0,15.75H70.91a7.87,7.87,0,0,1-5.13-13.85l74.75-64.13a7.88,7.88,0,0,1,10.26,0l74.75,64.13a7.87,7.87,0,0,1-5.13,13.85Z"></path></g></svg>