<svg xmlns="http://www.w3.org/2000/svg" width="10cm" height="10cm" viewBox="0 0 283.46 283.46"><g><g><rect x="72.02" y="178.98" width="41.24" height="41.24"></rect><rect x="121.24" y="178.98" width="41.24" height="41.24"></rect><rect x="71.49" y="155.95" width="140.74" height="15.05"></rect><rect x="71.49" y="135.66" width="140.74" height="15.05"></rect><rect x="170.46" y="178.98" width="41.24" height="41.24"></rect></g><path d="M216.61,129.65H194.29a7.88,7.88,0,0,1,0-15.75h1L141.86,68,88.39,113.9h1a7.88,7.88,0,1,1,0,15.75H67.11A7.87,7.87,0,0,1,62,115.8l74.75-64.13a7.88,7.88,0,0,1,10.26,0l74.75,64.13a7.87,7.87,0,0,1-5.13,13.85Z"></path></g></svg>