<?xml version="1.0" encoding="UTF-8"?>
<svg width="21px" height="15px" viewBox="0 0 21 15" version="1.1" xmlns="http://www.w3.org/2000/svg" xmlns:xlink="http://www.w3.org/1999/xlink">
    <!-- Generator: Sketch 48.2 (47327) - http://www.bohemiancoding.com/sketch -->
    <title>quickview</title>
    <desc>Created with Sketch.</desc>
    <defs></defs>
    <g id="Product-Thumbnail/Quick-View/Default" stroke="none" stroke-width="1" fill="none" fill-rule="evenodd" transform="translate(0.000000, -1.000000)">
        <path d="M12.1218343,8.49353801 C12.1218343,7.66016867 11.4459083,6.98424265 10.6125389,6.98424265 C9.77916959,6.98424265 9.10324356,7.66016867 9.10324356,8.49353801 C9.10324356,9.32690735 9.77916959,10.0028334 10.6125389,10.0028334 C11.4459083,10.0028334 12.1218343,9.32690735 12.1218343,8.49353801 Z M0.424557372,8.76554748 C0.424202303,8.76463589 0.423849001,8.7637236 0.423497468,8.76281061 C0.353700985,8.58135093 0.359146985,8.38945991 0.424557372,8.22152854 C1.85526911,4.50681037 6.61318698,1.41751099 10.6297096,1.41751099 C14.6276183,1.41751099 19.3192617,4.44334815 20.7975936,8.12602554 C20.8460865,8.24682631 20.860919,8.37279314 20.8465281,8.49353801 C20.860919,8.61428288 20.8460865,8.74024972 20.7975936,8.86105049 C19.3192617,12.5437279 14.6276183,15.569565 10.6297096,15.569565 C6.61318698,15.569565 1.85526911,12.4802657 0.424557372,8.76554748 Z M19.3248944,8.49353801 C17.9903133,5.47429643 13.9573356,2.91751099 10.6297096,2.91751099 C7.31653109,2.91751099 3.26580653,5.48607168 1.93486912,8.49353801 C3.26580653,11.5010043 7.31653109,14.069565 10.6297096,14.069565 C13.9573356,14.069565 17.9903133,11.5127796 19.3248944,8.49353801 Z M13.6218343,8.49353801 C13.6218343,10.1553345 12.2743354,11.5028334 10.6125389,11.5028334 C8.95074246,11.5028334 7.60324356,10.1553345 7.60324356,8.49353801 C7.60324356,6.83174155 8.95074246,5.48424265 10.6125389,5.48424265 C12.2743354,5.48424265 13.6218343,6.83174155 13.6218343,8.49353801 Z" id="quickview" fill="#5F6062" fill-rule="nonzero"></path>
    </g>
</svg>