<?xml version="1.0" encoding="UTF-8"?>
<svg width="304px" height="292px" viewBox="0 0 304 292" version="1.1" xmlns="http://www.w3.org/2000/svg" xmlns:xlink="http://www.w3.org/1999/xlink">
    <!-- Generator: sketchtool 51.2 (57519) - http://www.bohemiancoding.com/sketch -->
    <title>BED1C350-B73A-42D4-BA9F-FBBC3E77CC27</title>
    <desc>Created with sketchtool.</desc>
    <defs>
        <rect id="path-1" x="0" y="0" width="304" height="292"></rect>
    </defs>
    <g id="Informational-Pages" stroke="none" stroke-width="1" fill="none" fill-rule="evenodd">
        <g id="9.2-Fit&amp;Sizing" transform="translate(-689.000000, -3382.000000)">
            <g id="Group-7" transform="translate(32.000000, 3265.000000)">
                <g id="Recurso-2" transform="translate(657.000000, 117.000000)">
                    <mask id="mask-2" fill="white">
                        <use xlink:href="#path-1"></use>
                    </mask>
                    <use id="Mask" fill="#F1F4F5" xlink:href="#path-1"></use>
                    <g mask="url(#mask-2)">
                        <g transform="translate(42.000000, -81.000000)">
                            <g id="Capa_6" transform="translate(1.605839, 1.676892)">
                                <path d="M82.5722628,107.824131 C82.5722628,107.824131 82.5722628,124.442127 110.305109,123.737832 C134.890511,123.117382 135.886131,108.997955 135.886131,108.997955 C135.886131,108.997955 137.957664,118.086708 151.70365,124.727198 C170.218978,133.765644 199.124088,135.828221 208.229197,160.344376 C213.175182,173.625358 215.728467,210.651125 215.728467,224.33456 C215.728467,238.017996 219.405839,242.29407 217.173723,243.166053 C214.941606,244.038037 190.982482,251.969734 185.554745,251.148057 C182.177929,250.638523 178.769506,250.391899 175.357664,250.410225 C175.357664,250.410225 176.272993,229.817996 176,225.256851 C175.839416,222.573824 174.056934,248.280573 173.350365,254.468303 C172.643796,260.656033 176.754745,302.729243 182.214599,330.699796 C184.89635,344.450307 190.243796,357.748057 180.608759,356.406544 C157.284977,348.868069 132.967415,345.223445 108.554745,345.607362 C75.6510949,346.093661 49.2671533,353.656442 37.5766423,356.440082 C35.8014818,356.864965 33.9419161,356.30516 32.6557709,354.9587 C31.3696256,353.612239 30.8382559,351.668981 31.249635,349.81636 C35.2321168,331.756237 43.0686131,287.871984 44.2569343,259.264213 C44.9635036,242.176687 44.7868613,233.976687 44.7868613,233.976687 C44.7868613,233.976687 46.3927007,226.061759 44.6423358,236.860941 C42.3781022,250.393456 44.1124088,251.500204 43.0364964,251.114519 C40.1459854,250.158691 6.76058394,248.045808 0.802919708,243.149284 C-2.40875912,240.466258 6.18248175,202.652352 4.73722628,185.330061 C3.25522287,162.248842 16.9247781,141.047697 37.9620438,133.799182 C71.0905109,121.993865 73.2905109,121.675256 82.5722628,107.824131 Z" id="Shape" fill="#E61737" fill-rule="nonzero"></path>
                                <g id="Group" opacity="0.55" transform="translate(0.000000, 107.321063)" fill="#A5A5A5" fill-rule="nonzero">
                                    <path d="M82.5722628,0.503067485 C82.5722628,0.503067485 82.5722628,17.1210634 110.305109,16.4167689 C134.890511,15.796319 135.886131,1.67689162 135.886131,1.67689162 C135.886131,1.67689162 137.957664,10.7656442 151.70365,17.406135 C170.218978,26.4445808 199.124088,28.5071575 208.229197,53.0233129 C213.175182,66.3042945 215.728467,103.330061 215.728467,117.013497 C215.728467,130.696933 219.405839,134.973006 217.173723,135.84499 C214.941606,136.716973 190.982482,144.648671 185.554745,143.826994 C182.177929,143.31746 178.769506,143.070836 175.357664,143.089162 C175.357664,143.089162 176.272993,122.496933 176,117.935787 C175.839416,115.252761 174.056934,140.959509 173.350365,147.147239 C172.643796,153.334969 176.754745,195.40818 182.214599,223.378732 C184.89635,237.129243 190.243796,250.426994 180.608759,249.085481 C157.284977,241.547006 132.967415,237.902382 108.554745,238.286299 C75.6510949,238.772597 49.2671533,246.335378 37.5766423,249.119018 C35.8014818,249.543902 33.9419161,248.984097 32.6557709,247.637636 C31.3696256,246.291175 30.8382559,244.347918 31.249635,242.495297 C35.2321168,224.435174 43.0686131,180.55092 44.2569343,151.943149 C44.9635036,134.855624 44.7868613,126.655624 44.7868613,126.655624 C44.7868613,126.655624 46.3927007,118.740695 44.6423358,129.539877 C42.3781022,143.072393 44.1124088,144.179141 43.0364964,143.793456 C40.1459854,142.837628 6.76058394,140.724744 0.802919708,135.828221 C-2.40875912,133.145194 6.18248175,95.3312883 4.73722628,78.008998 C3.25522287,54.9277791 16.9247781,33.7266332 37.9620438,26.4781186 C71.0905109,14.6728016 73.2905109,14.3541922 82.5722628,0.503067485 Z" id="Shape"></path>
                                </g>
                                <path d="M82.2350365,106.918609 C82.2350365,106.918609 84.9167883,125.364417 109.357664,124.442127 C133.79854,123.519836 134.890511,108.125971 134.890511,108.125971 C134.890511,108.125971 136.640876,115.537832 149.166423,121.826176 C169.817518,132.206135 200.328467,132.071984 208.582482,163.614315 C214.684672,186.839264 211.713869,195.475256 211.713869,208.991002 C211.713869,222.506748 212.40438,243.736196 210.108029,244.60818 C207.811679,245.480164 190.468613,251.080982 185.040876,250.242536 C179.613139,249.40409 180.705109,249.001636 180.705109,249.001636 C180.705109,249.001636 177.959124,223.496115 176.353285,221.4 C174.747445,219.303885 168.452555,250.678528 167.762044,256.849489 C167.071533,263.02045 170.973723,309.973415 175.951825,334.724335 C180.335766,355.501022 180.335766,355.501022 178.842336,355.501022 C155.206461,348.738948 130.779409,345.470736 106.274453,345.79182 C58.0992701,346.529652 37.2233577,355.601636 37.2233577,355.601636 C37.2233577,355.601636 52.2058394,290.202863 47.8218978,253.948466 C45.7664234,236.995092 31.940146,181.540286 31.940146,181.540286 C31.940146,181.540286 42.8759124,210.88589 41.0773723,221.685072 C38.8131387,235.217587 37.4963504,249.588548 36.420438,250.192229 C32.7751825,252.087117 9.47445255,250.343149 6.58394161,243.484663 C4.97810219,239.493661 8.67153285,200.82454 7.21021898,183.502249 C5.74890511,166.179959 12.0277372,142.200409 37.6248175,133.044581 C70.7532847,121.105112 72.9532847,120.736196 82.2350365,106.918609 Z" id="Shape" fill="#DCDCDC" fill-rule="nonzero"></path>
                                <path d="M185.827737,465.85726 L185.827737,449.675256 L185.731387,449.675256 C184.622389,449.85842 183.494871,449.492804 182.680292,448.68589 C181.524088,447.260532 182.086131,444.711656 183.065693,440.066667 C183.675912,437.249489 184.430657,433.728016 185.056934,429.317791 C185.553269,425.613547 185.72527,421.869773 185.570803,418.132924 C185.437337,415.830224 185.545031,413.519189 185.891971,411.2409 C186.029326,401.289008 185.460372,391.340165 184.189781,381.476074 C182.487591,370.593047 179.854015,359.961554 179.179562,357.177914 C177.750365,356.959918 175.823358,356.440082 173.189781,355.719018 C169.608759,354.746421 165.160584,353.52229 159.556204,352.365235 C145.970803,349.749284 111.381022,347.837628 107.655474,347.703476 C104.363504,347.820859 71.1386861,349.732515 57.280292,352.365235 C51.8043796,353.404908 47.340146,354.629039 43.7591241,355.601636 C41.7522125,356.208797 39.7151348,356.701414 37.6569343,357.077301 C36.950365,359.894479 34.3489051,370.576278 32.6306569,381.442536 C31.4062497,390.624578 30.8693426,399.892341 31.0248175,409.161554 C31.0583692,409.225452 31.085286,409.29291 31.1051095,409.362781 C31.9464352,412.186035 32.2358631,415.157052 31.9562044,418.099387 C31.8017376,421.836235 31.9737386,425.580009 32.470073,429.284254 C33.0963504,433.694479 33.8510949,437.215951 34.4452555,440.033129 C35.4408759,444.678119 36.0510949,447.226994 34.8467153,448.652352 C34.0321364,449.459266 32.9046181,449.824882 31.7956204,449.641718 C31.5745935,449.629337 31.3546246,449.601325 31.1372263,449.557873 L31.1372263,464.985276 C31.2656934,465.136196 31.3781022,465.303885 31.4744526,465.438037 C33.080292,467.718609 34.3167883,472.548057 32.7109489,474.308793 C32.3412367,474.709106 31.8303784,474.933402 31.2978102,474.929243 L31.2014599,474.929243 C32.4058394,491.144785 34.7985401,521.161145 35.5532847,524.045399 C36.2277372,526.577505 36.6131387,526.66135 49.1868613,527.231493 C51.4832117,527.332106 54.1649635,527.449489 57.2963504,527.617178 C75.6189781,528.539468 86.1211679,526.426585 87.9036496,526.024131 C88.5136742,523.889201 88.7422982,521.655279 88.5781022,519.433947 C88.8829818,509.762403 90.594011,500.195452 93.6525547,491.060941 C96.8642336,482.223722 102.854015,450.815542 103.287591,446.623313 C103.363014,445.323629 103.942993,444.112347 104.893431,443.26953 C105.987349,442.443983 107.319479,442.035541 108.667153,442.112474 C109.928507,442.029795 111.177952,442.409352 112.2,443.185685 C113.181522,444.067652 113.764009,445.338915 113.805839,446.690389 C114.191241,450.865849 120.229197,482.290798 123.440876,491.128016 C126.481419,500.259857 128.17617,509.820958 128.467153,519.484254 C128.304686,521.712202 128.538805,523.952303 129.157664,526.091207 C131.036496,526.510429 141.522628,528.589775 159.668613,527.667485 C162.880292,527.499796 165.49781,527.382413 167.69781,527.2818 C180.287591,526.711656 180.672993,526.627812 181.347445,524.095706 C182.10219,521.211452 184.559124,491.144785 185.69927,474.929243 C185.335578,474.843432 185.00528,474.644669 184.751825,474.3591 C183.274453,472.682209 184.350365,468.238446 185.827737,465.85726 Z" id="Shape" fill="#8B8B8B" fill-rule="nonzero"></path>
                                <path d="M150.627737,528.740695 C143.350636,528.884084 136.077904,528.271804 128.916788,526.912883 L128.515328,526.81227 L128.354745,526.426585 C127.676507,524.18491 127.414877,521.828513 127.583942,519.484254 C127.28716,509.887197 125.592299,500.393325 122.557664,491.329243 C119.345985,482.458487 113.308029,450.882618 112.922628,446.690389 C112.882252,445.560248 112.386506,444.500525 111.557664,443.772597 C110.68886,443.113418 109.626316,442.793011 108.554745,442.867076 C107.378949,442.795945 106.214247,443.13838 105.246715,443.839673 C104.439889,444.555031 103.951783,445.586572 103.89781,446.690389 C103.528467,450.882618 97.4744526,482.458487 94.2627737,491.329243 C91.2390396,500.372592 89.54966,509.843472 89.2525547,519.417178 C89.4045699,521.746607 89.1599082,524.085733 88.529927,526.325971 L88.3693431,526.745194 L87.9518248,526.745194 C86.0248175,527.181186 75.4905109,529.277301 57.1357664,528.422086 C54.0043796,528.254397 51.3226277,528.137014 49.1065693,528.036401 C36.5970803,527.466258 35.5854015,527.415951 34.6540146,524.229857 C33.6905109,520.574233 30.3985401,476.824131 30.270073,474.962781 L30.189781,474.006953 L31.1051095,474.006953 C31.4377666,474.019007 31.7613379,473.892299 32.0043796,473.654806 C33.1605839,472.363599 32.2291971,468.037219 30.7036496,465.85726 L30.3824818,465.421268 L30.2058394,465.186503 L30.2058394,448.501431 L31.1372263,448.652352 L31.7153285,448.652352 C32.5669813,448.825722 33.4471498,448.571103 34.0919708,447.964826 C34.9912409,446.858078 34.4452555,444.309202 33.5459854,440.083436 C32.9357664,437.215951 32.1810219,433.694479 31.5386861,429.267485 C31.0429107,425.512558 30.870931,421.718738 31.0248175,417.931697 C31.2937997,415.110038 31.0263948,412.260686 30.2379562,409.547239 L29.820438,408.440491 L30.1576642,408.356646 C30.0264627,399.266291 30.5633178,390.178821 31.7635036,381.174233 C33.5459854,370.593047 36.1313869,359.911247 36.9343066,356.909611 L37.0788321,356.373006 L37.6087591,356.373006 C39.0218978,356.15501 41.0452555,355.601636 43.6145985,354.91411 C47.2116788,353.924744 51.6437956,352.700613 57.2,351.660941 C70.9941606,348.961145 104.459854,347.116564 107.591241,346.915337 C111.188321,347.049489 146.131387,348.994683 159.668613,351.593865 C165.337226,352.683845 169.80146,353.907975 173.366423,354.947648 C175.983942,355.651943 177.878832,356.171779 179.259854,356.373006 L179.789781,356.456851 L179.918248,356.993456 C180.672993,359.995092 183.258394,370.626585 184.960584,381.425767 C186.21718,391.341861 186.786057,401.339803 186.662774,411.341513 C186.319423,413.608918 186.211742,415.908431 186.341606,418.2 C186.495492,421.98704 186.323513,425.780861 185.827737,429.535787 C185.185401,433.962781 184.430657,437.484254 183.820438,440.334969 C182.921168,444.577505 182.375182,447.12638 183.258394,448.233129 C183.904353,448.849489 184.794103,449.105153 185.651095,448.920654 L186.50219,448.920654 L186.59854,449.792638 L186.59854,466.175869 L186.470073,466.377096 C185.056934,468.657669 184.254015,472.631902 185.362044,473.856033 C185.510396,474.015556 185.700178,474.126302 185.908029,474.174642 L186.582482,474.342331 L186.582482,475.063395 C186.437956,476.924744 183.162044,520.725153 182.19854,524.380777 C181.347445,527.566871 180.319708,527.617178 167.745985,528.187321 C165.449635,528.287935 162.767883,528.405317 159.716788,528.573006 C156.665693,528.740695 153.405839,528.740695 150.627737,528.740695 Z M129.751825,525.386912 C132.481752,525.957055 142.59854,527.73456 159.684672,526.862577 C162.816058,526.694888 165.49781,526.577505 167.713869,526.476892 C180.078832,525.923517 180.110949,525.806135 180.560584,523.894479 C181.20292,521.479755 183.226277,497.248671 184.848175,475.516155 C184.59932,475.37288 184.372058,475.192066 184.173723,474.97955 C182.294891,472.933742 183.418978,468.271984 184.960584,465.656033 L184.960584,450.564008 C183.844101,450.594999 182.768415,450.124931 182.005839,449.272802 C180.592701,447.59591 181.170803,444.829039 182.214599,439.949284 C182.824818,437.115337 183.579562,433.627403 184.205839,429.250716 C184.689747,425.590278 184.856359,421.89171 184.70365,418.2 C184.561058,415.835434 184.674181,413.461618 185.040876,411.123517 C185.142284,401.272823 184.573456,391.427048 183.338686,381.660532 C181.732847,371.498569 179.356204,361.537832 178.521168,357.915746 C177.124088,357.664213 175.309489,357.177914 172.981022,356.540695 C169.432117,355.568098 164.951825,354.360736 159.39562,353.270757 C145.938686,350.654806 111.140146,348.793456 107.591241,348.592229 C104.508029,348.709611 71.1708029,350.621268 57.3927007,353.237219 C51.9328467,354.276892 47.5007299,355.484254 43.919708,356.456851 C41.6072993,357.09407 39.7124088,357.613906 38.2671533,357.86544 C37.3839416,361.437219 35.0554745,371.448262 33.449635,381.626994 C32.2332865,390.759255 31.6963998,399.976208 31.8437956,409.195092 C32.6924674,412.085922 32.987135,415.123089 32.7109489,418.132924 C32.5578836,421.830212 32.7244954,425.534381 33.2087591,429.200409 C33.8350365,433.577096 34.589781,437.065031 35.1839416,439.882209 C36.2437956,444.778732 36.789781,447.478528 35.4087591,449.222495 C34.4889963,450.194699 33.1920027,450.670896 31.8919708,450.513701 L31.8919708,464.716973 L32.0846715,464.985276 C33.8510949,467.517382 35.2160584,472.766053 33.2408759,474.929243 C32.9017796,475.296676 32.4749299,475.56296 32.0043796,475.700613 C33.610219,497.366053 35.649635,521.446217 36.2759124,523.844172 C36.789781,525.755828 36.8218978,525.873211 49.1226277,526.426585 C51.4189781,526.527198 54.1007299,526.644581 57.2481752,526.81227 C74.2861314,527.667485 84.4510949,525.906748 87.1970803,525.336605 C87.5930032,523.409113 87.7548609,521.43722 87.6788321,519.467485 C87.9839489,509.693237 89.7112523,500.02434 92.8014599,490.792638 C96.0131387,482.005726 101.954745,450.748466 102.340146,446.573006 C102.422514,445.016799 103.127655,443.568458 104.283212,442.582004 C105.525903,441.628308 107.046879,441.154196 108.586861,441.240491 C110.020698,441.148255 111.438876,441.594318 112.585401,442.49816 C113.763493,443.505749 114.480536,444.985025 114.560584,446.573006 C114.945985,450.748466 120.887591,482.005726 124.09927,490.792638 C127.189478,500.02434 128.916781,509.693237 129.221898,519.467485 C129.120725,521.442424 129.277394,523.422554 129.687591,525.353374 L129.751825,525.386912 Z" id="Shape" fill="#8B8B8B" fill-rule="nonzero"></path>
                            </g>
                            <g id="Capa_2-2">
                                <path d="M219.261314,358.988957 C219.582482,345.573824 219.967883,328.804908 219.261314,312.924744 C218.29781,293.154192 216.418978,283.998364 215.166423,277.928016 C214.737472,276.047429 214.405124,274.144235 214.170803,272.226585 C213.543641,264.003783 213.436353,255.746746 213.849635,247.509202 C216.964964,246.419223 219.068613,245.647853 219.116788,245.631084 C219.454476,245.498937 219.669648,245.151683 219.646715,244.775869 C219.646715,244.775869 218.410219,228.392638 217.414599,216.168098 C216.80438,208.756237 216.547445,203.390184 216.274453,197.72229 C216.017518,192.339468 215.760584,186.772188 215.182482,178.739877 C214.348517,170.373083 211.636126,162.329746 207.265693,155.263395 C202.721168,146.711247 196.394161,139.70184 189.280292,137.53865 C177.011679,133.815951 148.251095,122.681391 148.251095,122.681391 L147.608759,122.429857 C147.767175,122.025885 147.800859,121.580345 147.705109,121.155419 C147.480292,120.417587 146.854015,120.098978 146.09927,119.713292 C145.46059,119.408456 144.8527,119.037696 144.284672,118.606544 C142.020438,116.829039 137.861314,110.222086 137.861314,110.071166 C137.764541,109.914818 137.61584,109.801343 137.443796,109.752556 L137.443796,89.7472393 C138.120123,88.6934094 138.690539,87.569533 139.145985,86.393456 C139.970985,83.8910559 140.573052,81.3144842 140.944526,78.6965235 C145.248175,77.7071575 146.709489,72.6932515 148.010219,66.7067485 C149.19854,61.2233129 149.150365,52.5537832 147.319708,49.5856851 C146.970147,48.9659816 146.387545,48.5279481 145.713869,48.3783231 C144.880201,48.1610001 143.998961,48.2745352 143.240876,48.6969325 C143.385401,43.5321063 143.449635,38.6355828 143.417518,34.6613497 C143.289051,18.2110429 135.147445,11.1848671 127.519708,6.0200409 C119.586861,0.503067485 113.067153,0 110.337226,0 C107.607299,0 101.167883,0.503067485 93.1386861,5.96973415 C85.5109489,11.201636 77.3693431,18.1607362 77.2408759,34.6110429 C77.2408759,38.602045 77.2408759,43.4817996 77.4175182,48.6298569 C76.6551456,48.2206761 75.7767135,48.1134593 74.9445255,48.3280164 C74.270849,48.4776413 73.688247,48.9156748 73.3386861,49.5353783 C71.5080292,52.5034765 71.459854,61.1730061 72.6481752,66.6564417 C73.9489051,72.6429448 75.410219,77.6568507 79.7138686,78.6462168 C80.0818947,81.2665003 80.6895383,83.8439255 81.5284672,86.3431493 C81.9532638,87.5151351 82.4913228,88.6388673 83.1343066,89.6969325 L83.1343066,109.702249 C82.9641525,109.75508 82.8166756,109.86762 82.7167883,110.020859 C82.7167883,110.020859 78.5094891,116.728425 76.2934307,118.556237 C75.7254021,118.987389 75.117512,119.35815 74.4788321,119.662986 C73.740146,120.048671 73.1138686,120.36728 72.8729927,121.105112 C72.753902,121.588358 72.8051983,122.100211 73.0175182,122.547239 C68.2,124.458896 44.1124088,134.13456 32.8715328,137.488344 C32.1300879,137.727986 31.4011172,138.007848 30.6875912,138.326789 L30.3824818,138.460941 C29.8686131,138.712474 29.3547445,138.980777 28.7766423,139.282618 C17.5357664,145.58773 6.85693431,163.211861 5.73284672,178.723108 C5.15474453,186.755419 4.89781022,192.322699 4.64087591,197.72229 C4.36788321,203.406953 4.11094891,208.773006 3.50072993,216.168098 C2.84233577,228.392638 1.60583942,244.826176 1.60583942,244.826176 C1.58290631,245.20199 1.79807905,245.549243 2.13576642,245.681391 C2.13576642,245.681391 4.31970803,246.486299 7.48321168,247.593047 C7.88186589,255.819957 7.76922079,264.065205 7.1459854,272.276892 C6.9116647,274.194541 6.57931677,276.097735 6.15036496,277.978323 C3.78310008,289.475067 2.41259635,301.171155 2.05547445,312.924744 C1.28467153,328.838446 1.67007299,345.557055 2.05547445,358.988957 C2.28029197,368.69816 2.45693431,376.361554 2.05547445,380.537014 C1.68680141,385.18662 1.85935002,389.865753 2.56934307,394.471984 C3.01983231,397.75684 3.29325576,401.065529 3.38832117,404.382413 C3.5649635,410.737832 4.59270073,420.564417 5.58832117,430.072393 C6.19854015,435.790593 6.76058394,441.206953 7.19416058,445.801636 C7.67591241,451.721063 8.8,459.66953 11.4656934,463.928834 C11.9635036,464.716973 12.6540146,465.924335 13.4890511,467.282618 C20.0569343,478.551329 22.6905109,482.156646 24.3927007,482.156646 L24.5532847,482.156646 C25.4140903,482.093129 26.1809342,481.565635 26.5766423,480.764826 C27.3153285,479.238855 26.7854015,476.790593 24.9708029,473.520654 C23.8788321,471.474847 22.1766423,468.48998 20.6350365,465.739877 C23.8236435,469.251235 27.2648281,472.502713 30.9284672,475.465849 L31.3459854,475.717382 C31.5868613,478.953783 34.8145985,522.100204 35.810219,525.856442 C35.9419162,526.380914 36.1192981,526.891701 36.340146,527.382413 C36.7416058,529.897751 41.5591241,560.802863 40.0335766,579.064213 C39.6,584.178732 38.8934307,589.846626 38.1386861,595.833129 C35.9868613,612.870348 33.5459854,632.188139 35.6175182,652.59591 C37.4,670.203272 42.0408759,695.155419 45.4131387,713.383231 C47.259854,723.343967 48.7211679,731.225358 48.8656934,733.50593 C49.2189781,739.140286 47.6773723,751.264213 47.4043796,753.326789 C45.4644785,754.918287 43.6146537,756.625997 41.8642336,758.441309 C40.2583942,760.218814 37.3036496,768.502658 37.6248175,771.152147 L37.6248175,771.319836 C38.5554918,777.203008 38.1596085,783.231753 36.4686131,788.927198 C34.6861314,794.175869 29.9489051,811.699387 43.9839416,817.098978 C47.3885542,818.374921 50.9813704,819.016301 54.5985401,818.993865 C59.7881599,819.082652 64.9077201,817.73456 69.4364964,815.086708 C73.0612814,813.098262 75.5908239,809.458497 76.2773723,805.243354 C76.7511143,801.193116 76.981735,797.115895 76.9678832,793.035583 C76.9678832,787.50184 77.1124088,783.125153 78.8627737,781.129652 C82.2832117,777.239264 81.8335766,759.66544 78.9912409,755.003681 C78.5247223,753.823404 77.9378866,752.698999 77.2408759,751.649898 C77.7226277,747.692434 75.8919708,734.662986 74.9124088,729.565235 C73.7562044,723.561963 77.1766423,695.373415 80.6613139,677.916973 C83.8729927,661.684663 84.2423358,627.878528 81.3357664,610.941922 C79.1357664,598.113701 82.9416058,588.370961 86.0248175,580.556646 C86.8116788,578.561145 87.550365,576.666258 88.1284672,574.888753 C90.9226277,566.303067 90.9547445,531.775869 90.9547445,528.489162 C91.3883212,527.73456 91.950365,525.822904 91.950365,520.892843 C92.2450857,511.385895 93.9292426,501.981794 96.9445255,493.006135 C100.156204,484.085072 106.242336,452.358282 106.579562,448.132515 C106.608177,447.258474 106.986883,446.43713 107.623358,445.868712 C108.387075,445.306515 109.307266,445.023549 110.240876,445.063804 L110.642336,445.063804 C111.469452,445.040722 112.281241,445.299743 112.954745,445.801636 C113.603763,446.390326 113.987946,447.235238 114.014599,448.132515 C114.4,452.358282 120.437956,484.085072 123.649635,493.006135 C126.644361,501.951554 128.317543,511.320917 128.611679,520.792229 C128.553915,522.890808 128.726326,524.989396 129.125547,527.047035 C129.125547,528.623313 129.125547,565.95092 131.983942,574.77137 C132.578102,576.63272 133.332847,578.577914 134.151825,580.65726 C137.186861,588.438037 140.960584,598.113701 138.776642,610.841309 C135.870073,627.777914 136.207299,661.584049 139.451095,677.81636 C142.935766,695.272802 146.356204,723.46135 145.2,729.464622 C144.188321,734.797137 142.309489,748.044581 142.90365,751.498978 C142.194389,752.581514 141.596898,753.739435 141.121168,754.953374 C138.278832,759.615133 137.909489,777.188957 141.249635,781.079346 C143.016058,783.074847 143.080292,787.451534 143.144526,792.985276 C143.138706,797.065352 143.369297,801.142057 143.835036,805.193047 C144.521585,809.40819 147.051127,813.047955 150.675912,815.036401 C155.205258,817.682758 160.324426,819.030746 165.513869,818.943558 C169.136427,818.967961 172.734842,818.326553 176.144526,817.048671 C190.179562,811.64908 185.442336,794.125562 183.659854,788.876892 C181.968859,783.181446 181.572975,777.152701 182.50365,771.26953 L182.50365,771.10184 C182.824818,768.435583 179.90219,760.168507 178.264234,758.391002 C176.438302,756.491173 174.502293,754.710311 172.467153,753.058487 C172.242336,750.861759 170.861314,737.681391 171.262774,732.030266 C171.407299,729.783231 172.868613,721.968916 174.715328,711.907566 C178.10365,693.679755 182.744526,668.727607 184.510949,651.120245 C186.582482,630.712474 184.141606,611.394683 181.989781,594.357464 C181.235036,588.370961 180.528467,582.703067 180.094891,577.588548 C178.489051,558.656442 184.751825,526.074438 184.816058,525.739059 C185.79562,521.798364 188.878832,480.949284 189.248175,475.968916 C189.600952,475.817275 189.939608,475.632035 190.259854,475.415542 C193.914343,472.447245 197.349827,469.196081 200.537226,465.689571 C198.931387,468.389366 197.325547,471.42454 196.20146,473.470348 C194.435036,476.824131 193.905109,479.188548 194.59562,480.714519 C194.991329,481.515328 195.758173,482.042822 196.618978,482.106339 L196.779562,482.106339 C198.481752,482.106339 201.115328,478.501022 207.69927,467.232311 C208.518248,465.823722 209.305109,464.61636 209.706569,463.878528 C212.356204,459.619223 213.49635,451.670757 213.978102,445.751329 C214.363504,441.156646 214.925547,435.68998 215.583942,429.988548 C216.579562,420.497342 217.607299,410.670757 217.783942,404.332106 C217.875391,401.014355 218.154221,397.705129 218.618978,394.421677 C219.314632,389.81385 219.481748,385.13585 219.116788,380.486708 C218.859854,376.361554 219.036496,368.69816 219.261314,358.988957 Z M213.865693,245.714928 C213.865693,245.262168 213.865693,244.977096 213.865693,244.91002 C213.865693,244.842945 214.218978,241.740695 214.491971,237.598773 C215.664234,236.793865 216.579562,236.089571 217.237956,235.552965 C217.559124,239.678119 217.8,242.931288 217.89635,244.256033 L213.865693,245.714928 Z M189.424818,408.373415 C189.426165,399.74532 188.852026,391.127603 187.706569,382.582822 C186.10073,372.353783 183.708029,362.275665 182.889051,358.687117 C184.423082,358.899102 185.976271,358.484614 187.224818,357.530061 C188.477372,356.406544 188.830657,354.511656 188.573723,351.761554 C188.573723,351.141104 188.124088,349.380368 187.529927,346.479346 C185.281752,335.646626 180.014599,310.292025 178.729927,289.984867 C178.408759,284.702658 178.071533,280.024131 177.766423,275.764826 C177.108029,266.793456 176.610219,259.750511 176.545985,252.757873 C176.654154,252.8444 176.780956,252.901971 176.915328,252.925562 C177.124088,252.925562 178.938686,253.227403 181.572263,253.42863 C181.764964,260.773415 182.6,288.425358 184.205839,299.979141 C184.751825,303.903067 189.729927,338.98364 195.446715,359.626176 C200.135766,376.495706 200.264234,393.465849 197.357664,396.819632 C194.300604,400.321352 191.658696,404.194936 189.489051,408.356646 L189.424818,408.373415 Z M171.166423,354.310429 C168.372263,353.539059 165.353285,352.717382 162.270073,352.13047 C148.283212,349.480982 114.80146,347.552556 111.605839,347.435174 L110.40146,347.435174 L114.656934,142.33456 C120.334562,141.459278 125.858556,139.71915 131.052555,137.169734 C142.454015,131.719836 145.29635,126.638855 146.821898,123.871984 C149.487591,124.945194 175.823358,135.610225 187.594161,139.09816 C194.017518,141.076892 200.810219,147.817996 205.820438,156.202454 C209.599255,163.230056 211.934517,171.0027 212.677372,179.024949 C213.116358,185.508237 213.073407,192.017305 212.548905,198.493661 C212.005077,204.026968 212.053551,209.606333 212.693431,215.128425 C213.41501,222.264863 213.506393,229.455487 212.966423,236.609407 C208.635975,239.395193 203.948176,241.523793 199.043796,242.931288 C193.657046,244.496426 188.10865,245.3748 182.519708,245.547239 C181.781022,237.64908 180.480292,224.569325 179.564964,220.595092 C179.773723,219.337423 179.918248,218.549284 179.934307,218.515746 C184.751825,198.778732 189.264234,173.994274 189.328467,173.675665 L187.722628,173.357055 C187.722628,173.776278 180.030657,215.430266 174.105109,233.607771 C168.00292,252.271575 168.436496,259.130061 170.042336,284.669121 C171.182482,302.746012 176.032117,329.207362 178.922628,345.037219 C180.014599,351.023722 180.881752,355.752556 180.881752,356.540695 C180.886902,356.602064 180.886902,356.663785 180.881752,356.725153 L180.672993,356.725153 C178.826277,356.389775 176.658394,355.819632 174.249635,355.165644 L171.166423,354.310429 Z M111.140146,142.669939 C111.589781,142.669939 112.232117,142.669939 113.051095,142.535787 L108.79562,347.451943 L107.510949,347.451943 L111.140146,142.669939 Z M182.423358,356.976687 C182.467047,356.829581 182.493997,356.677614 182.50365,356.523926 C182.50365,355.618405 181.861314,352.046626 180.512409,344.785685 C177.621898,329.006135 172.788321,302.595092 171.664234,284.618814 C170.058394,259.348057 169.640876,252.556646 175.630657,234.211452 C175.759124,233.825767 175.887591,233.406544 176.032117,232.987321 C176.032117,233.272393 175.951825,233.574233 175.919708,233.842536 C174.169343,249.269939 174.891971,259.314519 176.09635,275.932515 C176.40146,280.19182 176.738686,284.853579 177.075912,290.135787 C178.360584,310.577096 183.627737,336.015542 185.891971,346.8818 C186.437956,349.548057 186.839416,351.476483 186.90365,352.029857 C187.176642,354.176278 186.90365,355.584867 186.10073,356.322699 C185.002445,357.030175 183.683989,357.26465 182.423358,356.976687 Z M178.954745,227.168507 C179.59708,232.199182 180.319708,239.208589 180.913869,245.614315 C179.725547,245.614315 178.745985,245.614315 178.023358,245.614315 C178.248175,240.063804 178.585401,232.400409 178.954745,227.168507 Z M177.79854,251.349284 C177.79854,250.510838 177.79854,249.051943 177.959124,247.207362 C178.633577,247.207362 179.564964,247.207362 180.576642,247.207362 L181.074453,247.207362 C181.20292,248.716564 181.347445,250.17546 181.459854,251.550511 L181.459854,251.651125 C179.854015,251.533742 178.553285,251.433129 177.79854,251.349284 Z M183.065693,251.533742 L182.262774,251.533742 L183.065693,251.533742 C183.065693,250.930061 182.872993,249.370552 182.680292,247.274438 C188.36679,247.080165 194.010905,246.179482 199.493431,244.591411 C204.164005,243.232428 208.648666,241.254372 212.837956,238.705521 C212.581022,242.310838 212.308029,244.708793 212.308029,244.775869 C212.308029,244.842945 212.308029,245.681391 212.227737,246.318609 C208.341606,247.676892 203.186861,249.40409 198.40146,250.79591 C193.370586,251.959344 188.199329,252.315579 183.065693,251.852352 L183.065693,251.533742 Z M215.744526,216.319018 C216.194161,221.852761 216.691971,228.20818 217.109489,233.540695 C216.31815,234.23361 215.492695,234.882892 214.636496,235.48589 C215.110306,228.63023 214.992067,221.743946 214.283212,214.910429 C213.656171,209.499456 213.613078,204.032061 214.154745,198.611043 C214.251095,197.135378 214.347445,195.575869 214.427737,193.949284 C214.427737,195.25726 214.556204,196.548466 214.60438,197.806135 C214.877372,203.490798 215.182482,208.87362 215.744526,216.319018 Z M145.408759,49.9713701 C145.631912,50.0612485 145.815076,50.2345854 145.922628,50.4576687 C147.351825,52.7717791 147.528467,60.7537832 146.388321,66.2875256 C145.248175,71.5026585 144.108029,75.6278119 141.169343,76.7848671 C142.254753,68.3078239 142.919389,59.7778106 143.160584,51.2290389 C143.2818,50.7392139 143.593695,50.3246643 144.020754,50.0857601 C144.447813,49.8468558 144.951099,49.8053784 145.408759,49.9713701 Z M78.8627737,34.6110429 C78.9912409,18.999182 86.7153285,12.3586912 94.0379562,7.36155419 C98.5121614,4.08294796 103.747642,2.11964579 109.19708,1.67689162 C109.19708,1.67689162 109.59854,1.67689162 110.240876,1.67689162 C110.658021,1.65082903 111.076285,1.65082903 111.493431,1.67689162 C116.945332,2.10675476 122.18646,4.05851167 126.668613,7.32801636 C133.927007,12.3586912 141.69927,18.9656442 141.827737,34.5775051 C141.827737,39.5075665 141.827737,45.3766871 141.538686,51.4302658 C141.497681,53.0706934 141.314944,54.7039063 140.992701,56.3100204 C140.434035,54.8330607 140.00407,53.3064954 139.708029,51.7488753 C139.434863,49.9265952 139.252622,48.0907151 139.162044,46.2486708 C138.487591,37.2102249 137.379562,22.0846626 130.940146,19.3010225 C123.440876,16.0813906 112.2,16.1316973 110.674453,16.1652352 C110.144526,16.1652352 97.6350365,15.9137014 89.7985401,19.3010225 C81.9620438,22.6883436 81.3678832,43.4147239 81.1430657,50.3067485 L81.1430657,51.4805726 C81.1916701,53.1274026 80.952229,54.7696808 80.4364964,56.3267894 C79.9468826,55.8657927 79.5674152,55.2915066 79.3284672,54.6498978 C78.9591241,47.5398773 78.8306569,40.4130879 78.8627737,34.6110429 Z M74.3021898,66.2875256 C73.0978102,60.7537832 73.3386861,52.7717791 74.7678832,50.4576687 C74.8754345,50.2345854 75.0585985,50.0612485 75.2817518,49.9713701 C75.7417008,49.8111139 76.2447019,49.8572707 76.670837,50.0988367 C77.096972,50.3404026 77.4080568,50.7557319 77.529927,51.2458078 C77.7717611,59.7889727 78.4363951,68.3133694 79.5211679,76.7848671 C76.5824818,75.6278119 75.4744526,71.5026585 74.3021898,66.2875256 Z M79.4248175,57.6179959 C79.6939595,57.8289342 80.0197596,57.9462499 80.3562044,57.9533742 L80.6291971,57.9533742 C81.9138686,57.7018405 82.5080292,55.8404908 82.7007299,51.5308793 L82.7007299,50.3402863 C83.3109489,32.7329243 85.9124088,22.8224949 90.3766423,20.8940695 C97.5708029,17.7750511 109.389781,17.8588957 110.481752,17.8756646 C110.594161,17.8756646 122.718248,17.6408998 130.233577,20.8940695 C135.757664,23.2752556 136.865693,38.3337423 137.459854,46.4163599 C137.567184,48.3338591 137.781661,50.2431764 138.10219,52.1345603 C139.290511,57.3832311 140.061314,58.5235174 141.040876,58.5235174 L141.217518,58.5235174 C140.575182,69.9766871 139.40292,80.8764826 137.588321,85.7562372 C135.067153,92.5644172 126.572263,98.7689162 121.529927,102.525153 C120.325547,103.397137 119.313869,104.202045 118.607299,104.721881 C116.303818,106.488581 113.626981,107.650404 110.80292,108.109202 C107.669338,107.720649 104.675083,106.534446 102.083212,104.654806 C101.376642,104.084663 100.364964,103.330061 99.1605839,102.458078 C94.0861314,98.7521472 85.5912409,92.5308793 83.1021898,85.6891616 C81.2394161,80.7423313 80.0671533,69.3897751 79.4248175,57.6179959 Z M98.2773723,103.833129 C99.449635,104.688344 100.429197,105.409407 101.119708,105.97955 C103.976452,108.068957 107.288984,109.377649 110.754745,109.786094 L110.931387,109.786094 C114.065489,109.290407 117.030435,107.981613 119.554745,105.97955 C120.245255,105.409407 121.240876,104.688344 122.39708,103.833129 C127.328825,100.509633 131.820828,96.5236173 135.757664,91.9775051 L135.757664,111.815133 C134.69781,114.431084 132.112409,119.545603 127.728467,121.306339 C126.813139,121.675256 126.010219,122.027403 125.239416,122.362781 C121.610219,124.039673 119.249635,124.995501 111.445255,124.894888 C105.287962,125.238731 99.1379375,124.090895 93.4759124,121.541104 L93.0423358,121.373415 C88.6744526,119.696524 86.0890511,114.49816 85.0131387,111.882209 L85.0131387,92.0445808 C88.7547445,96.8740286 94.4554745,101.03272 98.2773723,103.833129 Z M75.3459854,121.172188 C76.0721851,120.814066 76.7655716,120.387484 77.4175182,119.897751 C79.6810189,117.64066 81.6759227,115.107075 83.3591241,112.351738 L83.5036496,112.351738 C84.659854,115.219223 87.470073,120.736196 92.4481752,122.765235 L92.8817518,122.949693 C98.7217742,125.6003 105.069456,126.805489 111.429197,126.471166 C119.458394,126.588548 122.188321,125.431493 125.881752,123.804908 L128.322628,122.765235 C133.30073,120.769734 136.110949,115.219223 137.267153,112.351738 L137.379562,112.351738 C139.063814,115.101197 141.058679,117.629104 143.321168,119.880982 C143.973114,120.370715 144.666501,120.797297 145.392701,121.155419 L146.147445,121.557873 C146.147445,121.557873 146.147445,121.809407 145.729927,122.564008 L145.505109,122.966462 C144.075912,125.548875 141.442336,130.378323 130.426277,135.626994 C118.928467,141.127198 110.513869,140.993047 110.417518,140.993047 C110.321168,140.993047 101.906569,141.127198 90.4087591,135.626994 C79.3927007,130.378323 76.7591241,125.565644 75.329927,122.966462 L75.1051095,122.564008 C74.9242527,122.264793 74.7786725,121.943859 74.6715328,121.60818 C74.8807812,121.438094 75.1068912,121.291928 75.3459854,121.172188 Z M73.9649635,124.08998 C75.5708029,126.890389 78.4613139,131.870757 89.6379562,137.220041 C95.8699738,140.371554 102.625336,142.239026 109.534307,142.720245 L105.985401,347.602863 C96.9284672,348.122699 70.9459854,349.849898 58.9985401,352.113701 C54.3357832,352.987311 49.7205696,354.117999 45.1722628,355.501022 C44.2890511,355.769325 43.4058394,356.037628 42.6029197,356.255624 C41.8,356.47362 40.9167883,356.62454 40.1620438,356.758691 C40.0506784,356.781309 39.936183,356.781309 39.8248175,356.758691 C39.8091224,356.698297 39.8091224,356.634627 39.8248175,356.574233 C39.8248175,355.786094 40.6919708,351.05726 41.7839416,345.053988 C44.6905109,329.224131 49.5240876,302.729243 50.6642336,284.68589 C51.6473123,272.71903 51.0148489,260.667274 48.7854015,248.884254 C48.0467153,244.423722 47.2759124,239.829039 46.649635,233.792229 L46.649635,233.607771 C46.4087591,231.360736 46.0715328,228.946012 45.6861314,226.430675 C41.9124088,201.998364 33.1605839,173.793047 32.9839416,173.239673 L32.2131387,173.491207 L31.4423358,173.74274 C31.5386861,174.06135 39.3591241,200.304703 43.2934307,221.953374 C42.3941606,224.703476 40.4992701,236.40818 39.3109489,244.205726 C35.810219,243.937423 30.8481752,243.451125 24.8583942,242.612679 C19.3881236,241.804039 14.0087095,240.427768 8.8,238.504294 C8.57115175,230.666033 8.87703462,222.820703 9.71532847,215.027812 C10.3471849,209.505179 10.3956512,203.926742 9.85985401,198.393047 C9.29900696,191.953141 9.22383622,185.477159 9.6350365,179.024949 C10.6467153,164.855215 19.270073,146.946012 29.8525547,140.741513 C30.2379562,140.523517 30.6233577,140.305521 31.0087591,140.121063 L31.5065693,139.886299 C32.1970803,139.584458 32.8715328,139.316155 33.5459854,139.09816 C44.9635036,135.677301 69.7094891,125.766871 73.9649635,124.08998 Z M23.9270073,396.802863 C20.9562044,393.44908 21.1489051,376.478937 25.8540146,359.609407 C31.5868613,338.966871 36.5649635,303.886299 37.0948905,299.962372 C38.7007299,288.375051 39.5357664,260.790184 39.7284672,253.411861 C42.329927,253.193865 44.1284672,252.942331 44.3211679,252.908793 C44.6826547,252.855973 44.9618965,252.55049 44.9956204,252.170961 C44.9956204,251.852352 45.3810219,248.381186 45.7021898,244.071575 C45.7584771,252.367804 45.2863894,260.658761 44.2890511,268.889571 C43.6948905,274.892843 43.020438,281.684254 42.4905109,289.968098 C41.2379562,310.224949 35.9708029,335.629857 33.7226277,346.462577 C33.1284672,349.363599 32.7591241,351.124335 32.6788321,351.744785 C32.3416058,354.494888 32.7751825,356.389775 34.0277372,357.513292 C35.1124719,358.386408 36.4678011,358.8104 37.8335766,358.703885 C36.950365,362.292434 34.6218978,372.353783 33.0160584,382.566053 C31.8653825,390.744407 31.2964292,399.000534 31.3138686,407.266667 C29.2145827,403.514584 26.7383095,400.006838 23.9270073,396.802863 Z M8.96058394,244.826176 C8.96058394,244.826176 8.86423358,243.048671 8.8,240.332106 C13.9512856,242.203222 19.2649795,243.545494 24.6656934,244.339877 C30.5430657,245.144785 35.4890511,245.631084 39.0058394,245.916155 C38.5562044,248.968098 38.2350365,251.131288 38.2029197,251.433129 C38.2029197,251.433129 38.2029197,251.634356 38.2029197,251.651125 L38.2029197,251.852352 C33.0479546,252.314604 27.8556716,251.958413 22.8029197,250.79591 C17.9854015,249.40409 12.9109489,247.693661 9.02481752,246.335378 C8.97888427,245.833776 8.95744531,245.330056 8.96058394,244.826176 Z M39.7927007,251.533742 C39.7927007,251.030675 40.1620438,248.884254 40.6116788,245.949693 L43.9357664,246.15092 C43.7430657,248.448262 43.5824818,250.32638 43.4861314,251.181595 C42.7635036,251.26544 41.4467153,251.41636 39.7927007,251.550511 L39.7927007,251.533742 Z M35.0875912,356.188548 C34.2686131,355.450716 34.0116788,354.042127 34.2846715,351.895706 C34.2846715,351.342331 34.750365,349.413906 35.2963504,346.747648 C37.5605839,335.881391 42.8277372,310.442945 44.1124088,290.001636 C44.6423358,281.768098 45.3007299,274.909611 45.8948905,269.006953 C46.5854015,262.014315 47.1635036,256.078119 47.3080292,249.991002 C49.409136,261.350136 49.987423,272.95919 49.0262774,284.484663 C47.9021898,302.460941 43.0686131,328.905521 40.1781022,344.70184 C38.8291971,352.046626 38.1868613,355.618405 38.1868613,356.523926 C38.1780478,356.663516 38.1780478,356.80356 38.1868613,356.943149 C37.1079368,357.120582 36.0042654,356.875749 35.0875912,356.255624 L35.0875912,356.188548 Z M44.0321168,226.531288 C44.1445255,227.336196 44.2729927,228.107566 44.3854015,228.895706 C44.6633756,234.089356 44.555999,239.297683 44.0642336,244.474029 C43.4058394,244.474029 42.3138686,244.390184 40.8525547,244.272802 C41.7357664,238.487526 43.0043796,230.639673 43.919708,225.977914 L44.0321168,226.531288 Z M5.44379562,216.319018 C6.0540146,208.890389 6.31094891,203.524335 6.58394161,197.873211 C6.84087591,192.490389 7.09781022,186.923108 7.67591241,178.907566 C8.05820975,174.365525 9.09776008,169.910262 10.7591241,165.693661 C9.33072452,169.963861 8.41378304,174.402214 8.02919708,178.907566 C7.58593499,185.463706 7.63425743,192.046002 8.17372263,198.594274 C8.69397913,204.016693 8.64551658,209.482231 8.02919708,214.893661 C7.19719555,222.535575 6.88060033,230.229107 7.08175182,237.917382 C5.47591241,237.296933 4.4,236.810634 3.78978102,236.525562 C4.28759124,230.740286 4.89781022,222.925971 5.44379562,216.319018 Z M3.21167883,244.256033 C3.2919708,243.249898 3.45255474,241.086708 3.66131387,238.286299 C4.43211679,238.638446 5.63649635,239.141513 7.12992701,239.711656 C7.12992701,242.813906 7.30656934,244.826176 7.30656934,244.876483 C7.30656934,244.876483 7.30656934,245.211861 7.30656934,245.714928 C5.4919708,245.07771 4.01459854,244.541104 3.21167883,244.256033 Z M18.4350365,461.145194 C17.0861314,459.703067 16.3474453,458.931697 15.8978102,458.529243 L12.2043796,441.022495 L10.5985401,441.391411 L14.4525547,459.082618 C14.5031886,459.323377 14.6490389,459.53051 14.8540146,459.652761 C15.0306569,459.803681 15.4642336,460.239673 15.9781022,460.793047 C16.4759124,461.648262 21.3737226,470.150102 23.6379562,474.375869 C25.7255474,478.23272 25.3240876,479.691616 25.2437956,480.043763 C25.0953353,480.321248 24.8244922,480.503515 24.5211679,480.530061 C22.9153285,480.177914 17.3430657,470.569325 14.8861314,466.460941 C14.0510949,465.035583 13.280292,463.811452 12.8467153,463.023313 C10.919708,459.921063 9.49051095,453.750102 8.83211679,445.650716 C8.44671533,441.039264 7.86861314,435.589366 7.22627737,429.887935 C6.23065693,420.413497 5.20291971,410.62045 5.02627737,404.348875 C4.92685188,400.981515 4.6480755,397.62254 4.19124088,394.287526 C3.48511007,389.78248 3.30715702,385.204384 3.66131387,380.654397 C3.99854015,376.378323 3.82189781,368.664622 3.66131387,358.854806 C3.34014599,345.439673 2.95474453,328.77137 3.66131387,312.924744 C4.62481752,293.456033 6.42335766,284.300204 7.72408759,278.364008 C8.16648614,276.422488 8.50955106,274.457743 8.75182482,272.478119 C9.35366363,264.394387 9.4770126,256.279565 9.12116788,248.179959 C12.9430657,249.504703 17.8087591,251.114519 22.3532847,252.439264 C26.0298703,253.382183 29.8092068,253.816305 33.5941606,253.73047 C35.2,253.73047 36.8058394,253.73047 38.2189781,253.57955 C38.0262774,261.092025 37.1912409,288.341513 35.6014599,299.777914 C35.0554745,303.70184 30.0934307,338.6818 24.3605839,359.206953 C19.8,375.640491 19.0613139,393.784458 22.7547445,398.010225 C26.3140703,401.972117 29.2466403,406.500509 31.4423358,411.425358 C32.1820411,414.045303 32.4274601,416.790324 32.1649635,419.507975 C32.0210511,423.334533 32.198371,427.1669 32.6948905,430.961145 C33.3372263,435.438446 34.0919708,438.993456 34.7021898,441.844172 C35.4890511,445.533333 36.0671533,448.21636 35.4248175,449.004499 C35.1839416,449.306339 34.6058394,449.423722 33.6905109,449.390184 C30.2861314,449.222495 27.9094891,445.164417 26.849635,437.651943 C26.4633035,433.926405 25.3715857,430.318235 23.6379562,427.037219 L22.8350365,425.360327 C22.6843984,425.030536 22.3465841,424.840588 22,424.890798 C21.6490146,424.940304 21.3729562,425.228577 21.3255474,425.595092 C20.3968771,431.461303 19.8869572,437.391471 19.8,443.336605 C20.1305035,448.046636 20.9160032,452.709729 22.1445255,457.254806 C22.1835047,457.402768 22.2613845,457.536374 22.3693431,457.640491 C25.7554804,460.895548 28.9717897,464.338132 32.0043796,467.953374 C33.5138686,470.099796 34.1080292,473.856033 33.3693431,474.660941 C33.1124088,474.929243 32.4058394,474.660941 31.7635036,474.191411 C28.6481752,471.910838 22,464.867894 18.4350365,461.145194 Z M23.6540146,456.516973 C23.5416058,456.097751 23.2686131,455.091616 22.979562,453.750102 C25.2850706,456.492611 28.1344379,458.678415 31.329927,460.155828 L31.329927,464.498978 C28.6160584,461.379959 24.5372263,457.33865 23.6540146,456.449898 L23.6540146,456.516973 Z M31.329927,458.344785 C27.7428224,456.397357 24.6371224,453.607704 22.2569343,450.195092 C21.8781077,448.144871 21.6153647,446.07311 21.470073,443.990593 C22.7007635,446.047531 24.1676004,447.939679 25.8379562,449.624949 C27.4437956,451.167689 30.3664234,453.498569 31.329927,454.25317 L31.329927,458.344785 Z M31.329927,450.53047 L31.329927,452.207362 C30.0452555,451.184458 28.1182482,449.574642 26.929927,448.467894 C24.7495278,446.176945 22.8995374,443.567259 21.4379562,440.720654 C21.550365,436.662577 22.1445255,431.631902 22.5459854,428.579959 C24.0161698,431.505424 24.932172,434.699557 25.2437956,437.987321 C26.4,446.103476 28.9211679,449.423722 31.3941606,450.597546 L31.329927,450.53047 Z M77.6262774,755.858896 C80.0671533,759.66544 80.5970803,776.702658 77.6262774,780.006135 C75.4744526,782.471166 75.4744526,787.116155 75.4744526,793.002045 C75.4877111,797.020517 75.2624619,801.035985 74.8,805.025358 C74.1372234,808.717769 71.8959014,811.891945 68.7138686,813.644581 C62.2905109,817.719427 52.3343066,818.490798 44.6262774,815.522699 C31.9722628,810.659714 36.4043796,794.360327 38.0744526,789.480573 C39.8493727,783.543797 40.2727702,777.256347 39.3109489,771.118609 L39.3109489,770.934151 C39.070073,768.972188 41.7036496,761.141104 43.1167883,759.598364 C45.426059,757.25618 47.8773591,755.071701 50.4554745,753.058487 C50.5480519,752.980262 50.6245238,752.883295 50.680292,752.773415 C51.4350365,751.247444 53.8919708,747.088753 55.8350365,746.065849 C57.7948083,745.205312 59.9085016,744.793603 62.0335766,744.858487 C64.6663563,744.791358 67.2779248,745.365488 69.6613139,746.535378 C73.277636,748.485151 76.1204638,751.703127 77.6905109,755.624131 C77.6590485,755.698999 77.637441,755.777971 77.6262774,755.858896 Z M73.3708029,729.833538 C74.5691786,736.352767 75.368366,742.945139 75.7635036,749.570552 C74.224347,747.731499 72.3665004,746.212457 70.2875912,745.093252 C65.4858773,742.746858 59.9741503,742.552985 55.0321168,744.556646 C52.3824818,745.931697 49.7649635,750.84499 49.2510949,751.834356 C50.1085086,745.72678 50.5325343,739.561388 50.519708,733.388548 C50.3591241,731.0409 48.9138686,723.511656 47.0350365,713.09816 C45.7021898,705.937832 44.1927007,697.721063 42.7153285,689.336605 C48.5311264,690.581054 54.4439709,691.265858 60.379562,691.382413 C66.1236607,691.24833 71.8125394,690.179023 77.2408759,688.213088 C74.6394161,704.294479 72.3430657,724.517791 73.3708029,729.833538 Z M86.7153285,574.30184 C86.1532847,575.978732 85.4306569,577.890389 84.6437956,579.869121 C81.4321168,587.884663 77.5781022,597.878937 79.8262774,611.176687 C82.7167883,627.945603 82.379562,661.483436 79.1678832,677.514519 C78.6540146,680.13047 78.1080292,683.132106 77.5620438,686.3182 C72.0458296,688.377374 66.2516304,689.509379 60.3956204,689.671984 C54.3334257,689.546208 48.2958491,688.827594 42.3620438,687.525562 C40.2262774,675.166871 38.2510949,662.556646 37.2072993,652.411452 C35.1678832,632.204908 37.5927007,613.004499 39.7284672,596.051125 C40.4832117,590.047853 41.2058394,584.312883 41.6394161,579.282209 C42.9883212,562.932515 39.3591241,536.70593 38.2350365,529.12638 C40.129927,529.847444 43.6627737,530.015133 50.9211679,530.333742 L58.950365,530.719427 C62.3065693,530.887117 65.3737226,530.970961 68.2160584,530.970961 C75.2793156,531.11192 82.3393848,530.550423 89.3007299,529.29407 C89.3970803,538.382822 89.0116788,567.024131 86.7153285,574.30184 Z M125.255474,492.452761 C122.043796,483.615542 116.054015,452.207362 115.620438,448.031902 C115.580577,446.679927 114.997729,445.407878 114.014599,444.527198 C112.986744,443.748763 111.733465,443.363842 110.465693,443.437219 C109.118927,443.368358 107.789305,443.776031 106.691971,444.594274 C105.72491,445.459296 105.143662,446.703576 105.086131,448.031902 C104.70073,452.207362 98.6627737,483.615542 95.4510949,492.452761 C92.3909528,501.592611 90.6799009,511.165343 90.3766423,520.842536 C90.5275261,523.06256 90.3046913,525.293021 89.7182482,527.43272 C87.919708,527.835174 77.4175182,529.948057 59.1109489,529.008998 L50.9854015,528.623313 C38.4116788,528.05317 38.0262774,527.969325 37.3518248,525.437219 C36.5970803,522.569734 34.140146,492.553374 33,476.321063 L33.0963504,476.321063 C33.6296747,476.329253 34.1420062,476.10431 34.5094891,475.700613 C36.1153285,473.939877 34.8788321,469.093661 33.2890511,466.829857 L32.9357664,466.360327 L32.9357664,450.949693 C33.1549743,450.965372 33.3749527,450.965372 33.5941606,450.949693 C34.7002645,451.132082 35.8252701,450.773464 36.6452555,449.977096 C37.8014599,448.534969 37.2394161,445.986094 36.259854,441.357873 C35.649635,438.523926 34.8948905,435.019223 34.2686131,430.608998 C33.7721908,426.899136 33.6001916,423.149788 33.7547445,419.407362 C34.008548,416.521549 33.7249864,413.611717 32.919708,410.838446 L32.8233577,410.653988 C32.663964,401.379115 33.2008876,392.105461 34.4291971,382.9182 C36.1313869,372.186094 38.6846715,361.621677 39.4233577,358.670348 L40.5153285,358.502658 C41.204572,358.427275 41.8866887,358.292667 42.5547445,358.100204 C44.3854015,357.680982 46.3927007,357.110838 48.5605839,356.423313 C51.7722628,355.517791 55.4175182,354.478119 59.0788321,353.790593 C71.6846715,351.392638 102.275912,349.447444 108.859854,349.145603 L109.871533,349.145603 C115.122628,349.380368 148.186861,351.258487 161.386861,353.807362 C165.032117,354.494888 168.09927,355.249489 170.652555,355.953783 L172.40292,356.440082 L173.848175,356.859305 L175.020438,357.194683 C176.773439,357.827938 178.588515,358.255384 180.432117,358.469121 L180.978102,358.569734 C181.684672,361.437219 184.286131,371.984867 185.988321,382.884663 C187.220947,392.751814 187.757672,402.700201 187.594161,412.649489 C187.247221,414.927778 187.139526,417.238813 187.272993,419.541513 C187.427546,423.283939 187.255546,427.033288 186.759124,430.743149 C186.132847,435.153374 185.378102,438.658078 184.783942,441.492025 C183.788321,446.120245 183.178102,448.669121 184.382482,450.111247 C185.203689,450.905397 186.327645,451.263681 187.433577,451.083845 L187.529927,451.083845 L187.529927,467.24908 C186.052555,469.647035 184.992701,474.074029 186.518248,475.767689 C186.776194,476.043912 187.10529,476.236127 187.465693,476.321063 C186.261314,492.553374 183.868613,522.603272 183.113869,525.487526 C182.439416,528.019632 182.054015,528.103476 169.480292,528.67362 L161.370803,529.059305 C143.144526,529.998364 132.658394,527.902249 130.859854,527.483027 C130.237824,525.350554 130.00362,523.115321 130.169343,520.892843 C129.922687,511.207379 128.265757,501.617536 125.255474,492.452761 Z M189.376642,460.222904 L189.376642,460.323517 C192.801664,458.841284 195.847971,456.544465 198.272993,453.615951 C197.967883,454.957464 197.710949,455.963599 197.59854,456.382822 C196.635036,457.321881 192.026277,461.916564 189.344526,465.035583 L189.376642,460.222904 Z M199.011679,450.161554 C196.512569,453.74459 193.20227,456.625229 189.376642,458.546012 L189.376642,454.437628 C191.478707,452.932655 193.504774,451.315086 195.446715,449.591411 C197.107593,447.901512 198.568612,446.009915 199.79854,443.957055 C199.645643,446.034102 199.377553,448.100146 198.99562,450.144785 L199.011679,450.161554 Z M194.354745,448.350511 C193.150365,449.507566 190.821898,451.285072 189.376642,452.375051 L189.376642,450.69816 C191.994161,449.742331 194.788321,446.556237 196.024818,437.869939 C196.336441,434.582174 197.252443,431.388041 198.722628,428.462577 C199.124088,431.514519 199.718248,436.545194 199.830657,440.586503 C198.361747,443.436941 196.500596,446.047107 194.306569,448.333742 L194.354745,448.350511 Z M177.188321,759.631902 C178.60146,761.174642 181.235036,769.005726 180.994161,770.967689 L180.994161,771.152147 C180.029146,777.290787 180.458182,783.580292 182.246715,789.51411 C183.852555,794.393865 188.332847,810.693252 175.678832,815.556237 C167.986861,818.524335 158.014599,817.752965 151.591241,813.678119 C148.40603,811.929343 146.163416,808.753335 145.505109,805.058896 C145.050577,801.068784 144.825356,797.053822 144.830657,793.035583 C144.750365,787.149693 144.686131,782.504703 142.518248,780.039673 C139.627737,776.68589 140.157664,759.698978 142.59854,755.892434 C142.604553,755.831108 142.604553,755.769301 142.59854,755.707975 C144.173264,751.790108 147.014786,748.573611 150.627737,746.619223 C153.01169,745.451089 155.622857,744.877046 158.255474,744.942331 C160.38055,744.877448 162.494243,745.289156 164.454015,746.149693 C166.445255,747.189366 168.854015,751.348057 169.608759,752.85726 C169.664527,752.967139 169.740999,753.064107 169.833577,753.142331 C172.415753,755.138768 174.872397,757.306425 177.188321,759.631902 Z M173.221898,711.706339 C171.294891,722.119836 169.89781,729.64908 169.753285,731.996728 C169.701655,738.513125 170.039538,745.026536 170.764964,751.498978 C169.994161,750.023313 167.553285,745.831084 165.192701,744.573415 C160.245305,742.5689 154.728335,742.762753 149.921168,745.11002 C147.835983,746.219378 145.972138,747.733177 144.429197,749.570552 C144.806662,742.942517 145.611405,736.348575 146.837956,729.833538 C147.865693,724.517791 145.569343,704.160327 142.983942,688.129243 C148.97367,690.066646 155.184202,691.160692 161.451095,691.382413 C166.805261,691.337987 172.133855,690.605834 177.316788,689.202454 C175.919708,697.134151 174.490511,704.864622 173.221898,711.672802 L173.221898,711.706339 Z M178.585401,577.856851 C179.00292,583.004908 179.725547,588.689571 180.480292,594.625767 C182.616058,611.579141 185.056934,630.77955 183.00146,650.986094 C181.925547,661.483436 179.789781,674.596728 177.637956,687.341104 C172.359358,688.834465 166.919736,689.617761 161.451095,689.671984 C155.074135,689.412587 148.759804,688.256289 142.678832,686.234356 C142.148905,683.065031 141.60292,680.080164 141.072993,677.480982 C137.861314,661.399591 137.524088,627.928834 140.414599,611.143149 C142.678832,597.946012 138.808759,588.018814 135.59708,580.03681 C134.810219,577.991002 133.991241,576.062577 133.477372,574.268303 C131.10073,566.822904 130.763504,537.091616 130.715328,528.992229 C137.83826,530.35367 145.073952,530.966002 152.313869,530.820041 C155.124088,530.820041 158.223358,530.736196 161.563504,530.568507 L169.592701,530.182822 C177.156204,529.847444 180.689051,529.679755 182.439416,528.874847 C181.122628,537.980368 177.284672,562.328834 178.585401,577.823313 L178.585401,577.856851 Z M217.655474,358.988957 C217.430657,368.731697 217.254015,376.445399 217.655474,380.788548 C218.023373,385.314762 217.856179,389.871059 217.157664,394.354601 C216.708768,397.690562 216.430029,401.049085 216.322628,404.415951 C216.145985,410.687526 215.118248,420.463804 214.122628,429.921472 C213.528467,435.673211 212.950365,441.106339 212.516788,445.717791 C211.842336,453.817178 210.413139,459.988139 208.486131,463.090389 C207.988321,463.878528 207.281752,465.102658 206.446715,466.528016 C204.054015,470.636401 198.417518,480.24499 196.940146,480.597137 C196.615354,480.586669 196.318357,480.403118 196.153285,480.110838 C195.992701,479.758691 195.607299,478.299796 197.678832,474.442945 C199.959124,470.217178 204.856934,461.715337 205.338686,460.860123 C205.868613,460.306748 206.286131,459.870757 206.462774,459.719836 C206.667749,459.597585 206.8136,459.390452 206.864234,459.149693 L210.621898,441.508793 L209.016058,441.139877 L205.322628,458.529243 C204.872993,458.931697 204.134307,459.703067 202.785401,461.145194 C199.220438,464.934969 192.572263,471.977914 189.408759,474.157873 C188.830657,474.560327 188.140146,474.895706 187.80292,474.627403 C187.048175,473.805726 187.642336,470.049489 189.151825,467.919836 C192.188711,464.308744 195.404804,460.866392 198.786861,457.606953 C198.899408,457.506839 198.978212,457.371647 199.011679,457.221268 C200.240201,452.676191 201.025701,448.013098 201.356204,443.303067 C201.242703,437.355845 200.705944,431.425664 199.750365,425.561554 C199.702956,425.195039 199.426898,424.906766 199.075912,424.85726 C198.729328,424.80705 198.391514,424.996998 198.240876,425.326789 L197.437956,427.003681 C195.709807,430.287148 194.618443,433.894149 194.226277,437.618405 C193.166423,445.147648 190.789781,449.205726 187.385401,449.356646 C186.470073,449.356646 185.891971,449.272802 185.651095,448.970961 C185.008759,448.182822 185.651095,445.499796 186.373723,441.810634 C186.983942,438.959918 187.754745,435.404908 188.381022,430.927607 C188.8857,427.134153 189.063055,423.301029 188.910949,419.474438 C188.648452,416.756786 188.893871,414.011765 189.633577,411.39182 C191.834948,406.470329 194.76694,401.942829 198.321168,397.976687 C202.062774,393.75092 201.324088,375.606953 196.715328,359.173415 C190.99854,338.648262 186.036496,303.668303 185.474453,299.744376 C183.868613,288.358282 183.065693,261.175869 182.856934,253.562781 C184.254015,253.646626 185.811679,253.696933 187.417518,253.696933 C191.175666,253.775431 194.927551,253.341363 198.578102,252.405726 C203.138686,251.080982 208.020438,249.454397 211.842336,248.129652 C211.533367,256.230678 211.672772,264.343576 212.259854,272.427812 C212.594742,274.430149 213.034329,276.411845 213.576642,278.364008 C214.813139,284.384049 216.675912,293.456033 217.639416,313.109202 C218.394161,328.871984 217.976642,345.557055 217.655474,358.955419 L217.655474,358.988957 Z" id="Shape" fill="#606162" fill-rule="nonzero"></path>
                                <path d="M140.286131,186.604499 L138.294891,186.604499 L138.294891,185.078528 L136.978102,185.34683 L136.978102,186.470348 C136.939535,186.835306 137.037326,187.201728 137.251095,187.493252 C137.547038,187.705467 137.905724,187.800592 138.262774,187.761554 L140.318248,187.761554 C140.670504,187.8042 141.025364,187.708572 141.313869,187.493252 C141.539741,187.207696 141.644151,186.838208 141.60292,186.470348 L141.60292,182.546421 L140.286131,182.546421 L140.286131,186.604499 Z" id="Shape" fill="#606162" fill-rule="nonzero"></path>
                                <path d="M146.372263,182.546421 L145.183942,182.546421 L142.357664,187.811861 L143.706569,187.811861 L144.268613,186.721881 L147.175182,186.721881 L147.737226,187.811861 L149.246715,187.811861 L146.388321,182.596728 L146.372263,182.546421 Z M144.766423,185.548057 L145.665693,183.871166 L146.516788,185.548057 L144.766423,185.548057 Z" id="Shape" fill="#606162" fill-rule="nonzero"></path>
                                <polygon id="Shape" fill="#606162" fill-rule="nonzero" points="155.782482 182.56319 155.814599 182.546421 153.839416 182.546421 151.318248 184.525153 151.318248 182.546421 149.985401 182.546421 149.985401 187.761554 151.318248 187.761554 151.318248 185.682209 154.048175 187.761554 154.048175 187.761554 156.2 187.761554 152.490511 185.011452"></polygon>
                                <path d="M161.145985,185.883436 C161.691971,185.883436 162.334307,185.698978 162.334307,184.793456 L162.334307,183.619632 C162.334307,182.730879 161.691971,182.546421 161.145985,182.546421 L156.954745,182.546421 L156.954745,187.811861 L158.255474,187.811861 L158.255474,185.933742 L159.154745,185.933742 L161.081752,187.811861 L163.024818,187.811861 L160.808759,185.933742 L161.145985,185.883436 Z M158.255474,184.810225 L158.255474,183.619632 L160.583942,183.619632 C160.808759,183.619632 160.872993,183.619632 160.889051,183.619632 C160.905109,183.619632 160.985401,183.737014 160.985401,183.854397 L160.985401,184.458078 C160.985401,184.592229 160.953285,184.676074 160.889051,184.709611 C160.789293,184.738989 160.683699,184.738989 160.583942,184.709611 L158.255474,184.810225 Z" id="Shape" fill="#606162" fill-rule="nonzero"></path>
                                <path d="M169.865693,186.470348 L169.865693,183.837628 C169.906924,183.469768 169.802515,183.100279 169.576642,182.814724 C169.288137,182.599404 168.933278,182.503775 168.581022,182.546421 L165.048175,182.546421 C164.695919,182.503775 164.34106,182.599404 164.052555,182.814724 C163.826683,183.100279 163.722273,183.469768 163.763504,183.837628 L163.763504,186.470348 C163.722273,186.838208 163.826683,187.207696 164.052555,187.493252 C164.34106,187.708572 164.695919,187.8042 165.048175,187.761554 L168.613139,187.761554 C168.965395,187.8042 169.320254,187.708572 169.608759,187.493252 C169.823215,187.202528 169.915892,186.83356 169.865693,186.470348 Z M168.548905,186.604499 L165.080292,186.604499 L165.080292,183.65317 L168.613139,183.65317 L168.548905,186.604499 Z" id="Shape" fill="#606162" fill-rule="nonzero"></path>
                                <path d="M171.905109,187.811861 L175.421898,187.811861 C175.779153,187.85395 176.138847,187.758557 176.433577,187.543558 C176.659449,187.258003 176.763859,186.888514 176.722628,186.520654 L176.722628,183.887935 C176.763859,183.520075 176.659449,183.150586 176.433577,182.865031 C176.138847,182.650032 175.779153,182.554639 175.421898,182.596728 L171.905109,182.596728 C171.548059,182.55769 171.189374,182.652815 170.893431,182.865031 C170.673281,183.153189 170.574743,183.52241 170.620438,183.887935 L170.620438,186.520654 C170.574743,186.886179 170.673281,187.2554 170.893431,187.543558 C171.189374,187.755774 171.548059,187.850899 171.905109,187.811861 Z M171.905109,183.703476 L175.357664,183.703476 L175.357664,186.654806 L171.905109,186.654806 L171.905109,183.703476 Z" id="Shape" fill="#606162" fill-rule="nonzero"></path>
                            </g>
                        </g>
                    </g>
                </g>
            </g>
        </g>
    </g>
</svg>