<svg xmlns="http://www.w3.org/2000/svg" width="400" height="100" viewBox="0 0 400 100"><defs><style>
      .a {
        fill: #999;
      }
    </style></defs><g><path class="a" d="M80.75,38.75a6.56,6.56,0,0,0-2-.63A15.32,15.32,0,0,0,76.51,38h-5V47H76a15.05,15.05,0,0,0,2.38-.19,7.62,7.62,0,0,0,2.21-.69,4,4,0,0,0,2.27-3.85,3.9,3.9,0,0,0-.58-2.24A4,4,0,0,0,80.75,38.75Z"></path><path class="a" d="M387.76,8.37H12.24a4,4,0,0,0-4,4V87.64a4,4,0,0,0,4,4H387.76a4,4,0,0,0,4-4V12.37A4,4,0,0,0,387.76,8.37Zm-304.55,61L74.74,53.88H71.53V69.36h-9.2v-39H77.2a25.64,25.64,0,0,1,5.49.58,14.34,14.34,0,0,1,4.79,2,10.39,10.39,0,0,1,3.39,3.64,11.42,11.42,0,0,1,1.26,5.62A10.38,10.38,0,0,1,90,48.81,11.75,11.75,0,0,1,84,52.66l10.19,16.7Zm46.17,0H102.16v-39h26.23v7.93H111.25v7.39h16.2v7.54h-16.2v8.1h18.13Zm18.15-26.67a3.75,3.75,0,0,0,1.21,1.16,11.36,11.36,0,0,0,1.91.91c.73.27,1.56.56,2.47.85,1.33.44,2.7.93,4.14,1.46a15.53,15.53,0,0,1,3.91,2.12,11.23,11.23,0,0,1,2.92,3.28,9.45,9.45,0,0,1,1.16,4.88A12.8,12.8,0,0,1,164,63.16a11.69,11.69,0,0,1-3.34,4,14.42,14.42,0,0,1-4.79,2.37,20.35,20.35,0,0,1-5.57.77,23,23,0,0,1-8.09-1.46,17,17,0,0,1-6.5-4.16l6.17-6.28a11.42,11.42,0,0,0,3.77,2.95,10.22,10.22,0,0,0,4.65,1.18,9.17,9.17,0,0,0,2-.22,5.15,5.15,0,0,0,1.74-.72,3.59,3.59,0,0,0,1.18-1.32,4.08,4.08,0,0,0,.44-2,3.09,3.09,0,0,0-.55-1.87,5.19,5.19,0,0,0-1.57-1.41,12.81,12.81,0,0,0-2.53-1.16c-1-.35-2.16-.72-3.44-1.13A32,32,0,0,1,144,51.34a12.24,12.24,0,0,1-3.19-2.12,9.75,9.75,0,0,1-2.26-3.14,10.64,10.64,0,0,1-.86-4.49A11,11,0,0,1,139,36a11.4,11.4,0,0,1,3.47-3.8,15,15,0,0,1,4.84-2.17,22,22,0,0,1,5.46-.69,20.24,20.24,0,0,1,6.75,1.21,17.47,17.47,0,0,1,6,3.58l-6,6.34A8.48,8.48,0,0,0,156.35,38a8.9,8.9,0,0,0-3.78-.91,11.33,11.33,0,0,0-1.9.16,4.73,4.73,0,0,0-1.73.64,4.17,4.17,0,0,0-1.3,1.21,3.21,3.21,0,0,0-.52,1.9A3.1,3.1,0,0,0,147.53,42.69ZM202,69.36H174.78v-39H201v7.93H183.87v7.39h16.2v7.54h-16.2v8.1H202Zm34.11,0H211.53v-39H221v30.8h15.1Zm32.28,0H243.81v-39h9.48v30.8h15.09Zm34.93,0H276.1v-39h26.22v7.93H285.19v7.39h16.19v7.54H285.19v8.1h18.12Zm30.42,0-8.47-15.48H322V69.36h-9.2v-39h14.88a25.55,25.55,0,0,1,5.48.58,14.26,14.26,0,0,1,4.79,2,10.21,10.21,0,0,1,3.39,3.64,11.31,11.31,0,0,1,1.27,5.62,10.38,10.38,0,0,1-2.15,6.67,11.66,11.66,0,0,1-5.95,3.85l10.19,16.7Z"></path><path class="a" d="M331.26,38.75a6.56,6.56,0,0,0-2.05-.63A15.08,15.08,0,0,0,327,38h-5V47h4.48a15,15,0,0,0,2.38-.19,7.69,7.69,0,0,0,2.22-.69,4.24,4.24,0,0,0,1.63-1.43,4.17,4.17,0,0,0,.64-2.42,3.9,3.9,0,0,0-.58-2.24A4.06,4.06,0,0,0,331.26,38.75Z"></path><path class="a" d="M390,0H10A10,10,0,0,0,0,10V90a10,10,0,0,0,10,10H390a10,10,0,0,0,10-10V10A10,10,0,0,0,390,0Zm3.76,87.64a6,6,0,0,1-6,6H12.24a6,6,0,0,1-6-6V12.37a6,6,0,0,1,6-6H387.76a6,6,0,0,1,6,6Z"></path></g></svg>