<?xml version="1.0" encoding="UTF-8"?>
<svg width="20px" height="21px" viewBox="0 0 20 21" version="1.1" xmlns="http://www.w3.org/2000/svg" xmlns:xlink="http://www.w3.org/1999/xlink">
    <!-- Generator: sketchtool 52.2 (67145) - http://www.bohemiancoding.com/sketch -->
    <title>DA71B158-FF09-463C-945D-D278987699BD</title>
    <desc>Created with sketchtool.</desc>
    <g id="MOBILE-DESIGN-CENTER" stroke="none" stroke-width="1" fill="none" fill-rule="evenodd">
        <g id="DesignCenter-mobile" transform="translate(-272.000000, -75.000000)" fill="#5F6062" fill-rule="nonzero">
            <g id="navigation-express" transform="translate(0.000000, 68.000000)">
                <g id="save-button" transform="translate(256.000000, 0.000000)">
                    <g id="save-icon" transform="translate(16.000000, 7.000000)">
                        <path d="M14.1203989,1.91251808 L14.1203989,7.73060076 C14.1203989,8.0687086 13.8483335,8.34279917 13.5127238,8.34279917 L4.68054782,8.34279917 C4.34493811,8.34279917 4.07287268,8.0687086 4.07287268,7.73060076 L4.07287268,1.91251808 L1.87589331,1.91251808 C1.69518039,1.91251808 1.54868362,2.0601053 1.54868362,2.24216337 L1.54868362,19.1795337 C1.54868362,19.3615918 1.69518039,19.509179 1.87589331,19.509179 L17.8383924,19.509179 C18.0191053,19.509179 18.1656021,19.3615918 18.1656021,19.1795337 L18.1656021,6.12469385 L14.4716626,1.91251808 L14.1203989,1.91251808 Z M12.9050487,1.91251808 L5.28822296,1.91251808 L5.28822296,7.11840236 L12.9050487,7.11840236 L12.9050487,1.91251808 Z M15.2010525,0.894981487 L19.228677,5.48765614 C19.3267977,5.59954263 19.3809524,5.74369553 19.3809524,5.89299433 L19.3809524,19.1795337 C19.3809524,20.0378075 18.6903248,20.7335758 17.8383924,20.7335758 L1.87589331,20.7335758 C1.02396096,20.7335758 0.333333333,20.0378075 0.333333333,19.1795337 L0.333333333,2.24216337 C0.333333333,1.38388962 1.02396096,0.688121268 1.87589331,0.688121268 L14.7456528,0.688121268 C14.9198679,0.688121268 15.0857042,0.763450513 15.2010525,0.894981487 Z M11.3002316,3.52081907 C11.3002316,3.3127527 11.4793177,3.14408159 11.7002316,3.14408159 C11.9211455,3.14408159 12.1002316,3.3127527 12.1002316,3.52081907 L12.1002316,5.1892969 C12.1002316,5.39736326 11.9211455,5.56603437 11.7002316,5.56603437 C11.4793177,5.56603437 11.3002316,5.39736326 11.3002316,5.1892969 L11.3002316,3.52081907 Z" id="Combined-Shape"></path>
                    </g>
                </g>
            </g>
        </g>
    </g>
</svg>