<?xml version="1.0" encoding="utf-8"?>
<svg viewBox="2.185 82.315 375.015 221.14" width="375.015" height="221.14" style="enable-background:new 0 0 380 380;" xmlns="http://www.w3.org/2000/svg">
  <defs>
    <style type="text/css">
	.st0{display:none;}
	.st1{display:inline;}
	.st2{fill:#E21313;}
	.st3{fill:#57CE2C;}
	.st4{display:inline;fill:#E61737;}
	.st5{fill:#57CE2C;stroke:#FFFFFF;stroke-width:7;stroke-miterlimit:10;}
</style>
  </defs>
  <g id="Layer_1" class="st0" style="" transform="matrix(1.208832, 0, 0, 1.208832, -58.253632, -27.613504)">
    <g>
      <g class="st1">
        <g>
          <path class="st2" d="M153.5,196.6H134c-7,0-12.7-5.7-12.7-12.7v-8.4h10.3v8.4c0,1.3,1.1,2.4,2.4,2.4h19.5c1.3,0,2.4-1.1,2.4-2.4 v-7.5h10.3v7.5C166.2,190.9,160.5,196.6,153.5,196.6z"/>
        </g>
      </g>
      <g class="st1">
        <path class="st2" d="M258.1,277.5H121.8c-6.6,0-11.9-5.4-11.9-11.9v-8.2h10.3v8.2c0,0.9,0.7,1.6,1.7,1.6h136.3 c0.9,0,1.6-0.7,1.6-1.6v-8.2h10.3v8.2C270.1,272.1,264.7,277.5,258.1,277.5z"/>
      </g>
      <g class="st1">
        <path class="st2" d="M263.5,260.3h-147c-8.8,0-16-7.2-16-16v-12.6c0-8.8,7.2-16,16-16h90.1c0.1,0,0.3-0.1,0.3-0.2 c3.1-8.1,8.5-29.2-6.4-50.3l-19.8-0.1v5.3c0,6.9-5.6,12.5-12.5,12.5h-47.5c-6.9,0-12.5-5.6-12.5-12.5v-35.8 c0-15,12.2-27.2,27.2-27.2h99.3c16.3,0,30.4,11.5,35,28.5c6.8,24.8,10.3,63.2,9.9,108.3C279.5,253.1,272.3,260.3,263.5,260.3z M116.4,226c-3.2,0-5.7,2.6-5.7,5.7v12.6c0,3.2,2.6,5.7,5.7,5.7h147c3.2,0,5.8-2.6,5.8-5.8c0.4-43.5-3.1-81.9-9.5-105.5 c-3.4-12.5-13.5-21-25.1-21h-99.3c-9.3,0-16.9,7.6-16.9,17v35.8c0,1.2,1,2.2,2.2,2.2h47.5c1.2,0,2.2-1,2.2-2.2v-6.7 c0-4.9,4-8.9,8.9-8.9h20.9c3.4,0,6.7,1.6,8.6,4.4c17.7,25.1,11.2,50.2,7.6,59.8c-1.5,4.1-5.5,6.9-9.9,6.9L116.4,226L116.4,226z"/>
      </g>
      <g class="st1">
        <rect x="138.6" y="192.5" class="st2" width="10.3" height="17.9"/>
      </g>
    </g>
    <g class="st1">
      <g>
        <path class="st3" d="M135.3,272c-15.7,0-28.5-12.8-28.5-28.5c0-15.7,12.8-28.5,28.5-28.5c15.7,0,28.5,12.8,28.5,28.5 C163.8,259.3,151,272,135.3,272z M135.3,222.5c-11.6,0-21,9.4-21,21s9.4,21,21,21s21-9.4,21-21 C156.3,232,146.9,222.5,135.3,222.5z"/>
      </g>
      <g>
        <path class="st3" d="M303.6,272c-15.7,0-28.5-12.8-28.5-28.5c0-15.7,12.8-28.5,28.5-28.5c15.7,0,28.5,12.8,28.5,28.5 C332,259.3,319.3,272,303.6,272z M303.6,222.5c-11.6,0-21,9.4-21,21s9.4,21,21,21s21-9.4,21-21 C324.6,232,315.2,222.5,303.6,222.5z"/>
      </g>
      <g>
        <ellipse class="st3" cx="303.6" cy="243.6" rx="9.9" ry="9.9"/>
      </g>
      <g>
        <ellipse class="st3" cx="135.3" cy="243.6" rx="9.9" ry="9.9"/>
      </g>
      <g>
        <path class="st3" d="M343.2,242.3c-2,0-3.7-1.7-3.7-3.7s1.7-3.7,3.7-3.7c3.4,0,6.2-2.8,6.2-6.2v-50c0-2-0.7-3.9-2-5.5l-38-46.5 c-1.6-2-4.1-3.2-6.7-3.2h-39.9v111.4h1.2c2,0,3.7,1.7,3.7,3.7s-1.7,3.7-3.7,3.7h-5c-2,0-3.7-1.7-3.7-3.7V119.8 c0-2.1,1.7-3.7,3.7-3.7h43.6c4.8,0,9.4,2.2,12.5,5.9l38,46.5c2.3,2.9,3.6,6.5,3.6,10.2v50C356.8,236.2,350.7,242.3,343.2,242.3z"/>
      </g>
      <g>
        <path class="st3" d="M331.5,182.9h-52.7c-2,0-3.7-1.7-3.7-3.7v-39.6c0-2.1,1.7-3.7,3.7-3.7h20.3c1.1,0,2.2,0.5,2.9,1.4l32.4,39.6 c0.9,1.1,1.1,2.6,0.5,3.9C334.3,182.1,333,182.9,331.5,182.9z M282.5,175.5h41.2l-26.4-32.2h-14.8L282.5,175.5L282.5,175.5z"/>
      </g>
      <g>
        <path class="st3" d="M353.1,222.5h-19.8c-2,0-3.7-1.7-3.7-3.7V199c0-2.1,1.7-3.7,3.7-3.7h19.8c2,0,3.7,1.7,3.7,3.7 s-1.7,3.7-3.7,3.7H337v12.4h16.1c2,0,3.7,1.7,3.7,3.7C356.8,220.9,355.1,222.5,353.1,222.5z"/>
      </g>
      <g>
        <path class="st3" d="M259,242.3h-79.2c-2.1,0-3.7-1.7-3.7-3.7s1.7-3.7,3.7-3.7H259c2,0,3.7,1.7,3.7,3.7S261.1,242.3,259,242.3z"/>
      </g>
      <g>
        <path class="st3" d="M90.8,242.3h-9.9c-2.1,0-3.7-1.7-3.7-3.7v-59.4c0-2.1,1.7-3.7,3.7-3.7s3.7,1.7,3.7,3.7v55.7h6.2 c2.1,0,3.7,1.7,3.7,3.7S92.8,242.3,90.8,242.3z"/>
      </g>
      <g>
        <path class="st3" d="M259,123.6c-2,0-3.7-1.7-3.7-3.7v-16.1H84.6v11.1c0,2.1-1.7,3.7-3.7,3.7s-3.7-1.7-3.7-3.7v-14.8 c0-2.1,1.7-3.7,3.7-3.7H259c2,0,3.7,1.7,3.7,3.7v19.8C262.7,121.9,261.1,123.6,259,123.6z"/>
      </g>
      <g>
        <path class="st3" d="M169.9,207.7c-0.9,0-1.9-0.4-2.6-1.1L132.7,172c-1.4-1.4-1.4-3.8,0-5.2l14.9-14.9c1.4-1.4,3.8-1.4,5.2,0 L170,169l37-37c1.4-1.4,3.8-1.4,5.2,0l14.9,14.9c1.4,1.4,1.4,3.8,0,5.2l-54.4,54.4C171.8,207.3,170.9,207.7,169.9,207.7z M140.6,169.3l29.4,29.4l49.2-49.2l-9.6-9.6l-37,37c-1.4,1.4-3.8,1.4-5.2,0l-17.2-17.2L140.6,169.3z"/>
      </g>
      <g>
        <path class="st3" d="M115.5,163.1H56.1c-2,0-3.7-1.7-3.7-3.7s1.7-3.7,3.7-3.7h59.4c2.1,0,3.7,1.7,3.7,3.7 S117.6,163.1,115.5,163.1z"/>
      </g>
      <g>
        <path class="st3" d="M130.4,138.4H71c-2.1,0-3.7-1.7-3.7-3.7s1.7-3.7,3.7-3.7h59.4c2.1,0,3.7,1.7,3.7,3.7 C134.1,136.7,132.4,138.4,130.4,138.4z"/>
      </g>
    </g>
    <g>
      <path class="st4" d="M268.8,186.4c-8.5,0-15.5,6.1-15.5,13.6c0,7.5,6.9,13.6,15.5,13.6c8.5,0,15.5-6.1,15.5-13.6 C284.2,192.5,277.3,186.4,268.8,186.4z M268.8,209c-5.7,0-10.3-4.1-10.3-9c0-5,4.6-9.1,10.3-9.1c5.7,0,10.3,4.1,10.3,9.1 C279.1,204.9,274.5,209,268.8,209z M314.6,120c-0.3-4.7-1.7-8.3-4.5-10.8c-4.8-4.5-11.9-4.5-16.6-4.5l-10.6-0.1v-7.1 c0-1.2-1.1-2.3-2.6-2.3c-1.4,0-2.6,1-2.6,2.3v7.1l-24.1-0.2c-1.8,0-3.7,0-5.6-0.1c0.6-0.7,0.9-1.6,0.9-2.6c0-2.5-2.3-4.5-5.1-4.5 h-35.4c-2.9,0-5.1,2-5.1,4.5c0,0.8,0.2,1.5,0.7,2.2c-22-0.2-43.5-0.4-58.2-0.5v-5.6c0-1.8-1.6-3.2-3.6-3.2c-2,0-3.6,1.4-3.6,3.2 v5.6c-2,0-3.8,0-5.3,0c-30.9,0-45.9,9.6-45.9,29.4c0,35.5,7.8,51.4,8.2,52.1c0.8,1.6,2.7,2.7,4.7,2.7h29.4v13.6H89.9 c-1.5,0-3.7,0.4-5.8,2.4c-5.5,5.1-8.9,19.7-8.6,25.4c0.3,6.3,2.5,38.1,2.6,39.4c0.2,2.4,2.4,4.3,5.1,4.3H311c2.8,0,5.1-2,5.1-4.5 c0-27.8-1.7-47.1-3-62.5c-0.9-10.1-1.6-18.8-1.6-27c0-5.2,0.6-15.2,0.7-15.2c3.2,0.1,5.9-1.8,6-4.3l1.9-34.1 C320.2,122.2,317.8,120.1,314.6,120z M91.2,210H108c-0.3,0.5-0.4,1.1-0.4,1.7c0,2.2,2.1,4.1,4.6,4.1h44.7c2.6,0,4.6-1.8,4.6-4.1 c0-0.6-0.1-1.1-0.4-1.7h45.8c3.2,0,11.3,0,16.1-4.9c-0.1,1.6-0.5,8.4-0.5,9.9c0,4.7-1.1,6.2-2.2,7c-2.1,1.6-6.5,2.3-13.3,2.3 L86.2,224C87,218.7,89.4,212.1,91.2,210z M134.8,200.9v-13.6h14.4c2.2,0,4.1-1.2,4.9-3l7.7-19.5c1.5-3.9,3.3-4.2,5.4-4.2h37.1 c3.2,0,5.7,1,7.5,5.9c1.6,4.4,5.4,25.8,4.5,30.4c-0.4,1.8-0.8,4-9.4,4L134.8,200.9L134.8,200.9z M88.1,263.4 c-0.5-7.3-1.5-22.1-2-30.3l121,0.3c9.7,0,15.8-1.4,20-4.5c5.1-3.9,5.8-9.4,5.8-13.9c0-1.2,0.1-2.9,0.2-4.9 c0.6-9.3,0.6-18.9-1.3-28c-1.7-8.3-6.1-18.6-12.7-24.9c-3.4-3.3-7.1-5.5-14.8-5.5s-37.1,0-37.1,0c-7.4,0-12.5,3.5-15.2,10.3 l-6.5,16.4h-41.7c-2-5.6-6.2-20.3-6.2-45.7c0-10.6,4.3-20.3,35.6-20.3c19.8,0,80.2,0.6,120.3,1l40,0.4c3.9,0,7.5,0.1,9.1,1.7 c1.4,1.3,2,4.1,1.7,8c0,0-3.1,38.3-3.1,55c0,8.5,0.8,17.4,1.7,27.7c1.2,14.5,2.8,32.3,3,57.3L88.1,263.4L88.1,263.4z M268.8,161.6 c10.5,0,19.1-7.5,19.1-16.7c0-9.2-8.5-16.7-19.1-16.7s-19.1,7.5-19.1,16.7C249.7,154.1,258.3,161.6,268.8,161.6z M268.8,135.4 c6,0,10.8,4.3,10.8,9.5s-4.9,9.5-10.8,9.5s-10.8-4.3-10.8-9.5C258,139.6,262.8,135.4,268.8,135.4z M268.8,175.8 c-15.2,0-27.5,10.8-27.5,24.1c0,13.3,12.3,24.1,27.5,24.1s27.5-10.8,27.5-24.1S283.9,175.8,268.8,175.8z M268.8,216.9 c-10.6,0-19.2-7.6-19.2-16.9c0-9.3,8.6-16.9,19.2-16.9c10.6,0,19.2,7.6,19.2,16.9S279.4,216.9,268.8,216.9z"/>
    </g>
  </g>
  <g id="Layer_2" style="" transform="matrix(1.208832, 0, 0, 1.208832, -58.253632, -27.613504)">
    <g>
      <g>
        <path class="st3" d="M135.6,270.8c-15.7,0-28.5-12.8-28.5-28.5c0-15.7,12.8-28.5,28.5-28.5c15.7,0,28.5,12.8,28.5,28.5 C164,258,151.2,270.8,135.6,270.8z M135.6,221.3c-11.6,0-21,9.4-21,21s9.4,21,21,21s21-9.4,21-21 C156.6,230.7,147.2,221.3,135.6,221.3z"/>
      </g>
      <g>
        <path class="st3" d="M303.8,270.8c-15.7,0-28.5-12.8-28.5-28.5c0-15.7,12.8-28.5,28.5-28.5c15.7,0,28.5,12.8,28.5,28.5 C332.3,258,319.5,270.8,303.8,270.8z M303.8,221.3c-11.6,0-21,9.4-21,21s9.4,21,21,21c11.6,0,21-9.4,21-21 C324.9,230.7,315.4,221.3,303.8,221.3z"/>
      </g>
      <g>
        <ellipse class="st3" cx="303.8" cy="242.3" rx="9.9" ry="9.9"/>
      </g>
      <g>
        <ellipse class="st3" cx="135.6" cy="242.3" rx="9.9" ry="9.9"/>
      </g>
      <g>
        <path class="st3" d="M343.4,241.1c-2,0-3.7-1.7-3.7-3.7s1.7-3.7,3.7-3.7c3.4,0,6.2-2.8,6.2-6.2v-50c0-2-0.7-3.9-2-5.5l-38-46.5 c-1.6-2-4.1-3.2-6.7-3.2H263v111.4h1.2c2,0,3.7,1.7,3.7,3.7s-1.7,3.7-3.7,3.7h-5c-2,0-3.7-1.7-3.7-3.7V118.6 c0-2.1,1.7-3.7,3.7-3.7h43.6c4.8,0,9.4,2.2,12.5,5.9l38,46.5c2.3,2.9,3.6,6.5,3.6,10.2v50C357,235,350.9,241.1,343.4,241.1z"/>
      </g>
      <g>
        <path class="st3" d="M331.8,181.7h-52.7c-2,0-3.7-1.7-3.7-3.7v-39.6c0-2.1,1.7-3.7,3.7-3.7h20.3c1.1,0,2.2,0.5,2.9,1.4l32.4,39.6 c0.9,1.1,1.1,2.6,0.5,3.9C334.5,180.9,333.2,181.7,331.8,181.7z M282.8,174.3H324l-26.4-32.2h-14.8L282.8,174.3L282.8,174.3z"/>
      </g>
      <g>
        <path class="st3" d="M353.3,221.3h-19.8c-2,0-3.7-1.7-3.7-3.7v-19.8c0-2.1,1.7-3.7,3.7-3.7h19.8c2,0,3.7,1.7,3.7,3.7 s-1.7,3.7-3.7,3.7h-16.1v12.4h16.1c2,0,3.7,1.7,3.7,3.7C357,219.6,355.4,221.3,353.3,221.3z"/>
      </g>
      <g>
        <path class="st3" d="M259.3,241.1h-79.2c-2.1,0-3.7-1.7-3.7-3.7s1.7-3.7,3.7-3.7h79.2c2,0,3.7,1.7,3.7,3.7 S261.3,241.1,259.3,241.1z"/>
      </g>
      <g>
        <path class="st3" d="M91,241.1h-9.9c-2.1,0-3.7-1.7-3.7-3.7V178c0-2.1,1.7-3.7,3.7-3.7s3.7,1.7,3.7,3.7v55.7H91 c2.1,0,3.7,1.7,3.7,3.7S93.1,241.1,91,241.1z"/>
      </g>
      <g>
        <path class="st3" d="M259.3,122.3c-2,0-3.7-1.7-3.7-3.7v-16.1H84.8v11.1c0,2.1-1.7,3.7-3.7,3.7s-3.7-1.7-3.7-3.7V98.8 c0-2.1,1.7-3.7,3.7-3.7h178.2c2,0,3.7,1.7,3.7,3.7v19.8C263,120.6,261.3,122.3,259.3,122.3z"/>
      </g>
      <g>
        <path class="st5" d="M170.2,206.4c-0.9,0-1.9-0.4-2.6-1.1l-34.6-34.6c-1.4-1.4-1.4-3.8,0-5.2l14.9-14.9c1.4-1.4,3.8-1.4,5.2,0 l17.2,17.2l37-37c1.4-1.4,3.8-1.4,5.2,0l14.9,14.9c1.4,1.4,1.4,3.8,0,5.2l-54.4,54.4C172.1,206.1,171.1,206.4,170.2,206.4z"/>
      </g>
      <g>
        <path class="st3" d="M115.8,161.9H56.4c-2,0-3.7-1.7-3.7-3.7s1.7-3.7,3.7-3.7h59.4c2.1,0,3.7,1.7,3.7,3.7 S117.8,161.9,115.8,161.9z"/>
      </g>
      <g>
        <path class="st3" d="M130.6,137.2H71.2c-2.1,0-3.7-1.7-3.7-3.7s1.7-3.7,3.7-3.7h59.4c2.1,0,3.7,1.7,3.7,3.7 C134.3,135.5,132.7,137.2,130.6,137.2z"/>
      </g>
    </g>
  </g>
</svg>