<?xml version="1.0" encoding="utf-8"?>
<svg viewBox="21.685 46.784 290.733 329.854" width="290.733" height="329.854" style="enable-background:new 0 0 380 380;" xmlns="http://www.w3.org/2000/svg">
  <defs>
    <style type="text/css">
	.st0{display:none;}
	.st1{display:inline;fill-rule:evenodd;clip-rule:evenodd;fill:#2B328D;}
	.st2{display:inline;fill:#FFFFFF;stroke:#FFFFFF;stroke-miterlimit:10;}
	.st3{display:inline;}
	.st4{fill:#FFFFFF;stroke:#FFFFFF;stroke-width:5;stroke-miterlimit:10;}
	.st5{display:inline;fill:#FFFFFF;}
	.st6{display:inline;fill:none;stroke:#FFFFFF;stroke-width:11;stroke-miterlimit:10;}
	.st7{display:inline;fill:#FCFCFC;stroke:#28B21D;stroke-width:8;stroke-miterlimit:10;}
	.st8{display:inline;fill:#28B21D;stroke:#FFFFFF;stroke-miterlimit:10;}
	.st9{fill:#FFFFFF;}
	.st10{display:none;fill:none;stroke:#FFFFFF;stroke-miterlimit:10;}
	.st11{fill-rule:evenodd;clip-rule:evenodd;fill:#ADADAD;}
</style>
  </defs>
  <g id="Layer_2_00000054954571448027278130000010478510900408853159_" class="st0">
    <rect x="-27.8" class="st1" width="419.7" height="404.1"/>
  </g>
  <g id="sewing" class="st0" style="" transform="matrix(1.60178, 0, 0, 1.60178, -121.041718, -89.765533)">
    <path class="st2" d="M268.8,186.4c-8.5,0-15.5,6.1-15.5,13.6s6.9,13.6,15.5,13.6c8.5,0,15.5-6.1,15.5-13.6 C284.2,192.5,277.3,186.4,268.8,186.4z M268.8,209c-5.7,0-10.3-4.1-10.3-9c0-5,4.6-9.1,10.3-9.1c5.7,0,10.3,4.1,10.3,9.1 C279.1,204.9,274.5,209,268.8,209z M314.6,120c-0.3-4.7-1.7-8.3-4.5-10.8c-4.8-4.5-11.9-4.5-16.6-4.5l-10.6-0.1v-7.1 c0-1.2-1.1-2.3-2.6-2.3c-1.4,0-2.6,1-2.6,2.3v7.1l-24.1-0.2c-1.8,0-3.7,0-5.6-0.1c0.6-0.7,0.9-1.6,0.9-2.6c0-2.5-2.3-4.5-5.1-4.5 h-35.4c-2.9,0-5.1,2-5.1,4.5c0,0.8,0.2,1.5,0.7,2.2c-22-0.2-43.5-0.4-58.2-0.5v-5.6c0-1.8-1.6-3.2-3.6-3.2s-3.6,1.4-3.6,3.2v5.6 c-2,0-3.8,0-5.3,0c-30.9,0-45.9,9.6-45.9,29.4c0,35.5,7.8,51.4,8.2,52.1c0.8,1.6,2.7,2.7,4.7,2.7h29.4v13.6H89.9 c-1.5,0-3.7,0.4-5.8,2.4c-5.5,5.1-8.9,19.7-8.6,25.4c0.3,6.3,2.5,38.1,2.6,39.4c0.2,2.4,2.4,4.3,5.1,4.3H311c2.8,0,5.1-2,5.1-4.5 c0-27.8-1.7-47.1-3-62.5c-0.9-10.1-1.6-18.8-1.6-27c0-5.2,0.6-15.2,0.7-15.2c3.2,0.1,5.9-1.8,6-4.3l1.9-34.1 C320.2,122.2,317.8,120.1,314.6,120z M91.2,210H108c-0.3,0.5-0.4,1.1-0.4,1.7c0,2.2,2.1,4.1,4.6,4.1h44.7c2.6,0,4.6-1.8,4.6-4.1 c0-0.6-0.1-1.1-0.4-1.7h45.8c3.2,0,11.3,0,16.1-4.9c-0.1,1.6-0.5,8.4-0.5,9.9c0,4.7-1.1,6.2-2.2,7c-2.1,1.6-6.5,2.3-13.3,2.3 L86.2,224C87,218.7,89.4,212.1,91.2,210z M134.8,200.9v-13.6h14.4c2.2,0,4.1-1.2,4.9-3l7.7-19.5c1.5-3.9,3.3-4.2,5.4-4.2h37.1 c3.2,0,5.7,1,7.5,5.9c1.6,4.4,5.4,25.8,4.5,30.4c-0.4,1.8-0.8,4-9.4,4L134.8,200.9L134.8,200.9z M88.1,263.4 c-0.5-7.3-1.5-22.1-2-30.3l121,0.3c9.7,0,15.8-1.4,20-4.5c5.1-3.9,5.8-9.4,5.8-13.9c0-1.2,0.1-2.9,0.2-4.9c0.6-9.3,0.6-18.9-1.3-28 c-1.7-8.3-6.1-18.6-12.7-24.9c-3.4-3.3-7.1-5.5-14.8-5.5s-37.1,0-37.1,0c-7.4,0-12.5,3.5-15.2,10.3l-6.5,16.4h-41.7 c-2-5.6-6.2-20.3-6.2-45.7c0-10.6,4.3-20.3,35.6-20.3c19.8,0,80.2,0.6,120.3,1l40,0.4c3.9,0,7.5,0.1,9.1,1.7c1.4,1.3,2,4.1,1.7,8 c0,0-3.1,38.3-3.1,55c0,8.5,0.8,17.4,1.7,27.7c1.2,14.5,2.8,32.3,3,57.3L88.1,263.4L88.1,263.4z M268.8,161.6 c10.5,0,19.1-7.5,19.1-16.7s-8.5-16.7-19.1-16.7s-19.1,7.5-19.1,16.7C249.7,154.1,258.3,161.6,268.8,161.6z M268.8,135.4 c6,0,10.8,4.3,10.8,9.5s-4.9,9.5-10.8,9.5s-10.8-4.3-10.8-9.5C258,139.6,262.8,135.4,268.8,135.4z M268.8,175.8 c-15.2,0-27.5,10.8-27.5,24.1s12.3,24.1,27.5,24.1c15.2,0,27.5-10.8,27.5-24.1S283.9,175.8,268.8,175.8z M268.8,216.9 c-10.6,0-19.2-7.6-19.2-16.9c0-9.3,8.6-16.9,19.2-16.9S288,190.7,288,200S279.4,216.9,268.8,216.9z"/>
  </g>
  <g id="shipped" class="st0" style="" transform="matrix(1.60178, 0, 0, 1.60178, -121.041718, -89.765533)">
    <g class="st3">
      <path class="st4" d="M315,118.7c0-0.2,0-0.4-0.1-0.6c0,0,0,0,0-0.1s-0.1-0.2-0.1-0.3l0,0c0-0.1-0.1-0.2-0.2-0.3c0,0,0,0,0-0.1 c-0.1-0.1-0.1-0.1-0.2-0.2l0,0c-0.1-0.1-0.2-0.2-0.3-0.2l0,0c-0.1-0.1-0.2-0.1-0.3-0.2c0,0,0,0-0.1,0c-0.2-0.1-0.4-0.2-0.6-0.3 l-80.9-26.5l0,0L190,76.1c-0.9-0.3-1.8-0.2-2.6,0.2l-109.2,62c-1.3,0.7-1.6,2.1-1,3.2c-0.2,0.4-0.3,0.8-0.3,1.2v112.4 c0,1,0.7,1.9,1.8,2.3l123.1,45.4h0.1h0.1c0.1,0,0.1,0,0.2,0.1h0.1c0.1,0,0.1,0,0.2,0h0.1c0.1,0,0.2,0,0.3,0s0.3,0,0.4,0h0.1 c0.1,0,0.2,0,0.3-0.1c0.1,0,0.1,0,0.2-0.1c0.1,0,0.2-0.1,0.2-0.1c0.1,0,0.1-0.1,0.2-0.1c0.1,0,0.1,0,0.2-0.1c0,0,0,0,0.1,0 c0,0,0,0,0.1,0L313.9,233c0.7-0.5,1.2-1.2,1.2-2L315,118.7L315,118.7z M202.5,185.3L163.7,171l104.4-63.7c0.1-0.1,0.2-0.1,0.3-0.2 l37.7,12.4L202.5,185.3z M261.9,105l-105.8,64.5c-0.8,0.5-1.2,1.2-1.2,2v36.4L125.5,197v-37.2L231.6,95L261.9,105z M189.4,81.2 l35.7,11.7l-102.9,62.7l-38.8-14.3L189.4,81.2z M82.7,146.5l37,13.7v38.5c0,1,0.7,1.9,1.8,2.3l35.2,13c0.4,0.1,0.8,0.2,1.1,0.2 c0.6,0,1.1-0.1,1.6-0.4c0.8-0.5,1.3-1.2,1.3-2.1v-36.4l39.3,14.5v106.9L82.7,253.4V146.5z M309.2,229.8l-103.4,65.7V189.4 l103.4-65.7V229.8z"/>
      <path class="st4" d="M96.8,228.6c-1.6,0-2.9,1.1-2.9,2.5v14.5c0,1.4,1.3,2.5,2.9,2.5s2.9-1.1,2.9-2.5v-14.5 C99.7,229.7,98.4,228.6,96.8,228.6z"/>
      <path class="st4" d="M111.6,234.6c-1.6,0-2.9,1.1-2.9,2.5v14.5c0,1.4,1.3,2.5,2.9,2.5s2.9-1.1,2.9-2.5v-14.5 C114.5,235.7,113.2,234.6,111.6,234.6z"/>
    </g>
  </g>
  <g id="finalcheck-white" class="st0" style="" transform="matrix(1.60178, 0, 0, 1.60178, -121.041718, -89.765533)">
    <path class="st5" d="M272.4,203.4l1.9,1.2v-98.9c0-5.8-4.7-10.5-10.5-10.5h-9.3v104.7h5.5C264.4,199.9,268.7,201.1,272.4,203.4z"/>
    <path class="st5" d="M125.2,282.4h74c-3.1-4-5-9-5-14.4v-2.2h-59.8V95.2h-9.3c-5.8,0-10.5,4.7-10.5,10.5v166.2 C114.7,277.7,119.4,282.4,125.2,282.4z"/>
    <path class="st5" d="M153,118.2h83c4.9,0,8.9-4,8.9-8.9V94.6c0-13.8-14.9-3.7-22.4-16.7c-8.5-14.8-47.3-14.8-55.8,0 c-7.5,12.9-22.4,3-22.4,16.7v14.7C144.2,114.2,148.2,118.2,153,118.2z M194.5,73.4c5.6,0,10.1,4.5,10.1,10.1s-4.5,10.1-10.1,10.1 s-10.1-4.5-10.1-10.1C184.5,78,189,73.4,194.5,73.4z"/>
    <rect x="156.9" y="140.2" class="st5" width="75.3" height="4.8"/>
    <rect x="156.9" y="161.6" class="st5" width="75.3" height="4.8"/>
    <rect x="156.9" y="183" class="st5" width="75.3" height="4.8"/>
    <path class="st5" d="M203.9,204.4h-47v4.8H199C200.4,207.4,202,205.7,203.9,204.4z"/>
    <rect x="156.9" y="225.8" class="st5" width="37.4" height="4.8"/>
    <polygon class="st5" points="242.5,247.2 227.9,232.6 218.2,242.3 242.5,266.7 281.5,227.6 271.8,217.9 &#9;"/>
    <path class="st5" d="M203.3,268c0,7.9,6.5,14.4,14.4,14.4h42.4c7.9,0,14.4-6.5,14.4-14.4v-22.3l-9,9V268c0,3-2.4,5.4-5.4,5.4h-42.4 c-3,0-5.4-2.4-5.4-5.4v-44.7c0-3,2.4-5.4,5.4-5.4h42.4c0.2,0,0.4,0,0.7,0l6.9-6.9c-2.2-1.4-4.8-2.2-7.6-2.2h-42.4 c-7.9,0-14.4,6.5-14.4,14.4L203.3,268L203.3,268z"/>
  </g>
  <g id="order" class="st0" style="" transform="matrix(1.60178, 0, 0, 1.60178, -121.041718, -89.765533)">
    <rect x="116.4" y="114.1" class="st2" width="115.6" height="12.7"/>
    <rect x="101.5" y="90.7" class="st6" width="153.3" height="189.2"/>
    <circle class="st7" cx="232" cy="244.8" r="46.7"/>
    <polygon class="st8" points="223.9,250.3 207.7,234.1 196.9,244.9 223.9,271.8 267.1,228.6 256.3,217.9 &#9;"/>
    <rect x="116.4" y="147.1" class="st2" width="79.6" height="12.7"/>
  </g>
  <g id="delivered" class="st0" style="" transform="matrix(1.60178, 0, 0, 1.60178, -121.041718, -89.765533)">
    <g class="st3">
      <path class="st9" d="M141.7,265.9c-13.2,0-23.9-10.7-23.9-23.9s10.7-23.9,23.9-23.9s23.9,10.7,23.9,23.9 C165.8,255.2,154.9,265.9,141.7,265.9z M141.7,224.3c-9.8,0-17.7,7.9-17.7,17.7s7.9,17.7,17.7,17.7s17.7-7.9,17.7-17.7 S151.6,224.3,141.7,224.3z"/>
    </g>
    <g class="st3">
      <path class="st9" d="M283.4,265.9c-13.2,0-23.9-10.7-23.9-23.9s10.7-23.9,23.9-23.9c13.2,0,23.9,10.7,23.9,23.9 S296.6,265.9,283.4,265.9z M283.4,224.3c-9.8,0-17.7,7.9-17.7,17.7s7.9,17.7,17.7,17.7c9.7,0,17.7-7.9,17.7-17.7 C301.1,232.2,293.2,224.3,283.4,224.3z"/>
    </g>
    <g class="st3">
      <ellipse class="st9" cx="283.4" cy="242" rx="8.4" ry="8.4"/>
    </g>
    <g class="st3">
      <ellipse class="st9" cx="141.7" cy="242" rx="8.4" ry="8.4"/>
    </g>
    <g class="st3">
      <path class="st9" d="M316.7,241c-1.7,0-3.1-1.4-3.1-3.1c0-1.7,1.4-3.1,3.1-3.1c2.8,0,5.2-2.3,5.2-5.2v-42.1c0-1.7-0.6-3.4-1.7-4.7 l-32-39.2c-1.4-1.7-3.5-2.7-5.7-2.7h-33.6v93.7h1c1.7,0,3.1,1.4,3.1,3.1c0,1.7-1.4,3.1-3.1,3.1h-4.1c-1.7,0-3.1-1.4-3.1-3.1v-99.9 c0-1.7,1.4-3.1,3.1-3.1h36.8c4,0,7.9,1.8,10.5,4.9l32,39.2c1.9,2.5,3.1,5.4,3.1,8.5v42.1C328.1,235.8,323,241,316.7,241z"/>
    </g>
    <g class="st3">
      <path class="st9" d="M306.9,190.9h-44.3c-1.7,0-3.1-1.4-3.1-3.1v-33.3c0-1.7,1.4-3.1,3.1-3.1h17.1c0.9,0,1.8,0.4,2.5,1.2 l27.3,33.3c0.8,0.9,0.9,2.2,0.4,3.4C309.2,190.3,308.2,190.9,306.9,190.9z M265.7,184.7h34.6l-22.2-27h-12.4V184.7L265.7,184.7z"/>
    </g>
    <g class="st3">
      <path class="st9" d="M325,224.3h-16.7c-1.7,0-3.1-1.4-3.1-3.1v-16.7c0-1.7,1.4-3.1,3.1-3.1H325c1.7,0,3.1,1.4,3.1,3.1 c0,1.7-1.4,3.1-3.1,3.1h-13.6v10.5H325c1.7,0,3.1,1.4,3.1,3.1S326.8,224.3,325,224.3z"/>
    </g>
    <g class="st3">
      <path class="st9" d="M245.9,241h-66.7c-1.7,0-3.1-1.4-3.1-3.1c0-1.7,1.4-3.1,3.1-3.1h66.7c1.7,0,3.1,1.4,3.1,3.1 C249,239.5,247.6,241,245.9,241z"/>
    </g>
    <g class="st3">
      <path class="st9" d="M104.3,241H96c-1.7,0-3.1-1.4-3.1-3.1v-50c0-1.7,1.4-3.1,3.1-3.1s3.1,1.4,3.1,3.1v46.9h5.2 c1.7,0,3.1,1.4,3.1,3.1C107.4,239.5,105.9,241,104.3,241z"/>
    </g>
    <g class="st3">
      <path class="st9" d="M245.9,140.9c-1.7,0-3.1-1.4-3.1-3.1v-13.6H99.1v9.3c0,1.7-1.4,3.1-3.1,3.1s-3.1-1.4-3.1-3.1V121 c0-1.7,1.4-3.1,3.1-3.1h149.9c1.7,0,3.1,1.4,3.1,3.1v16.7C249,139.5,247.6,140.9,245.9,140.9z"/>
    </g>
    <g class="st3">
      <path class="st9" d="M125.1,174.3H75c-1.7,0-3.1-1.4-3.1-3.1c0-1.7,1.4-3.1,3.1-3.1h50c1.7,0,3.1,1.4,3.1,3.1 S126.7,174.3,125.1,174.3z"/>
    </g>
    <g class="st3">
      <path class="st9" d="M137.6,153.5h-50c-1.7,0-3.1-1.4-3.1-3.1s1.4-3.1,3.1-3.1h50c1.7,0,3.1,1.4,3.1,3.1S139.3,153.5,137.6,153.5z "/>
    </g>
  </g>
  <path id="XMLID_275_" class="st11" d="M 225.409 219.898 L 211.611 219.898 L 211.611 226.852 L 225.409 226.852 C 223.724 258.133 198.655 283.097 167.477 284.782 L 167.477 270.984 L 160.525 270.984 L 160.525 284.782 C 129.242 283.097 104.28 258.028 102.593 226.852 L 116.394 226.852 L 116.394 219.898 L 102.593 219.898 C 104.28 188.615 129.348 163.653 160.525 161.967 L 160.525 175.767 L 167.477 175.767 L 167.477 161.967 C 198.655 163.442 223.724 188.51 225.409 219.898 Z M 172.427 137.954 L 172.427 145.22 C 166.635 144.695 161.052 144.695 155.259 145.22 L 155.259 137.954 C 149.465 137.954 150.625 139.112 150.625 124.681 C 150.625 123.734 151.362 122.786 152.521 122.786 L 175.166 122.786 C 176.115 122.786 177.062 123.523 177.062 124.681 C 176.957 138.901 178.222 137.954 172.427 137.954 Z M 163.896 214.631 C 165.054 214.631 166.002 214.843 167.055 215.16 L 187.804 194.409 C 189.07 193.146 191.386 193.146 192.651 194.409 C 193.915 195.673 193.915 197.99 192.651 199.254 L 171.902 220.003 C 174.112 225.587 170.004 231.59 163.896 231.59 C 152.627 231.907 152.627 214.631 163.896 214.631 Z M 163.896 147.853 C 205.606 147.853 239.312 181.56 239.312 223.27 C 239.312 264.979 205.606 298.685 163.896 298.685 C 122.186 298.685 88.481 264.769 88.481 223.27 C 88.481 181.56 122.186 147.853 163.896 147.853 Z" style=""/>
</svg>