<?xml version="1.0" encoding="UTF-8"?>
<svg width="20px" height="21px" viewBox="0 0 20 21" version="1.1" xmlns="http://www.w3.org/2000/svg" xmlns:xlink="http://www.w3.org/1999/xlink">
    <!-- Generator: Sketch 48.2 (47327) - http://www.bohemiancoding.com/sketch -->
    <title>Group</title>
    <desc>Created with Sketch.</desc>
    <defs></defs>
    <g id="Primary-Navigation/Default" stroke="none" stroke-width="1" fill="none" fill-rule="evenodd" transform="translate(-969.000000, -25.000000)">
        <g id="Group" transform="translate(968.970748, 25.000000)" fill="#5F6062" fill-rule="nonzero">
            <path d="M14.3822903,14.4170773 L19.0134683,19.1857807 C19.3020454,19.4829273 19.2950985,19.9577502 18.9979519,20.2463273 C18.7008053,20.5349045 18.2259824,20.5279576 17.9374052,20.230811 L13.2319851,15.3856608 C11.8908527,16.3204913 10.2553018,16.8693552 8.49069488,16.8693552 C3.9413246,16.8693552 0.250091977,13.2211713 0.250091977,8.71613038 C0.250091977,4.21108948 3.9413246,0.562905588 8.49069488,0.562905588 C13.0401388,0.562905588 16.7317577,4.21116175 16.7317577,8.71613038 C16.7317577,10.9357 15.835628,12.9473051 14.3822903,14.4170773 Z M15.2317577,8.71613038 C15.2317577,5.04358218 12.2156532,2.06290559 8.49069488,2.06290559 C4.76583837,2.06290559 1.75009198,5.04348106 1.75009198,8.71613038 C1.75009198,12.3887797 4.76583837,15.3693552 8.49069488,15.3693552 C12.2156532,15.3693552 15.2317577,12.3886786 15.2317577,8.71613038 Z" id="Search"></path>
        </g>
    </g>
</svg>