<?xml version="1.0" encoding="utf-8"?>
<!-- Generator: Adobe Illustrator 24.0.0, SVG Export Plug-In . SVG Version: 6.00 Build 0)  -->
<svg version="1.1" id="Layer_1" xmlns="http://www.w3.org/2000/svg" xmlns:xlink="http://www.w3.org/1999/xlink" x="0px" y="0px"
	 viewBox="0 0 172.6 58.5" style="enable-background:new 0 0 172.6 58.5;" xml:space="preserve">
<style type="text/css">
	.st0{fill:#77BE03;}
	.st1{fill:#BBBBBC;}
	.st2{fill:#FEFEFE;}
	.st3{fill:#67B102;}
	.st4{fill:#828184;}
</style>
<g>
	<g>
		<path class="st0" d="M23.1,56.6c-7.7,0.2-13.5-3.2-17.5-9.7c-1.8-3-2.6-6.4-2.6-9.9c0-3.6,0-7.2,0-10.8c0-1.9,0.4-2.4,2.3-2.8
			c0.2,0.1,0.4,0.1,0.6,0.1c0.3,0.8,1,0.5,1.5,0.5c4.5,0,9,0,13.5,0c1,0,1.4,0.3,1.3,1.3c-0.1,1.2-0.1,2.4,0,3.6
			c0.1,2.8-0.3,5.7,0.3,8.5c-1.8,2-1.8,2-3.7,0.2c-0.1-0.1-0.3-0.3-0.4-0.4c-1.1-0.8-1.9-2.6-3-2.5c-1.1,0.1-2,1.7-3.1,2.5
			c-0.8,0.6-0.6,1,0,1.6c2.3,2.1,4.7,4.2,6.9,6.5c0.9,1,1.7,1.3,2.6,0.2c0.3,0.6,0.3,1.2,0.3,1.8c0,2.7,0,5.3,0,7.9
			C22.2,56,22.3,56.5,23.1,56.6z"/>
		<path class="st1" d="M11.2,23.5c-1.8,0.1-3.5,0.1-5.3,0.1c-0.2-0.1-0.4-0.1-0.6-0.1c0.1-2.9-0.2-5.8,0.5-8.7
			c1.8-6.9,7.7-12,14.8-12.6c9.2-0.8,16.2,4.8,18.4,13c0.6,2.2,0.4,4.4,0.4,6.7c0,0.6,0,1.3,0.6,1.7c-0.1,0-0.2,0.1-0.3,0.1
			c-1.6-0.2-3.3-0.1-4.9,0c-0.4-0.1-0.8-0.1-1.2-0.1c0-1.5,0.1-3.1,0-4.7c-0.1-2.1-0.7-4.1-1.9-5.8c-2.5-3.7-6.1-5.2-10.5-4.9
			c-4.1,0.3-8.3,3.9-9.5,7.8C10.9,18.4,11.2,20.9,11.2,23.5z"/>
		<path class="st2" d="M22.5,37.6c2.5-2.3,5.1-4.6,7.6-7c0.9-0.9,1.4-0.9,2.2,0.1c0.2,0.3,0.6,0.6,0.8,0.8c1.9,1.8,1.9,1.8-0.1,3.7
			c-3.7,3.5-7.4,7-11.1,10.5c-1,1.1-1.7,0.8-2.6-0.2c-2.2-2.2-4.6-4.3-6.9-6.5c-0.6-0.6-0.8-1,0-1.6c1.1-0.8,2-2.4,3.1-2.5
			c1.1-0.1,2,1.6,3,2.5c0.1,0.1,0.3,0.3,0.4,0.4C20.7,39.5,20.7,39.5,22.5,37.6z"/>
		<path class="st3" d="M40.6,23.9c-0.2-0.1-0.4-0.2-0.6-0.3c-0.1,0-0.2,0.1-0.3,0.1c-0.4,0.1-0.8,0.1-1.2,0.1c0.4,0,0.8-0.1,1.2-0.1
			c-1.6-0.2-3.3-0.1-4.9,0c-0.4-0.1-0.8-0.1-1.2-0.1l0,0.1c-3.6-0.1-7.2-0.1-10.8,0c-0.2,0-0.4,0-0.6,0c-0.1,0.1-0.2,0.1-0.3,0
			c-3.5-0.1-7-0.1-10.5,0c-0.1,0.1-0.2,0.1-0.3,0l0-0.1c-1.8,0.1-3.5,0.1-5.3,0.1c0.3,0.8,1,0.5,1.5,0.5c4.5,0,9,0,13.5,0
			c1,0,1.4,0.3,1.3,1.3c-0.1,1.2-0.1,2.4,0,3.6c0.1,2.8-0.3,5.7,0.3,8.5c2.5-2.3,5.1-4.6,7.6-7c0.9-0.9,1.4-0.9,2.2,0.1
			c0.2,0.3,0.6,0.6,0.8,0.8c1.9,1.8,1.9,1.8-0.1,3.7c-3.7,3.5-7.4,7-11.1,10.5c0.3,0.6,0.3,1.2,0.3,1.8c0,2.7,0,5.3,0,7.9
			c0,0.7,0.1,1.1,0.8,1.3c5.5-0.1,10-2.3,13.7-6.4c2.8-3.1,4.6-6.7,4.8-10.9c0-0.1,0.1-0.2,0.1-0.3c0-4.6,0.1-9.1,0.1-13.7
			C41.7,24.7,41.4,24.1,40.6,23.9z M31.5,23.9c0.2,0,0.4,0,0.6,0C31.8,23.9,31.6,23.9,31.5,23.9z M32.7,23.9c0.1,0,0.2,0,0.3-0.1
			C32.9,23.8,32.8,23.9,32.7,23.9z"/>
		<path class="st0" d="M22,23.7c0.1,0,0.2,0,0.3,0C22.1,23.8,22,23.8,22,23.7z"/>
		<path class="st0" d="M11.1,23.6c0.1,0,0.2,0,0.3,0C11.3,23.8,11.2,23.7,11.1,23.6z"/>
	</g>
	<g>
		<path d="M64.5,18c-0.4-0.6-1.1-1-1.8-1.4c-0.7-0.4-1.4-0.5-2.1-0.5c-0.4,0-0.7,0-1.1,0.1c-0.4,0.1-0.7,0.2-1,0.4
			c-0.3,0.2-0.5,0.4-0.7,0.7c-0.2,0.3-0.3,0.6-0.3,1.1c0,0.4,0.1,0.7,0.2,0.9c0.1,0.2,0.4,0.5,0.7,0.6c0.3,0.2,0.6,0.4,1.1,0.5
			c0.4,0.1,0.9,0.3,1.4,0.5c0.7,0.2,1.5,0.5,2.3,0.8c0.8,0.3,1.5,0.7,2.2,1.2c0.6,0.5,1.2,1.1,1.6,1.8c0.4,0.7,0.6,1.6,0.6,2.7
			c0,1.3-0.2,2.3-0.7,3.2c-0.5,0.9-1.1,1.7-1.9,2.2c-0.8,0.6-1.7,1-2.7,1.3c-1,0.3-2,0.4-3.1,0.4c-1.5,0-3.1-0.3-4.5-0.8
			c-1.5-0.6-2.7-1.3-3.6-2.3l3.4-3.5c0.5,0.6,1.2,1.2,2.1,1.6s1.7,0.7,2.6,0.7c0.4,0,0.8,0,1.1-0.1c0.4-0.1,0.7-0.2,1-0.4
			c0.3-0.2,0.5-0.4,0.7-0.7c0.2-0.3,0.2-0.7,0.2-1.1c0-0.4-0.1-0.8-0.3-1.1c-0.2-0.3-0.5-0.6-0.9-0.8s-0.8-0.4-1.4-0.6
			c-0.6-0.2-1.2-0.4-1.9-0.6c-0.7-0.2-1.4-0.5-2-0.8c-0.7-0.3-1.3-0.7-1.8-1.2c-0.5-0.5-0.9-1.1-1.3-1.8c-0.3-0.7-0.5-1.5-0.5-2.5
			c0-1.2,0.2-2.2,0.7-3.1c0.5-0.8,1.1-1.6,1.9-2.1c0.8-0.6,1.7-1,2.7-1.2c1-0.3,2-0.4,3-0.4c1.2,0,2.5,0.2,3.8,0.7
			c1.3,0.4,2.4,1.1,3.4,2L64.5,18z"/>
		<path d="M71.1,34V12.4h14.6v4.4h-9.5v4.1h9v4.2h-9v4.5h10.1V34C86.2,34,71.1,34,71.1,34z"/>
		<path d="M105.2,33.7c-1.4,0.6-3,1-4.9,1c-1.7,0-3.2-0.3-4.6-0.8c-1.4-0.6-2.7-1.3-3.7-2.3c-1.1-1-1.9-2.2-2.5-3.6
			c-0.6-1.4-0.9-2.9-0.9-4.7c0-1.7,0.3-3.3,0.9-4.7c0.6-1.4,1.4-2.6,2.5-3.6c1.1-1,2.3-1.8,3.7-2.3c1.4-0.5,3-0.8,4.6-0.8
			c1.5,0,3,0.3,4.5,0.8c1.5,0.6,2.7,1.3,3.6,2.4l-3.6,3.5c-0.5-0.7-1.1-1.2-1.9-1.5c-0.8-0.3-1.6-0.5-2.5-0.5
			c-0.9,0-1.8,0.2-2.5,0.5c-0.8,0.4-1.4,0.8-2,1.4c-0.6,0.6-1,1.3-1.3,2.1c-0.3,0.8-0.5,1.7-0.5,2.7c0,1,0.1,1.9,0.5,2.7
			c0.3,0.8,0.7,1.5,1.3,2.1c0.6,0.6,1.2,1.1,2,1.4c0.8,0.3,1.6,0.5,2.5,0.5c1.1,0,2-0.2,2.7-0.6c0.8-0.4,1.4-0.9,1.9-1.6l3.6,3.4
			C107.8,32.1,106.6,33,105.2,33.7z"/>
		<path d="M128.8,29.4c-0.4,1.1-1.1,2-1.9,2.8c-0.8,0.8-1.8,1.4-2.9,1.8c-1.2,0.4-2.4,0.6-3.9,0.6c-1.4,0-2.7-0.2-3.9-0.6
			c-1.1-0.4-2.1-1-2.9-1.8c-0.8-0.8-1.4-1.7-1.8-2.8c-0.4-1.1-0.6-2.3-0.6-3.6V12.4h5.2v13.1c0,0.6,0.1,1.2,0.2,1.7s0.4,1,0.7,1.4
			c0.3,0.4,0.7,0.8,1.3,1c0.5,0.2,1.1,0.4,1.9,0.4c0.7,0,1.4-0.1,1.9-0.4c0.5-0.2,0.9-0.6,1.3-1c0.3-0.4,0.6-0.9,0.7-1.4
			s0.2-1.1,0.2-1.7V12.4h5.3v13.5C129.4,27.2,129.2,28.4,128.8,29.4z"/>
		<path d="M145.2,34l-4.7-8.6h-1.8V34h-5.1V12.4h8.3c1.1,0,2.1,0.1,3,0.3c1,0.2,1.9,0.6,2.7,1.1c0.8,0.5,1.4,1.2,1.9,2
			c0.5,0.8,0.7,1.9,0.7,3.1c0,1.5-0.4,2.7-1.2,3.7c-0.8,1-1.9,1.7-3.3,2.2l5.7,9.3H145.2z M145,19c0-0.5-0.1-0.9-0.3-1.3
			c-0.2-0.3-0.5-0.6-0.8-0.7c-0.4-0.2-0.7-0.3-1.1-0.4c-0.4-0.1-0.8-0.1-1.2-0.1h-2.8v5h2.5c0.4,0,0.9,0,1.3-0.1
			c0.4-0.1,0.9-0.2,1.2-0.4c0.4-0.2,0.7-0.4,0.9-0.8C144.9,20,145,19.6,145,19z"/>
		<path d="M154,34V12.4h14.6v4.4H159v4.1h9v4.2h-9v4.5h10.1V34C169.1,34,154,34,154,34z"/>
		<path class="st4" d="M57.1,43.4c-0.2-0.3-0.5-0.5-0.8-0.6c-0.4-0.2-0.7-0.3-1.1-0.3c-0.2,0-0.4,0-0.6,0.1
			c-0.2,0.1-0.4,0.1-0.6,0.2c-0.2,0.1-0.3,0.3-0.4,0.4c-0.1,0.2-0.2,0.4-0.2,0.6c0,0.2,0.1,0.4,0.1,0.6c0.1,0.2,0.2,0.3,0.4,0.4
			c0.2,0.1,0.4,0.2,0.6,0.3c0.2,0.1,0.5,0.2,0.8,0.3c0.3,0.1,0.7,0.2,1,0.4c0.4,0.1,0.7,0.3,1,0.5c0.3,0.2,0.5,0.5,0.7,0.8
			c0.2,0.3,0.3,0.8,0.3,1.3c0,0.6-0.1,1-0.3,1.4c-0.2,0.4-0.5,0.8-0.8,1c-0.3,0.3-0.7,0.5-1.2,0.6s-0.9,0.2-1.4,0.2
			c-0.7,0-1.3-0.1-1.9-0.4c-0.6-0.2-1.1-0.6-1.5-1.1l1.3-1.2c0.3,0.4,0.6,0.6,1,0.8c0.4,0.2,0.8,0.3,1.2,0.3c0.2,0,0.4,0,0.6-0.1
			c0.2-0.1,0.4-0.1,0.6-0.3c0.2-0.1,0.3-0.3,0.4-0.5c0.1-0.2,0.2-0.4,0.2-0.7c0-0.3-0.1-0.5-0.2-0.7c-0.1-0.2-0.3-0.3-0.5-0.5
			c-0.2-0.1-0.5-0.2-0.8-0.4c-0.3-0.1-0.6-0.2-0.9-0.3c-0.3-0.1-0.6-0.2-0.9-0.4c-0.3-0.1-0.6-0.3-0.8-0.5c-0.2-0.2-0.4-0.5-0.6-0.8
			c-0.1-0.3-0.2-0.7-0.2-1.2c0-0.5,0.1-1,0.3-1.3c0.2-0.4,0.5-0.7,0.8-0.9c0.4-0.2,0.8-0.4,1.2-0.6c0.4-0.1,0.9-0.2,1.4-0.2
			c0.5,0,1.1,0.1,1.6,0.3c0.5,0.2,1,0.5,1.4,0.8L57.1,43.4z"/>
		<path class="st4" d="M65.3,43.4c-0.2-0.3-0.5-0.5-0.8-0.6c-0.4-0.2-0.7-0.3-1.1-0.3c-0.2,0-0.4,0-0.6,0.1
			c-0.2,0.1-0.4,0.1-0.6,0.2c-0.2,0.1-0.3,0.3-0.4,0.4s-0.2,0.4-0.2,0.6c0,0.2,0.1,0.4,0.1,0.6c0.1,0.2,0.2,0.3,0.4,0.4
			c0.2,0.1,0.4,0.2,0.6,0.3c0.2,0.1,0.5,0.2,0.8,0.3c0.3,0.1,0.7,0.2,1,0.4c0.4,0.1,0.7,0.3,1,0.5c0.3,0.2,0.5,0.5,0.7,0.8
			s0.3,0.8,0.3,1.3c0,0.6-0.1,1-0.3,1.4c-0.2,0.4-0.5,0.8-0.8,1c-0.3,0.3-0.7,0.5-1.2,0.6c-0.4,0.1-0.9,0.2-1.4,0.2
			c-0.7,0-1.3-0.1-1.9-0.4c-0.6-0.2-1.1-0.6-1.5-1.1l1.3-1.2c0.3,0.4,0.6,0.6,1,0.8c0.4,0.2,0.8,0.3,1.2,0.3c0.2,0,0.4,0,0.6-0.1
			c0.2-0.1,0.4-0.1,0.6-0.3c0.2-0.1,0.3-0.3,0.4-0.5s0.2-0.4,0.2-0.7c0-0.3-0.1-0.5-0.2-0.7c-0.1-0.2-0.3-0.3-0.5-0.5
			c-0.2-0.1-0.5-0.2-0.8-0.4c-0.3-0.1-0.6-0.2-0.9-0.3c-0.3-0.1-0.6-0.2-0.9-0.4c-0.3-0.1-0.6-0.3-0.8-0.5c-0.2-0.2-0.4-0.5-0.6-0.8
			c-0.1-0.3-0.2-0.7-0.2-1.2c0-0.5,0.1-1,0.3-1.3c0.2-0.4,0.5-0.7,0.8-0.9c0.4-0.2,0.8-0.4,1.2-0.6c0.4-0.1,0.9-0.2,1.4-0.2
			c0.5,0,1.1,0.1,1.6,0.3c0.5,0.2,1,0.5,1.4,0.8L65.3,43.4z"/>
		<path class="st4" d="M68.4,41.3h1.8v8.6h4.3v1.6h-6.1V41.3z"/>
		<path class="st4" d="M79,41.3h6.7v1.6h-4.9v2.6h4.7V47h-4.7v2.9H86v1.6h-7V41.3z"/>
		<path class="st4" d="M87.8,41.3h2.4l4.7,7.6h0v-7.6h1.8v10.2h-2.3l-4.8-7.9h0v7.9h-1.8V41.3z"/>
		<path class="st4" d="M106.3,43.7c-0.3-0.4-0.6-0.6-1.1-0.8c-0.4-0.2-0.8-0.3-1.3-0.3c-0.5,0-1,0.1-1.4,0.3
			c-0.4,0.2-0.8,0.5-1.1,0.8c-0.3,0.4-0.6,0.7-0.7,1.2c-0.2,0.4-0.3,0.9-0.3,1.5c0,0.6,0.1,1.1,0.2,1.5c0.2,0.5,0.4,0.8,0.7,1.2
			c0.3,0.3,0.7,0.6,1.1,0.8c0.4,0.2,0.9,0.3,1.4,0.3c0.6,0,1-0.1,1.5-0.3c0.4-0.2,0.8-0.5,1-0.8l1.5,1c-0.4,0.6-1,1-1.7,1.3
			c-0.6,0.3-1.4,0.5-2.3,0.5c-0.8,0-1.5-0.1-2.2-0.4c-0.7-0.3-1.2-0.6-1.7-1.1c-0.5-0.5-0.8-1.1-1.1-1.7s-0.4-1.4-0.4-2.2
			s0.1-1.5,0.4-2.2c0.3-0.6,0.7-1.2,1.2-1.7c0.5-0.5,1.1-0.8,1.8-1.1c0.7-0.3,1.4-0.4,2.2-0.4c0.3,0,0.7,0,1,0.1
			c0.4,0.1,0.7,0.1,1,0.3c0.3,0.1,0.6,0.3,0.9,0.5c0.3,0.2,0.5,0.4,0.7,0.7L106.3,43.7z"/>
		<path class="st4" d="M109,41.3h3.5c0.5,0,0.9,0.1,1.4,0.1c0.4,0.1,0.8,0.3,1.2,0.5s0.6,0.5,0.8,0.9s0.3,0.8,0.3,1.4
			c0,0.7-0.2,1.3-0.6,1.8s-1,0.8-1.7,0.9l2.7,4.5h-2.2l-2.4-4.3h-1.3v4.3H109L109,41.3L109,41.3z M112.3,45.7c0.3,0,0.5,0,0.8-0.1
			c0.3,0,0.5-0.1,0.7-0.2c0.2-0.1,0.4-0.3,0.5-0.5c0.1-0.2,0.2-0.4,0.2-0.8c0-0.3-0.1-0.5-0.2-0.7c-0.1-0.2-0.3-0.3-0.5-0.4
			c-0.2-0.1-0.4-0.2-0.6-0.2c-0.2,0-0.5-0.1-0.7-0.1h-1.6v2.9H112.3z"/>
		<path class="st4" d="M120.4,47.1l-3.8-5.8h2.2l2.6,4.3l2.6-4.3h2.1l-3.8,5.8v4.4h-1.8L120.4,47.1L120.4,47.1z"/>
		<path class="st4" d="M126.9,41.3h3.3c0.6,0,1.1,0.1,1.6,0.1c0.5,0.1,0.9,0.3,1.2,0.5c0.3,0.2,0.6,0.6,0.8,0.9
			c0.2,0.4,0.3,0.8,0.3,1.3c0,0.6-0.1,1.1-0.3,1.4c-0.2,0.4-0.5,0.7-0.8,0.9c-0.4,0.2-0.8,0.4-1.3,0.5c-0.5,0.1-1,0.1-1.5,0.1h-1.4
			v4.2h-1.8V41.3z M129.9,45.7c0.3,0,0.6,0,0.8-0.1c0.3,0,0.5-0.1,0.7-0.2c0.2-0.1,0.4-0.3,0.5-0.5s0.2-0.4,0.2-0.8
			c0-0.3-0.1-0.5-0.2-0.7c-0.1-0.2-0.3-0.3-0.5-0.4s-0.4-0.2-0.7-0.2c-0.3,0-0.5-0.1-0.8-0.1h-1.3v2.9L129.9,45.7L129.9,45.7z"/>
		<path class="st4" d="M137.6,42.9h-3.1v-1.6h8.1v1.6h-3.1v8.6h-1.8L137.6,42.9L137.6,42.9z"/>
		<path class="st4" d="M143.7,41.3h1.8v10.2h-1.8V41.3z"/>
		<path class="st4" d="M147.3,46.4c0-0.8,0.1-1.5,0.4-2.2c0.3-0.6,0.6-1.2,1.1-1.7c0.5-0.5,1.1-0.8,1.7-1.1c0.7-0.3,1.4-0.4,2.2-0.4
			s1.5,0.1,2.2,0.4c0.7,0.3,1.3,0.6,1.8,1.1c0.5,0.5,0.9,1,1.1,1.7c0.3,0.7,0.4,1.4,0.4,2.2c0,0.8-0.1,1.5-0.4,2.2
			c-0.3,0.7-0.6,1.2-1.1,1.7c-0.5,0.5-1.1,0.8-1.8,1.1c-0.7,0.3-1.4,0.4-2.2,0.4s-1.5-0.1-2.2-0.4s-1.3-0.6-1.7-1.1
			c-0.5-0.5-0.9-1.1-1.1-1.7C147.4,47.9,147.3,47.1,147.3,46.4z M149.2,46.4c0,0.6,0.1,1.1,0.3,1.5c0.2,0.5,0.4,0.8,0.7,1.2
			c0.3,0.3,0.7,0.6,1.1,0.8c0.4,0.2,0.9,0.3,1.4,0.3s1-0.1,1.4-0.3c0.4-0.2,0.8-0.4,1.1-0.8c0.3-0.3,0.6-0.7,0.7-1.2
			c0.2-0.5,0.3-1,0.3-1.5c0-0.5-0.1-1-0.3-1.5c-0.2-0.4-0.4-0.8-0.7-1.2c-0.3-0.3-0.7-0.6-1.1-0.8c-0.4-0.2-0.9-0.3-1.4-0.3
			c-0.5,0-1,0.1-1.4,0.3c-0.4,0.2-0.8,0.5-1.1,0.8c-0.3,0.4-0.6,0.7-0.7,1.2C149.3,45.3,149.2,45.8,149.2,46.4z"/>
		<path class="st4" d="M160,41.3h2.4l4.7,7.6h0v-7.6h1.8v10.2h-2.3l-4.8-7.9h0v7.9H160V41.3z"/>
	</g>
</g>
</svg>
