<?xml version="1.0" encoding="UTF-8"?>
<svg width="32px" height="34px" viewBox="0 0 32 34" version="1.1" xmlns="http://www.w3.org/2000/svg" xmlns:xlink="http://www.w3.org/1999/xlink">
    <!-- Generator: Sketch 51.1 (57501) - http://www.bohemiancoding.com/sketch -->
    <title>Icon</title>
    <desc>Created with Sketch.</desc>
    <defs></defs>
    <g id="Symbols" stroke="none" stroke-width="1" fill="none" fill-rule="evenodd">
        <g id="Design-Tools/Menu/Color-Copy-8" transform="translate(-26.000000, -18.000000)" stroke="#8C8C8C" stroke-width="1.8">
            <g id="Icon" transform="translate(27.000000, 19.000000)">
                <path d="M19.5369891,15.5725964 C19.5369891,18.0631176 17.5184194,20.0816873 15.0278982,20.0816873 C12.537377,20.0816873 10.5188073,18.0631176 10.5188073,15.5725964 C10.5188073,13.0820752 12.537377,11.0635055 15.0278982,11.0635055 C17.5184194,11.0635055 19.5369891,13.0820752 19.5369891,15.5725964 L19.5369891,15.5725964 Z" id="Stroke-146"></path>
                <path d="M27.3200558,19.1822739 C27.7318861,17.9272436 27.9626012,16.5902982 27.9626012,15.1977406 C27.9626012,13.8014255 27.730383,12.4614739 27.3162982,11.2034376 L29.6354739,9.55160727 C29.9736558,9.31112242 30.0525648,8.84142545 29.8113285,8.50324364 L26.3235467,3.60637091 C26.0823103,3.26894061 25.6133648,3.19003152 25.275183,3.43051636 L22.8846133,5.07783758 C21.6919588,4.15948606 20.2911345,3.43878303 18.7881042,2.98561939 L18.7881042,0.751364848 C18.7881042,-0.00015030303 18.6077406,-0.00015030303 18.1929042,-0.00015030303 L12.180783,-0.00015030303 L11.2729527,0.751364848 L11.2729527,2.98561939 C9.76992242,3.45381333 8.43072242,4.20608 7.20875879,5.16952242 L4.70696485,3.39294061 C4.36728,3.1547103 3.91787394,3.23737697 3.68039515,3.57781333 L0.243716364,8.50399515 C0.00623757576,8.84443152 0.0941648485,9.31262545 0.433849697,9.55085576 L3.00252848,11.3454739 C2.61775273,12.5614255 2.40958303,13.854783 2.40958303,15.1977406 C2.40958303,16.6135952 2.65006788,17.971583 3.07542545,19.2446497 L0.737461818,20.9100073 C0.39928,21.1512436 0.320370909,21.6201891 0.561607273,21.9583709 L4.05014061,26.8552436 C4.29062545,27.1926739 4.75957091,27.271583 5.09775273,27.0310982 L7.37709818,25.3514618 C8.55923152,26.25328 9.76992242,26.9627103 11.2729527,27.4098618 L11.2729527,30.294177 C11.2729527,30.7090133 11.7651952,31.5634861 12.180783,31.5634861 L18.1929042,31.5634861 C18.6077406,31.5634861 18.7881042,30.7090133 18.7881042,30.294177 L18.7881042,27.4098618 C20.2911345,26.9559467 21.6979709,26.2329891 22.8936315,25.3116315 L25.0865527,26.8184194 C25.4269891,27.0566497 25.9147224,26.973983 26.1529527,26.6335467 L29.6084194,21.7066133 C29.8466497,21.3669285 29.7684921,20.897983 29.4280558,20.6605042 L27.3200558,19.1822739 L27.3200558,19.1822739 Z" id="Stroke-148" stroke-linejoin="round"></path>
            </g>
        </g>
    </g>
</svg>