<?xml version="1.0" encoding="utf-8"?>
<svg viewBox="72.307 91.899 252.494 183.78" width="252.494" height="183.78" style="enable-background:new 0 0 380 380;" xmlns="http://www.w3.org/2000/svg">
  <defs>
    <style type="text/css">
	.st0{display:none;}
	.st1{display:inline;}
	.st2{fill:#E21313;}
	.st3{fill:#E61737;}
</style>
  </defs>
  <g class="st0">
    <g class="st1">
      <g>
        <path class="st2" d="M153.5,196.56h-19.5c-6.98,0-12.66-5.68-12.66-12.66v-8.45h10.28v8.45c0,1.31,1.07,2.39,2.38,2.39h19.5 c1.31,0,2.38-1.07,2.38-2.38v-7.47h10.28v7.47C166.16,190.88,160.48,196.56,153.5,196.56z" style="fill: rgb(255, 255, 255);"/>
      </g>
    </g>
    <g class="st1">
      <path class="st2" d="M258.15,277.5H121.84c-6.58,0-11.93-5.35-11.93-11.93v-8.19h10.28v8.19c0,0.91,0.74,1.65,1.65,1.65h136.31 c0.91,0,1.65-0.74,1.65-1.65v-8.19h10.28v8.19C270.08,272.15,264.73,277.5,258.15,277.5z" style="fill: rgb(255, 255, 255);"/>
    </g>
    <g class="st1">
      <path class="st2" d="M263.45,260.3H116.43c-8.82,0-16-7.18-16-16v-12.59c0-8.82,7.18-16,16-16h90.1c0.14,0,0.26-0.08,0.31-0.2 c3.05-8.1,8.51-29.2-6.38-50.27l-19.75-0.06v5.34c0,6.91-5.62,12.53-12.52,12.53h-47.52c-6.91,0-12.52-5.62-12.52-12.53v-35.79 c0-15.01,12.21-27.22,27.22-27.22h99.32c16.29,0,30.35,11.47,34.99,28.54c6.75,24.79,10.26,63.24,9.88,108.28 C279.48,253.13,272.26,260.3,263.45,260.3z M116.43,225.98c-3.16,0-5.73,2.57-5.73,5.73v12.59c0,3.16,2.57,5.73,5.73,5.73h147.03 c3.18,0,5.8-2.6,5.82-5.79c0.36-43.48-3.11-81.93-9.52-105.5c-3.41-12.54-13.49-20.96-25.08-20.96h-99.32 c-9.34,0-16.95,7.6-16.95,16.95v35.79c0,1.24,1.01,2.25,2.25,2.25h47.52c1.24,0,2.25-1.01,2.25-2.25v-6.73 c0-4.9,3.99-8.89,8.89-8.89h20.91c3.44,0,6.67,1.65,8.61,4.41c17.73,25.09,11.23,50.19,7.61,59.82c-1.54,4.1-5.53,6.86-9.93,6.86 H116.43z" style="fill: rgb(255, 255, 255);"/>
    </g>
    <g class="st1">
      <rect x="138.61" y="192.5" class="st2" width="10.28" height="17.87" style="fill: rgb(255, 255, 255);"/>
    </g>
  </g>
  <g class="st0">
    <g class="st1">
      <path class="st2" d="M153.01,233.42c-10.22,0-18.53-8.31-18.53-18.53c0-10.22,8.31-18.53,18.53-18.53 c10.22,0,18.53,8.31,18.53,18.53C171.55,225.1,163.23,233.42,153.01,233.42z M153.01,201.18c-7.55,0-13.7,6.14-13.7,13.7 c0,7.55,6.14,13.7,13.7,13.7s13.7-6.14,13.7-13.7C166.71,207.33,160.57,201.18,153.01,201.18z" style="fill: rgb(255, 255, 255);"/>
    </g>
    <g class="st1">
      <path class="st2" d="M262.6,233.42c-10.22,0-18.53-8.31-18.53-18.53c0-10.22,8.31-18.53,18.53-18.53 c10.22,0,18.53,8.31,18.53,18.53C281.13,225.1,272.82,233.42,262.6,233.42z M262.6,201.18c-7.55,0-13.7,6.14-13.7,13.7 c0,7.55,6.14,13.7,13.7,13.7c7.55,0,13.7-6.14,13.7-13.7C276.3,207.33,270.16,201.18,262.6,201.18z" style="fill: rgb(255, 255, 255);"/>
    </g>
    <g class="st1">
      <ellipse transform="matrix(0.9716 -0.2367 0.2367 0.9716 -43.3957 68.2546)" class="st2" cx="262.6" cy="214.88" rx="6.45" ry="6.45" style="fill: rgb(255, 255, 255);"/>
    </g>
    <g class="st1">
      <ellipse transform="matrix(0.8702 -0.4927 0.4927 0.8702 -86.0112 103.2801)" class="st2" cx="153.01" cy="214.88" rx="6.45" ry="6.45" style="fill: rgb(255, 255, 255);"/>
    </g>
    <g class="st1">
      <path class="st2" d="M288.39,214.08c-1.33,0-2.42-1.08-2.42-2.42c0-1.33,1.08-2.42,2.42-2.42c2.22,0,4.03-1.81,4.03-4.03v-32.58 c0-1.3-0.45-2.57-1.27-3.57l-24.77-30.28c-1.08-1.31-2.67-2.07-4.37-2.07h-26v72.52h0.81c1.33,0,2.42,1.08,2.42,2.42 c0,1.33-1.08,2.42-2.42,2.42h-3.22c-1.33,0-2.42-1.08-2.42-2.42V134.3c0-1.33,1.08-2.42,2.42-2.42h28.41 c3.15,0,6.11,1.4,8.11,3.84L294.88,166c1.53,1.86,2.37,4.22,2.37,6.63v32.58C297.25,210.1,293.28,214.08,288.39,214.08z" style="fill: rgb(255, 255, 255);"/>
    </g>
    <g class="st1">
      <path class="st2" d="M280.81,175.4h-34.33c-1.33,0-2.42-1.08-2.42-2.42v-25.79c0-1.33,1.08-2.42,2.42-2.42h13.21 c0.72,0,1.41,0.32,1.87,0.88l21.11,25.79c0.59,0.72,0.71,1.72,0.31,2.57C282.6,174.86,281.75,175.4,280.81,175.4z M248.9,170.56 h26.81l-17.16-20.95h-9.65V170.56z" style="fill: rgb(255, 255, 255);"/>
    </g>
    <g class="st1">
      <path class="st2" d="M294.83,201.18h-12.89c-1.33,0-2.42-1.08-2.42-2.42v-12.89c0-1.33,1.08-2.42,2.42-2.42h12.89 c1.33,0,2.42,1.08,2.42,2.42c0,1.33-1.08,2.42-2.42,2.42h-10.48v8.06h10.48c1.33,0,2.42,1.08,2.42,2.42 S296.17,201.18,294.83,201.18z" style="fill: rgb(255, 255, 255);"/>
    </g>
    <g class="st1">
      <path class="st2" d="M233.59,214.08h-51.57c-1.33,0-2.42-1.08-2.42-2.42c0-1.33,1.08-2.42,2.42-2.42h51.57 c1.33,0,2.42,1.08,2.42,2.42C236.01,212.99,234.93,214.08,233.59,214.08z" style="fill: rgb(255, 255, 255);"/>
    </g>
    <g class="st1">
      <path class="st2" d="M124,214.08h-6.45c-1.33,0-2.42-1.08-2.42-2.42v-38.68c0-1.33,1.08-2.42,2.42-2.42s2.42,1.08,2.42,2.42v36.26 H124c1.33,0,2.42,1.08,2.42,2.42C126.42,212.99,125.34,214.08,124,214.08z" style="fill: rgb(255, 255, 255);"/>
    </g>
    <g class="st1">
      <path class="st2" d="M233.59,136.72c-1.33,0-2.42-1.08-2.42-2.42v-10.48h-111.2v7.25c0,1.33-1.08,2.42-2.42,2.42 s-2.42-1.08-2.42-2.42v-9.67c0-1.33,1.08-2.42,2.42-2.42h116.04c1.33,0,2.42,1.08,2.42,2.42v12.89 C236.01,135.64,234.93,136.72,233.59,136.72z" style="fill: rgb(255, 255, 255);"/>
    </g>
    <g class="st1">
      <path class="st2" d="M175.57,191.51c-0.62,0-1.24-0.24-1.71-0.71l-22.56-22.56c-0.94-0.94-0.94-2.47,0-3.42l9.67-9.67 c0.94-0.94,2.47-0.94,3.42,0l11.18,11.18l24.08-24.08c0.94-0.94,2.47-0.94,3.42,0l9.67,9.67c0.94,0.94,0.94,2.47,0,3.42 l-35.46,35.46C176.81,191.28,176.19,191.51,175.57,191.51z M156.43,166.53l19.14,19.14l32.04-32.04l-6.25-6.25l-24.08,24.08 c-0.94,0.94-2.47,0.94-3.42,0l-11.18-11.18L156.43,166.53z" style="fill: rgb(255, 255, 255);"/>
    </g>
    <g class="st1">
      <path class="st2" d="M140.12,162.5h-38.68c-1.33,0-2.42-1.08-2.42-2.42c0-1.33,1.08-2.42,2.42-2.42h38.68 c1.33,0,2.42,1.08,2.42,2.42C142.54,161.42,141.45,162.5,140.12,162.5z" style="fill: rgb(255, 255, 255);"/>
    </g>
    <g class="st1">
      <path class="st2" d="M149.79,146.39h-38.68c-1.33,0-2.42-1.08-2.42-2.42s1.08-2.42,2.42-2.42h38.68c1.33,0,2.42,1.08,2.42,2.42 S151.12,146.39,149.79,146.39z" style="fill: rgb(255, 255, 255);"/>
    </g>
  </g>
  <g>
    <path class="st3" d="M268.78,186.4c-8.53,0-15.46,6.09-15.46,13.57c0,7.48,6.94,13.57,15.46,13.57c8.52,0,15.46-6.09,15.46-13.57 C284.24,192.48,277.3,186.4,268.78,186.4z M268.78,209.01c-5.68,0-10.31-4.06-10.31-9.04c0-4.99,4.62-9.05,10.31-9.05 c5.68,0,10.3,4.06,10.3,9.05C279.09,204.95,274.46,209.01,268.78,209.01z M314.61,119.99c-0.26-4.68-1.73-8.27-4.5-10.85 c-4.83-4.53-11.94-4.53-16.65-4.53l-10.65-0.1v-7.14c0-1.25-1.15-2.26-2.58-2.26c-1.42,0-2.57,1.01-2.57,2.26v7.09l-24.07-0.22 c-1.81-0.02-3.67-0.04-5.55-0.05c0.59-0.74,0.94-1.63,0.94-2.6c0-2.5-2.31-4.52-5.15-4.52h-35.38c-2.85,0-5.15,2.02-5.15,4.52 c0,0.79,0.25,1.53,0.66,2.17c-21.97-0.2-43.47-0.39-58.2-0.47v-5.62c0-1.75-1.61-3.17-3.61-3.17c-1.99,0-3.61,1.42-3.61,3.17v5.59 c-2-0.01-3.78-0.01-5.32-0.01c-30.86,0-45.86,9.62-45.86,29.4c0,35.53,7.84,51.39,8.18,52.05c0.83,1.63,2.67,2.68,4.7,2.68h29.37 v13.57H89.92c-1.47,0-3.68,0.42-5.83,2.39c-5.48,5.05-8.9,19.71-8.59,25.41c0.34,6.29,2.49,38.05,2.58,39.4 c0.16,2.39,2.41,4.26,5.14,4.26h227.75c2.84,0,5.15-2.03,5.15-4.52c0-27.77-1.66-47.05-3.01-62.54 c-0.88-10.11-1.63-18.83-1.63-27.02c0-5.16,0.56-15.23,0.67-15.23c3.17,0.11,5.85-1.82,5.99-4.32l1.91-34.07 C320.22,122.21,317.76,120.1,314.61,119.99z M91.16,209.99h16.87c-0.26,0.51-0.41,1.07-0.41,1.66c0,2.25,2.08,4.07,4.64,4.07h44.66 c2.56,0,4.64-1.82,4.64-4.07c0-0.59-0.15-1.15-0.41-1.66h45.76c3.2,0,11.34,0,16.15-4.9c-0.08,1.63-0.52,8.42-0.52,9.88 c0,4.72-1.11,6.19-2.2,7.01c-2.05,1.55-6.51,2.34-13.26,2.34l-120.92-0.29C87.03,218.73,89.41,212.09,91.16,209.99z M134.76,200.94 v-13.57h14.43c2.19,0,4.14-1.21,4.86-3.03l7.74-19.48c1.52-3.87,3.28-4.18,5.43-4.18h37.1c3.18,0,5.67,1,7.46,5.91 c1.6,4.37,5.41,25.81,4.47,30.38c-0.36,1.77-0.81,3.97-9.35,3.97H134.76z M88.09,263.36c-0.49-7.27-1.48-22.1-2-30.29l120.98,0.29 c9.67,0,15.83-1.39,19.97-4.52c5.13-3.87,5.79-9.45,5.79-13.87c0-1.21,0.11-2.9,0.23-4.85c0.6-9.29,0.58-18.85-1.31-28.04 c-1.7-8.3-6.05-18.61-12.66-24.92c-3.44-3.28-7.05-5.52-14.78-5.52c-7.73,0-37.1,0-37.1,0c-7.4,0-12.5,3.46-15.18,10.29 l-6.52,16.39h-41.66c-2.02-5.63-6.21-20.33-6.21-45.68c0-10.57,4.31-20.35,35.56-20.35c19.77,0,80.24,0.6,120.26,0.99l39.99,0.37 c3.87,0,7.48,0.13,9.13,1.67c1.4,1.31,1.99,4.07,1.7,7.99c0,0-3.1,38.32-3.1,55.02c0,8.53,0.77,17.42,1.66,27.7 c1.25,14.48,2.79,32.31,2.96,57.33H88.09z M268.78,161.59c10.51,0,19.06-7.51,19.06-16.73c0-9.23-8.55-16.74-19.06-16.74 c-10.51,0-19.07,7.51-19.07,16.74C249.72,154.09,258.27,161.59,268.78,161.59z M268.78,135.36c5.97,0,10.82,4.26,10.82,9.5 c0,5.24-4.85,9.49-10.82,9.49c-5.97,0-10.82-4.26-10.82-9.49C257.96,139.62,262.81,135.36,268.78,135.36z M268.78,175.84 c-15.16,0-27.48,10.82-27.48,24.12c0,13.3,12.33,24.12,27.48,24.12c15.15,0,27.48-10.82,27.48-24.12 C296.26,186.66,283.93,175.84,268.78,175.84z M268.78,216.85c-10.61,0-19.24-7.57-19.24-16.89c0-9.31,8.63-16.89,19.24-16.89 c10.61,0,19.24,7.57,19.24,16.89C288.02,209.28,279.39,216.85,268.78,216.85z" style="fill: rgb(255, 255, 255);"/>
  </g>
</svg>