<svg width="24" height="24" viewBox="0 0 24 24" fill="none" xmlns="http://www.w3.org/2000/svg">
<path fill-rule="evenodd" clip-rule="evenodd" d="M2.1 2.25H7.95C8.69558 2.25 9.3 2.85442 9.3 3.6L9.30365 3.73007C9.3691 4.89256 10.3058 5.82792 11.4493 5.87836L11.5816 5.88158H13.3184C14.5405 5.88158 15.5445 4.91816 15.5968 3.73224L15.6003 3.57048C15.6164 2.83657 16.2159 2.25 16.95 2.25H22.35C23.0956 2.25 23.7 2.85442 23.7 3.6V9.95526C23.7 10.7009 23.0955 11.3054 22.3498 11.3053L20.5485 11.304L20.55 20.8499C20.55 21.5582 20.0046 22.1392 19.3107 22.1955L19.2 22.2H5.25C4.50445 22.2 3.90005 21.5956 3.9 20.8501L3.89925 11.304L2.10022 11.3053C1.39183 11.3054 0.810808 10.7599 0.754476 10.066L0.75 9.95526V3.6C0.75 2.85442 1.35442 2.25 2.1 2.25ZM11.4198 7.22803C9.48922 7.1434 7.95 5.55145 7.95 3.59999H2.1V9.95525L5.24925 9.95474L5.25 20.85H19.2L19.1993 9.95474L22.35 9.95525V3.59999H16.95L16.9465 3.76175C16.8618 5.69235 15.2699 7.23157 13.3184 7.23157H11.5816L11.4198 7.22803Z" fill="#8C8C8C"/>
<mask id="mask0" mask-type="alpha" maskUnits="userSpaceOnUse" x="0" y="2" width="24" height="21">
<path fill-rule="evenodd" clip-rule="evenodd" d="M2.1 2.25H7.95C8.69558 2.25 9.3 2.85442 9.3 3.6L9.30365 3.73007C9.3691 4.89256 10.3058 5.82792 11.4493 5.87836L11.5816 5.88158H13.3184C14.5405 5.88158 15.5445 4.91816 15.5968 3.73224L15.6003 3.57048C15.6164 2.83657 16.2159 2.25 16.95 2.25H22.35C23.0956 2.25 23.7 2.85442 23.7 3.6V9.95526C23.7 10.7009 23.0955 11.3054 22.3498 11.3053L20.5485 11.304L20.55 20.8499C20.55 21.5582 20.0046 22.1392 19.3107 22.1955L19.2 22.2H5.25C4.50445 22.2 3.90005 21.5956 3.9 20.8501L3.89925 11.304L2.10022 11.3053C1.39183 11.3054 0.810808 10.7599 0.754476 10.066L0.75 9.95526V3.6C0.75 2.85442 1.35442 2.25 2.1 2.25ZM11.4198 7.22803C9.48922 7.1434 7.95 5.55145 7.95 3.59999H2.1V9.95525L5.24925 9.95474L5.25 20.85H19.2L19.1993 9.95474L22.35 9.95525V3.59999H16.95L16.9465 3.76175C16.8618 5.69235 15.2699 7.23157 13.3184 7.23157H11.5816L11.4198 7.22803Z" fill="white"/>
</mask>
<g mask="url(#mask0)">
<rect width="24" height="24" fill="#8C8C8C"/>
</g>
</svg>
