<?xml version="1.0" encoding="utf-8"?>
<!-- Generator: Adobe Illustrator 22.0.1, SVG Export Plug-In . SVG Version: 6.00 Build 0)  -->
<!DOCTYPE svg PUBLIC "-//W3C//DTD SVG 1.1//EN" "http://www.w3.org/Graphics/SVG/1.1/DTD/svg11.dtd">
<svg version="1.1" id="Layer_1" xmlns="http://www.w3.org/2000/svg" xmlns:xlink="http://www.w3.org/1999/xlink" x="0px" y="0px"
	 width="93.9px" height="37.1px" viewBox="0 0 93.9 37.1" style="enable-background:new 0 0 93.9 37.1;" xml:space="preserve">
<g>
	<path d="M3.4,10.9c-0.8,1.7-1.4,3.2-1.4,3.3c-0.1,0.3,0,0.5,0.3,0.6l1.1,0.5v-1.1l-0.3-0.1c0.1-0.2,0.2-0.5,0.3-0.8V10.9z"/>
	<path d="M4.8,5.2l1.9,0.7C5.7,4.8,4.8,3,4.3,1.6C3.8,3,2.9,4.8,1.9,5.9l1.9-0.7V29l-1.9-0.7c1,1.1,1.9,2.9,2.4,4.3
		c0.5-1.4,1.4-3.2,2.4-4.3L4.8,29V5.2z"/>
	<rect x="1.7" y="26.2" width="1.6" height="0.3"/>
	<rect x="1.7" y="24.8" width="1.6" height="0.3"/>
	<rect x="0.6" y="23.5" width="2.6" height="0.3"/>
	<rect x="1.7" y="22.1" width="1.6" height="0.3"/>
	<rect x="1.7" y="20.8" width="1.6" height="0.3"/>
	<rect x="0.6" y="19.4" width="2.6" height="0.3"/>
	<rect x="1.7" y="18.1" width="1.6" height="0.3"/>
	<rect x="1.7" y="16.7" width="1.6" height="0.3"/>
	<path d="M34.7,21.4c-0.2-0.1-0.4-0.3-0.7-0.3S33.4,21,33.2,21h-0.8v3.9h0.8c0.3,0,0.6,0,0.8-0.1c0.3-0.1,0.5-0.2,0.7-0.3
		c0.2-0.2,0.4-0.4,0.5-0.6c0.1-0.3,0.2-0.6,0.2-0.9c0-0.4-0.1-0.7-0.2-0.9C35.1,21.7,34.9,21.5,34.7,21.4z"/>
	<path d="M42.9,21.4c-0.2-0.2-0.4-0.3-0.6-0.4c-0.2-0.1-0.5-0.2-0.8-0.2s-0.5,0.1-0.8,0.2c-0.2,0.1-0.4,0.2-0.6,0.4
		c-0.2,0.2-0.3,0.4-0.4,0.7c-0.1,0.3-0.1,0.5-0.1,0.8c0,0.3,0,0.6,0.1,0.8c0.1,0.3,0.2,0.5,0.4,0.7c0.2,0.2,0.4,0.3,0.6,0.4
		c0.2,0.1,0.5,0.2,0.8,0.2s0.5-0.1,0.8-0.2c0.2-0.1,0.4-0.2,0.6-0.4c0.2-0.2,0.3-0.4,0.4-0.7c0.1-0.3,0.1-0.5,0.1-0.8
		c0-0.3,0-0.6-0.1-0.8C43.2,21.8,43,21.6,42.9,21.4z"/>
	<path d="M78.9,13.2c0.3-0.2,0.4-0.5,0.4-0.9c0-0.2,0-0.4-0.1-0.6c-0.1-0.2-0.2-0.3-0.3-0.4c-0.1-0.1-0.3-0.2-0.5-0.2
		c-0.2,0-0.4-0.1-0.7-0.1h-1.2v2.4h1.2C78.2,13.5,78.6,13.4,78.9,13.2z"/>
	<polygon points="71.5,11.2 70.1,14.8 73,14.8 	"/>
	<path d="M73,21.4c-0.2-0.2-0.4-0.3-0.6-0.4c-0.2-0.1-0.5-0.2-0.8-0.2S71,20.9,70.8,21c-0.2,0.1-0.4,0.2-0.6,0.4
		c-0.2,0.2-0.3,0.4-0.4,0.7c-0.1,0.3-0.1,0.5-0.1,0.8c0,0.3,0,0.6,0.1,0.8c0.1,0.3,0.2,0.5,0.4,0.7c0.2,0.2,0.4,0.3,0.6,0.4
		c0.2,0.1,0.5,0.2,0.8,0.2s0.5-0.1,0.8-0.2c0.2-0.1,0.4-0.2,0.6-0.4c0.2-0.2,0.3-0.4,0.4-0.7c0.1-0.3,0.1-0.5,0.1-0.8
		c0-0.3,0-0.6-0.1-0.8C73.3,21.8,73.1,21.6,73,21.4z"/>
	<path d="M87,21.4c-0.2-0.1-0.4-0.3-0.7-0.3C86,21,85.8,21,85.5,21h-0.8v3.9h0.8c0.3,0,0.6,0,0.8-0.1c0.3-0.1,0.5-0.2,0.7-0.3
		c0.2-0.2,0.4-0.4,0.5-0.6c0.1-0.3,0.2-0.6,0.2-0.9c0-0.4-0.1-0.7-0.2-0.9C87.4,21.7,87.2,21.5,87,21.4z"/>
	<path d="M30.1,7.4c-1-1.3-2.2-2.2-3.6-2.2h0c-1.7-0.3-4.2-1.1-4.2-2.1c0-0.6-0.1-1.3-0.6-1.6c-0.5-0.2-1,0.3-1.1,0.4
		c0,0-0.6,0.7-2.6,0.7c0,0-0.1,0-0.1,0c0,0-0.1,0-0.1,0c-2,0-2.6-0.6-2.6-0.7c-0.1-0.1-0.6-0.6-1.1-0.4c-0.6,0.2-0.6,1-0.6,1.6
		c0,1-2.5,1.8-4.1,2.1C7.7,5.2,6.3,6.4,5.2,8v1.8c1.2-1.9,2.6-3.6,4.2-3.6c0.6-0.1,2.9-0.5,4.1-1.5c0.1,0.2,0.3,0.4,0.8,0.7
		C13.2,6,10.2,8,10,11.5c-0.1,0-0.2,0.1-0.2,0.2l-2.2,4.2l-2.4-1V16l2.4,1c0.2,0.1,0.5,0,0.6-0.2l1.5-2.8l0,20.1c0,0,0,0,0,0
		c0,0.1,0,0.1,0,0.2c0,0,0,0,0,0.1c0,0,0.1,0.1,0.1,0.1c0,0,0,0,0,0c0,0,0,0,0,0c0,0,0,0,0.1,0c0.2,0.1,3.4,1.4,7.9,1.4
		c2.3,0,5-0.4,7.8-1.4c0,0,0,0,0.1,0c0,0,0,0,0,0c0,0,0,0,0,0c0,0,0.1-0.1,0.1-0.1c0,0,0,0,0,0c0-0.1,0.1-0.1,0.1-0.2c0,0,0,0,0,0
		l0-4.3H93V7.4H30.1z M75.8,10.5h2c0.3,0,0.6,0,0.9,0.1c0.3,0.1,0.5,0.2,0.7,0.3c0.2,0.1,0.4,0.3,0.5,0.6c0.1,0.2,0.2,0.5,0.2,0.8
		c0,0.2,0,0.5-0.1,0.7c-0.1,0.2-0.2,0.4-0.4,0.5c-0.2,0.1-0.3,0.3-0.5,0.4S78.6,14,78.3,14l2,3.2h-0.8l-1.9-3.1h-1.1v3.1h-0.7V10.5z
		 M71.2,10.5h0.7l2.9,6.7H74l-0.7-1.8h-3.5l-0.7,1.8h-0.8L71.2,10.5z M49.5,10.5H54v1.4h-3v1.3h2.8v1.3H51v1.4h3.1v1.4h-4.7V10.5z
		 M43.1,15.8l3.2-4h-3.1v-1.4h5.2v1.3l-3.3,4h3.3v1.4h-5.3V15.8z M40.4,10.5H42v6.7h-1.6V10.5z M18.1,3.6c2.2,0,3-0.8,3.2-1
		c0,0.1,0,0.3,0,0.5c0,0.5,0.2,0.9,0.5,1.2c0,0,0,0,0,0s-0.5,1.1-3.7,1.2V3.6z M13.9,4.3C13.9,4.3,13.9,4.3,13.9,4.3
		c0.3-0.4,0.5-0.8,0.5-1.2c0-0.2,0-0.4,0-0.5c0.2,0.2,1.1,0.9,3.2,1v1.9C14.4,5.4,13.9,4.3,13.9,4.3z M10.7,11.9
		c0-0.2-0.1-0.3-0.2-0.4c0.2-3.7,3.9-5.7,4.4-5.9c0.6,0.2,1.5,0.4,2.7,0.4v6.6h-3.2l0.7-1.9c-1.1,1-2.9,1.9-4.3,2.4
		c1.4,0.5,3.2,1.4,4.3,2.4l-0.7-1.9h3.2v18c-2,0.1-5.4,1.2-6.9,1.8L10.7,11.9z M11.7,34.1c1.7-0.6,4.6-1.5,6.1-1.5
		c1.5,0,4.4,0.9,6.1,1.5C18.6,35.7,13.9,34.7,11.7,34.1z M25,33.4c-1.5-0.5-4.9-1.7-6.9-1.8v-18h3.2l-0.7,1.9c1.1-1,2.9-1.9,4.3-2.4
		c-1.4-0.5-3.2-1.4-4.3-2.4l0.7,1.9h-3.2V6c1.2,0,2.1-0.2,2.7-0.4c0.3,0.1,1.4,0.7,2.4,1.8c1,1,1.9,2.4,2,4.1
		c-0.1,0.1-0.2,0.2-0.2,0.4l0,17.8L25,33.4z M26,11.7c0-0.1-0.1-0.2-0.2-0.2c-0.1-1.7-0.9-3.1-1.8-4.1c-0.9-1-2-1.7-2.5-2.1
		c0.5-0.3,0.7-0.5,0.8-0.7c1.3,1,3.6,1.4,4.2,1.5c0.8,0,1.6,0.5,2.3,1.2c1.7,1.7,3.2,4.9,3.9,6.7l-4.4,1.8L26,11.7z M36.7,24.4
		c-0.2,0.4-0.5,0.8-0.9,1.1c-0.4,0.3-0.8,0.5-1.2,0.6c-0.5,0.1-0.9,0.2-1.4,0.2h-2.5v-6.7h2.4c0.5,0,0.9,0.1,1.4,0.2
		c0.5,0.1,0.9,0.3,1.2,0.6c0.4,0.3,0.7,0.6,0.9,1c0.2,0.4,0.3,1,0.3,1.6C37.1,23.5,36.9,24,36.7,24.4z M36.7,17.4
		c-0.5,0-0.9-0.1-1.4-0.3c-0.5-0.2-0.8-0.4-1.1-0.7l1.1-1.1c0.2,0.2,0.4,0.4,0.7,0.5c0.3,0.1,0.5,0.2,0.8,0.2c0.1,0,0.2,0,0.4,0
		c0.1,0,0.2-0.1,0.3-0.1c0.1-0.1,0.2-0.1,0.2-0.2c0.1-0.1,0.1-0.2,0.1-0.3c0-0.1,0-0.2-0.1-0.3s-0.2-0.2-0.3-0.2
		c-0.1-0.1-0.3-0.1-0.4-0.2c-0.2-0.1-0.4-0.1-0.6-0.2c-0.2-0.1-0.4-0.2-0.6-0.2c-0.2-0.1-0.4-0.2-0.6-0.4c-0.2-0.1-0.3-0.3-0.4-0.5
		c-0.1-0.2-0.1-0.5-0.1-0.8c0-0.4,0.1-0.7,0.2-1c0.2-0.3,0.4-0.5,0.6-0.7c0.2-0.2,0.5-0.3,0.8-0.4c0.3-0.1,0.6-0.1,0.9-0.1
		c0.4,0,0.8,0.1,1.2,0.2c0.4,0.1,0.7,0.3,1,0.6l-1,1.1c-0.1-0.2-0.3-0.3-0.5-0.4c-0.2-0.1-0.4-0.2-0.7-0.2c-0.1,0-0.2,0-0.3,0
		c-0.1,0-0.2,0.1-0.3,0.1c-0.1,0.1-0.2,0.1-0.2,0.2c-0.1,0.1-0.1,0.2-0.1,0.3c0,0.1,0,0.2,0.1,0.3c0,0.1,0.1,0.1,0.2,0.2
		c0.1,0.1,0.2,0.1,0.3,0.2c0.1,0,0.3,0.1,0.4,0.1c0.2,0.1,0.5,0.2,0.7,0.3c0.2,0.1,0.5,0.2,0.7,0.4c0.2,0.2,0.4,0.3,0.5,0.6
		c0.1,0.2,0.2,0.5,0.2,0.8c0,0.4-0.1,0.7-0.2,1c-0.1,0.3-0.3,0.5-0.6,0.7c-0.2,0.2-0.5,0.3-0.8,0.4C37.4,17.3,37.1,17.4,36.7,17.4z
		 M44.9,24.4c-0.2,0.4-0.4,0.8-0.8,1.1c-0.3,0.3-0.7,0.6-1.2,0.7c-0.5,0.2-0.9,0.3-1.5,0.3c-0.5,0-1-0.1-1.5-0.3
		c-0.4-0.2-0.8-0.4-1.2-0.7c-0.3-0.3-0.6-0.7-0.8-1.1c-0.2-0.4-0.3-0.9-0.3-1.5c0-0.5,0.1-1,0.3-1.5c0.2-0.4,0.4-0.8,0.8-1.1
		c0.3-0.3,0.7-0.5,1.2-0.7c0.4-0.2,0.9-0.2,1.5-0.2c0.5,0,1,0.1,1.5,0.2c0.5,0.2,0.8,0.4,1.2,0.7s0.6,0.7,0.8,1.1
		c0.2,0.4,0.3,0.9,0.3,1.5C45.2,23.4,45.1,23.9,44.9,24.4z M53.4,26.3h-1.6l-1.3-4.6h0l-1.3,4.6h-1.6l-1.9-6.7h1.8l1.1,4.5h0
		l1.2-4.5h1.7l1.2,4.5h0l1.1-4.5h1.7L53.4,26.3z M55.1,13.8c0-0.5,0.1-1,0.3-1.4c0.2-0.4,0.4-0.8,0.7-1.1c0.3-0.3,0.7-0.6,1.1-0.7
		c0.4-0.2,0.9-0.3,1.4-0.3c0.2,0,0.5,0,0.7,0.1c0.2,0.1,0.5,0.1,0.7,0.2c0.2,0.1,0.4,0.2,0.6,0.3c0.2,0.1,0.3,0.3,0.4,0.4l-0.6,0.4
		c-0.1-0.1-0.2-0.2-0.3-0.3c-0.1-0.1-0.3-0.2-0.4-0.3c-0.2-0.1-0.3-0.1-0.5-0.2c-0.2-0.1-0.4-0.1-0.6-0.1c-0.4,0-0.8,0.1-1.2,0.2
		c-0.3,0.2-0.6,0.4-0.9,0.6c-0.2,0.3-0.4,0.6-0.6,0.9c-0.1,0.4-0.2,0.7-0.2,1.1c0,0.4,0.1,0.8,0.2,1.1c0.1,0.4,0.3,0.7,0.6,0.9
		c0.2,0.3,0.5,0.5,0.9,0.6c0.3,0.2,0.7,0.2,1.2,0.2c0.4,0,0.8-0.1,1.1-0.2c0.3-0.2,0.6-0.4,0.9-0.8l0.5,0.3
		c-0.1,0.2-0.3,0.3-0.4,0.5c-0.2,0.2-0.3,0.3-0.6,0.4c-0.2,0.1-0.4,0.2-0.7,0.3c-0.3,0.1-0.5,0.1-0.8,0.1c-0.5,0-1-0.1-1.4-0.3
		c-0.4-0.2-0.8-0.4-1.1-0.7c-0.3-0.3-0.6-0.7-0.7-1.1C55.2,14.8,55.1,14.4,55.1,13.8z M62.1,26.3h-1.8l-2.7-4.4h0l0,4.4H56v-6.7h1.9
		l2.7,4.4h0l0-4.4h1.6V26.3z M63,17.2h-0.7v-6.7H63v2.9h3.7v-2.9h0.7v6.7h-0.7V14H63V17.2z M67.7,26.3h-4.2v-6.7h1.6v5.3h2.6V26.3z
		 M75,24.4c-0.2,0.4-0.4,0.8-0.8,1.1c-0.3,0.3-0.7,0.6-1.2,0.7c-0.5,0.2-0.9,0.3-1.5,0.3c-0.5,0-1-0.1-1.5-0.3
		c-0.4-0.2-0.8-0.4-1.2-0.7c-0.3-0.3-0.6-0.7-0.8-1.1c-0.2-0.4-0.3-0.9-0.3-1.5c0-0.5,0.1-1,0.3-1.5c0.2-0.4,0.4-0.8,0.8-1.1
		s0.7-0.5,1.2-0.7c0.4-0.2,0.9-0.2,1.5-0.2c0.5,0,1,0.1,1.5,0.2c0.5,0.2,0.8,0.4,1.2,0.7s0.6,0.7,0.8,1.1c0.2,0.4,0.3,0.9,0.3,1.5
		C75.2,23.4,75.1,23.9,75,24.4z M80.7,26.3L80.2,25h-2.6l-0.5,1.3h-1.8l2.8-6.7h1.6l2.8,6.7H80.7z M80.6,11.1v-0.6h5.2v0.6h-2.3v6.1
		h-0.7v-6.1H80.6z M89,24.4c-0.2,0.4-0.5,0.8-0.9,1.1c-0.4,0.3-0.8,0.5-1.2,0.6c-0.5,0.1-0.9,0.2-1.4,0.2h-2.5v-6.7h2.4
		c0.5,0,0.9,0.1,1.4,0.2c0.5,0.1,0.9,0.3,1.2,0.6c0.4,0.3,0.7,0.6,0.9,1c0.2,0.4,0.3,1,0.3,1.6C89.4,23.5,89.3,24,89,24.4z"/>
	<polygon points="78,23.7 79.7,23.7 78.9,21.4 	"/>
</g>
</svg>
