<?xml version="1.0" encoding="UTF-8"?>
<svg width="300px" height="292px" viewBox="0 0 300 292" version="1.1" xmlns="http://www.w3.org/2000/svg" xmlns:xlink="http://www.w3.org/1999/xlink">
    <!-- Generator: sketchtool 51.2 (57519) - http://www.bohemiancoding.com/sketch -->
    <title>4CED6867-E723-4A72-9D61-CEBF27F42445</title>
    <desc>Created with sketchtool.</desc>
    <defs>
        <rect id="path-1" x="0" y="0" width="300" height="292"></rect>
        <polygon id="path-3" points="0 0.114587578 227.635066 0.114587578 227.635066 819.101862 0 819.101862"></polygon>
        <polygon id="path-5" points="0 819.101862 227.636206 819.101862 227.636206 0.109673854 0 0.109673854"></polygon>
    </defs>
    <g id="Informational-Pages" stroke="none" stroke-width="1" fill="none" fill-rule="evenodd">
        <g id="9.2-Fit&amp;Sizing" transform="translate(-34.000000, -3382.000000)">
            <g id="Group-7" transform="translate(32.000000, 3265.000000)">
                <g id="Page-1" transform="translate(2.000000, 117.000000)">
                    <mask id="mask-2" fill="white">
                        <use xlink:href="#path-1"></use>
                    </mask>
                    <use id="Mask" fill="#F1F4F5" xlink:href="#path-1"></use>
                    <g mask="url(#mask-2)">
                        <g transform="translate(36.000000, -81.000000)">
                            <g id="Group-12" transform="translate(6.000000, 0.000000)">
                                <path d="M79.2163628,110.654896 C79.2163628,110.654896 82.7183134,126.826623 108.127078,125.928939 C133.656081,125.026222 135.332742,111.404923 135.332742,111.404923 C135.332742,111.404923 138.453937,119.695492 152.740627,126.350096 C172.02724,135.331965 203.067181,138.224687 209.013985,163.933673 C214.959118,189.642659 213.917049,215.693939 213.913709,229.306848 C213.9087,242.919758 215.61375,244.231886 213.289136,245.101045 C210.967863,245.971882 192.980495,251.921762 187.329278,251.096229 C181.678062,250.272373 181.81667,251.836188 181.81667,251.836188 C181.81667,251.836188 178.950982,227.291674 177.281001,225.194283 C175.61102,223.096892 167.364652,254.557764 166.634871,260.744229 C165.903419,266.932373 172.680203,325.186163 176.858496,338.5843 C181.038459,351.980758 182.780249,359.531368 181.230507,359.427337 C179.680764,359.321629 148.994859,347.960478 106.233319,348.582984 C56.0954725,349.309521 32.4134686,359.429015 32.4134686,359.429015 C32.4134686,359.429015 50.6363038,286.310593 48.6573761,270.462703 C46.6801183,254.616491 37.0142669,224.445934 37.0142669,224.445934 C37.0142669,224.445934 34.2921975,244.852714 33.3302883,249.626377 C32.7057153,252.72716 1.77098283,247.691743 0.675475141,244.580892 C-0.76905863,240.485106 2.70951229,204.482123 1.18982936,187.134178 C-0.328183583,169.787912 6.12963386,145.815566 32.822614,136.655838 C67.270987,124.833262 69.5622012,124.519492 79.2163628,110.654896" id="Fill-1" fill="#DCDCDC"></path>
                                <path d="M188.107656,467.821032 L188.107656,451.632525 C188.072587,451.635881 188.037517,451.640915 188.004118,451.642593 C187.040538,451.699642 185.661134,451.637559 184.841173,450.657658 C183.642127,449.226398 184.21159,446.672614 185.243639,442.038218 C185.873222,439.212612 186.658113,435.695706 187.311075,431.282794 C187.972388,426.821223 187.903919,423.243912 187.843799,420.08608 C187.7937,417.428265 187.75195,415.198319 188.172786,413.184823 C188.192825,411.923032 188.394893,395.543244 186.414295,383.40522 C184.642445,372.539054 181.937076,361.862493 181.200614,359.036887 C179.716001,358.828826 177.702003,358.301961 174.976594,357.58717 C171.245856,356.605591 166.603308,355.387426 160.785093,354.311883 C146.658722,351.697695 110.610507,349.77984 106.81297,349.637217 C103.394518,349.766416 68.8409363,351.67756 54.4273283,354.311883 C48.7276823,355.353867 44.0901444,356.570354 40.3627463,357.548578 C37.5772176,358.281826 35.5248106,358.818758 34.0168176,359.026819 C33.2836958,361.839002 30.5733162,372.530665 28.7981262,383.40522 C26.7473892,395.977823 27.0596757,410.996824 27.0630157,411.14448 L26.9928765,411.147836 C27.0195962,411.209919 27.0563358,411.278714 27.0797155,411.340796 C28.0766943,413.832497 28.0232549,416.590987 27.9564556,420.08608 C27.8946663,423.243912 27.8261971,426.821223 28.4875097,431.282794 C29.1421423,435.695706 29.9253635,439.212612 30.5549465,442.038218 C31.5869949,446.672614 32.1564585,449.226398 30.9574119,450.657658 C30.1374511,451.637559 28.7580466,451.699642 27.7961374,451.642593 C27.57069,451.632525 27.3385626,451.604001 27.1064352,451.567087 L27.1064352,466.992143 C27.2366937,467.156578 27.3619423,467.31598 27.4671511,467.458603 C29.1237725,469.735531 30.416338,474.567921 28.7396768,476.334763 C28.4657999,476.621686 27.9965352,476.952235 27.2717633,476.952235 C27.2417037,476.952235 27.2016241,476.943846 27.1698945,476.943846 C28.4307303,493.179334 30.9089825,523.212302 31.7022236,526.088245 C32.4036157,528.623572 32.8010712,528.714179 45.8820343,529.282991 C48.2684374,529.385344 51.0556361,529.507832 54.3187795,529.667234 C73.3632455,530.596797 84.2865928,528.479271 86.1486219,528.07825 C86.3022602,527.707431 86.8416641,526.155361 86.8416641,521.487407 C86.8416641,514.517355 88.8573314,501.674608 92.1171348,493.083693 C95.4654472,484.24948 101.687797,452.812098 102.083583,448.629061 C102.223861,447.155853 102.800005,446.001449 103.795314,445.199406 C105.156348,444.105407 106.913169,444.0148 107.72144,444.039968 C108.459571,444.011444 110.092813,444.085272 111.397068,445.127256 C112.402397,445.929299 112.98522,447.107194 113.130509,448.629061 C113.526294,452.812098 119.746974,484.24948 123.096957,493.083693 C126.35509,501.674608 128.370758,514.517355 128.370758,521.487407 C128.370758,526.016094 128.880102,527.61179 129.093859,528.084961 C131.042728,528.50444 141.952715,530.596797 160.895312,529.667234 C164.158455,529.507832 166.945654,529.385344 169.332057,529.282991 C182.41302,528.714179 182.810476,528.623572 183.511868,526.088245 C184.306779,523.210624 186.788371,493.12564 188.049207,476.896864 C187.588292,476.794511 187.267656,476.551214 187.058908,476.334763 C185.460736,474.650138 186.566264,470.205346 188.107656,467.821032" id="Fill-3" fill="#8B8B8B"></path>
                                <path d="M129.720269,527.357418 C132.562577,527.926231 143.138569,529.694751 160.8554,528.830626 C164.120213,528.669546 166.909082,528.548737 169.295485,528.443028 C182.14933,527.885961 182.17939,527.771863 182.707104,525.862398 C183.370087,523.461304 185.474263,499.213781 187.167624,477.45628 C186.908777,477.317014 186.66997,477.135799 186.459552,476.91767 C184.510684,474.863905 185.681341,470.194272 187.272833,467.578406 L187.272833,452.49061 C186.332633,452.45873 185.065118,452.228856 184.201737,451.198617 C182.737164,449.448554 183.336687,446.753825 184.428855,441.86103 C185.058438,439.032069 185.838319,435.53362 186.486272,431.1593 C187.135894,426.768201 187.069095,423.226127 187.008976,420.10353 C186.957206,417.430614 186.913787,415.125162 187.356332,413.014347 C187.349652,412.465669 187.581779,395.751976 185.591162,383.541802 C183.92786,373.350157 181.447938,363.338049 180.531119,359.780873 C179.073225,359.527509 177.219546,359.040914 174.766343,358.398273 C171.072345,357.426761 166.478226,356.216986 160.633292,355.13641 C146.637179,352.545712 110.447016,350.614434 106.783077,350.476845 C103.570033,350.597655 68.8995527,352.520543 54.5777936,355.13641 C48.9065373,356.17336 44.2873692,357.386491 40.5733309,358.359681 C38.161878,358.993932 36.19965,359.510729 34.686647,359.770806 C33.7698273,363.331338 31.2865652,373.348479 29.6232639,383.541802 C27.5908968,395.995274 27.8948333,410.975682 27.8981733,411.126695 L27.8981733,411.13844 C28.9118519,413.752629 28.8600825,416.554744 28.7899433,420.090107 C28.729824,423.226127 28.6630247,426.768201 29.3126474,431.1593 C29.9622701,435.53362 30.7404814,439.032069 31.3667243,441.842573 C32.462232,446.753825 33.0617553,449.448554 31.5971817,451.198617 C30.4949941,452.515779 28.7181341,452.525846 27.9415928,452.49061 L27.9415928,466.700857 C28.011732,466.791464 28.0785313,466.878716 28.1386506,466.962611 C29.9806399,469.491227 31.400124,474.748129 29.346047,476.914314 C29.0705001,477.19956 28.6513348,477.525075 28.0651714,477.686155 C29.7551924,499.368149 31.844339,523.461304 32.5056515,525.862398 C33.0350356,527.771863 33.0650953,527.885961 45.9172709,528.443028 C48.305344,528.548737 51.0942127,528.669546 54.359026,528.830626 C72.070847,529.691396 82.6485082,527.924553 85.5091861,527.354062 C85.7095838,526.62417 86.0068405,524.952969 86.0068405,521.488078 C86.0068405,514.440843 88.0442176,501.462184 91.3374206,492.785695 C94.6690332,483.996786 100.857984,452.712095 101.252099,448.547514 C101.415757,446.842754 102.09377,445.49539 103.271107,444.545691 C104.817509,443.302358 106.744667,443.186582 107.746656,443.201683 C108.625066,443.164769 110.423636,443.278867 111.916599,444.470185 C113.105626,445.419884 113.793658,446.790739 113.960656,448.547514 C114.356442,452.712095 120.545392,483.996786 123.877005,492.785695 C127.170208,501.462184 129.205915,514.440843 129.205915,521.488078 C129.205915,525.011696 129.514862,526.654373 129.720269,527.357418 M151.511855,530.743447 C138.253873,530.743447 130.56528,529.260172 128.920348,528.906132 L128.506193,528.817203 L128.334185,528.431283 C128.035258,527.771863 127.535934,525.993275 127.535934,521.488078 C127.535934,514.590177 125.540306,501.881663 122.317243,493.381354 C118.95056,484.501838 112.696481,452.910089 112.297355,448.708594 C112.175446,447.421635 111.697832,446.438377 110.877871,445.783991 C109.769004,444.896375 108.33282,444.851072 107.755006,444.879596 C107.078664,444.857783 105.485502,444.914832 104.316515,445.854464 C103.504904,446.507172 103.033969,447.470294 102.915401,448.708594 C102.517945,452.910089 96.2638652,484.501838 92.8955131,493.381354 C89.6741193,501.881663 87.6768217,514.590177 87.6768217,521.488078 C87.6768217,525.911057 87.202547,527.71817 86.9203202,528.40108 L86.7533221,528.805457 L86.3241369,528.89942 C84.3218294,529.328966 73.3700924,531.436425 54.2771969,530.505183 C51.0157236,530.344104 48.2301949,530.223294 45.8454617,530.120941 C32.8429877,529.557162 31.7825497,529.508503 30.8974596,526.312078 C29.8904609,522.655906 26.4820292,478.870761 26.3384108,477.008278 L26.2632617,476.058579 L27.211811,476.10556 C27.5959067,476.125695 27.9065232,475.996496 28.1386506,475.753199 C29.352727,474.472951 28.3807979,470.135545 26.7926457,467.954258 C26.6957868,467.821703 26.5772181,467.670691 26.4536395,467.516323 L26.2716116,467.286449 L26.2716116,450.589535 L27.2335208,450.738869 C27.4372585,450.769071 27.6409962,450.795918 27.838054,450.805985 C29.0554703,450.871424 29.8720911,450.651617 30.3196461,450.118041 C31.2514956,449.005585 30.682032,446.453479 29.7418326,442.226815 C29.1055697,439.371007 28.3190086,435.842356 27.6627059,431.404275 C26.9897035,426.875588 27.0598427,423.261363 27.119962,420.07165 C27.1867613,416.665486 27.2368607,413.985859 26.3050112,411.653559 L25.8674761,410.557882 L26.2181722,410.477342 C26.1864425,407.374881 26.1664028,394.345885 27.9749924,383.26998 C29.7418326,372.43905 32.4271624,361.812826 33.2087136,358.814395 L33.3489921,358.27243 L33.9017559,358.196923 C35.3813592,357.992218 37.4872056,357.436829 40.1508256,356.737139 C43.8915836,355.75556 48.5474913,354.534039 54.2771969,353.485343 C68.690805,350.852697 103.494884,348.921419 106.783077,348.798932 C110.522165,348.938199 146.847597,350.879544 160.935559,353.485343 C166.842282,354.577665 171.4698,355.79583 175.188849,356.775731 C177.907578,357.488844 179.874816,358.003963 181.31601,358.205313 L181.868773,358.282497 L182.009052,358.824463 C182.788933,361.821216 185.472593,372.442406 187.237763,383.26998 C189.253431,395.627811 189.019633,412.487482 189.007943,413.198917 C188.587108,415.284563 188.628858,417.501087 188.678957,420.069972 C188.739076,423.261363 188.809216,426.875588 188.136213,431.404275 C187.47991,435.842356 186.693349,439.371007 186.060426,442.208358 C185.116887,446.453479 184.547423,449.005585 185.480943,450.118041 C185.925158,450.651617 186.731759,450.873102 187.955855,450.805985 L188.837605,450.755648 L188.942814,451.631519 L188.942814,468.070034 L188.807546,468.278095 C187.336292,470.553346 186.502971,474.533356 187.663608,475.756554 C187.820587,475.919312 188.012634,476.030054 188.231402,476.077036 L188.937804,476.236438 L188.881025,476.962974 C188.518639,481.635962 185.305595,522.728056 184.315296,526.312078 C183.431876,529.508503 182.369768,529.557162 169.367294,530.120941 C166.982561,530.223294 164.198702,530.344104 160.935559,530.505183 C157.535477,530.672975 154.390902,530.743447 151.511855,530.743447" id="Fill-5" fill="#8B8B8B"></path>
                            </g>
                            <g id="Group-27">
                                <g id="Group-15">
                                    <mask id="mask-4" fill="white">
                                        <use xlink:href="#path-3"></use>
                                    </mask>
                                    <g id="Clip-14"></g>
                                    <path d="M225.560735,359.068615 C225.321,368.819739 225.133235,376.521702 225.490324,380.794422 C225.978176,386.650128 225.513794,390.230291 224.973971,394.373891 C224.596765,397.286651 224.204471,400.298349 224.088794,404.455363 C223.916118,410.730291 222.8415,420.516631 221.803765,429.97933 C221.173412,435.726038 220.578265,441.154136 220.180941,445.770619 C219.483529,453.868328 217.991471,460.034259 215.981382,463.133154 C215.468382,463.924647 214.730735,465.13704 213.860647,466.565752 C211.354324,470.675813 205.490029,480.29614 203.937618,480.644934 C203.386059,480.576181 203.203324,480.329678 203.111118,480.150251 C202.935088,479.79978 202.526029,478.350946 204.702088,474.48068 C207.070941,470.268328 212.187529,461.749719 212.692147,460.914627 C213.242029,460.357899 213.684618,459.92023 213.864,459.760925 C214.075235,459.648574 214.2345,459.449024 214.289824,459.20252 L218.201029,441.551559 L216.564794,441.189351 L212.713941,458.568655 C212.241176,458.977817 211.471676,459.759248 210.065118,461.18796 C206.336647,464.976058 199.397735,472.027388 196.105147,474.209024 C195.499941,474.611478 194.763971,474.945179 194.499088,474.670169 C193.716176,473.850169 194.339824,470.103993 195.915706,467.952541 C197.992853,465.11524 205.863882,457.70841 205.944353,457.63295 C206.053324,457.53066 206.132118,457.399862 206.175706,457.255649 C206.264559,456.943747 208.375235,449.562071 208.618324,443.325711 C208.856382,437.107797 207.1095,426.055404 207.035735,425.587551 C206.977059,425.225343 206.690382,424.941948 206.326588,424.889964 C205.949382,424.844688 205.607382,425.029146 205.449794,425.361171 L204.614912,427.106815 C202.767441,430.950251 202.076735,432.389024 201.290471,437.719862 C200.182324,445.240721 197.714559,449.307183 194.152059,449.478226 C193.209882,449.516795 192.596294,449.392705 192.341471,449.089187 C191.672559,448.294341 192.272735,445.618022 193.100912,441.915445 C193.737971,439.066406 194.530941,435.518103 195.1965,431.049187 C195.8805,426.454504 195.806735,422.644606 195.748059,419.582602 C195.684353,416.280803 195.634059,413.673236 196.5075,411.499985 C198.287912,407.066283 202.339941,401.556017 205.565471,398.061375 C209.471647,393.828901 208.710529,375.691641 203.939294,359.248042 C197.9895,338.753073 192.799147,303.756345 192.227471,299.832418 C190.385029,287.17524 189.525,254.901784 189.449559,251.905179 C189.721147,251.911887 190.031294,251.916917 190.415206,251.916917 C193.203176,251.916917 198.814324,251.673768 205.206706,250.067306 C212.943618,248.123788 217.843941,246.711846 219.914382,246.096426 C219.384618,251.299821 219.532147,266.162111 220.182618,272.509146 C220.360324,274.258144 220.752618,276.084279 221.248853,278.396713 C222.536382,284.408369 224.484441,293.492091 225.488647,313.130169 C226.295029,328.983502 225.887647,345.66522 225.560735,359.068615 Z M184.758794,577.936508 C185.206412,583.087919 185.954118,588.764197 186.747088,594.774177 C188.981824,611.72252 191.513294,630.932991 189.370765,651.139535 C188.259265,661.625138 186.088235,674.740107 183.769676,687.482807 C181.920529,688.002643 174.860912,689.825424 166.874206,689.825424 C158.706441,689.825424 149.408735,687.056876 147.272912,686.384443 C146.719676,683.20841 146.159735,680.235281 145.616559,677.636099 C142.263618,661.556386 141.914912,628.078921 144.925853,611.298267 C147.294706,598.097776 143.244353,588.16387 139.988647,580.180189 C139.157118,578.141089 138.370853,576.210987 137.772353,574.413359 C135.292853,566.976345 134.939118,537.240026 134.888824,529.219453 C136.860353,529.64203 144.411176,531.048942 157.430647,531.048942 C160.374529,531.048942 163.601735,530.976835 167.102206,530.804116 C170.374676,530.643134 173.169353,530.522398 175.561676,530.420107 C183.462882,530.076345 187.141059,529.913686 189.053912,529.098717 C187.422706,538.091887 183.410912,562.450414 184.758794,577.936508 Z M179.167765,711.780966 C177.150971,722.204525 175.694118,729.737122 175.536529,732.081416 C175.207941,737.013154 176.146765,747.121457 176.602765,751.575281 C175.789676,750.111355 173.298441,745.917449 170.775353,744.656426 C167.620235,743.080148 160.330941,742.390946 154.837147,745.199739 C152.366029,746.462439 150.498441,748.099085 149.108647,749.683747 C149.150559,745.468042 150.488382,735.658226 151.628382,729.955118 C152.694618,724.627633 150.297265,704.28023 147.589765,688.239085 C150.778412,689.203298 159.179206,691.502316 166.874206,691.502316 C174.275824,691.502316 180.755382,690.021621 183.437735,689.312296 C181.980882,697.2507 180.483794,704.984525 179.167765,711.780966 Z M183.313676,759.718267 C184.787294,761.252623 187.526647,769.088737 187.276853,771.049024 L187.253382,771.225097 C186.331324,778.410578 186.765529,784.593277 188.547618,789.602152 C190.281088,794.478553 194.916529,810.767878 181.699235,815.644279 C173.662235,818.609024 163.326794,817.832623 156.562235,813.759453 C153.983824,812.208328 150.788471,809.453195 150.208412,805.14023 C149.630029,800.837326 149.569676,796.737326 149.516029,793.118594 C149.427176,787.232705 149.358441,782.584361 147.093529,780.1143 C144.077559,776.824238 144.635824,759.778635 147.174,755.96706 C147.214235,755.910046 147.244412,755.846324 147.267882,755.780925 C147.289676,755.722234 149.430529,749.843052 155.601618,746.692173 C158.047588,745.442889 160.932794,744.961621 163.559824,744.961621 C166.230441,744.961621 168.632824,745.459657 170.025971,746.157244 C172.114853,747.201948 174.616147,751.362316 175.405765,752.879903 C175.462765,752.990578 175.544912,753.087837 175.647176,753.163298 C175.695794,753.200189 180.602824,756.894381 183.313676,759.718267 Z M201.204971,448.441907 C199.959353,449.595608 197.526794,451.383175 196.014618,452.466447 L196.014618,450.804647 C198.740559,449.843788 201.671029,446.64931 202.951853,437.966365 C203.649265,433.227469 204.227647,431.800435 205.775029,428.564034 C206.194147,431.612623 206.804382,436.643298 206.931794,440.691314 C206.428853,441.621989 204.133765,445.725343 201.204971,448.441907 Z M206.075118,450.251273 C205.412912,451.158471 201.355853,456.470864 196.014618,458.635731 L196.014618,454.52567 C197.147912,453.727469 200.671853,451.220516 202.343294,449.671069 C204.209206,447.942193 205.796824,445.750496 206.898265,444.035036 C206.7675,446.10432 206.445618,448.284279 206.075118,450.251273 Z M196.014618,460.34113 L196.048147,460.431682 C200.019706,459.008001 203.295529,456.01475 205.329088,453.791191 C205.010559,455.141089 204.740647,456.152255 204.624971,456.573154 C203.6325,457.50886 198.807618,462.093482 196.014618,465.215854 L196.014618,460.34113 Z M129.074824,492.567633 C125.711824,483.738799 119.466971,452.31888 119.069647,448.13839 C118.923794,446.619126 118.338706,445.441948 117.329471,444.638717 C116.011765,443.592336 114.362118,443.523584 113.6295,443.553768 C112.809706,443.531968 111.056118,443.625874 109.698176,444.7125 C108.699,445.514054 108.120618,446.666079 107.979794,448.13839 C107.582471,452.31888 101.335941,483.738799 97.9746176,492.567633 C94.7021471,501.153318 92.6786471,513.988246 92.6786471,520.954054 C92.6786471,525.61749 92.1371471,527.170291 91.9829118,527.540884 C90.1136471,527.941662 79.1478529,530.061253 60.0293824,529.130578 C56.7535588,528.969596 53.9555294,528.847183 51.5598529,528.744893 C38.4280588,528.176426 38.0290588,528.085874 37.3249412,525.550414 C36.5286176,522.677899 34.0407353,492.664893 32.775,476.434259 C32.8068529,476.435936 32.8454118,476.44432 32.8772647,476.44432 C33.6048529,476.44432 34.0759412,476.115649 34.3492059,475.828901 C36.0323824,474.063134 34.7347941,469.232009 33.0717353,466.959821 C32.9661176,466.815608 32.8403824,466.656304 32.7112941,466.495322 L32.7112941,451.076304 C32.9443235,451.114872 33.1756765,451.140026 33.402,451.151764 C34.3760294,451.205424 35.7524118,451.14841 36.5772353,450.167428 C37.7809412,448.738717 37.2092647,446.184811 36.1732059,441.551559 C35.5411765,438.727674 34.7549118,435.212909 34.0977353,430.802684 C33.4338529,426.345506 33.5025882,422.768696 33.5646176,419.612786 C33.6316765,416.121498 33.6853235,413.363011 32.6844706,410.874504 C32.6593235,410.810782 32.6241176,410.74203 32.5972941,410.679985 L32.6677059,410.678308 C32.6643529,410.529064 32.3508529,395.519208 34.4095588,382.955936 C36.0608824,372.889555 38.5169118,362.980803 39.4540588,359.338594 C39.6066176,359.373809 39.7608529,359.400639 39.9385588,359.400639 C40.9293529,359.400639 42.3677647,358.899248 44.6729118,358.097694 C48.0308824,356.927224 53.1072353,355.158103 60.1383529,353.880312 C73.7747647,351.400189 107.627735,349.397981 112.727559,349.210169 C116.538176,349.352705 152.726471,351.269392 166.909412,353.880312 C174.124941,355.20841 179.189559,356.977531 182.540824,358.146324 C184.772206,358.924402 186.163676,359.4107 187.129324,359.4107 C187.302,359.4107 187.451206,359.382193 187.597059,359.352009 C188.537559,363.002602 190.990235,372.896263 192.638206,382.955936 C194.6265,395.08657 194.421971,411.449678 194.403529,412.715731 C193.981059,414.728001 194.021294,416.958267 194.071588,419.614463 C194.131941,422.770373 194.200676,426.345506 193.538471,430.802684 C192.882971,435.211232 192.095029,438.725997 191.463,441.551559 C190.426941,446.184811 189.855265,448.738717 191.058971,450.167428 C191.882118,451.14841 193.266882,451.205424 194.232529,451.151764 C194.267735,451.150087 194.302941,451.143379 194.338147,451.141702 L194.338147,467.32203 C192.790765,469.704893 191.680941,474.146979 193.285324,475.828901 C193.494882,476.046897 193.816765,476.286692 194.277794,476.39066 C193.013735,492.609555 190.5225,522.674545 189.7245,525.550414 C189.020382,528.085874 188.621382,528.176426 175.489588,528.744893 C173.093912,528.847183 170.295882,528.969596 167.020059,529.130578 C148.002176,530.056222 137.051471,527.966815 135.095029,527.547592 C134.880441,527.073032 134.369118,525.478308 134.369118,520.954054 C134.369118,513.988246 132.345618,501.153318 129.074824,492.567633 Z M88.7758235,574.408328 C88.1857059,576.147265 87.4229118,578.006938 86.6148529,579.977285 C83.3256176,588.001212 79.2316765,597.990455 81.6206471,611.298267 C84.6315882,628.078921 84.2828824,661.556386 80.9299412,677.636099 C80.3834118,680.248696 79.8201176,683.238594 79.2652059,686.43475 C77.2551176,687.160844 69.3522353,689.825424 61.3487647,689.825424 C53.2815882,689.825424 44.7349412,688.133441 42.5521765,687.672296 C40.3191176,675.321989 38.2503529,662.711764 37.1757353,652.564893 C35.0332059,632.360026 37.5646765,613.149555 39.7994118,596.199535 C40.5923824,590.189555 41.3400882,584.513277 41.7877059,579.361866 C43.2093529,563.020557 39.4188529,536.790619 38.2335882,529.19933 C40.2084706,529.930455 43.9084412,530.091437 51.4877647,530.420107 C53.8800882,530.522398 56.6747647,530.643134 59.9472353,530.804116 C63.4493824,530.976835 66.6732353,531.048942 69.6171176,531.048942 C81.6793235,531.048942 89.0440588,529.84158 91.6308529,529.328451 C91.6207941,535.417244 91.4347059,566.602398 88.7758235,574.408328 Z M74.9181176,729.955118 C76.0128529,735.431846 77.3070882,745.15614 77.4227647,749.670332 C76.038,748.089024 74.1720882,746.459085 71.7093529,745.199739 C66.2105294,742.392623 58.9212353,743.081825 55.7711471,744.656426 C53.0183824,746.033154 50.2807059,750.936386 49.7442353,751.935813 C49.7341765,751.944197 49.7090294,751.962643 49.6989706,751.971028 C50.2337647,747.834136 51.3368824,738.441866 51.0099706,733.508451 C50.8523824,731.164156 49.3955294,723.629882 47.3787353,713.206324 C45.9922941,706.04432 44.403,697.835936 42.8740588,689.451478 C45.8531471,690.053482 53.7945882,691.502316 61.3487647,691.502316 C68.8090588,691.502316 75.9726176,689.345833 78.9416471,688.329637 C76.2408529,704.35569 73.8535588,724.637694 74.9181176,729.955118 Z M79.3725,755.96706 C81.909,759.778635 82.4672647,776.824238 79.4529706,780.1143 C77.1880588,782.584361 77.1193235,787.232705 77.0304706,793.118594 C76.9768235,796.737326 76.9164706,800.837326 76.3380882,805.14023 C75.7580294,809.453195 72.5626765,812.208328 69.9842647,813.759453 C63.2213824,817.832623 52.8842647,818.6107 44.8472647,815.644279 C31.6299706,810.767878 36.2654118,794.478553 37.9988824,789.602152 C39.7809706,784.593277 40.2151765,778.410578 39.2931176,771.225097 L39.2696471,771.049024 C39.0181765,769.088737 41.7592059,761.252623 43.2328235,759.718267 C45.942,756.894381 50.8507059,753.200189 50.8993235,753.164974 C51.0015882,753.087837 51.0837353,752.990578 51.1407353,752.879903 C51.9286765,751.363993 54.4282941,747.203625 56.5205294,746.157244 C57.9136765,745.459657 60.3160588,744.961621 62.9866765,744.961621 C65.6120294,744.961621 68.4989118,745.442889 70.9448824,746.692173 C77.1142941,749.843052 79.2568235,755.722234 79.2786176,755.780925 C79.3020882,755.846324 79.3339412,755.910046 79.3725,755.96706 Z M31.0348235,450.584974 L31.0348235,452.193114 C29.6819118,451.160148 27.6315882,449.553686 26.4329118,448.443584 C23.5057941,445.728696 21.2107059,441.630373 20.7060882,440.694668 C20.8301471,436.646651 21.4403824,431.612623 21.8611765,428.564034 C23.4085588,431.798758 23.9869412,433.227469 24.6860294,437.966365 C25.8847059,446.090905 28.5268235,449.404443 31.0935,450.584974 L31.0348235,450.584974 Z M31.0348235,458.395936 C25.9785882,456.093563 22.1931176,451.119903 21.5594118,450.249596 C21.1922647,448.284279 20.8670294,446.10432 20.7379412,444.036713 C21.8393824,445.752173 23.4286765,447.942193 25.2929118,449.671069 C26.9475882,451.207101 30.0289412,453.544688 31.0348235,454.297613 L31.0348235,458.395936 Z M23.0129118,456.573154 C22.8955588,456.152255 22.6239706,455.141089 22.3087941,453.789514 C24.2434412,455.909105 27.3147353,458.712868 31.0348235,460.206979 L31.0348235,464.570251 C28.1982353,461.494831 23.9366471,457.446815 23.0129118,456.573154 Z M17.5777941,461.196345 C16.1662059,459.760925 15.3950294,458.977817 14.9205882,458.566979 L11.0714118,441.189351 L9.4335,441.551559 L13.3447059,459.20252 C13.4000294,459.449024 13.5592941,459.648574 13.7722059,459.762602 C13.9515882,459.921907 14.3958529,460.361253 14.9474118,460.917981 C15.4704706,461.78661 20.5702941,470.27839 22.9341176,474.48068 C25.1101765,478.352623 24.6994412,479.79978 24.5234118,480.150251 C24.4328824,480.329678 24.2501471,480.576181 23.7673235,480.644934 C22.1445,480.29614 16.2818824,470.67749 13.7805882,466.569105 C12.9071471,465.138717 12.1678235,463.924647 11.6548235,463.133154 C9.64305882,460.032582 8.151,453.866651 7.45358823,445.770619 C7.05626471,441.152459 6.46279412,435.722684 5.83244118,429.9743 C4.79302941,420.513277 3.72008823,410.728615 3.54573529,404.455363 C3.43005882,400.300026 3.03944118,397.286651 2.66055882,394.375568 C2.12408823,390.230291 1.65802941,386.651805 2.14588235,380.794422 C2.50297059,376.523379 2.31352941,368.823093 2.07547059,359.076999 C1.74688235,345.670251 1.3395,328.986856 2.14755882,313.130169 C3.15008823,293.495445 5.09647059,284.411723 6.38735294,278.401743 C6.88358823,276.087633 7.27420588,274.259821 7.45191176,272.509146 C8.07891176,266.396876 8.10573529,259.216426 8.01688235,254.269596 C7.93305882,249.513932 7.87605882,247.027101 7.75032353,245.697326 C9.85429412,246.443543 14.4981176,247.946038 21.6717353,249.488778 C28.6693235,250.991273 35.4925588,251.532909 38.1916765,251.702275 C38.1698824,252.679903 37.3165588,286.744279 35.4070588,299.832418 C34.8353824,303.756345 29.6467059,338.753073 23.6969118,359.248042 C18.924,375.691641 18.1645588,393.828901 22.0707353,398.061375 C25.2945882,401.554341 29.3449412,407.062929 31.1287059,411.499985 C32.0021471,413.673236 31.9518529,416.279126 31.8898235,419.580925 C31.8294706,422.642929 31.7557059,426.454504 32.4413824,431.049187 C33.1052647,435.51978 33.8999118,439.068083 34.5369706,441.918799 C35.3651471,445.619698 35.9619706,448.294341 35.2947353,449.089187 C35.0382353,449.392705 34.4330294,449.515118 33.4841471,449.478226 C29.9216471,449.307183 27.4538824,445.240721 26.3457353,437.719862 C25.5577941,432.38567 24.8654118,430.946897 23.0196176,427.100107 L22.1864118,425.361171 C22.0305,425.029146 21.6885,424.846365 21.3096176,424.889964 C20.9458235,424.941948 20.6591471,425.225343 20.6004706,425.587551 C20.5267059,426.055404 18.7781471,437.107797 19.0195588,443.325711 C19.2592941,449.562071 21.3716471,456.943747 21.4621765,457.255649 C21.5040882,457.399862 21.5828824,457.53066 21.6935294,457.63295 C21.7723235,457.70841 29.6433529,465.11524 31.7188235,467.952541 C33.2947059,470.103993 33.9183529,473.850169 33.1371176,474.670169 C32.8806176,474.945179 32.1379412,474.611478 31.5327353,474.209024 C28.2401471,472.029064 21.3045882,464.982766 17.5777941,461.196345 Z M38.2000588,357.509105 C37.9653529,358.389473 34.7666471,370.412786 32.7565588,382.684279 C31.2594706,391.825015 31.0012941,402.204974 30.9778235,407.388246 C28.8503824,403.61524 25.8293824,399.662807 23.3012647,396.924443 C20.2081765,393.57066 20.4110294,376.587101 25.308,359.717572 C31.2879706,339.111927 36.4934118,304.009555 37.0667647,300.073891 C39.0081176,286.762725 39.8614412,252.051069 39.8698235,251.702275 L39.7759412,251.700598 C40.0492059,251.583216 40.2520588,251.331682 40.2839118,251.018103 C40.8455294,245.772786 42.2604706,233.521416 43.3116176,227.648942 C44.0073529,230.067019 44.6947059,232.307347 45.3636176,234.265956 C46.3292647,237.10158 47.2261765,239.590087 48.0459706,241.865629 C52.6093235,254.534545 54.6915,260.316467 53.2832647,281.792418 C52.0862647,300.04203 44.7969706,329.778349 40.8807353,345.755772 C39.0952941,353.028451 38.2671176,356.447633 38.2000588,357.509105 Z M8.58017647,198.603502 C8.22141176,193.339739 7.81570588,187.375036 8.43432353,179.139821 C9.61623529,163.375363 20.5434706,142.950823 33.3986471,139.219739 C45.2093824,135.788819 71.0991176,125.864974 75.5467941,124.151191 C77.1545294,126.948246 80.2308529,131.943707 91.9108235,137.289637 C102.261353,142.026856 110.129029,142.695936 112.670559,142.784811 L108.883412,347.724443 C98.7189706,348.287878 72.0982941,350.001662 59.8365882,352.230251 C52.6780588,353.531518 47.5296176,355.327469 44.1196765,356.514709 C42.2085,357.180435 40.2285882,357.862929 39.8698235,357.643257 C39.8698235,356.913809 41.0936471,351.926733 42.5085882,346.154872 C46.4365588,330.128819 53.751,300.296917 54.9563824,281.903093 C56.3880882,260.078349 54.1265294,253.801743 49.6235294,241.298839 C48.8054118,239.030005 47.9118529,236.549882 46.9512353,233.725997 C40.755,215.546815 32.8102059,173.889473 32.7314118,173.470251 L31.0834412,173.785506 C31.1505,174.13933 36.8454706,203.993032 42.3694412,224.28342 C41.1757941,227.793154 39.1875,245.588328 38.703,250.052214 C36.3911471,249.919739 29.2896176,249.409964 22.0254706,247.848778 C13.9901471,246.123257 9.07976471,244.407797 7.57429412,243.846038 C7.54076471,243.047837 7.48208823,241.402807 7.44185294,239.241293 C11.1870882,240.996999 22.8653824,245.965629 35.1723529,245.965629 C36.48,245.965629 38.0122941,246.012582 39.3249706,245.890169 L39.5077059,244.161293 C25.4370882,245.460884 10.0454118,238.635936 7.41167647,237.364852 C7.33791176,231.277735 7.44520588,222.365056 8.42761765,215.244974 C9.28764706,209.016999 8.96073529,204.190905 8.58017647,198.603502 Z M76.9801765,121.288737 C77.5367647,121.015404 78.2995588,120.63978 79.1411471,120.009269 C81.0389118,118.587265 83.8738235,114.634831 85.3457647,112.481702 L85.3457647,112.575608 L85.4698235,112.575608 C86.6785588,115.428001 89.6140588,120.983543 94.8044118,122.985752 L95.2587353,123.160148 C100.043382,125.011437 103.929441,126.488778 111.914471,126.671559 L112.849941,141.106242 C110.630294,141.030782 102.792794,140.427101 92.6082353,135.763666 C81.1160294,130.503257 78.3565588,125.685547 76.8745588,123.098103 L76.6381765,122.688942 C76.1788235,121.899126 76.1939118,121.728083 76.1872059,121.743175 C76.2676765,121.639208 76.6633235,121.444688 76.9801765,121.288737 Z M100.921853,103.949678 C102.142324,104.804893 103.173353,105.525956 103.897588,106.094422 C107.954647,109.282193 113.723382,109.87749 113.968147,109.902643 L114.149206,109.899289 C114.348706,109.875813 119.103176,109.275486 123.151853,106.094422 C123.876088,105.525956 124.908794,104.803216 126.129265,103.946324 C130.119265,101.152623 136.064029,96.9821933 140.0775,92.097408 L140.027206,111.926651 C138.905647,114.545956 136.206529,119.657122 131.643176,121.419535 C130.687588,121.788451 129.842647,122.143952 129.046324,122.47933 C125.254147,124.072377 122.737765,125.107019 114.642088,125.013114 L114.618618,125.013114 C105.039265,125.150619 100.995618,123.579371 95.8639412,121.597285 L95.4062647,121.419535 C90.8496176,119.660475 88.1454706,114.542602 87.0205588,111.921621 L86.9719412,92.097408 C90.9870882,96.9838702 96.9318529,101.155977 100.921853,103.949678 Z M81.2467941,57.7295143 C81.5435294,57.9307413 81.8654118,58.0615389 82.2141176,58.0615389 C82.3063235,58.0615389 82.3968529,58.0531544 82.4924118,58.0347086 C83.8352647,57.7747904 84.4622647,55.9167945 84.6584118,51.6172444 L84.7036765,50.4417434 C85.3424118,32.8209663 88.0398529,22.9038293 92.7205588,20.9670195 C100.236176,17.8563855 112.580029,17.9402301 113.711647,17.9519683 L113.711647,17.9553221 C113.840735,17.9620297 126.484676,17.7205573 134.328882,20.9670195 C140.099294,23.35659 141.259412,38.4083692 141.883059,46.4976943 C142.084235,49.1153221 142.245176,51.1846064 142.494971,52.2460788 C143.733882,57.4930726 144.548647,58.6300051 145.559559,58.6300051 C145.608176,58.6300051 145.656794,58.6266514 145.705412,58.6216207 C145.718824,58.6199438 145.737265,58.6182669 145.752353,58.61659 C145.078412,70.0697597 143.856265,80.9745859 141.971912,85.8459561 C139.3365,92.6524591 130.467971,98.8619888 125.168647,102.57295 C123.916324,103.449964 122.856794,104.192827 122.117471,104.774709 C118.725971,107.437613 114.673941,108.128492 114.040235,108.222398 C113.332765,108.136876 108.346941,107.457735 104.931971,104.774709 C104.190971,104.192827 103.134794,103.451641 101.884147,102.576304 C96.5831471,98.8653426 87.7112647,92.654136 85.0775294,85.8459561 C83.1445588,80.8504959 81.9073235,69.5046473 81.2467941,57.7295143 Z M75.8938235,66.399044 C74.6364706,60.8720092 74.8845882,52.8816207 76.3850294,50.5641565 C76.5660882,50.2841156 76.7555294,50.1130726 76.9164706,50.0795348 C78.66,49.735772 79.1512059,50.973318 79.2618529,51.3590031 C79.6005,60.2180215 80.2576765,69.6387986 81.3406765,76.90477 C78.2794412,75.7410072 77.0790882,71.6158538 75.8938235,66.399044 Z M80.6633824,34.7309458 C80.7907941,19.1090235 88.9015588,12.4735634 96.4926176,7.4781033 C103.364471,2.95384972 109.217029,1.98125259 112.325206,1.83033234 L112.331912,1.87560841 C112.348676,1.87225463 112.752706,1.82027099 113.446765,1.80517897 C114.243088,1.81356342 114.700765,1.87225463 114.719206,1.87560841 L114.727588,1.82530167 C117.827382,1.97119124 123.6615,2.9387577 130.556824,7.4781033 C138.146206,12.4718865 146.255294,19.1090235 146.384382,34.7309458 C146.426294,39.6291462 146.334088,45.481498 146.099382,51.4948313 C146.027294,53.4500869 145.779176,55.4388804 145.509265,56.450046 C145.217559,55.8195348 144.754853,54.5199438 144.126176,51.8603937 C143.906559,50.9263651 143.750647,48.9140951 143.5545,46.3668968 C142.858765,37.328451 141.693618,22.1995348 134.970971,19.4175716 C127.126765,16.1727863 115.243941,16.254954 113.829,16.2767536 C113.066206,16.2583078 100.179176,16.0654653 92.0784706,19.4175716 C84.0314118,22.7478784 83.277,43.548042 83.0288824,50.3813753 L82.9852941,51.5417843 C82.7992059,55.5864469 82.2074118,56.3142178 82.2459706,56.3829704 C81.9827647,56.2773262 81.4546765,55.5394939 81.0942353,54.7983078 C80.7522353,47.648042 80.6164412,40.5212526 80.6633824,34.7309458 Z M150.132971,50.0795348 C150.293912,50.1130726 150.483353,50.2841156 150.664412,50.5641565 C152.163176,52.8782669 152.411294,60.8703323 151.155618,66.4007209 C149.972029,71.6158538 148.768324,75.7410072 145.708765,76.90477 C146.791765,69.6404755 147.448941,60.2180215 147.785912,51.3590031 C147.898235,50.9749949 148.384412,49.735772 150.132971,50.0795348 Z M147.908294,120.009269 C148.749882,120.63978 149.512676,121.015404 150.069265,121.288737 C150.387794,121.446365 150.785118,121.640884 150.843794,121.691191 C150.845471,121.714668 150.8505,121.937694 150.411265,122.688942 L150.174882,123.098103 C148.691206,125.685547 145.933412,130.503257 134.439529,135.763666 C127.5945,138.896099 121.800618,140.19569 118.060412,140.733972 L118.340382,126.646406 C124.016912,126.414995 126.481324,125.376999 129.695118,124.025424 C130.478029,123.696754 131.307882,123.34796 132.245029,122.985752 C137.433706,120.983543 140.370882,115.428001 141.579618,112.575608 L141.702,112.575608 L141.702,112.481702 C143.173941,114.634831 146.010529,118.587265 147.908294,120.009269 Z M114.623647,126.690005 C115.349559,126.700066 116.016794,126.69839 116.662235,126.690005 L116.378912,140.943584 C115.621147,141.022398 114.990794,141.069351 114.529765,141.092827 L113.595971,126.691682 C113.936294,126.691682 114.268235,126.693359 114.623647,126.690005 Z M111.906088,347.566815 C111.545647,347.583584 111.094676,347.60706 110.561559,347.633891 L114.347029,142.784811 C114.824824,142.769719 115.500441,142.73115 116.345382,142.648983 L111.906088,347.566815 Z M218.613441,179.139821 C219.233735,187.375036 218.826353,193.339739 218.469265,198.603502 C218.088706,204.190905 217.761794,209.016999 218.620147,215.244974 C219.589147,222.279535 219.882529,231.239167 219.961324,237.470496 C212.113765,243.269187 191.422765,244.025465 188.386676,244.104279 C187.280206,237.083134 185.576912,226.837326 184.686706,224.261621 C190.207324,203.974586 195.898941,174.13933 195.966,173.785506 L194.318029,173.470251 C194.237559,173.889473 186.294441,215.546815 180.098206,233.725997 C173.814794,252.165097 171.461029,259.065506 173.150912,284.837653 C174.356294,303.204647 181.104088,331.472009 184.731971,346.659617 C186.044647,352.158144 187.177941,356.907101 187.177941,357.643257 C187.177941,357.683502 187.176265,357.713686 187.176265,357.735486 C186.609618,357.797531 184.829206,357.170373 183.092382,356.563338 C179.694176,355.376099 174.555794,353.583502 167.212853,352.230251 C153.645176,349.731682 120.150971,347.868655 113.584235,347.568492 L118.025206,142.451109 C121.867676,141.926242 127.896265,140.603175 135.136941,137.289637 C146.816912,131.943707 149.894912,126.948246 151.502647,124.151191 C155.950324,125.864974 181.841735,135.788819 193.650794,139.219739 C206.505971,142.950823 217.431529,163.373686 218.613441,179.139821 Z M189.330529,250.223257 C189.199765,249.354627 188.958353,247.763257 188.648206,245.77614 C192.359912,245.680557 211.255412,244.927633 219.979765,239.481089 C219.994853,241.738185 219.981441,243.470414 219.971382,244.328983 C218.343529,244.820312 213.282265,246.307715 204.797647,248.439044 C197.639118,250.240026 191.343971,250.258471 189.330529,250.223257 Z M196.086706,408.466488 C196.039765,402.490046 195.738,391.498022 194.292882,382.684279 C192.264353,370.303788 189.028765,358.174831 188.842676,357.487306 C188.778971,356.432541 188.0145,353.192786 186.3615,346.268901 C182.747029,331.1316 176.019353,302.953114 174.824029,284.728655 C173.155941,259.29021 175.479529,252.476999 181.685824,234.265956 C182.368147,232.265424 183.070588,229.971437 183.781412,227.491314 C185.028706,233.330251 186.983471,245.836508 187.776441,251.157285 C187.808294,251.380312 187.932353,251.566447 188.1,251.693891 L187.766382,251.702275 C187.774765,252.051069 188.629765,286.762725 190.567765,300.073891 C191.142794,304.009555 196.346559,339.111927 202.328206,359.717572 C207.225176,376.588778 207.428029,393.572336 204.334941,396.924443 C201.563735,399.926079 198.210794,404.383257 196.086706,408.466488 Z M227.161765,313.046324 C226.154206,293.272418 224.189382,284.108206 222.886765,278.044565 C222.402265,275.782439 222.020029,273.996549 221.849029,272.338103 C220.667118,260.792705 221.626059,245.164075 221.636118,245.014831 L221.622706,245.013154 C221.624382,244.998062 221.639471,244.984647 221.639471,244.966201 C221.642824,244.790128 221.947941,227.098921 220.281529,215.016917 C219.446647,208.956631 219.768529,204.211028 220.142382,198.715854 C220.502824,193.396754 220.913559,187.368328 220.286559,179.015731 C219.061059,162.669392 208.011441,141.642848 194.118529,137.608246 C182.535794,134.244402 157.246235,124.56706 152.290588,122.660435 C152.486735,122.175813 152.594029,121.689514 152.453206,121.225015 C152.228559,120.482152 151.568029,120.156835 150.806912,119.784565 C150.282176,119.524647 149.630029,119.204361 148.9125,118.667756 C146.547,116.891927 142.189853,110.197776 142.144588,110.1307 C142.040647,109.969719 141.883059,109.874136 141.708706,109.813768 L141.760676,89.8151585 C142.476529,88.7184714 143.090118,87.5983078 143.532706,86.4529908 C144.260294,84.5765491 144.882265,81.916999 145.413706,78.7577352 C149.918382,77.7784305 151.432235,72.7477557 152.790176,66.769637 C154.035794,61.2895552 153.993882,52.6183487 152.070971,49.6519274 C151.628382,48.9694325 151.086882,48.560271 150.459882,48.436181 C149.370176,48.2215389 148.523559,48.4009663 147.876441,48.7564673 C148.039059,43.5966718 148.094382,38.7269786 148.060853,34.7175307 C147.925059,18.2689008 139.430382,11.3081238 131.477206,6.07622191 C123.180353,0.61458592 116.372206,0.0612116867 113.518853,0.118226002 C110.660471,0.0628885783 103.859029,0.621293486 95.5722353,6.07622191 C87.6190588,11.3081238 79.1210294,18.2689008 78.9869118,34.7175307 C78.9550588,38.7253017 79.0103824,43.5916411 79.173,48.7497597 C78.5258824,48.3942587 77.6792647,48.2165082 76.5895588,48.436181 C75.9625588,48.560271 75.4193824,48.9711094 74.9784706,49.6536043 C73.0555588,52.6217025 73.0136471,61.292909 74.2592647,66.769637 C75.6172059,72.7494325 77.1310588,77.7784305 81.6340588,78.7577352 C82.1671765,81.916999 82.7891471,84.5765491 83.5150588,86.4529908 C83.9593235,87.5983078 84.5712353,88.7184714 85.2887647,89.8151585 L85.3390588,109.813768 C85.1663824,109.874136 85.0071176,109.969719 84.9031765,110.1307 C84.8595882,110.197776 80.5024412,116.891927 78.1352647,118.667756 C77.4194118,119.204361 76.7672647,119.524647 76.2425294,119.782889 C75.4814118,120.156835 74.8208824,120.482152 74.5962353,121.225015 C74.4554118,121.689514 74.5627059,122.175813 74.7588529,122.660435 C69.8032059,124.565383 44.5136471,134.244402 32.9309118,137.608246 C19.038,141.642848 7.98838235,162.669392 6.76120588,179.015731 C6.13588235,187.368328 6.54494118,193.396754 6.90705882,198.715854 C7.28091176,204.211028 7.60279412,208.956631 6.76791176,215.016917 C5.09982353,227.112336 5.91291176,244.302152 5.92297059,244.473195 C5.93302941,244.684484 5.99841176,245.019862 5.99841176,245.019862 C6.00847059,245.165752 6.97076471,260.752459 5.7855,272.338103 C5.61617647,273.998226 5.23226471,275.785792 4.74608823,278.049596 C3.44682353,284.113236 1.482,293.277449 0.474441176,313.046324 C-0.338647059,328.965056 0.0704117642,345.683666 0.399,359.117244 C0.637058823,368.814709 0.824823529,376.47475 0.476117647,380.653563 C-0.0268235299,386.69205 0.471088235,390.528778 0.99917647,394.591887 C1.37135294,397.462725 1.75694118,400.430823 1.86926471,404.502316 C2.04697059,410.84432 3.12326471,420.660844 4.16435294,430.157081 C4.79302941,435.895404 5.38817647,441.316795 5.78382353,445.914831 C6.29347059,451.832582 7.48208823,459.782725 10.2465882,464.04706 C10.7562353,464.828492 11.4871765,466.027469 12.3472059,467.442766 C19.2173824,478.714831 21.9634412,482.318471 23.7455294,482.318471 C23.8008529,482.318471 23.8545,482.315118 23.9081471,482.30841 C25.1470588,482.152459 25.7422059,481.459903 26.0205,480.904852 C26.79,479.382234 26.2401176,476.944034 24.3943235,473.659003 C23.2492941,471.624934 21.4705588,468.593114 19.8712059,465.896672 C23.6231471,469.649555 28.0389706,473.907183 30.6056471,475.607551 C30.7615588,475.711518 30.9057353,475.786979 31.0515882,475.869146 C31.2997059,479.107224 34.6710882,522.255322 35.7105,525.999821 C35.8747941,526.595118 36.0491471,527.089801 36.2654118,527.517408 C36.6795,530.0143 41.7072353,560.942889 40.1179412,579.217653 C39.672,584.330496 38.9276471,589.990005 38.1380294,595.979862 C35.8898824,613.022111 33.345,632.338226 35.5093235,652.742643 C37.3769118,670.356713 42.2051471,695.307183 45.7307647,713.524934 C47.6620588,723.499085 49.1876471,731.377122 49.3368529,733.619126 C49.7107059,739.246774 48.0945882,751.377408 47.8112647,753.445015 C46.0979118,754.811682 43.7005588,756.807183 42.0240882,758.554504 C40.3275,760.325302 37.2662647,768.600762 37.6065882,771.261989 L37.6283824,771.439739 C38.5185882,778.360271 38.1112059,784.281375 36.4213235,789.038717 C34.5537353,794.282357 29.6064706,811.809228 44.2672059,817.217204 C47.7006176,818.484934 51.5347059,819.10203 55.3604118,819.10203 C60.9816176,819.10203 66.5827059,817.767224 70.8493235,815.198226 C74.9969118,812.701334 77.4697059,809.298921 77.9977941,805.363257 C78.5912647,800.96477 78.6532941,796.807756 78.7069412,793.142071 C78.7890882,787.615036 78.8544706,783.246733 80.6868529,781.247878 C84.2627647,777.347428 83.7849706,759.783666 80.8243235,755.125261 C80.6801471,754.741253 80.1269118,753.388001 79.002,751.717817 C79.4948824,747.751968 77.5803529,734.727551 76.5610588,729.626447 C75.3607059,723.626529 78.9299118,695.444688 82.5695294,677.979862 C85.9576765,661.740844 86.3080588,627.941416 83.2702941,611.003134 C80.9685,598.174913 84.9585,588.437204 88.1655882,580.612827 C88.9820294,578.62068 89.7548824,576.735854 90.3634412,574.948287 C93.3022941,566.315649 93.3140294,531.830373 93.3073235,528.555404 C93.7599706,527.80248 94.3551176,525.880762 94.3551176,520.954054 C94.3551176,514.135813 96.3383824,501.570864 99.5387647,493.164606 C102.936971,484.241866 109.247206,452.518431 109.649559,448.299371 C109.746794,447.283175 110.102206,446.541989 110.739265,446.027183 C111.624441,445.314504 112.833176,445.223952 113.460176,445.228983 L113.463529,445.247428 C113.466882,445.247428 113.545676,445.239044 113.651294,445.234013 C113.783735,445.239044 113.879294,445.247428 113.882647,445.247428 L113.884324,445.228983 C114.456,445.227306 115.500441,445.322889 116.295088,445.958431 C116.928794,446.466529 117.300971,447.254668 117.398206,448.299371 C117.802235,452.518431 124.110794,484.241866 127.510676,493.164606 C130.711059,501.570864 132.692647,514.135813 132.692647,520.954054 C132.692647,524.109964 132.939088,526.031682 133.234147,527.207183 L133.203971,527.207183 C133.203971,528.791846 133.239176,566.112745 136.181382,574.943257 C136.798324,576.794545 137.592971,578.746447 138.436235,580.814054 C141.609794,588.596508 145.557882,598.280557 143.276206,611.003134 C140.236765,627.941416 140.588824,661.740844 143.976971,677.979862 C147.616588,695.444688 151.185794,723.626529 149.985441,729.626447 C148.919206,734.958962 146.952706,748.203052 147.588088,751.654095 C146.434676,753.354463 145.868029,754.737899 145.722176,755.125261 C142.761529,759.783666 142.283735,777.347428 145.859647,781.247878 C147.692029,783.246733 147.757412,787.615036 147.839559,793.142071 C147.893206,796.807756 147.955235,800.96477 148.547029,805.363257 C149.076794,809.298921 151.549588,812.701334 155.697176,815.198226 C159.965471,817.767224 165.564882,819.10203 171.186088,819.10203 C175.011794,819.10203 178.845882,818.484934 182.279294,817.217204 C196.940029,811.809228 191.992765,794.282357 190.125176,789.038717 C188.433618,784.281375 188.027912,778.360271 188.918118,771.439739 L188.939912,771.261989 C189.280235,768.600762 186.219,760.325302 184.522412,758.554504 C182.752059,756.7116 180.185382,754.593686 178.463647,753.228696 C178.223912,751.016876 176.834118,737.839862 177.209647,732.193768 C177.358853,729.951764 178.884441,722.073727 180.815735,712.097899 C184.341353,693.880148 189.169588,668.929678 191.037176,651.315608 C193.2015,630.911191 190.656618,611.596754 188.408471,594.554504 C187.618853,588.56297 186.8745,582.903461 186.428559,577.792296 C184.782265,558.850128 191.288647,526.268124 191.354029,525.94113 L191.352353,525.94113 C192.380029,521.998758 195.588794,481.151355 195.976059,476.167633 C196.299618,476.036835 196.644971,475.862439 197.030559,475.607551 C199.598912,473.907183 204.011382,469.651232 207.765,465.896672 C206.167324,468.593114 204.385235,471.624934 203.241882,473.659003 C201.394412,476.944034 200.847882,479.380557 201.615706,480.904852 C201.895676,481.459903 202.487471,482.152459 203.728059,482.30841 C203.781706,482.315118 203.833676,482.318471 203.889,482.318471 C205.672765,482.318471 208.418824,478.713154 215.290676,467.439412 C216.152382,466.025792 216.881647,464.826815 217.389618,464.04706 C220.152441,459.784402 221.341059,451.832582 221.850706,445.914831 C222.246353,441.318471 222.8415,435.898758 223.470176,430.162111 C224.512941,420.664197 225.590912,410.84432 225.765265,404.502316 C225.877588,400.430823 226.264853,397.461048 226.638706,394.59021 C227.165118,390.527101 227.663029,386.690373 227.160088,380.653563 C226.811382,376.473073 226.999147,368.811355 227.237206,359.10886 C227.564118,345.678635 227.973176,328.961702 227.161765,313.046324 Z" id="Fill-13" fill="#606162" mask="url(#mask-4)"></path>
                                </g>
                                <path d="M136.973012,188.469375 L134.900894,188.469375 L134.900894,186.945081 L133.517806,187.211707 L133.517806,188.338578 C133.517806,188.841645 133.616718,189.175347 133.816218,189.359805 C134.012365,189.542586 134.356041,189.629784 134.867365,189.629784 L137.006541,189.629784 C137.516188,189.629784 137.859865,189.542586 138.056012,189.359805 C138.257188,189.175347 138.354424,188.841645 138.354424,188.338578 L138.354424,184.411298 L136.973012,184.411298 L136.973012,188.469375 Z" id="Fill-16" fill="#606162"></path>
                                <path d="M141.745421,187.414778 L142.670832,185.722795 L143.562715,187.414778 L141.745421,187.414778 Z M143.334715,184.411465 L142.084068,184.411465 L139.135156,189.629952 L140.551774,189.629952 L141.131832,188.534942 L144.162891,188.534942 L144.759715,189.624921 L144.763068,189.629952 L146.323862,189.629952 L143.338068,184.416496 L143.334715,184.411465 Z" id="Fill-18" fill="#606162"></path>
                                <polygon id="Fill-20" fill="#606162" points="153.151624 184.432762 153.1818 184.410962 151.116388 184.410962 148.497741 186.382987 148.497741 184.410962 147.106271 184.410962 147.106271 189.631126 148.497741 189.631126 148.497741 187.540042 151.336006 189.629449 151.339359 189.631126 153.589182 189.631126 149.718212 186.875993"></polygon>
                                <path d="M155.733388,185.484173 L158.236359,185.484173 C158.461006,185.484173 158.538124,185.517711 158.556565,185.527772 C158.616918,185.564664 158.647094,185.646831 158.647094,185.774275 L158.647094,186.377956 C158.647094,186.5054 158.618594,186.587568 158.559918,186.624459 C158.529741,186.639551 158.445918,186.668058 158.236359,186.668058 L155.733388,186.668058 L155.733388,185.484173 Z M155.733388,187.742946 L156.682271,187.742946 L158.692359,189.627772 L158.695712,189.631126 L160.712506,189.631126 L158.410712,187.742946 L158.757741,187.742946 C159.321035,187.742946 159.989947,187.555134 159.989947,186.663028 L159.989947,185.49088 C159.989947,184.598774 159.321035,184.410962 158.757741,184.410962 L154.372094,184.410962 L154.372094,189.631126 L155.733388,189.631126 L155.733388,187.742946 Z" id="Fill-22" fill="#606162"></path>
                                <mask id="mask-6" fill="white">
                                    <use xlink:href="#path-5"></use>
                                </mask>
                                <g id="Clip-25"></g>
                                <path d="M162.865765,188.469878 L166.476882,188.469878 L166.476882,185.52358 L162.865765,185.52358 L162.865765,188.469878 Z M162.833912,189.630287 L166.510412,189.630287 C167.021735,189.630287 167.365412,189.541412 167.561559,189.360308 C167.761059,189.174173 167.859971,188.838795 167.859971,188.339081 L167.859971,185.703007 C167.859971,185.201617 167.761059,184.866238 167.561559,184.683457 C167.365412,184.500676 167.021735,184.411801 166.510412,184.411801 L162.833912,184.411801 C162.324265,184.411801 161.978912,184.500676 161.782765,184.683457 C161.583265,184.866238 161.486029,185.201617 161.486029,185.703007 L161.486029,188.339081 C161.486029,188.840471 161.583265,189.17585 161.782765,189.360308 C161.978912,189.541412 162.322588,189.630287 162.833912,189.630287 Z" id="Fill-24" fill="#606162" mask="url(#mask-6)"></path>
                                <path d="M170.019265,188.469878 L173.628706,188.469878 L173.628706,185.52358 L170.019265,185.52358 L170.019265,188.469878 Z M169.989088,189.630287 L173.663912,189.630287 C174.175235,189.630287 174.518912,189.541412 174.715059,189.360308 C174.914559,189.174173 175.011794,188.838795 175.011794,188.339081 L175.011794,185.703007 C175.011794,185.201617 174.914559,184.866238 174.715059,184.683457 C174.518912,184.500676 174.175235,184.411801 173.663912,184.411801 L169.989088,184.411801 C169.476088,184.411801 169.132412,184.500676 168.936265,184.683457 C168.735088,184.866238 168.639529,185.201617 168.639529,185.703007 L168.639529,188.339081 C168.639529,188.840471 168.735088,189.17585 168.936265,189.360308 C169.132412,189.541412 169.476088,189.630287 169.989088,189.630287 Z" id="Fill-26" fill="#606162" mask="url(#mask-6)"></path>
                            </g>
                        </g>
                    </g>
                </g>
            </g>
        </g>
    </g>
</svg>