<?xml version="1.0" encoding="UTF-8"?>
<svg width="304px" height="292px" viewBox="0 0 304 292" version="1.1" xmlns="http://www.w3.org/2000/svg" xmlns:xlink="http://www.w3.org/1999/xlink">
    <!-- Generator: sketchtool 51.2 (57519) - http://www.bohemiancoding.com/sketch -->
    <title>5F496C3E-8004-47E1-A0FA-1550B6B1717F</title>
    <desc>Created with sketchtool.</desc>
    <defs>
        <rect id="path-1" x="0" y="0" width="304" height="292"></rect>
    </defs>
    <g id="Informational-Pages" stroke="none" stroke-width="1" fill="none" fill-rule="evenodd">
        <g id="9.2-Fit&amp;Sizing" transform="translate(-360.000000, -3382.000000)">
            <g id="Group-7" transform="translate(32.000000, 3265.000000)">
                <g id="Recurso-1" transform="translate(328.000000, 117.000000)">
                    <mask id="mask-2" fill="white">
                        <use xlink:href="#path-1"></use>
                    </mask>
                    <use id="Mask" fill="#F1F4F5" xlink:href="#path-1"></use>
                    <g mask="url(#mask-2)">
                        <g transform="translate(38.000000, -81.000000)">
                            <g id="Capa_6" transform="translate(0.000000, 1.676892)">
                                <path d="M85.6005882,109.752556 C85.6005882,109.752556 89.1211765,125.917791 114.637059,125.029039 C140.152941,124.140286 141.460588,109.752556 141.460588,109.752556 C141.460588,109.752556 144.394412,119.629448 159.264706,125.029039 C184.747059,134.285481 210.598235,138.645399 216.566471,164.352147 C222.534706,190.058896 220.807941,211.539877 222.568235,225.022086 C224.110588,236.894479 226.658824,242.914519 224.328529,243.786503 C221.998235,244.658487 205.417941,251.064213 195.258529,250.49407 C189.675882,250.17546 183.523235,249.521472 183.523235,249.521472 C183.523235,249.521472 184.395,249.739468 184.696765,231.863804 C184.696765,229.180777 177.990882,250.846217 177.990882,259.683436 C177.890294,265.904703 182.768824,320.856442 186.96,334.238037 C191.151176,347.619632 193.313824,357.848671 191.754706,357.714519 C190.195588,357.580368 153.765882,348.122699 110.848235,348.793456 C60.5541176,349.514519 33.7305882,358.267894 33.7305882,358.267894 C42.0072434,330.038425 47.2286599,301.001407 49.305,271.656442 C50.5623529,250.577914 42.5991176,229.532924 42.5991176,229.532924 L42.0291176,249.521472 C33.1605882,252.053579 1.79382353,246.352147 1.64294118,242.008998 C1.49205882,237.665849 6.67235294,205.704294 6.84,189.656442 C7.05794118,172.267076 10.3102941,146.05726 37.1170588,136.9182 C71.7194118,125.129652 75.9105882,123.62045 85.6005882,109.752556 Z" id="Shape" fill="#E61737" fill-rule="nonzero"></path>
                                <g id="Group" opacity="0.55" transform="translate(1.676471, 107.321063)" fill="#A5A5A5" fill-rule="nonzero">
                                    <path d="M83.9241176,1.47566462 C83.9241176,1.47566462 87.4447059,17.6408998 112.960588,16.7353783 C138.476471,15.8298569 139.784118,1.47566462 139.784118,1.47566462 C139.784118,1.47566462 142.717941,11.3525562 157.588235,16.7689162 C183.070588,26.0253579 208.921765,30.3852761 214.89,56.0752556 C220.858235,81.7652352 219.131471,103.262986 220.891765,116.761963 C222.434118,128.634356 224.982353,134.654397 222.652059,135.509611 C220.321765,136.364826 203.640882,143.441309 193.481471,142.871166 C187.898824,142.552556 182.148529,142.871166 182.148529,142.871166 C182.148529,142.871166 182.651471,141.479346 182.953235,123.586912 C182.953235,120.903885 176.917941,145.218814 176.247353,151.406544 C175.576765,157.594274 181.025294,212.57955 185.216471,225.977914 C189.407647,239.376278 191.570294,249.571779 190.011176,249.454397 C188.452059,249.337014 152.089412,239.795501 109.171765,240.466258 C58.8776471,241.187321 32.0541176,249.923926 32.0541176,249.923926 C40.327019,221.722147 45.5484208,192.713321 47.6285294,163.396319 C48.8858824,142.33456 40.9226471,121.289571 40.9226471,121.289571 L40.3526471,142.233947 C31.4841176,144.766053 0.469411765,139.835992 0.318529412,135.52638 C0.167647059,131.216769 5.02941176,97.4609407 5.19705882,81.4130879 C5.415,64.006953 8.66735294,37.8139059 35.4741176,28.6580777 C70.0429412,16.8527607 74.2341176,15.3267894 83.9241176,1.47566462 Z" id="Shape"></path>
                                </g>
                                <path d="M84.7623529,108.327198 C84.7623529,108.327198 88.2829412,124.492434 113.798824,123.586912 C139.314706,122.681391 141.108529,108.997955 141.108529,108.997955 C141.108529,108.997955 144.176471,117.382413 158.577353,124.08998 C177.940588,133.06135 209.106176,135.962372 215.074412,161.652352 C221.042647,187.342331 218.008235,205.368916 220.824706,226.866667 C222.601765,240.2818 220.975588,241.807771 220.740882,244.289571 C220.506176,246.77137 198.846176,251.080982 193.179706,250.259305 C187.513235,249.437628 188.150294,249.320245 188.150294,249.320245 C188.150294,249.320245 183.120882,229.801227 187.697647,209.980368 C188.317941,207.381186 174.151765,252.288344 173.414118,258.476074 C172.676471,264.663804 175.576765,313.813497 182.752059,336.2 C187.043824,349.615133 188.703529,357.127607 187.144412,357.026994 C162.759364,349.540412 137.360123,345.885985 111.854118,346.194274 C61.56,346.915337 37.7541176,357.026994 37.7541176,357.026994 C37.7541176,357.026994 60.6714706,287.016769 53.0602941,254.317382 C50.8293012,243.984493 47.3502303,233.961351 42.6997059,224.468712 C42.6202644,226.18842 42.4016074,227.89886 42.0458824,229.583231 C39.3970588,242.74683 39.9502941,250.058078 38.9947059,250.259305 C35.91,250.913292 7.64470588,252.221268 5.88441176,242.243763 C5.13,237.967689 8.90205882,202.585276 7.37647059,185.229448 C5.85088235,167.87362 11.4,143.458078 38.19,134.302249 C72.7755882,122.496933 75.0723529,122.178323 84.7623529,108.327198 Z" id="Shape" fill="#DCDCDC" fill-rule="nonzero"></path>
                                <path d="M193.783235,466.00818 L193.783235,449.826176 L193.682647,449.826176 C192.524871,450.00934 191.34776,449.643725 190.497353,448.83681 C189.307059,447.411452 189.877059,444.862577 190.916471,440.217587 C191.536765,437.400409 192.324706,433.878937 192.978529,429.468712 C193.496417,425.764441 193.675982,422.020693 193.515,418.283845 C193.375663,415.981144 193.488094,413.670109 193.850294,411.39182 C194.02136,401.442526 193.461026,391.494112 192.173824,381.626994 C190.396765,370.760736 187.664118,360.095706 186.926471,357.278528 C185.451176,357.060532 183.422647,356.540695 180.69,355.819632 C176.934706,354.847035 172.307647,353.622904 166.44,352.549693 C152.257059,349.933742 116.145882,348.022086 112.256471,347.887935 C108.903529,348.005317 74.1335294,349.916973 59.6655882,352.549693 C53.9488235,353.589366 49.2882353,354.813497 45.5497059,355.786094 C43.4545223,356.393255 41.327846,356.885872 39.1791176,357.261759 C38.4414706,360.078937 35.7255882,370.760736 33.9317647,381.626994 C32.6492079,390.808608 32.0886652,400.076707 32.2552941,409.346012 L32.1714706,409.346012 L32.2720588,409.547239 C33.1359008,412.373422 33.4321778,415.342635 33.1438235,418.283845 C32.9828419,422.020693 33.1624069,425.764441 33.6802941,429.468712 C34.3341176,433.878937 35.1220588,437.400409 35.7591176,440.217587 C36.7817647,444.862577 37.4355882,447.411452 36.1614706,448.83681 C35.3110632,449.643725 34.1339523,450.00934 32.9761765,449.826176 L32.2888235,449.742331 L32.2888235,465.169734 L32.6576471,465.622495 C34.3341176,467.903067 35.6082353,472.732515 33.9317647,474.493252 C33.5481185,474.896948 33.0132527,475.121891 32.4564706,475.113701 L32.3558824,475.113701 C33.6132353,491.329243 36.1111765,521.345603 36.8991176,524.213088 C37.6032353,526.761963 38.0055882,526.845808 51.1323529,527.415951 C53.5297059,527.516564 56.3294118,527.633947 59.6152941,527.801636 C78.7270588,528.723926 89.6911765,526.611043 91.5688235,526.208589 C92.1810607,524.06889 92.4136967,521.838429 92.2561765,519.618405 C92.5397049,509.982019 94.2806209,500.444152 97.4197059,491.329243 C100.772647,482.492025 107.025882,451.083845 107.478529,446.891616 C107.557269,445.591932 108.162758,444.38065 109.155,443.537832 C110.297034,442.712286 111.687755,442.303844 113.094706,442.380777 C114.416867,442.296971 115.726922,442.676449 116.799706,443.453988 C117.826079,444.334668 118.434562,445.606717 118.476176,446.958691 C118.878529,451.134151 125.182059,482.5591 128.535,491.396319 C131.728071,500.53083 133.514358,510.097782 133.832647,519.769325 C133.663034,521.997273 133.90745,524.237374 134.553529,526.376278 C136.515,526.795501 147.462353,528.874847 166.406471,527.952556 C169.759412,527.784867 172.475294,527.667485 174.788824,527.566871 C187.915588,526.996728 188.317941,526.912883 189.022059,524.364008 C189.81,521.496524 192.375,491.429857 193.565294,475.214315 C193.256769,475.065537 192.991328,474.840433 192.794118,474.560327 C191.117647,472.883436 192.240882,468.389366 193.783235,466.00818 Z" id="Shape" fill="#8B8B8B" fill-rule="nonzero"></path>
                                <path d="M157.051765,528.891616 C149.448005,529.044604 141.848312,528.426588 134.369118,527.047035 L133.95,526.96319 L133.782353,526.577505 C133.074283,524.335831 132.801146,521.979433 132.977647,519.635174 C132.661039,510.060714 130.891726,500.589966 127.730294,491.547239 C124.377353,482.676483 118.073824,451.100613 117.671471,446.908384 C117.635649,445.776665 117.116904,444.714497 116.246471,443.990593 C115.339453,443.331414 114.230174,443.011007 113.111471,443.085072 C111.917726,443.035138 110.740354,443.376662 109.758529,444.057669 C108.909665,444.767892 108.398583,445.802483 108.350294,446.908384 C107.947941,451.100613 101.644412,482.676483 98.2914706,491.547239 C95.1300389,500.589966 93.3607255,510.060714 93.0441176,519.635174 C93.1756765,521.969577 92.891861,524.308805 92.2058824,526.543967 L92.0382353,526.96319 L91.6023529,527.047035 C89.5905882,527.483027 78.6097059,529.579141 59.4308824,528.723926 C56.0779412,528.556237 53.3620588,528.438855 50.9647059,528.338241 C37.9217647,527.768098 36.8488235,527.717791 35.9602941,524.531697 C34.9544118,520.876074 31.5344118,477.109202 31.3835294,475.264622 L31.3835294,474.308793 L32.3223529,474.308793 C32.6715376,474.333121 33.0140841,474.204633 33.2611765,473.956646 C34.485,472.66544 33.4958824,468.339059 31.9032353,466.1591 L31.5679412,465.723108 L31.3835294,465.488344 L31.3835294,448.803272 L32.3558824,448.954192 L32.9594118,448.954192 C33.8486273,449.13028 34.7687145,448.875327 35.4405882,448.266667 C36.3794118,447.159918 35.8094118,444.611043 34.8705882,440.385276 C34.2335294,437.517791 33.4455882,433.996319 32.775,429.569325 C32.2574185,425.814399 32.0778744,422.020578 32.2385294,418.233538 C32.5171384,415.411877 32.2380142,412.562956 31.4170588,409.84908 L30.9811765,408.7591 L31.3332353,408.675256 C31.2240273,399.582753 31.8125195,390.495272 33.0935294,381.492843 C34.8705882,370.660123 37.5697059,360.045399 38.3576471,357.043763 L38.4917647,356.507157 L39.045,356.507157 C40.5370588,356.289162 42.6494118,355.735787 45.315,355.048262 C49.0702941,354.058896 53.6973529,352.834765 59.4979412,351.795092 C73.9658824,349.162372 108.903529,347.233947 112.206176,347.099796 C115.961471,347.250716 152.441471,349.19591 166.574118,351.795092 C172.508824,352.885072 177.152647,354.092434 180.874412,355.148875 C183.607059,355.85317 185.585294,356.373006 187.027059,356.574233 L187.580294,356.658078 L187.731176,357.194683 C188.519118,360.196319 191.201471,370.811043 192.978529,381.626994 C194.308654,391.541331 194.902632,401.540612 194.755588,411.54274 C194.397135,413.810145 194.284718,416.109658 194.420294,418.401227 C194.580949,422.188267 194.401405,425.982088 193.883824,429.737014 C193.213235,434.164008 192.425294,437.685481 191.788235,440.519427 C190.849412,444.778732 190.279412,447.327607 191.218235,448.434356 C191.888778,449.045432 192.810095,449.300725 193.699412,449.121881 L194.587941,449.121881 L194.688529,449.993865 L194.688529,466.427403 L194.554412,466.62863 C193.079118,468.909202 192.240882,472.883436 193.397647,474.107566 C193.552525,474.267089 193.750653,474.377836 193.967647,474.426176 L194.688529,474.593865 L194.688529,475.314928 C194.336471,479.976687 191.100882,521.043763 190.111765,524.632311 C189.223235,527.818405 188.150294,527.868712 175.107353,528.438855 C172.71,528.539468 169.910294,528.656851 166.641176,528.82454 C163.372059,528.992229 159.935294,528.891616 157.051765,528.891616 Z M135.173824,525.537832 C138.023824,526.107975 148.585588,527.868712 166.423235,527.013497 C169.776176,526.845808 172.508824,526.728425 174.906176,526.627812 C187.798235,526.074438 187.831765,525.957055 188.317941,524.045399 C188.971765,521.647444 191.084118,497.41636 192.794118,475.667076 C192.526349,475.528449 192.282882,475.347218 192.073235,475.13047 C190.128529,473.084663 191.302059,468.422904 192.894706,465.790184 L192.894706,450.69816 C191.729115,450.729151 190.606117,450.259082 189.81,449.406953 C188.334706,447.730061 188.938235,444.96319 190.044706,440.083436 C190.665,437.249489 191.452941,433.761554 192.106765,429.384867 C192.611956,425.72443 192.785897,422.025861 192.626471,418.334151 C192.486036,415.969537 192.604088,413.596655 192.978529,411.257669 C193.102776,401.406527 192.508849,391.559433 191.201471,381.794683 C189.525,371.615951 187.043824,361.671984 186.172059,358.049898 C184.713529,357.798364 182.819118,357.312065 180.388235,356.674847 C176.683235,355.702249 172.005882,354.494888 166.205294,353.404908 C152.156471,350.822495 115.911176,348.89407 112.139118,348.743149 C108.920294,348.877301 74.1167647,350.788957 59.7326471,353.404908 C54.0494118,354.444581 49.4055882,355.651943 45.6838235,356.62454 C43.2529412,357.261759 41.2914706,357.781595 39.7658824,358.033129 C38.8438235,361.604908 36.4129412,371.615951 34.7364706,381.794683 C33.4529806,390.925577 32.8924144,400.1436 33.06,409.362781 C33.9318424,412.256431 34.2336044,415.291894 33.9485294,418.300613 C33.7887317,421.997901 33.9626717,425.70207 34.4682353,429.368098 C35.1220588,433.744785 35.91,437.23272 36.5302941,440.049898 C37.6367647,444.946421 38.2067647,447.646217 36.765,449.390184 C35.8047824,450.362388 34.4507419,450.838586 33.0935294,450.681391 L33.0935294,464.884663 L33.2947059,465.152965 C35.1388235,467.668303 36.5638235,472.933742 34.5017647,475.096933 C34.1544745,475.464404 33.7141897,475.730959 33.2276471,475.868303 C34.9041176,497.533742 37.0164706,521.613906 37.6702941,524.011861 C38.2067647,525.923517 38.2402941,526.0409 51.0820588,526.594274 C53.4794118,526.694888 56.2791176,526.81227 59.5482353,526.979959 C77.3355882,527.835174 87.9476471,526.074438 90.8144118,525.504294 C91.2277489,523.576802 91.3967258,521.604909 91.3173529,519.635174 C91.63589,509.860926 93.4391671,500.192029 96.6652941,490.960327 C100.018235,482.173415 106.221176,450.899387 106.623529,446.740695 C106.687194,445.171999 107.412049,443.703646 108.618529,442.699387 C109.919578,441.753147 111.504746,441.279843 113.111471,441.357873 C114.640715,441.279212 116.146919,441.755601 117.352941,442.699387 C118.571654,443.713996 119.312771,445.190525 119.398235,446.774233 C119.800588,450.932924 126.003529,482.206953 129.356471,490.993865 C132.582598,500.225567 134.385875,509.894464 134.704412,519.668712 C134.59785,521.626169 134.755744,523.58906 135.173824,525.504294 L135.173824,525.537832 Z" id="Shape" fill="#8B8B8B" fill-rule="nonzero"></path>
                            </g>
                            <g id="Capa_2-2">
                                <path d="M227.161765,312.924744 C226.155882,293.154192 224.194412,283.998364 222.886765,277.928016 C222.438946,276.047429 222.09198,274.144235 221.847353,272.226585 C221.181389,263.796967 221.074979,255.332455 221.528824,246.888753 C223.456765,245.983231 224.613529,245.295706 224.747647,245.211861 C225.014664,245.051115 225.164881,244.750606 225.133235,244.440491 C225.133235,244.289571 224.077059,229.885072 222.417353,217.828221 C221.601113,211.151396 221.181259,204.432046 221.16,197.705521 C221.025882,192.171779 220.875,185.96728 220.321765,178.521881 C219.097941,162.172188 208.05,141.160736 194.152059,137.119427 C182.634706,133.765644 157.537941,124.173824 152.407941,122.195092 C152.516469,121.828453 152.516469,121.438214 152.407941,121.071575 C152.173235,120.333742 151.519412,120.015133 150.731471,119.629448 C150.060797,119.332186 149.425393,118.960972 148.837059,118.522699 C146.456471,116.745194 142.131176,110.138241 142.131176,109.987321 C142.030148,109.830974 141.874905,109.717499 141.695294,109.668712 L141.695294,89.6633947 C142.40137,88.6095648 142.996874,87.4856884 143.472353,86.3096115 C144.333639,83.8072113 144.962187,81.2306396 145.35,78.6126789 C149.859706,77.6400818 151.318235,72.8106339 152.726471,66.6229039 C153.967059,61.1394683 153.916765,52.4699387 152.005588,49.5018405 C151.648794,48.8747634 151.036834,48.4340417 150.329118,48.2944785 C149.458317,48.0850658 148.541155,48.1982505 147.747353,48.6130879 C147.898235,43.4482618 147.965294,38.5517382 147.931765,34.5775051 C147.797647,18.1271984 139.297941,11.1010225 131.351471,5.9194274 C123.170294,0.503067485 116.363824,0 113.513824,0 C110.663824,0 103.941176,0.503067485 95.5588235,5.95296524 C87.5955882,11.201636 79.1126471,18.1607362 78.9785294,34.6110429 C78.9785294,38.6188139 78.9785294,43.4817996 79.1629412,48.6466258 C78.3653338,48.2246408 77.4403016,48.1112212 76.5644118,48.3280164 C75.8584913,48.4717027 75.2480753,48.9113126 74.8879412,49.5353783 C72.9767647,52.5034765 72.9264706,61.1730061 74.1670588,66.6564417 C75.5752941,72.8441718 77.0505882,77.6736196 81.5435294,78.6462168 C81.9277427,81.2665003 82.5621129,83.8439255 83.4379412,86.3431493 C83.881422,87.5151351 84.443147,88.6388673 85.1144118,89.6969325 L85.1144118,109.702249 C84.9367737,109.75508 84.7828102,109.86762 84.6785294,110.020859 C84.6785294,110.020859 80.2861765,116.728425 77.9726471,118.556237 C77.3796343,118.987389 76.7450069,119.35815 76.0782353,119.662986 C75.3070588,120.048671 74.6532353,120.36728 74.4017647,121.105112 C74.3248898,121.390688 74.3248898,121.69152 74.4017647,121.977096 C71.4679412,123.117382 44.2252941,133.614724 32.0038235,137.152965 C18.2902941,141.194274 7.24235294,162.205726 6.01852941,178.555419 C5.46529412,185.950511 5.31441176,192.205317 5.18029412,197.739059 C5.15903464,204.465583 4.73918071,211.184933 3.92294118,217.861759 C2.24647059,229.918609 1.20705882,244.323108 1.19029412,244.474029 C1.1738634,244.785279 1.3280219,245.080823 1.59264706,245.245399 C3.04356344,246.094389 4.54388207,246.855936 6.08558824,247.525971 C6.52368201,255.768463 6.42287906,264.03078 5.78382353,272.260123 C5.53919648,274.177772 5.19223057,276.080966 4.74441176,277.961554 C2.27202614,289.463793 0.841236733,301.165538 0.469411765,312.924744 C-0.335294118,328.838446 0.0670588235,345.557055 0.469411765,358.988957 C0.704117647,368.69816 0.888529412,376.361554 0.469411765,380.537014 C0.0845230203,385.18662 0.264661002,389.865753 1.00588235,394.471984 C1.47451642,397.757366 1.76552793,401.065654 1.87764706,404.382413 C2.04529412,410.737832 3.11823529,420.547648 4.15764706,430.038855 C4.79470588,435.790593 5.38147059,441.206953 5.83411765,445.801636 C6.33705882,451.721063 7.51058824,459.66953 10.2935294,463.928834 C10.8132353,464.716973 11.5341176,465.907566 12.4058824,467.282618 C19.2626471,478.551329 22.0120588,482.156646 23.7891176,482.156646 L23.9567647,482.156646 C24.8554319,482.093129 25.6560047,481.565635 26.0691176,480.764826 C26.8402941,479.238855 26.2870588,476.790593 24.3926471,473.503885 C23.2526471,471.474847 21.4755882,468.473211 19.8661765,465.739877 C23.1950311,469.251235 26.7875725,472.502713 30.6123529,475.465849 L31.0482353,475.717382 C31.2997059,478.953783 34.6694118,522.100204 35.7088235,525.856442 C35.8432716,526.376451 36.0285771,526.881957 36.2620588,527.365644 C36.6811765,529.897751 41.7105882,560.802863 40.1179412,579.064213 C39.6652941,584.178732 38.9276471,589.846626 38.1397059,595.833129 C35.8932353,612.870348 33.345,632.188139 35.5076471,652.59591 C37.3685294,670.203272 42.2135294,695.155419 45.7341176,713.383231 C47.6620588,723.343967 49.1876471,731.225358 49.3385294,733.50593 C49.7073529,739.123517 48.0979412,751.264213 47.8129412,753.326789 C45.7877156,754.918287 43.8565282,756.625997 42.0291176,758.441309 C40.3526471,760.1182 37.2679412,768.502658 37.6032353,771.152147 L37.6032353,771.319836 C38.5823229,777.202649 38.168908,783.233129 36.3961765,788.927198 C34.5352941,794.1591 29.5897059,811.699387 44.2420588,817.098978 C47.7964198,818.374921 51.5472622,819.016301 55.3235294,818.993865 C60.7414092,819.082652 66.0861479,817.73456 70.8141176,815.086708 C74.5983351,813.098262 77.2391369,809.458497 77.9558824,805.243354 C78.4504614,801.193116 78.6912258,797.115895 78.6767647,793.035583 C78.6767647,787.50184 78.8276471,783.125153 80.655,781.129652 C84.2258824,777.239264 83.7564706,759.66544 80.7891176,755.003681 C80.3020797,753.823404 79.6894327,752.698999 78.9617647,751.649898 C79.4647059,747.692434 77.5535294,734.662986 76.5308824,729.565235 C75.3238235,723.561963 78.8947059,695.373415 82.5326471,677.916973 C85.8855882,661.667894 86.2711765,627.878528 83.2367647,610.941922 C80.94,598.113701 84.9132353,588.370961 88.1320588,580.539877 C88.9535294,578.561145 89.7247059,576.666258 90.3282353,574.888753 C93.2452941,566.303067 93.2788235,531.7591 93.2788235,528.489162 C93.7314706,527.73456 94.3182353,525.806135 94.3182353,520.892843 C94.625919,511.385895 96.3841518,501.981794 99.5320588,493.006135 C102.885,484.085072 109.238824,452.358282 109.590882,448.132515 C109.620756,447.258474 110.016119,446.43713 110.680588,445.868712 C111.477897,445.306515 112.438562,445.023549 113.413235,445.063804 L113.832353,445.063804 C114.695849,445.040722 115.543344,445.299743 116.246471,445.801636 C116.924036,446.390326 117.325116,447.235238 117.352941,448.132515 C117.755294,452.358282 124.058824,484.085072 127.411765,493.006135 C130.538211,501.951554 132.284986,511.320917 132.592059,520.792229 C132.531754,522.890808 132.711749,524.989396 133.128529,527.047035 C133.128529,528.623313 133.128529,565.95092 136.095882,574.77137 C136.716176,576.63272 137.504118,578.577914 138.359118,580.65726 C141.527647,588.438037 145.467353,598.113701 143.187353,610.841309 C140.152941,627.777914 140.505,661.584049 143.891471,677.81636 C147.529412,695.272802 151.100294,723.46135 149.91,729.464622 C148.837059,734.797137 146.875588,748.044581 147.495882,751.498978 C146.755426,752.581514 146.131654,753.739435 145.635,754.953374 C142.684412,759.615133 142.282059,777.188957 145.769118,781.079346 C147.613235,783.074847 147.680294,787.451534 147.747353,792.985276 C147.741277,797.065352 147.982011,801.142057 148.468235,805.193047 C149.184981,809.40819 151.825783,813.047955 155.61,815.036401 C160.338565,817.682758 165.682894,819.030746 171.100588,818.943558 C174.882481,818.967961 178.639168,818.326553 182.198824,817.048671 C196.851176,811.64908 191.905588,794.108793 190.044706,788.876892 C188.280553,783.181218 187.867277,777.15276 188.837647,771.26953 L188.837647,771.10184 C189.172941,768.435583 186.121765,760.168507 184.428529,758.391002 C182.512915,756.494888 180.486406,754.714248 178.359706,753.058487 C178.125,750.861759 176.683235,737.681391 177.102353,732.030266 C177.253235,729.783231 178.778824,721.968916 180.706765,711.907566 C184.244118,693.679755 189.089118,668.727607 190.933235,651.120245 C193.095882,630.712474 190.547647,611.394683 188.301176,594.357464 C187.513235,588.370961 186.775588,582.703067 186.322941,577.588548 C184.646471,558.656442 191.184706,526.074438 191.251765,525.739059 C192.274412,521.798364 195.493235,480.949284 195.878824,475.968916 C196.247117,475.817275 196.600668,475.632035 196.935,475.415542 C200.750228,472.447245 204.336818,469.196081 207.664412,465.689571 C205.987941,468.389366 204.311471,471.42454 203.137941,473.453579 C201.293824,476.807362 200.740588,479.188548 201.461471,480.714519 C201.874584,481.515328 202.675156,482.042822 203.573824,482.106339 L203.741471,482.106339 C205.518529,482.106339 208.267941,478.501022 215.124706,467.232311 C215.996471,465.823722 216.801176,464.61636 217.237059,463.878528 C220.003235,459.619223 221.193529,451.670757 221.696471,445.751329 C222.098824,441.156646 222.685588,435.68998 223.372941,429.988548 C224.412353,420.497342 225.485294,410.670757 225.669706,404.332106 C225.765952,401.0144 226.057042,397.705219 226.541471,394.421677 C227.267722,389.81385 227.442189,385.13585 227.061176,380.486708 C226.709118,376.311247 226.893529,368.647853 227.061176,358.955419 C227.564118,345.573824 228,328.855215 227.161765,312.924744 Z M196.147059,408.356646 C196.156888,399.728261 195.557456,391.109955 194.353235,382.566053 C192.810882,373.141922 190.564412,363.835174 189.491471,359.642945 C189.878232,359.717906 190.271057,359.757199 190.665,359.760327 C191.11751,359.792546 191.567343,359.668219 191.939118,359.40818 C192.352379,359.111653 192.586171,358.624991 192.559412,358.116973 C192.559412,357.211452 191.855294,353.941513 190.38,347.217178 C187.295294,333.097751 181.528235,306.80409 180.321176,288.660123 C180.069706,284.702658 179.801471,281.214724 179.566765,278.078937 C178.259118,260.790184 177.772941,254.334151 183.020294,238.906748 C183.288529,238.118609 183.556765,237.229857 183.841765,236.374642 C183.841765,241.254397 183.607059,247.978732 183.489706,251.198364 C183.475873,251.62003 183.777433,251.986303 184.193824,252.053579 C184.193824,252.053579 185.602059,252.271575 187.831765,252.439264 C187.982647,257.838855 188.854412,287.804908 190.614706,299.962372 C191.184706,303.886299 196.398529,339.000409 202.35,359.609407 C207.245294,376.478937 207.379412,393.44908 204.345,396.802863 C201.154401,400.307628 198.401563,404.187345 196.147059,408.356646 Z M23.3029412,396.802863 C20.2014706,393.44908 20.4194118,376.478937 25.3147059,359.609407 C31.2829412,339.000409 36.4967647,303.886299 37.05,299.962372 C38.8270588,287.721063 39.6988235,257.386094 39.8329412,252.321881 C41.2747059,252.18773 42.1464706,252.053579 42.18,252.053579 C42.5925362,251.979652 42.8906859,251.617522 42.8841176,251.198364 C42.7164706,246.486299 42.3644118,234.194683 42.6158824,231.276892 C42.6158824,231.025358 42.6997059,230.740286 42.75,230.505521 C48.6511765,251.952965 49.1205882,264.143967 47.4944118,288.878119 C46.2873529,307.139468 39.7491176,333.433129 36.2117647,347.569325 C35.2118984,351.04219 34.4114731,354.569424 33.8144118,358.133742 C33.7938036,358.640509 34.0262646,359.124401 34.4347059,359.424949 C35.0717647,359.894479 36.1111765,359.87771 37.6367647,359.424949 C36.5973529,363.550102 34.2838235,372.974233 32.7414706,382.532515 C31.5401834,390.710869 30.9462053,398.966996 30.9644118,407.233129 C28.7866244,403.495091 26.2184221,399.998761 23.3029412,396.802863 Z M7.59441176,244.205726 C7.59441176,244.205726 7.59441176,243.350511 7.59441176,241.97546 C12.5591722,244.353621 17.9171425,245.802853 23.4035294,246.251534 C29.7908824,246.888753 34.1329412,247.073211 37.0332353,247.073211 L38.7935294,247.073211 C38.5755882,248.750102 38.4247059,250.007771 38.3408824,250.728834 C33.0104906,251.145576 27.6514741,251.016343 22.3473529,250.343149 C17.3321397,249.654776 12.4321285,248.295514 7.77882353,246.30184 C7.62794118,245.463395 7.59441176,244.272802 7.59441176,244.272802 L7.59441176,244.205726 Z M8.38235294,215.128425 C9.04200089,209.605793 9.09259901,204.027355 8.53323529,198.493661 C7.97034745,192.018195 7.91989631,185.508364 8.38235294,179.024949 C9.57264706,163.262168 20.4864706,142.837628 33.345,139.09816 C45.0802941,135.744376 71.0488235,125.683027 75.4914706,124.006135 C77.1679412,126.806544 80.1855882,131.786912 91.8538235,137.136196 C98.35995,140.287709 105.412439,142.155181 112.625294,142.636401 L108.970588,347.233947 C99.4817647,347.737014 71.7361765,349.480982 59.1794118,351.778323 C53.4090943,352.888383 47.7275166,354.418423 42.18,356.356237 L40.0005882,357.060532 C40.2520588,355.551329 41.3585294,351.090798 42.5823529,346.043354 C46.4382353,330.01227 53.7476471,300.163599 54.9547059,281.717791 C56.3964706,259.9182 54.1332353,253.629857 49.6235294,241.120245 C48.8020588,238.856442 47.9470588,236.374642 46.9579412,233.540695 C40.755,215.36319 32.8085294,173.709202 32.7247059,173.28998 L32.0708824,173.407362 L31.9870588,172.954601 L30.3105882,173.256442 C30.3105882,173.608589 36.5973529,207.31411 41.7273529,226.648671 C41.5094118,227.755419 41.2747059,229.096933 41.0232353,230.572597 C41.0232353,230.572597 41.0232353,230.757055 41.0232353,230.857669 C40.2855882,235.385276 39.5144118,241.103476 38.9611765,245.362781 C33.7877754,245.469485 28.6129777,245.234208 23.4705882,244.658487 C17.8808497,244.20434 12.4350655,242.654522 7.44352941,240.097342 C7.15701962,231.762619 7.47077178,223.418078 8.38235294,215.128425 Z M114.620294,126.571779 L116.296765,126.571779 L116.062059,140.858896 C115.458529,140.858896 114.989118,140.959509 114.586765,140.976278 L114.586765,126.571779 L114.620294,126.571779 Z M151.200882,124.559509 C154.553824,125.884254 181.545,136.297751 193.649118,139.752147 C206.507647,143.474847 217.438235,163.899387 218.611765,179.678937 C219.074246,186.156756 219.023795,192.661017 218.460882,199.130879 C217.89912,204.670429 217.955348,210.255303 218.628529,215.782413 C219.451448,222.745525 219.888,229.748898 219.936176,236.760327 C215.908582,239.330775 211.563529,241.36574 207.010588,242.813906 C200.925922,244.3979 194.61457,244.925397 188.351471,244.373415 C187.597059,239.611043 186.574412,233.47362 185.736176,229.281391 C190.631471,209.544376 195.191471,178.974642 195.912353,174.044581 C195.912353,173.876892 195.912353,173.759509 195.912353,173.74274 C195.902143,173.614381 195.902143,173.485414 195.912353,173.357055 L194.235882,173.12229 C194.189446,173.332456 194.155854,173.545257 194.135294,173.759509 C193.397647,177.633129 185.887059,216.335787 179.985882,233.674847 C173.699118,252.120654 171.352059,259.012679 173.028529,284.786503 C174.235588,303.232311 180.991765,331.420859 184.612941,346.613497 C185.836765,351.761554 186.909706,356.222086 187.043824,357.362372 L184.126765,356.423313 C178.57867,354.487373 172.89723,352.957371 167.127353,351.845399 C154.017353,349.464213 121.711765,347.602863 113.480294,347.217178 L117.705,142.384867 C123.743668,141.523251 129.620084,139.765535 135.140294,137.169734 C146.121176,132.155828 149.490882,127.443763 151.200882,124.559509 Z M177.84,278.196319 C178.074706,281.332106 178.342941,284.820041 178.594412,288.777505 C179.801471,307.038855 185.568529,333.41636 188.653235,347.586094 C189.843529,353.035992 190.782353,357.362372 190.866176,358.049898 C190.208507,358.133783 189.540304,358.053117 188.921471,357.815133 C188.890716,357.667678 188.851534,357.522109 188.804118,357.379141 C188.804118,356.322699 187.982647,353.086299 186.322941,346.160736 C182.718529,331.068712 175.979118,302.846626 174.788824,284.618814 C173.112353,259.180368 175.442647,252.355419 181.645588,234.144376 C182.316176,232.23272 182.986765,230.035992 183.674118,227.654806 C183.774706,228.124335 183.875294,228.627403 183.975882,229.164008 C183.104118,232.651943 182.299412,235.871575 181.360588,238.353374 C176.029412,254.116155 176.549118,261.1591 177.84,278.196319 Z M45.7676471,235.3182 C46.5723529,237.665849 47.3435294,239.795501 48.0476471,241.757464 C52.6076471,254.417996 54.7535294,260.203272 53.2782353,281.684254 C52.0879412,299.928834 44.7952941,329.660123 40.8723529,345.6409 C39.0952941,352.918609 38.2738235,356.322699 38.2067647,357.379141 L38.2067647,357.597137 C37.3732658,357.943863 36.4772895,358.115112 35.5747059,358.101101 C35.5747059,357.362372 36.6644118,353.06953 37.9385294,347.938241 C41.4591176,333.768507 47.9973529,307.391002 49.2547059,288.978732 C50.6797059,266.122699 50.4114706,253.881391 45.7676471,235.3182 Z M184.579412,224.519018 C185.652353,220.595092 186.742059,216.302249 187.781471,211.925562 C186.859412,216.620859 185.903824,221.265849 184.897941,225.525153 C184.813655,225.183231 184.707254,224.847145 184.579412,224.519018 Z M185.283529,245.798773 L186.96,245.966462 C187.245,247.777505 187.496471,249.420859 187.697647,250.745603 C186.607941,250.661759 185.752941,250.561145 185.199706,250.49407 C185.166176,249.55501 185.233235,247.844581 185.283529,245.798773 Z M185.283529,244.121881 C185.283529,241.841309 185.384118,239.34274 185.400882,237.095706 C185.803235,239.476892 186.205588,241.941922 186.574412,244.239264 L185.283529,244.121881 Z M111.904412,347.116564 L110.647059,347.116564 L114.352059,142.669939 L116.028529,142.569325 L111.904412,347.116564 Z M41.1908824,250.527607 L39.9502941,250.661759 C40.0844118,249.638855 40.2352941,248.414724 40.4197059,247.056442 L41.0902941,247.056442 C41.1238235,248.4818 41.1741176,249.739468 41.1908824,250.49407 L41.1908824,250.527607 Z M41.04,245.312474 L40.6376471,245.312474 C40.7382353,244.490798 40.8555882,243.635583 40.9729412,242.763599 C40.9897059,243.618814 41.0232353,244.474029 41.04,245.278937 L41.04,245.312474 Z M189.340588,250.896524 C189.223235,250.041309 188.955,248.31411 188.619706,246.117382 C189.994412,246.201227 191.620588,246.268303 193.397647,246.268303 C198.161817,246.359005 202.913126,245.743045 207.496765,244.440491 C211.867985,243.061945 216.056143,241.158783 219.969706,238.772597 C219.969706,242.730061 219.969706,245.480164 219.969706,245.480164 C219.969706,245.580777 219.969706,245.681391 219.969706,245.798773 C214.935092,248.097912 209.592552,249.651366 204.110294,250.410225 C199.211811,251.019767 194.267195,251.171342 189.340588,250.862986 L189.340588,250.896524 Z M221.646176,244.993865 C221.646176,243.903885 221.646176,241.220859 221.646176,237.716155 L222.836471,236.894479 C223.155,240.348875 223.356176,242.998364 223.44,244.071575 C223.054412,244.239264 222.450882,244.574642 221.646176,244.960327 L221.646176,244.993865 Z M222.652059,234.932515 L221.595882,235.670348 C221.521158,228.944176 221.084644,222.226899 220.288235,215.547648 C219.876649,212.603909 219.702852,209.631785 219.768529,206.660123 C219.936176,210.449898 220.221176,214.172597 220.757647,218.062986 C221.528824,223.730879 222.182647,229.935378 222.652059,234.915746 L222.652059,234.932515 Z M147.915,119.897751 C148.587868,120.390279 149.306459,120.81705 150.060882,121.172188 C150.331125,121.29091 150.594218,121.425289 150.848824,121.574642 C150.778745,121.93784 150.629963,122.28127 150.412941,122.580777 L150.178235,122.983231 C148.686176,125.565644 145.936765,130.395092 134.436176,135.643763 C129.122016,138.126573 123.474405,139.821282 117.671471,140.674438 L117.956471,126.538241 C122.013382,126.527278 126.018781,125.628698 129.691765,123.905521 L132.24,122.865849 C137.437059,120.870348 140.370882,115.319836 141.577941,112.452352 L141.695294,112.452352 C143.459701,115.176742 145.548212,117.676827 147.915,119.897751 Z M150.127941,49.9713701 C150.36091,50.0612485 150.55213,50.2345854 150.664412,50.4576687 C152.156471,52.7717791 152.340882,60.7537832 151.150588,66.2875256 C149.977059,71.5026585 148.77,75.6278119 145.702059,76.7848671 C146.835209,68.3078239 147.529078,59.7778106 147.780882,51.2290389 C147.916117,50.7448094 148.2431,50.3367775 148.686169,50.0993595 C149.129238,49.8619416 149.649996,49.8157128 150.127941,49.9713701 Z M80.6717647,34.6110429 C80.7891176,18.999182 88.8529412,12.3586912 96.4976471,7.36155419 C101.168645,4.08294796 106.634403,2.11964579 112.323529,1.67689162 C112.323529,1.67689162 112.776176,1.67689162 113.497059,1.67689162 C113.904582,1.65078157 114.313359,1.65078157 114.720882,1.67689162 C120.41258,2.10675476 125.884233,4.05851167 130.563529,7.32801636 C138.141176,12.3586912 146.255294,18.9656442 146.389412,34.5775051 C146.389412,39.5075665 146.389412,45.393456 146.087647,51.4302658 C146.056654,53.0715149 145.865751,54.7058314 145.517647,56.3100204 C144.931682,54.8339997 144.482731,53.3071826 144.176471,51.7488753 C143.891289,49.9265952 143.701033,48.0907151 143.606471,46.2486708 C142.902353,37.2102249 141.745588,22.0846626 135.022941,19.3010225 C127.193824,16.0813906 115.458529,16.1316973 113.865882,16.1652352 C113.312647,16.1652352 100.252941,15.9137014 92.0717647,19.3010225 C83.8905882,22.6883436 83.2702941,43.4314928 83.0355882,50.3067485 L83.0355882,51.4638037 C83.0927359,53.1055331 82.8425566,54.7434812 82.2979412,56.2932515 C81.792585,55.8672538 81.3960362,55.3268923 81.1411765,54.7169734 C80.7555882,47.5231084 80.6214706,40.4130879 80.6717647,34.6110429 Z M75.8938235,66.2875256 C74.6364706,60.7537832 74.8879412,52.7717791 76.38,50.4576687 C76.4922818,50.2345854 76.6835021,50.0612485 76.9164706,49.9713701 C77.3966499,49.8111139 77.9217751,49.8572707 78.3666532,50.0988367 C78.8115313,50.3404026 79.1362989,50.7557319 79.2635294,51.2458078 C79.5160003,59.7889727 80.2098675,68.3133694 81.3423529,76.7848671 C78.2744118,75.6278119 77.1176471,71.5026585 75.8938235,66.2875256 Z M81.2417647,57.6179959 C81.5227446,57.8289342 81.8628747,57.9462499 82.2141176,57.9533742 L82.4991176,57.9533742 C83.8402941,57.7018405 84.4605882,55.8404908 84.6617647,51.5308793 L84.6617647,50.3570552 C85.2988235,32.7329243 88.0147059,22.8224949 92.6752941,20.8773006 C100.185882,17.7750511 112.524706,17.8588957 113.664706,17.8756646 C113.782059,17.8756646 126.439412,17.6408998 134.285294,20.8773006 C140.052353,23.2752556 141.209118,38.3337423 141.829412,46.4163599 C141.941463,48.3338591 142.165373,50.2431764 142.5,52.1345603 C143.740588,57.3832311 144.545294,58.5067485 145.567941,58.5067485 L145.752353,58.5067485 C145.081765,69.9599182 143.857941,80.8597137 141.963529,85.7394683 C139.331471,92.4470348 130.462941,98.7521472 125.198824,102.508384 C123.958235,103.380368 122.885294,104.185276 122.147647,104.705112 C119.744459,106.477788 116.949766,107.645412 114,108.109202 C110.730708,107.712037 107.606763,106.526596 104.896765,104.654806 C104.159118,104.084663 103.102941,103.330061 101.845588,102.458078 C96.5479412,98.7521472 87.6794118,92.5308793 85.0808824,85.6891616 C83.1361765,80.7255624 81.9123529,69.3897751 81.2417647,57.6179959 Z M100.923529,103.833129 C102.147353,104.688344 103.17,105.409407 103.890882,105.97955 C106.873277,108.068957 110.331507,109.377649 113.949706,109.786094 L114.134118,109.786094 C117.40607,109.290407 120.501426,107.981613 123.136765,105.97955 C123.857647,105.409407 124.897059,104.688344 126.120882,103.833129 C130.094118,101.03272 136.045588,96.8740286 140.052353,91.9775051 L140.052353,111.815133 C138.929118,114.431084 136.23,119.545603 131.67,121.306339 C130.714412,121.675256 129.876176,122.027403 129.071471,122.362781 C125.282647,124.039673 122.784706,124.995501 114.670588,124.894888 C108.242435,125.23934 101.82177,124.09148 95.9108824,121.541104 L95.4582353,121.356646 C90.8982353,119.679755 88.1991176,114.481391 87.0758824,111.86544 L87.0758824,92.0278119 C90.9820588,96.8740286 96.9335294,101.03272 100.923529,103.833129 Z M76.9835294,121.172188 C77.7416703,120.814066 78.4655547,120.387484 79.1461765,119.897751 C81.5092349,117.64066 83.5918824,115.107075 85.3491176,112.351738 L85.5,112.351738 C86.7070588,115.219223 89.6408824,120.736196 94.8379412,122.765235 L95.2905882,122.949693 C100.852645,125.381933 106.874495,126.583174 112.943824,126.471166 L112.943824,140.892434 C105.895944,140.429269 99.0031357,138.613118 92.6417647,135.543149 C81.1411765,130.294479 78.3917647,125.4818 76.8997059,122.882618 L76.665,122.480164 C76.471864,122.183346 76.3196108,121.861842 76.2123529,121.524335 C76.455754,121.379079 76.7143619,121.260989 76.9835294,121.172188 Z M5.58264706,217.99591 C6.38870001,211.317956 6.81409386,204.599524 6.85676471,197.873211 L6.85676471,198.66135 C7.39501571,204.061588 7.34442407,209.504367 6.70588235,214.893661 C5.79781744,222.936708 5.4616786,231.034084 5.7,239.124744 C4.88662953,238.626466 4.11313225,238.06582 3.38647059,237.447853 C3.92294118,232.148875 4.66058824,224.703476 5.58264706,217.99591 Z M2.90029412,243.970961 C2.90029412,243.182822 3.10147059,241.556237 3.28588235,239.393047 C4.08866736,240.011651 4.93464824,240.572044 5.81735294,241.069939 C5.81735294,243.031902 5.91794118,244.256033 5.91794118,244.289571 C5.91794118,244.289571 5.91794118,244.792638 6.00176471,245.496933 C4.52647059,244.91002 3.45352941,244.339877 2.90029412,244.038037 L2.90029412,243.970961 Z M17.5694118,461.145194 C16.1611765,459.719836 15.39,458.931697 14.9205882,458.512474 L11.0647059,441.022495 L9.38823529,441.391411 L13.4117647,459.082618 C13.4646256,459.323377 13.616891,459.53051 13.8308824,459.652761 C14.0152941,459.803681 14.4679412,460.239673 15.0044118,460.793047 C15.5073529,461.631493 20.6373529,470.150102 23.0011765,474.3591 C25.1805882,478.23272 24.7614706,479.691616 24.6776471,480.043763 C24.5226568,480.321248 24.239901,480.503515 23.9232353,480.530061 C22.2467647,480.177914 16.4294118,470.569325 13.8644118,466.460941 C12.9926471,465.018814 12.1879412,463.811452 11.7352941,463.023313 C9.72352941,459.921063 8.23147059,453.750102 7.54411765,445.650716 C7.14176471,441.039264 6.53823529,435.589366 5.86764706,429.854397 C4.82823529,420.396728 3.75529412,410.62045 3.58764706,404.348875 C3.47091602,400.981652 3.17431639,397.623077 2.69911765,394.287526 C1.97818763,389.797519 1.80368126,385.236691 2.17941176,380.704703 C2.53147059,376.445399 2.34705882,368.731697 2.17941176,358.988957 C1.84411765,345.573824 1.44176471,328.905521 2.17941176,313.058896 C3.15176471,293.456033 5.02941176,284.300204 6.38735294,278.364008 C6.84920993,276.422488 7.2073642,274.457743 7.46029412,272.478119 C8.06979086,264.393351 8.18736064,256.278998 7.81235294,248.179959 C12.3734749,250.058888 17.1570496,251.343846 22.0455882,252.003272 C25.3808556,252.436871 28.7411044,252.64974 32.1044118,252.640491 C34.4682353,252.640491 36.5135294,252.539877 38.1564706,252.422495 C38.0055882,258.006544 37.1338235,287.637219 35.3902941,299.660532 C34.8202941,303.584458 29.6232353,338.581186 23.655,359.089571 C18.8770588,375.523108 18.1226471,393.667076 21.9785294,397.892843 C25.6982287,401.851681 28.7602208,406.380717 31.0482353,411.307975 C31.8204758,413.92792 32.0766893,416.672942 31.8026471,419.390593 C31.6524049,423.217151 31.837524,427.049518 32.3558824,430.843763 C33.0264706,435.321063 33.8144118,438.876074 34.4514706,441.726789 C35.2729412,445.415951 35.8764706,448.098978 35.2058824,448.887117 C34.9544118,449.188957 34.3341176,449.323108 33.3952941,449.272802 C29.8411765,449.105112 27.36,445.047035 26.2535294,437.53456 C25.8528483,433.808468 24.7129511,430.199788 22.9005882,426.919836 L22.0623529,425.242945 C21.9050891,424.913154 21.5524165,424.723205 21.1905882,424.773415 C20.8241651,424.822922 20.5359646,425.111194 20.4864706,425.47771 C19.5175965,431.338368 18.9852498,437.262913 18.8938235,443.202454 C19.2377429,447.918129 20.0578018,452.586896 21.3414706,457.137423 C21.3821641,457.285385 21.4634694,457.418992 21.5761765,457.523108 C25.1112495,460.778165 28.4690248,464.220749 31.635,467.835992 C33.2108824,469.982413 33.8311765,473.73865 33.06,474.543558 C32.7917647,474.811861 32.0541176,474.543558 31.3835294,474.074029 C28.2317647,471.910838 21.3079412,464.867894 17.5694118,461.145194 Z M23.0179412,456.516973 C22.9005882,456.097751 22.6155882,455.091616 22.3138235,453.750102 C24.7207374,456.492611 27.6954312,458.678415 31.0314706,460.155828 L31.0314706,464.498978 C28.1982353,461.379959 23.94,457.33865 23.0179412,456.449898 L23.0179412,456.516973 Z M31.0314706,458.344785 C27.2865909,456.397357 24.0442899,453.607704 21.5594118,450.195092 C21.1639229,448.144871 20.8896234,446.07311 20.7379412,443.990593 C22.0227623,446.047531 23.5541165,447.939679 25.2979412,449.624949 C26.9744118,451.167689 30.0255882,453.498569 31.0314706,454.25317 L31.0314706,458.344785 Z M31.0314706,450.53047 L31.0314706,452.207362 C29.6902941,451.184458 27.6785294,449.574642 26.4379412,448.467894 C24.15648,446.175116 22.2246234,443.55911 20.7044118,440.703885 C20.8217647,436.662577 21.4420588,431.631902 21.8611765,428.579959 C23.3960254,431.505424 24.352317,434.699557 24.6776471,437.987321 C25.8847059,446.103476 28.5167647,449.423722 31.0985294,450.597546 L31.0314706,450.53047 Z M79.3641176,755.858896 C81.9123529,759.66544 82.4655882,776.702658 79.3641176,780.006135 C77.1176471,782.471166 77.1176471,787.116155 77.1176471,793.002045 C77.1309314,797.020502 76.8957768,801.035935 76.4135294,805.025358 C75.7216013,808.717769 73.3816971,811.891945 70.0597059,813.644581 C63.3538235,817.719427 52.9597059,818.490798 44.9126471,815.522699 C31.7020588,810.659714 36.3291176,794.360327 38.0726471,789.480573 C39.9351144,783.516787 40.3771834,777.19993 39.3635294,771.034765 L39.3635294,770.867076 C39.1120588,768.905112 41.8614706,761.074029 43.3367647,759.531288 C45.7476063,757.189104 48.3067242,755.004626 50.9982353,752.991411 C51.0951633,752.90881 51.1798369,752.812822 51.2497059,752.706339 C52.0208824,751.180368 54.6026471,747.021677 56.6144118,745.998773 C58.6603821,745.138236 60.867044,744.726528 63.0855882,744.791411 C65.8341679,744.724282 68.5606036,745.298412 71.0488235,746.468303 C74.8242058,748.418076 77.7920725,751.636051 79.4311765,755.557055 L79.3641176,755.858896 Z M74.9214706,729.833538 C76.1725556,736.352767 77.0068944,742.945139 77.4194118,749.570552 C75.8161067,747.732166 73.8755438,746.218033 71.7026471,745.11002 C66.6939283,742.750387 60.936516,742.550343 55.7761765,744.556646 C53.01,745.931697 50.2773529,750.84499 49.7408824,751.834356 C50.6360085,745.72678 51.0786845,739.561388 51.0652941,733.388548 C50.8976471,731.0409 49.3888235,723.511656 47.4273529,713.09816 C46.0358824,705.921063 44.46,697.721063 42.9176471,689.336605 C48.9892468,690.581054 55.1621616,691.265858 61.3588235,691.382413 C67.3555703,691.24833 73.2946685,690.179023 78.9617647,688.213088 C76.2458824,704.294479 73.8485294,724.517791 74.9214706,729.833538 Z M88.8529412,574.30184 C88.2661765,575.978732 87.5117647,577.890389 86.6902941,579.869121 C83.3373529,587.884663 79.3138235,597.878937 81.6608824,611.176687 C84.6785294,627.945603 84.3264706,661.483436 80.9735294,677.514519 C80.4370588,680.13047 79.8670588,683.115337 79.2970588,686.3182 C73.5382197,688.377374 67.4891687,689.509379 61.3755882,689.671984 C55.0467542,689.546208 48.7436211,688.827594 42.5488235,687.525562 C40.3191176,675.166871 38.2570588,662.556646 37.1673529,652.411452 C35.0382353,632.204908 37.5697059,613.004499 39.7994118,596.051125 C40.5873529,590.047853 41.3417647,584.312883 41.7944118,579.282209 C43.2026471,562.932515 39.4138235,536.70593 38.2402941,529.109611 C40.2185294,529.847444 43.9067647,530.015133 51.4844118,530.333742 L59.8667647,530.719427 C63.3705882,530.887117 66.5726471,530.970961 69.54,530.970961 C76.9139272,531.11192 84.2845262,530.550423 91.5520588,529.29407 C91.6526471,538.382822 91.2502941,567.024131 88.8529412,574.30184 Z M129.088235,492.452761 C125.735294,483.615542 119.482059,452.207362 119.029412,448.015133 C118.983147,446.669063 118.375086,445.403977 117.352941,444.527198 C116.286893,443.747464 114.983233,443.362195 113.664706,443.437219 C112.253202,443.36586 110.858995,443.773591 109.708235,444.594274 C108.717552,445.438314 108.112417,446.648888 108.031765,447.948057 C107.629412,452.140286 101.325882,483.548466 97.9729412,492.385685 C94.7782019,501.525535 92.9918912,511.098267 92.6752941,520.77546 C92.8307425,522.99545 92.5981439,525.225552 91.9879412,527.365644 C90.1102941,527.751329 79.1461765,529.880982 60.0344118,528.941922 L51.5514706,528.556237 C38.4247059,527.986094 38.0223529,527.902249 37.3182353,525.370143 C36.5302941,522.502658 33.9652941,492.486299 32.775,476.253988 L32.8755882,476.253988 C33.4323703,476.262177 33.9672361,476.037234 34.3508824,475.633538 C36.0273529,473.856033 34.7364706,469.026585 33.0767647,466.762781 L32.7079412,466.293252 L32.7079412,450.882618 C32.9367907,450.898296 33.1664446,450.898296 33.3952941,450.882618 C34.5530699,451.065782 35.7301809,450.700166 36.5805882,449.893252 C37.7876471,448.467894 37.2008824,445.919018 36.1782353,441.290798 C35.5411765,438.456851 34.7532353,434.952147 34.0994118,430.541922 C33.5815245,426.837652 33.4019595,423.093903 33.5629412,419.357055 C33.8201207,416.487881 33.5241756,413.595999 32.6911765,410.838446 L32.5905882,410.653988 C32.4241838,401.379115 32.9847234,392.105461 34.2670588,382.9182 C35.9435294,372.856851 38.3744118,362.946421 39.2964706,359.307566 C39.4580593,359.325028 39.6210583,359.325028 39.7826471,359.307566 C41.416136,359.088975 43.0122655,358.648942 44.5270588,357.999591 C49.6052637,356.178272 54.8258286,354.781659 60.135,353.824131 C74.5358824,351.20818 109.289118,349.296524 112.725882,349.162372 C116.548235,349.313292 152.793529,351.224949 166.909412,353.824131 C172.225957,354.818975 177.451778,356.249146 182.534118,358.100204 C184.002341,358.722537 185.547232,359.145515 187.127647,359.357873 C187.283639,359.375179 187.441067,359.375179 187.597059,359.357873 C188.535882,362.996728 190.95,372.907157 192.626471,382.951738 C193.913312,392.81889 194.473644,402.767277 194.302941,412.716564 C193.940741,414.994853 193.82831,417.305888 193.967647,419.608589 C194.128998,423.351015 193.949433,427.100363 193.431176,430.810225 C192.777353,435.22045 191.989412,438.725153 191.369118,441.5591 C190.329706,446.187321 189.692647,448.736196 190.95,450.161554 C191.800407,450.968469 192.977518,451.334085 194.135294,451.15092 L194.235882,451.15092 L194.235882,467.332924 C192.693529,469.71411 191.587059,474.141104 193.179706,475.834765 C193.448997,476.110988 193.792568,476.303203 194.168824,476.388139 C192.911471,492.603681 190.413529,522.670348 189.625588,525.554601 C188.921471,528.086708 188.519118,528.170552 175.392353,528.740695 L166.926176,529.12638 C147.898235,530.06544 136.950882,527.969325 135.073235,527.550102 C134.434082,525.415542 134.189785,523.182221 134.352353,520.959918 C134.058428,511.244924 132.283267,501.631768 129.088235,492.452761 Z M196.029706,460.222904 L196.029706,460.323517 C199.605373,458.841284 202.785669,456.544465 205.317353,453.615951 C204.998824,454.957464 204.730588,455.963599 204.613235,456.382822 C203.607353,457.321881 198.795882,461.916564 195.996176,465.035583 L196.029706,460.222904 Z M206.088529,450.161554 C203.484141,453.748937 200.027037,456.630581 196.029706,458.546012 L196.029706,454.437628 C198.224227,452.932655 200.339409,451.315086 202.366765,449.591411 C204.100695,447.901512 205.625975,446.009915 206.91,443.957055 C206.751471,446.028668 206.471579,448.089195 206.071765,450.128016 L206.088529,450.161554 Z M201.226765,448.36728 C199.969412,449.507566 197.538529,451.30184 196.029706,452.39182 L196.029706,450.714928 C198.762353,449.7591 201.679412,446.573006 202.970294,437.886708 C203.295624,434.598943 204.251916,431.40481 205.786765,428.479346 C206.205882,431.531288 206.826176,436.561963 206.943529,440.603272 C205.408632,443.447793 203.465678,446.052231 201.176471,448.333742 L201.226765,448.36728 Z M183.305294,759.631902 C184.780588,761.174642 187.53,769.005726 187.278529,770.967689 L187.278529,771.135378 C186.247834,777.299738 186.690181,783.620573 188.569412,789.581186 C190.245882,794.460941 194.923235,810.760327 181.712647,815.623313 C173.682353,818.591411 163.271471,817.820041 156.565588,813.745194 C153.24028,811.996418 150.899026,808.820411 150.211765,805.125971 C149.737878,801.135803 149.502753,797.120879 149.507647,793.102658 C149.423824,787.216769 149.356765,782.571779 147.093529,780.106748 C144.075882,776.752965 144.629118,759.766053 147.177353,755.959509 L147.177353,755.775051 C148.82134,751.857184 151.787842,748.640687 155.559706,746.686299 C158.048514,745.518164 160.774531,744.944122 163.522941,745.009407 C165.741607,744.942953 167.9486,745.354724 169.994118,746.216769 C172.072941,747.256442 174.587647,751.415133 175.375588,752.924335 C175.433809,753.034215 175.513645,753.131182 175.610294,753.209407 C178.309791,755.18366 180.880056,757.328885 183.305294,759.631902 Z M179.164412,711.706339 C177.152647,722.119836 175.694118,729.64908 175.543235,731.996728 C175.489334,738.513125 175.842079,745.026536 176.599412,751.498978 C175.794706,750.023313 173.246471,745.831084 170.782059,744.573415 C165.615785,742.568249 159.853713,742.768245 154.838824,745.126789 C152.662906,746.230477 150.717058,747.738603 149.105294,749.570552 C149.505654,742.942207 150.351387,736.348313 151.636765,729.833538 C152.692941,724.517791 150.295588,704.160327 147.596471,688.129243 C153.849651,690.066646 160.333347,691.160692 166.875882,691.382413 C172.465641,691.339348 178.028773,690.607173 183.439412,689.202454 C181.980882,697.134151 180.488824,704.864622 179.164412,711.672802 L179.164412,711.706339 Z M184.763824,577.856851 C185.199706,583.004908 185.954118,588.689571 186.742059,594.625767 C188.988529,611.579141 191.52,630.77955 189.374118,650.986094 C188.267647,661.483436 186.021176,674.596728 183.774706,687.341104 C178.263935,688.834465 172.585056,689.617761 166.875882,689.671984 C160.218438,689.412587 153.626378,688.256289 147.277941,686.234356 C146.724706,683.065031 146.154706,680.080164 145.601471,677.480982 C142.248529,661.41636 141.896471,627.928834 144.914118,611.143149 C147.277941,597.946012 143.237647,588.018814 139.884706,580.03681 C139.063235,577.991002 138.208235,576.062577 137.671765,574.268303 C135.190588,566.822904 134.838529,537.091616 134.788235,528.992229 C142.224608,530.352553 149.778443,530.964876 157.336765,530.820041 C160.270588,530.820041 163.506176,530.736196 167.01,530.568507 L175.392353,530.182822 C183.288529,529.847444 186.976765,529.679755 188.804118,528.874847 C187.429412,537.980368 183.405882,562.328834 184.763824,577.823313 L184.763824,577.856851 Z M225.552353,358.988957 C225.317647,368.748466 225.133235,376.445399 225.552353,380.704703 C225.932638,385.236038 225.763766,389.796743 225.049412,394.287526 C224.565904,397.622113 224.269264,400.981144 224.160882,404.348875 C223.976471,410.62045 222.903529,420.396728 221.864118,429.854397 C221.243824,435.606135 220.640294,441.039264 220.187647,445.650716 C219.483529,453.750102 217.991471,459.921063 215.979706,463.023313 C215.46,463.811452 214.722353,465.035583 213.850588,466.460941 C211.352647,470.569325 205.468235,480.177914 203.942647,480.530061 C203.597551,480.525341 203.279869,480.341039 203.104412,480.043763 C202.936765,479.691616 202.534412,478.23272 204.697059,474.3591 C207.060882,470.166871 212.174118,461.665031 212.693824,460.809816 C213.247059,460.239673 213.682941,459.803681 213.867353,459.652761 C214.081344,459.53051 214.23361,459.323377 214.286471,459.082618 L218.209412,441.441718 L216.532941,441.072802 L212.677059,458.445399 C212.207647,458.864622 211.436471,459.652761 210.028235,461.078119 C206.289706,464.867894 199.365882,471.910838 196.063235,474.090798 C195.459706,474.493252 194.722059,474.82863 194.386765,474.560327 C193.598824,473.73865 194.219118,469.982413 195.795,467.852761 C198.965461,464.241669 202.32301,460.799317 205.853824,457.539877 C205.97132,457.439764 206.053591,457.304571 206.088529,457.154192 C207.372198,452.603665 208.192257,447.934898 208.536176,443.219223 C208.417039,437.277595 207.856672,431.353036 206.859706,425.494479 C206.810212,425.127963 206.522011,424.83969 206.155588,424.790184 C205.79376,424.739974 205.441087,424.929923 205.283824,425.259714 L204.445588,426.936605 C202.641428,430.220073 201.502062,433.827073 201.092647,437.551329 C199.986176,445.080573 197.505,449.13865 193.950882,449.289571 C193.012059,449.289571 192.391765,449.205726 192.140294,448.903885 C191.469706,448.115746 192.140294,445.43272 192.894706,441.743558 C193.531765,438.892843 194.336471,435.337832 194.990294,430.860532 C195.51717,427.067078 195.702326,423.233953 195.543529,419.407362 C195.269487,416.689711 195.525701,413.944689 196.297941,411.324744 C198.59195,406.40088 201.653329,401.872751 205.367647,397.909611 C209.273824,393.683845 208.502647,375.539877 203.691176,359.106339 C197.739706,338.597955 192.542647,303.601227 191.955882,299.677301 C190.279412,287.737832 189.357353,258.308384 189.206471,252.523108 C190.581176,252.523108 192.173824,252.65726 193.950882,252.65726 C197.31419,252.666509 200.674438,252.453639 204.009706,252.020041 C209.351973,251.29996 214.566521,249.832294 219.500294,247.660123 C219.152672,255.894463 219.287019,264.142094 219.902647,272.360736 C220.255373,274.385975 220.719907,276.390132 221.294118,278.364008 C222.585,284.384049 224.529706,293.456033 225.535588,313.109202 C226.323529,328.871984 225.887647,345.557055 225.552353,358.955419 L225.552353,358.988957 Z" id="Shape" fill="#606162" fill-rule="nonzero"></path>
                                <path d="M140.069118,183.401636 L137.990294,183.401636 L137.990294,181.875665 L136.615588,182.143967 L136.615588,183.267485 C136.575325,183.632443 136.677417,183.998865 136.900588,184.290389 C137.209548,184.502604 137.58401,184.597729 137.956765,184.558691 L140.102647,184.558691 C140.470397,184.601337 140.840864,184.505709 141.142059,184.290389 C141.377866,184.004833 141.486868,183.635345 141.443824,183.267485 L141.443824,179.427403 L140.069118,179.427403 L140.069118,183.401636 Z" id="Shape" fill="#606162" fill-rule="nonzero"></path>
                                <path d="M146.422941,179.427403 L145.182353,179.427403 L142.231765,184.642536 L143.64,184.642536 L144.226765,183.552556 L147.261176,183.552556 L147.847941,184.642536 L149.423824,184.642536 L146.422941,179.427403 Z M144.746471,182.429039 L145.685294,180.752147 L146.573824,182.429039 L144.746471,182.429039 Z" id="Shape" fill="#606162" fill-rule="nonzero"></path>
                                <polygon id="Shape" fill="#606162" fill-rule="nonzero" points="151.586471 182.479346 154.419706 184.558691 154.436471 184.558691 156.682941 184.558691 152.810294 181.808589 156.247059 179.360327 156.280588 179.343558 154.201765 179.343558 151.586471 181.32229 151.586471 179.343558 150.195 179.343558 150.195 184.558691 151.586471 184.558691"></polygon>
                                <path d="M158.828824,182.680573 L159.767647,182.680573 L161.779412,184.558691 L163.807941,184.558691 L161.494412,182.680573 L161.846471,182.680573 C162.416471,182.680573 163.087059,182.479346 163.087059,181.590593 L163.087059,180.416769 C163.087059,179.528016 162.416471,179.343558 161.846471,179.343558 L157.470882,179.343558 L157.470882,184.558691 L158.828824,184.558691 L158.828824,182.680573 Z M158.828824,180.416769 L161.326765,180.416769 C161.43091,180.387391 161.541149,180.387391 161.645294,180.416769 C161.645294,180.416769 161.745882,180.534151 161.745882,180.651534 L161.745882,181.255215 C161.745882,181.389366 161.712353,181.473211 161.645294,181.506748 C161.541149,181.536126 161.43091,181.536126 161.326765,181.506748 L158.828824,181.506748 L158.828824,180.416769 Z" id="Shape" fill="#606162" fill-rule="nonzero"></path>
                                <path d="M165.970588,184.558691 L169.658824,184.558691 C170.026573,184.601337 170.397041,184.505709 170.698235,184.290389 C170.934042,184.004833 171.043044,183.635345 171,183.267485 L171,180.634765 C171.043044,180.266905 170.934042,179.897416 170.698235,179.611861 C170.397041,179.396541 170.026573,179.300912 169.658824,179.343558 L165.970588,179.343558 C165.602838,179.300912 165.232371,179.396541 164.931176,179.611861 C164.695369,179.897416 164.586367,180.266905 164.629412,180.634765 L164.629412,183.267485 C164.586367,183.635345 164.695369,184.004833 164.931176,184.290389 C165.232371,184.505709 165.602838,184.601337 165.970588,184.558691 Z M165.970588,180.450307 L169.591765,180.450307 L169.591765,183.401636 L165.970588,183.401636 L165.970588,180.450307 Z" id="Shape" fill="#606162" fill-rule="nonzero"></path>
                                <path d="M173.078824,184.558691 L176.750294,184.558691 C177.123263,184.60078 177.498777,184.505387 177.806471,184.290389 C178.042278,184.004833 178.15128,183.635345 178.108235,183.267485 L178.108235,180.634765 C178.15128,180.266905 178.042278,179.897416 177.806471,179.611861 C177.498777,179.396862 177.123263,179.30147 176.750294,179.343558 L173.078824,179.343558 C172.706069,179.30452 172.331607,179.399645 172.022647,179.611861 C171.792814,179.90002 171.689942,180.26924 171.737647,180.634765 L171.737647,183.267485 C171.689942,183.633009 171.792814,184.00223 172.022647,184.290389 C172.331607,184.502604 172.706069,184.597729 173.078824,184.558691 Z M173.078824,180.450307 L176.683235,180.450307 L176.683235,183.401636 L173.078824,183.401636 L173.078824,180.450307 Z" id="Shape" fill="#606162" fill-rule="nonzero"></path>
                            </g>
                        </g>
                    </g>
                </g>
            </g>
        </g>
    </g>
</svg>