<?xml version="1.0" encoding="UTF-8"?>
<svg width="39px" height="34px" viewBox="0 0 39 34" version="1.1" xmlns="http://www.w3.org/2000/svg" xmlns:xlink="http://www.w3.org/1999/xlink">
    <!-- Generator: Sketch 51.1 (57501) - http://www.bohemiancoding.com/sketch -->
    <title>Combined Shape</title>
    <desc>Created with Sketch.</desc>
    <defs></defs>
    <g id="Symbols" stroke="none" stroke-width="1" fill="none" fill-rule="evenodd" stroke-linejoin="round">
        <g id="Design-Tools/Menu/Upload-Copy" transform="translate(-23.000000, -15.000000)" fill-rule="nonzero" stroke="#979797" stroke-width="1.5">
            <path d="M54.75,28.75 L54.75,45.5 C54.75,46.7426407 53.7426407,47.75 52.5,47.75 L32.5,47.75 C31.2573593,47.75 30.25,46.7426407 30.25,45.5 L30.25,28.75 L26.5,28.75 C25.2573593,28.75 24.25,27.7426407 24.25,26.5 L24.25,18.5 C24.25,17.2573593 25.2573593,16.25 26.5,16.25 L35.75,16.25 L35.75,17 C35.75,19.8994949 38.1005051,22.25 41,22.25 L45,22.25 C47.8994949,22.25 50.25,19.8994949 50.25,17 L50.25,16.25 L58.5,16.25 C59.7426407,16.25 60.75,17.2573593 60.75,18.5 L60.75,26.5 C60.75,27.7426407 59.7426407,28.75 58.5,28.75 L54.75,28.75 Z" id="Combined-Shape"></path>
        </g>
    </g>
</svg>