<svg xmlns="http://www.w3.org/2000/svg" width="10cm" height="10cm" viewBox="0 0 283.46 283.46"><defs><style>
      .a {
        fill: #fff;
      }
    </style></defs><path class="a" d="M230.69,133.13A51.31,51.31,0,1,0,155,65.29a51.78,51.78,0,0,0-20.55-.06,51.32,51.32,0,1,0-75.64,67.9,71,71,0,0,0-37.91,62.81h-.17V224h52.7v21.66H215.56V224h53V195.94A71,71,0,0,0,230.69,133.13ZM197.63,52.37a41.52,41.52,0,1,1-4.88,82.73l-.67-.09h0a51.35,51.35,0,0,0-27.2-66.62A41.43,41.43,0,0,1,197.63,52.37Zm-6.57,85,0,.09Zm-1.17,2.33s0,.05,0,.08Zm-1.29,2.28,0,0Zm-31-76h0Zm2.49.71h0Zm26,48.94A41.52,41.52,0,1,1,144.59,74,41.47,41.47,0,0,1,186.11,115.54ZM50.38,93.89a41.5,41.5,0,0,1,74.18-25.6h0a51.37,51.37,0,0,0-27.44,66.77l-.35,0A41.52,41.52,0,0,1,50.38,93.89ZM100.63,142h0Zm-1.28-2.25v0ZM73.72,214.06h-43v-8.18h.17v-9.94A61.14,61.14,0,0,1,68.5,139.57,51.4,51.4,0,0,0,102,144.19a51.24,51.24,0,0,0,9.5,10.59A71,71,0,0,0,73.72,214.06Zm-.1,3.53c0-.65,0-1.31,0-2C73.64,216.28,73.62,216.94,73.62,217.59Zm132,18.13H83.39v-8.19h.17v-9.94a61.12,61.12,0,0,1,37.64-56.36,51.4,51.4,0,0,0,46.78,0,61.11,61.11,0,0,1,37.64,56.36Zm9.91-20.09c0,.65,0,1.31,0,2C215.56,216.94,215.55,216.28,215.53,215.63Zm43.13-1.57H215.47a71,71,0,0,0-37.82-59.28,51.72,51.72,0,0,0,9.55-10.64,52,52,0,0,0,10.43,1.06A51,51,0,0,0,221,139.57a61.13,61.13,0,0,1,37.64,56.37Z"></path></svg>