<svg xmlns="http://www.w3.org/2000/svg" width="283.46" height="283.46" style=""><rect id="backgroundrect" width="100%" height="100%" x="0" y="0" fill="none" stroke="none"/><g class="currentLayer" style=""><title>Layer 1</title><path fill="#3c81d1" fill-opacity="1" stroke="none" stroke-opacity="1" stroke-width="1" stroke-dasharray="none" stroke-linejoin="miter" stroke-linecap="butt" stroke-dashoffset="" fill-rule="nonzero" opacity="1" marker-start="" marker-mid="" marker-end="" id="svg_4" d="M 77.78442646627826 49.89326016640318 C 114.34310690542904 73.34309244461268 110.43748705525 48.532715975196034 110.43748705525 48.532715975196034 C 110.43748705525 48.532715975196034 128.12456154094303 65.53951836528547 127.89115646258503 65.3061224489796 C 128.12456154094303 65.53951836528547 134.92728249697882 69.62115093890695 134.69387755102042 69.38775510204081 C 134.92728249697882 69.62115093890695 155.33544536508612 68.94087884330337 155.10204081632654 68.70748299319727 C 155.33544536508612 68.94087884330337 163.49871051232907 65.53951836528547 163.26530612244898 65.3061224489796 C 163.49871051232907 65.53951836528547 177.1041524244006 50.573532262006765 177.1041524244006 50.573532262006765 C 177.1041524244006 50.573532262006765 199.5531315793187 48.532715975196034 199.5531315793187 48.532715975196034 C 199.5531315793187 48.532715975196034 224.04292702104746 53.97489274002466 223.80952380952382 53.74149659863946 C 224.04292702104746 53.97489274002466 241.73000150674045 74.38305560813198 241.49659863945578 74.14965986394557 C 241.73000150674045 74.38305560813198 241.73000150674045 99.55312314546437 241.49659863945578 99.31972789115646 C 241.73000150674045 99.55312314546437 234.2470084551012 124.04291858719317 234.01360544217687 123.80952380952381 C 234.2470084551012 124.04291858719317 222.00211073423674 134.24700002124683 221.7687074829932 134.01360544217687 C 222.00211073423674 134.24700002124683 234.2470084551012 142.4102651684898 234.01360544217687 142.17687074829934 C 234.2470084551012 142.4102651684898 254.65517132320846 161.45788384538997 254.421768707483 161.22448979591837 C 254.65517132320846 161.45788384538997 262.8184364704514 190.7095839563438 262.5850340136054 190.47619047619048 C 262.8184364704514 190.7095839563438 262.13816437484786 215.19937939807267 262.13816437484786 215.8796514936762 C 262.13816437484786 216.55992358927972 233.56673635949758 217.2401956848833 233.33333333333334 217.00680272108843 C 233.56673635949758 217.2401956848833 211.1177572045795 216.55992358927972 210.8843537414966 216.3265306122449 C 211.1177572045795 216.55992358927972 210.43748510897592 238.32863064859424 210.43748510897592 238.32863064859424 C 210.43748510897592 238.32863064859424 192.07013852767932 237.64835855299066 191.83673469387756 237.41496598639455 C 192.07013852767932 237.64835855299066 79.82524275308901 239.6891748398014 79.59183673469389 239.45578231292518 C 79.82524275308901 239.6891748398014 77.10415437067468 217.2401956848833 76.87074829931973 217.00680272108843 C 77.10415437067468 217.2401956848833 26.764019296009966 217.2401956848833 26.53061224489796 217.00680272108843 C 26.764019296009966 217.2401956848833 28.804835582820658 179.144958331083 28.571428571428573 178.91156462585033 C 28.804835582820658 179.144958331083 51.93408683334235 146.49189774211123 51.70068027210885 146.25850340136054 C 51.93408683334235 146.49189774211123 64.85925664981028 134.24700002124683 64.62585034013605 134.01360544217687 C 64.85925664981028 134.24700002124683 70.30143341463895 129.4850953520218 70.06802721088435 129.2517006802721 C 70.30143341463895 129.4850953520218 57.376263598170965 119.2810139179681 57.142857142857146 119.04761904761905 C 57.376263598170965 119.2810139179681 45.81163797291015 98.87285104986078 45.57823129251701 98.63945578231292 C 45.81163797291015 98.87285104986078 51.93408683334235 66.21979046088906 51.93408683334235 66.21979046088906 C 51.93408683334235 66.21979046088906 95.47150095197128 46.49189968838532 95.23809523809524 46.25850340136054 C 95.47150095197128 46.49189968838532 105.67558238602498 47.172171783988865 105.4421768707483 46.93877551020408" style="color: rgb(60, 129, 209);"/><path fill="#3c81d1" fill-opacity="1" stroke="none" stroke-opacity="1" stroke-width="1" stroke-dasharray="none" stroke-linejoin="miter" stroke-linecap="butt" stroke-dashoffset="" fill-rule="nonzero" opacity="1" marker-start="" marker-mid="" marker-end="" id="svg_6" d="M 104.31503819481782 45.13135549717815 L 59.863945578231295 55.78231292517007 L 87.75510204081633 72.78911564625851 L 117.00680272108843 65.3061224489796 L 115.64625850340136 54.421768707483 L 104.31503819481782 45.13135549717815 z" style="color: rgb(60, 129, 209);"/><path fill="#3c81d1" fill-opacity="1" stroke="none" stroke-opacity="1" stroke-width="1" stroke-dasharray="none" stroke-linejoin="miter" stroke-linecap="butt" stroke-dashoffset="" fill-rule="nonzero" opacity="1" marker-start="" marker-mid="" marker-end="" id="svg_8" d="M83.90687532671046,44.451083401574564 " style="color: rgb(60, 129, 209);"/><path d="M231.3,133.13a51.31,51.31,0,1,0-75.67-67.84,51.78,51.78,0,0,0-20.55-.06,51.32,51.32,0,1,0-75.64,67.9,71,71,0,0,0-37.91,62.81h-.17V224h52.7v21.66H216.17V224h53V195.94A71,71,0,0,0,231.3,133.13ZM198.24,52.37a41.52,41.52,0,1,1-4.88,82.73l-.67-.09h0a51.35,51.35,0,0,0-27.2-66.62A41.43,41.43,0,0,1,198.24,52.37Zm-6.57,85,0,.09Zm-1.17,2.33s0,.05,0,.08Zm-1.3,2.28v0Zm-31-76h0Zm2.49.71h0Zm26,48.94A41.51,41.51,0,1,1,145.2,74,41.46,41.46,0,0,1,186.71,115.54ZM51,93.89a41.5,41.5,0,0,1,74.18-25.6h0a51.37,51.37,0,0,0-27.44,66.77l-.35,0A41.51,41.51,0,0,1,51,93.89ZM101.24,142h0ZM100,139.77v0ZM74.33,214.06h-43v-8.18h.17v-9.94a61.14,61.14,0,0,1,37.64-56.37,51.4,51.4,0,0,0,33.53,4.62,51,51,0,0,0,9.5,10.59A71,71,0,0,0,74.33,214.06Zm-.1,3.53c0-.65,0-1.31,0-2C74.25,216.28,74.23,216.94,74.23,217.59Zm132,18.13H84v-8.19h.17v-9.94a61.12,61.12,0,0,1,37.64-56.36,51.4,51.4,0,0,0,46.78,0,61.11,61.11,0,0,1,37.64,56.36Zm9.91-20.09c0,.65,0,1.31,0,2C216.17,216.94,216.16,216.28,216.14,215.63Zm43.13-1.57H216.08a71,71,0,0,0-37.82-59.28,51.72,51.72,0,0,0,9.55-10.64,52,52,0,0,0,10.43,1.06,51,51,0,0,0,23.39-5.63,61.13,61.13,0,0,1,37.64,56.37Z" id="svg_1" class="" fill="#ffffff" fill-opacity="1"/></g></svg>