<svg xmlns="http://www.w3.org/2000/svg" width="10cm" height="10cm" viewBox="0 0 283.46 283.46"><path d="M231.3,133.13a51.31,51.31,0,1,0-75.67-67.84,51.78,51.78,0,0,0-20.55-.06,51.32,51.32,0,1,0-75.64,67.9,71,71,0,0,0-37.91,62.81h-.17V224h52.7v21.66H216.17V224h53V195.94A71,71,0,0,0,231.3,133.13ZM198.24,52.37a41.52,41.52,0,1,1-4.88,82.73l-.67-.09h0a51.35,51.35,0,0,0-27.2-66.62A41.43,41.43,0,0,1,198.24,52.37Zm-6.57,85,0,.09Zm-1.17,2.33s0,.05,0,.08Zm-1.3,2.28v0Zm-31-76h0Zm2.49.71h0Zm26,48.94A41.51,41.51,0,1,1,145.2,74,41.46,41.46,0,0,1,186.71,115.54ZM51,93.89a41.5,41.5,0,0,1,74.18-25.6h0a51.37,51.37,0,0,0-27.44,66.77l-.35,0A41.51,41.51,0,0,1,51,93.89ZM101.24,142h0ZM100,139.77v0ZM74.33,214.06h-43v-8.18h.17v-9.94a61.14,61.14,0,0,1,37.64-56.37,51.4,51.4,0,0,0,33.53,4.62,51,51,0,0,0,9.5,10.59A71,71,0,0,0,74.33,214.06Zm-.1,3.53c0-.65,0-1.31,0-2C74.25,216.28,74.23,216.94,74.23,217.59Zm132,18.13H84v-8.19h.17v-9.94a61.12,61.12,0,0,1,37.64-56.36,51.4,51.4,0,0,0,46.78,0,61.11,61.11,0,0,1,37.64,56.36Zm9.91-20.09c0,.65,0,1.31,0,2C216.17,216.94,216.16,216.28,216.14,215.63Zm43.13-1.57H216.08a71,71,0,0,0-37.82-59.28,51.72,51.72,0,0,0,9.55-10.64,52,52,0,0,0,10.43,1.06,51,51,0,0,0,23.39-5.63,61.13,61.13,0,0,1,37.64,56.37Z"></path></svg>