<?xml version="1.0" encoding="UTF-8"?>
<svg width="28px" height="29px" viewBox="0 0 28 29" version="1.1" xmlns="http://www.w3.org/2000/svg" xmlns:xlink="http://www.w3.org/1999/xlink">
    <!-- Generator: Sketch 48.2 (47327) - http://www.bohemiancoding.com/sketch -->
    <title>text_white</title>
    <desc>Created with Sketch.</desc>
    <defs></defs>
    <g id="Design-Tools/Menu/Text" stroke="none" stroke-width="1" fill="none" fill-rule="evenodd" transform="translate(-28.000000, -17.000000)">
        <path d="M41.2108569,19.3756883 L29.7512104,19.3756883 L29.7512104,22.7037871 C29.7512104,23.1396188 29.397899,23.4929302 28.9620673,23.4929302 C28.5262356,23.4929302 28.1729242,23.1396188 28.1729242,22.7037871 L28.1729242,18.5865452 C28.1729242,18.1507135 28.5262356,17.7974021 28.9620673,17.7974021 L55.0379327,17.7974021 C55.4737644,17.7974021 55.8270758,18.1507135 55.8270758,18.5865452 L55.8270758,22.7037871 C55.8270758,23.1396188 55.4737644,23.4929302 55.0379327,23.4929302 C54.602101,23.4929302 54.2487896,23.1396188 54.2487896,22.7037871 L54.2487896,19.3756883 L42.7891431,19.3756883 L42.7891431,44.2168969 L46.117768,44.219116 C46.5535996,44.2194066 46.9066754,44.5729535 46.9063848,45.0087851 C46.9060943,45.4446167 46.5525474,45.7976925 46.1167158,45.7974019 L37.882232,45.7919122 C37.4464004,45.7916217 37.0933246,45.4380748 37.0936152,45.0022432 C37.0939057,44.5664116 37.4474526,44.2133358 37.8832842,44.2136264 L41.2108569,44.2158448 L41.2108569,19.3756883 Z" id="text_white" fill="#8C8C8C" fill-rule="nonzero"></path>
    </g>
</svg>