<?xml version="1.0" encoding="UTF-8"?>
<svg width="46px" height="46px" viewBox="0 0 46 46" version="1.1" xmlns="http://www.w3.org/2000/svg" xmlns:xlink="http://www.w3.org/1999/xlink">
    <!-- Generator: Sketch 51.3 (57544) - http://www.bohemiancoding.com/sketch -->
    <title>tip</title>
    <desc>Created with Sketch.</desc>
    <defs></defs>
    <g id="Icons" stroke="none" stroke-width="1" fill="none" fill-rule="evenodd">
        <g id="Artboard-1" transform="translate(-1172.000000, -1588.000000)">
            <g id="tip" transform="translate(1174.000000, 1590.000000)">
                <path d="M42,21 C42,32.598 32.598,42 21,42 C9.402,42 0,32.598 0,21 C0,9.402 9.402,0 21,0 C32.598,0 42,9.402 42,21 L42,21 Z" id="Stroke-442" stroke="#5F6062" stroke-width="4" stroke-linecap="round" stroke-linejoin="round"></path>
                <path d="M18.8116592,26.5470852 L18.8116592,25.1838565 C18.8116592,24.6098626 18.8535123,24.0956674 18.9372197,23.6412556 C19.0209272,23.1868438 19.1524655,22.7563548 19.3318386,22.3497758 C19.5112117,21.9431968 19.7503722,21.5485819 20.0493274,21.1659193 C20.3482825,20.7832567 20.7249604,20.3766838 21.1793722,19.9461883 L22.793722,18.4035874 C23.2481338,17.9970084 23.6367697,17.5426034 23.9596413,17.0403587 C24.2825128,16.5381141 24.4439462,15.9282547 24.4439462,15.2107623 C24.4439462,14.2780222 24.1509745,13.4947715 23.5650224,12.8609865 C22.9790703,12.2272016 22.1479874,11.9103139 21.0717489,11.9103139 C20.5216714,11.9103139 20.0254133,12.0119571 19.5829596,12.2152466 C19.140506,12.4185361 18.7578491,12.6935708 18.4349776,13.0403587 C18.112106,13.3871467 17.8669665,13.7877406 17.6995516,14.2421525 C17.5321367,14.6965643 17.4364725,15.1629274 17.4125561,15.6412556 L13,15.2466368 C13.1434985,14.098649 13.4484282,13.0762377 13.9147982,12.1793722 C14.3811683,11.2825067 14.9850486,10.523172 15.7264574,9.90134529 C16.4678662,9.27951857 17.3168861,8.8071765 18.2735426,8.48430493 C19.2301991,8.16143336 20.2585894,8 21.3587444,8 C22.3871501,8 23.3617293,8.14947534 24.2825112,8.44843049 C25.2032931,8.74738565 26.0164389,9.18983265 26.7219731,9.77578475 C27.4275073,10.3617369 27.9835555,11.0851975 28.3901345,11.9461883 C28.7967135,12.8071792 29,13.7996954 29,14.9237668 C29,15.689092 28.9162938,16.3587415 28.7488789,16.9327354 C28.581464,17.5067293 28.3423035,18.0328825 28.0313901,18.5112108 C27.7204768,18.989539 27.3437989,19.449923 26.9013453,19.8923767 C26.4588917,20.3348303 25.9626335,20.7952143 25.4125561,21.2735426 C24.9342278,21.6801216 24.5455919,22.0388624 24.2466368,22.3497758 C23.9476816,22.6606891 23.7085211,22.9715978 23.529148,23.2825112 C23.3497749,23.5934246 23.2242156,23.9282493 23.1524664,24.2869955 C23.0807171,24.6457417 23.044843,25.0881887 23.044843,25.6143498 L23.044843,26.5470852 L18.8116592,26.5470852 Z M18.0941704,31.5336323 C18.0941704,30.7683071 18.375184,30.1106156 18.9372197,29.5605381 C19.4992554,29.0104606 20.1748839,28.735426 20.9641256,28.735426 C21.7294508,28.735426 22.3991003,28.9985026 22.9730942,29.5246637 C23.5470881,30.0508248 23.8340807,30.6965582 23.8340807,31.4618834 C23.8340807,32.2272086 23.5530671,32.8849001 22.9910314,33.4349776 C22.4289957,33.9850551 21.7533672,34.2600897 20.9641256,34.2600897 C20.581463,34.2600897 20.2167431,34.1883415 19.8699552,34.044843 C19.5231672,33.9013446 19.2182375,33.7100161 18.955157,33.470852 C18.6920764,33.2316879 18.4828109,32.9446952 18.3273543,32.6098655 C18.1718976,32.2750357 18.0941704,31.9162949 18.0941704,31.5336323 Z" id="?" fill="#5F6062"></path>
            </g>
        </g>
    </g>
</svg>