<svg width="16" height="16" viewBox="0 0 16 16" fill="none" xmlns="http://www.w3.org/2000/svg">
<path fill-rule="evenodd" clip-rule="evenodd" d="M14.8499 3.17871C14.7437 3.07251 14.5892 3.01331 14.4394 3.01331L11.5585 3.01331V2.11578C11.5585 1.50879 11.0654 1.01563 10.4584 1.01563L5.54077 1.01563C4.93378 1.01563 4.44061 1.50879 4.44061 2.11578V3.01331L1.5451 3.01331C1.23779 3.01331 0.986328 3.26294 0.986328 3.57208C0.986328 3.88123 1.23596 4.13086 1.5451 4.13086H2.03827L2.03827 13.8553C2.03827 14.4623 2.53143 14.9554 3.13843 14.9554L13.0176 14.9554C13.6246 14.9554 14.1177 14.4623 14.1177 13.8553L14.1177 4.13086H14.4391C14.7464 4.13086 15.0134 3.88123 15.0134 3.57208C15.0137 3.42377 14.9561 3.28491 14.8499 3.17871ZM2.64874 14.7398C2.62524 14.7184 2.60205 14.697 2.58008 14.6732C2.60175 14.697 2.62524 14.7184 2.64874 14.7398ZM2.73112 14.7586C2.75321 14.7827 2.7757 14.8068 2.79779 14.8253C2.78397 14.8137 2.77093 14.8 2.75711 14.7854C2.74884 14.7767 2.74028 14.7676 2.73112 14.7586ZM10.4536 2.11914L5.53906 2.11914V3.02277L10.4536 3.02277V2.11914ZM13.0157 13.8538L3.13835 13.8538L3.13835 4.13086H4.56169L13.0157 4.13086L13.0157 13.8538ZM7.43034 6.56525C7.43034 6.25458 7.6815 6.00342 7.99217 6.00342C8.30284 6.00342 8.554 6.25488 8.554 6.56525L8.554 11.778C8.554 12.0886 8.30284 12.3398 7.99217 12.3398C7.6815 12.3398 7.43034 12.0886 7.43034 11.778L7.43034 6.56525ZM4.9492 6.00342C4.63853 6.00342 4.38737 6.25458 4.38737 6.56525L4.38737 11.778C4.38737 12.0886 4.63853 12.3398 4.9492 12.3398C5.25987 12.3398 5.51103 12.0886 5.51103 11.778L5.51103 6.56525C5.51103 6.25488 5.25956 6.00342 4.9492 6.00342ZM10.4424 6.56525C10.4424 6.25458 10.6935 6.00342 11.0042 6.00342C11.3149 6.00342 11.566 6.25488 11.566 6.56525V11.778C11.566 12.0886 11.3149 12.3398 11.0042 12.3398C10.6935 12.3398 10.4424 12.0886 10.4424 11.778V6.56525Z" fill="#E61737"/>
</svg>
