<?xml version="1.0" encoding="UTF-8"?>
<svg width="34px" height="31px" viewBox="0 0 34 31" version="1.1" xmlns="http://www.w3.org/2000/svg" xmlns:xlink="http://www.w3.org/1999/xlink">
    <!-- Generator: Sketch 54.1 (76490) - https://sketchapp.com -->
    <title>Group</title>
    <desc>Created with Sketch.</desc>
    <g id="Symbols" stroke="none" stroke-width="1" fill="none" fill-rule="evenodd">
        <g id="Design-Tools/Menu/tutorials" transform="translate(-25.000000, -18.000000)" fill-rule="nonzero">
            <g id="Group" transform="translate(25.250000, 18.250000)">
                <path d="M15.2852251,7.84764893 L20.6428416,11.7972101 C20.7857195,11.9485833 20.7857195,12.2137103 20.6428416,12.3650835 L15.2852251,15.6527732 C15.0780899,15.8713239 14.75,15.6975582 14.75,15.3688365 L14.75,8.13068993 C14.750756,7.80286396 15.0780899,7.62820259 15.2852251,7.84764893 Z" id="Shape-Copy" fill="#8C8C8C"></path>
                <path d="M32,20.75 L1.5,20.75 L1.5,23 L16,23 L17.5,23 L32,23 L32,20.75 Z M32,19.25 L32,1.5 L1.5,1.5 L1.5,19.25 L32,19.25 Z M16,28.5 L16,24.5 L0.75,24.5 C0.335786438,24.5 0,24.1642136 0,23.75 L0,0.75 C0,0.335786438 0.335786438,0 0.75,0 L32.75,0 C33.1642136,0 33.5,0.335786438 33.5,0.75 L33.5,23.75 C33.5,24.1642136 33.1642136,24.5 32.75,24.5 L17.5,24.5 L17.5,28.5 L21.75,28.5 C22.1642136,28.5 22.5,28.8357864 22.5,29.25 C22.5,29.6642136 22.1642136,30 21.75,30 L11.75,30 C11.3357864,30 11,29.6642136 11,29.25 C11,28.8357864 11.3357864,28.5 11.75,28.5 L16,28.5 Z" id="Combined-Shape" fill="#979797"></path>
            </g>
        </g>
    </g>
</svg>