<?xml version="1.0" encoding="UTF-8"?>
<svg width="16px" height="13px" viewBox="0 0 16 13" version="1.1" xmlns="http://www.w3.org/2000/svg" xmlns:xlink="http://www.w3.org/1999/xlink">
    <!-- Generator: Sketch 48.2 (47327) - http://www.bohemiancoding.com/sketch -->
    <title>twitter_hover</title>
    <desc>Created with Sketch.</desc>
    <defs></defs>
    <g id="social/twitter/On-Hover" stroke="none" stroke-width="1" fill="none" fill-rule="evenodd">
        <path d="M13.833779,3.19832437 C13.8395469,3.33387002 13.8433921,3.46941566 13.8433921,3.60688394 C13.8433921,7.77611411 10.6691247,12.5846198 4.86469492,12.5846198 C3.08241391,12.5846198 1.42414274,12.0626249 0.0273496952,11.1676391 C0.274408066,11.1964786 0.525311704,11.2108984 0.780060608,11.2108984 C2.25856557,11.2108984 3.61882858,10.7071685 4.69934846,9.86024854 C3.31793648,9.83525431 2.15282074,8.92296484 1.75099039,7.66940797 C1.94421503,7.705938 2.14128494,7.72516433 2.34508406,7.72516433 C2.63251773,7.72516433 2.91129955,7.68671167 3.17662294,7.61461292 C1.73272538,7.32525662 0.645476281,6.04958947 0.645476281,4.52109604 L0.645476281,4.48072074 C1.07037823,4.71720463 1.55776575,4.85947949 2.07495409,4.87582187 C1.22803415,4.30960638 0.670470514,3.34348318 0.670470514,2.24950487 C0.670470514,1.67079226 0.826203806,1.12860969 1.09825641,0.662371131 C2.65462802,2.57154594 4.98005292,3.82798676 7.60252465,3.95968714 C7.54869092,3.72897115 7.52081274,3.48768068 7.52081274,3.2406223 C7.52081274,1.49775527 8.93394817,0.0846198431 10.6758539,0.0846198431 C11.5842981,0.0846198431 12.4043012,0.468185174 12.9791685,1.08150518 C13.6982333,0.940191634 14.3740389,0.677752197 14.9835137,0.316297148 C14.7479911,1.05266568 14.2471451,1.67079226 13.5963338,2.06204813 C14.234648,1.9851428 14.8422001,1.81595107 15.4084156,1.56504744 C14.9854363,2.19759377 14.4499829,2.75323478 13.833779,3.19832437" id="twitter_hover" fill="#E61737"></path>
    </g>
</svg>