<?xml version="1.0" encoding="UTF-8"?>
<svg width="28px" height="28px" viewBox="0 0 28 28" version="1.1" xmlns="http://www.w3.org/2000/svg" xmlns:xlink="http://www.w3.org/1999/xlink">
    <!-- Generator: Sketch 48.2 (47327) - http://www.bohemiancoding.com/sketch -->
    <title>upload_white</title>
    <desc>Created with Sketch.</desc>
    <defs></defs>
    <g id="Design-Tools/Menu/Upload" stroke="none" stroke-width="1" fill="none" fill-rule="evenodd" transform="translate(-28.000000, -18.000000)">
        <path d="M41.0955008,20.844396 L33.2296825,28.4910338 C32.9001592,28.8113749 32.3733399,28.8039313 32.0529988,28.474408 C31.7326576,28.1448847 31.7401012,27.6180654 32.0696245,27.2977243 L41.3017932,18.3228093 C41.3601538,18.2589162 41.4280387,18.2048565 41.5022372,18.1620071 C41.5596163,18.1285238 41.6201088,18.1025012 41.6823227,18.0839195 C41.9435434,18.0046572 42.243906,18.049905 42.4795585,18.2642024 C42.4862302,18.2702519 42.4928266,18.2764286 42.4993445,18.2827326 L51.9261733,27.310718 C52.2580836,27.6285854 52.2694676,28.1553342 51.9516002,28.4872445 C51.6337329,28.8191548 51.106984,28.8305388 50.7750738,28.5126715 L42.7597319,20.8364538 L42.8170203,38.2720685 C42.8185303,38.7316355 42.4472018,39.1054122 41.9876348,39.1069223 C41.5280678,39.1084323 41.1542911,38.7371037 41.1527811,38.2775367 L41.0955008,20.844396 Z M53.6351892,37.7889928 C53.6351892,37.3294233 54.0077439,36.9568687 54.4673133,36.9568687 C54.9268828,36.9568687 55.2994375,37.3294233 55.2994375,37.7889928 L55.2994375,44.715278 C55.2994375,45.1748474 54.9268828,45.5474021 54.4673133,45.5474021 L29.5326867,45.5474021 C29.0731172,45.5474021 28.7005625,45.1748474 28.7005625,44.715278 L28.7005625,37.7889928 C28.7005625,37.3294233 29.0731172,36.9568687 29.5326867,36.9568687 C29.9922561,36.9568687 30.3648108,37.3294233 30.3648108,37.7889928 L30.3648108,43.8831539 L53.6351892,43.8831539 L53.6351892,37.7889928 Z" id="upload_white" fill="#8C8C8C" fill-rule="nonzero"></path>
    </g>
</svg>