<?xml version="1.0" encoding="UTF-8"?>
<svg width="302px" height="252px" viewBox="0 0 302 252" version="1.1" xmlns="http://www.w3.org/2000/svg" xmlns:xlink="http://www.w3.org/1999/xlink">
    <!-- Generator: Sketch 50.2 (55047) - http://www.bohemiancoding.com/sketch -->
    <title>Page 1</title>
    <desc>Created with Sketch.</desc>
    <defs>
        <rect id="path-1" x="0" y="0" width="302" height="252"></rect>
        <polygon id="path-3" points="0.986 0.898 66.1581655 0.898 66.1581655 214.046 0.986 214.046"></polygon>
        <polygon id="path-5" points="0.986 0.898 66.1581655 0.898 66.1581655 214.046 0.986 214.046"></polygon>
        <polygon id="path-7" points="0.986 0.9706 28.575 0.9706 28.575 42.046 0.986 42.046"></polygon>
        <polygon id="path-9" points="0.986 0.9706 28.575 0.9706 28.575 42.046 0.986 42.046"></polygon>
        <polygon id="path-11" points="0.387149357 0.230312353 26.986 0.230312353 26.986 49.2587179 0.387149357 49.2587179"></polygon>
        <polygon id="path-13" points="0.387149357 0.230312353 26.986 0.230312353 26.986 49.2587179 0.387149357 49.2587179"></polygon>
    </defs>
    <g id="Informational-Pages" stroke="none" stroke-width="1" fill="none" fill-rule="evenodd">
        <g id="9.2-Artwork-specs" transform="translate(-32.000000, -306.000000)">
            <g id="Page-1" transform="translate(32.000000, 306.000000)">
                <mask id="mask-2" fill="white">
                    <use xlink:href="#path-1"></use>
                </mask>
                <use id="Mask" fill="#FFFFFF" xlink:href="#path-1"></use>
                <g mask="url(#mask-2)">
                    <g transform="translate(0.000000, 15.000000)">
                        <g id="Group-17" stroke="none" stroke-width="1" fill-rule="evenodd" transform="translate(0.000000, 9.930000)">
                            <path d="M116.9358,94.3446 C116.7818,99.7486 112.7838,106.3506 104.8938,114.2426 L70.8858,148.2726 C63.0178,156.1226 56.3978,160.1006 51.0278,160.2546 C45.5878,160.4406 39.3358,156.9106 32.2118,149.7666 L15.8898,133.3866 L31.1378,111.0446 L42.5598,122.4646 L79.1398,85.9566 L27.6278,34.5226 L46.5338,15.6286 L106.4498,75.5166 C113.5718,82.6646 117.0878,88.9506 116.9358,94.3446 Z M57.2698,4.8886 C51.3398,-1.0374 41.7318,-1.0374 35.8018,4.8866 L16.8938,23.7826 L16.8938,23.7846 C14.0438,26.6346 12.4418,30.4966 12.4438,34.5246 C12.4438,38.5546 14.0478,42.4186 16.8998,45.2666 L53.3198,81.6326 L53.4458,81.7586 C54.9838,83.3226 55.9558,85.2326 56.3598,87.2386 C57.0598,90.6986 56.0698,94.4326 53.3878,97.1166 C50.6978,99.8046 46.9558,100.7906 43.4898,100.0846 C42.1598,99.8126 40.8698,99.2966 39.6978,98.5266 C39.6478,98.4946 39.6038,98.4586 39.5578,98.4266 C36.6838,96.5086 33.2218,95.5986 29.7238,95.9266 C25.2238,96.3466 21.1438,98.7506 18.5978,102.4846 L3.3478,124.8266 C-0.7622,130.8466 -0.0122,138.9406 5.1338,144.1026 L21.4598,160.4866 C31.8238,170.8806 41.6658,175.7686 51.4598,175.4306 C61.0818,175.1586 70.6618,169.9446 81.6078,159.0246 L81.6258,159.0066 L115.6298,124.9786 C126.6018,114.0046 131.8398,104.4066 132.1138,94.7746 C132.3918,84.9526 127.5158,75.1466 117.1858,64.7786 L57.2698,4.8886 Z" id="Fill-1" fill="#DC062B"></path>
                            <polygon id="Fill-3" fill="#DC062B" points="45.8772 125.7822 54.9152 134.8302 91.4452 98.3022 82.3992 89.2882"></polygon>
                            <path d="M72.6222,195.7118 L67.8382,200.4958 L64.3242,196.9798 L61.7502,200.7798 L64.3482,203.3778 C65.5062,204.5358 66.5002,205.0818 67.3862,205.0458 C68.2602,205.0118 69.2582,204.4238 70.4382,203.2438 L75.3722,198.3118 C76.5502,197.1318 77.1402,196.1338 77.1742,195.2598 C77.2082,194.3738 76.6642,193.3798 75.5062,192.2218 L66.4562,183.1698 L63.2682,186.3578 L72.6222,195.7118 Z" id="Fill-5" fill="#DC062B"></path>
                            <path d="M85.3938,178.075 L81.2018,182.267 L79.4358,176.237 L85.3938,178.075 Z M77.9498,171.677 L75.0638,174.563 L80.2858,193.397 L83.5538,190.129 L82.3698,186.267 L89.3658,179.269 L93.2498,180.405 L93.2718,180.409 L96.8778,176.805 L77.9718,171.683 L77.9498,171.677 Z" id="Fill-7" fill="#DC062B"></path>
                            <polygon id="Fill-9" fill="#DC062B" points="100.6496 149.077 100.6716 148.955 95.9036 153.721 94.4036 164.311 89.8596 159.767 86.6496 162.977 98.6776 175.005 101.8876 171.795 97.0696 166.977 108.4356 165.237 108.4476 165.235 113.6356 160.045 98.3576 162.627"></polygon>
                            <path d="M118.178,141.6434 C118.146,141.7514 118.022,142.0074 117.534,142.4934 L111.76,148.2674 L109.034,145.5414 L114.806,139.7674 C115.326,139.2494 115.58,139.1454 115.644,139.1274 C115.87,139.0714 116.132,139.1914 116.424,139.4834 L117.818,140.8774 C118.11,141.1694 118.23,141.4274 118.178,141.6434 Z M121.214,143.7634 C122.512,142.4654 123.626,140.4874 121.57,138.4334 L118.87,135.7294 C116.814,133.6754 114.836,134.7914 113.538,136.0874 L103.416,146.2094 L115.444,158.2374 L118.588,155.0954 L114.234,150.7414 L116.426,148.5514 L125.406,148.2614 L125.422,148.2614 L130.074,143.6094 L120.408,144.5674 L121.214,143.7634 Z" id="Fill-11" fill="#DC062B"></path>
                            <path d="M133.9142,120.8388 L140.7062,127.6288 L132.3742,135.9608 L125.5842,129.1708 L133.9142,120.8388 Z M131.4262,118.1988 L122.9442,126.6808 C121.7662,127.8588 121.1782,128.8568 121.1462,129.7348 C121.1062,130.6188 121.6522,131.6128 122.8122,132.7728 L128.8822,138.8428 C130.0402,140.0008 131.0342,140.5468 131.9202,140.5108 C132.7942,140.4788 133.7942,139.8888 134.9722,138.7108 L143.4562,130.2268 C144.6342,129.0468 145.2242,128.0488 145.2582,127.1728 C145.2902,126.2868 144.7462,125.2928 143.5902,124.1368 L137.5182,118.0668 C136.3622,116.9088 135.3682,116.3628 134.4822,116.3988 C133.6062,116.4308 132.6062,117.0208 131.4262,118.1988 Z" id="Fill-13" fill="#DC062B"></path>
                            <path d="M150.4202,104.3338 L157.2102,111.1238 L148.8782,119.4558 L142.0882,112.6658 L150.4202,104.3338 Z M150.9882,99.8918 C150.1102,99.9258 149.1122,100.5138 147.9322,101.6938 L139.4502,110.1758 C138.2702,111.3538 137.6822,112.3538 137.6502,113.2298 C137.6122,114.1138 138.1582,115.1078 139.3182,116.2678 L145.3882,122.3378 C146.5462,123.4978 147.5402,124.0418 148.4242,124.0058 C149.3002,123.9738 150.2982,123.3838 151.4782,122.2038 L159.9622,113.7218 C161.1402,112.5418 161.7302,111.5418 161.7642,110.6678 C161.7962,109.7798 161.2522,108.7878 160.0942,107.6318 L154.0242,101.5598 C152.8662,100.4038 151.8742,99.8578 150.9882,99.8918 Z" id="Fill-15" fill="#DC062B"></path>
                        </g>
                        <g id="Group-50" stroke="none" stroke-width="1" fill-rule="evenodd" transform="translate(187.000000, 0.930000)">
                            <g id="Group-20">
                                <mask id="mask-4" fill="white">
                                    <use xlink:href="#path-3"></use>
                                </mask>
                                <g id="Clip-19"></g>
                                <path d="M35.2814,61.956 C34.9694,72.942 26.8394,86.362 10.7994,102.406 L-58.3326,171.586 C-74.3286,187.54 -87.7826,195.63 -98.7006,195.942 C-109.7586,196.322 -122.4706,189.142 -136.9506,174.62 L-170.1326,141.322 L-139.1346,95.902 L-115.9126,119.12 L-41.5546,44.904 L-146.2686,-59.656 L-107.8346,-98.064 L13.9654,23.682 C28.4434,38.212 35.5914,50.992 35.2814,61.956 Z M-86.0126,-119.894 C-98.0646,-131.942 -117.5986,-131.942 -129.6526,-119.898 L-168.0886,-81.49 L-168.0926,-81.484 C-173.8846,-75.692 -177.1386,-67.836 -177.1346,-59.65 C-177.1346,-51.458 -173.8766,-43.602 -168.0786,-37.814 L-94.0406,36.114 L-93.7846,36.37 C-90.6566,39.548 -88.6806,43.432 -87.8606,47.508 C-86.4406,54.544 -88.4486,62.134 -93.9046,67.588 C-99.3706,73.054 -106.9786,75.06 -114.0246,73.624 C-116.7286,73.074 -119.3486,72.022 -121.7346,70.456 C-121.8326,70.392 -121.9246,70.318 -122.0186,70.252 C-127.8586,66.356 -134.8986,64.504 -142.0106,65.168 C-151.1566,66.026 -159.4506,70.912 -164.6286,78.502 L-195.6286,123.918 C-203.9806,136.16 -202.4586,152.612 -191.9986,163.108 L-158.8066,196.414 C-137.7386,217.542 -117.7306,227.478 -97.8206,226.794 C-78.2626,226.238 -58.7886,215.64 -36.5326,193.44 L-36.4986,193.404 L32.6274,124.23 C54.9334,101.92 65.5814,82.41 66.1354,62.83 C66.6994,42.862 56.7894,22.93 35.7874,1.852 L-86.0126,-119.894 Z" id="Fill-18" fill="#DC062B" mask="url(#mask-4)"></path>
                            </g>
                            <g id="Group-23">
                                <mask id="mask-6" fill="white">
                                    <use xlink:href="#path-5"></use>
                                </mask>
                                <g id="Clip-22"></g>
                                <path d="M35.2814,61.956 C34.9694,72.942 26.8394,86.362 10.7994,102.406 L-58.3326,171.586 C-74.3286,187.54 -87.7826,195.63 -98.7006,195.942 C-109.7586,196.322 -122.4706,189.142 -136.9506,174.62 L-170.1326,141.322 L-139.1346,95.902 L-115.9126,119.12 L-41.5546,44.904 L-146.2686,-59.656 L-107.8346,-98.064 L13.9654,23.682 C28.4434,38.212 35.5914,50.992 35.2814,61.956 Z M-86.0126,-119.894 C-98.0646,-131.942 -117.5986,-131.942 -129.6526,-119.898 L-168.0886,-81.49 L-168.0926,-81.484 C-173.8846,-75.692 -177.1386,-67.836 -177.1346,-59.65 C-177.1346,-51.458 -173.8766,-43.602 -168.0786,-37.814 L-94.0406,36.114 L-93.7846,36.37 C-90.6566,39.548 -88.6806,43.432 -87.8606,47.508 C-86.4406,54.544 -88.4486,62.134 -93.9046,67.588 C-99.3706,73.054 -106.9786,75.06 -114.0246,73.624 C-116.7286,73.074 -119.3486,72.022 -121.7346,70.456 C-121.8326,70.392 -121.9246,70.318 -122.0186,70.252 C-127.8586,66.356 -134.8986,64.504 -142.0106,65.168 C-151.1566,66.026 -159.4506,70.912 -164.6286,78.502 L-195.6286,123.918 C-203.9806,136.16 -202.4586,152.612 -191.9986,163.108 L-158.8066,196.414 C-137.7386,217.542 -117.7306,227.478 -97.8206,226.794 C-78.2626,226.238 -58.7886,215.64 -36.5326,193.44 L-36.4986,193.404 L32.6274,124.23 C54.9334,101.92 65.5814,82.41 66.1354,62.83 C66.6994,42.862 56.7894,22.93 35.7874,1.852 L-86.0126,-119.894 Z" id="Stroke-21" stroke="#DC062B" stroke-width="2" mask="url(#mask-6)"></path>
                            </g>
                            <g id="Group-32" transform="translate(0.000000, 172.000000)">
                                <mask id="mask-8" fill="white">
                                    <use xlink:href="#path-7"></use>
                                </mask>
                                <g id="Clip-31"></g>
                                <polygon id="Fill-30" fill="#DC062B" mask="url(#mask-8)" points="2.175 1.2186 2.217 0.9706 -7.473 10.6606 -10.525 32.1866 -19.761 22.9486 -26.287 29.4746 -1.835 53.9286 4.691 47.4006 -5.105 37.6066 18.001 34.0706 18.027 34.0666 28.575 23.5166 -2.485 28.7626"></polygon>
                            </g>
                            <g id="Group-35" transform="translate(0.000000, 172.000000)">
                                <mask id="mask-10" fill="white">
                                    <use xlink:href="#path-9"></use>
                                </mask>
                                <g id="Clip-34"></g>
                                <polygon id="Stroke-33" stroke="#DC062B" stroke-width="2" mask="url(#mask-10)" points="2.175 1.2186 2.217 0.9706 -7.473 10.6606 -10.525 32.1866 -19.761 22.9486 -26.287 29.4746 -1.835 53.9286 4.691 47.4006 -5.105 37.6066 18.001 34.0706 18.027 34.0666 28.575 23.5166 -2.485 28.7626"></polygon>
                            </g>
                            <path d="M37.8078,158.1082 C37.7438,158.3282 37.4878,158.8462 36.4978,159.8362 L24.7618,171.5742 L19.2178,166.0302 L30.9538,154.2942 C32.0098,153.2382 32.5258,153.0282 32.6558,152.9922 C33.1138,152.8782 33.6458,153.1222 34.2418,153.7162 L37.0738,156.5502 C37.6678,157.1442 37.9138,157.6682 37.8078,158.1082 Z M43.9758,162.4182 C46.6158,159.7802 48.8838,155.7582 44.7038,151.5802 L39.2118,146.0862 C35.0338,141.9082 31.0118,144.1762 28.3738,146.8142 L7.7978,167.3902 L32.2498,191.8422 L38.6398,185.4522 L29.7918,176.6042 L34.2438,172.1502 L52.4998,171.5622 L52.5318,171.5602 L61.9878,162.1042 L42.3418,164.0542 L43.9758,162.4182 Z" id="Fill-36" fill="#DC062B"></path>
                            <path d="M37.8078,158.1082 C37.7438,158.3282 37.4878,158.8462 36.4978,159.8362 L24.7618,171.5742 L19.2178,166.0302 L30.9538,154.2942 C32.0098,153.2382 32.5258,153.0282 32.6558,152.9922 C33.1138,152.8782 33.6458,153.1222 34.2418,153.7162 L37.0738,156.5502 C37.6678,157.1442 37.9138,157.6682 37.8078,158.1082 Z M43.9758,162.4182 C46.6158,159.7802 48.8838,155.7582 44.7038,151.5802 L39.2118,146.0862 C35.0338,141.9082 31.0118,144.1762 28.3738,146.8142 L7.7978,167.3902 L32.2498,191.8422 L38.6398,185.4522 L29.7918,176.6042 L34.2438,172.1502 L52.4998,171.5622 L52.5318,171.5602 L61.9878,162.1042 L42.3418,164.0542 L43.9758,162.4182 Z" id="Stroke-38" stroke="#DC062B" stroke-width="2"></path>
                            <path d="M69.797,115.8154 L83.601,129.6174 L66.667,146.5534 L52.863,132.7494 L69.797,115.8154 Z M64.741,110.4474 L47.497,127.6914 C45.101,130.0854 43.905,132.1154 43.839,133.8974 C43.761,135.6954 44.871,137.7174 47.227,140.0734 L59.569,152.4154 C61.921,154.7694 63.941,155.8774 65.745,155.8054 C67.521,155.7374 69.551,154.5414 71.949,152.1434 L89.193,134.8994 C91.591,132.5014 92.789,130.4714 92.857,128.6934 C92.925,126.8874 91.815,124.8694 89.465,122.5194 L77.125,110.1774 C74.773,107.8254 72.753,106.7154 70.953,106.7874 C69.169,106.8554 67.137,108.0514 64.741,110.4474 Z" id="Fill-40" fill="#DC062B"></path>
                            <path d="M69.797,115.8154 L83.601,129.6174 L66.667,146.5534 L52.863,132.7494 L69.797,115.8154 Z M64.741,110.4474 L47.497,127.6914 C45.101,130.0854 43.905,132.1154 43.839,133.8974 C43.761,135.6954 44.871,137.7174 47.227,140.0734 L59.569,152.4154 C61.921,154.7694 63.941,155.8774 65.745,155.8054 C67.521,155.7374 69.551,154.5414 71.949,152.1434 L89.193,134.8994 C91.591,132.5014 92.789,130.4714 92.857,128.6934 C92.925,126.8874 91.815,124.8694 89.465,122.5194 L77.125,110.1774 C74.773,107.8254 72.753,106.7154 70.953,106.7874 C69.169,106.8554 67.137,108.0514 64.741,110.4474 Z" id="Stroke-42" stroke="#DC062B" stroke-width="2"></path>
                            <g id="Group-46" transform="translate(77.000000, 73.000000)">
                                <mask id="mask-12" fill="white">
                                    <use xlink:href="#path-11"></use>
                                </mask>
                                <g id="Clip-45"></g>
                                <path d="M26.3508,9.2616 L40.1548,23.0656 L23.2188,40.0016 L9.4148,26.1976 L26.3508,9.2616 Z M27.5048,0.2336 C25.7208,0.3016 23.6908,1.4976 21.2948,3.8936 L4.0508,21.1376 C1.6528,23.5356 0.4568,25.5636 0.3908,27.3456 C0.3148,29.1436 1.4248,31.1656 3.7808,33.5216 L16.1208,45.8636 C18.4748,48.2176 20.4948,49.3256 22.2968,49.2556 C24.0728,49.1856 26.1048,47.9876 28.5028,45.5896 L45.7468,28.3456 C48.1428,25.9476 49.3428,23.9176 49.4108,22.1396 C49.4768,20.3356 48.3688,18.3156 46.0188,15.9656 L33.6788,3.6236 C31.3248,1.2716 29.3068,0.1616 27.5048,0.2336 Z" id="Fill-44" fill="#DC062B" mask="url(#mask-12)"></path>
                            </g>
                            <g id="Group-49" transform="translate(77.000000, 73.000000)">
                                <mask id="mask-14" fill="white">
                                    <use xlink:href="#path-13"></use>
                                </mask>
                                <g id="Clip-48"></g>
                                <path d="M26.3508,9.2616 L40.1548,23.0656 L23.2188,40.0016 L9.4148,26.1976 L26.3508,9.2616 Z M27.5048,0.2336 C25.7208,0.3016 23.6908,1.4976 21.2948,3.8936 L4.0508,21.1376 C1.6528,23.5356 0.4568,25.5636 0.3908,27.3456 C0.3148,29.1436 1.4248,31.1656 3.7808,33.5216 L16.1208,45.8636 C18.4748,48.2176 20.4948,49.3256 22.2968,49.2556 C24.0728,49.1856 26.1048,47.9876 28.5028,45.5896 L45.7468,28.3456 C48.1428,25.9476 49.3428,23.9176 49.4108,22.1396 C49.4768,20.3356 48.3688,18.3156 46.0188,15.9656 L33.6788,3.6236 C31.3248,1.2716 29.3068,0.1616 27.5048,0.2336 Z" id="Stroke-47" stroke="#DC062B" stroke-width="2" mask="url(#mask-14)"></path>
                            </g>
                        </g>
                        <polygon id="Stroke-51" stroke="#DC062B" stroke-width="2" points="187.986 214.978 290.986 214.978 290.986 1.828 187.986 1.828"></polygon>
                    </g>
                </g>
            </g>
        </g>
    </g>
</svg>