<svg version="1.1" xmlns="http://www.w3.org/2000/svg" xmlns:xlink="http://www.w3.org/1999/xlink" x="0px" y="0px" viewBox="0 0 92 86.8" style="enable-background:new 0 0 92 86.8;" xml:space="preserve"><style type="text/css">
	.st0{fill:white;}
</style><g id="Layer_1"></g><g id="Art_Margins"><g><path class="st0" d="M56.5,62.2V29.8L68.7,32c0.1,0,0.2,0,0.3,0c0.6,0,1.2-0.4,1.4-1l4.3-11c0.3-0.7,0-1.6-0.8-1.9L55.6,9.7
			c0,0,0,0,0,0c-0.1,0-0.2-0.1-0.3-0.1c0,0-0.1,0-0.1,0c-0.1,0-0.1,0-0.2,0l-7.4-1c-0.4,0-0.7,0.2-0.9,0.5c-1.7,2.6-3.6,4.1-7,4.1
			s-5.3-1.5-7-4.1c-0.2-0.3-0.6-0.5-0.9-0.5l-8.4,1c-0.1,0-0.1,0-0.2,0c0,0-0.1,0-0.1,0c-0.1,0-0.2,0.1-0.3,0.1c0,0,0,0,0,0
			L4.5,18.2c-0.7,0.3-1.1,1.2-0.8,1.9L8,31c0.2,0.6,0.8,1,1.4,1c0.1,0,0.2,0,0.3,0l12.2-2.2v32.5c0,0.8,0.7,1.5,1.5,1.5H55
			C55.8,63.7,56.5,63.1,56.5,62.2z M68,28.8l-11.5-2.1V13.4l14.8,6.9L68,28.8z M10.4,28.8L7,20.3l14.8-6.9v13.4L10.4,28.8z
			 M53.5,60.7H24.9V28V12.5l6.3-1c2.2,3,4.4,4.6,8.5,4.6c4,0,6.3-1.7,8.5-4.6l5.3,1V28V60.7z"></path><path class="st0" d="M62.5,69.2V36.8l12.2,2.2c0.1,0,0.2,0,0.3,0c0.6,0,1.2-0.4,1.4-1l4.3-11c0.3-0.7,0-1.6-0.8-1.9l-3.8-1.7
			c-0.8-0.3-1.6,0-2,0.7c-0.3,0.8,0,1.6,0.7,2l2.5,1.2L74,35.8l-11.5-2.1v-0.8c0-0.8-0.7-1.5-1.5-1.5s-1.5,0.7-1.5,1.5v34.8H30.9
			v-1.8c0-0.8-0.7-1.5-1.5-1.5s-1.5,0.7-1.5,1.5v3.3c0,0.8,0.7,1.5,1.5,1.5H61C61.8,70.7,62.5,70,62.5,69.2z"></path><path class="st0" d="M86.8,32.6L83,30.9c-0.8-0.3-1.6,0-2,0.7c-0.3,0.8,0,1.6,0.7,2l2.5,1.2L81,43.3l-11.5-2.1v-0.8
			c0-0.8-0.7-1.5-1.5-1.5s-1.5,0.7-1.5,1.5v34.8H37.9v-1.8c0-0.8-0.7-1.5-1.5-1.5s-1.5,0.7-1.5,1.5v3.3c0,0.8,0.7,1.5,1.5,1.5h31.6
			c0.8,0,1.5-0.7,1.5-1.5V44.2l12.2,2.2c0.1,0,0.2,0,0.3,0c0.6,0,1.2-0.4,1.4-1l4.3-11C87.9,33.8,87.5,33,86.8,32.6z"></path></g></g></svg>