<svg xmlns="http://www.w3.org/2000/svg" xmlns:xlink="http://www.w3.org/1999/xlink" version="1.1" style="enable-background:new 0 0 92 86.8;" xml:space="preserve" width="92" height="86.80000305175781"><rect id="backgroundrect" width="100%" height="100%" x="0" y="0" fill="none" stroke="none"/><style type="text/css">
	.st0{fill:white;}
</style><g class="currentLayer" style=""><title>Layer 1</title><rect fill="#ffffff" stroke="none" stroke-width="2" stroke-linejoin="round" stroke-dashoffset="" fill-rule="nonzero" id="svg_5" x="24" y="15" width="31" height="47" style="color: rgb(0, 0, 0);" class="" fill-opacity="1"/><g id="Layer_1"/><path fill="#ffffff" fill-opacity="1" stroke="none" stroke-opacity="1" stroke-width="2" stroke-dasharray="none" stroke-linejoin="round" stroke-linecap="butt" stroke-dashoffset="" fill-rule="nonzero" opacity="1" marker-start="" marker-mid="" marker-end="" d="M24,14.5 C24,12.013812154696133 26.46132596685083,10 29.5,10 C32.53867403314917,10 35,12.013812154696133 35,14.5 C35,16.986187845303867 32.53867403314917,19 29.5,19 C26.46132596685083,19 24,16.986187845303867 24,14.5 Z" id="svg_7"/><path fill="#ffffff" fill-opacity="1" stroke="none" stroke-opacity="1" stroke-width="2" stroke-dasharray="none" stroke-linejoin="round" stroke-linecap="butt" stroke-dashoffset="" fill-rule="nonzero" opacity="1" marker-start="" marker-mid="" marker-end="" d="M31,16 C31,14.895027624309392 35.027624309392266,14 40,14 C44.972375690607734,14 49,14.895027624309392 49,16 C49,17.104972375690608 44.972375690607734,18 40,18 C35.027624309392266,18 31,17.104972375690608 31,16 Z" id="svg_6"/><path fill="#ffffff" fill-opacity="1" stroke="none" stroke-opacity="1" stroke-width="2" stroke-dasharray="none" stroke-linejoin="round" stroke-linecap="butt" stroke-dashoffset="" fill-rule="nonzero" opacity="1" marker-start="" marker-mid="" marker-end="" d="M44,15 C44,12.790055248618785 46.01381215469613,11 48.5,11 C50.98618784530387,11 53,12.790055248618785 53,15 C53,17.209944751381215 50.98618784530387,19 48.5,19 C46.01381215469613,19 44,17.209944751381215 44,15 Z" id="svg_9"/><path fill="#ffffff" fill-opacity="1" stroke="none" stroke-opacity="1" stroke-width="2" stroke-dasharray="none" stroke-linejoin="round" stroke-linecap="butt" stroke-dashoffset="" fill-rule="nonzero" opacity="1" marker-start="" marker-mid="" marker-end="" d="M49,13.5 C49,11.566298342541437 50.11878453038674,10 51.5,10 C52.88121546961326,10 54,11.566298342541437 54,13.5 C54,15.433701657458563 52.88121546961326,17 51.5,17 C50.11878453038674,17 49,15.433701657458563 49,13.5 Z" id="svg_11"/><path fill="#ffffff" fill-opacity="1" stroke="none" stroke-opacity="1" stroke-width="2" stroke-dasharray="none" stroke-linejoin="round" stroke-linecap="butt" stroke-dashoffset="" fill-rule="nonzero" opacity="1" marker-start="" marker-mid="" marker-end="" id="svg_17" d="M 18.203388501775244 21.04271030356988 L 11.694915254237287 21.01694915254237 L 18.203388501775244 21.04271030356988 z" style="color: rgb(0, 0, 0);"/><path fill="#ffffff" fill-opacity="1" stroke="none" stroke-opacity="1" stroke-width="2" stroke-dasharray="none" stroke-linejoin="round" stroke-linecap="butt" stroke-dashoffset="" fill-rule="nonzero" opacity="1" marker-start="" marker-mid="" marker-end="" id="svg_19" d="M 5.830507345837937 19.008812031361014 C 5.830507345837937 19.178303554045083 22.949151136929284 11.212201987893668 22.881355932203387 11.1864406779661 C 22.949151136929284 11.212201987893668 22.610168091561125 27.483388165564644 22.610168091561125 27.483388165564644 C 22.610168091561125 27.483388165564644 9.55932084488753 29.517286437773517 9.491525423728813 29.491525423728813 C 9.55932084488753 29.517286437773517 5.830507345837937 18.839320508676945 5.830507345837937 19.008812031361014 z" style="color: rgb(0, 0, 0);"/><path fill="#ffffff" fill-opacity="1" stroke="none" stroke-opacity="1" stroke-width="2" stroke-dasharray="none" stroke-linejoin="round" stroke-linecap="butt" stroke-dashoffset="" fill-rule="nonzero" opacity="1" marker-start="" marker-mid="" marker-end="" id="svg_21" d="M 55.49152349227122 27.313896642880575 L 55.25423728813559 11.694915254237287 L 72.54237288135593 19.83050847457627 L 69.15254237288136 29.83050847457627 L 55.49152349227122 27.313896642880575 z" style="color: rgb(0, 0, 0);"/><rect fill="#ffffff" stroke-width="2" stroke-linejoin="round" stroke-dashoffset="" fill-rule="nonzero" id="svg_25" x="29" y="22" width="32" height="46" style="color: rgb(0, 0, 0);"/><path fill="#ffffff" fill-opacity="1" stroke="none" stroke-opacity="1" stroke-width="2" stroke-dasharray="none" stroke-linejoin="round" stroke-linecap="butt" stroke-dashoffset="" fill-rule="nonzero" opacity="1" marker-start="" marker-mid="" marker-end="" id="svg_27" d="M 75.15254012362365 37.31389648124086 L 78.8135593220339 26.101694915254235 L 59.66101694915254 18.30508474576271 L 59.99999999999999 34.23728813559322 L 75.15254012362365 37.31389648124086 z" style="color: rgb(0, 0, 0);"/><rect fill="" stroke-dashoffset="" fill-rule="nonzero" id="svg_30" x="36" y="76" width="0" height="0" style="color: rgb(0, 0, 0);"/><rect fill="#ffffff" stroke-dashoffset="" fill-rule="nonzero" id="svg_32" x="35.66101694107056" y="26.16949152946472" width="33" height="50" style="color: rgb(0, 0, 0);" class="" fill-opacity="1" stroke="none"/><path fill="#ffffff" fill-opacity="1" stroke="none" stroke-opacity="1" stroke-width="1" stroke-dasharray="none" stroke-linejoin="miter" stroke-linecap="butt" stroke-dashoffset="" fill-rule="nonzero" opacity="1" marker-start="" marker-mid="" marker-end="" id="svg_34" d="M 67.3559300801563 41.551184548342675 L 82.03389830508475 44.7457627118644 C 82.10169255367063 44.77152347934006 86.16948909808838 33.58508298219127 86.16948909808838 33.58508298219127 C 86.16948909808838 33.58508298219127 67.52542160284037 26.635930552144284 67.45762711864407 26.610169491525422 C 67.52542160284037 26.635930552144284 60.06779460474119 34.26304907292756 67.3559300801563 41.551184548342675 z" style="color: rgb(0, 0, 0);"/><g id="Art_Margins" class=""><g id="svg_1"><path class="st0" d="M56.5,62.2V29.8L68.7,32c0.1,0,0.2,0,0.3,0c0.6,0,1.2-0.4,1.4-1l4.3-11c0.3-0.7,0-1.6-0.8-1.9L55.6,9.7    c0,0,0,0,0,0c-0.1,0-0.2-0.1-0.3-0.1c0,0-0.1,0-0.1,0c-0.1,0-0.1,0-0.2,0l-7.4-1c-0.4,0-0.7,0.2-0.9,0.5c-1.7,2.6-3.6,4.1-7,4.1    s-5.3-1.5-7-4.1c-0.2-0.3-0.6-0.5-0.9-0.5l-8.4,1c-0.1,0-0.1,0-0.2,0c0,0-0.1,0-0.1,0c-0.1,0-0.2,0.1-0.3,0.1c0,0,0,0,0,0    L4.5,18.2c-0.7,0.3-1.1,1.2-0.8,1.9L8,31c0.2,0.6,0.8,1,1.4,1c0.1,0,0.2,0,0.3,0l12.2-2.2v32.5c0,0.8,0.7,1.5,1.5,1.5H55    C55.8,63.7,56.5,63.1,56.5,62.2z M68,28.8l-11.5-2.1V13.4l14.8,6.9L68,28.8z M10.4,28.8L7,20.3l14.8-6.9v13.4L10.4,28.8z     M53.5,60.7H24.9V28V12.5l6.3-1c2.2,3,4.4,4.6,8.5,4.6c4,0,6.3-1.7,8.5-4.6l5.3,1V28V60.7z" id="svg_2"/><path class="st0" d="M62.5,69.2V36.8l12.2,2.2c0.1,0,0.2,0,0.3,0c0.6,0,1.2-0.4,1.4-1l4.3-11c0.3-0.7,0-1.6-0.8-1.9l-3.8-1.7    c-0.8-0.3-1.6,0-2,0.7c-0.3,0.8,0,1.6,0.7,2l2.5,1.2L74,35.8l-11.5-2.1v-0.8c0-0.8-0.7-1.5-1.5-1.5s-1.5,0.7-1.5,1.5v34.8H30.9    v-1.8c0-0.8-0.7-1.5-1.5-1.5s-1.5,0.7-1.5,1.5v3.3c0,0.8,0.7,1.5,1.5,1.5H61C61.8,70.7,62.5,70,62.5,69.2z" id="svg_3"/><path class="st0" d="M86.8,32.6L83,30.9c-0.8-0.3-1.6,0-2,0.7c-0.3,0.8,0,1.6,0.7,2l2.5,1.2L81,43.3l-11.5-2.1v-0.8    c0-0.8-0.7-1.5-1.5-1.5s-1.5,0.7-1.5,1.5v34.8H37.9v-1.8c0-0.8-0.7-1.5-1.5-1.5s-1.5,0.7-1.5,1.5v3.3c0,0.8,0.7,1.5,1.5,1.5h31.6    c0.8,0,1.5-0.7,1.5-1.5V44.2l12.2,2.2c0.1,0,0.2,0,0.3,0c0.6,0,1.2-0.4,1.4-1l4.3-11C87.9,33.8,87.5,33,86.8,32.6z" id="svg_4"/></g></g></g></svg>