<?xml version="1.0" encoding="UTF-8"?>
<svg width="18px" height="13px" viewBox="0 0 18 13" version="1.1" xmlns="http://www.w3.org/2000/svg" xmlns:xlink="http://www.w3.org/1999/xlink">
    <!-- Generator: Sketch 48.2 (47327) - http://www.bohemiancoding.com/sketch -->
    <title>youtube</title>
    <desc>Created with Sketch.</desc>
    <defs></defs>
    <g id="social/youtube/default" stroke="none" stroke-width="1" fill="none" fill-rule="evenodd">
        <path d="M17.4329097,6.72924794 C17.4329097,8.11021302 17.2622885,9.49117809 17.2622885,9.49117809 C17.2622885,9.49117809 17.0959329,10.6663314 16.5840694,11.1845932 C15.9357089,11.8638787 15.2084362,11.8670779 14.8746586,11.906534 C12.4870286,12.0792879 8.9018513,12.0846198 8.9018513,12.0846198 C8.9018513,12.0846198 4.46570094,12.0440973 3.1007316,11.9139987 C2.7210995,11.8425511 1.86799366,11.8638787 1.21963322,11.1845932 C0.707769721,10.6663314 0.541414083,9.49117809 0.541414083,9.49117809 C0.541414083,9.49117809 0.370792915,8.11021302 0.370792915,6.72924794 L0.370792915,5.43465983 C0.370792915,4.05369476 0.541414083,2.67379606 0.541414083,2.67379606 C0.541414083,2.67379606 0.707769721,1.49757639 1.21963322,0.979314591 C1.86799366,0.300029067 2.59526639,0.29682992 2.92904405,0.257373775 C5.31667401,0.0846198431 8.89865215,0.0846198431 8.89865215,0.0846198431 L8.90505045,0.0846198431 C8.90505045,0.0846198431 12.4870286,0.0846198431 14.8746586,0.257373775 C15.2084362,0.29682992 15.9357089,0.300029067 16.5840694,0.979314591 C17.0959329,1.49757639 17.2622885,2.67379606 17.2622885,2.67379606 C17.2622885,2.67379606 17.4329097,4.05369476 17.4329097,5.43465983 L17.4329097,6.72924794 Z M7.14040102,8.2978963 L11.7503717,5.90919996 L7.13933464,3.50344149 L7.14040102,8.2978963 Z" id="youtube" fill="#DCDCDC"></path>
    </g>
</svg>